<svg xmlns="http://www.w3.org/2000/svg" viewBox="0 0 420.63 431.26"><defs><style>.cls-1{fill:#329861;}.cls-2{fill:none;stroke:#329861;stroke-miterlimit:10;stroke-width:18.28px;}.cls-3{fill:#fff;}</style></defs><title>Asset 1</title><g id="Layer_2" data-name="Layer 2"><g id="Layer_1-2" data-name="Layer 1"><circle class="cls-1" cx="88.07" cy="376.92" r="22.21"/><circle class="cls-1" cx="22.21" cy="144.74" r="22.21"/><path class="cls-2" d="M67,79Q61.33,84.7,56,91A194.59,194.59,0,0,0,12.87,251.34"/><polygon class="cls-1" points="47.34 66.51 92.08 57.83 77.23 100.92 47.34 66.51"/><path class="cls-2" d="M293.47,43.28A195.35,195.35,0,0,0,112.81,45"/><polygon class="cls-1" points="299.24 20.76 321.31 60.63 275.75 59.82 299.24 20.76"/><path class="cls-2" d="M397.42,247.63A194.92,194.92,0,0,0,339.91,76.38"/><polygon class="cls-1" points="420.63 246.13 389.58 279.48 376.22 235.92 420.63 246.13"/><path class="cls-2" d="M31,305.42a195.31,195.31,0,0,0,147.2,104.75"/><polygon class="cls-1" points="13.04 320.25 18.64 275.03 55.01 302.49 13.04 320.25"/><path class="cls-2" d="M235.19,409.61A195.41,195.41,0,0,0,380.34,302"/><polygon class="cls-1" points="243.77 431.26 202.48 411.98 239.82 385.86 243.77 431.26"/><circle class="cls-1" cx="207" cy="22.21" r="22.21"/><path class="cls-3" d="M206.2,17.67l-2.63.7-.75-2.71,4.32-1.39,2.27,0,.32,15.23-3.29.07Z"/><circle class="cls-1" cx="392.2" cy="161.08" r="22.21"/><path class="cls-3" d="M24.35,151l-2.06-6.18c-.78-2.31-1.28-3.29-2.45-3.74a1.86,1.86,0,0,0-2.57,1.19c-.41,1.09-.09,2.07.8,3.62l-2.59,1.51c-1.37-2.12-1.88-3.87-.92-6.39,1.12-2.93,3.58-4.21,6.22-3.2h0c2.37.9,3.08,2.56,4.06,5.81l.9,3,2.35-6.16,2.69,1-4,10.46Z"/><circle class="cls-1" cx="318.32" cy="372.15" r="22.21"/><path class="cls-3" d="M95.31,376.17l-3.13.48a4.61,4.61,0,0,0-2-3.58,1.89,1.89,0,0,0-2.8.28l0,0c-.7,1-.2,2.2,1.33,3.27l1.13.79-.78,2-5,.92,4.87,3.4-1.63,2.34-8.38-5.85,1.43-2.06,5.23-.8c-1.49-1.46-2.52-3.5-.91-5.81l0,0c1.64-2.34,4.54-2.88,7.31-.95A7.38,7.38,0,0,1,95.31,376.17Z"/><path class="cls-3" d="M316.4,369.76l5.88-4.48,1.86,1.55-.78,12.68-2.24,1.7-5.62-7.38-1.61,1.24-1.64-2.15,1.62-1.23-2-2.6,2.53-1.93Zm1.63,2.15,2.86,3.75.34-6.19Z"/><path class="cls-3" d="M384.22,157.9l2.92,1.13a5.34,5.34,0,0,0-.41,3.95c.5,1.48,1.53,2.16,2.8,1.73l0,0c1.23-.41,1.59-1.7,1.09-3.19a6.45,6.45,0,0,0-1.34-2.22l.59-2.23,7.21-2,3,8.81-2.77.94-2.06-6.11-2.53.67a7.45,7.45,0,0,1,.88,1.81c.94,2.78.34,5.47-2.89,6.56l0,0c-3,1-5.69-.48-6.8-3.78A7.75,7.75,0,0,1,384.22,157.9Z"/></g></g></svg>