<svg xmlns="http://www.w3.org/2000/svg" xmlns:xlink="http://www.w3.org/1999/xlink" viewBox="0 0 560.69 560.69"><defs><style>.cls-1{isolation:isolate;}.cls-2{fill:#4fcce8;}.cls-10,.cls-14,.cls-15,.cls-16,.cls-18,.cls-19,.cls-20,.cls-22,.cls-3,.cls-5,.cls-6,.cls-9{opacity:0.2;}.cls-3,.cls-8{mix-blend-mode:color-dodge;}.cls-4{fill:#fff;}.cls-5{mix-blend-mode:color-burn;}.cls-10,.cls-12,.cls-14,.cls-15,.cls-16,.cls-17,.cls-18,.cls-19,.cls-20,.cls-21,.cls-22,.cls-6,.cls-9{mix-blend-mode:multiply;}.cls-6{fill:url(#linear-gradient);}.cls-7{fill:#ffec5f;}.cls-8{opacity:0.4;}.cls-10{fill:url(#linear-gradient-2);}.cls-11{fill:#ff73a2;}.cls-12,.cls-17,.cls-21{opacity:0.1;}.cls-12{fill:url(#linear-gradient-3);}.cls-13{fill:#c0e339;}.cls-14{fill:url(#linear-gradient-4);}.cls-15{fill:url(#linear-gradient-5);}.cls-16{fill:url(#linear-gradient-6);}.cls-17{fill:url(#linear-gradient-7);}.cls-18{fill:url(#linear-gradient-8);}.cls-19{fill:url(#linear-gradient-9);}.cls-20{fill:url(#linear-gradient-10);}.cls-21{fill:url(#linear-gradient-11);}.cls-22{fill:url(#linear-gradient-12);}</style><linearGradient id="linear-gradient" x1="521.05" y1="935.29" x2="255.57" y2="868.52" gradientTransform="translate(575.32 -754.11) rotate(45)" gradientUnits="userSpaceOnUse"><stop offset="0" stop-color="#fff"/><stop offset="0.13" stop-color="#fbfbfb"/><stop offset="0.25" stop-color="#efefef"/><stop offset="0.38" stop-color="#dbdbdb"/><stop offset="0.5" stop-color="#bfbfbf"/><stop offset="0.63" stop-color="#9b9b9b"/><stop offset="0.75" stop-color="#6f6f6f"/><stop offset="0.88" stop-color="#3c3c3c"/><stop offset="1" stop-color="#010101"/><stop offset="1"/></linearGradient><linearGradient id="linear-gradient-2" x1="523.65" y1="936.2" x2="324.94" y2="742.26" xlink:href="#linear-gradient"/><linearGradient id="linear-gradient-3" x1="521.33" y1="937.37" x2="450.75" y2="670.73" xlink:href="#linear-gradient"/><linearGradient id="linear-gradient-4" x1="521.93" y1="941.2" x2="595.65" y2="668.65" xlink:href="#linear-gradient"/><linearGradient id="linear-gradient-5" x1="520.16" y1="938.19" x2="721.26" y2="741.86" xlink:href="#linear-gradient"/><linearGradient id="linear-gradient-6" x1="522.73" y1="936.75" x2="793.78" y2="867.59" xlink:href="#linear-gradient"/><linearGradient id="linear-gradient-7" x1="525.55" y1="947.04" x2="792.57" y2="1012.13" xlink:href="#linear-gradient"/><linearGradient id="linear-gradient-8" x1="522.59" y1="940.39" x2="719.53" y2="1136.68" xlink:href="#linear-gradient"/><linearGradient id="linear-gradient-9" x1="525.82" y1="938.35" x2="594.97" y2="1209.39" xlink:href="#linear-gradient"/><linearGradient id="linear-gradient-10" x1="519.03" y1="939.08" x2="451.46" y2="1206.95" xlink:href="#linear-gradient"/><linearGradient id="linear-gradient-11" x1="524.85" y1="942.94" x2="324.58" y2="1138.2" xlink:href="#linear-gradient"/><linearGradient id="linear-gradient-12" x1="522.07" y1="941.67" x2="254.1" y2="1012.05" xlink:href="#linear-gradient"/></defs><title>Layer 6</title><g class="cls-1"><g id="Layer_2" data-name="Layer 2"><g id="Layer_6" data-name="Layer 6"><path class="cls-2" d="M280.34,280.35,82.11,82.11A279,279,0,0,1,207.77,9.51Z"/><g class="cls-3"><path class="cls-4" d="M204.94,14.44,272.62,267,87.78,82.13A276.28,276.28,0,0,1,204.94,14.44Zm2.83-4.93A279,279,0,0,0,82.11,82.11L280.34,280.35,207.77,9.51Z"/></g><path class="cls-2" d="M207.06,10.74,278.41,277,83.52,82.11A279.28,279.28,0,0,1,207.06,10.74Zm.71-1.23A279,279,0,0,0,82.11,82.11L280.34,280.35,207.77,9.51Z"/><g class="cls-5"><path d="M207.06,10.74,278.41,277,83.52,82.11A279.28,279.28,0,0,1,207.06,10.74Zm.71-1.23A279,279,0,0,0,82.11,82.11L280.34,280.35,207.77,9.51Z"/></g><path class="cls-6" d="M280.34,280.35,82.11,82.11A279,279,0,0,1,207.77,9.51Z"/><path class="cls-7" d="M280.34,280.35,207.77,9.51a281.68,281.68,0,0,1,145.15,0Z"/><g class="cls-8"><path class="cls-4" d="M280.35,4A277.65,277.65,0,0,1,348,12.37L280.34,264.9,212.67,12.37A277.81,277.81,0,0,1,280.35,4Zm0-4a281.37,281.37,0,0,0-72.57,9.51l72.57,270.84L352.92,9.51A281.44,281.44,0,0,0,280.34,0Z"/></g><path class="cls-7" d="M280.35,1a280.4,280.4,0,0,1,71.35,9.22L280.34,276.49,209,10.22A280.42,280.42,0,0,1,280.35,1Zm0-1a281.37,281.37,0,0,0-72.57,9.51l72.57,270.84L352.92,9.51A281.44,281.44,0,0,0,280.34,0Z"/><g class="cls-9"><path d="M280.35,1a280.4,280.4,0,0,1,71.35,9.22L280.34,276.49,209,10.22A280.42,280.42,0,0,1,280.35,1Zm0-1a281.37,281.37,0,0,0-72.57,9.51l72.57,270.84L352.92,9.51A281.44,281.44,0,0,0,280.34,0Z"/></g><path class="cls-10" d="M280.34,280.35,207.77,9.51a281.68,281.68,0,0,1,145.15,0Z"/><path class="cls-11" d="M478.58,82.11,280.34,280.35,352.92,9.51A279.09,279.09,0,0,1,478.58,82.11Z"/><g class="cls-3"><path class="cls-4" d="M355.74,14.44A276.22,276.22,0,0,1,472.9,82.13L288.07,267,355.74,14.44Zm-2.82-4.93L280.34,280.35,478.58,82.11A279.09,279.09,0,0,0,352.92,9.51Z"/></g><path class="cls-11" d="M353.63,10.74A279.28,279.28,0,0,1,477.17,82.11L282.28,277,353.63,10.74Zm-.71-1.23L280.34,280.35,478.58,82.11A279.09,279.09,0,0,0,352.92,9.51Z"/><g class="cls-9"><path d="M353.63,10.74A279.28,279.28,0,0,1,477.17,82.11L282.28,277,353.63,10.74Zm-.71-1.23L280.34,280.35,478.58,82.11A279.09,279.09,0,0,0,352.92,9.51Z"/></g><path class="cls-12" d="M478.58,82.11,280.34,280.35,352.92,9.51A279.09,279.09,0,0,1,478.58,82.11Z"/><path class="cls-13" d="M551.18,207.77,280.34,280.35,478.58,82.11A279.09,279.09,0,0,1,551.18,207.77Z"/><g class="cls-3"><path class="cls-4" d="M478.56,87.79A276.4,276.4,0,0,1,546.26,205L293.73,272.62,478.56,87.79Zm0-5.68L280.34,280.35l270.84-72.58a279.09,279.09,0,0,0-72.6-125.66Z"/></g><path class="cls-13" d="M478.58,83.53A279.13,279.13,0,0,1,550,207.07L283.69,278.42,478.58,83.53Zm0-1.42L280.34,280.35l270.84-72.58a279.09,279.09,0,0,0-72.6-125.66Z"/><g class="cls-5"><path d="M478.58,83.53A279.13,279.13,0,0,1,550,207.07L283.69,278.42,478.58,83.53Zm0-1.42L280.34,280.35l270.84-72.58a279.09,279.09,0,0,0-72.6-125.66Z"/></g><path class="cls-14" d="M551.18,207.77,280.34,280.35,478.58,82.11A279.09,279.09,0,0,1,551.18,207.77Z"/><path class="cls-2" d="M551.17,352.92,280.34,280.35l270.84-72.58A281.57,281.57,0,0,1,551.17,352.92Z"/><g class="cls-3"><path class="cls-4" d="M548.32,212.68a277.82,277.82,0,0,1,0,135.33L295.8,280.35l252.52-67.67Zm2.86-4.91L280.34,280.35l270.83,72.57a281.57,281.57,0,0,0,0-145.15Z"/></g><path class="cls-2" d="M550.47,209a280.65,280.65,0,0,1,0,142.7L284.21,280.35,550.47,209Zm.71-1.23L280.34,280.35l270.83,72.57a281.57,281.57,0,0,0,0-145.15Z"/><g class="cls-5"><path d="M550.47,209a280.65,280.65,0,0,1,0,142.7L284.21,280.35,550.47,209Zm.71-1.23L280.34,280.35l270.83,72.57a281.57,281.57,0,0,0,0-145.15Z"/></g><path class="cls-15" d="M551.17,352.92,280.34,280.35l270.84-72.58A281.57,281.57,0,0,1,551.17,352.92Z"/><path class="cls-7" d="M478.57,478.58,280.34,280.35l270.83,72.57A279,279,0,0,1,478.57,478.58Z"/><g class="cls-8"><path class="cls-4" d="M293.73,288.08l252.52,67.66a276.14,276.14,0,0,1-67.7,117.16L293.73,288.08Zm-13.39-7.73L478.57,478.58a279,279,0,0,0,72.6-125.66L280.34,280.35Z"/></g><path class="cls-7" d="M283.69,282.28,550,353.63a279.3,279.3,0,0,1-71.38,123.54L283.69,282.28Zm-3.35-1.93L478.57,478.58a279,279,0,0,0,72.6-125.66L280.34,280.35Z"/><g class="cls-9"><path d="M283.69,282.28,550,353.63a279.3,279.3,0,0,1-71.38,123.54L283.69,282.28Zm-3.35-1.93L478.57,478.58a279,279,0,0,0,72.6-125.66L280.34,280.35Z"/></g><path class="cls-16" d="M478.57,478.58,280.34,280.35l270.83,72.57A279,279,0,0,1,478.57,478.58Z"/><path class="cls-11" d="M478.57,478.58a279,279,0,0,1-125.66,72.6L280.34,280.36h0Z"/><g class="cls-3"><path class="cls-4" d="M288.07,293.73,472.9,478.56a276.4,276.4,0,0,1-117.16,67.7L288.07,293.73Zm-7.73-13.38h0l72.57,270.82a279,279,0,0,0,125.66-72.6L280.34,280.35Z"/></g><path class="cls-11" d="M282.27,283.69,477.16,478.58A279.28,279.28,0,0,1,353.62,550L282.27,283.69Zm-1.93-3.34h0l72.57,270.82a279,279,0,0,0,125.66-72.6L280.34,280.35Z"/><g class="cls-9"><path d="M282.27,283.69,477.16,478.58A279.28,279.28,0,0,1,353.62,550L282.27,283.69Zm-1.93-3.34h0l72.57,270.82a279,279,0,0,0,125.66-72.6L280.34,280.35Z"/></g><path class="cls-17" d="M478.57,478.58a279,279,0,0,1-125.66,72.6L280.34,280.36h0Z"/><path class="cls-13" d="M352.91,551.18a281.64,281.64,0,0,1-145.14,0l72.57-270.82Z"/><g class="cls-3"><path class="cls-4" d="M280.34,295.82,348,548.32a277.69,277.69,0,0,1-135.33,0l67.66-252.5Zm0-15.46L207.77,551.18a281.64,281.64,0,0,0,145.14,0L280.34,280.36Z"/></g><path class="cls-13" d="M280.34,284.23l71.35,266.24a280.65,280.65,0,0,1-142.69,0l71.34-266.24Zm0-3.87L207.77,551.18a281.64,281.64,0,0,0,145.14,0L280.34,280.36Z"/><g class="cls-5"><path d="M280.34,284.23l71.35,266.24a280.65,280.65,0,0,1-142.69,0l71.34-266.24Zm0-3.87L207.77,551.18a281.64,281.64,0,0,0,145.14,0L280.34,280.36Z"/></g><path class="cls-18" d="M352.91,551.18a281.64,281.64,0,0,1-145.14,0l72.57-270.82Z"/><path class="cls-2" d="M207.77,551.18a279.14,279.14,0,0,1-125.66-72.6L280.34,280.35h0Z"/><g class="cls-3"><path class="cls-4" d="M272.62,293.73,205,546.26a276.4,276.4,0,0,1-117.16-67.7L272.62,293.73Zm7.72-13.38L82.11,478.58a279.14,279.14,0,0,0,125.66,72.6l72.57-270.82Z"/></g><path class="cls-2" d="M278.42,283.69,207.07,550A279.28,279.28,0,0,1,83.53,478.58L278.42,283.69Zm1.92-3.34L82.11,478.58a279.14,279.14,0,0,0,125.66,72.6l72.57-270.82Z"/><g class="cls-5"><path d="M278.42,283.69,207.07,550A279.28,279.28,0,0,1,83.53,478.58L278.42,283.69Zm1.92-3.34L82.11,478.58a279.14,279.14,0,0,0,125.66,72.6l72.57-270.82Z"/></g><path class="cls-19" d="M207.77,551.18a279.14,279.14,0,0,1-125.66-72.6L280.34,280.35h0Z"/><path class="cls-7" d="M280.34,280.35,82.11,478.58A279,279,0,0,1,9.52,352.92Z"/><g class="cls-8"><path class="cls-4" d="M267,288.08,82.13,472.9A276.22,276.22,0,0,1,14.44,355.74L267,288.08Zm13.38-7.73L9.52,352.92A279,279,0,0,0,82.11,478.58L280.34,280.35Z"/></g><path class="cls-7" d="M277,282.28,82.11,477.17A279.28,279.28,0,0,1,10.74,353.63L277,282.28Zm3.34-1.93L9.52,352.92A279,279,0,0,0,82.11,478.58L280.34,280.35Z"/><g class="cls-9"><path d="M277,282.28,82.11,477.17A279.28,279.28,0,0,1,10.74,353.63L277,282.28Zm3.34-1.93L9.52,352.92A279,279,0,0,0,82.11,478.58L280.34,280.35Z"/></g><path class="cls-20" d="M280.34,280.35,82.11,478.58A279,279,0,0,1,9.52,352.92Z"/><path class="cls-11" d="M280.34,280.35,9.52,352.92a281.57,281.57,0,0,1,0-145.15Z"/><g class="cls-3"><path class="cls-4" d="M12.37,212.68l252.52,67.67L12.37,348a277.82,277.82,0,0,1,0-135.33Zm-2.86-4.91a281.57,281.57,0,0,0,0,145.15l270.82-72.57L9.51,207.77Z"/></g><path class="cls-11" d="M10.22,209l266.26,71.35L10.22,351.7a280.76,280.76,0,0,1,0-142.7Zm-.71-1.23a281.57,281.57,0,0,0,0,145.15l270.82-72.57L9.51,207.77Z"/><g class="cls-9"><path d="M10.22,209l266.26,71.35L10.22,351.7a280.76,280.76,0,0,1,0-142.7Zm-.71-1.23a281.57,281.57,0,0,0,0,145.15l270.82-72.57L9.51,207.77Z"/></g><path class="cls-21" d="M280.34,280.35,9.52,352.92a281.57,281.57,0,0,1,0-145.15Z"/><path class="cls-13" d="M280.34,280.35,9.51,207.77A279,279,0,0,1,82.11,82.11Z"/><g class="cls-3"><path class="cls-4" d="M82.13,87.79,267,272.62,14.43,205A276.3,276.3,0,0,1,82.13,87.79Zm0-5.68A279,279,0,0,0,9.51,207.77l270.83,72.58L82.11,82.11Z"/></g><path class="cls-13" d="M82.11,83.53,277,278.42,10.73,207.07A279.24,279.24,0,0,1,82.11,83.53Zm0-1.42A279,279,0,0,0,9.51,207.77l270.83,72.58L82.11,82.11Z"/><g class="cls-5"><path d="M82.11,83.53,277,278.42,10.73,207.07A279.24,279.24,0,0,1,82.11,83.53Zm0-1.42A279,279,0,0,0,9.51,207.77l270.83,72.58L82.11,82.11Z"/></g><path class="cls-22" d="M280.34,280.35,9.51,207.77A279,279,0,0,1,82.11,82.11Z"/></g></g></g></svg>