<?xml version="1.0" encoding="utf-8"?>
<!-- Generator: Adobe Illustrator 25.2.1, SVG Export Plug-In . SVG Version: 6.00 Build 0)  -->
<svg version="1.1" id="Layer_1" xmlns="http://www.w3.org/2000/svg" xmlns:xlink="http://www.w3.org/1999/xlink" x="0px" y="0px"
	 viewBox="0 0 83.2 87.2" style="enable-background:new 0 0 83.2 87.2;" xml:space="preserve">
<style type="text/css">
	.st0{fill:url(#SVGID_1_);}
	.st1{fill:url(#SVGID_2_);}
	.st2{fill:#FFC500;}
	.st3{fill:url(#SVGID_3_);}
	.st4{fill:url(#SVGID_4_);}
	.st5{fill:url(#SVGID_5_);}
	.st6{opacity:0.68;}
	.st7{fill:url(#SVGID_6_);}
	.st8{clip-path:url(#SVGID_8_);}
	.st9{opacity:0.14;fill:#F4C4A8;enable-background:new    ;}
	.st10{fill:#B93800;}
	.st11{fill:#FFAB00;}
	.st12{opacity:0.46;}
	.st13{fill:url(#SVGID_9_);}
	.st14{fill:url(#SVGID_10_);}
	.st15{fill:url(#SVGID_11_);}
	.st16{fill:url(#SVGID_12_);}
	.st17{fill:url(#SVGID_13_);}
	.st18{fill:url(#SVGID_14_);}
	.st19{fill:#FFED0C;}
	.st20{fill:url(#SVGID_15_);}
	.st21{fill:#9E0508;}
	.st22{fill:url(#SVGID_16_);}
	.st23{fill:#FFFD41;}
	.st24{fill:url(#SVGID_17_);}
	.st25{fill:url(#SVGID_18_);}
	.st26{fill:url(#SVGID_19_);}
	.st27{fill:url(#SVGID_20_);}
	.st28{fill:url(#SVGID_21_);}
	.st29{fill:url(#SVGID_22_);}
	.st30{fill:url(#SVGID_23_);}
	.st31{fill:url(#SVGID_24_);}
	.st32{fill:url(#SVGID_25_);}
	.st33{fill:url(#SVGID_26_);}
	.st34{fill:url(#SVGID_27_);}
	.st35{opacity:0.36;fill:url(#SVGID_28_);enable-background:new    ;}
	.st36{fill:url(#SVGID_29_);}
	.st37{fill:url(#SVGID_30_);}
	.st38{fill:url(#SVGID_31_);}
	.st39{fill:url(#SVGID_32_);}
	.st40{opacity:0.36;fill:url(#SVGID_33_);enable-background:new    ;}
	.st41{fill:url(#SVGID_34_);}
</style>
<g>
	<g id="Layer_1_1_">
		
			<image style="overflow:visible;opacity:0.45;enable-background:new    ;" width="412" height="323" xlink:href="20664085.png"  transform="matrix(0.24 0 0 0.24 -0.84 11.81)">
		</image>
		
			<linearGradient id="SVGID_1_" gradientUnits="userSpaceOnUse" x1="154.6107" y1="104.9743" x2="154.6107" y2="69.6143" gradientTransform="matrix(0.97 0.23 0.23 -0.97 -126.0747 84.2132)">
			<stop  offset="0" style="stop-color:#FF5D54"/>
			<stop  offset="0.28" style="stop-color:#FC5A52"/>
			<stop  offset="0.5" style="stop-color:#F3504B"/>
			<stop  offset="0.7" style="stop-color:#E4403F"/>
			<stop  offset="0.88" style="stop-color:#CF292F"/>
			<stop  offset="1" style="stop-color:#BE1622"/>
		</linearGradient>
		<path class="st0" d="M42.3,49.5c-16.6,0.2-29.5-2.5-29.5-6c0-1.1,0.6-2.1,2.7-3l4.2-18.1c0.1-0.6,0.7-0.9,1.3-0.8
			c0.2,0.1,0.4,0.2,0.6,0.4l11.8,15c2.8-0.2,5.7-0.4,8.7-0.4c3.4-0.1,6.7,0,9.8,0.2l11-14.9c0.3-0.4,0.8-0.4,1.1-0.2
			c0.2,0.1,0.3,0.3,0.3,0.5L69,39.8c2,0.8,2.3,1.9,2.4,3C71.4,46.3,58.9,49.3,42.3,49.5z"/>
		
			<linearGradient id="SVGID_2_" gradientUnits="userSpaceOnUse" x1="118.5041" y1="78.3216" x2="184.5641" y2="78.3216" gradientTransform="matrix(0.97 0.23 0.23 -0.97 -126.0747 84.2132)">
			<stop  offset="0" style="stop-color:#9987FF"/>
			<stop  offset="1" style="stop-color:#453878"/>
		</linearGradient>
		<path class="st1" d="M42.5,65.1C26.8,65.3,16.3,60.7,15,59L9.2,27c2.2,4.4,4.7,8.6,7.7,12.5c5.2,7,9.3,9.4,9.3,9.4l15.6-24.5
			l16.2,24.1c0,0,5.8-2.6,10.4-9.9S74.1,28,74.1,28l-4.2,29.9C68.8,59.7,58.2,64.9,42.5,65.1z"/>
		<path class="st2" d="M67.8,34.1c-2.3,3.7-5.2,7.1-8.6,9.9c-0.5,0.4-1.1,0.3-1.5-0.2c0,0-0.1-0.1-0.1-0.1L42.8,20.4
			c-0.3-0.5-1-0.7-1.5-0.4c-0.1,0.1-0.3,0.2-0.4,0.4l-14,23.5c-0.3,0.5-1,0.7-1.5,0.4c-0.1-0.1-0.2-0.1-0.3-0.2
			c-1.4-1.6-4.2-4.9-8.4-10.1c-2.3-2.8-4.4-5.7-6.4-8.7c-0.5-0.7-1-1.5-1.4-2.2s-0.7-1.7-1.4-2.1c-0.4,0.8,0,2.1,0.2,2.9
			c0,0.1,0.1,0.2,0.1,0.3L9.2,27c2,4.3,4.5,8.4,7.5,12.2c2.7,3.5,5.6,6.9,8.7,10.1c0.4,0.4,1.1,0.5,1.5,0c0.1-0.1,0.1-0.2,0.2-0.2
			L41,25.9c0.3-0.5,1-0.7,1.5-0.4c0.1,0.1,0.3,0.2,0.4,0.4l14.7,23c0.3,0.5,1,0.7,1.5,0.3c0,0,0.1-0.1,0.1-0.1
			c3.7-3.1,6.8-6.7,9.4-10.7c4.7-7.4,7.1-12.4,7.2-15.3c0-0.8,0.3-2-0.1-2.8c-0.8,0.6-1,1.9-1.5,2.8c-0.6,1.3-1.3,2.5-2,3.7
			C70.8,29.4,69.3,31.8,67.8,34.1z"/>
		
			<linearGradient id="SVGID_3_" gradientUnits="userSpaceOnUse" x1="425.1849" y1="40.6834" x2="482.1541" y2="40.6834" gradientTransform="matrix(1 -1.000000e-02 -1.000000e-02 -1 -411.0811 107.3298)">
			<stop  offset="0" style="stop-color:#FFC500"/>
			<stop  offset="0.22" style="stop-color:#FF9700"/>
			<stop  offset="0.43" style="stop-color:#FF9900"/>
			<stop  offset="0.5" style="stop-color:#FFA700"/>
			<stop  offset="0.57" style="stop-color:#FFAE00"/>
			<stop  offset="0.69" style="stop-color:#FF9600"/>
			<stop  offset="0.77" style="stop-color:#FF9900"/>
			<stop  offset="0.83" style="stop-color:#FFA300"/>
			<stop  offset="0.88" style="stop-color:#FFB300"/>
			<stop  offset="0.92" style="stop-color:#FFC500"/>
		</linearGradient>
		<path class="st3" d="M13.8,58.1l0.4,2.3c0.6,4.3,12.7,7.1,28.3,6.9s27.4-3.5,28.1-7.7l0.2-2l-0.6-0.8l-0.2,1
			c-1.3,1.8-12,7.4-27.7,7.7S16.3,60.7,15,59l-0.3-1.8L13.8,58.1z"/>
		
			<linearGradient id="SVGID_4_" gradientUnits="userSpaceOnUse" x1="424.7948" y1="41.1039" x2="482.3048" y2="41.9439" gradientTransform="matrix(1 -1.000000e-02 -1.000000e-02 -1 -411.0811 107.3298)">
			<stop  offset="1.000000e-02" style="stop-color:#FFFF59"/>
			<stop  offset="9.000000e-02" style="stop-color:#FFFF59"/>
			<stop  offset="0.54" style="stop-color:#FFFF59"/>
			<stop  offset="1" style="stop-color:#FFFF59"/>
		</linearGradient>
		<path class="st4" d="M42.5,66c15.3-0.2,27-4.4,28.3-8.4l-0.6-0.8l-0.2,1c-1.3,1.8-11.9,7-27.6,7.2S16.3,60.7,15,59l-0.3-1.8
			L13.9,58C14.4,62.3,26.8,66.3,42.5,66z"/>
		<g>
			
				<linearGradient id="SVGID_5_" gradientUnits="userSpaceOnUse" x1="42.0936" y1="36.7998" x2="42.1436" y2="43.0098" gradientTransform="matrix(1 0 0 -1 0 87.8898)">
				<stop  offset="0" style="stop-color:#650E0E"/>
				<stop  offset="0.22" style="stop-color:#700E0A"/>
				<stop  offset="0.67" style="stop-color:#810E03"/>
				<stop  offset="1" style="stop-color:#870E00"/>
			</linearGradient>
			<path class="st5" d="M48.1,52.7c0,3.3-2.7,6.1-6,6.1c-3.3,0-6.1-2.7-6.1-6c0-3.3,2.6-6.1,6-6.1C45.3,46.6,48.1,49.3,48.1,52.7
				C48.1,52.7,48.1,52.7,48.1,52.7z"/>
		</g>
		<g class="st6">
			
				<radialGradient id="SVGID_6_" cx="453.5149" cy="47.6678" r="6.06" gradientTransform="matrix(1 -1.000000e-02 -1.000000e-02 -1 -411.0811 107.3298)" gradientUnits="userSpaceOnUse">
				<stop  offset="0" style="stop-color:#FFCB00"/>
				<stop  offset="0.51" style="stop-color:#FFC900"/>
				<stop  offset="0.69" style="stop-color:#FFC200"/>
				<stop  offset="0.82" style="stop-color:#FEB700"/>
				<stop  offset="0.92" style="stop-color:#FDA600"/>
				<stop  offset="1" style="stop-color:#FC9300"/>
			</radialGradient>
			<path class="st7" d="M48.1,52.9c0.1,3.3-2.6,6.1-5.9,6.2s-6.1-2.6-6.2-5.9s2.6-6.1,5.9-6.2c0,0,0,0,0,0
				C45.3,47,48.1,49.6,48.1,52.9z"/>
			<g>
				<defs>
					<path id="SVGID_7_" d="M48.1,52.9c0.1,3.3-2.6,6.1-5.9,6.2s-6.1-2.6-6.2-5.9s2.6-6.1,5.9-6.2c0,0,0,0,0,0
						C45.3,47,48.1,49.6,48.1,52.9z"/>
				</defs>
				<clipPath id="SVGID_8_">
					<use xlink:href="#SVGID_7_"  style="overflow:visible;"/>
				</clipPath>
				<g class="st8">
					
						<image style="overflow:visible;enable-background:new    ;" width="54" height="55" xlink:href="20664087.png"  transform="matrix(0.24 0 0 0.24 35.52 46.49)">
					</image>
					
						<image style="overflow:visible;enable-background:new    ;" width="54" height="55" xlink:href="20664082.png"  transform="matrix(0.24 0 0 0.24 35.52 46.49)">
					</image>
				</g>
			</g>
		</g>
		<path class="st9" d="M42,47c-3.3,0-6,2.8-6,6.1c0,3.3,2.8,6,6.1,6c3.3,0,6-2.8,6-6.1C48.1,49.7,45.4,47,42,47C42,47,42,47,42,47z
			 M47.7,54.2c0,0.2,0,0.2,0,0.5s-0.1,0.2-0.3,0.4s-0.1,0.6-0.5,0.8s-0.2,0.4-0.3,0.6S46.4,56.8,46,57s-0.3,0.1-0.6,0.3
			s-0.8,0.6-0.9,0.7c-0.3,0.2-0.6,0.4-0.9,0.4c-0.2,0-0.4,0-0.6,0c-0.2,0-0.3,0-0.5,0H41l-0.8-0.2c-0.1,0-0.6-0.3-0.8-0.4
			s-0.8-0.4-1-0.5c-0.2-0.2-0.4-0.4-0.5-0.6c-0.1-0.2-0.3-0.5-0.5-0.7c-0.2-0.3-0.4-0.4-0.6-0.7c-0.1-0.2-0.1-0.5-0.1-0.8L36.4,54
			c-0.1-0.2,0.1-0.6,0.1-0.6l0-1.1c0.1-0.2,0.1-0.5,0.1-0.7c0-0.2,0.1-0.4,0.2-0.6c0.1-0.3,0.4-0.4,0.6-0.6c0.1-0.3,0.3-0.7,0.5-1
			c0.2-0.3,0.4-0.4,0.6-0.7s0.4-0.3,0.7-0.5c0.3-0.1,0.5-0.3,0.8-0.5c0.2-0.1,0.4-0.2,0.7-0.3c0.2,0,0.4,0,0.7,0
			c0.2,0,0.5-0.1,0.7-0.2c0.2,0,0.4-0.1,0.6-0.1c0.3,0,0.6,0.1,0.8,0.2c0.2,0,0.5,0.2,0.7,0.3c0.2,0.1,0.3,0.1,0.5,0.2
			c0.3,0.1,0.3,0,0.5,0.2s0.5,0.4,0.5,0.4s0.3,0.4,0.3,0.5s0.3,0.3,0.5,0.4c0.2,0.1,0.3,0.2,0.5,0.4c0.1,0.2,0.2,0.4,0.2,0.7
			c0.1,0.3,0.1,0.2,0.2,0.5s0.1,0.1,0.2,0.3c0.1,0.1,0.2,0.2,0.2,0.3c0,0.2,0,0.2-0.1,0.5s0.1,0.4,0.1,0.6c0,0.2,0.1,0.4,0.1,0.6
			c0,0.3,0,0.2-0.1,0.5C47.7,53.8,47.6,54,47.7,54.2L47.7,54.2z"/>
		<path class="st10" d="M42,47c-3.3,0-6,2.8-6,6.1c0,3.3,2.8,6,6.1,6c3.3,0,6-2.8,6-6.1C48.1,49.7,45.4,47,42,47C42,47,42,47,42,47z
			 M42.2,59c-3.3,0.1-6-2.5-6.1-5.8c-0.1-2.1,1-4.1,2.8-5.2c0.4-0.3,0.9-0.4,1.3-0.7c0.6-0.2,1.2-0.3,1.8-0.3c0.7,0,1.4,0.1,2.1,0.3
			c0.4,0.1,0.8,0.3,1.2,0.6c0.2,0.2,0.5,0.3,0.7,0.6c2.5,2.2,2.7,6,0.5,8.5C45.4,58.2,43.8,59,42.2,59z"/>
		<path class="st11" d="M42.2,60.5c-4.3,0.1-7.8-3.4-7.8-7.6c-0.1-4.3,3.4-7.8,7.6-7.8c4.3-0.1,7.8,3.4,7.8,7.6
			C49.9,56.9,46.5,60.4,42.2,60.5z M42,46.7c-3.4,0.1-6.1,2.8-6,6.2c0.1,3.4,2.8,6.1,6.2,6c3.4-0.1,6.1-2.8,6-6.2c0,0,0,0,0,0
			C48.1,49.3,45.4,46.6,42,46.7z"/>
		<g class="st12">
			<g>
				
					<linearGradient id="SVGID_9_" gradientUnits="userSpaceOnUse" x1="41.82" y1="35.1898" x2="49.36" y2="35.1898" gradientTransform="matrix(1 0 0 -1 0 87.8898)">
					<stop  offset="0" style="stop-color:#000000"/>
					<stop  offset="9.000000e-02" style="stop-color:#080500"/>
					<stop  offset="0.22" style="stop-color:#1F1100"/>
					<stop  offset="0.39" style="stop-color:#452600"/>
					<stop  offset="0.58" style="stop-color:#794200"/>
					<stop  offset="0.8" style="stop-color:#BB6600"/>
					<stop  offset="1" style="stop-color:#FF8B00"/>
				</linearGradient>
				<path class="st13" d="M41.8,45.4h0.8h0.2h0.1h0.1l0.3,0l0.3,0.1h0.2h0.2c0.5,0.1,0.9,0.3,1.4,0.5c0.5,0.3,1,0.6,1.5,1l0,0l0,0
					l0.1,0.1l0.1,0.1l0,0l0,0l0.2,0.2l0,0l0,0l0.1,0.1c0.1,0.1,0.2,0.2,0.3,0.4l0.2,0.2l0.1,0.1l0.1,0.1c0.5,0.7,0.9,1.4,1.2,2.3
					l0.1,0.3l0.1,0.3v0.1v0.1v0.1c0,0,0,0.1,0,0.1v0.3c0,0,0,0,0,0.1v0.3c0,0,0,0.1,0,0.1v0.5c0,0,0,0.1,0,0.1v0.4v0.3
					c0,0,0,0.1,0,0.1V54v0.1v0.1l-0.1,0.3L49,54.8c-0.2,0.7-0.5,1.3-0.9,1.9l-0.1,0.1L48,56.9l-0.1,0.2l-0.3,0.4l-0.1,0.1l0,0l0,0
					l-0.2,0.2l0,0v0l-0.1,0.1L47.1,58l0,0l0,0c-0.4,0.4-0.9,0.7-1.4,1c-0.4,0.2-0.9,0.4-1.4,0.6h-0.2H44l-0.3,0.1l-0.3,0h-0.1H43
					h-0.2h-0.2H42l0,0h0.4h0.2h0.2L43,60h0.1h0.1l0.3-0.1l0.3-0.1l0.2-0.1h0.2c0.5-0.2,0.9-0.4,1.3-0.6c0.5-0.3,1-0.6,1.4-1l0,0l0,0
					L47,58l0.1-0.1l0,0l0,0l0.2-0.2l0,0v0l0.1-0.1c0.1-0.1,0.2-0.3,0.3-0.4c0.1-0.1,0.1-0.1,0.1-0.2l0.1-0.1l0.1-0.1
					c0.4-0.6,0.7-1.2,0.8-1.9l0.1-0.3c0-0.1,0-0.2,0-0.3v-0.1v-0.1V54c0,0,0-0.1,0-0.1v-0.3c0,0,0,0,0-0.1v-1.4V52v-0.1
					c0,0,0,0,0-0.1v-0.3c0,0,0-0.1,0-0.1v-0.1v-0.1v-0.1c0-0.1,0-0.2-0.1-0.3l-0.1-0.3c-0.2-0.7-0.5-1.3-0.9-1.8l-0.1-0.1l-0.1-0.1
					l-0.2-0.2c-0.1-0.1-0.2-0.3-0.3-0.4l-0.1-0.1l0,0l0,0L47,47.7l0,0l0,0l-0.1-0.1l-0.1-0.1l0,0l0,0c-0.4-0.4-0.9-0.7-1.4-1
					c-0.4-0.2-0.9-0.4-1.4-0.5h-0.2h-0.2l-0.3-0.1h-0.3H43h-0.1h-0.2h-0.2h-0.6L41.8,45.4z"/>
			</g>
		</g>
		<g class="st12">
			<g>
				
					<linearGradient id="SVGID_10_" gradientUnits="userSpaceOnUse" x1="42.05" y1="34.9348" x2="34.69" y2="34.9348" gradientTransform="matrix(1 0 0 -1 0 87.8898)">
					<stop  offset="0" style="stop-color:#000000"/>
					<stop  offset="9.000000e-02" style="stop-color:#080500"/>
					<stop  offset="0.22" style="stop-color:#1F1100"/>
					<stop  offset="0.39" style="stop-color:#452600"/>
					<stop  offset="0.58" style="stop-color:#794200"/>
					<stop  offset="0.8" style="stop-color:#BB6600"/>
					<stop  offset="1" style="stop-color:#FF8B00"/>
				</linearGradient>
				<path class="st14" d="M42,60h-0.6h-0.2h-0.2H41h-0.1h-0.3l-0.3-0.1h-0.2H40c-0.5-0.1-0.9-0.3-1.3-0.5c-0.5-0.3-1-0.6-1.4-1
					L37,58.1V58h0l0,0l-0.2-0.2h0l0,0l-0.1-0.1c-0.1-0.1-0.2-0.2-0.3-0.4l-0.2-0.2l-0.1-0.1L36.1,57c-0.5-0.6-0.8-1.3-1.1-2v-0.3
					c0-0.1-0.1-0.2-0.1-0.3v-0.1v-0.1v-0.1v-0.1v-0.3c0,0,0,0,0-0.1v-0.3c0,0,0-0.1,0-0.1v-1.1v-0.3c0,0,0-0.1,0-0.1v-0.1v-0.1v-0.1
					l0-0.3l0.1-0.2c0.2-0.7,0.5-1.3,0.8-1.9l0.1-0.1l0.1-0.1c0-0.1,0.1-0.1,0.1-0.2s0.2-0.3,0.3-0.4l0.1-0.1l0,0l0,0l0.2-0.2l0,0
					l0,0l0.1-0.1l0.2-0.2c0.4-0.4,0.9-0.7,1.4-1c0.4-0.2,0.9-0.4,1.3-0.6l0.2,0h0.1l0.3-0.1h0.3h0.1h0.1h0.2h0.2h0.6l0,0h-0.4h-0.2
					h-0.2h-0.2h-0.1h-0.1L40.2,46L39.9,46h-0.1l0,0c-0.5,0.2-0.9,0.3-1.3,0.6c-0.5,0.3-1,0.6-1.4,1c0,0-0.1,0.1-0.2,0.2l-0.1,0.1
					l0,0l0,0L36.7,48l0,0l0,0l-0.1,0.1c-0.1,0.1-0.2,0.2-0.3,0.4c0,0.1-0.1,0.1-0.1,0.2l-0.1,0.1l-0.1,0.1c-0.4,0.6-0.6,1.2-0.8,1.8
					L35.2,51l-0.1,0.3v0.1v0.1v0.1c0,0,0,0.1,0,0.1c0,0.1,0,0.2,0,0.3c0,0,0,0,0,0.1v1c0,0,0,0.1,0,0.1v0.3c0,0,0,0,0,0.1v0.3V54
					v0.1v0.1v0.1l0.1,0.2l0.1,0.2c0.2,0.7,0.4,1.3,0.7,1.9l0.1,0.1l0.1,0.1c0,0.1,0.1,0.1,0.1,0.2c0.1,0.1,0.2,0.2,0.3,0.4l0.1,0.1
					l0,0l0,0l0.2,0.2l0,0l0,0l0.1,0.1l0.2,0.2c0.4,0.4,0.9,0.7,1.4,1c0.4,0.2,0.9,0.4,1.3,0.5l0.2,0h0.1l0.3,0.1h0.3h0.1h0.1h0.2
					h0.7L42,60z"/>
			</g>
		</g>
		<g class="st12">
			<g>
				
					<linearGradient id="SVGID_11_" gradientUnits="userSpaceOnUse" x1="42.1208" y1="35.2398" x2="42.1208" y2="28.3798" gradientTransform="matrix(1 0 0 -1 0 87.8898)">
					<stop  offset="0" style="stop-color:#000000"/>
					<stop  offset="9.000000e-02" style="stop-color:#080500"/>
					<stop  offset="0.22" style="stop-color:#1F1100"/>
					<stop  offset="0.39" style="stop-color:#452600"/>
					<stop  offset="0.58" style="stop-color:#794200"/>
					<stop  offset="0.8" style="stop-color:#BB6600"/>
					<stop  offset="1" style="stop-color:#FF8B00"/>
				</linearGradient>
				<path class="st15" d="M48.7,52.7v0.5c0,0.1,0,0.1,0,0.2v0.2v0.1c0,0,0,0.1,0,0.1c0,0.1,0,0.2,0,0.2s0,0.2,0,0.3v0.1v0.2
					c-0.2,0.4-0.4,0.9-0.7,1.3c-0.2,0.5-0.5,0.9-0.9,1.3L47,57.3l-0.1,0.1l-0.1,0.1l-0.2,0.2l0,0l0,0l-0.1,0.1L46.2,58L46,58.1
					L46,58.2l-0.1,0.1c-0.5,0.4-1.1,0.6-1.7,0.8l-0.2,0.1l-0.2,0.1h-0.1h-0.1h-0.1h-0.1h-0.2h-1.6h-0.2H41h-0.1h-0.1h-0.1h-0.2
					l-0.2-0.1c-0.6-0.2-1.2-0.4-1.7-0.8l-0.1-0.1l-0.1-0.1L38,58.2c-0.1-0.1-0.2-0.2-0.3-0.3l-0.1-0.1l0,0l0,0l-0.2-0.2l-0.1-0.1
					l-0.1-0.1c-0.1,0-0.1-0.1-0.2-0.2c-0.4-0.4-0.7-0.8-0.9-1.3c-0.2-0.4-0.4-0.8-0.5-1.2v-0.1c0,0,0-0.1,0-0.1l-0.1-0.3
					c0-0.1,0-0.2,0-0.2s0-0.1,0-0.1v-0.1v-0.2c0-0.1,0-0.1,0-0.2v-0.5l0,0v0.2c0,0,0,0.1,0,0.1v0.2c0,0.1,0,0.1,0,0.2v0.2v0.1V54
					c0,0.1,0,0.2,0,0.2l0.1,0.3c0,0,0,0.1,0,0.1v0.1c0.1,0.4,0.3,0.8,0.5,1.2c0.3,0.5,0.6,0.9,0.9,1.3l0.2,0.2l0.1,0.1l0.1,0.1
					l0.2,0.1l0,0l0,0l0.1,0.1c0.1,0.1,0.2,0.2,0.3,0.3l0.2,0.1l0.1,0.1l0.1,0.1c0.5,0.3,1.1,0.6,1.7,0.8l0.2,0.1h0.2h0.1h0.1h0.1
					h0.1h0.2h1.3h0.1H43h0.1h0.1h0.1h0.1l0.2-0.1l0.2-0.1c0.6-0.2,1.2-0.5,1.7-0.8l0.1-0.1l0.1-0.1l0.2-0.1l0.3-0.3l0.1-0.1l0,0l0,0
					l0.2-0.2l0.1-0.1l0.1-0.1c0-0.1,0.1-0.1,0.1-0.2c0.3-0.4,0.6-0.8,0.9-1.3c0.2-0.4,0.4-0.8,0.5-1.2v-0.1c0,0,0-0.1,0-0.1l0.1-0.3
					c0-0.1,0-0.2,0-0.2c0,0,0-0.1,0-0.1v-0.1v-0.2c0-0.1,0-0.1,0-0.2v-0.5L48.7,52.7z"/>
			</g>
		</g>
		<g class="st12">
			<g>
				
					<linearGradient id="SVGID_12_" gradientUnits="userSpaceOnUse" x1="41.9747" y1="34.8498" x2="41.9747" y2="41.7498" gradientTransform="matrix(1 0 0 -1 0 87.8898)">
					<stop  offset="0" style="stop-color:#000000"/>
					<stop  offset="9.000000e-02" style="stop-color:#080500"/>
					<stop  offset="0.22" style="stop-color:#1F1100"/>
					<stop  offset="0.39" style="stop-color:#452600"/>
					<stop  offset="0.58" style="stop-color:#794200"/>
					<stop  offset="0.8" style="stop-color:#BB6600"/>
					<stop  offset="1" style="stop-color:#FF8B00"/>
				</linearGradient>
				<path class="st16" d="M35.3,53v-0.5c0-0.1,0-0.1,0-0.2v-0.2V52c0,0,0-0.1,0-0.1c0-0.1,0-0.2,0-0.2c0-0.1,0-0.2,0-0.3v-0.1v-0.2
					c0.2-0.4,0.4-0.9,0.7-1.2c0.2-0.5,0.6-0.9,0.9-1.3c0-0.1,0.1-0.1,0.1-0.2l0.1-0.1l0,0l0,0c0,0,0.1-0.1,0.2-0.2l0,0l0,0l0.1-0.1
					l0.3-0.3l0.2-0.1l0.1-0.1l0.1-0.1c0.6-0.4,1.2-0.8,1.9-1l0.2-0.1l0.2-0.1h0.1h0.1h0.1H41h0.2h1.5H43h0.1h0.1h0.1h0.1l0.2,0
					l0.2,0.1c0.6,0.2,1.2,0.4,1.8,0.8l0.1,0.1l0.1,0.1l0.2,0.1c0.1,0.1,0.2,0.2,0.4,0.3l0.1,0.1h0l0,0l0.2,0.2l0,0l0,0l0.1,0.1
					l0.2,0.2c0.4,0.4,0.8,0.9,1.1,1.4c0.2,0.4,0.4,0.8,0.5,1.2v0.2c0,0,0,0.1,0,0.1l0.1,0.3c0,0.1,0,0.2,0,0.2c0,0,0,0.1,0,0.1v0.1
					c0,0.1,0,0.1,0,0.2c0,0.1,0,0.1,0,0.2v0.5l0,0c0,0,0-0.1,0-0.2s0-0.1,0-0.1v-0.2c0-0.1,0-0.1,0-0.2v-0.2v-0.1v-0.1
					c0-0.1,0-0.2,0-0.2l-0.1-0.3v-0.1v-0.1c-0.3-0.9-0.9-1.8-1.6-2.5l-0.2-0.2l-0.1-0.1l0,0l0,0L46.5,48l0,0l0,0l-0.1-0.1
					c-0.1-0.1-0.2-0.2-0.3-0.3l-0.2-0.1l-0.1-0.1l-0.1-0.1c-0.5-0.3-1.1-0.6-1.7-0.8l-0.2-0.1l-0.2-0.1h-0.1h-0.1h-0.1H43h-0.2h-1.6
					H41h-0.1h-0.1h-0.1h-0.1l-0.2,0.1l-0.2,0.1c-0.6,0.2-1.2,0.5-1.7,0.8l-0.1,0.1l-0.1,0.1L38,47.7c-0.1,0.1-0.2,0.2-0.3,0.3
					l-0.1,0.1l0,0l0,0l-0.2,0.2l0,0l0,0l-0.1,0.1l-0.2,0.2c-0.3,0.4-0.6,0.8-0.9,1.3c-0.2,0.4-0.4,0.8-0.5,1.2v0.2v0.1
					c0,0.1,0,0.2-0.1,0.3s0,0.2,0,0.2c0,0,0,0.1,0,0.1V52v0.2c0,0.1,0,0.1,0,0.2V53H35.3z"/>
			</g>
		</g>
		<g>
			
				<linearGradient id="SVGID_13_" gradientUnits="userSpaceOnUse" x1="48.8304" y1="32.3572" x2="43.5904" y2="28.0172" gradientTransform="matrix(1 0 0 -1 0 87.8898)">
				<stop  offset="0" style="stop-color:#FFFFFF"/>
				<stop  offset="0.13" style="stop-color:#FFD7A1"/>
				<stop  offset="0.26" style="stop-color:#FFB24C"/>
				<stop  offset="0.32" style="stop-color:#FFA42B"/>
				<stop  offset="0.39" style="stop-color:#FFA732"/>
				<stop  offset="0.48" style="stop-color:#FFAF44"/>
				<stop  offset="0.6" style="stop-color:#FFBC63"/>
				<stop  offset="0.73" style="stop-color:#FFCE8D"/>
				<stop  offset="0.86" style="stop-color:#FFE5C2"/>
				<stop  offset="1" style="stop-color:#FFFFFF"/>
			</linearGradient>
			<path class="st17" d="M49.5,55.1L48,54.5c-0.7,2.3-2.7,4-5.1,4.3l0.2,1.6C46.1,60,48.6,57.9,49.5,55.1z"/>
		</g>
		<g>
			
				<linearGradient id="SVGID_14_" gradientUnits="userSpaceOnUse" x1="39.8305" y1="41.7978" x2="45.3705" y2="41.4478" gradientTransform="matrix(1 0 0 -1 0 87.8898)">
				<stop  offset="0" style="stop-color:#FFFFFF"/>
				<stop  offset="0" style="stop-color:#FFFEFD"/>
				<stop  offset="0.25" style="stop-color:#FFCA76"/>
				<stop  offset="0.42" style="stop-color:#FFA921"/>
				<stop  offset="0.49" style="stop-color:#FF9C00"/>
				<stop  offset="0.55" style="stop-color:#FF9E05"/>
				<stop  offset="0.61" style="stop-color:#FFA413"/>
				<stop  offset="0.68" style="stop-color:#FFAD2B"/>
				<stop  offset="0.75" style="stop-color:#FFBA4D"/>
				<stop  offset="0.82" style="stop-color:#FFCB78"/>
				<stop  offset="0.9" style="stop-color:#FFDFAD"/>
				<stop  offset="0.98" style="stop-color:#FFF7EA"/>
				<stop  offset="1" style="stop-color:#FFFFFF"/>
			</linearGradient>
			<path class="st18" d="M38.8,45.8l0.7,1.4c0.8-0.4,1.6-0.6,2.5-0.6c1.3,0,2.5,0.3,3.5,1l1.2-1.1c-1.4-1-3-1.6-4.7-1.6
				C40.9,45,39.8,45.3,38.8,45.8z"/>
		</g>
		<path class="st19" d="M42,45c-4.3,0.1-7.8,3.6-7.7,7.9s3.6,7.8,7.9,7.7c4.3-0.1,7.8-3.6,7.7-7.9C49.9,48.4,46.3,44.9,42,45z
			 M36,52.9c0-3.3,2.7-6.1,6-6.1c3.3,0,6.1,2.7,6.1,6c0,3.3-2.6,6.1-6,6.1C38.8,58.9,36.1,56.2,36,52.9C36,52.9,36,52.9,36,52.9z"/>
		<path class="st19" d="M46.8,48.8c0.3,0.2,0.7,0.2,1,0c0.6-0.4,0.3-0.8,0.3-0.8l0.5,0.7l0.1,0.3c0,0-0.2-0.4-0.9,0
			s-0.5,0.7-0.5,0.7L47,49.2L46.8,48.8z"/>
		
			<linearGradient id="SVGID_15_" gradientUnits="userSpaceOnUse" x1="156.7053" y1="63.1843" x2="156.7053" y2="76.0443" gradientTransform="matrix(0.97 0.23 0.23 -0.97 -126.0747 84.2132)">
			<stop  offset="0" style="stop-color:#FF5D54"/>
			<stop  offset="0.24" style="stop-color:#F4514C"/>
			<stop  offset="0.66" style="stop-color:#D83336"/>
			<stop  offset="1" style="stop-color:#BE1622"/>
		</linearGradient>
		<polygon class="st20" points="40.4,59 37.5,57.4 35.7,54.5 35.7,51.2 37.3,48.3 40.2,46.6 43.5,46.5 46.4,48.2 48.1,51 48.2,54.3 
			46.5,57.2 43.7,59 		"/>
		<polygon class="st21" points="42,57 43.7,59 40.4,59 		"/>
		
			<linearGradient id="SVGID_16_" gradientUnits="userSpaceOnUse" x1="-125.6608" y1="-1660.209" x2="-125.5108" y2="-1662.8289" gradientTransform="matrix(-1 1.000000e-02 1.000000e-02 1 -67.0889 1720.0601)">
			<stop  offset="0" style="stop-color:#F97300"/>
			<stop  offset="1" style="stop-color:#FFD300"/>
		</linearGradient>
		<polygon class="st22" points="40.9,57.1 43.1,57 43.4,59.8 40.7,59.9 		"/>
		<polygon class="st23" points="43.4,59.8 43.2,57 40.8,57 40.7,59.9 41,57.2 42.9,57.2 		"/>
		
			<linearGradient id="SVGID_17_" gradientUnits="userSpaceOnUse" x1="-679.9927" y1="-507.7354" x2="-679.8527" y2="-510.3553" gradientTransform="matrix(1.000000e-02 1 1 -1.000000e-02 567.4102 727.3389)">
			<stop  offset="0" style="stop-color:#FFF73B"/>
			<stop  offset="1" style="stop-color:#FFA400"/>
		</linearGradient>
		<polygon class="st24" points="46.3,53.8 46.2,51.6 49,51.3 49.1,54 		"/>
		
			<linearGradient id="SVGID_18_" gradientUnits="userSpaceOnUse" x1="459.2296" y1="49.1825" x2="459.2896" y2="46.5925" gradientTransform="matrix(1 -1.000000e-02 -1.000000e-02 -1 -411.0811 107.3298)">
			<stop  offset="0" style="stop-color:#FFFD41"/>
			<stop  offset="1" style="stop-color:#7D0305"/>
		</linearGradient>
		<polygon class="st25" points="49,51.3 46.2,51.5 46.2,53.9 49.1,54 46.4,53.7 46.4,51.8 		"/>
		
			<linearGradient id="SVGID_19_" gradientUnits="userSpaceOnUse" x1="1023.7182" y1="-1113.7435" x2="1023.8582" y2="-1116.3635" gradientTransform="matrix(-1.000000e-02 -1 -1 1.000000e-02 -1061.1802 1087.2611)">
			<stop  offset="0" style="stop-color:#FFF73B"/>
			<stop  offset="1" style="stop-color:#FFA400"/>
		</linearGradient>
		<polygon class="st26" points="37.7,51.7 37.8,53.9 35,54.2 34.9,51.5 		"/>
		
			<linearGradient id="SVGID_20_" gradientUnits="userSpaceOnUse" x1="447.9492" y1="49.2973" x2="447.9392" y2="46.4773" gradientTransform="matrix(1 -1.000000e-02 -1.000000e-02 -1 -411.0811 107.3298)">
			<stop  offset="0" style="stop-color:#FFFD41"/>
			<stop  offset="1" style="stop-color:#7D0305"/>
		</linearGradient>
		<polygon class="st27" points="35,54.2 37.8,54 37.8,51.7 34.9,51.5 37.6,51.8 37.6,53.7 		"/>
		<g class="st6">
			
				<radialGradient id="SVGID_21_" cx="530.0604" cy="82.0054" r="5.61" gradientTransform="matrix(0.46 6.000000e-02 0.13 -0.99 -185.2057 98.2409)" gradientUnits="userSpaceOnUse">
				<stop  offset="0" style="stop-color:#FFCB00"/>
				<stop  offset="0.51" style="stop-color:#FFC900"/>
				<stop  offset="0.69" style="stop-color:#FFC200"/>
				<stop  offset="0.82" style="stop-color:#FEB700"/>
				<stop  offset="0.92" style="stop-color:#FDA600"/>
				<stop  offset="1" style="stop-color:#FC9300"/>
			</radialGradient>
			<path class="st28" d="M71.5,49.1c-0.3,3-1.4,5.6-2.7,5.8c-1.4,0.2-2.4-2.8-1.9-6.7s2-6.1,3.2-5.4C71.3,43.4,71.8,46.1,71.5,49.1z
				"/>
		</g>
		<path class="st9" d="M70.2,42.8c-1.2-0.7-2.8,1.7-3.2,5.4s0.5,6.9,1.9,6.7c1.2-0.2,2.4-2.8,2.7-5.8S71.3,43.4,70.2,42.8z
			 M71.3,50.1c0,0.1,0,0.3-0.1,0.4c0,0.1-0.1,0.2-0.1,0.3c0,0.3-0.1,0.5-0.2,0.7c-0.1,0.2-0.1,0.3-0.2,0.6c-0.1,0.2-0.1,0.4-0.3,0.5
			c-0.1,0.2-0.1,0.1-0.2,0.3s-0.3,0.6-0.4,0.7s-0.2,0.4-0.4,0.5s-0.2,0.1-0.2,0s-0.2,0-0.2,0l-0.6,0.1l-0.3-0.2
			c-0.1,0-0.2-0.3-0.3-0.4s-0.3-0.4-0.4-0.6c-0.1-0.2-0.1-0.5-0.1-0.7c0-0.2-0.1-0.4-0.1-0.8c-0.1-0.3-0.1-0.6-0.2-0.8
			c0-0.3,0-0.6,0.1-0.9c0,0-0.1-0.5-0.1-0.7c0-0.2,0-0.5,0.1-0.7l0.2-1.2c0,0,0.1-0.5,0.1-0.8c0-0.2,0.1-0.4,0.2-0.6
			c0.1-0.3,0.2-0.4,0.3-0.6s0.2-0.7,0.3-1c0.1-0.2,0.2-0.4,0.4-0.6c0.1-0.2,0.2-0.3,0.3-0.3c0.2-0.1,0.2-0.2,0.4-0.3
			s0.2-0.1,0.3-0.1s0.2,0.1,0.2,0.1s0.2,0,0.3,0c0.1,0,0.2,0,0.2,0c0.1,0,0.2,0.2,0.3,0.3c0.1,0.1,0.1,0.2,0.2,0.4
			c0,0.1,0.1,0.2,0.2,0.3c0.1,0.1,0.1,0.2,0.1,0.3c0,0.2,0.1,0.4,0.1,0.4c0,0.2,0,0.3,0,0.5c0,0.1,0.1,0.3,0.1,0.4
			c0,0.1,0.1,0.2,0.1,0.4c0,0.2,0,0.4,0,0.6c0,0.1,0,0.3,0,0.4c0,0.2,0,0.1,0,0.3c0,0.1,0,0.2,0,0.3c0,0.2,0,0.2-0.1,0.5
			c0,0.2,0,0.4,0,0.6c0,0.2,0,0.2,0,0.5c0,0.2,0,0.3-0.1,0.5C71.3,49.8,71.3,50,71.3,50.1z"/>
		<path class="st10" d="M70.2,42.8c-1.2-0.7-2.8,1.7-3.2,5.4s0.5,6.9,1.9,6.7c1.2-0.2,2.4-2.8,2.7-5.8S71.3,43.4,70.2,42.8z
			 M68.9,54.8C67.5,55,66.6,52,67,48.2c0.3-2.4,1-4.2,1.9-5c0.2-0.1,0.4-0.3,0.6-0.4c0.2-0.2,0.5,0,0.7,0.1c0.3,0.2,0.5,0.4,0.7,0.7
			c0.1,0.2,0.2,0.5,0.3,0.7c0,0.2,0.1,0.4,0.2,0.6c0.3,1.4,0.3,2.8,0.2,4.2C71.2,52,70.1,54.6,68.9,54.8L68.9,54.8z"/>
		<path class="st11" d="M68.7,56.4c-1.9,0.5-3.2-3.5-2.6-8.6c0.6-5,2.6-7.8,4.2-6.8c1.3,0.9,2,4.3,1.7,8S70.3,56,68.7,56.4z
			 M70.2,42.5c-1.3-0.7-2.8,1.6-3.2,5.4s0.5,7,1.9,6.8c1.2-0.2,2.4-2.8,2.7-5.9S71.3,43.1,70.2,42.5z"/>
		<path class="st11" d="M68.7,56.4c-1.9,0.5-3.2-3.5-2.6-8.6c0.6-5,2.6-7.8,4.2-6.8c1.3,0.9,2,4.3,1.7,8S70.3,56,68.7,56.4z
			 M70.2,42.5c-1.3-0.7-2.8,1.6-3.2,5.4s0.5,7,1.9,6.8c1.2-0.2,2.4-2.8,2.7-5.9S71.3,43.1,70.2,42.5z"/>
		<g class="st12">
			<g>
				
					<linearGradient id="SVGID_22_" gradientUnits="userSpaceOnUse" x1="68.67" y1="39.4848" x2="72" y2="39.4848" gradientTransform="matrix(1 0 0 -1 0 87.8898)">
					<stop  offset="0" style="stop-color:#000000"/>
					<stop  offset="9.000000e-02" style="stop-color:#080500"/>
					<stop  offset="0.22" style="stop-color:#1F1100"/>
					<stop  offset="0.39" style="stop-color:#452600"/>
					<stop  offset="0.58" style="stop-color:#794200"/>
					<stop  offset="0.8" style="stop-color:#BB6600"/>
					<stop  offset="1" style="stop-color:#FF8B00"/>
				</linearGradient>
				<path class="st29" d="M70.3,41.3L70.3,41.3l0.1,0.1l0,0l0.1,0.1l0.1,0.1l0,0v0l0.1,0.1l0.1,0.1c0,0,0,0,0,0.1L71,42
					c0.1,0.2,0.3,0.5,0.4,0.8c0.1,0.4,0.3,0.7,0.3,1.1v0.1V44v0.1v0.1v0.2v0.2l0.1,0.4c0,0.1,0,0.1,0,0.2v0.2
					c0.1,0.6,0.2,1.1,0.2,1.7c0,0.1,0,0.2,0,0.2v0.6c0,0,0,0.1,0,0.1v0.6c0,0,0,0.1,0,0.1v0.2v0.2c0,0,0,0.1,0,0.1v0.1v0.1v0.1
					c0,0.1,0,0.2,0,0.2s0,0.1,0,0.1V50v0.1v0.1c0,0.1,0,0.2,0,0.2v0.2c-0.1,0.6-0.3,1.1-0.4,1.7v0.1v0.1c0,0.1-0.1,0.1-0.1,0.2
					l-0.1,0.4v0.1v0l0,0l-0.1,0.2l0,0l0,0v0.1v0.1l0,0l0,0c-0.2,0.3-0.4,0.7-0.6,1c-0.2,0.2-0.3,0.5-0.6,0.7h-0.1L70,55.4l-0.1,0.1
					l-0.1,0.1h-0.1l0,0h-0.1h-0.1h-0.1h-0.1h-0.1l0,0h0.1l0,0h0.1h0.1l0.1,0h0.1l0,0l0.1-0.1l0.1-0.1l0.1,0l0.1-0.1
					c0.2-0.2,0.4-0.4,0.6-0.7c0.2-0.3,0.4-0.7,0.6-1l0,0l0,0v-0.1v-0.1l0,0l0,0l0.1-0.2l0,0l0,0v-0.1c0-0.1,0.1-0.2,0.1-0.4l0.1-0.2
					v-0.1v-0.1c0.2-0.6,0.3-1.1,0.4-1.7c0-0.1,0-0.2,0-0.2c0-0.1,0-0.2,0-0.2v-0.1V50v-0.1c0,0,0-0.1,0-0.1v-0.2v-0.1v-0.1v-0.1
					c0,0,0-0.1,0-0.1v-0.2v-0.2c0,0,0-0.1,0-0.1V48c0,0,0-0.1,0-0.1v-0.6c0-0.1,0-0.2,0-0.2c0-0.6,0-1.2-0.1-1.7v-0.1v-0.1
					c0-0.1,0-0.1,0-0.2c0-0.1,0-0.2,0-0.4v-0.1v-0.1v-0.2v-0.1v-0.1V44V44c-0.1-0.4-0.2-0.7-0.3-1.1c-0.1-0.3-0.3-0.6-0.5-0.8v-0.1
					v-0.1l-0.1-0.1l-0.1-0.1l0,0l0,0l-0.1-0.1l-0.1-0.1l-0.1,0l0,0l-0.1-0.1L70.3,41.3z"/>
			</g>
		</g>
		<g class="st12">
			<g>
				
					<linearGradient id="SVGID_23_" gradientUnits="userSpaceOnUse" x1="70.28" y1="39.2648" x2="66.18" y2="39.2648" gradientTransform="matrix(1 0 0 -1 0 87.8898)">
					<stop  offset="0" style="stop-color:#000000"/>
					<stop  offset="9.000000e-02" style="stop-color:#080500"/>
					<stop  offset="0.22" style="stop-color:#1F1100"/>
					<stop  offset="0.39" style="stop-color:#452600"/>
					<stop  offset="0.58" style="stop-color:#794200"/>
					<stop  offset="0.8" style="stop-color:#BB6600"/>
					<stop  offset="1" style="stop-color:#FF8B00"/>
				</linearGradient>
				<path class="st30" d="M68.7,55.8h-0.5h-0.1H68h-0.1h-0.1c-0.2-0.1-0.4-0.3-0.5-0.5c-0.2-0.3-0.4-0.6-0.5-1L66.7,54v-0.1v0l0,0
					l-0.1-0.2v0l0,0v-0.1c0-0.1-0.1-0.3-0.1-0.4c0-0.1,0-0.2,0-0.2v-0.1v-0.1c-0.1-0.7-0.2-1.5-0.2-2.2v-1.2c0-0.1,0-0.1,0-0.2v-0.3
					c0,0,0-0.1,0-0.1v-0.1v-0.2v-0.2c0-0.1,0-0.1,0-0.2v-0.3l0.1-0.3c0,0,0-0.1,0-0.2v-0.2V47v-0.1c0,0,0,0,0-0.1l0.1-0.3v-0.2v-0.2
					v-0.1V46c0-0.1,0.1-0.2,0.1-0.3c0-0.1,0.1-0.2,0.1-0.3c0.2-0.7,0.4-1.3,0.7-1.9v-0.1v-0.1l0.1-0.2l0.2-0.3v-0.1l0,0l0,0l0.1-0.2
					l0,0l0,0v-0.1l0.1-0.1c0.2-0.3,0.4-0.5,0.7-0.7c0.2-0.1,0.4-0.2,0.6-0.2h0.2h0.1h0.1h0.1h0.1h0.1l0,0l0.1,0l0,0h-0.1l0,0h-0.1
					h-0.1h-0.1h0c-0.2,0-0.4,0.1-0.6,0.2c-0.3,0.2-0.5,0.4-0.7,0.7l-0.1,0.1v0.1l0,0l0,0L68,42.7l0,0l0,0v0.1l-0.2,0.3l-0.1,0.2v0.1
					v0.1c-0.3,0.6-0.5,1.2-0.7,1.9L67,45.7L67,46v0.1v0.1v0.2v0.1l-0.1,0.3c0,0,0,0,0,0.1V47v0.2v0.2c0,0,0,0.1,0,0.2v0.3v0.3
					c0,0,0,0.1,0,0.2v0.2v0.3V49c0,0,0,0.1,0,0.2v0.5c0,0.1,0,0.2,0,0.3v0.3c0,0.7,0.1,1.5,0.2,2.2v0.1v0.1c0,0.1,0,0.2,0.1,0.2
					s0.1,0.3,0.1,0.4v0.1l0,0v0v0.2v0l0,0v0.1l0.1,0.2c0.1,0.4,0.3,0.7,0.5,1c0.1,0.2,0.3,0.4,0.5,0.5h0.1h0.1h0.1h0.1h0.1h0.1h0.3
					L68.7,55.8z"/>
			</g>
		</g>
		<g class="st12">
			<g>
				
					<linearGradient id="SVGID_24_" gradientUnits="userSpaceOnUse" x1="69.225" y1="40.0598" x2="69.225" y2="32.5198" gradientTransform="matrix(1 0 0 -1 0 87.8898)">
					<stop  offset="0" style="stop-color:#000000"/>
					<stop  offset="9.000000e-02" style="stop-color:#080500"/>
					<stop  offset="0.22" style="stop-color:#1F1100"/>
					<stop  offset="0.39" style="stop-color:#452600"/>
					<stop  offset="0.58" style="stop-color:#794200"/>
					<stop  offset="0.8" style="stop-color:#BB6600"/>
					<stop  offset="1" style="stop-color:#FF8B00"/>
				</linearGradient>
				<path class="st31" d="M71.7,48.8V49c0,0,0,0.1,0,0.1v0.1c0,0.1,0,0.1,0,0.2v0.2v0.1v0.1c0,0.1,0,0.1,0,0.2v0.2c0,0,0,0.1,0,0.1
					v0.1c-0.1,0.3-0.2,0.7-0.3,1.1c-0.1,0.4-0.2,0.8-0.4,1.2L71,53v0.1v0.1l-0.1,0.2l0,0l0,0v0.1l-0.2,0.3l-0.1,0.1v0.1V54
					c-0.2,0.3-0.4,0.6-0.7,0.9l-0.1,0.1L69.8,55h-0.1l0,0l0,0l0,0h-0.1l0,0l0,0l0,0h-0.1h-0.1h-0.3h-0.1H69l0,0l0,0h-0.1L68,55.2
					c-0.3-0.2-0.5-0.5-0.7-0.8v-0.1v-0.1c0,0-0.1-0.1-0.1-0.2c0-0.1-0.1-0.2-0.1-0.3v-0.1l0,0v0l-0.1-0.2c0,0,0-0.1,0-0.1v-0.1
					c0-0.1,0-0.1,0-0.2c-0.1-0.5-0.2-1-0.3-1.5c-0.1-0.5-0.1-1-0.1-1.5v-0.7c0-0.1,0-0.2,0-0.3c0,0,0-0.1,0-0.1v-0.1
					c0-0.1,0-0.2,0-0.2c0-0.1,0-0.1,0-0.2v-0.2c0,0,0-0.1,0-0.2v-0.3l0,0v0.3c0,0,0,0.1,0,0.1v0.2c0,0.1,0,0.1,0,0.2V49
					c0,0,0,0.1,0,0.1c0,0.1,0,0.2,0,0.3v0.6c0,0.5,0,0.9,0.1,1.5c0,0.5,0,1,0.1,1.5c0,0.1,0,0.1,0,0.2v0.1v0.1v0.2l0,0l0,0v0.1
					c0,0.1,0.1,0.2,0.1,0.3l0.1,0.1v0.1v0.1c0.2,0.4,0.5,0.6,0.9,0.8l0.1,0.1h0.1l0,0l0,0l0,0l0,0h0.1h0.3h0.1l0,0l0,0h0.1l0,0h0.1
					l0,0l0,0l0,0h0.1L69,55l0.1-0.1c0.3-0.2,0.5-0.5,0.7-0.9V54v-0.1l0.1-0.1l0.1-0.3v-0.1l0,0l0,0l0.1-0.2v-0.1v-0.1l0.1-0.2
					c0.2-0.4,0.3-0.8,0.4-1.2s0.2-0.8,0.3-1.1v-0.1v-0.1v-0.2V50c0,0,0-0.1,0-0.1v-0.1v-0.2c0-0.1,0-0.1,0-0.2v-0.1c0,0,0-0.1,0-0.1
					V49L71.7,48.8z"/>
			</g>
		</g>
		<g class="st12">
			<g>
				
					<linearGradient id="SVGID_25_" gradientUnits="userSpaceOnUse" x1="69.115" y1="38.8698" x2="69.115" y2="46.0298" gradientTransform="matrix(1 0 0 -1 0 87.8898)">
					<stop  offset="0" style="stop-color:#000000"/>
					<stop  offset="9.000000e-02" style="stop-color:#080500"/>
					<stop  offset="0.22" style="stop-color:#1F1100"/>
					<stop  offset="0.39" style="stop-color:#452600"/>
					<stop  offset="0.58" style="stop-color:#794200"/>
					<stop  offset="0.8" style="stop-color:#BB6600"/>
					<stop  offset="1" style="stop-color:#FF8B00"/>
				</linearGradient>
				<path class="st32" d="M66.6,48.1v-0.3c0,0,0-0.1,0-0.2v-0.2v-0.2V47v-0.1v-0.1l0.1-0.3l0.1-0.3c0-0.1,0-0.1,0-0.2v-0.2
					c0.1-0.5,0.2-0.9,0.4-1.3c0.2-0.4,0.5-0.9,0.8-1.3c0,0,0.1-0.1,0.1-0.1l0.1-0.1l0,0l0,0l0.1-0.1l0,0l0,0l0.1-0.1l0.2-0.2
					c0,0,0.1-0.1,0.1-0.1l0,0v0c0.2-0.2,0.5-0.4,0.8-0.5h0.4h0.1H70l0,0l0,0l0,0h0.1l0.1,0.1l0,0l0,0l0,0l0,0l0,0l0.1,0.1l0,0l0,0
					l0,0l0,0l0.1,0.1l0.1,0.1c0.2,0.3,0.4,0.6,0.5,1v0.1v0.1c0,0,0,0.1,0,0.2s0,0.2,0.1,0.3v0.1v0.1v0.2v0.1v0.1v0.2
					c0.1,0.4,0.1,0.8,0.1,1.3s0,0.8,0,1.1v0.5c0,0.1,0,0.1,0,0.2V48v0.2c0,0.1,0,0.1,0,0.2c0,0,0,0.1,0,0.1s0,0.1,0,0.1v0.2l0,0
					v-0.2c0,0,0-0.1,0-0.1v-0.1c0,0,0-0.1,0-0.2v-0.3c0,0,0-0.1,0-0.1c0-0.1,0-0.1,0-0.2v-0.5c0-0.3,0-0.7,0-1.1
					c0.2-0.3,0.4-0.6,0.5-0.9c0-0.1,0-0.1,0-0.2v-0.1v-0.1v-0.2v-0.2c0-0.1-0.1-0.2-0.1-0.3v-0.2v-0.1v-0.1c-0.1-0.4-0.3-0.7-0.5-1
					L71,42.7c0,0,0-0.1-0.1-0.1l0,0l0,0v0l0,0l-0.1-0.1l0,0l0,0l0,0l0,0l0,0l-0.1,0h-0.1l0,0l0,0l0,0l0,0h-0.1h-0.4
					c-0.3,0.1-0.6,0.2-0.8,0.4h-0.1l0,0L69.3,43l-0.2,0.2v0.1l0,0l0,0l-0.1,0.1l0,0l0,0v0.1c0,0-0.1,0.1-0.1,0.1
					c-0.2,0.4-0.4,0.8-0.6,1.2c-0.2,0.4-0.3,0.9-0.4,1.3v0.2c0,0,0,0.1,0,0.2l-0.1,0.3c0,0.1,0,0.2-0.1,0.3v0.1v0.1v0.2
					c0,0.1,0,0.1,0,0.2v0.2c0,0,0,0.1,0,0.2v0.3L66.6,48.1z"/>
			</g>
		</g>
		<g>
			
				<linearGradient id="SVGID_26_" gradientUnits="userSpaceOnUse" x1="71.9021" y1="35.9394" x2="68.4621" y2="33.0894" gradientTransform="matrix(1 0 0 -1 0 87.8898)">
				<stop  offset="0" style="stop-color:#FFFFFF"/>
				<stop  offset="0.13" style="stop-color:#FFD7A1"/>
				<stop  offset="0.26" style="stop-color:#FFB24C"/>
				<stop  offset="0.32" style="stop-color:#FFA42B"/>
				<stop  offset="0.39" style="stop-color:#FFA732"/>
				<stop  offset="0.48" style="stop-color:#FFAF44"/>
				<stop  offset="0.6" style="stop-color:#FFBC63"/>
				<stop  offset="0.73" style="stop-color:#FFCE8D"/>
				<stop  offset="0.86" style="stop-color:#FFE5C2"/>
				<stop  offset="1" style="stop-color:#FFFFFF"/>
			</linearGradient>
			<path class="st33" d="M71.7,51l-0.4-0.6c-0.4,2.1-1.3,3.8-2.2,4.2l-0.1,1.7C70.2,55.7,71.2,53.5,71.7,51z"/>
		</g>
		<g>
			
				<linearGradient id="SVGID_27_" gradientUnits="userSpaceOnUse" x1="69.4088" y1="45.5112" x2="71.2988" y2="45.3912" gradientTransform="matrix(1 0 0 -1 0 87.8898)">
				<stop  offset="0" style="stop-color:#FFFFFF"/>
				<stop  offset="0" style="stop-color:#FFFEFD"/>
				<stop  offset="0.25" style="stop-color:#FFCA76"/>
				<stop  offset="0.42" style="stop-color:#FFA921"/>
				<stop  offset="0.49" style="stop-color:#FF9C00"/>
				<stop  offset="0.55" style="stop-color:#FF9E05"/>
				<stop  offset="0.61" style="stop-color:#FFA413"/>
				<stop  offset="0.68" style="stop-color:#FFAD2B"/>
				<stop  offset="0.75" style="stop-color:#FFBA4D"/>
				<stop  offset="0.82" style="stop-color:#FFCB78"/>
				<stop  offset="0.9" style="stop-color:#FFDFAD"/>
				<stop  offset="0.98" style="stop-color:#FFF7EA"/>
				<stop  offset="1" style="stop-color:#FFFFFF"/>
			</linearGradient>
			<path class="st34" d="M69.1,40.9l0.1,1.6c0.3-0.2,0.7-0.2,1,0c0.5,0.4,0.9,1,1,1.6l0.5-0.8c-0.2-0.9-0.6-1.7-1.3-2.4
				C70,40.7,69.5,40.7,69.1,40.9z"/>
		</g>
		<path class="st19" d="M70.4,40.9c-1.6-1-3.7,1.8-4.3,6.8c-0.7,5.2,0.7,9.2,2.6,8.7c1.6-0.4,3-3.8,3.4-7.6S71.7,41.8,70.4,40.9z
			 M67,47.9c0.5-3.7,2-6,3.2-5.4c1.1,0.6,1.6,3.3,1.3,6.3s-1.4,5.6-2.7,5.8C67.5,54.8,66.5,51.8,67,47.9L67,47.9z"/>
		<path class="st19" d="M71.5,45.3c0,0,0.1,0.4,0.3,0.2c0.1-0.2,0.2-0.4,0.2-0.6l0.1,0.6v0.2c0,0,0-0.3-0.2-0.2
			c-0.1,0.1-0.2,0.3-0.2,0.5v-0.4L71.5,45.3z"/>
		<g>
			
				<linearGradient id="SVGID_28_" gradientUnits="userSpaceOnUse" x1="66.4572" y1="34.8881" x2="67.4072" y2="33.8481" gradientTransform="matrix(1 0 0 -1 0 87.8898)">
				<stop  offset="6.000000e-02" style="stop-color:#FFFFFF"/>
				<stop  offset="0.19" style="stop-color:#FED7AA"/>
				<stop  offset="0.38" style="stop-color:#FC9F31"/>
				<stop  offset="0.46" style="stop-color:#FB8800"/>
				<stop  offset="0.51" style="stop-color:#FB8F0F"/>
				<stop  offset="0.61" style="stop-color:#FCA136"/>
				<stop  offset="0.74" style="stop-color:#FDBE75"/>
				<stop  offset="0.91" style="stop-color:#FEE6CA"/>
				<stop  offset="1" style="stop-color:#FFFFFF"/>
			</linearGradient>
			<path class="st35" d="M67,51.9l-0.8,1.2c0.1,0.6,0.3,1.3,0.5,1.9c0.2-0.5,0.5-1,0.7-1.4C67.2,53.1,67.1,52.5,67,51.9z"/>
		</g>
		<g class="st6">
			
				<radialGradient id="SVGID_29_" cx="-550.116" cy="11.287" r="5.61" gradientTransform="matrix(-0.46 7.000000e-02 -0.16 -0.99 -235.5476 99.1009)" gradientUnits="userSpaceOnUse">
				<stop  offset="0" style="stop-color:#FFCB00"/>
				<stop  offset="0.51" style="stop-color:#FFC900"/>
				<stop  offset="0.69" style="stop-color:#FFC200"/>
				<stop  offset="0.82" style="stop-color:#FEB700"/>
				<stop  offset="0.92" style="stop-color:#FDA600"/>
				<stop  offset="1" style="stop-color:#FC9300"/>
			</radialGradient>
			<path class="st36" d="M13.6,49.9c0.4,3,1.6,5.6,2.8,5.8c1.4,0.2,2.3-2.9,1.7-6.7s-2.1-6-3.4-5.3C13.7,44.2,13.2,47,13.6,49.9z"/>
		</g>
		<path class="st9" d="M13.6,49.9c0.4,3,1.6,5.6,2.8,5.8c1.4,0.2,2.3-2.9,1.7-6.7s-2.1-6-3.4-5.3C13.7,44.2,13.2,47,13.6,49.9z
			 M13.8,50.5c-0.1-0.2-0.1-0.3-0.1-0.5c0-0.3,0-0.3,0-0.5s0-0.3,0-0.6s-0.1-0.3-0.1-0.5c0-0.1,0-0.2,0-0.3c0-0.1,0-0.2,0-0.3
			c0-0.2,0-0.1,0-0.4c0-0.2,0-0.4,0-0.6c0-0.1,0-0.3,0.1-0.4c0-0.1,0.1-0.3,0.1-0.4c0-0.2,0-0.3,0-0.5c0,0,0-0.2,0.1-0.4
			c0-0.1,0.1-0.2,0.1-0.3c0.1-0.1,0.1-0.2,0.1-0.3c0-0.1,0.1-0.3,0.2-0.4s0.1-0.3,0.3-0.3c0.1,0,0.2,0,0.2,0c0.1,0,0.2,0,0.3,0
			s0.1-0.1,0.2-0.1s0.1,0,0.3,0.1s0.2,0.3,0.4,0.3c0.2,0,0.3,0.1,0.4,0.3c0.1,0.2,0.2,0.3,0.4,0.6s0.3,0.7,0.4,0.9s0.3,0.3,0.4,0.6
			c0.1,0.2,0.1,0.4,0.2,0.6c0,0.3,0.2,0.8,0.2,0.8l0.2,1.2c0.1,0.2,0.1,0.5,0.1,0.7l-0.1,0.7c0.1,0.3,0.1,0.6,0.1,0.9
			c0,0.3-0.1,0.6-0.1,0.8c-0.1,0.3-0.1,0.5-0.1,0.8c0,0.2,0,0.5-0.1,0.7c-0.1,0.2-0.2,0.4-0.4,0.6c-0.1,0.1-0.2,0.3-0.3,0.4
			l-0.3,0.2L16.2,55c0,0-0.1-0.1-0.2,0s-0.1,0-0.2,0s-0.4-0.4-0.4-0.4s-0.3-0.5-0.4-0.7s-0.1-0.1-0.2-0.3c-0.1-0.2-0.2-0.3-0.3-0.5
			c-0.1-0.2,0-0.4-0.2-0.6c-0.1-0.2-0.2-0.5-0.2-0.7C14,51.6,14,51.5,14,51.4c0-0.1-0.1-0.2-0.1-0.4C13.9,50.8,13.9,50.7,13.8,50.5z
			"/>
		
			<linearGradient id="SVGID_30_" gradientUnits="userSpaceOnUse" x1="130.4837" y1="61.2843" x2="130.4837" y2="72.8943" gradientTransform="matrix(0.97 0.23 0.23 -0.97 -126.0747 84.2132)">
			<stop  offset="0" style="stop-color:#FF5D54"/>
			<stop  offset="0.24" style="stop-color:#F4514C"/>
			<stop  offset="0.66" style="stop-color:#D83336"/>
			<stop  offset="1" style="stop-color:#BE1622"/>
		</linearGradient>
		<path class="st37" d="M13.6,49.6c0.4,3,1.6,5.6,2.9,5.8c1.4,0.2,2.3-2.9,1.7-6.7s-2.1-6-3.4-5.3C13.7,43.9,13.2,46.7,13.6,49.6z"
			/>
		<path class="st11" d="M13.1,49.8c-0.5-3.6,0.1-7.1,1.4-8c1.6-1.1,3.7,1.7,4.4,6.7c0.8,5.2-0.4,9.1-2.3,8.7
			C15.1,56.8,13.6,53.5,13.1,49.8z M13.6,49.7c0.4,3,1.6,5.6,2.9,5.8c1.4,0.2,2.3-2.9,1.7-6.8s-2.1-6.1-3.4-5.3
			C13.7,43.9,13.2,46.7,13.6,49.7z"/>
		<path class="st11" d="M13.1,49.8c-0.5-3.6,0.1-7.1,1.4-8c1.6-1.1,3.7,1.7,4.4,6.7c0.8,5.2-0.4,9.1-2.3,8.7
			C15.1,56.8,13.6,53.5,13.1,49.8z M13.6,49.7c0.4,3,1.6,5.6,2.9,5.8c1.4,0.2,2.3-2.9,1.7-6.8s-2.1-6.1-3.4-5.3
			C13.7,43.9,13.2,46.7,13.6,49.7z"/>
		<g>
			
				<linearGradient id="SVGID_31_" gradientUnits="userSpaceOnUse" x1="15.6254" y1="34.1853" x2="14.3754" y2="33.1453" gradientTransform="matrix(1 0 0 -1 0 87.8898)">
				<stop  offset="0" style="stop-color:#FFFFFF"/>
				<stop  offset="0.13" style="stop-color:#FFD7A1"/>
				<stop  offset="0.26" style="stop-color:#FFB24C"/>
				<stop  offset="0.32" style="stop-color:#FFA42B"/>
				<stop  offset="0.39" style="stop-color:#FFA732"/>
				<stop  offset="0.48" style="stop-color:#FFAF44"/>
				<stop  offset="0.6" style="stop-color:#FFBC63"/>
				<stop  offset="0.73" style="stop-color:#FFCE8D"/>
				<stop  offset="0.86" style="stop-color:#FFE5C2"/>
				<stop  offset="1" style="stop-color:#FFFFFF"/>
			</linearGradient>
			<path class="st38" d="M13.5,51.9c0.1-0.2,0.2-0.4,0.4-0.6c0.5,2.1,1.4,3.7,2.3,4.1l0.1,1.6C15.2,56.5,14.1,54.4,13.5,51.9z"/>
		</g>
		<g>
			
				<linearGradient id="SVGID_32_" gradientUnits="userSpaceOnUse" x1="13.6507" y1="44.711" x2="15.3007" y2="44.601" gradientTransform="matrix(1 0 0 -1 0 87.8898)">
				<stop  offset="0" style="stop-color:#FFFFFF"/>
				<stop  offset="0" style="stop-color:#FFFEFD"/>
				<stop  offset="0.25" style="stop-color:#FFCA76"/>
				<stop  offset="0.42" style="stop-color:#FFA921"/>
				<stop  offset="0.49" style="stop-color:#FF9C00"/>
				<stop  offset="0.55" style="stop-color:#FF9E05"/>
				<stop  offset="0.61" style="stop-color:#FFA413"/>
				<stop  offset="0.68" style="stop-color:#FFAD2B"/>
				<stop  offset="0.75" style="stop-color:#FFBA4D"/>
				<stop  offset="0.82" style="stop-color:#FFCB78"/>
				<stop  offset="0.9" style="stop-color:#FFDFAD"/>
				<stop  offset="0.98" style="stop-color:#FFF7EA"/>
				<stop  offset="1" style="stop-color:#FFFFFF"/>
			</linearGradient>
			<path class="st39" d="M15.8,41.7l-0.1,1.6c-0.3-0.2-0.7-0.2-1,0c-0.5,0.4-0.9,1-1,1.6l-0.5-0.8c0.1-0.9,0.6-1.8,1.3-2.4
				C14.9,41.5,15.4,41.5,15.8,41.7z"/>
		</g>
		<path class="st19" d="M13.1,49.8c0.5,3.8,2,7.1,3.6,7.5c1.9,0.4,3.1-3.6,2.3-8.8c-0.8-5-2.9-7.8-4.5-6.7
			C13.2,42.7,12.6,46.2,13.1,49.8z M16.4,55.4c-1.2-0.1-2.4-2.7-2.8-5.7s0.1-5.7,1.2-6.3c1.2-0.7,2.8,1.5,3.4,5.3
			S17.9,55.6,16.4,55.4z"/>
		<g>
			
				<linearGradient id="SVGID_33_" gradientUnits="userSpaceOnUse" x1="17.891" y1="34.2616" x2="19.011" y2="33.0416" gradientTransform="matrix(1 0 0 -1 0 87.8898)">
				<stop  offset="6.000000e-02" style="stop-color:#FFFFFF"/>
				<stop  offset="0.19" style="stop-color:#FED7AA"/>
				<stop  offset="0.38" style="stop-color:#FC9F31"/>
				<stop  offset="0.46" style="stop-color:#FB8800"/>
				<stop  offset="0.51" style="stop-color:#FB8F0F"/>
				<stop  offset="0.61" style="stop-color:#FCA136"/>
				<stop  offset="0.74" style="stop-color:#FDBE75"/>
				<stop  offset="0.91" style="stop-color:#FEE6CA"/>
				<stop  offset="1" style="stop-color:#FFFFFF"/>
			</linearGradient>
			<path class="st40" d="M18.2,52.7l0.8,1.2c-0.1,0.6-0.3,1.2-0.5,1.8c-0.2-0.4-0.5-0.9-0.8-1.3C18,53.8,18.1,53.2,18.2,52.7z"/>
		</g>
		
			<linearGradient id="SVGID_34_" gradientUnits="userSpaceOnUse" x1="182.3576" y1="73.8043" x2="182.3576" y2="85.9943" gradientTransform="matrix(0.97 0.23 0.23 -0.97 -126.0747 84.2132)">
			<stop  offset="0" style="stop-color:#FF5D54"/>
			<stop  offset="0.24" style="stop-color:#F4514C"/>
			<stop  offset="0.66" style="stop-color:#D83336"/>
			<stop  offset="1" style="stop-color:#BE1622"/>
		</linearGradient>
		<path class="st41" d="M70.2,42.6c-1.2-0.7-2.8,1.7-3.3,5.4s0.4,6.9,1.9,6.7c1.2-0.2,2.4-2.8,2.7-5.8S71.3,43.2,70.2,42.6z"/>
	</g>
</g>
</svg>
