<svg xmlns="http://www.w3.org/2000/svg" viewBox="0 0 321.55 331"><defs><style>.cls-1{fill:#ededf5;}.cls-2{fill:#149bd7;}.cls-3{fill:#343438;}.cls-4{fill:#9b9ba7;}.cls-5{fill:#efefef;}.cls-6{fill:#3fc9e6;}.cls-7{fill:#494960;}.cls-8{fill:#7fe2d8;}.cls-9{fill:#c9ced1;}.cls-10{fill:#afb6bc;}.cls-11{fill:#fff;}.cls-12{fill:#eae4d8;}.cls-13{fill:#dce0e2;}.cls-14{fill:#b8c1c4;}.cls-15{fill:#2c5277;}.cls-16{fill:#fc3;}.cls-17{fill:#70d9e5;}.cls-18{fill:#3e6696;}.cls-19{fill:#7f4e45;}.cls-20{fill:#d5d5e0;}.cls-21{fill:#e8e8ef;}.cls-22{fill:#cc4e4e;}.cls-23{fill:#4769b5;}.cls-24{fill:#c2c2ce;}.cls-25{fill:#1fab7a;}.cls-26{fill:#ea997d;}.cls-27{fill:#d87e66;}.cls-28{fill:#6b413b;}.cls-29{fill:#353549;}.cls-30{fill:#77362d;}.cls-31{fill:#23242b;}.cls-32{fill:#453878;}.cls-33{fill:#ff8f00;}.cls-34{fill:#ff5d54;}.cls-35{fill:#6154c7;}.cls-36{fill:#d4d4dd;}.cls-37{fill:#f48787;}.cls-38,.cls-39{fill:none;stroke-miterlimit:10;stroke-width:2px;}.cls-38{stroke:#ff8f00;}.cls-39{stroke:#454456;}</style></defs><g id="Layer_1" data-name="Layer 1"><g id="Kairo_-_Adam" data-name="Kairo - Adam"><path class="cls-1" d="M103.09,287.26a3.68,3.68,0,0,0,3.67,4.18h34.67a4.74,4.74,0,0,0,4.53-4.18l.18-1.68a3.59,3.59,0,0,0-3.67-4.06H107.8a4.64,4.64,0,0,0-4.53,4.06l-.18,1.68Z"/><path class="cls-2" d="M15.62,273.29a3.21,3.21,0,0,0,3.18,3.63h4.25A4.1,4.1,0,0,0,27,273.29l.89-8.46a3.09,3.09,0,0,0-3.17-3.5H20.43a4,4,0,0,0-3.91,3.5l-.9,8.46Z"/><path class="cls-3" d="M235.05,278c1.77-16.85,16.86-30.5,33.71-30.5s29.07,13.65,27.3,30.5-16.86,30.5-33.71,30.5-29.07-13.65-27.3-30.5Z"/><path class="cls-4" d="M249.87,278a17.85,17.85,0,0,1,17.33-15.68,13.86,13.86,0,0,1,14,15.68,17.85,17.85,0,0,1-17.33,15.68,13.86,13.86,0,0,1-14-15.68Z"/><path class="cls-5" d="M251.79,278A15.66,15.66,0,0,1,267,264.19,12.17,12.17,0,0,1,279.32,278a15.66,15.66,0,0,1-15.21,13.77A12.17,12.17,0,0,1,251.79,278Z"/><path class="cls-4" d="M260.64,278a5.59,5.59,0,0,1,5.43-4.92,4.34,4.34,0,0,1,4.4,4.92,5.59,5.59,0,0,1-5.43,4.92,4.34,4.34,0,0,1-4.4-4.92Z"/><path class="cls-6" d="M266.38,223.88c17.71,0,32,10.2,37.81,25.06l-87.43,31.67c-.59-3.7,24.68-56.73,49.62-56.73Z"/><path class="cls-2" d="M258.44,225.56C255.83,231.19,247,250,237.22,266.3l65.9-19.82c.38.81.74,1.62,1.07,2.46l-87.43,31.67c-.53-3.3,19.6-46,41.68-55.05Z"/><path class="cls-7" d="M215.11,280.24a1.57,1.57,0,0,0,2.16.88l87.27-31.21a1.91,1.91,0,0,0,1.36-2.13,1.58,1.58,0,0,0-2.17-.88l-87.27,31.2a1.92,1.92,0,0,0-1.35,2.14Z"/><path class="cls-8" d="M298.56,243.92s-11.48-21.14-39.16-17.36c0,0,22.81,3.22,29.41,20.21l9.75-2.85Z"/><path class="cls-3" d="M32.74,278c1.77-16.85,16.86-30.5,33.71-30.5s29.07,13.65,27.3,30.5-16.86,30.5-33.7,30.5S31,294.81,32.74,278Z"/><path class="cls-4" d="M47.56,278a17.85,17.85,0,0,1,17.33-15.68,13.86,13.86,0,0,1,14,15.68A17.85,17.85,0,0,1,61.6,293.64a13.86,13.86,0,0,1-14-15.68Z"/><path class="cls-9" d="M49.48,278a15.66,15.66,0,0,1,15.21-13.77A12.16,12.16,0,0,1,77,278,15.66,15.66,0,0,1,61.8,291.73,12.17,12.17,0,0,1,49.48,278Z"/><path class="cls-10" d="M58.33,278A5.6,5.6,0,0,1,63.76,273a4.34,4.34,0,0,1,4.4,4.92,5.58,5.58,0,0,1-5.43,4.92,4.34,4.34,0,0,1-4.4-4.92Z"/><path class="cls-6" d="M228.75,133.86s14.42,67.85,11.85,80.57-17,31.55-37.39,60.62l-1,9.35s58-46,65.66-78.28c4.3-18-34.9-72.26-34.9-72.26s-1.36,0-4.24,0Z"/><polygon class="cls-2" points="105.58 273.56 203.21 275.05 202.23 284.4 104.39 284.9 105.58 273.56 105.58 273.56"/><path class="cls-6" d="M169.25,204.28s-21.45,22.11-22.58,32.91S158.79,274,158.79,274l6.64,11H84.33l5-80.79Z"/><path class="cls-2" d="M89.38,204.15S146,192.94,134,237.36s-15.46,47.71-15.46,47.71H23.56S9.87,219.63,89.38,204.15Z"/><path class="cls-3" d="M99.81,194c.24-1.62,2.27-2.86,4.53-2.86h74.71c2.26,0,3.9,1.24,3.67,2.86l-1.11,7.63c-.24,1.62-2.27,3-4.53,3H102.37c-2.27,0-3.91-1.36-3.67-3L99.81,194Z"/><polygon class="cls-11" points="56.6 288.61 70.12 288.61 69.9 282.94 56.37 282.94 56.6 288.61 56.6 288.61"/><path class="cls-3" d="M43.73,251.92a1.41,1.41,0,0,0,1.41,1.61H65a2.2,2.2,0,0,0,2.08-1.61h0c.09-.79-.82-1.21-1.78-1.21H45.44c-1,0-1.62.42-1.7,1.21Z"/><path class="cls-3" d="M40.19,258.61a1.44,1.44,0,0,0,1.41,1.65H61.5a2.23,2.23,0,0,0,2.08-1.65h0c.08-.79-.83-1.18-1.8-1.18H41.9c-1,0-1.62.39-1.7,1.18Z"/><path class="cls-3" d="M36.66,265.31A1.47,1.47,0,0,0,38.05,267H58A2.26,2.26,0,0,0,60,265.31h0c.08-.79-.84-1.14-1.8-1.14H38.35c-1,0-1.6.35-1.68,1.14Z"/><path class="cls-2" d="M265.32,207.31c-10.6,28.72-39.18,53.39-39.83,54.1-12.7,13.44-23.26,23-23.26,23L203,277c32.75-41.84,40.68-63.45,40.68-63.45a134,134,0,0,0,21.63-6.26Z"/><path class="cls-6" d="M260.75,111.23s-20.14,3.6-32,22.6c0,0,13.51,5.31,32.83,2.27,0,0,7.18-12.31-.81-24.87Z"/><path class="cls-2" d="M264.41,126.46a25.79,25.79,0,0,1-2.85,9.64c-19.32,3-32.83-2.27-32.83-2.27a189.56,189.56,0,0,0,35.68-7.37Z"/><path class="cls-12" d="M260.75,111.23c8,12.56.81,24.87.81,24.87s2.25-15.42-.81-24.87Z"/><path class="cls-13" d="M254.92,112.93a38.29,38.29,0,0,1,5.83-1.7c3.06,9.45.81,24.87.81,24.87-2.21.36-4.34.59-6.39.74a64.67,64.67,0,0,0-.25-23.91Z"/><path class="cls-14" d="M262.3,127.22c-.18,5-.74,8.88-.74,8.88-2.21.36-4.34.59-6.39.74a69.2,69.2,0,0,0,.86-8c1.13-.27,3.94-1,6.27-1.65Z"/><path class="cls-8" d="M254.78,118.2a15.72,15.72,0,0,0-.63-4.13,54.07,54.07,0,0,0-21,14.58s10.5-8.86,21.59-10.45Z"/><path class="cls-8" d="M260.4,187.82S250,161,238.31,144c0,0,10.56,25,17.4,45.7l4.69-1.89Z"/><path class="cls-7" d="M118.25,284.71a2,2,0,0,1,2-1.77h80.43a1.57,1.57,0,0,1,1.59,1.77,2,2,0,0,1-2,1.77H119.83a1.56,1.56,0,0,1-1.58-1.77Z"/><path class="cls-8" d="M129.24,239.92c.09,1.38,9-22.46-18.75-30.4s17,3.15,18.75,30.4Z"/><path class="cls-15" d="M244.48,207.26a3.17,3.17,0,0,0,4.16,2.37l.7-.2a4,4,0,0,0,2.84-4.42l-.94-4.74a3.17,3.17,0,0,0-4.16-2.37l-.7.2a4,4,0,0,0-2.84,4.42l.94,4.74Z"/><path class="cls-16" d="M245.18,206.53a2.52,2.52,0,0,0,3.3,1.88l.56-.16a3.15,3.15,0,0,0,2.24-3.5l-.74-3.76a2.52,2.52,0,0,0-3.3-1.87l-.55.16a3.14,3.14,0,0,0-2.25,3.49l.74,3.76Z"/><path class="cls-17" d="M139.56,236.94c1.91-9.47,14.08-17,21.56-23.72-7.63,9.37-13.75,17.23-14.45,23.89-1.13,10.8,12.12,36.8,12.12,36.8l.24.4C143,262.3,138,245,139.56,236.94Z"/><polygon class="cls-4" points="66.36 293.21 109.44 293.21 109.51 276.92 66.43 276.92 66.36 293.21 66.36 293.21"/><path class="cls-18" d="M224.27,133.21c.28-2.66,5.57-4.77,8.36-4.77,1.14,0,1.85,1.32,1.76,4-.11,3-1.08,4.63-3.87,4.63s-6.72.6-6.25-3.83Z"/><path class="cls-7" d="M221.74,133.43a4.73,4.73,0,0,1,4.6-4.16,3.67,3.67,0,0,1,3.72,4.16,4.74,4.74,0,0,1-4.6,4.17,3.68,3.68,0,0,1-3.72-4.17Z"/><path class="cls-19" d="M211.22,131.75s6.35,3,10.11-.76c0,0,.89-3.88,4.61-3.58s3.63,5.18.43,6.83a.73.73,0,0,0-.11,1.17,3,3,0,0,0,1.68-.4,3.77,3.77,0,0,0,1.93-.68c.7-.6.68-.22,1.44-1.33s1.57-3.58,1.25-4.59-3.72-4.72-5.81-5.24-15.26,2.44-15.26,2.44a5.77,5.77,0,0,0-.27,6.14Z"/><path class="cls-19" d="M211.44,131.86s-38.2,1.45-45.81-6.79c-5.14-5.57-15.12-35.33-15.12-35.33L166.16,87l11.18,28.6s27,7,35.75,10.35c0,0,.44,4.61-1.65,5.91Z"/><path class="cls-19" d="M172.4,166.27a133.69,133.69,0,0,1,31.06,10.27c12,5.51,21.66,11.23,22.43,19.15,1.06,11-29.27,33.78-49.62,68.92,0,0-2.83,1.12-10.36-1.55,0,0,20.12-48.33,36-59.07,2.58-1.76-15.67-7.45-30.17-10.32l.71-27.4Z"/><path class="cls-20" d="M164.72,269.78s-.57.23-.56.4.43,3.88.54,4.34c0,0,4.92,1.1,7.21,1.57,0,0,1.49-1,1.8-.51a3.44,3.44,0,0,0,1.94,1.24s8.45,1,13.66.53c5.05-.46,6.82-2.5,7.45-3.51.31-.5.72-2.45.17-3.26l-32.21-.8Z"/><path class="cls-21" d="M165.5,261.73s-1.39,1.46-.78,8c0,0,1.64,1.29,17.23,3.78a38.06,38.06,0,0,0,8,.75c2.16-.17,5.48-.85,6.63-2.42,1.59-2.2-1.63-3.05-7.2-5.46a42.07,42.07,0,0,1-10-6.17s-.92-.68-3.32-.22c-1.05.21-1.29.29-.86,1.6,0,0-.69,0-2.71,1.88-1.17,1.09-5.28.22-5.48-1.18-.13-.89-1.09-1.42-1.51-.61Z"/><path class="cls-22" d="M164.72,269.78c0-.35-.05-.68-.08-1,2.59-.86,7.9-3.37,9.42-3,2.15.46,9.81,4.27,9.81,4.27l.32,3.94c-.87-.13-1.57-.26-1.95-.32l-.44-2.86a64,64,0,0,0-7.38-2c-1.42-.07-5,2.41-5,2.41h0c-4-.94-4.65-1.42-4.65-1.42Z"/><path class="cls-23" d="M188.87,269.78a125.93,125.93,0,0,1-14.27-7.9,1.6,1.6,0,0,1,.6-.24c-.43-1.31-.14-1.46.86-1.6,2.42-.32,3.32.22,3.32.22a42.07,42.07,0,0,0,10,6.17c1,.45,2,.84,2.84,1.2a4.13,4.13,0,0,1-3.33,2.15Z"/><path class="cls-23" d="M183.87,270c2.91.06,3.87,1.95,7.69.24,1.38-.61,2.24-1.16,2.51-1.81,2.12,1,3.63,1.88,2.49,3.46s-4.47,2.25-6.63,2.42a38.06,38.06,0,0,1-8-.75l-2.18-.36c.42-.79,2-3.25,4.1-3.2Z"/><path class="cls-21" d="M189.08,269.31c-3.65-1.29-13.88-7.67-13.88-7.67-.43-1.31-.16-1.44.86-1.6,2.41-.37,3.32.22,3.32.22a42.25,42.25,0,0,0,9.75,6.07c.72.32,1.79.76,2.43,1a3.73,3.73,0,0,1-2.48,1.95Z"/><path class="cls-21" d="M192.43,273.94s-.19-1.37.25-1.71,2.66-.59,3.1-2.61a1.25,1.25,0,0,1,1.15,1s.66,2.37-4.5,3.36Z"/><polygon class="cls-22" points="181.14 261.69 179.61 260.48 176.27 261.3 178 262.65 181.14 261.69 181.14 261.69"/><path class="cls-3" d="M169.37,271.2c-4-.94-4.65-1.42-4.65-1.42a24.26,24.26,0,0,1,0-5.63,8.63,8.63,0,0,1,4.64,7.05Z"/><path class="cls-24" d="M189.08,269.48c.16,0,.29-.07.3-.23l.05-2.95a.27.27,0,0,0-.09-.21.32.32,0,0,0-.23-.07l-5,.4-.06-3a.29.29,0,0,0-.29-.29l-5.77-.09a.28.28,0,0,0-.3.29.29.29,0,0,0,.29.3l5.48.09.06,3a.28.28,0,0,0,.1.21.27.27,0,0,0,.22.08l5-.4,0,2.6c0,.16.12.24.29.24Z"/><path class="cls-24" d="M186.56,268.4h0l5.08-.75a.3.3,0,0,0,.25-.34c0-.16.08-.27-.08-.24l-4.49.69V265c0-.08-.29-.16-.34-.22a.82.82,0,0,0-.35-.08l-4.94.28.3-2.88a.32.32,0,0,0-.28-.33.31.31,0,0,0-.34.26l-.37,3.24a.31.31,0,0,0,.08.24,1,1,0,0,0,.42.09l5.11-.29v2.82c0,.09-.16.17-.09.23s-.07.07,0,.07Z"/><path class="cls-19" d="M176.66,166.27c10.5,3.17,19.45,5.69,31.05,10.52,12.21,5.08,21.66,11,22.43,18.9,1.06,11-29.26,33.78-49.62,68.92,0,0-2.83,1.12-10.36-1.55,0,0,20.66-49.42,36.49-60.16,2.58-1.76-16.21-6.36-30.71-9.23l.72-27.4Z"/><path class="cls-20" d="M169,269.78s-.57.23-.56.4.43,3.88.54,4.34c0,0,4.92,1.1,7.21,1.57,0,0,1.49-1,1.8-.51a3.44,3.44,0,0,0,1.94,1.24s8.45,1,13.66.53c5.05-.46,6.82-2.5,7.45-3.51.31-.5.72-2.45.17-3.26l-32.21-.8Z"/><path class="cls-21" d="M169.75,261.73s-1.39,1.46-.78,8c0,0,1.64,1.29,17.23,3.78a38.06,38.06,0,0,0,8,.75c2.16-.17,5.48-.85,6.63-2.42,1.6-2.2-1.63-3.05-7.19-5.46a42.18,42.18,0,0,1-10-6.17s-.92-.68-3.31-.22c-1.06.21-1.29.29-.87,1.6,0,0-.69,0-2.71,1.88-1.17,1.09-5.28.22-5.48-1.18-.13-.89-1.09-1.42-1.51-.61Z"/><path class="cls-25" d="M169,269.78c0-.35-.05-.68-.08-1,2.59-.86,7.9-3.37,9.42-3,2.15.46,9.81,4.27,9.81,4.27l.33,3.94c-.87-.13-1.58-.26-2-.32l-.44-2.86a64,64,0,0,0-7.38-2c-1.42-.07-5,2.41-5,2.41h0c-4-.94-4.66-1.42-4.66-1.42Z"/><path class="cls-23" d="M193.12,269.78a125.93,125.93,0,0,1-14.27-7.9,1.6,1.6,0,0,1,.6-.24c-.42-1.31-.14-1.46.87-1.6,2.41-.32,3.31.22,3.31.22a42.18,42.18,0,0,0,10,6.17c1,.45,2,.84,2.83,1.2a4.13,4.13,0,0,1-3.33,2.15Z"/><path class="cls-3" d="M188.12,270c2.91.06,3.87,1.95,7.7.24,1.37-.61,2.23-1.16,2.5-1.81,2.12,1,3.63,1.88,2.49,3.46s-4.47,2.25-6.63,2.42a38.06,38.06,0,0,1-8-.75L184,273.2c.42-.79,2-3.25,4.1-3.2Z"/><path class="cls-21" d="M193.34,269.31c-3.66-1.29-13.89-7.67-13.89-7.67-.42-1.31-.16-1.44.87-1.6,2.4-.37,3.31.22,3.31.22a42.6,42.6,0,0,0,9.76,6.07c.71.32,1.78.76,2.43,1a3.75,3.75,0,0,1-2.48,1.95Z"/><path class="cls-21" d="M196.68,273.94s-.18-1.37.26-1.71,2.66-.59,3.1-2.61a1.24,1.24,0,0,1,1.14,1s.67,2.37-4.5,3.36Z"/><polygon class="cls-25" points="185.4 261.69 183.87 260.48 180.52 261.3 182.25 262.65 185.4 261.69 185.4 261.69"/><path class="cls-3" d="M173.63,271.2c-4-.94-4.66-1.42-4.66-1.42a24.26,24.26,0,0,1,0-5.63,8.65,8.65,0,0,1,4.65,7.05Z"/><path class="cls-24" d="M193.34,269.48c.16,0,.29-.07.29-.23l.05-2.95a.27.27,0,0,0-.09-.21.32.32,0,0,0-.23-.07l-5,.4-.06-3a.29.29,0,0,0-.29-.29l-5.77-.09a.28.28,0,0,0-.3.29.29.29,0,0,0,.29.3l5.49.09.05,3a.28.28,0,0,0,.1.21.27.27,0,0,0,.22.08l5-.4,0,2.6c0,.16.13.24.29.24Z"/><path class="cls-24" d="M190.81,268.4h0l5.08-.75a.29.29,0,0,0,.25-.34c0-.16.08-.27-.08-.24l-4.49.69V265c0-.08-.29-.16-.34-.22a.82.82,0,0,0-.35-.08L186,265l.3-2.88a.31.31,0,0,0-.28-.33.3.3,0,0,0-.33.26l-.38,3.24a.31.31,0,0,0,.08.24,1,1,0,0,0,.42.09l5.11-.29v2.82c0,.09-.15.17-.09.23s-.07.07,0,.07Z"/><path class="cls-26" d="M138.18,120s-2.19,21-2.38,31.63l28.3,3a87.69,87.69,0,0,1,5.3-29.47L138.18,120Z"/><path class="cls-27" d="M162.88,132.83c-2.13.45-5-.28-6.52-.7s-12.25-1.79-19.6,3.34c.66-8.17,1.42-15.46,1.42-15.46l31.22,5.19a75.94,75.94,0,0,0-2.47,7.8,9.34,9.34,0,0,0-4.05-.17Z"/><path class="cls-26" d="M167.29,77.17s-2.7,7.47,2.3,13.2a102,102,0,0,0-9.35-6.08c-3.16-1.58-7.73-7.71-6.67-13.12l1.77-2,11.95,8Z"/><polygon class="cls-19" points="152.6 77.46 166.16 82.5 174.63 59.7 161.08 54.66 152.6 77.46 152.6 77.46"/><path class="cls-28" d="M174.75,59.16l-3.93,10.57c-1.87-2.23-5-4.59-7.2-14.71l11.13,4.14Z"/><path class="cls-19" d="M173.05,24.37s11.08,1.14,10.69,15.11c-.11,4-1.81,7.77-.88,9.88,2,4.48,5.26,6.9-.48,7.52a17.27,17.27,0,0,0-1.17,3.62c-.69,3.37-1.58,7.87-5,7.67-4-.23-8.87-4.66-15-9.8a20,20,0,0,1-5.13-7c-3.34-7.42-7.5-24.38,8.56-27.27,2.35-.42,5.11.09,8.43.28Z"/><path class="cls-29" d="M173.37,44.83a.58.58,0,0,1-.36-.17.56.56,0,0,1,0-.79c.93-.92,3.2-2.84,6.19-.61a.58.58,0,0,1,.2.77.55.55,0,0,1-.76.2,4,4,0,0,0-4.84.43.59.59,0,0,1-.43.17Z"/><path class="cls-30" d="M176.63,59.73a.48.48,0,0,1,.54-.8,7.53,7.53,0,0,0,4.08,1.35c0,.07,0,.14,0,.22l-.15.74h-.13a8.66,8.66,0,0,1-4.3-1.51Z"/><path class="cls-26" d="M164,47.17A3.37,3.37,0,0,0,160.36,45c-2.88.08-2.33,7.5.12,8.86S164,51.61,164,51.61V47.17Z"/><path class="cls-31" d="M176.15,48.43a.95.95,0,1,0,1-1,1,1,0,0,0-1,1Z"/><path class="cls-16" d="M155.63,68.51s-3.8,4.89,13.22,16c0,0,.62,2.87,1.51,6.13.51,1.91,5.27,8.07,6.1,12.68s-4,28.11-4,28.11a14.25,14.25,0,0,1-9.23-1c-5-2.26-6.09,1.35-12.06.7s-11.63,1.12-16.12-6.34c0,0,4.84-43.68,20.55-56.34Z"/><path class="cls-32" d="M231.28,205.34a10.76,10.76,0,0,1-.9,1.37c-1.41,1.92-2.95,3.75-4.47,5.58-4.92,5.91-10,11.72-15,17.52q-7.82,9-15.71,17.9l-7.55,8.52h0l-16.77-3.76c2-3.16,4-6.35,6-9.55,4.07-6.57,8.07-13.19,11.89-19.92,3.13-5.51,6.59-11.19,8.63-17.22a7.19,7.19,0,0,0,.58-2.45c-.07-2.2-5.76-3.6-7.42-4.22-2-.75-4-1.45-6-2.09l0-.08c-.15.33-5.54-.33-6.06-.36-2.85-.19-5.71-.39-8.56-.61-7.22-.56-14.43-1.22-21.63-2.07l-2-.25C127.17,191.3,135,150.32,135,150.32c23.68,2,29.46-.69,29.46-.69.71,3.45,4.59,11.28,4.59,11.28,2.64.37,2.32,2.25,2.32,2.25l18.15,6.58,8,2.91c8,2.9,16.13,5.42,24,8.81,3.8,1.63,9.15,3.31,10.72,7.55C234,193.83,233.82,200.86,231.28,205.34Z"/><path class="cls-29" d="M163.9,40.32s-.93,8.08-1.68,13.44l-2.6,1.48a90.44,90.44,0,0,1-8.4-7.36,31.88,31.88,0,0,1,12.68-7.56Z"/><path class="cls-29" d="M162.75,27.08s4,1.28,4.24,3.73,3.17,2.92,2.29,5.74,3,2.71,1.07,5.26c-1.27,1.66,1,4.48-.89,6-2.44,1.9-.72,4.37-3.65,5s-.73,4.62-3.67,4.79-2.89,2.88-5.69,2.78c-3.46-.12-3.89,3.18-6,.84s-4.51,2.18-6.89-1.68c-1.45-2.36-4.49-.31-5.26-3.81-.84-3.87-5.48-3-4.53-6.23.63-2.12-3.76-3.21-1-6.83,1-1.33-3.41-4.27.23-6.46,1.7-1-.81-5.27,3.33-6.27,2.44-.59,1.9-5.16,6.15-5.16,2.75,0,3.3-3.62,6.62-1.76,2.51,1.4,4-2.15,6.39.44s4.2-1.45,7.27,3.67Z"/><path class="cls-29" d="M172.85,19.64c1.08,2.77,5-.92,4.74,1.77s4,2.38,3.37,4.91,5.52,3.35,4.71,5.66c-1,2.85-1.8,4.66-4.45,5.53s.79,4.62-3.29,5.12c-2.5.31-1.44,3.65-4.79,2.94-3.7-.78-4.12,3.44-6.78,1.4-1.74-1.33-3.86,1.92-6.41-1.77"/><polyline class="cls-33" points="166.83 75.73 155.15 68.37 151.18 73.2 166.72 81.53 168.31 77.11"/><path class="cls-16" d="M161.86,151.09h-25a2.15,2.15,0,0,1-2.15-2.15V127a2.15,2.15,0,0,1,2.15-2.15h27.33a2.16,2.16,0,0,1,2.16,2.15l-2.71,19.29C163.62,148.76,164.33,151.09,161.86,151.09Z"/><path class="cls-29" d="M185.14,28.91a1.48,1.48,0,0,1-.58,1.73c-1,.57-25.1,10.29-36.09,19.33a1.68,1.68,0,0,1-2.18-.54S159.15,35,185.14,28.91Z"/><path class="cls-32" d="M130.3,106.74S148.9,75,159.41,78.3s6.3,17.22,2.27,24.9-25.55,33.07-25.55,33.07l.3,3.36s20.19-22.77,25.25-30.78,12.92-30.21-2.06-32.22S129,105.21,129,105.21l1.3,1.53Z"/><path class="cls-34" d="M130.22,105.44s4.83-8.59,3.77-10.28-8.65-.79-8.65-.79l.71,8.59,1.15.72.11-7.27,4.32.09-1.88,8.16.47.78Z"/><path class="cls-35" d="M130.3,104.5s-1.77,17.14-1.06,21.53,8.37,7.93,7.19,13.6-3.3,17.36-11.09,25c0,0-3.19,1.24-5.85-2.12s-12.45-25.38-1.06-53c0,0,10.27-8.41,11.87-5Z"/><path class="cls-32" d="M126.2,109.48c-.25-1.26-4.84,1-9.08,3.41.4-1.12.84-2.26,1.31-3.41,0,0,10.27-8.41,11.87-5,0,0-1.77,17.14-1.06,21.53s8.37,7.93,7.19,13.6a76,76,0,0,1-3.61,13.22c-.89-9.74-7.17-24.13-7.48-25.62-.36-1.68,1.33-15.41.86-17.75Z"/><path class="cls-34" d="M136.44,137.34a5.7,5.7,0,0,1,0,2.29c-1.17,5.67-3.3,17.36-11.09,25,0,0-3.19,1.24-5.85-2.12,8.33.82,16.83-24.78,17-25.15Z"/><path class="cls-34" d="M130.3,104.5s-7.38,1.89-8.21,6.73-1.77,10.34-1.89,12.91-1.41,2-3.9,1.89-6.14,0-5.9-1.89,3.66-15.62,7-17.16,12.16-7.09,12.93-2.48Z"/><path class="cls-5" d="M113.24,141s5.59-1.18,7.1-1.65,2.11,1.53,2.58,2.6,3.9,9,3.19,10.4-5.93,5-8.87,5.92-3.8-.38-4.2-1.44-5.83-14.47.2-15.83Z"/><path class="cls-34" d="M113.24,141s5.59-1.18,7.1-1.65,2.11,1.53,2.58,2.6c.11.24.37.85.7,1.65a15.6,15.6,0,0,1-3.69,2.69c-.91.26-6.06,1.3-9.36,1.72-.44-3.3-.06-6.39,2.67-7Z"/><path class="cls-36" d="M121.75,151.41c-.15-.57-1.07-3-1.88-5.12h.06a15.6,15.6,0,0,0,3.69-2.69c1.12,2.7,3,7.66,2.49,8.75-.71,1.41-5.93,5-8.87,5.92-2.19.68-3.22.14-3.77-.62,8.11-1.69,8.52-5.3,8.28-6.23Z"/><path class="cls-3" d="M119.87,146.29c-.63-1.66-1.19-3.17-1.26-3.56-.12-.56,1.14-2.2,2.16-3.45,1.2,0,1.72,1.7,2.15,2.66,0,.06.66,1.55.7,1.64h0a15.6,15.6,0,0,1-3.69,2.69Z"/><path class="cls-36" d="M118.6,121.73s-.7,9.18.24,12.67l-2.89.37s-.77-8.43,0-13Z"/><path class="cls-21" d="M118.6,121.73s-.26,4.29-.23,4.88-1.06,5.36-4.9,5.48l-2.33-.7s4.2.09,4.47-5.13c0,0,.13-4.17.22-4.53Z"/><path class="cls-15" d="M117,124.49a1.59,1.59,0,1,0,1.59,1.59,1.59,1.59,0,0,0-1.59-1.59Zm0,3.89a2.3,2.3,0,1,1,2.3-2.3,2.3,2.3,0,0,1-2.3,2.3Z"/><path class="cls-19" d="M212.77,134.61s6.3,3,10-.75c0,0,.88-3.86,4.57-3.56s3.61,5.15.43,6.79c0,0-.7.4-.11,1.16a3,3,0,0,0,1.67-.41,3.77,3.77,0,0,0,1.92-.67c.7-.59.67-.21,1.43-1.32s1.56-3.56,1.24-4.56-3.7-4.69-5.77-5.2S213,128.52,213,128.52a5.71,5.71,0,0,0-.27,6.09Z"/><path class="cls-26" d="M212.77,134.61s-36.89,5.2-46.61-.25-14.7-37-14.7-37l15-.81,8.45,26.4s29,4.3,38.16,5.6c0,0,1.46,4.36-.27,6.09Z"/><path class="cls-16" d="M154.34,79.23s9.44-4.21,12.24,9.51c2.9,14.26,7.43,28.43,7.43,28.43s-6.41,2.6-14.08,11.57c-2.59,3-8,.72-10.91,1.08a76.79,76.79,0,0,0-.15-13.78c-.79-7.09-3.64-19-3.64-19s-3.38-14.25,9.11-17.86Z"/><path class="cls-4" d="M158,38.07s3.41,16.24,14.32,28.26c0,0-.77.18-2.75-1.67,0,0-6.17-3.37-13.61-24.34,0,0-.69-3.4,2-2.25Z"/><path class="cls-34" d="M185.14,28.91a165.74,165.74,0,0,0-38.85,20.52s-12-19.85,8.3-30.53,30.55,10,30.55,10Z"/><path class="cls-16" d="M156.79,108.06s-7.76,13.64,29.5,20.19c0,0,4.75,4.85,9.3.42l6.27,1.39s3-4.64,2.5-9.48l-6.05-1.76s-1.76-4.81-8.69-3.56l-14-7"/><path class="cls-33" d="M197.68,119.27l6.38,1.69a.38.38,0,0,0,.47-.27.39.39,0,0,0-.27-.48l-6-1.6c-.33-.75-1.65-3.52-3.45-3.84a10.64,10.64,0,0,0-2.44-.07,5.81,5.81,0,0,1-2.4-.2c-1.41-.54-11.82-5.29-11.92-5.34a.39.39,0,1,0-.33.71c.43.19,10.54,4.81,12,5.36a6.49,6.49,0,0,0,2.72.24,10.26,10.26,0,0,1,2.27.07c1.33.23,2.57,2.64,2.93,3.55l.07.18Z"/><path class="cls-33" d="M178.14,127l.05,0,4.8,1.07a13.07,13.07,0,0,1,4.29,1.49,22.78,22.78,0,0,0,2.86,1.27c2.87,1,5.11-1.07,5.67-1.67l6.17,1.36.12-.18c.17-.24.81-1.46.88-1.6a.32.32,0,0,0-.18-.43.35.35,0,0,0-.47.12c-.22.42-.55,1-.73,1.36l-6.11-1.34-.12.15s-2.25,2.62-5,1.64a21.72,21.72,0,0,1-2.77-1.23,13.66,13.66,0,0,0-4.5-1.56l-4.78-1.07a.32.32,0,0,0-.4.23.34.34,0,0,0,.24.37Z"/><path class="cls-37" d="M183.64,28.3s-7.44-14.3-23.21-11c0,0,10.81-.57,18.18,12.75l5-1.72Z"/><polygon class="cls-16" points="173.64 114.44 174.41 121.59 183.33 122.97 163.99 134.26 159.03 126.86 173.64 114.44"/><path class="cls-16" d="M161.39,128.26S160,142,197.44,137.46c0,0,6,3,9-2.23l6.39-.51s1.5-5-.49-9.17l-6.29.12s-3.14-3.81-9.37-.76l-15.48-2.33"/><path class="cls-33" d="M205.67,126.16l6.58-.47a.38.38,0,0,0,.36-.41.38.38,0,0,0-.41-.37l-6.2.45c-.55-.61-2.7-2.8-4.5-2.52a10.69,10.69,0,0,0-2.34.73,5.89,5.89,0,0,1-2.33.59c-1.51,0-29.07-5.23-29.18-5.25a.39.39,0,1,0-.08.78c.47,0,27.7,5.19,29.23,5.25a6.46,6.46,0,0,0,2.65-.65,10.38,10.38,0,0,1,2.17-.68c1.33-.21,3.29,1.66,3.92,2.4l.13.15Z"/><path class="cls-33" d="M189.29,138.24h.05l4.89-.39a13.94,13.94,0,0,1,4.54.14,24.14,24.14,0,0,0,3.12.33,5.39,5.39,0,0,0,4.89-3.08l6.29-.5.06-.19c.09-.27.33-1.54.36-1.68s-.11-.31-.31-.34a.35.35,0,0,0-.4.24c-.09.44-.21,1.09-.29,1.43l-6.23.5-.07.17s-1.35,3-4.28,2.87a23.18,23.18,0,0,1-3-.33,15,15,0,0,0-4.77-.14l-4.87.39a.3.3,0,0,0-.32.32.35.35,0,0,0,.35.26Z"/><path class="cls-38" d="M149.08,117.37q-.06,3,.06,6a32.84,32.84,0,0,0,.33,4.08c.51,3.13,5,3.63,7.83,4.42,2.62.74,6.25,3.55,9,3.32"/><path class="cls-16" d="M164.21,38.32l4.73,10.16a33.16,33.16,0,0,1-.63-7.4c0-4.7,1-5.55,1-5.55Z"/><path class="cls-19" d="M169.85,46.83a3.4,3.4,0,0,0-3.76-2c-2.9.26-1.91,7.7.64,8.93s3.39-2.47,3.39-2.47l-.27-4.48Z"/><path class="cls-32" d="M200.32,211.31l-.95-.07a3.2,3.2,0,0,1,.25.24l-23.24,38.75-5.45-1.42s15.42-32.54,20.38-38.19c.08-.24,1.83-5.45,3.07-9.18s6.82,0,6.82,0Z"/><path class="cls-35" d="M151.89,154.07c8.56,0,13.71-1.84,14-2a.55.55,0,0,0,.35-.75.69.69,0,0,0-.86-.3c-.12,0-12.35,4.39-30.49-.44a.68.68,0,0,0-.82.38.56.56,0,0,0,.44.71,67.39,67.39,0,0,0,17.34,2.36Z"/><path class="cls-39" d="M195.91,201.14s2.11,1.49,2.05,2.2,6.59-.4,6.59-.4"/><line class="cls-39" x1="171.67" y1="252.48" x2="196.72" y2="209.57"/></g></g></svg>