<svg xmlns="http://www.w3.org/2000/svg" xmlns:xlink="http://www.w3.org/1999/xlink" viewBox="0 0 300 300"><defs><style>.cls-1{fill:none;}.cls-2{clip-path:url(#clip-path);}.cls-3{fill:#353549;}.cls-4{fill:#fc3;}.cls-5{fill:#7f4e45;}.cls-6{fill:#6b413b;}.cls-7{fill:#ff8f00;}.cls-8{fill:#23242b;}.cls-9{fill:#fff;}</style><clipPath id="clip-path"><circle class="cls-1" cx="154.28" cy="145.59" r="116.62"/></clipPath></defs><g id="Layer_1" data-name="Layer 1"><circle class="cls-1" cx="153.25" cy="149.67" r="116.62"/><g class="cls-2"><g id="Kiaro"><path class="cls-3" d="M174.2,71.12s15.63-1.08,20,7.36,15.17,6,16,17.37,14.39,5.45,11.12,17.43c-2.13,7.8,9.78,14.7,5.2,22.79-5.86,10.36,3.59,16.8-5.84,23.18s3.91,17.69-6.13,22.53-6.09,14.54-16,18.23c-12.26,4.53-9.2,17-19.85,11.65S166,226,152.25,215.47c-8.36-6.42-16.16,5.34-23.73-6.17-8.36-12.73-23.39-3-24.56-16-.77-8.53-17.65-6.16-13.08-23.14C92.55,164,73,159.7,82.68,146.59c4.51-6.11-10.19-17.83,2.9-27.38,7.72-5.62-.57-21.32,14.3-27.43,9.63-4,6.52-17.78,20.74-15.85,10.75,1.45,11.16-13.57,23-7.58s12.66-11.26,30.58,2.77Z"/><path class="cls-4" d="M219.72,243.35s13.22,26.56,13.22,100.26,22.29,64.87,7.68,83.25l.77,13.14s-11.91,6.2-23.44,3.8l-3.84-13.23s-13.85-3-12.88-22.42-22.78-151.34,18.49-164.8Z"/><path class="cls-5" d="M171.44,176.94s-1.05,25,0,29.05,10.91,10.73,21,15.46a47.92,47.92,0,0,1-38.37,17.28c-25.38-.52-32.29-11-36.32-16.79,0,0,19.82-7,20.29-15.24s0-29.76,0-29.76Z"/><path class="cls-6" d="M155,200.88c-8,0-13.61-5.61-16.74-9.94,0-7.31-.19-14-.19-14h33.4s-.28,6.69-.41,13.67c-2.68,4.36-7.82,10.27-16.06,10.27Z"/><path class="cls-4" d="M177.24,213.26s-19.79,12.68-45.23-.77c0,0-30.5,17.87-44.28,30.86,0,0,13.57,72.26,20.21,116.83.41,2.81-4.88,4.51-3.25,10,.58,1.95,4.83,4.19,4.83,4.19s58,14.07,96.61.19a6.55,6.55,0,0,0,4.52-5.48c.3-1.84-3.46-5.76-3.07-8.15,4.8-29.67,12.62-111.77,12.14-117.56,0,0-16.75-20.48-42.48-30.09Z"/><polygon class="cls-7" points="174.04 200.41 157.88 217.61 135.1 201.19 128.42 213 146.35 236.44 157.63 219.79 170.5 236.44 182.75 213.26 174.04 200.41 174.04 200.41"/><path class="cls-4" d="M87.73,243.35s-19.64,27.44-30,106.22c0,0-5.77,38,74,22.23,0,0,13.09,7.28,19-6.77l13.65-2s2.78-13.27-1.83-24l-13.45,1s-7-9.67-20.1-1l-33.31-4.55s10.12-28.63,11.91-36.06,1.63-46.18-19.94-55Z"/><path class="cls-7" d="M102,317.23a.77.77,0,0,0,.71-.47c.09-.21,8.48-21,10.39-38.58a.78.78,0,0,0-.69-.85.76.76,0,0,0-.84.68c-1.89,17.37-10.2,38-10.28,38.17a.77.77,0,0,0,.42,1,.74.74,0,0,0,.29.05Z"/><path class="cls-7" d="M208.11,374.28a.84.84,0,0,0,.37-.09,6.13,6.13,0,0,0,2.71-3.54,6.46,6.46,0,0,0-1-5.1c-2.41-4-1.53-8-1-10.41.11-.51.21-.95.26-1.3.38-2.77,9.14-82.55,9.86-91.53a.78.78,0,0,0-.71-.83.76.76,0,0,0-.82.71c-.72,9-9.47,88.67-9.85,91.44-.05.32-.14.72-.24,1.18-.54,2.47-1.55,7.06,1.19,11.54a5,5,0,0,1,.85,3.92,4.64,4.64,0,0,1-2,2.58.76.76,0,0,0-.29,1,.76.76,0,0,0,.67.39Z"/><path class="cls-5" d="M127.8,148.75s-1.63-4.79-8-4.23c-6.21.54-4.11,16.49,1.36,19.11s7.27-5.29,7.27-5.29l-.58-9.59Z"/><path class="cls-5" d="M182.16,148.75s1.63-4.79,8.05-4.23c6.21.54,4.1,16.49-1.36,19.11s-7.27-5.29-7.27-5.29l.58-9.59Z"/><path class="cls-5" d="M187.45,142.44c-2.43,45.2-15.8,50.48-32.47,50.48s-32.81-3.22-32.47-50.48c.2-27.36,12.38-44.17,32.47-44.17s34.74,15.84,32.47,44.17Z"/><path class="cls-6" d="M154.49,167.62c-1.71-.06-3.06-.52-3.69-1.77-2-3.92,1.77-10.25,2.12-11,.24-.54.61-.86,1.15-.62s.33,1,.09,1.49c-1.15,2.55-1.86,7.27-.81,9.06a1.5,1.5,0,0,0,1.32.73,1.08,1.08,0,0,1,1,1.16c0,1-1.12,1-1.15,1Z"/><path class="cls-8" d="M168.91,150.1a2.05,2.05,0,1,0,2-2.34,2.2,2.2,0,0,0-2,2.34Z"/><path class="cls-8" d="M134.2,150.1a2.05,2.05,0,1,0,2-2.34,2.2,2.2,0,0,0-2,2.34Z"/><path class="cls-3" d="M130.28,145.45a1,1,0,0,1-.73-.34,1.44,1.44,0,0,1-.09-1.88c1.88-2.31,6.51-7.17,13.19-2.29a1.47,1.47,0,0,1,.53,1.79,1.25,1.25,0,0,1-1.62.58c-4-1.16-10.25,1.67-10.31,1.7-.39.21-.64.44-1,.44Z"/><path class="cls-3" d="M178.25,142.15a1,1,0,0,0,.73-.34,1.42,1.42,0,0,0,.09-1.88c-1.88-2.31-6.5-7.17-13.19-2.29a1.45,1.45,0,0,0-.52,1.79A1.26,1.26,0,0,0,167,140c4-1.16,10.26,1.67,10.31,1.7.4.2.64.44,1,.44Z"/><path class="cls-3" d="M126.34,148.4s-1.39-25.6,8.53-32.62c8.6-6.07,32.7-6.07,40.16,1.66,8,8.25,9.24,31.94,9.24,31.94s12-11.57,5-32.46c-4.41-13.06-45.4-42.62-69.25-.83-7.45,20.75,6.35,32.31,6.35,32.31Z"/><path class="cls-4" d="M123.68,138s-5.18-33.71,30.1-33.49c35,.23,33,34.15,33,34.15s9-41.31-33-41.31C112,97.3,123.68,138,123.68,138Z"/></g></g><circle class="cls-1" cx="153.25" cy="147.17" r="116.74"/><path class="cls-9" d="M145.59,180.66c-.55-2,2.7-4.62,7.26-5.88s8.7-.66,9.25,1.33"/></g></svg>