<?xml version="1.0" encoding="utf-8"?>
<!-- Generator: Adobe Illustrator 25.2.1, SVG Export Plug-In . SVG Version: 6.00 Build 0)  -->
<svg version="1.1" id="Layer_1" xmlns="http://www.w3.org/2000/svg" xmlns:xlink="http://www.w3.org/1999/xlink" x="0px" y="0px"
	 viewBox="0 0 300 300" style="enable-background:new 0 0 300 300;" xml:space="preserve">
<style type="text/css">
	.st0{clip-path:url(#SVGID_2_);}
	.st1{fill:#79787A;}
	.st2{fill:#592B14;}
	.st3{fill:#8E441B;}
	.st4{fill:#B56943;}
	.st5{fill:#30323D;}
	.st6{fill:none;}
	.st7{fill:#FFFFFF;}
	.st8{clip-path:url(#SVGID_4_);}
	.st9{fill:#BF8964;}
	.st10{fill:#FFD4B1;}
	.st11{fill:#7FE2D8;}
	.st12{fill:#FFB762;}
	.st13{fill:#00CDC2;}
	.st14{fill:#EFEFEF;}
	.st15{fill:#D7D7E0;}
	.st16{fill:#C64444;}
	.st17{fill-rule:evenodd;clip-rule:evenodd;fill:#3E3E42;}
	.st18{fill-rule:evenodd;clip-rule:evenodd;fill:#4A4A4F;}
	.st19{fill-rule:evenodd;clip-rule:evenodd;fill:#343438;}
	.st20{fill-rule:evenodd;clip-rule:evenodd;fill:#A36043;}
	.st21{fill:#A76F48;}
	.st22{fill:#23242B;}
	.st23{fill:#363B42;}
	.st24{fill:#CAE0DD;}
</style>
<g>
	<defs>
		<ellipse id="SVGID_1_" cx="153.2" cy="-634.6" rx="116.7" ry="116.9"/>
	</defs>
	<clipPath id="SVGID_2_">
		<use xlink:href="#SVGID_1_"  style="overflow:visible;"/>
	</clipPath>
	<g class="st0">
		<g id="Sunny">
			<polygon class="st1" points="208.4,185.5 213.2,213.8 237.5,210.8 235.1,181.8 			"/>
			<path class="st2" d="M220.2,243.9c0,0,4.8,11.8,19,9.5s11.5-14.4,11.5-14.4L220.2,243.9z"/>
			<path class="st3" d="M248.2,227.5c-3.4-7.2-11.7-21.5-11.7-21.5c-12.8-7.6-21-1.8-24.7,1.6l0,0c0,0-0.3-0.2-0.9-3.6
				c0,0-0.2,6.9,1.4,11.4l0,0c0.8,2.7,4.1,7.1,4.8,17.5c0.9,15.6,12.5,19.6,24.4,16.8S251.6,234.7,248.2,227.5z"/>
			<path class="st4" d="M222.4,237.6c0,0,18.9,8.5,25.3-3.1c0,0,4.2,8.4-9.9,10.8C228.6,246.8,222.4,237.6,222.4,237.6z"/>
			<polygon class="st1" points="112.1,182.6 112.4,212.7 139.1,212.7 139.6,182.6 			"/>
			<path class="st2" d="M142.4,222l-0.5,7.2c-4.8,2.7-10.2,4-15.6,3.8c0,0-8.4-3-13.1,1.1c-8.9,7.8-37.7,14-40.6,3.5L142.4,222z"/>
			<path class="st3" d="M141.5,204.3c0,0,3.5,17,0.7,19.4s-21.6,5.5-31.1,10.4s-37.9,10.1-39.2,2s10.4-13.2,18.3-16.3
				s15.9-14.1,20-15.4c0,0,2.3-1.9,10.8,4C125.4,211.3,136.7,201.9,141.5,204.3z"/>
			<path class="st4" d="M76.3,228c0,0,3.9,6.7,21.2,4.7c0,0-16.5,4.5-24.5,0.6C73.6,231.3,74.8,229.5,76.3,228z"/>
			<path class="st5" d="M200.8,192.1c-2.6-29.4-37.3-323-40.3-359.8c0,0-4.1,303.8-12.2,359.8h-46.1C97.5,87,71.9-199.1,77-284.4
				h167.3c0,0,0.1,362.6,0.4,476.5H200.8z"/>
		</g>
	</g>
</g>
<circle class="st6" cx="154.3" cy="144.6" r="116.6"/>
<circle class="st6" cx="153.2" cy="147.2" r="116.7"/>
<path class="st7" d="M145.6,180.7c-0.6-2,2.7-4.6,7.3-5.9s8.7-0.7,9.2,1.3"/>
<path class="st7" d="M144.1,174.4c-0.8-4,3.4-8.2,9.5-9.5s11.6,1,12.5,5"/>
<path class="st7" d="M143.1,168.1c-1.1-3.9,2.9-8.4,8.9-10.1s11.7,0.2,12.8,4.2"/>
<path class="st7" d="M146.1,181.6c0.7-4.1,6.2-6.5,12.4-5.4s10.6,5.2,9.9,9.2"/>
<ellipse class="st6" cx="153.2" cy="144.3" rx="116.7" ry="116.9"/>
<path class="st7" d="M143.2,187.4c1.4-3.8,7.2-5.3,13-3.2s9.4,6.9,8.1,10.7"/>
<path class="st7" d="M145.5,162.5c-1.3-3.9,2.5-8.6,8.4-10.5s11.7-0.3,12.9,3.5"/>
<path class="st7" d="M157.9,180.2c-1.4-3.9,2.3-8.6,8.1-10.7s11.7-0.6,13,3.3"/>
<path class="st7" d="M143,175.9c-1-3.1,3.1-7,8.9-8.9s11.5-0.9,12.4,2.2"/>
<g>
	<defs>
		<circle id="SVGID_3_" cx="153.2" cy="144.7" r="116.6"/>
	</defs>
	<clipPath id="SVGID_4_">
		<use xlink:href="#SVGID_3_"  style="overflow:visible;"/>
	</clipPath>
	<g class="st8">
		<g id="Winona-2">
			<path class="st9" d="M134.5,159.4c0,0,1.3,30.8,0,35.8s-13.6,13.2-26.3,19.1c0,0,16.2,22.1,48,21.5s37.6-13.8,42.6-21.1
				c0,0-22-8.3-22.6-18.6s0-36.7,0-36.7H134.5z"/>
			<path class="st10" d="M68.1,227.2c0,0-17.5,9.2-22,40.2c-3.8,25.6-9.4,64.6-16.6,110.9c0,0-16.5,71.9-18.1,136.4
				c0,0,16.4,7.9,41.4,5c0,0,17.3-90.2,22.8-118.4c2.8-14.3,8.3-47,12.5-87.7C92.2,275.1,85.6,232,68.1,227.2L68.1,227.2z"/>
			<path class="st11" d="M124.5,204.9c0,0,22.7,53.3,57.9-1c0,0,37.8,18.3,56.7,32.6c0,0-13.4,115.1-21.9,172.1
				c-0.5,3.6,6.2,5.8,4.1,12.8c-0.7,2.5-6.2,5.4-6.2,5.4s-78.2,18-127.6,0.2c-3.1-1-5.4-3.7-5.8-7c-0.4-2.4,4.4-7.4,3.9-10.4
				c-6.1-38-16.2-169.6-15.5-177C70.2,232.6,91.6,217.2,124.5,204.9L124.5,204.9z"/>
			<path class="st10" d="M121,202.2c0,0-5.4,128-7.4,219.5c0,0-1.6,54.1-11.4,57.1c-11.4,3.5-40.2-0.7-41.3-6.2
				c-1.3-6.8,15.2-87.8,16.2-108.6c1-20.5-9-136.9-9-136.9s15.2-5.8,41.4-16.2c0.4-1.1,0.9-2.1,1.4-3.1
				C111.7,206.8,120.8,200.6,121,202.2L121,202.2z"/>
			<path class="st12" d="M66.9,254.1c2.9,34,7,93.6,6.4,107.1c-0.5,10.4-5,36.8-9,60.1c-3.6,20.7-6.7,39-7.1,46.1l1.9,0.2
				c0.4-6.8,3.8-26.7,7.1-46c4.2-24.5,8.6-49.8,9.1-60.3c0.7-13.6-3.6-73.6-6.4-107.6L66.9,254.1L66.9,254.1z"/>
			<path class="st12" d="M113.5,338.3c-0.3,0-0.6-0.1-0.8-0.4C97,309.2,96.1,258,96.1,257.5v-0.3l13.2-12.1L99,237.8l9.5-24
				c0.2-0.4,0.6-0.6,1-0.4c0,0,0,0,0,0c0.4,0.1,0.6,0.6,0.4,0.9c0,0,0,0,0,0.1l-9,22.9l11,7.7l-14,12.8c0.1,4.4,1.4,52.2,16.3,79.4
				c0.2,0.4,0.1,0.8-0.3,1c0,0,0,0,0,0C113.8,338.3,113.7,338.3,113.5,338.3L113.5,338.3z"/>
			<path class="st13" d="M148.1,431.2c-0.5,0-0.9-0.4-1-0.9c-4-70.2,1.4-200.7,1.5-201.5c0.1-0.5,0.5-0.9,1-0.9c0.5,0,0.9,0.4,0.9,1
				c0,0,0,0,0,0c-0.1,0.9-5.5,131.2-1.4,201.3C149.1,430.8,148.7,431.2,148.1,431.2L148.1,431.2z"/>
			<path class="st10" d="M188.3,204.4c0,0,2,129.4,3.9,221c0,0,1.7,54.6,10.9,56c11.8,1.8,49.2-1.3,50.4-6.8
				c1-4.8-20.3-75.8-21.2-96.2s14.3-143.2,14.3-143.2s-16.9-7.3-43.8-21.2c-0.4-1.1-0.9-2.1-1.4-3.1
				C200.6,209.9,188.5,202.9,188.3,204.4L188.3,204.4z"/>
			<path class="st12" d="M193.9,337.6c0.3,0,0.5-0.1,0.7-0.4c15.9-28.6,16.9-79.8,16.9-80.3v-0.3l-13-12.1l10.5-7.2l-9.3-24.1
				c-0.1-0.4-0.6-0.6-0.9-0.4s-0.6,0.6-0.4,0.9l8.9,23l-11.1,7.6l13.8,12.9c-0.1,4.4-1.7,52.2-16.7,79.3c-0.2,0.4-0.1,0.8,0.3,1
				c0,0,0,0,0,0C193.7,337.6,193.8,337.6,193.9,337.6L193.9,337.6z"/>
			<path class="st10" d="M257.6,433.3c0,0,64.4-54.7,80.1-90.4c12.9-29.3-93.1-108.5-93.1-108.5s-10.4,16.9-12.1,38.4
				c-1.9,23.7,2.5,35.5,2.5,35.5s42.4,28,47.3,31.4c0,0-18.5,22.5-51.6,63.7C230.8,403.3,239,424.7,257.6,433.3L257.6,433.3z"/>
			<path class="st12" d="M236.1,306.4h-0.2c-0.6-0.1-1-0.6-0.9-1.2l6-45c0.1-0.6,0.6-1,1.2-0.9s1,0.6,0.9,1.2l-6,45
				C236.9,306,236.5,306.4,236.1,306.4z"/>
			<path class="st14" d="M175.9,286.3c0,0,36.7-50.9,37.4-55.6s-7.2-8.6-12-12.1s-9.6-29.4-18.7-26.5s-33.1,34.6-35,37.6
				c-0.9,1.3-7.7,13.6-15.1,32.8L175.9,286.3z"/>
			<path class="st15" d="M194.3,232.4c-6.3-3.4-12.4-7.2-18.2-11.4c-5-3.4-9.7-6.2-14.3-9.6c-7.1,8.4-13.3,16.7-14.2,18.1
				s28.1,58.1,28.3,56.7c0,0,21.8-30.3,32.1-46.3C203.4,237.4,198.9,234.8,194.3,232.4z"/>
			<path class="st14" d="M124.5,188.1c0,0-7-0.4-7.6,9.6s-24.7,23.3-20.5,32.4s44,52.6,80.4,58c0,0,6.6,1.1,7.3-4.5
				s10.7-17.5,15.3-23.9s9.1-9.6,5.8-14.6c-3.2-4.9-49.1-28.2-76.2-54.8C127.8,189,126.2,188.2,124.5,188.1z"/>
			<path class="st16" d="M137.7,198.2c0,0-5.6,3.4-6.5,9.7s-22.6,19.1-26.6,33.1l2.1,2.4c0,0,5.3-12,19.2-22.6s5-9.7,14-20.6
				L137.7,198.2z"/>
			<path class="st16" d="M157.6,213.3c0,0-6,3.6-6.9,10.1s-24.2,20-28.4,34.6l2.2,2.5c0,0,5.7-12.6,20.6-23.6s5.4-10.2,15-21.5
				L157.6,213.3z"/>
			<path class="st16" d="M182.5,229.3c0,0-6.2,3.6-7.2,10.3s-26.2,21.3-30.6,36.2l3.3,1.5c0,0,6-12.7,21.5-24s5.6-10.3,15.7-21.8
				L182.5,229.3z"/>
			<path class="st16" d="M212.4,234.3c-2.5-3-5.8-5.2-9.6-6.3c-5.8-1.5-15.8-25-28.7-30.3l-2.6,2.8c0,0,10.9,6.4,19.6,21.1
				s8.8,6.9,18.2,16.8L212.4,234.3z"/>
			<path class="st17" d="M200.1,201.9c0,7.3-4.2,13.1-9.4,13.1s-9.4-5.9-9.4-13.1s4.2-13.1,9.4-13.1S200.1,194.7,200.1,201.9z"/>
			<path class="st18" d="M184.9,192.2c0,0-16.3,10.4-4.3,23c1.7,1.9,3.6,3.6,5.7,5.2c0,0-2.3-5.2,1.6-9.2s4.2-6.2,4.2-6.2
				S185.4,195,184.9,192.2L184.9,192.2z"/>
			<path class="st19" d="M190.4,226.9c0,0-14.2-8.6,4-23.8c1.8-1.4,3.4-2.9,5-4.5c0,0,5,9.4,2.2,14.2S190.4,226.9,190.4,226.9
				L190.4,226.9z"/>
			<path class="st17" d="M186.5,212c0,0-18.8,6-7.8,22.6c2.7,4.1,8.1,6,8.1,6s-3.4-4.4,0.5-8.4s3.7-7.3,3.7-7.3S182,222.3,186.5,212
				L186.5,212z"/>
			<path class="st18" d="M189.7,246.3c0,0-14.2-8.6,4-23.8c2-1.5,3.6-3.4,4.8-5.6c0,0,5.1,10.6,2.4,15.3S189.7,246.3,189.7,246.3
				L189.7,246.3z"/>
			<path class="st19" d="M185.6,232c0,0-18.8,6-7.8,22.6c2.7,4.1,5.7,5.2,5.7,5.2s-2.3-5.2,1.6-9.2s5-6.9,5-6.9
				S181.2,242.3,185.6,232L185.6,232z"/>
			<path class="st17" d="M186.5,266.3c0,0-14.2-8.6,4-23.8c1.8-1.4,3.4-2.9,5-4.5c0,0,5,9.4,2.2,14.2S186.5,266.3,186.5,266.3
				L186.5,266.3z"/>
			<path class="st17" d="M200.1,145.7c0,7.3-4.2,13.1-9.4,13.1s-9.4-5.9-9.4-13.1s4.2-13.2,9.4-13.2S200.1,138.4,200.1,145.7z"/>
			<path class="st20" d="M184.9,136c0,0-16.3,10.4-4.3,23c1.7,1.9,3.6,3.6,5.7,5.2c0,0-2.3-5.2,1.6-9.2s4.2-6.2,4.2-6.2
				S185.4,138.8,184.9,136L184.9,136z"/>
			<path class="st19" d="M190.4,170.7c0,0-14.2-8.6,4-23.8c1.8-1.4,3.4-2.9,5-4.5c0,0,5,9.4,2.2,14.1S190.4,170.7,190.4,170.7
				L190.4,170.7z"/>
			<path class="st17" d="M186.5,155.8c0,0-18.8,6-7.8,22.6c2.7,4.1,5.7,5.2,5.7,5.2s-2.3-5.2,1.6-9.2s4.2-6.2,4.2-6.2
				S182.1,166.1,186.5,155.8L186.5,155.8z"/>
			<path class="st18" d="M188,191.2c0,0-13.6-10.3,4.7-25.5c2-1.6,3.9-3.4,5.7-5.2c0,0,5.2,10.7,2.5,15.4s-11.2,14.1-11.2,14.1
				L188,191.2z"/>
			<path class="st19" d="M185.6,175.8c0,0-18.8,6-7.8,22.6c2.7,4.1,5.7,5.2,5.7,5.2s-2.3-5.2,1.6-9.2s4.2-6.2,4.2-6.2
				S181.2,186.1,185.6,175.8L185.6,175.8z"/>
			<path class="st17" d="M186.9,211.5c0,0-14.7-10,3.6-25.3c1.8-1.4,3.4-2.9,5-4.5c0,0,3.8,8.9,2.2,14.2
				c-1.9,6.3-10.1,14.5-10.1,14.5L186.9,211.5z"/>
			<path class="st18" d="M184.7,250.1c0,0-20.9,8.1-9.8,24.8c2.7,4.1,5.7,5.2,5.7,5.2s-2.3-5.2,1.6-9.2s4.2-6.2,4.2-6.2
				s-6.9-2.7-2.5-13L184.7,250.1z"/>
			<path class="st19" d="M184.7,286.5c0,0-14.2-8.6,4-23.8c1.7-1.4,3.4-2.9,5-4.5c0,0,5,9.4,2.2,14.1S184.7,286.5,184.7,286.5
				L184.7,286.5z"/>
			<path class="st17" d="M180.7,270c0,0-18.8,6-7.8,22.6c2.7,4.1,5.7,5.2,5.7,5.2c0.1-2.9,0.9-5.8,2.4-8.3c2.8-4.9,4.6-6.4,4.6-6.4
				S176.3,280.3,180.7,270L180.7,270z"/>
			<path class="st18" d="M184.7,304.1c0,0-14.2-8.6,4-23.8c1.8-1.4,3.4-2.9,5-4.5c0,0,5,9.4,2.2,14.1S184.7,304.1,184.7,304.1
				L184.7,304.1z"/>
			<path class="st19" d="M181.2,288.3c0,0-18.8,6-7.8,22.6c2.7,4.1,5.7,5.2,5.7,5.2c-0.4-3.2,0.1-6.4,1.6-9.2c2.8-4.9,4.7-6,4.7-6
				S176.8,298.6,181.2,288.3L181.2,288.3z"/>
			<path class="st17" d="M182.9,322.5c0,0-14.2-8.6,4-23.8c1.8-1.4,3.4-2.9,5-4.5c0,0,5,9.4,2.2,14.1S182.9,322.5,182.9,322.5
				L182.9,322.5z"/>
			<path class="st21" d="M155.5,188.4c9.9,0,16.8-6.5,20.7-11.9c0.1-9.1,0.2-17,0.2-17h-41.2c0,0,0.4,7.9,0.5,16.6
				C139,181.5,145.3,188.4,155.5,188.4z"/>
			<path class="st9" d="M199.9,115.3c-3.7,45.2-21.2,66.9-43.7,66.9s-40.2-17.9-43.7-66.9c-2.6-36.2,16.7-58.5,43.7-58.5
				S202.9,77.8,199.9,115.3z"/>
			<path class="st22" d="M135.2,125.5c0,2.2-1.2,3.9-2.7,3.9s-2.7-1.8-2.7-3.9s1.2-3.9,2.7-3.9S135.2,123.4,135.2,125.5z"/>
			<path class="st22" d="M181.2,125.5c0,2.2-1.2,3.9-2.7,3.9s-2.7-1.8-2.7-3.9s1.2-3.9,2.7-3.9S181.2,123.4,181.2,125.5z"/>
			<path class="st23" d="M123,115.1c-0.9-0.1-1.6-0.8-1.5-1.7c0-0.4,0.2-0.8,0.5-1.1c2.7-2.6,9.3-7.9,17.8-1.3
				c0.7,0.5,0.9,1.4,0.5,2.2c-0.5,0.8-1.3,0.8-2.2,0.5c-4.6-1.1-9.5-0.8-13.9,0.9C123.9,114.9,123.4,115.1,123,115.1L123,115.1z"/>
			<path class="st23" d="M189.1,115.5c0.9,0,1.6-0.8,1.6-1.7c0-0.4-0.2-0.8-0.4-1c-2.6-2.7-8.9-8.4-17.7-2.3c-0.7,0.4-1,1.4-0.6,2.2
				c0.4,0.8,1.3,0.8,2.2,0.7c4.7-1.1,9.5-0.5,13.8,1.7C188.2,115.3,188.6,115.5,189.1,115.5L189.1,115.5z"/>
			<path class="st21" d="M155.3,148.6c-2.2-0.1-4-0.7-4.9-2.4c-2.6-5.2,2.4-13.6,2.8-14.6c0.3-0.7,0.8-1.1,1.5-0.8s0.4,1.3,0.1,2
				c-1.5,3.4-2.5,9.6-1.1,12c0.4,0.6,1,1,1.7,1c0.8,0.1,1.3,0.8,1.3,1.5C156.8,148.8,155.4,148.7,155.3,148.6L155.3,148.6z"/>
			<path class="st23" d="M153.8,79.5c0,0-32.3,0.8-35.8,22.8c-1.2,8.6-1.7,17.3-1.5,25.9c-0.4,5.6-0.1,11.3,0.8,16.8
				c-5.5-3.3-9.4-8.7-10.7-15c-7.5-33.5-10.8-36.2,10.5-67c8.7-12.7,33.2-15.2,41.8-8.4c0,0,57.5-6.8,49.7,48.7
				c-4.6,32.7-13.2,37.8-13.2,37.8c-1.3-13.2-0.7-28.4-1.8-34.5c-1.3-7.6-8.9-23.8-39.8-27L153.8,79.5z"/>
			<path class="st13" d="M120.7,156.5c0,5.5-3.3,7.7-7.3,7.7s-7.3-2.1-7.3-7.7s3.3-12.3,7.3-12.3S120.7,151,120.7,156.5z"/>
			<path class="st11" d="M119.2,156c0,4.4-2.6,6.1-5.8,6.1s-5.8-1.7-5.8-6.1s2.6-9.8,5.8-9.8S119.2,151.6,119.2,156z"/>
			<path class="st24" d="M117.7,155.5c0,3.2-1.9,4.5-4.3,4.5s-4.3-1.2-4.3-4.5s1.9-7.2,4.3-7.2S117.7,152.3,117.7,155.5z"/>
			<ellipse class="st24" cx="113.4" cy="141.9" rx="0.5" ry="2.2"/>
			<path class="st9" d="M192,121.4c0,0,2.2-6.3,10.7-5.6c10.2,0.9,5.8,21.7-1.8,25.3c-7.2,3.5-9.6-7-9.6-7L192,121.4L192,121.4z"/>
			<path class="st9" d="M120.9,121.4c0,0-2.2-6.3-10.7-5.6c-8.2,0.7-5.4,21.8,1.8,25.3s9.6-7,9.6-7L120.9,121.4L120.9,121.4z"/>
			<path class="st23" d="M117,112.3c0,0-2.6,24.8-0.8,34.2s-7.1,22.6,2.6,32.9c0,0-12.3-3.1-12.3-10.4s4.3-15.2,4.1-22.1
				s1-28.8,2.5-34.1L117,112.3z"/>
			<path class="st13" d="M206.2,156.5c0,5.5-3.3,7.7-7.3,7.7s-7.3-2.1-7.3-7.7s3.3-12.3,7.3-12.3S206.2,151,206.2,156.5z"/>
			<path class="st11" d="M204.7,156c0,4.4-2.6,6.1-5.8,6.1s-5.8-1.7-5.8-6.1s2.6-9.8,5.8-9.8S204.7,151.6,204.7,156z"/>
			<path class="st24" d="M203.2,155.5c0,3.2-1.9,4.5-4.3,4.5s-4.3-1.2-4.3-4.5s1.9-7.2,4.3-7.2S203.2,152.3,203.2,155.5z"/>
			<ellipse class="st24" cx="198.9" cy="141.9" rx="0.5" ry="2.2"/>
		</g>
	</g>
</g>
<path class="st7" d="M166.2,158.8c0,4.1-5,7.4-11.2,7.4s-11.2-3.3-11.2-7.4"/>
</svg>
