<svg id="Layer_1" data-name="Layer 1" xmlns="http://www.w3.org/2000/svg" viewBox="0 0 1080 1000">
  <defs>
    <style>
      .cls-1 {
        fill: #ededf5;
      }

      .cls-2 {
        fill: #169bd8;
      }

      .cls-3 {
        fill: #343438;
      }

      .cls-4 {
        fill: #9c9ca8;
      }

      .cls-5 {
        fill: #efefef;
      }

      .cls-6 {
        fill: #4ec0de;
      }

      .cls-7 {
        fill: #4a4a60;
      }

      .cls-8 {
        fill: #8bcdcc;
      }

      .cls-9 {
        fill: #c9ced1;
      }

      .cls-10 {
        fill: #afb7bd;
      }

      .cls-11 {
        fill: #fff;
      }

      .cls-12 {
        fill: #eae4d8;
      }

      .cls-13 {
        fill: #dce0e2;
      }

      .cls-14 {
        fill: #b8c1c4;
      }

      .cls-15 {
        fill: #2d5378;
      }

      .cls-16 {
        fill: #fecb39;
      }

      .cls-17 {
        fill: #7ecbdb;
      }

      .cls-18 {
        fill: #3e6797;
      }
    </style>
  </defs>
  <g>
    <path class="cls-1" d="M363.34,737.11a11.28,11.28,0,0,0,11.23,12.8H480.76c6.93,0,13.14-5.87,13.88-12.8l.55-5.16A11,11,0,0,0,484,719.53H377.76A14.16,14.16,0,0,0,363.89,732l-.55,5.16Z"/>
    <path class="cls-2" d="M95.45,694.32a9.8,9.8,0,0,0,9.72,11.1h13c6,0,11.36-5.11,12-11.1l2.74-25.92a9.48,9.48,0,0,0-9.71-10.72h-13a12.24,12.24,0,0,0-12,10.72l-2.73,25.92Z"/>
    <path class="cls-3" d="M767.5,708.61c5.41-51.6,51.63-93.42,103.23-93.42s89,41.82,83.6,93.42S902.7,802,851.12,802s-89-41.82-83.62-93.42Z"/>
    <path class="cls-4" d="M812.89,708.61c2.79-26.52,26.54-48,53.07-48s45.77,21.51,43,48-26.55,48-53.07,48-45.78-21.5-43-48Z"/>
    <path class="cls-5" d="M818.75,708.61c2.45-23.29,23.31-42.17,46.59-42.17s40.2,18.88,37.74,42.17-23.3,42.17-46.59,42.17-40.18-18.88-37.74-42.17Z"/>
    <path class="cls-4" d="M845.86,708.61a17.14,17.14,0,0,1,16.64-15.06A13.32,13.32,0,0,1,876,708.61a17.14,17.14,0,0,1-16.64,15.06,13.31,13.31,0,0,1-13.48-15.06Z"/>
    <path class="cls-6" d="M863.43,543c54.27,0,98,31.26,115.82,76.75l-267.77,97C709.68,705.41,787.05,543,863.43,543Z"/>
    <path class="cls-2" d="M839.13,548.13c-8,17.23-35.16,74.71-65,124.77L976,612.21c1.16,2.46,2.26,5,3.27,7.52l-267.77,97c-1.62-10.11,60-140.9,127.65-168.6Z"/>
    <path class="cls-7" d="M706.41,715.6c.69,2.55,3.65,3.75,6.62,2.7l267.28-95.58c3-1.06,4.84-4,4.16-6.54s-3.65-3.77-6.62-2.7L710.57,709.05c-3,1.06-4.83,4-4.16,6.55Z"/>
    <path class="cls-8" d="M962,604.36s-35.16-64.75-119.93-53.17c0,0,69.86,9.87,90.07,61.91L962,604.36Z"/>
    <path class="cls-3" d="M147.88,708.61c5.42-51.6,51.63-93.42,103.23-93.42s89,41.82,83.61,93.42S283.09,802,231.5,802s-89-41.82-83.62-93.42Z"/>
    <path class="cls-4" d="M193.28,708.61c2.78-26.52,26.54-48,53.07-48s45.77,21.51,43,48-26.55,48-53.07,48-45.78-21.5-43-48Z"/>
    <path class="cls-9" d="M199.13,708.61c2.46-23.29,23.31-42.17,46.6-42.17s40.19,18.88,37.74,42.17-23.31,42.17-46.59,42.17-40.19-18.88-37.75-42.17Z"/>
    <path class="cls-10" d="M226.25,708.61a17.14,17.14,0,0,1,16.64-15.06,13.32,13.32,0,0,1,13.48,15.06,17.14,17.14,0,0,1-16.64,15.06,13.3,13.3,0,0,1-13.48-15.06Z"/>
    <path class="cls-6" d="M748.18,267.28s44.17,207.81,36.31,246.77S732.5,610.68,670,699.7l-3,28.64s177.56-141,201.1-239.76c13.15-55.21-106.89-221.3-106.89-221.3s-4.18-.08-13,0Z"/>
    <polygon class="cls-2" points="370.97 695.14 669.99 699.7 666.98 728.34 367.32 729.87 370.97 695.14 370.97 695.14"/>
    <path class="cls-6" d="M566,483s-65.69,67.7-69.16,100.79S533.94,696.6,533.94,696.6l20.32,33.78H305.87L321.34,483Z"/>
    <path class="cls-2" d="M321.35,482.57s173.38-34.34,136.5,101.7-47.34,146.11-47.34,146.11H119.76S77.84,530,321.35,482.57Z"/>
    <path class="cls-3" d="M353.29,451.57c.73-5,6.94-8.75,13.88-8.75H596c6.93,0,12,3.78,11.23,8.75l-3.4,23.36c-.72,5-6.94,9.12-13.87,9.12H361.12c-6.93,0-11.95-4.15-11.23-9.12l3.4-23.36Z"/>
    <polygon class="cls-11" points="220.94 741.23 262.37 741.23 261.68 723.87 220.25 723.87 220.94 741.23 220.94 741.23"/>
    <path class="cls-3" d="M181.54,628.85a4.32,4.32,0,0,0,4.3,4.95h60.95c3,0,6.11-2.53,6.37-4.95v0c.26-2.42-2.52-3.71-5.46-3.71h-61c-2.95,0-4.93,1.29-5.19,3.71l0,0Z"/>
    <path class="cls-3" d="M170.7,649.35a4.42,4.42,0,0,0,4.3,5.07h60.94c2.95,0,6.13-2.64,6.38-5.07h0c.24-2.42-2.54-3.6-5.5-3.6H175.91c-2.95,0-4.93,1.18-5.18,3.6Z"/>
    <path class="cls-3" d="M159.87,669.86c-.24,2.42,1.34,5.18,4.28,5.18H225.1c2.94,0,6.14-2.76,6.39-5.18l0,0c.25-2.42-2.57-3.48-5.51-3.48H165.06c-2.94,0-4.91,1.06-5.16,3.48l0,0Z"/>
    <path class="cls-2" d="M860.2,492.23c-32.47,88-120,163.52-122,165.7C699.32,699.11,667,728.34,667,728.34l2.38-22.6C769.68,577.59,793.94,511.4,793.94,511.4c34.45-6.51,66.26-19.17,66.26-19.17Z"/>
    <path class="cls-6" d="M846.2,198s-61.68,11-98.05,69.21c0,0,41.35,16.29,100.53,7,0,0,22-37.73-2.48-76.19Z"/>
    <path class="cls-2" d="M857.4,244.61a79.2,79.2,0,0,1-8.72,29.55c-59.18,9.31-100.53-7-100.53-7,53.38-6.16,90.37-16.56,109.25-22.57Z"/>
    <path class="cls-12" d="M846.2,198c24.48,38.46,2.48,76.19,2.48,76.19s6.9-47.24-2.48-76.19Z"/>
    <path class="cls-13" d="M828.34,203.17A119.67,119.67,0,0,1,846.2,198c9.38,28.95,2.48,76.19,2.48,76.19-6.78,1.07-13.3,1.79-19.57,2.24,7-41.83-.77-73.22-.77-73.23Z"/>
    <path class="cls-14" d="M851,246.94c-.55,15.42-2.27,27.22-2.27,27.22-6.78,1.07-13.3,1.79-19.57,2.24a214.39,214.39,0,0,0,2.65-24.4c3.46-.84,12.06-2.93,19.19-5.06Z"/>
    <path class="cls-8" d="M827.92,219.31s-.31-9.22-1.94-12.65c0,0-35.42,11.94-64.18,44.67,0,0,32.14-27.13,66.12-32Z"/>
    <path class="cls-8" d="M845.13,432.54s-31.88-82.1-67.65-134.19c0,0,32.33,76.59,53.3,140l14.35-5.8Z"/>
    <path class="cls-7" d="M409.76,729.29a6.16,6.16,0,0,1,6-5.42H662.08a4.8,4.8,0,0,1,4.86,5.42,6.19,6.19,0,0,1-6,5.43H414.61a4.79,4.79,0,0,1-4.85-5.43Z"/>
    <path class="cls-8" d="M443.43,592.1c.28,4.24,27.51-68.79-57.45-93.09s52,9.63,57.45,93.09Z"/>
    <path class="cls-15" d="M796.36,492.09c1.13,5.75,6.84,9,12.76,7.26l2.15-.62c5.91-1.73,9.8-7.79,8.67-13.53l-2.85-14.54c-1.13-5.74-6.84-9-12.76-7.26l-2.14.62c-5.93,1.74-9.81,7.79-8.68,13.53l2.85,14.54Z"/>
    <path class="cls-16" d="M798.52,489.86c.89,4.55,5.41,7.12,10.1,5.75l1.71-.5c4.67-1.37,7.76-6.16,6.87-10.7l-2.27-11.52c-.89-4.54-5.42-7.11-10.11-5.74l-1.69.49c-4.69,1.37-7.77,6.16-6.87,10.71l2.26,11.51Z"/>
    <path class="cls-17" d="M475,583c5.84-29,43.13-52,66-72.64C517.71,539,499,563.11,496.81,583.5c-3.47,33.08,37.13,112.72,37.13,112.72l.73,1.21C485.46,660.66,470.09,607.54,475,583Z"/>
    <polygon class="cls-4" points="250.84 755.34 382.78 755.34 383 705.42 251.06 705.42 250.84 755.34 250.84 755.34"/>
    <path class="cls-18" d="M734.46,265.3c.86-8.15,17.08-14.6,25.61-14.6,3.51,0,5.68,4,5.39,12.14-.32,9.18-3.3,14.19-11.83,14.19S733,278.87,734.46,265.3Z"/>
    <path class="cls-7" d="M726.72,266a14.49,14.49,0,0,1,14.08-12.75A11.28,11.28,0,0,1,752.22,266a14.52,14.52,0,0,1-14.1,12.75A11.25,11.25,0,0,1,726.72,266Z"/>
  </g>
</svg>
