<?xml version="1.0" encoding="utf-8"?>
<!-- Generator: Adobe Illustrator 25.2.1, SVG Export Plug-In . SVG Version: 6.00 Build 0)  -->
<svg version="1.1" id="Layer_1" xmlns="http://www.w3.org/2000/svg" xmlns:xlink="http://www.w3.org/1999/xlink" x="0px" y="0px"
	 viewBox="0 0 300 300" style="enable-background:new 0 0 300 300;" xml:space="preserve">
<style type="text/css">
	.st0{fill:none;}
	.st1{fill:#FFFFFF;}
	.st2{clip-path:url(#SVGID_2_);}
	.st3{fill:#CACAD3;}
	.st4{fill:#D7D7E0;}
	.st5{fill:#A86555;}
	.st6{fill:#8C4F45;}
	.st7{fill:#23242B;}
	.st8{fill:#30323D;}
</style>
<g id="Layer_1_1_">
	<circle class="st0" cx="153.2" cy="148.7" r="116.6"/>
	<circle class="st0" cx="154.3" cy="144.6" r="116.6"/>
	<circle class="st0" cx="153.2" cy="147.2" r="116.7"/>
	<path class="st1" d="M145.6,180.7c-0.6-2,2.7-4.6,7.3-5.9s8.7-0.7,9.2,1.3"/>
	<path class="st1" d="M144.1,174.4c-0.8-4,3.4-8.2,9.5-9.5s11.6,1,12.5,5"/>
	<path class="st1" d="M143.1,168.1c-1.1-3.9,2.9-8.4,8.9-10.1s11.7,0.2,12.8,4.2"/>
	<path class="st1" d="M146.1,181.6c0.7-4.1,6.2-6.5,12.4-5.4s10.6,5.2,9.9,9.2"/>
	<g>
		<defs>
			<ellipse id="SVGID_1_" cx="153.2" cy="144.3" rx="116.7" ry="116.9"/>
		</defs>
		<clipPath id="SVGID_2_">
			<use xlink:href="#SVGID_1_"  style="overflow:visible;"/>
		</clipPath>
		<g class="st2">
			<g id="Eric">
				<path class="st3" d="M286.2,441.1c-4.9,33.6,2.1,90.2,9.5,147.6c0,0-11.3-7.8-15.9-25.1s-54.7,32.5-97.7,45.2
					s-106.5,15.9-129.8-3.5c0-0.9-5.1-159.5-5-163.4l0,0l0,0c-0.9,0.8-52.2-9.6-52.2-9.6l33.1-131.5C33.5,280.2,47.7,263,67,254
					c20.2-9.4,44.8-20.9,54.5-25.1c17.6-7.7,91.7-24.3,91.7-24.3l60.2,23c24.8,9.5,43.5,30.5,49.9,56.3
					c13.9,55.3,36.6,146.6,35.9,146.6C358.2,430.5,286.2,441.1,286.2,441.1z"/>
				<path class="st4" d="M134,268.2c-5.9-3.7-16.8-12-16.8-12c-12.2,6.4-25.2,4.1-25.2,4.1s6.6-9.4,15.8-20.9s17.6-27.8,17.8-28.3
					L134,268.2z"/>
				<path class="st4" d="M215.5,212.4c-5.4,19-17.3,35.9-17.3,35.9c-9.5-4.4-15.9-6.1-27.1-4.3c0,0-24.9,20.6-37.1,24.2
					c0,0,63.8-75.4,68.8-78.7C202.8,189.6,221,193.4,215.5,212.4z"/>
				<path class="st5" d="M195.5,211.6c1.4-1.3,2.6-2.6,3.6-3.8c0.4-88.8-23.8-70.4-49.9-27.8c-28.1-34.8-25,35.5-25,35.5
					s-0.8,28.8,0.8,37.5s9,15.2,9,15.2l29-25.2C163,243.1,182.1,224.7,195.5,211.6z"/>
				<path class="st6" d="M161.6,219.7c-17.6,0-29.8-12.2-36.6-21.7c-0.1-16-0.4-30.6-0.4-30.6h73.1c0,0,1.2,6,1,21.3
					C197.6,199.4,187,219.7,161.6,219.7z"/>
				<path class="st5" d="M197.8,160.1v-31.4c0-22.8-18.5-41.3-41.3-41.3c-22.8-0.1-41.3,18.4-41.3,41.1c0,0.1,0,0.1,0,0.2v40.5
					c-0.1,6.4,1.3,12.7,4.1,18.4c0.1,0.3,0.3,0.6,0.5,0.8c0.1,0.3,0.3,0.7,0.5,1c0.8,1.4,1.7,2.7,2.7,4c0.5,0.6,0.9,1.1,1.3,1.6
					c1.1,1.4,2.1,2.5,2.9,3.4c16,16.1,42.1,16.3,58.3,0.2c0.1-0.1,0.2-0.2,0.2-0.2c1.4-1.4,2.6-2.8,3.8-4.3c0.8-1,1.5-2,2.2-3.1
					c0.5-0.8,1.1-1.7,1.6-2.6c0.9-1.8,1.7-3.6,2.4-5.5c1.5-4.4,2.2-9.1,2.2-13.8L197.8,160.1L197.8,160.1z"/>
				<path class="st5" d="M120.7,141.6c0,0-2.2-6.3-10.6-5.6c-8.2,0.7-5.4,21.7,1.8,25.2s9.6-7,9.6-7L120.7,141.6z"/>
				<path class="st5" d="M192.3,141.6c0,0,2.2-6.3,10.6-5.6c8.2,0.7,5.4,21.7-1.8,25.2s-9.6-7-9.6-7L192.3,141.6z"/>
				<path class="st7" d="M134.3,147.2c0,2.2-1.2,4-2.7,4s-2.7-1.8-2.7-4s1.2-4,2.7-4S134.3,144.9,134.3,147.2z"/>
				<path class="st7" d="M183,147.2c0,2.2-1.2,4-2.7,4s-2.7-1.8-2.7-4s1.2-4,2.7-4S183,144.9,183,147.2z"/>
				<path class="st8" d="M122.5,137.4c-0.4,0-0.8-0.1-1.1-0.4c-0.7-0.6-0.7-1.6-0.1-2.2c0,0,0,0,0,0c2.5-2.8,8.6-8.6,17.5-2.8
					c0.8,0.4,1.1,1.4,0.7,2.1c-0.4,0.8-1.4,1.1-2.1,0.7c-4.5-2.5-10.1-1.6-13.7,2C123.3,137.2,122.9,137.4,122.5,137.4z"/>
				<path class="st8" d="M191.5,137.4c0.4,0,0.8-0.1,1.1-0.4c0.7-0.6,0.7-1.6,0.1-2.2c0,0,0,0,0,0c-2.5-2.8-8.6-8.6-17.5-2.8
					c-0.8,0.4-1.1,1.4-0.7,2.1c0.4,0.8,1.4,1.1,2.1,0.7c4.5-2.5,10.1-1.6,13.7,2C190.6,137.2,191,137.4,191.5,137.4z"/>
				<path class="st6" d="M155.8,173.1c-2.2-0.1-4-0.7-4.9-2.3c-2.6-5.2,2.3-13.5,2.8-14.5c0.3-0.7,0.8-1.1,1.5-0.8s0.4,1.2,0.1,2
					c-1.5,3.4-2.5,9.6-1.1,11.9c0.4,0.6,1,1,1.7,0.9c0.8,0.1,1.3,0.8,1.3,1.5C157.3,173.2,155.9,173.1,155.8,173.1z"/>
				<path class="st6" d="M155.9,185.9c-4.4,0-8.7-1.3-12.3-3.7c-0.6-0.4-0.7-1.3-0.3-1.9s1.3-0.7,1.9-0.3l0,0
					c0.4,0.3,9.9,6.9,21.8-0.1c0.7-0.4,1.5-0.2,1.9,0.5c0.4,0.7,0.2,1.5-0.5,1.9l0,0C164.6,184.6,160.3,185.8,155.9,185.9z"/>
				<path class="st8" d="M111.5,136l2.3,6.1l2.7-10.9c0,0,10.1-3.2,12.4-7.7c2.3-4.6,4.5-9.9,10.7-11.5s5.7-17.7,16.7-18
					c0,0,8.9,1,11.6,13.3c1.8,8.1,7.4,13.1,14.6,12.9c4.3-0.1,4.5,10.9,13.5,11.8l3.1,10.1l3.2-6c0,0,6.5-0.6,9.9-4.2
					c6.7-7.1,10.6-8,10.6-8c0.1-12.6-10.6-8.2-8.1-17.5c0.9-3.2-3.7-8.9-8.7-11.1s-2.3-9.8-9.2-10.3s-3.6-15.7-16.4-10.1
					c-8,3.5-8.7-22.6-26.6-4.3c0,0-17.5-11.7-22.4-0.1c-6.8,15.9-15-0.3-19.3,17.2c-3,12.3-16.4,2.2-13.4,21.2
					c1,6.6-8.4,0-11.3,14.4c0,0,1.3,8.7,12.4,7.9C103.9,130.6,101.8,137.2,111.5,136z"/>
			</g>
		</g>
	</g>
</g>
</svg>
