<?xml version="1.0" encoding="utf-8"?>
<!-- Generator: Adobe Illustrator 25.2.1, SVG Export Plug-In . SVG Version: 6.00 Build 0)  -->
<svg version="1.1" id="Layer_1" xmlns="http://www.w3.org/2000/svg" xmlns:xlink="http://www.w3.org/1999/xlink" x="0px" y="0px"
	 viewBox="0 0 300 300" style="enable-background:new 0 0 300 300;" xml:space="preserve">
<style type="text/css">
	.st0{clip-path:url(#SVGID_2_);}
	.st1{fill:#F9D4B8;}
	.st2{fill:#CBCFD8;}
	.st3{fill:#F2F2F2;}
	.st4{fill:#3D74A5;}
	.st5{fill:#75A0BE;}
	.st6{fill:none;}
	.st7{fill:#FFFFFF;}
	.st8{clip-path:url(#SVGID_4_);}
	.st9{fill:#8E4D36;}
	.st10{fill:#562C23;}
	.st11{fill:#C17F6B;}
	.st12{fill:#D6C9C9;}
	.st13{fill:#343438;}
	.st14{fill:#23242B;}
	.st15{fill:#453878;}
	.st16{fill:#6154C7;}
	.st17{clip-path:url(#SVGID_6_);}
	.st18{fill:#5B1F17;}
</style>
<g>
	<defs>
		<ellipse id="SVGID_1_" cx="153.2" cy="-667.3" rx="116.7" ry="116.9"/>
	</defs>
	<clipPath id="SVGID_2_">
		<use xlink:href="#SVGID_1_"  style="overflow:visible;"/>
	</clipPath>
	<g class="st0">
		<g id="Bryan">
			<polygon class="st1" points="221.4,106.7 225.8,135.2 253.1,134 250.2,102.7 			"/>
			<path class="st2" d="M264.3,152c-3.7-7.8-12.7-23.2-12.7-23.2c-13.8-8.2-22.4-2.4-26.2,1.3l-0.2,0.3c0,0,0,0.3-0.7-3.4
				c0,0-0.7,8.7,1.1,13.2l0,0c0.9,3,4.5,7.2,5.1,18.3c1,16.8,13.5,20.9,26.4,17.9S268,159.8,264.3,152z"/>
			<path class="st3" d="M233,136.4c-0.3,0-0.6-0.1-0.9-0.2c-0.5-0.3-0.7-0.9-0.4-1.4c0-0.1,0.1-0.1,0.2-0.2c0.2-0.2,6-5.8,17.3-2.7
				c0.7,0.2,1.1,0.8,0.9,1.4c-0.4,0.6-1.1,0.9-1.8,0.7c-9.4-2.6-14.1,1.9-14.1,2C233.8,136.3,233.4,136.4,233,136.4z"/>
			<path class="st3" d="M235.1,142c-0.3,0-0.6-0.1-0.9-0.2c-0.5-0.3-0.7-0.9-0.4-1.4c0-0.1,0.1-0.1,0.2-0.2c0.2-0.2,6-5.8,17.3-2.7
				c0.6,0.1,1,0.6,0.9,1.2c0,0.1,0,0.1,0,0.2c-0.4,0.6-1.1,0.9-1.8,0.7c-9.4-2.6-14.1,1.9-14.1,2C236,141.9,235.6,142,235.1,142z"/>
			<path class="st3" d="M237.3,147.6c-0.3,0-0.6-0.1-0.9-0.2c-0.5-0.3-0.7-0.9-0.4-1.4c0-0.1,0.1-0.1,0.2-0.2
				c0.2-0.2,6-5.8,17.3-2.7c0.8,0.2,1.1,0.8,0.9,1.4c-0.4,0.6-1.1,0.9-1.8,0.7c-9.4-2.6-14.1,1.9-14.1,2
				C238.1,147.5,237.7,147.6,237.3,147.6z"/>
			<polygon class="st1" points="82.7,110.3 83,142.2 111.8,142.2 112.4,110.3 			"/>
			<path class="st2" d="M114.4,132.1c0,0,3.8,18.3,0.7,21s-23.3,6-33.5,11.2s-40.9,11-42.3,2.1s11.2-14.3,19.7-17.7
				s17.1-15.2,21.7-16.7c0,0,2.4-2,11.7,4.3C97,139.6,109.2,129.5,114.4,132.1z"/>
			<path class="st3" d="M83.1,142.2c-0.4,0-0.9-0.2-1.1-0.6c-1.8-2.4-4.5-4-7.5-4.4c-0.8,0-1.4-0.7-1.4-1.5c0-0.8,0.7-1.4,1.5-1.4
				c3.8,0.4,7.3,2.4,9.6,5.5c0.5,0.6,0.4,1.5-0.3,2C83.7,142.1,83.4,142.2,83.1,142.2z"/>
			<path class="st3" d="M78.1,147.2c-0.4,0-0.9-0.2-1.1-0.6c-1.8-2.4-4.5-4-7.5-4.4c-0.8-0.1-1.3-0.8-1.3-1.6
				c0.1-0.7,0.7-1.2,1.4-1.3c3.8,0.4,7.3,2.4,9.6,5.5c0.5,0.6,0.4,1.5-0.2,2C78.7,147.1,78.4,147.2,78.1,147.2z"/>
			<path class="st3" d="M73.8,151.4c-0.4,0-0.9-0.2-1.1-0.6c-1.8-2.4-4.5-4-7.5-4.4c-0.8,0-1.4-0.7-1.4-1.5s0.7-1.4,1.5-1.4l0,0
				c3.9,0.4,7.4,2.4,9.7,5.5c0.5,0.6,0.4,1.5-0.3,2c0,0,0,0,0,0C74.5,151.4,74.2,151.5,73.8,151.4z"/>
			<path class="st4" d="M213,116c-2.6-29.8-50-330.3-53-367.5c0,0-33.5,310.8-41.3,367.5l-39.2-0.9C74.9,8.7,63.3-337.5,89.1-368.7
				l145,0.9c0,0,20.3,368.5,20.7,483.8H213z"/>
			<polygon class="st5" points="76.9,96.4 123.1,96.4 120.5,116 76.9,116 			"/>
			<polygon class="st5" points="256.6,96.4 208.6,96.4 211.3,116 256.6,116 			"/>
		</g>
	</g>
</g>
<circle class="st6" cx="154.3" cy="144.6" r="116.6"/>
<circle class="st6" cx="153.2" cy="147.2" r="116.7"/>
<path class="st7" d="M145.6,180.7c-0.6-2,2.7-4.6,7.3-5.9s8.7-0.7,9.2,1.3"/>
<path class="st7" d="M144.1,174.4c-0.8-4,3.4-8.2,9.5-9.5s11.6,1,12.5,5"/>
<path class="st7" d="M143.1,168.1c-1.1-3.9,2.9-8.4,8.9-10.1s11.7,0.2,12.8,4.2"/>
<path class="st7" d="M146.1,181.6c0.7-4.1,6.2-6.5,12.4-5.4s10.6,5.2,9.9,9.2"/>
<ellipse class="st6" cx="153.2" cy="144.3" rx="116.7" ry="116.9"/>
<path class="st7" d="M143.2,187.4c1.4-3.8,7.2-5.3,13-3.2s9.4,6.9,8.1,10.7"/>
<path class="st7" d="M145.5,162.5c-1.3-3.9,2.5-8.6,8.4-10.5s11.7-0.3,12.9,3.5"/>
<g>
	<defs>
		<circle id="SVGID_3_" cx="153.2" cy="144.7" r="116.6"/>
	</defs>
	<clipPath id="SVGID_4_">
		<use xlink:href="#SVGID_3_"  style="overflow:visible;"/>
	</clipPath>
	<g class="st8">
		<g id="Sarah">
			<path class="st9" d="M170.3,161.6c0,0-13.1,60.4-12.8,65.9s-0.5,19.1,14.9,37.7c0,0-16.9,9.9-40.1,0.3
				c-18.8-7.7-28.1-20.8-31.8-29.5c0,0,12.3-18.1,14.8-26.9c3-10.6,9.7-56.3,9.7-56.3L170.3,161.6z"/>
			<path class="st10" d="M135.2,154.6l35.1,7c0,0-7.8,34.6-10.3,49.6C148.5,209,127.8,197.2,135.2,154.6"/>
			<path class="st9" d="M104.9,126.9c0.6,32.7,24,56.3,37.1,64.7c10.3,6.6,11.4,6.6,19.4,6.6c21,0,36.5-21.1,36.2-67.2
				c-0.4-55.5-20.3-60-47.3-60C115.3,71,104.3,89.2,104.9,126.9"/>
			<path class="st11" d="M153.2,159.9c4.8-0.6,14.6,1.1,17.6,4.4c0,0,0,0.9,0.1,0.9c5.7,0.1,9.8-2,13.8,4.7
				c4.8,7.8-2.1,16.3-9.5,18.4c-4.9,2.5-9.9,2.5-14.6-0.6c-2.2-0.4-4.2-1.2-6-2.5c-6.1-4.3-9.4-10.2-9.3-17.6
				C145.5,163.7,149.7,160.3,153.2,159.9"/>
			<path class="st11" d="M196.4,139.4c-0.8-1.5-1.2-3.1-1.1-4.8c-0.1-2.2,0.2-4.8-1.2-6.8s-4.1-2.9-6.9-3c-5.6-0.2-9.2,3.4-11.5,6.8
				c-0.6,0.5-1.1,1.2-1.2,2c0,1.1,0.2,2.2,0.7,3.3c0.5,1.8,1.2,3.5,2,5.1c0.9,1.7,2,4,4.1,5c2.3,1.1,5.6,0.1,8.1-0.2
				c2.2-0.3,4.6-0.6,6.3-1.8C197.9,143.5,197.6,141.4,196.4,139.4"/>
			<path class="st11" d="M139.4,139.4c0.8-1.5,1.2-3.1,1.1-4.8c0.1-2.2-0.2-4.8,1.2-6.8s4.1-2.9,6.9-3c5.6-0.2,9.2,3.4,11.5,6.8
				c0.6,0.5,1.1,1.2,1.2,2c0,1.1-0.2,2.2-0.7,3.3c-0.5,1.8-1.2,3.5-2,5.1c-0.9,1.7-2,4-4.1,5c-2.3,1.1-5.6,0.1-8.1-0.2
				c-2.2-0.3-4.6-0.6-6.3-1.8C137.9,143.5,138.2,141.4,139.4,139.4"/>
			<path class="st12" d="M179.3,223.2c0.1,0.3,0.2,0.6,0.2,1c-2.2,0.3-4.3,0.8-6.5,1.4c-0.1-0.3-0.2-0.6-0.3-0.9
				C174.9,224,177.1,223.6,179.3,223.2"/>
			<path class="st13" d="M166.4,60.8c-4.4-4.9-11.2-5.7-17.3-4.6c-3.2,0.7-6.3,1.6-9.4,2.6c-3.4,0.9-6.9,1.3-10.5,1.2
				c-3.5-0.1-6.9,1-9.7,3.2c-2.1,1.7-3.5,4.1-5.1,6.2c-1.2,1.6-2.2,2.7-4.3,3.1c-3.3,0.6-6.2,1.6-7.9,4.8c-1.3,2.4-1.2,5.2-2.2,7.6
				c-1.3,3.2-4,4.2-6.5,6.3c-2.7,2.2-3.2,5.3-3.1,8.6c0.1,3.1,1.3,6.6-0.1,9.5c-1.3,2.5-3,4.8-3.7,7.6c-0.9,3.8,0.3,7.7,2.4,10.9
				c1.7,2.5,3.9,4.7,5.4,7.3c1.7,2.8,1,6.1,1.7,9.2c0.7,3.2,2.4,6,4.9,8.1c1.4,1.3,3.8,2.8,4.2,4.7c0.1,0.9,0.1,1.8,0,2.7
				c0.1,1.2,0.4,2.3,1,3.4c0.8,1.4,1.9,2.5,3.2,3.4c1.3,0.8,2.7,1.5,4.2,2.1c0.5,0.2,0.9,0.6,1.4,0.8c0.2,0.2,0.4,0.3,0.5,0.5v0.2
				c-0.3,5.6,5.8,9.7,6.1,4.2c0.2-3,1.2-9.6-1-11.4c-1-0.8-2.1-1.5-3.2-2c-1.1-0.4-2.2-0.9-3.2-1.6c-0.8-0.7-0.3-0.9-0.3-2.2
				c0-1.4-0.4-2.7-0.9-3.9c-1.2-2.3-2.9-4.4-4.9-6c-1.4-1.3-3-2.5-3.4-4.4c-0.8-3-0.2-6.2-1.3-9.2c-1.2-2.8-2.9-5.4-5-7.7
				c-1.5-1.8-3.6-4.2-3.3-6.7c0.3-2.3,2.4-4.4,3.3-6.5c1.6-3.5,1.3-6.5,1-10.2c-0.1-1-0.6-3.4-0.2-4.4c0.2-0.6,0.7-0.7,1.5-1.2
				c2.6-1.6,4.8-3.9,6.3-6.6c1.2-2.4,2-5,2.5-7.7c0.3-1.2,0-1.1,0.8-1.4c1.3-0.5,2.8-0.4,4.1-0.9c5.1-1.9,6.7-6.7,10.3-10.2
				c2.2-2.1,5.3-1.4,8-1.5c3.7-0.2,7.5-0.9,11-2.1c5-1.6,12.3-4.4,16.5,0.3C164,71,170.1,64.9,166.4,60.8"/>
			<path class="st13" d="M138.9,129.4c-0.4-0.1-0.8-0.3-1-0.6c-0.5-0.6-0.3-1.5,0.3-2c0,0,0.1,0,0.1-0.1c3-2.3,12.4-4.8,17.9,0.4
				c0.7,0.6,0.8,1.5,0.3,2.2c-0.5,0.7-1.4,0.6-2.3,0.3c-5.8-2-13.9-0.4-13.9-0.4C139.8,129.4,139.3,129.4,138.9,129.4"/>
			<path class="st14" d="M146.9,140.4c0,2.5,1.3,4.5,2.8,4.5s2.8-2,2.8-4.5s-1.3-4.5-2.8-4.5S146.9,137.8,146.9,140.4"/>
			<path class="st14" d="M185.9,140.4c0,2.5,1.3,4.5,2.8,4.5s2.8-2,2.8-4.5s-1.3-4.5-2.8-4.5S185.9,137.8,185.9,140.4"/>
			<path class="st11" d="M133,203.3c-0.2-0.3-0.4-0.5-0.6-0.8c-0.1-0.1-0.2-0.2-0.2-0.3c-0.1-0.1-0.1-0.1-0.2-0.2
				c0.2-0.4,0.4-0.7,0.5-1.1c0.3-0.9,0.4-1.9,0.1-2.8c-0.3-1-0.7-1.9-1.3-2.8c-0.5-0.9-1.2-1.6-2-2.2c-0.8-0.5-1.7-0.8-2.7-1
				l-3.1-0.9c-0.9-0.2-1.9,0.2-2.4,1c-0.8,0.3-1.3,1-1.3,1.9c0,0.7-0.1,1.4-0.4,2c-0.3,0.8-0.6,1.6-0.9,2.4
				c-0.6,1.4-0.9,2.9-0.8,4.4c0,1.7,0.8,3.3,2,4.4c1.3,1,2.9,1.6,4.5,1.8c1.6,0.3,3.2,0.3,4.8,0.1c1.6-0.2,3.1-1.1,4.1-2.4
				c0.5-1,0.4-2.2-0.3-3.1"/>
			<path class="st11" d="M138.6,204.4c0-0.3,0-0.6-0.1-0.9c0-0.1-0.1-0.2-0.1-0.3s0-0.3,0-0.4c0-0.2,0-0.4,0-0.6
				c0-0.2-0.1-0.4-0.1-0.5c-0.2-0.5-0.4-0.9-0.8-1.2c-0.5-0.5-1.1-0.7-1.8-0.7c-0.3,0-0.5,0-0.8,0.2c-0.3,0.1-0.5,0.2-0.7,0.4
				c-0.8,0.8-0.8,2-0.1,2.8c0,0,0,0,0.1,0.1l0.1,0.1v0.2c0,0.3,0.1,0.6,0.2,0.9v0.1c0,0.1,0,0.1,0,0.2c-0.1,0.5-0.1,1.1,0,1.6
				c0.2,0.5,0.5,0.9,0.9,1.2c0.5,0.3,1,0.3,1.6,0.2c0.5-0.1,1-0.5,1.2-0.9c0.2-0.4,0.3-0.9,0.2-1.3
				C138.6,205.1,138.6,204.8,138.6,204.4"/>
			<path class="st11" d="M157.3,216.4c-0.1-0.2-0.2-0.3-0.3-0.4l0,0l0,0c0-0.2,0-0.4,0-0.6c0-0.3-0.1-0.5-0.2-0.8
				c-0.1-0.2-0.3-0.4-0.5-0.6c-0.2-0.2-0.4-0.3-0.7-0.4c-0.5-0.1-1.1-0.1-1.6,0.2c-0.3,0.2-0.6,0.5-0.8,0.9
				c-0.2,0.1-0.3,0.3-0.4,0.5l-0.2,0.5c-0.1,0.4-0.1,0.7,0,1.1c0.2,0.5,0.4,1,0.6,1.5c0.1,0.2,0.1,0.3,0.2,0.5
				c0.1,0.2,0.3,0.4,0.4,0.6l0.1,0.1c0.1,0.1,0.3,0.2,0.5,0.4c0.7,0.4,1.6,0.4,2.3,0c0.2-0.1,0.3-0.2,0.4-0.4l0.2-0.2l0.2-0.2
				c0.1-0.2,0.2-0.4,0.2-0.6c0,0,0-0.1,0-0.1c0.1-0.6,0.1-1.3-0.3-1.9"/>
			<polygon class="st11" points="145.1,168.7 145.1,168.7 145.1,168.7 			"/>
			<path class="st15" d="M171,222.2c0,0-26.4,16.9-60.3-1c0,0-40.7,23.8-59,41.2c0,0,29.4,77.9,38.2,137.4c0.6,3.8-6.5,6-4.3,13.3
				c0.8,2.6,6.4,5.6,6.4,5.6s61,18.8,112.4,0.3c0,0,6.1-1.2,7.1-7.3c0.4-2.5-4.6-7.7-4.1-10.9c6.4-39.6,20.9-130.6,20.3-138.3
				C227.7,262.3,205.3,235,171,222.2"/>
			<polygon class="st16" points="166.7,205 145.2,228 114.8,206.1 105.9,221.8 129.8,253.1 144.8,230.9 162,253.1 178.4,222.2 			
				"/>
			<path class="st15" d="M51.6,262.3c11.3,0,31.7,40.9,31.7,40.9l6.8,47.6c5.2,1.8,3.3,7.5,3.3,7.5c4.7,0.3,5.2,7.2,5.1,10.2
				c5,0,10.5,0.1,16.4,0.4l-2.6,36.9c-7.3,0.4-10.3,2.2-16.3,2.2c-3,0-7.2,6.6-9.6,6.5c-3.3-0.2-8.7-4.9-10.1-3.1
				c-4.4,5.4-10.6,2.1-11,2c-9.6-1.6-10-13.9-12.9-16.1c-3.8-2.9-2.9-9.2-3-17.8c-0.2-33.9-9-86.5-9-86.5
				C40.5,271.2,51.6,262.3,51.6,262.3"/>
			<path class="st16" d="M97.7,363h0.2c0.5-0.1,0.9-0.6,0.8-1.2c0,0,0,0,0,0c0-0.2-0.9-3.7-3.9-4.9c0.2-2.2-0.4-5.5-3.7-6.8
				c-0.4-6-3.6-46.6-9.4-59.2c-0.2-0.5-0.9-0.7-1.4-0.5c-0.5,0.2-0.7,0.9-0.5,1.4c6,13,9.2,58.7,9.3,59.2v0.7l0.7,0.2
				c3.7,1.1,2.8,5.4,2.8,5.6l-0.2,1l1,0.2c2.5,0.5,3.2,3.6,3.2,3.6C96.7,362.7,97.2,363,97.7,363"/>
			<g>
				<defs>
					<path id="SVGID_5_" d="M197.6,131.1c0.3,46-15.2,67.2-36.2,67.2c-8,0-9.1,0-19.4-6.6c-13.1-8.4-36.6-32-37.1-64.7
						C104.3,89.2,115.3,71,150.3,71C177.3,71,197.2,75.5,197.6,131.1"/>
				</defs>
				<clipPath id="SVGID_6_">
					<use xlink:href="#SVGID_5_"  style="overflow:visible;"/>
				</clipPath>
				<g class="st17">
					<path class="st11" d="M183.3,193.5c0.2-0.3,0.5-0.5,0.8-0.7c0.3-0.3,0.7-0.5,1-0.8c0.6-0.4,1.3-0.8,2-1.2
						c0.4-0.3,0.9-0.4,1.4-0.5c0.2-0.2,0.4-0.3,0.6-0.4c0.3-0.1,0.7,0,0.9,0.4l0.1,0.2c0,0.1,0,0.2,0,0.2c0.1,0,0.2,0.1,0.2,0.2
						c0.2,0.3,0.2,0.7-0.1,1c0,0,0,0-0.1,0c0,0-0.1,0.1-0.1,0.2c0,0.2-0.1,0.4-0.2,0.5l-0.1,0.1c-0.1,0.3-0.3,0.6-0.6,0.9
						c-0.7,0.5-1.4,0.9-2.3,1.1c-0.8,0.3-1.7,0.5-2.5,0.7c-0.5,0.2-1,0-1.3-0.5C182.9,194.4,182.9,193.9,183.3,193.5"/>
				</g>
			</g>
			<path class="st13" d="M196.8,130.5c0.3,0,0.7-0.2,0.9-0.4c0.5-0.6,0.4-1.5-0.2-2.1c-2.2-2.7-8.4-5.6-14.5-2.1
				c-0.7,0.5-0.9,1.4-0.5,2.2c0.4,0.8,1,0.7,1.8,0.6c3.8-0.6,7.8,0,11.3,1.5C196,130.5,196.4,130.6,196.8,130.5"/>
			<path class="st10" d="M172,164.3c2.3-0.1,4.1-0.7,4.9-2.4c2.6-5.2-2.4-13.6-2.8-14.6c-0.3-0.7-0.8-1.1-1.5-0.8s-0.4,1.3-0.1,2
				c1.5,3.4,2.5,9.6,1.1,12c-0.4,0.6-1,1-1.7,1c-0.8,0.1-1.3,0.8-1.3,1.5C170.5,163.8,171.2,164.4,172,164.3
				C172,164.3,172,164.3,172,164.3"/>
			<path class="st18" d="M165.3,175.8c3.3,0.1,6.5-0.8,9.3-2.6c0.5-0.3,0.6-1,0.3-1.4c-0.3-0.5-1-0.6-1.4-0.3
				c-0.3,0.2-7.6,5-16.4-0.4c-0.5-0.3-1.1-0.2-1.4,0.3c0,0,0,0,0,0.1c-0.3,0.5-0.2,1.1,0.3,1.4c0,0,0,0,0.1,0
				C158.8,174.7,162,175.7,165.3,175.8"/>
			<path class="st13" d="M202.7,90.6c-1.3-1.8-3.2-2.8-4.9-4.1c-0.9-1.7-2-3.3-3.1-4.9l-0.9-1.2c-0.2-0.5-0.4-1.1-0.6-1.6
				c-2.2-5.8-5.2-10.6-10.6-13.9c-2.5-1.5-5.2-2.6-8.1-3.2c-3.4-0.7-6.9-0.7-10.2-1.9c-0.8-0.3-1.7-0.4-2.5-0.1
				c-9.8-2.3-19.4-1.6-26.2,2.6c0,0-28.3,4.7-37,27.1c0,0-3.5,3.5-3.8,7s-2.5,16.1-1.5,20.8s2.3,21.8,28.5,58.9
				c0,0,1.8-5.6-0.7-20.9s-2-12.4-2-12.4l1.2-7.1c0,0,7.6-9.5,8-16s16.8-17.3,25.4-32.4c0,0,23.8-1.1,43.5,33.5
				c1.9-1.8,2.8-4.4,2.5-7c1.8-0.9,2.8-2.9,2.3-4.8c-0.7-3.3,0.7-5.9,1.6-9C204.5,96.8,204.5,93.4,202.7,90.6"/>
			<path class="st9" d="M122,138.2c0,0,0.4-5.6-8.2-5.2c-10.9,0.4-6.4,20.2,0.8,23.7s8.8-5,8.8-5L122,138.2z"/>
			<path class="st11" d="M109,138.5c0.1-0.3,0.1-0.7,0.2-1c0.1-0.6,0.3-1.2,0.6-1.7c0.3-0.4,0.7-0.8,1.3-0.9
				c0.2-0.1,0.3-0.1,0.5-0.1c0.5,0,0.9,0.3,1.1,0.7c0.2,0.5,0.2,1,0,1.5c-0.2,0.4-0.5,0.7-0.8,1c0,0.1-0.1,0.1-0.1,0.2l-0.1,0.1l0,0
				l0,0c0,0.1-0.1,0.2-0.1,0.3c0,0,0,0.1,0,0.1c0,0,0,0.1,0,0.1c0,0.4,0,0.9,0.1,1.3c0,0.4-0.3,0.7-0.7,0.7l0,0
				c-0.1,0-0.2,0-0.3-0.1c-0.2,0.3-0.5,0.4-0.8,0.3c-0.7-0.2-1.1-0.8-1.1-1.5C108.9,139.1,109,138.8,109,138.5"/>
			<path class="st11" d="M109.1,143.2c0-0.1,0.1-0.2,0.2-0.2c0.1-0.1,0.1-0.1,0.2-0.1c0.1,0,0.2-0.1,0.3-0.1h0.2
				c0.1,0,0.2,0.1,0.3,0.2l0.1,0.1c0.1,0.1,0.1,0.2,0.1,0.4v0.2c0,0.1,0,0.2-0.1,0.3c0,0.1-0.1,0.2-0.2,0.2
				c-0.1,0.1-0.1,0.1-0.2,0.1c-0.1,0-0.2,0.1-0.3,0.1h-0.2c-0.1,0-0.2-0.1-0.3-0.2l-0.1-0.1c-0.1-0.1-0.1-0.2-0.1-0.4v-0.2
				C109,143.4,109,143.3,109.1,143.2"/>
		</g>
	</g>
</g>
</svg>
