<svg xmlns="http://www.w3.org/2000/svg" viewBox="0 0 400 400">
  <defs>
    <style>
      .cls-1 {
        fill: #9987ff;
      }

      .cls-2 {
        fill: #453878;
      }

      .cls-3 {
        fill: #ffb762;
      }

      .cls-4 {
        fill: #ff8f00;
      }

      .cls-5 {
        fill: #d3effb;
      }

      .cls-6 {
        fill: #9dc6fb;
      }

      .cls-7 {
        fill: #6154c7;
      }
    </style>
  </defs>
  <g id="Clock">
    <g>
      <ellipse class="cls-1" cx="115.37" cy="305.09" rx="33.91" ry="14.71" transform="translate(-210.44 320.53) rotate(-72)"/>
      <path class="cls-2" d="M112.32,300.6c-5,15.34-4.51,29.68.65,35-2.83,1.91-5.62,2.62-8.08,1.81-7.73-2.51-9.3-19-3.51-36.79s16.72-30.21,24.48-27.71a6.93,6.93,0,0,1,2.87,1.83C122.63,278.8,116.27,288.41,112.32,300.6Z"/>
      <ellipse class="cls-1" cx="257.07" cy="305.19" rx="14.71" ry="33.91" transform="translate(-81.73 94.37) rotate(-18)"/>
      <path class="cls-2" d="M271.36,334.5a7.54,7.54,0,0,1-3.76,2.89c-7.73,2.53-18.69-9.88-24.48-27.7s-4.23-34.29,3.51-36.8a8.38,8.38,0,0,1,6.59.94c-4.31,6-4.44,19.5.24,33.89C257.74,320.84,264.83,331.06,271.36,334.5Z"/>
      <circle class="cls-2" cx="307.13" cy="75.48" r="11.41"/>
      <circle class="cls-2" cx="65.37" cy="75.48" r="11.41"/>
      <circle class="cls-1" cx="273.36" cy="109.26" r="45.19"/>
      <path class="cls-2" d="M312.34,86.39a45.2,45.2,0,0,0-61.85,61.85,45.19,45.19,0,1,1,61.85-61.85Z"/>
      <circle class="cls-1" cx="99.15" cy="109.26" r="45.19"/>
      <path class="cls-2" d="M109.18,153.33a45.93,45.93,0,0,1-10.05,1.12,45.19,45.19,0,1,1,10.05-89.26,45.2,45.2,0,0,0,0,88.14Z"/>
      <circle class="cls-3" cx="186.24" cy="196.36" r="123.18"/>
      <path class="cls-4" d="M194.16,319.3c-2.62.16-5.26.26-7.92.26a123.2,123.2,0,0,1,0-246.38q4,0,7.92.25a123.19,123.19,0,0,0,0,245.87Z"/>
      <circle class="cls-5" cx="186.24" cy="196.36" r="94.15"/>
      <path class="cls-6" d="M202.7,289.15a94.16,94.16,0,1,1,0-185.57,94.16,94.16,0,0,0,0,185.57Z"/>
      <path class="cls-7" d="M186.24,208.36H142.51a12,12,0,1,1,0-24h43.73a12,12,0,1,1,0,24Z"/>
      <path class="cls-2" d="M186.24,208.36a12,12,0,0,1-12-12V165.74a12,12,0,0,1,24,0v30.62A12,12,0,0,1,186.24,208.36Z"/>
      <path class="cls-2" d="M186.24,127.87a4.13,4.13,0,0,1-4.13-4.13h0V104.62a4.14,4.14,0,0,1,8.27,0v19.1a4.14,4.14,0,0,1-4.12,4.15Z"/>
      <path class="cls-2" d="M186.24,292.22a4.13,4.13,0,0,1-4.13-4.14h0V269a4.14,4.14,0,0,1,8.27,0v19.08a4.14,4.14,0,0,1-4.14,4.14Z"/>
      <path class="cls-2" d="M278,200.49H258.88a4.13,4.13,0,1,1-.44-8.25,3.23,3.23,0,0,1,.44,0H278a4.13,4.13,0,1,1,.44,8.25Z"/>
      <path class="cls-2" d="M113.62,200.49H94.52a4.13,4.13,0,1,1-.44-8.25,3.23,3.23,0,0,1,.44,0h19.1a4.13,4.13,0,0,1,0,8.25Z"/>
      <path class="cls-2" d="M255.93,160.26a4.12,4.12,0,0,1-2.07-7.7l9.75-5.63a4.16,4.16,0,0,1,4.14,7.21L258,159.77A4.1,4.1,0,0,1,255.93,160.26Z"/>
      <path class="cls-2" d="M106.81,246.37a4.12,4.12,0,0,1-2.07-7.7L114.5,233a4.15,4.15,0,1,1,4.13,7.21h0l-9.77,5.63A4.08,4.08,0,0,1,106.81,246.37Z"/>
      <path class="cls-2" d="M226.47,130.82a4.12,4.12,0,0,1-4.15-4.1,4.07,4.07,0,0,1,.55-2.1l5.65-9.75a4.15,4.15,0,0,1,7.17,4.17h0l-5.64,9.76A4.11,4.11,0,0,1,226.47,130.82Z"/>
      <path class="cls-2" d="M140.38,279.93a4.13,4.13,0,0,1-4.15-4.12,4.19,4.19,0,0,1,.55-2.07l5.64-9.76a4.15,4.15,0,0,1,7.21,4.13h0L144,277.86A4.1,4.1,0,0,1,140.38,279.93Z"/>
      <path class="cls-2" d="M146,130.82a4.15,4.15,0,0,1-3.61-2.06L136.8,119a4.15,4.15,0,0,1,7.21-4.12l5.63,9.75a4.13,4.13,0,0,1-3.6,6.2Z"/>
      <path class="cls-2" d="M232.12,279.93a4.1,4.1,0,0,1-3.6-2.07l-5.65-9.75a4.15,4.15,0,1,1,7.21-4.13l5.63,9.76a4.14,4.14,0,0,1-1.53,5.64,4.19,4.19,0,0,1-2.07.55Z"/>
      <path class="cls-2" d="M116.56,160.26a4.09,4.09,0,0,1-2-.55l-9.77-5.63a4.16,4.16,0,0,1,4.14-7.21l9.76,5.63a4.13,4.13,0,0,1-2.08,7.7Z"/>
      <path class="cls-2" d="M265.68,246.37a4.31,4.31,0,0,1-2.07-.56l-9.77-5.64A4.15,4.15,0,0,1,258,233h0l9.75,5.63a4.12,4.12,0,0,1-2.06,7.7Z"/>
      <path class="cls-4" d="M186.24,294.64a98.28,98.28,0,1,1,98.29-98.28A98.28,98.28,0,0,1,186.24,294.64Zm0-188.3a90,90,0,1,0,90,90v0A90.09,90.09,0,0,0,186.24,106.34Z"/>
    </g>
  </g>
</svg>
