<svg xmlns="http://www.w3.org/2000/svg" xmlns:xlink="http://www.w3.org/1999/xlink" viewBox="0 0 400 400">
  <defs>
    <style>
      .cls-1 {
        fill: url(#linear-gradient);
      }

      .cls-2 {
        fill: #9b9ba7;
      }

      .cls-3 {
        fill: #cacad4;
      }

      .cls-4 {
        fill: #fc3;
      }

      .cls-5 {
        fill: #ff8f00;
      }

      .cls-6 {
        fill: url(#linear-gradient-2);
      }
    </style>
    <linearGradient id="linear-gradient" x1="164.94" y1="149.24" x2="356.65" y2="149.24" gradientUnits="userSpaceOnUse">
      <stop offset="0" stop-color="#cacad4"/>
      <stop offset="1" stop-color="#efefef"/>
    </linearGradient>
    <linearGradient id="linear-gradient-2" x1="214.99" y1="149.24" x2="356.65" y2="149.24" gradientUnits="userSpaceOnUse">
      <stop offset="0" stop-color="#9b9ba7"/>
      <stop offset="1" stop-color="#cacad4"/>
    </linearGradient>
  </defs>
  <g id="Knife">
    <g>
      <path class="cls-1" d="M165,201.6c-.94-1.48,32.5-35.08,35.44-38.17,20.5-21.57,40.77-43.65,64.42-61.86C289.44,82.62,324,58.41,356,56.3c3.13,9-6,27.44-10.78,35.21-11.38,18.37-22.28,37.31-34.67,55-21,30-45.62,58.6-71.28,85.25-4.4,4.57-8.76,12.38-14.52,9.94-3.54-1.5-7.38-8.3-9.77-11.2-5-6.08-9.19-14.13-16.18-18.24-9.63-5.67-17.26-1.64-21.28,6.56C172.57,213.91,168.76,207.47,165,201.6Z"/>
      <g>
        <path class="cls-2" d="M141.94,258.75l46.37-42.83c1.77-1.84.86-5.59-2-8.35l-11-10.56c-2.86-2.75-6.65-3.51-8.42-1.68L124.68,243Z"/>
        <path class="cls-3" d="M133.73,251.24l47.1-49-6.22-6c-2.86-2.75-6.65-3.51-8.41-1.68L124.68,243Z"/>
      </g>
      <g>
        <path class="cls-4" d="M144.8,215.91,46.14,311a10.08,10.08,0,0,0,.28,14.21l15.26,14.68a10.08,10.08,0,0,0,14.21-.28l93.23-102.1Z"/>
        <path class="cls-5" d="M156.37,226.18,54,332.58l8.64,8.32a10.09,10.09,0,0,0,14.22-.28l92.24-103.11Z"/>
      </g>
      <path class="cls-6" d="M356,56.3c3.13,9-6,27.44-10.78,35.21-11.38,18.37-22.28,37.31-34.67,55-21,30-45.62,58.6-71.28,85.25-4.4,4.57-8.76,12.38-14.52,9.94-3.54-1.5-7.38-8.3-9.77-11.2"/>
    </g>
  </g>
</svg>
