<svg xmlns="http://www.w3.org/2000/svg" viewBox="0 0 176.7 183.66"><title>Bronze</title><g id="Layer_2" data-name="Layer 2"><g id="Layer_1-2" data-name="Layer 1"><polygon points="101.41 161.97 76.14 161.97 79.47 124.84 98.08 124.84 101.41 161.97" style="fill:#c48531"/><path d="M116.22,179.75c-.7-11.41-12.72-20.49-27.45-20.49S62,168.34,61.33,179.75Z" style="fill:#db9645"/><path d="M119.82,181.19a2.47,2.47,0,0,1-2.48,2.47H59.92a2.47,2.47,0,0,1-2.48-2.47h0a2.48,2.48,0,0,1,2.48-2.48h57.42a2.48,2.48,0,0,1,2.48,2.48Z" style="fill:#c48531"/><polygon points="81.6 130.44 79.27 157.4 84.59 157.4 83.7 130.44 81.6 130.44" style="fill:#fff;opacity:0.5"/><path d="M64.42,176.73s2.77-12.52,20.17-16.17c0,0-8.36,6.27-8.45,16.17Z" style="fill:#fff;opacity:0.5"/><path d="M56.17,98.12c-1.46-4.53-5.43-10.79-16.06-14.92C22.68,76.44,11.24,62.09,9.52,44.81c-1.1-11,2.24-20.61,8.51-24.62,2.77-1.78,8.45-2.47,11.89-.74a4.08,4.08,0,0,1,2.45,3.71,4.81,4.81,0,0,1-1.07,3.91l-.09.09A7.78,7.78,0,1,0,23,38.35a4.52,4.52,0,0,0,2,.44c.84,0,8.35-.26,13.08-5.39a14.2,14.2,0,0,0,3.52-10.89A13.33,13.33,0,0,0,34.1,11.13c-6.72-3.38-16-2-21.09,1.22C3.68,18.32-1.21,31.12.26,45.75,2.34,66.59,16,83.84,36.74,91.9c5.71,2.22,9.37,5.38,10.57,9.12a8.44,8.44,0,0,1-.69,6.83,9.22,9.22,0,1,0-8.39,13,9.32,9.32,0,0,0,2.5-.35c3.73-.2,10-2,13.59-7.44A17.82,17.82,0,0,0,56.17,98.12Z" style="fill:#c48531"/><path d="M120.53,98.12C122,93.59,126,87.33,136.59,83.2c17.43-6.76,28.87-21.11,30.59-38.39,1.1-11-2.24-20.61-8.51-24.62-2.77-1.78-8.45-2.47-11.89-.74a4.08,4.08,0,0,0-2.45,3.71,4.78,4.78,0,0,0,1.07,3.91l.09.09a7.78,7.78,0,1,1,8.17,11.19,4.58,4.58,0,0,1-2,.44c-.84,0-8.35-.26-13.08-5.39a14.2,14.2,0,0,1-3.52-10.89,13.33,13.33,0,0,1,7.55-11.38c6.72-3.38,16-2,21.09,1.22,9.33,6,14.21,18.77,12.75,33.4C174.36,66.59,160.72,83.84,140,91.9c-5.71,2.22-9.37,5.38-10.57,9.12a8.44,8.44,0,0,0,.69,6.83,9.22,9.22,0,1,1,8.39,13,9.32,9.32,0,0,1-2.5-.35c-3.73-.2-10-2-13.59-7.44A17.79,17.79,0,0,1,120.53,98.12Z" style="fill:#c48531"/><path d="M43.47,6.66A153.6,153.6,0,0,0,40,39.72c0,48.92,21.89,88.58,48.89,88.58s48.89-39.66,48.89-88.58a153.6,153.6,0,0,0-3.52-33.06Z" style="fill:#db9645"/><rect x="34.74" width="106.93" height="9.9" rx="3.77" style="fill:#c48531"/><path d="M47.76,11.88s-12.63,76.79,31.58,111c0,0-22.61-34.78-14.3-111Z" style="fill:#fff;opacity:0.5"/></g></g></svg>