<svg xmlns="http://www.w3.org/2000/svg" viewBox="0 0 178.47 184"><title>Gold</title><g id="Layer_2" data-name="Layer 2"><g id="Layer_1-2" data-name="Layer 1"><path d="M56.73,99.11C55.26,94.53,51.25,88.2,40.51,84c-17.6-6.83-29.15-21.33-30.9-38.78-1.1-11.06,2.27-20.82,8.6-24.87,2.8-1.79,8.54-2.5,12-.75a4.11,4.11,0,0,1,2.47,3.75,4.85,4.85,0,0,1-1.08,3.95l-.09.09a7.86,7.86,0,1,0-8.25,11.31,4.78,4.78,0,0,0,2,.44c.85,0,8.43-.26,13.21-5.45a14.28,14.28,0,0,0,3.56-11,13.43,13.43,0,0,0-7.63-11.49c-6.79-3.42-16.16-2.06-21.3,1.23-9.42,6-14.36,19-12.88,33.73,2.1,21,15.88,38.48,36.85,46.61,5.77,2.24,9.46,5.44,10.68,9.21a8.52,8.52,0,0,1-.7,6.9,9.31,9.31,0,1,0-8.48,13.18,9.15,9.15,0,0,0,2.53-.36c3.76-.21,10.13-2,13.72-7.51A18,18,0,0,0,56.73,99.11Z" style="fill:#f4b331"/><path d="M121.74,99.11C123.21,94.53,127.22,88.2,138,84c17.61-6.83,29.16-21.33,30.9-38.78,1.11-11.06-2.27-20.82-8.59-24.87-2.81-1.79-8.54-2.5-12-.75a4.13,4.13,0,0,0-2.47,3.75,4.85,4.85,0,0,0,1.08,3.95.76.76,0,0,0,.09.09,7.86,7.86,0,1,1,8.25,11.31,4.78,4.78,0,0,1-2,.44c-.85,0-8.43-.26-13.21-5.45a14.32,14.32,0,0,1-3.56-11A13.47,13.47,0,0,1,144,11.25c6.79-3.42,16.17-2.06,21.3,1.23,9.43,6,14.36,19,12.89,33.73-2.11,21-15.88,38.48-36.86,46.61-5.77,2.24-9.46,5.44-10.67,9.21a8.56,8.56,0,0,0,.69,6.9,9.31,9.31,0,1,1,8.48,13.18,9.21,9.21,0,0,1-2.53-.36c-3.76-.21-10.13-2-13.72-7.51A18,18,0,0,1,121.74,99.11Z" style="fill:#f4b331"/><polygon points="102.49 163.5 76.97 163.5 80.33 126 99.13 126 102.49 163.5" style="fill:#f4b331"/><path d="M43.91,6.72a154.78,154.78,0,0,0-3.56,33.4c0,49.41,22.11,89.47,49.38,89.47s49.38-40.06,49.38-89.47a154.78,154.78,0,0,0-3.56-33.4Z" style="fill:#ffc82e"/><rect x="35.09" width="108" height="10" rx="3.81" style="fill:#f4b331"/><path d="M117.45,180.05c-.71-11.53-12.85-20.7-27.72-20.7s-27,9.17-27.72,20.7Z" style="fill:#ffc82e"/><path d="M121.09,181.5a2.5,2.5,0,0,1-2.5,2.5h-58a2.5,2.5,0,0,1-2.5-2.5h0a2.5,2.5,0,0,1,2.5-2.5h58a2.5,2.5,0,0,1,2.5,2.5Z" style="fill:#f4b331"/><path d="M48.24,12S35.48,89.56,80.13,124.14C80.13,124.14,57.3,89,65.7,12Z" style="fill:#fff;opacity:0.5"/><polygon points="82.48 131.65 80.13 158.88 85.51 158.88 84.61 131.65 82.48 131.65" style="fill:#fff;opacity:0.5"/><path d="M65.14,177s2.8-12.65,20.37-16.34c0,0-8.45,6.34-8.54,16.34Z" style="fill:#fff;opacity:0.5"/></g></g></svg>