<?xml version="1.0" encoding="utf-8"?>
<!-- Generator: Adobe Illustrator 25.4.1, SVG Export Plug-In . SVG Version: 6.00 Build 0)  -->
<svg version="1.1" id="Layer_1" xmlns="http://www.w3.org/2000/svg" xmlns:xlink="http://www.w3.org/1999/xlink" x="0px" y="0px"
	 viewBox="0 0 1200 1820" style="enable-background:new 0 0 1200 1820;" xml:space="preserve">
<style type="text/css">
	.st0{fill:#393A3C;}
	.st1{fill:#EEEEEF;}
	.st2{fill:#4DBFDC;}
	.st3{fill:#119AD7;}
	.st4{fill:#FFB762;}
	.st5{fill:#C3C3D1;}
	.st6{fill:#ABAABA;}
	.st7{fill:#453878;}
	.st8{fill:#6154C7;}
	.st9{fill:#8C4F45;}
	.st10{fill:#753C36;}
	.st11{fill:#443889;}
	.st12{fill:#F7C2D0;}
	.st13{fill:#30323D;}
	.st14{fill:#23242B;}
	.st15{fill:#FDF5ED;}
	.st16{fill:#9E005D;}
	.st17{fill:#DA727E;}
	.st18{fill:#FF8D94;}
	.st19{fill:#F04E98;}
</style>
<g>
	<g id="Eric_00000129178399750480288550000009610960592995613066_">
		<g>
			<g>
				<g>
					<path class="st0" d="M424.8,1778.5c15.2,10,47.3,11.8,67.6,11c20.4-0.8,13.5-17.6,8.3-39.8c-5.2-22.1-1.6-44.7-1.6-44.7
						s-68.8-6.5-74.5,7.9C418.9,1727.5,409.7,1768.6,424.8,1778.5z"/>
				</g>
				<g>
					<path class="st1" d="M423.8,1791.9c15.1,11.4,47.2,13.7,67.6,12c17-1.4,18.2-11.2,14.8-25.6c-0.4,6.7-3.8,10.9-13.7,11.2
						c-20.3,0.8-52.5-1.1-67.6-11c-6.7-4.4-8.6-14.9-8.2-26.5C414.8,1768.9,415.7,1785.7,423.8,1791.9z"/>
				</g>
				<g>
					<g>
						<path class="st1" d="M646.5,1718c-1.6,21.6,8.6,26.1,33.9,26.3c25.3,0.2,40.5,9.2,54.8,17.9c14.3,8.6,46.9,14.6,65.4,12
							c18.5-2.6,17-19.4,17-19.4S648.2,1696.3,646.5,1718z"/>
					</g>
					<g>
						<path class="st0" d="M649.4,1705.5c0,0-6.7,14,0.3,22.6c7,8.6,35.8,3.6,57.9,9.8c22.1,6.2,27.6,21.6,61.6,26.5
							s49.9-2.6,49.1-14.3c-0.8-11.7-39.5-30-60.6-36.3s-40.5-34-40.5-34L649.4,1705.5z"/>
					</g>
				</g>
				<g>
					<path class="st2" d="M404.4,1724.6c75.1,22.2,112,7.4,110.3-9.6l146.9-586.3l-40.2,568.3c69.5,39.3,133.6-1.3,133.6-1.3
						l187.2-802.7l-53.8-56.4c0,0-410.7-150.2-436.8-13.4C425.5,959.9,404.4,1724.6,404.4,1724.6z"/>
					<g>
						<path class="st3" d="M669.1,1109.5c-0.1,0-0.1,0-0.2,0c-1.1-0.2-1.8-1.2-1.6-2.3l13.3-73.8c0.2-1.1,1.2-1.8,2.3-1.6
							c1.1,0.2,1.8,1.2,1.6,2.3l-13.3,73.8C671,1108.9,670.1,1109.6,669.1,1109.5z"/>
					</g>
				</g>
			</g>
		</g>
	</g>
	<g>
		<g id="Layer_1_00000058551178408746766990000014696782244202614949_">
			<polygon class="st4" points="1046.9,476.3 1024.2,496.4 903.1,367.6 933.9,340.4 			"/>
			<path class="st5" d="M930.3,311.4c-14.9-16.8-39.3-19.4-54.6-5.9s-15.7,38.1-0.8,54.9s39.3,19.4,54.6,5.9
				S945.2,328.2,930.3,311.4z"/>
			
				<rect x="864.8" y="333.1" transform="matrix(0.7492 -0.6624 0.6624 0.7492 3.5174 682.6614)" class="st6" width="76.7" height="7.1"/>
			<path class="st7" d="M405.8,779.3c0,0,6.3,38.6,0,70.8s-19.9,52.5-19.9,52.5s15,95.5,153.9,153s179.5,36.6,179.5,36.6l47.7-67.8
				l14,64.2c0,0,79.2-4.9,132.5-35.1s79.2-147.3,78.5-211.1s-21.7-104.5-21.7-104.5s72.2,28.1,121.3,4.2s69.4-94.7,51.9-161.3
				s-72.9-138.2-72.9-138.2l-79.2,37.2c0,0-2.1,9.8-5.6,33.7s-7,33-7,33s-58.2-12-115.7-68.8s-83.4-68.7-137.4-91.2
				S574.1,348,553.8,348s-87.7,26.6-123.4,50.5s-76.4,51.2-80,70.1s-7.6,63.1-30.1,117.1s-60.4,89.8-60.4,89.8L215,653.8l-87.7,9.8
				c0,0,2.8,24.2,0,58.4s9.8,107.8,60.3,130.3s116.4,10.5,155.7-13.3S405.8,779.3,405.8,779.3z"/>
			<path class="st8" d="M336.9,713.2c-3.5-5-9.9-8-15-11c-6.3-3.6-12.4-7.6-18.8-11c-5.9-3-12-5.7-18.2-8.1
				c-5.7-2.3-11.4-4.6-17.6-4.6c-1.1-0.6-2.3-1.2-3.4-1.7c-9.1-4.5-18-9.5-27.8-12.6c-0.5-0.2-0.9,0.6-0.4,0.9
				c9,4.4,17.8,9.3,26.3,14.7c8.2,5,16.5,10,24.3,15.7s14.9,12.3,21.8,19.1c3.6,3.5,7,7,9.6,11.4c2.1,3.6,3.9,7.3,7.1,10
				c0.5,0.5,1.4,0.4,1.9-0.1c0.4-0.5,0.4-1.2,0-1.7c-2.8-3.7-4.4-8-6.7-12c-2.4-3.9-5.4-7.5-8.7-10.7c-6.9-7.1-14.3-13.6-22.2-19.5
				c-4.9-3.6-10.1-6.9-15.4-10c3.3,1,6.6,2.3,9.8,3.6c6.3,2.4,12.6,5.2,18.6,8.4c5.7,3.1,11.1,6.6,16.7,9.9s11,7.3,16.6,10.7
				C336.3,715.2,337.6,714.1,336.9,713.2z"/>
			<path class="st8" d="M442.7,712.5c-2.7,9.3-8.9,17.3-13.6,25.7s-10.1,16.6-15.5,24.7c-5.2,7.8-10.4,15.7-15.8,23.3
				c-5.8,8.2-11.6,16.8-18.3,24.4c-0.2,0.1-0.2,0.4,0,0.5c0.1,0.2,0.4,0.2,0.5,0l0,0c14.7-13.3,26.1-29.7,37-46.1
				c5.6-8.3,10.6-16.8,15.2-25.7c4.4-8.6,9-17.2,11.5-26.6c0-0.3-0.2-0.6-0.5-0.7C443.1,712.2,442.8,712.3,442.7,712.5z"/>
			<path class="st8" d="M978.8,754.9c-7.1-20.8-16.6-40.5-26.5-60.1s-18.1-40.3-30.2-58.8c-5.9-9-11.4-18.2-16.7-27.7
				c-5.5-9.8-11.3-19.5-16.5-29.6c-10.1-19.7-21.6-38.7-33.3-57.5c-6.1-9.8-12.4-19.8-20-28.6c-6.6-7.7-15.7-14.2-20-23.6
				c-0.4-0.9-1.7-0.1-1.3,0.8c3.5,8.2,9.5,14,15.5,20.4c7.2,7.6,13.1,16.5,18.7,25.3c5.9,9.3,11.3,19,16.8,28.5s11.1,19.2,16,29.1
				s10,19.6,15.4,29.2s10.4,19.5,16.3,28.8c5.6,8.8,11.4,17.4,16,26.8c5,10.2,9.7,20.5,14.7,30.7c5.5,11.3,11.8,22.2,17.2,33.5
				c5.3,11.1,9.8,22.7,15.5,33.6C977.1,757.1,979.3,756.3,978.8,754.9z"/>
			<path class="st8" d="M990.5,484.8c-3.5,8.3-4.9,17.3-6.6,26.1c-1.8,9-4.1,17.8-6.6,26.7c-2.4,8.6-5.3,17-8.8,25.2
				c-3.6,8.1-9.1,15.4-12.2,23.8c-0.6,1.6,1.6,2.3,2.5,1.1c5.5-7,10.1-14.6,13.7-22.7c3.6-8.3,6-16.9,8.2-25.7
				c4.5-17.8,7.9-36,11.2-54.1c0.1-0.4-0.1-0.7-0.5-0.8C991,484.2,990.6,484.4,990.5,484.8L990.5,484.8z"/>
			<path class="st9" d="M957.9,404.1c0,0-19.1-7.7-15.6-20.7s21.2-50.9,35.5-46.6s43,15.8,67.9,46.6c24.9,30.9,33.7,69.8,30.5,78.9
				s-24.6,41-51.9,42.1s-78.5-16.2-92.2-35.6s-12.4-43.2,3.8-48.3s20.5-2,20.5-2S953.1,413.9,957.9,404.1z"/>
			<path class="st10" d="M1038.3,458.4c-3,5.5-8,10.2-12.4,14.7c-2.1,2.2-4.8,3.7-7.1,5.6c-1.6,1.4-4.1,3-5,4.8
				c-0.3,0.5-0.1,1.2,0.4,1.5c0.1,0,0.1,0.1,0.2,0.1c2.3,0.7,3.9-1.1,5.4-2.6c2.5-2.4,5.5-4.2,7.9-6.8c4.8-4.8,8.9-10.4,12-16.5
				C1040.3,458.3,1038.9,457.4,1038.3,458.4z"/>
			<path class="st10" d="M1037.6,402.5c-3.1-3-6-5.5-10-7.3c-3.6-1.6-7.5-2.7-11.5-3.1c-8.3-1-14.2,1.6-19.5,7.9
				c-5.3,6.2-9.8,13-13.6,20.2c-2.3,4.2-3.6,8.9-3.9,13.7c-3-3.8-6.6-7.1-10.6-9.9c-4-2.7-9.2-6.6-14.1-7.2c-0.8-0.1-1,1-0.4,1.4
				c10.5,6.9,32.3,18.2,25.6,34.2c-4.6,10.9-26.9,13.9-31.1,1.1c-0.3-1-1.9-0.9-1.9,0.2c0.1,8.1,7.5,11.2,14.7,11.8
				c7.9,0.6,16.7-1.9,20.9-9.1c0.8-1.4,1.4-2.9,1.8-4.5c3.3,2,7.1,3.2,11,3.4c-2,4-3.5,8.3-4.3,12.8c-1.4,7.8,0.4,14.1,6.7,19
				c5.7,4.3,16.4,8.3,23.2,4.3c0.4-0.3,0.5-1,0.2-1.4c-0.2-0.2-0.4-0.3-0.6-0.4c-3.9,0-7.4,0.3-11.2-1c-3.8-1.3-7.4-3.4-10.4-6.1
				c-5.3-4.9-4.5-11.9-2.6-18.3c4.3-14.4,14.8-26.8,25.9-36.4c1-0.9-0.2-2.4-1.4-1.8c-8.6,4.5-14.8,13.3-20.5,20.9
				c-1.2,1.6-2.3,3.3-3.3,5c-2.5-0.1-5-0.5-7.5-1.1c-1.7-0.5-3.2-1.3-4.9-2c0.1-3.7-0.7-7.4-2.4-10.6c-0.2-2.5-0.1-5.1,0.3-7.5
				c0.7-3.5,1.9-6.9,3.7-10c3.3-5.9,7-11.5,11.2-16.8c2.1-2.7,4.5-5.5,7.6-7.1c3.3-1.8,7-1.6,10.6-1.2c7.3,0.8,15,4.1,21.4,7.7
				C1037.5,403.8,1038.2,403,1037.6,402.5z"/>
			<path class="st10" d="M1023.2,377.6c-3.4-5.3-9.9-8.1-15.8-9.5c-7.2-1.8-14.7-2.4-21.7,0.5c-8,3.3-11.8,9.8-16.7,16.5
				c-5.3,7.2-10.4,14.2-13.4,22.6c-0.2,0.7,0.9,1.2,1.2,0.5c3.2-6.6,7.6-12.6,11.9-18.5c4.7-6.3,8.7-12.7,15.9-16.4
				c6.8-3.5,13.7-3.4,20.9-1.7c5.5,1.3,12.2,2.8,16.1,7.2c0.4,0.4,1.1,0.4,1.5,0C1023.3,378.6,1023.4,378,1023.2,377.6z"/>
			<path class="st11" d="M776.1,897.8c0,0-27.3-90.5-95.4-148.7s-169-110.3-169-110.3l55.4-68.2l-101,14.6c0,0-22.5-70.8-28.1-113.7
				s0-89.2,0-89.2s37.2-37.2,114.3-45.6s169,77.6,169,77.6s36.5,49.3,63.8,87.9s29,51.3,29,51.3l-48.5,17.1l61.7,35.8
				c0,0-5.2,92.1-13.1,152.5S776.1,897.8,776.1,897.8z"/>
			<path class="st12" d="M482.9,405.5c0,0,26,80.1,30.2,83.9c4.2,3.8,89.1,66.9,155,161.2s108.7,231.8,108.7,231.8
				s11.2-92.6-0.7-198.5s-88.5-308.3-88.5-308.3L482.9,405.5z"/>
			<path class="st8" d="M944,1022c-11.6,20.1-32,31.8-53,39.9c-22.5,8.6-45.7,15.1-69.3,19.5c-13.5,2.5-27.2,4.3-40.8,5.4
				c-2-10.4-4.2-20.8-6.3-31.2c-1.1-5.5-2.2-11-3.3-16.4c-1-5-1.4-11.2-3.8-15.8c-0.4-0.5-0.9-0.9-1.6-1c-2.3,2.3-4,5.4-5.7,8.1
				c-2.1,3.3-4.2,6.7-6.2,10c-3.7,5.8-7.7,11.3-12,16.6c-4.4,5.5-8.5,11.2-12.5,17c-3.8,5.6-8.5,11.3-11.6,17.4c-0.1,0-0.3,0-0.4,0
				c-15,3-30.4,2.1-45.5,0.6c-14.5-1.5-28.9-4-43.1-7.4c-28.2-6.6-55.6-16.4-82.1-28c-13.8-6-27.2-12.8-40.9-18.9
				c0-0.4-0.3-0.8-0.7-0.9c-21-11.3-41.3-23.6-58.9-39.9c-17.6-16.1-32.3-35-43.5-56c-6.3-12-11-24.5-15.3-37.3
				c-0.1-0.5-0.7-0.8-1.1-0.6c-0.5,0.1-0.7,0.6-0.6,1.1c4.8,23.3,16.6,45.3,30.6,64.3c14.2,19.2,32,35.7,51.4,49.4
				c11.3,8.2,23.4,15.3,36,21.3c0.3,0.2,0.7,0.2,1,0.1c11.9,6.8,24.1,13,36.7,18.4c13.3,6,26.7,11.4,40.4,16.3
				c27.5,9.8,55.9,17.2,85,20.5c17,2,34.6,3.8,51.5,0.5l0,0c0.4,0,0.7-0.2,0.9-0.4c4.6-5,8-11.5,11.9-17.1
				c4.3-6.2,8.6-12.3,13.1-18.2c4.2-5.3,8.1-10.9,11.7-16.7c1.9-3.2,3.8-6.3,5.7-9.5c1.3-2.1,2.7-4.3,3.9-6.5
				c0.3,4.2,1.8,8.7,2.5,12.6c1.1,5.7,2.2,11.5,3.3,17.2c2.1,11.2,4.2,22.5,6.3,33.7c0.3,1.8,2.6,1.6,3.3,0.3
				c24.9-2.1,49.5-6.4,73.5-13c23.3-6.4,48-13.8,67.7-28.2c9.5-6.9,17.7-15.8,23-26.4C945.8,1022,944.5,1021.2,944,1022z"/>
			<path class="st8" d="M828.1,606.4c-1.9-2.4-5-3.9-7.5-5.7s-4.9-3.4-7.4-5c-5.2-3.4-10.4-6.7-15.8-9.8s-10.8-5.6-16.4-8.2
				c-2.6-1.2-5.2-2.4-7.8-3.8c-1.7-0.9-3.3-1.9-4.9-2.8c3.2-0.7,6.4-2.2,9.4-3.2c4.2-1.4,8.3-2.9,12.4-4.4c8.1-2.9,16.6-5.4,24.5-9
				c0.1,0,0.1-0.1,0.2-0.1c1.1,0.1,2.2-0.7,1.7-2c-7.3-19.6-19.1-36.5-31.4-53.3c-6.1-8.4-18.7-26.9-25-35.3
				c-3.6-4.8-34.8-44.3-38.3-49.1c-3.3-4.5-23.8-18.8-27.8-22.7c-0.1-0.1-0.2-0.1-0.3,0c-0.1,0.1-0.1,0.2,0,0.2
				c2.6,5.1,23.7,19.2,27.1,23.8c3.2,4.3,33.8,43.6,36.9,47.9c6.2,8.6,18.7,27.3,24.8,35.8c11.7,16.2,22.8,33.3,30.2,52
				c-8.4,2.3-16.6,5.8-24.7,8.8c-4.1,1.5-8.2,3-12.4,4.6c-3.4,1.3-7.4,2.3-10.3,4.5c-1.2-0.4-1.8,1.1-1.2,2c3.3,4.4,10.1,6.8,15,9
				c5.5,2.6,11,5.2,16.4,8.2s10.6,6.3,15.8,9.8c2.5,1.7,5,3.3,7.4,5c2.2,1.5,4.4,3.5,6.9,4.6c-1,5.7-1,11.7-1.3,17.4
				c-0.4,6.7-0.7,13.4-1.1,20c-0.6,12.9-1.4,25.8-2.3,38.7c-0.9,12.9-2,25.8-3.3,38.6c-1.2,12-3.3,24.1-4.2,36.1
				c-1.8,5.5-2.7,11.4-3.8,17s-2.3,11.2-3.5,16.8c-2.5,11.8-5.4,23.6-8.5,35.3c-5.9,22.1-12.4,44.4-21,65.7
				c-14.6-42.3-37-81.9-66.4-115.8c-4.3-5-8.8-9.8-13.5-14.5c-2.7-2.7-5.6-5.8-8.6-8.4c-7.6-8.6-16.4-15.7-25.7-22.5
				c-11.8-8.6-23.7-17.1-35.7-25.4c-23.9-16.7-48-33.1-72.8-48.5c-12.4-7.8-25.5-15.7-39.5-20.5c4-4.4,7.6-9.5,11.3-14.1
				c4.6-5.6,9.1-11.2,13.5-16.9c9.1-11.5,17.3-23.7,26.9-34.8h0.1c0.6-0.3,0.7-1.1,0.4-1.6c-0.1-0.2-0.4-0.4-0.6-0.5
				c-3.4-0.6-7.1,0.1-10.5,0.6c-4.4,0.6-8.8,1.2-13.2,1.8l-25.6,3.5c-8.3,1.1-16.6,2.3-24.8,3.7c-8,1.4-16,2.2-24,3.8
				c-5-11.1-7.9-23.5-11.2-35.2c-3.4-11.9-6.5-23.9-9.3-36c-5.8-24.3-9.4-49-10.8-73.9c-0.3-6.7-0.5-13.4-0.4-20.1
				c0.1-7.1,0.9-14.4,0.3-21.5c0-0.7-1-0.9-1.2-0.2c-1.6,5.7-1.8,11.7-2,17.6c-0.3,6.5-0.3,13-0.2,19.4c0.3,12.4,1.3,24.9,3,37.2
				c3.3,25.2,8.9,50.1,15.8,74.6c3.7,13.3,7,27.4,12.8,40c0.7,1.5,2.4,1.2,3.2,0.1c8-0.6,15.9-1.9,23.9-2.7c8.2-0.8,16.4-1.9,24.6-3
				s16.6-2.2,24.9-3.4l13.2-1.8c2.8-0.3,5.6-0.7,8.4-1.3c-4.1,3.8-7.5,8.3-10.9,12.7c-4.5,6-9.1,12-13.7,18
				c-4.6,6-9.4,11.9-14.4,17.9c-4.7,5.7-10.3,11-14.5,17c-1,1.5,1.2,3.1,2.4,1.9l0.6-0.6c12,5.7,23.9,11.6,35.3,18.5
				c12,7.3,23.8,15.2,35.6,23c24.2,16,48,32.6,71.5,49.5c12.2,8.8,24.8,17.8,34.5,29.4c0.2,0.3,0.5,0.4,0.8,0.5
				c0.8,0.8,1.5,1.5,2.2,2.3c3.8,4.1,7.7,8.3,11.4,12.5c7.6,8.6,14.8,17.6,21.5,26.9c13.2,18.2,24.7,37.7,34.2,58.1
				c5.6,11.8,10.5,23.9,14.7,36.3c0.7,1.9,3.6,1.3,3.3-0.5c4.6-11.3,9.3-22.7,13.1-34.3c3.7-11.3,7-22.7,10-34.2s5.7-23.1,8.4-34.7
				c1.4-6,2.8-12,4-18.1c0.8-3.9,1.8-7.9,2.4-11.9c0.2-0.2,0.3-0.4,0.3-0.6c3-12.6,3.8-26,5.1-38.8c1.3-13.1,2.4-26.2,3.3-39.3
				s1.7-26.2,2.5-39.4c0.4-6.5,0.7-12.9,1-19.4c0.3-6,1-12.3,0.4-18.3C828.5,607.7,828.5,606.9,828.1,606.4z"/>
			<path class="st9" d="M594.1,199.9c0,0,64.8,148,71.3,162.6s-76.7,18-21.2,35.1c0,0-20.6,7.9-80.5,19c-96,17.6-43.5,8.3-62.5-11
				c0,0-3.8,5.7-6-20.7c-2.7-31.6-27.8-163.3-27.8-163.3L594.1,199.9z"/>
			<path class="st10" d="M594.1,199.9l-126.6,21.6c0,0,11.4,59.5,19.6,108.1c10.1,7.9,20.9,14.7,32.4,20.3
				c26.4,12.7,50.6,9.9,72,6.3c26-4.4,43.3-18.4,53.9-39.2C624.2,268.6,594.1,199.9,594.1,199.9z"/>
			<path class="st9" d="M409,181.6c15.5,82.3,73,129.6,110.5,147.7c26.4,12.7,50.6,9.9,72,6.3c68.4-11.6,76.3-88.6,62.5-184.9
				c-13.8-96-56.6-142.6-141.1-128.2C418.6,38.5,391.1,86.7,409,181.6z"/>
			<path class="st10" d="M612.2,245.2c5.4-1.1,9.5-3.3,10.9-7.7c4.2-13.7-11.3-31.9-12.8-34.2c-1.1-1.6-2.4-2.4-4-1.4
				s-0.5,3.2,0.5,4.8c5.1,7.6,9.9,22.3,7.5,28.6c-0.4,1.1-1.2,2.4-3.8,3c-1.8,0.5-2.9,2.4-2.5,4.2
				C608.6,246,612.1,245.2,612.2,245.2z"/>
			<path class="st13" d="M656.5,148.1c0.8-0.1,1.6-0.6,2-1.4c1-1.8,0.8-4.1-0.7-5.5c-6.1-5.9-20.7-18-35.9-0.8
				c-1.3,1.5-1.5,3.7-0.5,5.5c1.1,1.8,3.2,2.2,4.6,1c14.3-12.7,27.9,0.2,28,0.3C654.6,147.9,655.6,148.2,656.5,148.1z"/>
			<path class="st13" d="M515.1,172.2c-1,0.2-2,0-2.8-0.6c-1.8-1.2-2.4-3.6-1.2-5.4c0,0,0,0,0,0c4.9-7.8,17.5-24.5,41.5-14
				c2,0.7,3.1,2.9,2.6,4.9c-0.6,2.1-2.9,3.2-4.9,2.6c0,0,0,0,0,0c-21.3-6.6-32.4,10.5-32.5,10.6C517.2,171.3,516.2,172,515.1,172.2z
				"/>
			<path class="st10" d="M465.9,188.2c0,0-8.2-18.6-28.5-12.3c-19.5,6-10.1,67.3,9.1,74.7s27.2-23.6,27.2-23.6L465.9,188.2z"/>
			<path class="st9" d="M472.4,191.7c0,0-7.9-14.5-28.2-9.2c-19.6,5.1-11.3,53.3,7.7,58.8s27.6-19.1,27.6-19.1L472.4,191.7z"/>
			<path class="st14" d="M562.4,197.3c-0.3-1.6-1.5-3.4-2.2-5c-0.7-1.8-1.6-3.5-2.7-5.1c-2.3-3.8-6.5-6.1-11-5.9
				c-6.2,0.2-7.9,4.3-8.8,8c-0.8,3.2-4.3,10.2,0.6,12.5c0.6,0.3,1.6,0,1.7-0.5c0.5-1.7,0.1-3.5,0.5-5.2s1.2-3.7,1.7-5.5
				c0.7-2.5,1.5-6.9,6.6-5.4c6.9,2.1,4.8,10.3,8.7,14C559.5,201.1,562.8,199.1,562.4,197.3z"/>
			<path class="st14" d="M650.2,181.4c-1.1-3.5-2.3-7.2-5-10.3c-2.2-2.5-6.3-5.2-10.7-3.7c-3.8,1.2-4.5,4.8-4.5,7.4
				c-0.3,3.3,0.9,6.5,3.2,8.8c0.5,0.5,2,0.3,1.6-0.5c-0.8-1.8-0.5-4.5-0.6-6.4c0-1.5-0.2-5.3,2-6.2c5-1.9,8.1,10,8.6,11.9
				c0.3,0.8,1,1.3,1.9,1.4c0.7,0.2,1.4,0.1,2.1-0.2C649.9,183.1,650.5,182.3,650.2,181.4z"/>
			<path class="st15" d="M634.6,258.5c0.3,2.1,0.5,4.2,0.4,6.3c-7,4.1-27.7,14.5-49.3,8.2c-1.9-3.4-3.4-7.1-4.4-10.8
				C605.3,275.1,634.6,258.5,634.6,258.5z"/>
			<path class="st16" d="M635,264.9c-0.1,4-1.1,7.9-2.8,11.5c-3.4-2.5-7.4-4.2-11.6-4.9C625.6,269.7,630.4,267.5,635,264.9z"/>
			<path class="st17" d="M614.2,288.7c-15.1,2.8-23.9-7.1-28.6-15.6c12.9,3.8,25.4,1.6,34.9-1.6c4.2,0.7,8.2,2.4,11.6,4.9
				C629.4,281.8,624.1,286.8,614.2,288.7z"/>
			<path class="st10" d="M620.9,293.6c0,0-8.1,5.1-14.5,2.6C606.4,296.2,614.3,303.6,620.9,293.6z"/>
			<path class="st18" d="M601.5,409.2l-33.8,51.6L486.4,416l-5-7.4c0,0,8.8-4.9,13.1-7.2C494.4,401.4,540.6,419.3,601.5,409.2z"/>
			<path class="st18" d="M602.7,409c30.2-5.2,59.1-16.6,84.8-33.3l4.3,11.5l-34.1,57.3L602.7,409z"/>
			<path class="st19" d="M781.1,756.1c-11.9-48.3-29.3-95.3-49.9-140.9c-14.5-31.7-30.4-63-51.5-90.7c-15.5-23.3-32.2-45.7-50-67.3
				l16.3-33.5l-47.2-27l-31.4,39.7l29.1,25.5c61.2,39.2,108,170,115.5,191.6c5.2,15.6,10,31.5,14.4,47.9c8.2,29.1,11.8,58,15.1,86.7
				c22.5,52.9,35.4,94.2,35.4,94.2S783.3,828.6,781.1,756.1z"/>
			<polygon class="st12" points="488,357.4 598.3,395.5 664.5,339.7 695.3,374.2 689.7,381.5 652.7,430 599.2,400.7 565.9,446.1 
				479.9,408 			"/>
			<path class="st9" d="M179.3,697.6c0,0,30-30,39-57.6c2.8-8.7,5.8-25-9-37.3l-11.7-119.8c0,0,0.5-16.5-10.5-16.5
				c-12.9,0-12,15.6-12,15.6l0.1,78.2c0,0-5.6-12.7-17.2-12c-12.3,0.7-15.9,13-15.9,13s-4.1-5.3-16.2-3.4
				c-9.9,1.6-13.8,10.6-13.8,10.6c-4.1-0.1-8.2,0.5-12.1,1.7c-8.6,3.2-14,14.2-14,14.2s-11.3,50,14.2,102.4
				C100,686.6,126.4,751.1,179.3,697.6z"/>
			<path class="st10" d="M144.8,573.3c3.5-4.4,19.2,7.1,35.2,10c7.6,1.4,29.3,19.4,29.3,19.4s-19.1-19-34-22.1
				c-0.2-0.1-0.6-0.2-0.8-0.2c1.2-2.3,1.7-14.2,0.6-20.2c0,0-2.3,16.6-1.5,20c-7.4-2.1-18.6-8.6-27.9-9.7c-0.2,0-0.5,0-0.7,0
				c-0.5-3-3.1-9.3-3.1-9.3s0.5,6.6,1.7,9.5c-0.6,0.2-1.1,0.6-1.5,1.1c0,0-7,15,2.6,26.5c0,4.1,0.2,8.2,0.8,12.2
				c1.4,10.8-9.6,12.5-9.7,12.5l-1,0.1c-5.6,0.5-10.9-2.5-13.5-7.5l-9.3-47.2c0,0,5.9,39.8,6.6,46.9s-6.6,9-6.6,9l-4.9,0.2
				c-11.8,0.4-18.5-39.2-18.5-39.2c-2.9,9.6-0.7,37.2-0.7,37.2c44.8,7.3,56.4,37.5,56.4,37.5c16.4-30.7,37.2-36.7,37.2-36.7l4.1-1.9
				l-11.4-16.8C134.6,601,142.9,575.6,144.8,573.3z M165.6,620.1L165.6,620.1c-1.6,0.2-3.3,0.4-5.1,0.6
				c-9.6,0.1-12.2-10.3-12.2-10.3l-2.1-10.7c2.5,2.4,5.4,4.4,8.6,5.8c8.3,3.8,17.9,4.2,17.9,5C173.2,619.2,165.6,620.1,165.6,620.1z
				"/>
			<path class="st13" d="M609.9,247.1c0,0,15.5-1.6,23-1.6c0,0,4.6,0.6,6,9.2l-27.5,2.8c0,0-26.2,4.1-35.8,7.9c0,0-2.2-7.7,2-10.6
				S600.3,249.7,609.9,247.1z"/>
			<path class="st13" d="M579.2,311.2l-1.8,9.9c0,0,13.5,12.2,36.1,8.7s29.1-12.5,31.9-17.9l-4.5-10.4c0,0-0.8,6.4-4,7.7
				c-16.3,6.9-30.6,11.1-50.8,8C586.2,317.1,580.4,313.7,579.2,311.2z"/>
		</g>
	</g>
</g>
</svg>
