<svg xmlns="http://www.w3.org/2000/svg" viewBox="0 0 130 130"><title>timeLeaderboard_Icon</title><g id="Layer_2" data-name="Layer 2"><g id="Layer_1-2" data-name="Layer 1"><circle cx="65" cy="65" r="65" style="fill:#b2bec3"/><g id="Page-1"><rect id="Rectangle-path" x="56.95" y="19.5" width="16.64" height="5.55" rx="1.39" style="fill:#fff"/><path id="Shape" d="M88.84,66.25h4.09a27.69,27.69,0,0,0-55.31,0H41.7a1.39,1.39,0,1,1,0,2.77H37.62A27.71,27.71,0,0,0,63.89,95.29V91.2a1.39,1.39,0,0,1,2.77,0v4.09A27.71,27.71,0,0,0,92.93,69H88.84a1.39,1.39,0,1,1,0-2.77ZM66.66,67.64a1.4,1.4,0,0,1-.41,1L55.85,79a1.38,1.38,0,0,1-1.94,0,1.4,1.4,0,0,1,0-2l10-10v-23a1.39,1.39,0,1,1,2.77,0Z" style="fill:#fff;stroke:#b2bec3;stroke-miterlimit:10;stroke-width:2px"/><path d="M69.43,33.23V28.69H61.11v4.54a34.66,34.66,0,1,0,8.32,0ZM65.27,98.14a30.5,30.5,0,1,1,30.5-30.5A30.51,30.51,0,0,1,65.27,98.14Z" style="fill:#fff"/><path d="M26.09,48.28,29.81,52A37.52,37.52,0,0,1,46.69,33.59l-2.95-3a6.94,6.94,0,0,0-9.8,0l-7.85,7.85A6.94,6.94,0,0,0,26.09,48.28Z" style="fill:#fff"/><path d="M96.61,30.63a7,7,0,0,0-9.81,0l-3,3A37.54,37.54,0,0,1,100.74,52l3.71-3.72a6.92,6.92,0,0,0,0-9.8Z" style="fill:#fff"/><path d="M36.24,93.42l-5.17,7.71a1.39,1.39,0,0,0-.08,1.43,1.41,1.41,0,0,0,1.23.74h4.21a1.41,1.41,0,0,0,1.17-.63l3.2-4.89A34.8,34.8,0,0,1,36.24,93.42Z" style="fill:#fff"/><path d="M94.15,103.3h4.31a1.42,1.42,0,0,0,1.21-.71,1.4,1.4,0,0,0,0-1.4l-5-8.17A34,34,0,0,1,90,97.54L93,102.6A1.4,1.4,0,0,0,94.15,103.3Z" style="fill:#fff"/></g></g></g></svg>