<?xml version="1.0" encoding="utf-8"?>
<!-- Generator: Adobe Illustrator 25.4.1, SVG Export Plug-In . SVG Version: 6.00 Build 0)  -->
<svg version="1.1" id="Layer_1" xmlns="http://www.w3.org/2000/svg" xmlns:xlink="http://www.w3.org/1999/xlink" x="0px" y="0px"
	 viewBox="0 0 1200 1820" style="enable-background:new 0 0 1200 1820;" xml:space="preserve">
<style type="text/css">
	.st0{fill:#393A3C;}
	.st1{fill:#EEEEEF;}
	.st2{fill:#4DBFDC;}
	.st3{fill:#119AD7;}
	.st4{fill:#453878;}
	.st5{fill:#6154C7;}
	.st6{fill:#443889;}
	.st7{fill:#F7C2D0;}
	.st8{fill:#8C4F45;}
	.st9{fill:#753C36;}
	.st10{fill:#FF8D94;}
	.st11{fill:#F04E98;}
	.st12{fill:#23242B;}
	.st13{fill:#30323D;}
	.st14{fill:#FFFFFF;}
</style>
<g>
	<g id="Eric_00000129178399750480288550000009610960592995613066_">
		<g>
			<g>
				<g>
					<path class="st0" d="M744.1,1738.8c-15.1,7.4-44.9,5.4-63.6,2.4c-18.7-3-10.4-17.8-3.1-37.6c7.4-19.8,6.6-41,6.6-41
						s64.2,1.9,67.8,15.9C755.4,1692.4,759.2,1731.4,744.1,1738.8z"/>
				</g>
				<g>
					<path class="st1" d="M743.5,1751.2c-15.2,8.8-45.1,7.2-63.7,3.3c-15.5-3.2-15.5-12.4-10.7-25.3c-0.4,6.2,2.3,10.5,11.3,11.9
						c18.7,3,48.5,5.1,63.6-2.4c6.7-3.3,9.7-12.8,10.6-23.5C754.4,1731.1,751.7,1746.5,743.5,1751.2z"/>
				</g>
				<g>
					<g>
						<path class="st1" d="M546.7,1657.5c-1,20.1-10.9,23.1-34.3,20.3c-23.4-2.8-38.4,3.9-52.6,10.2c-14.2,6.3-45,8-61.7,3.5
							c-16.7-4.5-13.4-19.9-13.4-19.9S547.6,1637.3,546.7,1657.5z"/>
					</g>
					<g>
						<path class="st0" d="M545.4,1645.6c0,0,4.5,13.7-2.9,20.8c-7.4,7.1-33.4-0.8-54.5,2.4c-21.1,3.2-27.9,16.7-59.8,17.3
							c-31.9,0.6-45.7-8.2-43.7-18.8c2.1-10.7,39.9-23.1,60-26.5s41.2-26.7,41.2-26.7L545.4,1645.6z"/>
					</g>
				</g>
				<g>
					<path class="st2" d="M759.8,1691.5c-71.8,11.8-104.1-6.1-100.6-21.6l-68-557.4l-28.3,528.6c-68.6,28.2-123-16.6-123-16.6
						L375,850.3l40.6-33.2c0,0,395.9-91.2,404.3,37.9C828.2,984,759.8,1691.5,759.8,1691.5z"/>
					<g>
						<path class="st3" d="M595.8,1093.9c0.1,0,0.1,0,0.2,0c1-0.1,1.8-0.9,1.8-2l-3.8-69.6c-0.1-1-0.9-1.8-2-1.8
							c-1,0.1-1.8,0.9-1.8,2l3.8,69.6C594.1,1093.1,594.9,1093.9,595.8,1093.9z"/>
					</g>
				</g>
			</g>
		</g>
	</g>
	<g>
		<g id="Layer_1_00000142153111015789414830000016642704930735312548_">
			<path class="st4" d="M354.5,667c0,0,0,111.5,5.4,167.2s16.8,113.5,16.8,113.5s19.9,19.7,41,31.3s54.2,22.8,54.2,22.8l61.8-68
				l93.1,71.6c0,0,97.2-36.3,149.5-62.2s57.6-40.1,57.6-40.1s-6-32.4-3.6-92s11.8-86.8,11.8-86.8S929,789.9,948.2,783
				c20.7-7.5,38.5-29.5,72.5-56.4s95-98,95-98l-76.7-73.4c0,0-10.7,7.6-29.5,20.2s-44.8,19.2-44.8,19.2s-22.8-45.7-44.3-86.9
				s-17-55.5-60.9-83.3S781.7,376,781.7,376l-197-57.8c0,0-46.1,7.2-90.4,28.6s-93.6,37.1-116.4,66.3s-57.3,66.7-82.4,91.8
				s-70.7,62.7-70.7,62.7l-31.3-34.5L89.8,569.9c0,0,16,52.6,27.6,80.8s30.3,64.6,87.6,68.2s88.2-17.9,105.2-26S354.5,667,354.5,667
				z"/>
			<path class="st5" d="M376.9,500.2c-2.9,5.3-4.1,11.2-5.2,17c-1.3,6.9-2.9,13.8-4.3,20.7c-3.1,15.7-6.7,31.4-9.2,47.2
				c-4.9,31.1-6.5,63-6.1,94.5c0.3,18.6,2,37,3,55.5c0,0.4,0.4,0.7,0.8,0.6c0.3,0,0.6-0.3,0.6-0.6c0.7-15.9-1-31.7-0.7-47.6
				s0.7-31.6,1.4-47.3s1.6-31.3,3.4-46.9c1.8-15.8,4.9-31.2,7.7-46.8c1.4-7.8,3.2-15.5,4.4-23.3c1.2-7.5,1.5-15.5,5.1-22.4
				C378.1,500.1,377.2,499.6,376.9,500.2z"/>
			<path class="st5" d="M242.3,588c-5.2-6-10.4-11.7-15-18.3c-4.3-6.1-8.5-11.8-14.4-16.5c-0.6-0.5-1.3,0.5-0.8,1
				c5.5,5.2,9.7,11.9,13.6,18.3c3.9,6.1,8.2,11.9,13,17.3c5,6,9.6,12.5,13.5,19.3c4.2,7.2,7.5,15,11.6,22.2c0,0.1,0.2,0.2,0.3,0.1
				s0.2-0.2,0.1-0.3l0,0C261.3,615.1,252.9,600.2,242.3,588z"/>
			<path class="st5" d="M1003.6,577.5c-4.3,1-8.4,3.1-12.4,4.8c-4.7,2-9.4,3.8-14.1,5.5c-8.8,3.2-17.7,6.5-26.6,9.5
				s-17.9,5.9-26.8,8.9c-8.8,2.9-17.6,6.2-26.8,7.5c-1,0.1-0.8,1.8,0.2,1.7c9.3-0.3,18-3.3,26.9-5.6c9.5-2.5,19-5.2,28.2-8.3
				c8.9-3,17.8-6.1,26.3-10c4.5-2,9.1-4.1,13.5-6.4c4-2,8.4-4,11.9-7c0.2-0.2,0.2-0.4,0.1-0.6C1004,577.5,1003.8,577.4,1003.6,577.5
				z"/>
			<path class="st5" d="M877.2,744.7c-8.1-7.9-17.5-13.2-26.9-19.2S832,712.6,823,705.9s-18.4-12.7-27.2-19.5
				c-8.5-6.6-15.5-15.1-25.1-20.3c-0.3-0.1-0.6,0-0.7,0.2c-0.1,0.2,0,0.5,0.2,0.7c8.8,6.8,15.7,15.8,24.4,22.9
				c8.3,6.7,17.2,12.8,25.8,19.2c8.8,6.7,17.5,13.3,26.7,19.4c4.7,3.1,9.7,5.9,14.6,8.7s9.5,6.2,14.4,9
				C877,746.7,878,745.5,877.2,744.7z"/>
			<path class="st6" d="M540.6,843c0,0,24.8-50.4,86.6-123.6s90-96.7,90-96.7l-25.9-50.5l67.8-8.6c0,0,28.2-88.4,34.6-132.3
				s4.7-60.4,4.7-60.4s-56.3-66.7-122.8-77.2s-54-0.3-54-0.3s-77.4,1.1-124,127.9C478.9,472,466,497.4,466,497.4l59.1,19.9
				l-51.7,25.4c0,0-8.7,28.7,11.4,119.2S540.6,843,540.6,843z"/>
			<path class="st7" d="M593.6,350.7c0,0-17.5,17.5-40.3,92S531.2,601.2,529.2,663s10.1,165.2,10.1,165.2s43.7-129.2,88-210.3
				s150.8-232,150.8-232L593.6,350.7z"/>
			<path class="st5" d="M832.3,905.5c-5.2,3.8-9.9,8.3-15,12.2c-5.7,4.4-11.7,8.4-17.9,12.2c-11.7,7-23.9,13.3-36.4,18.8
				c-28.3,12.7-57.3,23.8-86.3,34.9c-16.6,6.4-33.3,12.4-50,18.6c-15.2-11.3-30.5-22.5-45.6-33.8c-8-5.9-15.9-11.9-23.8-17.9
				c-7.8-6-15.3-12.7-23.6-18c-0.5-0.3-1.1-0.1-1.4,0.3c-0.1,0.1-0.1,0.2-0.1,0.3c-2.7,2-4.9,4.8-7.2,7.2l-7.7,8.3
				c-5.5,5.9-10.8,11.8-16.2,17.8c-9.7,10.8-19.4,21.7-28.9,32.8c-8.7-1.4-16.8-4.9-24.8-8.5c-8.6-3.9-17.2-7.6-25.8-11.5
				c-7.9-3.6-15.3-8.1-22.1-13.5c-3.5-2.7-7.1-5.5-10.6-8.2s-7.1-6.3-11.2-8.5c-0.2-0.1-0.5,0-0.6,0.2c-0.1,0.2-0.1,0.4,0.1,0.5
				c3,3.5,7.1,6.2,10.6,9.1s7.2,6,10.8,8.9c6.8,5.5,14.3,10.2,22.2,13.9c8.6,4.1,17.2,8.3,25.9,12.3c7.6,3.6,15.2,7,23.6,8.6
				c0.2,0.6,0.9,0.9,1.5,0.7c0.2-0.1,0.4-0.2,0.5-0.4c10.1-11.6,20.6-22.9,30.9-34.3c5.2-5.8,10.4-11.6,15.6-17.4l7.5-8.6
				c2.2-2.6,4.9-5.1,6.7-8c6.7,6.3,14.4,11.7,21.7,17.4c8,6.2,16,12.4,24.1,18.5c15.4,11.7,30.6,23.4,46,35c0.2,0.4,0.6,0.7,1,0.8
				l0.2,0.2c0.7,0.5,1.7,0.4,2.3-0.3c0.2-0.2,0.3-0.4,0.3-0.7c29.5-11.1,58.9-22.6,88.2-34.4c27.2-11,55-21.6,80.3-36.7
				c6.6-3.9,12.9-8.2,19-12.8c5.9-4.5,12.1-9.5,16.6-15.5C833.4,905.8,832.8,905.2,832.3,905.5z"/>
			<path class="st5" d="M798.7,386.4c0-0.3-0.2-0.5-0.5-0.5s-0.5,0.2-0.5,0.5c-2.2,23.5-5.9,46.8-11.2,69.8
				c-5.5,23-12,45.7-18.4,68.4c-3.5,12.4-6.9,24.9-10,37.5c-11,0.7-22,2.1-32.8,3.7c-5.8,0.8-11.5,2-17.2,3.1
				c-5.1,1-11.4,1.4-16.1,3.8c-0.4-0.3-1.1,0-0.9,0.5c3.1,8.3,7.9,16,12,23.8c4.6,8.3,8.4,17,11.3,26c0.1,0.2,0.2,0.4,0.3,0.6
				c-26.2,25.3-51.3,51.5-75.5,78.8c-6.2,7.1-12.4,14.3-18.5,21.6c-5.9,7-11.3,14.3-17,21.4c-11.2,13.9-22,28.2-32.2,42.9
				c-11.3,16.3-21.4,33.4-31.3,50.5c-7.5-20.4-14.4-40.9-21.3-61.5c-3.6-10.8-7.3-21.6-10.8-32.4c-1.7-5.2-3.1-10.4-4.5-15.7
				c-1.4-5.5-2.2-11.2-4.2-16.5c-1.1-4.5-2.7-9-3.9-13.4c-1.6-5.6-3-11.2-4.4-16.8c-2.7-10.8-5-21.7-7-32.7
				c-4-22.6-6.8-45.4-8.3-68.2c-0.9-12.1-1-24.5-2.8-36.5c1.9-0.1,3.2-1.1,5-2c2.3-1.2,4.7-2.3,7.1-3.5c4.7-2.3,9.4-4.7,14.1-7
				c4.7-2.4,9.4-4.7,14.1-7.1c4.2-2.2,9-4.1,12.8-6.9c0.5-0.4,0-1.2-0.6-1l-0.7,0.2c0.4-0.5,0.3-1.3-0.3-1.7
				c-0.1-0.1-0.2-0.1-0.3-0.2c-9.4-3.5-18.9-6.7-28.4-9.8c-5.1-1.6-10.1-3.3-15.2-4.9c-4.5-1.4-9.2-3.1-13.8-4.1
				c15.9-43.7,35.5-85.9,58.6-126.2c6.7-11.7,13.5-23.3,20.5-34.9c0.2-0.3,0.1-0.7-0.2-0.9c-0.3-0.2-0.7-0.1-0.9,0.2
				c-27,39.1-49,81.6-67.3,125.5c-5.2,12.4-10.1,25-14.6,37.7c-0.6,1.7,1.7,2.5,2.7,1.3c4.1,1.7,8.5,2.8,12.7,4.1
				c5.3,1.7,10.5,3.4,15.8,5.1c9.7,3.2,19.4,6.2,29.3,8.9c-3.9,1.4-7.8,3.6-11.5,5.3c-4.6,2.1-9.1,4.3-13.7,6.5s-9.1,4.3-13.6,6.5
				c-2.4,1.1-4.7,2.3-7.1,3.4c-1.8,0.8-3.7,1.4-5.2,2.7c-0.5-0.5-1.3-0.5-1.8,0c-0.2,0.2-0.3,0.5-0.4,0.8
				c-0.4,11.6,1.1,23.4,1.8,34.9s1.6,22.8,3.1,34.2c2.8,22.6,6.7,45,12,67.1c1.5,6.3,3.1,12.5,4.8,18.7c1.7,6,3.1,12.4,5.7,18.2
				c0,0,0,0,0,0.1c1.1,9.5,4.3,19.2,7.2,28.1c3.7,11,7.4,21.9,11.1,32.9c7.2,21.5,14.4,43.1,22.4,64.3v0.1c-0.9,1.5,1.5,3,2.3,1.4
				c0.1-0.1,0.2-0.3,0.2-0.4c0.1-0.1,0.2-0.2,0.2-0.4c8.4-16,18.2-31.3,28.2-46.3c10.2-15.3,20.8-30.3,32-44.8s23.5-28.7,35.7-42.6
				c12-13.7,24.4-27.1,37-40.4c14.1-14.8,28.3-29.6,42.5-44.4c0.7-0.3,1.1-1.1,0.8-1.8c0,0,0,0,0,0c-2.8-8.7-7-16.9-11.3-24.8
				s-8.6-15.8-13.3-23.3c4.7,0.1,9.9-1.7,14.5-2.5c5.7-1,11.5-1.8,17.3-2.7c11.3-1.7,22.7-2.8,34.2-3.9c0.7,0.3,1.4,0.1,1.8-0.5
				c0.4-0.4,0.5-0.9,0.5-1.5c11.4-45.8,27.3-90.6,34.5-137.4C797.8,412.7,798.8,399.6,798.7,386.4z"/>
			<path class="st8" d="M658.4,193.4c0,0-53.2,144.8-58.7,159.1s74.1,12.7,22.2,32.2c0,0,20.1,6.4,77.9,13.4
				c92.5,11.3,41.9,5.4,58.9-14.1c0,0,3.9,5.2,4.5-20.1c0.8-30.3,17.1-157.3,17.1-157.3L658.4,193.4z"/>
			<path class="st9" d="M658.4,193.4l122,13.3c0,0-7.4,57.4-12.5,104.2c-9.1,8.1-19.1,15.2-29.7,21.2
				c-24.4,13.7-47.7,12.4-68.3,10.1c-25.1-2.7-42.3-15-53.7-34.3C633.7,260.5,658.4,193.4,658.4,193.4z"/>
			<path class="st10" d="M663.4,393.3l35.2,47.3l74.9-47.4l4.4-7.3c0,0-8.7-4.2-12.9-6.1C765,379.7,722,399.4,663.4,393.3z"/>
			<path class="st10" d="M662.2,393.1c-29.1-3.2-57.3-12.4-82.8-26.9l-3.4,11.2l35.8,52.7L662.2,393.1z"/>
			<path class="st11" d="M671.3,443.3l26.3-25.9l-32.2-36l-43.5,28.4l17.4,31c0,0-77.4,189-104.7,267.9c-1.6,4.9-3,9.8-4.2,14.7
				c2.8,52.5,8.9,104.8,8.9,104.8s18.7-55.4,44.1-116.4C583.3,711.8,596.1,579.7,671.3,443.3z"/>
			<polygon class="st7" points="768.7,337.4 665.7,380 599.3,330.7 572,365.4 577.7,372 615.8,416.1 665.1,385.1 699.5,426.5 
				779.3,385.2 			"/>
			<path class="st8" d="M793.4,164.8c0,0,5.1-15.2,25.4-13.6c19.7,1.6,13.4,52.1-3.9,60.6s-23.1-16.6-23.1-16.6L793.4,164.8z"/>
			<path class="st8" d="M602.9,166.2c0,0-5.3-15.1-25.6-13.2c-19.6,1.9-12.6,52.3,4.8,60.5s22.9-16.9,22.9-16.9L602.9,166.2z"/>
			<path class="st8" d="M579.8,162.4c10.7,107.9,45.6,159.5,118.5,159s107.6-43.6,116.1-160.7c6.3-86.5-45.7-139.5-118.3-139
				S570.9,72.8,579.8,162.4z"/>
			<path class="st12" d="M751.6,178.5c0,4.1,2.9,7.4,6.5,7.4s6.4-3.4,6.4-7.4s-2.9-7.4-6.5-7.4S751.5,174.4,751.6,178.5z"/>
			<path class="st12" d="M634.6,179.4c0,4.1,2.9,7.4,6.5,7.4s6.4-3.4,6.4-7.4s-2.9-7.4-6.5-7.4S634.5,175.3,634.6,179.4z"/>
			<path class="st13" d="M779.9,154.8c2.1,0,3.8-1.8,3.8-3.9c0-0.9-0.4-1.9-1-2.6c-6-6.6-20.9-20.5-42.1-6.3c-1.8,1-2.5,3.3-1.6,5.2
				c1,1.9,3.3,2.6,5.2,1.6c19.2-10,32.8,4.5,32.9,4.7C777.8,154.4,778.8,154.8,779.9,154.8z"/>
			<path class="st13" d="M614,156c-2.1,0-3.8-1.7-3.9-3.8c0-1,0.3-1.9,1-2.6c5.9-6.7,20.6-20.8,42-6.9c1.8,1,2.6,3.2,1.7,5.1
				c-1,1.9-3.3,2.7-5.2,1.7c-19.4-9.7-32.7,5-32.8,5.1C616.1,155.5,615.1,156,614,156z"/>
			<path class="st9" d="M692.7,241.3c5.4-0.2,9.7-1.7,11.6-5.7c6.2-12.5-5.8-32.4-7-34.8c-0.8-1.7-1.9-2.7-3.6-1.9s-1,3-0.3,4.7
				c3.7,8,6,22.9,2.8,28.7c-0.5,1-1.5,2.1-4.1,2.3c-1.9,0.2-3.2,1.8-3.1,3.7C689.1,241.5,692.6,241.3,692.7,241.3z"/>
			<path class="st13" d="M741.6,293.6l4.7,13.4c0,0-16,20.1-48.2,20.3s-43.3-10.7-48.5-17.5l3.9-15.6c0,0,2.6,8.7,7.3,9.8
				c24.2,5.8,45.1,8.4,72.4-0.5C733.3,303.5,740.5,297.4,741.6,293.6z"/>
			<path class="st13" d="M698.2,246.9c0,0-21.5,2-29.8,3.8c0,0-5,1.9-4.9,14.1l35-3.1c0,0,22,1,33.2,4.1c0,0,1-11.2-4.2-14.2
				S709.3,248.4,698.2,246.9z"/>
			<path class="st14" d="M729.3,279.6c0,0-0.3-0.1-0.7-0.2c-0.2-0.1-0.5-0.1-0.9-0.2s-0.8-0.2-1.2-0.2s-1-0.1-1.5-0.2
				s-1.2-0.1-1.8-0.1s-1.3,0-2.1,0h-1.1l-1.2,0.1c-0.8,0.1-1.6,0.1-2.5,0.2l-2.6,0.4c-0.9,0.1-1.8,0.3-2.7,0.4s-1.8,0.3-2.7,0.4
				s-1.8,0.3-2.8,0.4c-0.5,0-0.9,0.1-1.4,0.1s-0.9,0.1-1.4,0.1c-0.9,0-1.9,0.1-2.8,0.1c-0.5,0-0.9,0-1.4,0s-1,0-1.4,0
				c-1,0-1.9-0.1-2.9-0.2s-1.9-0.1-2.9-0.3s-1.9-0.3-2.9-0.5s-1.9-0.3-2.9-0.5c-1.9-0.3-3.8-0.8-5.7-1.1s-3.6-0.6-5.2-0.8
				c-0.8-0.1-1.6-0.2-2.3-0.3s-1.5-0.1-2.1-0.1c-1.3-0.1-2.5-0.1-3.4-0.1h-2.2h-0.8l-0.1-0.4l0.7-0.2c0.5-0.2,1.1-0.4,2-0.7
				s1.9-0.7,3.1-1.2l1.9-0.8c0.7-0.3,1.4-0.6,2.1-0.9c1.5-0.6,3.1-1.4,4.9-2.1c0.9-0.4,1.8-0.7,2.8-1.1s1.9-0.7,2.9-1.1
				c0.5-0.2,1-0.3,1.5-0.5s1-0.3,1.6-0.5c1.1-0.3,2.2-0.5,3.3-0.7s2.2-0.4,3.4-0.5s2.3-0.1,3.5-0.2s2.3,0,3.5,0s2.3,0.2,3.5,0.4
				c0.6,0.1,1.1,0.2,1.7,0.3s1.1,0.3,1.7,0.4c1.1,0.3,2.2,0.6,3.2,1c0.5,0.2,1,0.4,1.5,0.6s1,0.4,1.5,0.6c1,0.4,1.9,0.9,2.8,1.3
				s1.7,0.9,2.5,1.4s1.5,1,2.2,1.4l1,0.6l1,0.6l0.9,0.6c0.3,0.2,0.6,0.4,0.8,0.6l1.4,1l1.2,0.9c0.4,0.3,0.7,0.5,0.9,0.7
				s0.5,0.4,0.7,0.6c0.2,0.2,0.3,0.3,0.5,0.5L729.3,279.6z"/>
			<path class="st8" d="M1028.5,574.6c2.5-17.8,15.2-34,54.6-37.6s79,5.6,82.4,15.4s-0.6,15.2-20,15.2s-30.8,1-30.8,1
				s5.1,26.3,13,40.9s10.8,16.5,10.8,16.5s27-19.3,41.9-17.1s21.2,14,6,24.1s-34.2,17.8-34.2,17.8c6.9,3.6,14.1,6.5,21.6,8.8
				c13,4.1,12.4,21.9-2.2,23.5s-27.9-6.7-40.9-12.4c-7.7-3.3-14.7-8.1-20.6-14c0,0-10.8,1.3-16.5,0.6l-5.7-0.6
				c-4,4.5-9.9,6.8-15.8,6.3c-10.5-0.6-23.5-12.4-32.7-33.3S1028.5,574.6,1028.5,574.6z"/>
			<path class="st8" d="M1075.5,625.3c0.3-1,24.4-27.9,34.6-25.7s18.4,11.4,5.7,28.9s-20.6,22.3-21.6,22.2
				S1075.5,625.3,1075.5,625.3z"/>
			<path class="st9" d="M1154.1,633.5c-7.8-6.4-19-5.5-28.4-5.3c-0.4,0-0.7,0.4-0.6,0.8c0,0.3,0.3,0.6,0.6,0.6
				c8,0.2,17.6,0.9,24.6,5.1c4.3,2.6,6.1,7,3.2,11.5c-2.6,3.9-6,5.8-10.4,7c-8.9,2.5-18.5,2.6-27.7,2.5c-4.8,0-9.5,0-14.3,0
				c-2.4,0-5.5,0.3-8.3,0c1.1-1,2.3-2,3.4-3.1c3.5-3.2,7.5-6.1,10.8-9.5c2.8-3.1,5.4-6.4,7.9-9.9c2.4-3.2,4.5-6.7,6-10.5
				c2.6-6.1,4.7-14-0.1-19.6s-12.6-5.9-18.9-2.8c-4.5,2.2-8.3,5.8-12,9.1s-6.3,7.7-10.1,11c-0.7,0.6,0.2,1.7,0.9,1.2
				c7.6-5.6,13.3-13.5,21.9-17.9c4.1-2.1,8.9-3,13-0.4c4.5,2.8,5,7.4,3.9,12.1c-2.2,8.8-7.4,15.6-12.9,22.6
				c-3,3.9-7.1,6.9-10.6,10.3c-1.9,1.8-3.7,3.6-5.6,5.4c-0.4,0.3-0.8,0.7-1.2,1h-0.1c-1.6-0.8-3.1,1.4-2,2.4c-0.5,0.9-1,1.7-1.7,2.4
				c-0.1,0.1-0.1,0.2,0,0.2c0,0,0.1,0.1,0.2,0c1.3-0.8,2.6-1.1,3.9-1.7c3.3,0.8,7,0.5,10.3,0.5c6.4,0.2,12.8,0.1,19.2,0
				c5.6-0.1,11.1-0.4,16.7-1.1c4.9-0.6,10.4-1.5,14.9-3.9C1157.9,649.5,1161.4,639.5,1154.1,633.5z"/>
			<path class="st8" d="M183.8,555.4c11.8-13.5,15.7-33.7-7.2-65.8s-55.9-56.1-65.6-52.3s-11.1,10.4,1.6,25.1s19.4,23.9,19.4,23.9
				s-23.2,13.4-39.4,16.9S73,505.8,73,505.8s-3-33-14.4-42.9s-24.5-6.9-22.2,11.2s8.9,37.5,8.9,37.5c-7.2-2.9-14.2-6.4-20.8-10.5
				c-11.6-7.1-24.6,5-16.3,17S31.5,535,44.3,541c7.5,3.6,15.7,5.8,24,6.5c0,0,6.1,9,10.3,12.9l4.2,3.9c-0.8,6,1.3,11.9,5.6,16.1
				c7.3,7.5,24.7,9.7,46.5,2.9S183.8,555.4,183.8,555.4z"/>
			<path class="st8" d="M114.7,553.1c0.5-0.9,5.1-36.7-3.2-42.9s-20.7-6.4-25.6,14.6c-4.9,21-3.4,30.2-2.7,30.9
				S114.7,553.1,114.7,553.1z"/>
			<path class="st9" d="M57.2,499c10,1.7,16.6,10.8,22.6,18c0.6,0.7-0.4,1.6-1,0.9c-5.4-5.9-12.2-12.8-20-15.3
				c-4.8-1.5-9.3,0-10.7,5.1c-1.2,4.5-0.5,8.3,1.5,12.5c4,8.4,10.2,15.7,16.2,22.6c3.1,3.6,6.2,7.2,9.4,10.8
				c1.6,1.8,3.4,4.4,5.4,6.3c0-1.5,0.1-3,0.1-4.6c0.1-4.7-0.3-9.6,0.1-14.3c0.5-4.2,1.3-8.3,2.3-12.4c0.8-3.9,2.2-7.8,4-11.4
				c2.9-5.9,7.5-12.8,14.9-12.7s12.7,5.6,14.5,12.5c1.3,4.8,1,10.1,1,15s-1.7,9.8-1.7,14.8c0,0.9-1.4,1-1.5,0.1
				c-0.8-9.4,1.5-18.9-0.8-28.3c-1.1-4.4-3.6-8.7-8.2-10.1c-5-1.5-8.8,1-11.7,5c-5.2,7.4-6.9,15.8-8.7,24.5c-1,4.8-0.6,9.8-0.8,14.8
				c-0.1,2.6-0.3,5.2-0.4,7.7c0,0.5,0,1,0,1.6h0.1c1.7,0.7,1,3.2-0.5,3.1c-0.4,0.9-0.6,1.9-0.7,2.8c0,0.1-0.1,0.2-0.2,0.2
				c-0.1,0-0.2-0.1-0.2-0.2c-0.3-1.5-0.9-2.7-1.2-4c-2.8-1.9-5-5-7.2-7.5c-4.3-4.7-8.5-9.6-12.6-14.5c-3.6-4.2-7-8.7-10.1-13.3
				c-2.8-4.1-5.7-8.8-6.7-13.8C42.5,506.6,47.8,497.4,57.2,499z"/>
		</g>
	</g>
</g>
</svg>
