<svg xmlns="http://www.w3.org/2000/svg" viewBox="0 0 400 400">
  <defs>
    <style>
      .cls-1, .cls-11, .cls-12, .cls-14 {
        fill: #343438;
      }

      .cls-2 {
        fill: #453878;
      }

      .cls-3 {
        fill: #6154c7;
      }

      .cls-4 {
        fill: #9987ff;
      }

      .cls-5 {
        fill: #e5c19e;
      }

      .cls-6 {
        fill: #fccb2b;
      }

      .cls-7 {
        fill: #fc3;
      }

      .cls-8 {
        fill: #ffb762;
      }

      .cls-9 {
        fill: #fddb6b;
      }

      .cls-10, .cls-20 {
        fill: #cacad4;
      }

      .cls-11 {
        opacity: 0.29;
      }

      .cls-12 {
        opacity: 0.42;
      }

      .cls-13 {
        fill: #9b9ba7;
      }

      .cls-14 {
        opacity: 0.18;
      }

      .cls-15 {
        fill: #ff8f00;
      }

      .cls-16 {
        fill: #fbd872;
      }

      .cls-17 {
        fill: #f29100;
      }

      .cls-18 {
        fill: #007373;
      }

      .cls-19 {
        fill: #1fab7a;
      }

      .cls-20 {
        opacity: 0.36;
      }

      .cls-21 {
        fill: #fff;
        opacity: 0.08;
      }
    </style>
  </defs>
  <g id="Fondue">
    <g>
      <polyline class="cls-1" points="244.06 129.57 338.73 87.33 339.99 90.15 245.32 132.39 244.06 129.57"/>
      <path class="cls-1" d="M238.71,132.17a1.4,1.4,0,1,1,1.1,2.46l-10.22,4.56c-.28.12-.36.42-.15.55a5.51,5.51,0,0,0,5,0l8.9-4c2.58-1.15,4-3.66,3.09-5.61s-3.66-2.59-6.24-1.44l-8.9,4a5.51,5.51,0,0,0-3.3,3.74c0,.24.24.38.51.26l10.22-4.56"/>
      <path class="cls-2" d="M364.21,83.51l-55.14,24.6a4.75,4.75,0,0,1-5.65-1.38,5.2,5.2,0,0,1-.61-1l-.49-1.11a4.74,4.74,0,0,1,2.39-6.26l55.14-24.6a4.73,4.73,0,0,1,6.26,2.4l.5,1.11a4.75,4.75,0,0,1-2.4,6.26"/>
      <path class="cls-3" d="M307.14,108.52a4.77,4.77,0,0,1-3.72-1.79c43.63-12,57.88-33.38,57.88-33.38h0l.48,0a4.75,4.75,0,0,1,4.33,2.81l.5,1.11a4.74,4.74,0,0,1-2.4,6.26l-55.14,24.6a4.68,4.68,0,0,1-1.93.41"/>
      <path class="cls-4" d="M307.05,101.23c-.55,0-.91-.13-1-.38-.32-.72,1.48-2.22,4-3.36a11.52,11.52,0,0,1,4.16-1.13c.54,0,.91.13,1,.38.32.72-1.48,2.22-4,3.36a11.48,11.48,0,0,1-4.15,1.13"/>
      <polyline class="cls-1" points="155.94 129.57 61.27 87.33 60.01 90.15 154.68 132.39 155.94 129.57"/>
      <path class="cls-1" d="M161.29,132.17a1.4,1.4,0,1,0-1.1,2.46l10.22,4.56c.28.12.36.42.15.55a5.51,5.51,0,0,1-5,0l-8.9-4c-2.58-1.15-4-3.66-3.09-5.61s3.66-2.59,6.24-1.44l8.9,4a5.51,5.51,0,0,1,3.3,3.74c0,.24-.24.38-.51.26l-10.22-4.56"/>
      <path class="cls-2" d="M35.79,83.51l55.14,24.6a4.75,4.75,0,0,0,5.65-1.38,5.2,5.2,0,0,0,.61-1l.5-1.11a4.75,4.75,0,0,0-2.4-6.26L40.15,73.74a4.73,4.73,0,0,0-6.26,2.4l-.5,1.11a4.75,4.75,0,0,0,2.4,6.26"/>
      <path class="cls-3" d="M92.86,108.52a4.68,4.68,0,0,1-1.93-.41L35.79,83.51a4.74,4.74,0,0,1-2.4-6.26l.5-1.11a4.75,4.75,0,0,1,4.33-2.81l.48,0h0S53,94.68,96.58,106.73a4.77,4.77,0,0,1-3.72,1.79"/>
      <path class="cls-4" d="M93,101.23a11.48,11.48,0,0,1-4.15-1.13c-2.54-1.14-4.34-2.64-4-3.36.11-.25.48-.38,1-.38A11.52,11.52,0,0,1,90,97.49c2.54,1.14,4.34,2.64,4,3.36-.12.25-.48.38-1,.38"/>
      <path class="cls-5" d="M210.81,130.46,223.53,125a6.37,6.37,0,0,1,7.69,2.13c3.69,5.13,9.36,13.81,9.15,18.49-.31,6.93-17.08,12.49-22.12,10.08-3.25-1.55-7.85-10.52-10.7-16.71a6.35,6.35,0,0,1,3.26-8.51"/>
      <path class="cls-6" d="M238.59,157.69s-6.36,16.82,0,16.05,0-16.05,0-16.05Z"/>
      <path class="cls-7" d="M232,167.94c1.27,13.65,2.87,25-5,24.57a3.33,3.33,0,0,1-1.25-.3h0c-6-2.73-1.13-23-2.05-26.27-.66-2.28-2.06-3.64-3.32-3.23a3.14,3.14,0,0,0-1.7,2.08c-1.37,3.61,3.33,11-4,11-2,0-3-.58-3.55-1.59-1.92-3.66,3.21-12.92-1.91-20.15-4.63-6.54-4.9-14.72-4.66-18.92a7.49,7.49,0,0,1,3.32-5.81c3.88-2.59,10.22-4.84,13.37-5.87a12.15,12.15,0,0,1,5.89-.46c5.5,1,9,5.05,11.46,10,2.29,4.56,3.79,9.87,5.32,14.2,3.58,10.1-13.23,7-12,20.68"/>
      <path class="cls-8" d="M229.3,192.21h-2.54c10.27-.82-8-25.56,2.53-32.11,10.9-6.75,9.3-27,9.3-27,2.29,4.56,3.79,9.87,5.32,14.2a7.65,7.65,0,0,1,.5,2.59c0,6.79-12.52,5.86-12.53,16.66a14.1,14.1,0,0,0,.07,1.43c.5,5.4,1.06,10.43,1.06,14.52,0,5.07-.85,8.69-3.71,9.75"/>
      <path class="cls-8" d="M214.67,175.83c-2,0-3-.58-3.55-1.59a3.14,3.14,0,0,0,1,.17c6,0,5.8-21.45,5.8-21.45,1.07,7.14,2.47,9.75,2.47,9.75a3.14,3.14,0,0,0-1.7,2.08,4.86,4.86,0,0,0-.27,1.76c0,1.71.51,3.76.51,5.49,0,2.13-.77,3.79-4.22,3.79"/>
      <path class="cls-9" d="M208,142.73a.36.36,0,0,1-.38-.32c-.43-3.43,1.06-9.15,2.28-10.64,2.43-3,9.22-5.1,12.33-5.94l.14,0a.51.51,0,0,1,.37.84c-2.16,2.38-7.06,7.49-10.5,8.89-2.94,1.2-3.7,4.61-3.87,6.85a.35.35,0,0,1-.37.34"/>
      <path class="cls-10" d="M277.61,203.62v13.45a67.88,67.88,0,0,1-67.88,67.87H200a67.85,67.85,0,0,1-67.87-67.87V203.62H277.61"/>
      <path class="cls-10" d="M282.6,197.91a5.7,5.7,0,0,1-5.71,5.71H132.8a5.71,5.71,0,0,1,0-11.41H276.89a5.7,5.7,0,0,1,5.71,5.7"/>
      <path class="cls-11" d="M148.23,248.76s-19-24-6.54-40.88c0,0-5.33,18.79,6.54,40.88"/>
      <path class="cls-12" d="M151,240c-2,0-4.38-5.9-5.33-13.41s-.08-14.07,2-14.33h.13c2,0,4.38,5.91,5.32,13.41,1,7.66.09,14.08-2,14.34H151"/>
      <path class="cls-13" d="M209.73,284.94H200a67.55,67.55,0,0,1-38.33-11.85v-9.23c5.66.52,11,.76,16.07.76,66.68,0,81.65-42.11,80.17-50.54-1.66-9.51-125.07-10.46-125.07-10.46H277.61v13.45a67.88,67.88,0,0,1-67.88,67.87"/>
      <path class="cls-1" d="M156.4,269.12a69.24,69.24,0,0,1-7-6.73h0c2.38.35,4.69.66,7,.93v5.8"/>
      <path class="cls-14" d="M220,246.51h-.39s18.38-6.58,29.47-29.08c0,0-8.38,29.08-29.08,29.08"/>
      <path class="cls-13" d="M127.74,200.56h0a5.74,5.74,0,0,1-.65-2.65,5.72,5.72,0,0,1,5.71-5.7H267.71c-49.17.62-139.59,8.32-140,8.35"/>
      <path class="cls-15" d="M204.13,306l-3,0c-3-.05-6.12-.05-8.83-1.47s-4.76-4.17-6.34-7c-2.13-3.86-3.65-8.09-5.6-12.07s-4.43-7.8-7.92-10.17a53.9,53.9,0,0,1,15.76,11.46,11.6,11.6,0,0,0,6.13,3.81c-1-2.35-.31-4,.53-6.4a68.73,68.73,0,0,1,3.29-6.87c1.08-2.22,1.9-5.05.64-7.15a10.1,10.1,0,0,0,1.42,1.43q.73.75,1.44,1.53c.95,1,1.87,2.1,2.76,3.19a83.4,83.4,0,0,1,5,6.86,15,15,0,0,1,1.7,2.91,9.68,9.68,0,0,1,.38,2,3.9,3.9,0,0,0,2.29,3.23c2,.72,4.1-.69,5.48-2.41a14.94,14.94,0,0,0,3.13-9.89,13.27,13.27,0,0,1,3.95,6.78c5.63-2.2,9.89-7.23,13.93-12.08-2.56,4.92-4.32,10.3-6.66,15.36s-5.35,9.95-9.7,13c-5.77,4-12.88,4.18-19.79,4.07Z"/>
      <path class="cls-8" d="M203.88,303.45a29.57,29.57,0,0,1-6.06-1,11.33,11.33,0,0,1-5.27-2.8,18.44,18.44,0,0,1-3.48-6.39,36.43,36.43,0,0,1,3.87,1.9c1.29.57,2.61,1.08,3.95,1.53a4.2,4.2,0,0,0,3.22.12c1.26-.67,1.49-2.3,1.58-3.7q.28-4.54.56-9.09c3,3.17,6.1,6.43,7.85,10.41a2.55,2.55,0,0,0,.82,1.22,2.28,2.28,0,0,0,1.09.3,13.49,13.49,0,0,0,6.46-1.29,40.76,40.76,0,0,0,5.71-3.34l5.1-3.38a86.11,86.11,0,0,1-5.34,7.67,21.19,21.19,0,0,1-7.23,5.9,22.84,22.84,0,0,1-8.34,1.88,37.37,37.37,0,0,1-4.49,0Z"/>
      <path class="cls-16" d="M205.92,302.6s-3.84-.27-5.71-1.61-2.14-2.05-2.14-2.05,5.71,2.32,6.24,0a11,11,0,0,0-.44-5.16s1.69,5.34,4.9,5.16,6.69-.75,6.69-.75-2.68,5-9.54,4.41Z"/>
      <path class="cls-17" d="M206.76,273.55a8.69,8.69,0,0,1,4.58,4.38,9.88,9.88,0,0,1,.53,7c1.17-3.84-3.63-8.71-5.11-11.39Z"/>
      <path class="cls-17" d="M197.61,266.36c-.41,1-1.28,2.19-1.05,3.42s1.23,2,1.46,3.09a2.74,2.74,0,0,1-1.71,3,2.65,2.65,0,0,0,.79-2.25c-.14-1-.9-1.78-1.24-2.72a4,4,0,0,1,1.75-4.54Z"/>
      <path class="cls-17" d="M234,275.54s-3.47,4.71-2.13,4.92.73-3.13,2.13-4.92Z"/>
      <polyline class="cls-18" points="225.53 304.92 225.53 317.75 187.73 317.75 187.73 304.92 225.53 304.92"/>
      <path class="cls-19" d="M225.53,317.75h-37.8v-1.9h.39c24.6,0,37.41-10.94,37.41-10.94v12.84"/>
      <path class="cls-20" d="M191.12,312.94c-.6,0-1.07-1.36-1.07-3s.47-3,1.07-3,1.07,1.35,1.07,3-.48,3-1.07,3"/>
      <path class="cls-5" d="M192.68,129,180,123.54a6.37,6.37,0,0,0-7.68,2.13c-3.7,5.13-9.36,13.81-9.16,18.49.31,6.94,17.08,12.49,22.13,10.09,3.25-1.55,7.84-10.53,10.7-16.71a6.36,6.36,0,0,0-3.26-8.52"/>
      <path class="cls-7" d="M197.39,144.11c-1.47,5.86-5.66,11.08-5.55,17.12,0,2,.54,4,.23,5.91s-1.94,4-3.85,3.55a3.06,3.06,0,0,1-2.15-2.28,5.71,5.71,0,0,1,.31-3.24,6.47,6.47,0,0,0,.67-2.69c-.09-.93-1-1.85-1.89-1.5h0a2.13,2.13,0,0,0-.93,1.07c-2.08,4.08-2.33,8.84-2.12,13.42.11,2.32.28,9.55-1,11.51a5.3,5.3,0,0,1-9.12-.29c-1-1.77-.85-8.66-.63-10.67.36-3.35,1.82-8.25,1.82-11.62,0-3-1.35-4.46-2.69-7.1-.18-.35-.38-.69-.59-1a3.56,3.56,0,0,0-.76-.92c-1-.75-2.32-.5-3.51-.75a5.5,5.5,0,0,1-3.69-3.54,13,13,0,0,1-.82-2.82c-1.85-10.61,3.91-24.9,14.4-27.7a15.63,15.63,0,0,1,8.93.36,19.61,19.61,0,0,1,9.1,6.22h0a18.7,18.7,0,0,1,1.13,1.52c.28.42.55.86.8,1.3a19.71,19.71,0,0,1,1.87,14.16"/>
      <path class="cls-8" d="M188.72,170.74a2.18,2.18,0,0,1-.5-.05,3.06,3.06,0,0,1-2.15-2.28,4.53,4.53,0,0,1-.12-1,6.48,6.48,0,0,1,.43-2.21,7.55,7.55,0,0,0,.68-2.45,1.93,1.93,0,0,0,0-.24c.35,2,.73,2.85,1.11,2.85,2.54,0,5.42-38.21,5.42-38.21h0l1.13,1.52c.28.42.55.86.8,1.3a19.68,19.68,0,0,1,2.43,9.49,19.37,19.37,0,0,1-.56,4.67c-1.45,5.79-5.56,11-5.55,16.91v.21c0,1.52.33,3,.33,4.55a8.89,8.89,0,0,1-.1,1.36c-.27,1.76-1.65,3.6-3.35,3.6"/>
      <path class="cls-8" d="M176.65,189.44h-.16a5.39,5.39,0,0,1-4.47-2.75,3.16,3.16,0,0,0,1.49.42c7.61,0,7.73-36.05,7.73-36.05,1.5,9.22,3.26,9.94,3.77,9.94a.3.3,0,0,0,.14,0,2.13,2.13,0,0,0-.93,1.07A24,24,0,0,0,182,173c0,.83,0,1.66.06,2.48s.07,2,.07,3.35c0,3-.18,6.82-1,8.16a5.39,5.39,0,0,1-4.49,2.46"/>
      <path class="cls-8" d="M170.52,157.3h0c-.18-.35-.38-.69-.59-1a3.56,3.56,0,0,0-.76-.92c-1-.75-2.32-.5-3.51-.75a5.5,5.5,0,0,1-3.69-3.54s3,2.13,5.68,2.13a3.26,3.26,0,0,0,3.22-2.13s.38,4.05-.35,6.24"/>
      <path class="cls-9" d="M164.37,138.92a60.63,60.63,0,0,1,3.37-9.85c2.4-5.75,11.09-6,12.88-6h.32c6.07.69-1.08,8-5.39,8a3.22,3.22,0,0,1-.71-.08,2.81,2.81,0,0,0-.65-.07c-4.12,0-9.82,8-9.82,8"/>
      <path class="cls-1" d="M269.64,257.36H140.05a2.62,2.62,0,0,1,0-5.23H269.64a2.62,2.62,0,1,1,0,5.23Z"/>
      <polyline class="cls-1" points="161.63 319.66 156.4 319.66 156.4 254.74 161.63 254.74 161.63 319.66"/>
      <polygon class="cls-1" points="253.29 319.66 248.06 319.66 248.06 254.74 253.29 254.74 253.29 319.66 253.29 319.66"/>
      <path class="cls-1" d="M265.66,326.67H144a8.93,8.93,0,0,1,8.92-8.92H256.74a8.92,8.92,0,0,1,8.92,8.92"/>
      <path class="cls-21" d="M163.21,322.21c-7.35,0-13.31-.57-13.31-1.27s6-1.28,13.31-1.28,13.32.57,13.32,1.28-6,1.27-13.32,1.27"/>
    </g>
  </g>
</svg>
