<?xml version="1.0" encoding="utf-8"?>
<!-- Generator: Adobe Illustrator 26.0.1, SVG Export Plug-In . SVG Version: 6.00 Build 0)  -->
<svg version="1.1" id="Layer_1" xmlns="http://www.w3.org/2000/svg" xmlns:xlink="http://www.w3.org/1999/xlink" x="0px" y="0px"
	 viewBox="0 0 988.4 974.6" style="enable-background:new 0 0 988.4 974.6;" xml:space="preserve">
<style type="text/css">
	.st0{fill:#3FC9E6;}
</style>
<g>
	<g>
		<g>
			<ellipse class="st0" cx="492.9" cy="42.6" rx="9.1" ry="9.9"/>
			<ellipse class="st0" cx="492.9" cy="79.3" rx="8.3" ry="9.1"/>
			<path class="st0" d="M492.9,124.2c-4.2,0-7.6-3.7-7.6-8.3c0-4.6,3.4-8.3,7.6-8.3s7.6,3.7,7.6,8.3S497.1,124.2,492.9,124.2z"/>
			<path class="st0" d="M492.9,160.1c-3.8,0-6.8-3.3-6.8-7.4s3.1-7.4,6.8-7.4s6.8,3.3,6.8,7.4C499.7,156.8,496.7,160.1,492.9,160.1z
				"/>
			<path class="st0" d="M492.9,196c-3.4,0-6.1-3-6.1-6.6s2.7-6.6,6.1-6.6s6.1,3,6.1,6.6C499,193,496.3,196,492.9,196z"/>
			<ellipse class="st0" cx="492.9" cy="226.1" rx="5.4" ry="5.8"/>
			<path class="st0" d="M492.9,267.8c-2.5,0-4.6-2.2-4.6-5s2.1-5,4.6-5s4.6,2.2,4.6,5S495.5,267.8,492.9,267.8z"/>
			<path class="st0" d="M492.9,303.6c-2.1,0-3.9-1.9-3.9-4.2s1.7-4.2,3.9-4.2c2.1,0,3.9,1.9,3.9,4.2
				C496.8,301.8,495,303.6,492.9,303.6z"/>
			<path class="st0" d="M492.9,339.5c-1.7,0-3.1-1.5-3.1-3.4s1.4-3.4,3.1-3.4s3.1,1.5,3.1,3.4S494.6,339.5,492.9,339.5z"/>
			<ellipse class="st0" cx="492.9" cy="372.8" rx="2.4" ry="2.6"/>
		</g>
	</g>
	<g>
		<g>
			<path class="st0" d="M312.2,159.2c-4.3,2.5-9.4,1.9-11.3-1.5c-1.9-3.3,0.1-8,4.4-10.5c4.3-2.5,9.4-1.9,11.3,1.5
				C318.5,152,316.5,156.7,312.2,159.2z"/>
			<path class="st0" d="M324.8,181c-4,2.3-8.6,1.7-10.4-1.3c-1.8-3,0-7.4,4-9.6c4-2.3,8.6-1.7,10.4,1.3S328.8,178.7,324.8,181z"/>
			<path class="st0" d="M337.3,202.7c-3.6,2.1-7.9,1.6-9.5-1.2c-1.6-2.8,0-6.7,3.7-8.8c3.6-2.1,7.9-1.6,9.5,1.2
				C342.6,196.7,341,200.6,337.3,202.7z"/>
			<path class="st0" d="M349.9,224.5c-3.3,1.9-7.1,1.4-8.5-1.1c-1.4-2.5,0-6.1,3.3-7.9c3.3-1.9,7.1-1.4,8.5,1.1
				C354.6,219.1,353.1,222.6,349.9,224.5z"/>
			<path class="st0" d="M362.4,246.2c-2.9,1.7-6.3,1.2-7.6-1s0-5.4,3-7.1c2.9-1.7,6.3-1.2,7.6,1
				C366.7,241.4,365.4,244.6,362.4,246.2z"/>
			<path class="st0" d="M375,268c-2.6,1.5-5.5,1.1-6.7-0.9c-1.1-2,0-4.7,2.6-6.2c2.6-1.5,5.5-1.1,6.7,0.9
				C378.7,263.7,377.6,266.5,375,268z"/>
			<path class="st0" d="M387.6,289.7c-2.2,1.3-4.8,0.9-5.8-0.7s0-4.1,2.2-5.4c2.2-1.3,4.8-0.9,5.8,0.7
				C390.8,286.1,389.8,288.5,387.6,289.7z"/>
			<path class="st0" d="M400.1,311.5c-1.9,1.1-4,0.8-4.8-0.6c-0.8-1.4,0-3.4,1.9-4.5c1.9-1.1,4-0.8,4.8,0.6
				C402.8,308.4,402,310.4,400.1,311.5z"/>
			<path class="st0" d="M412.7,333.2c-1.5,0.9-3.2,0.6-3.9-0.5s0-2.8,1.5-3.6c1.5-0.9,3.2-0.6,3.9,0.5S414.2,332.4,412.7,333.2z"/>
			<path class="st0" d="M425.2,355c-1.1,0.7-2.5,0.5-3-0.4s0-2.1,1.2-2.8c1.1-0.7,2.5-0.5,3,0.4S426.4,354.3,425.2,355z"/>
		</g>
	</g>
	<g>
		<g>
			<path class="st0" d="M335.9,41c-4.7,1.7-9.9-0.7-11.6-5.5s0.7-9.9,5.4-11.6c4.7-1.7,9.9,0.7,11.6,5.5
				C343.1,34,340.6,39.2,335.9,41z"/>
			<path class="st0" d="M347.3,72.1c-4.3,1.6-9.1-0.7-10.7-5c-1.6-4.3,0.6-9.1,5-10.7c4.3-1.6,9.1,0.7,10.7,5
				C353.8,65.7,351.6,70.5,347.3,72.1z"/>
			<path class="st0" d="M358.6,103.2c-3.9,1.4-8.3-0.6-9.7-4.6c-1.4-3.9,0.6-8.3,4.5-9.8c3.9-1.4,8.3,0.6,9.7,4.6
				S362.5,101.7,358.6,103.2z"/>
			<path class="st0" d="M369.9,134.2c-3.5,1.3-7.5-0.6-8.8-4.1c-1.3-3.6,0.5-7.5,4.1-8.8c3.5-1.3,7.5,0.6,8.8,4.1
				C375.3,129,373.5,133,369.9,134.2z"/>
			<path class="st0" d="M381.2,165.4c-3.2,1.1-6.7-0.5-7.8-3.7s0.5-6.7,3.6-7.8s6.7,0.5,7.8,3.7C386,160.7,384.4,164.2,381.2,165.4z
				"/>
			<path class="st0" d="M392.5,196.5c-2.8,1-5.9-0.4-6.9-3.2c-1-2.8,0.4-5.9,3.2-6.9s5.9,0.4,6.9,3.2
				C396.8,192.4,395.3,195.4,392.5,196.5z"/>
			<path class="st0" d="M403.9,227.6c-2.4,0.9-5-0.4-5.9-2.8s0.4-5.1,2.8-5.9c2.4-0.9,5,0.4,5.9,2.8
				C407.5,224,406.3,226.7,403.9,227.6z"/>
			<path class="st0" d="M415.2,258.7c-2,0.7-4.2-0.3-5-2.3c-0.7-2,0.3-4.2,2.3-5s4.2,0.3,5,2.3C418.2,255.7,417.2,257.9,415.2,258.7
				z"/>
			<path class="st0" d="M426.5,289.8c-1.6,0.6-3.4-0.2-4-1.9c-0.6-1.6,0.2-3.4,1.9-4s3.4,0.2,4,1.9
				C429,287.4,428.1,289.2,426.5,289.8z"/>
			<path class="st0" d="M437.8,320.9c-1.2,0.5-2.6-0.2-3.1-1.4c-0.5-1.2,0.2-2.6,1.4-3.1c1.2-0.5,2.6,0.2,3.1,1.4
				C439.7,319,439.1,320.4,437.8,320.9z"/>
		</g>
	</g>
	<g>
		<g>
			<path class="st0" d="M439.1,167c-4.9,0.9-9.4-0.9-9.9-4s3-6.3,7.9-7.1s9.4,0.9,9.9,4C447.6,162.9,444,166.1,439.1,167z"/>
			<path class="st0" d="M442.6,187.2c-4.5,0.8-8.6-0.8-9.1-3.7c-0.5-2.8,2.8-5.8,7.3-6.6c4.5-0.8,8.6,0.8,9.1,3.7
				C450.4,183.5,447.2,186.4,442.6,187.2z"/>
			<path class="st0" d="M446.2,207.4c-4.1,0.7-7.8-0.8-8.3-3.3c-0.5-2.6,2.5-5.2,6.6-6c4.1-0.7,7.8,0.8,8.3,3.3
				C453.3,204,450.3,206.7,446.2,207.4z"/>
			<path class="st0" d="M449.8,227.7c-3.7,0.7-7.1-0.7-7.5-3c-0.4-2.3,2.3-4.7,6-5.4s7.1,0.7,7.5,3
				C456.2,224.6,453.5,227,449.8,227.7z"/>
			<path class="st0" d="M453.4,247.9c-3.3,0.6-6.3-0.6-6.7-2.7c-0.4-2.1,2-4.2,5.3-4.8s6.3,0.6,6.7,2.7
				C459.1,245.2,456.7,247.3,453.4,247.9z"/>
			<path class="st0" d="M456.9,268.1c-2.9,0.5-5.5-0.5-5.9-2.4c-0.3-1.8,1.8-3.7,4.7-4.2s5.5,0.5,5.9,2.4
				C461.9,265.7,459.8,267.6,456.9,268.1z"/>
			<path class="st0" d="M460.5,288.4c-2.5,0.4-4.8-0.5-5-2c-0.3-1.6,1.5-3.2,4-3.6s4.8,0.5,5,2C464.8,286.3,463,287.9,460.5,288.4z"
				/>
			<path class="st0" d="M464,308.6c-2.1,0.4-4-0.4-4.2-1.7c-0.2-1.3,1.3-2.7,3.4-3c2.1-0.4,4,0.4,4.2,1.7
				C467.7,306.8,466.2,308.2,464,308.6z"/>
			<path class="st0" d="M467.6,328.8c-1.7,0.3-3.2-0.3-3.4-1.4s1-2.2,2.7-2.5c1.7-0.3,3.2,0.3,3.4,1.4S469.3,328.5,467.6,328.8z"/>
			<path class="st0" d="M471.2,349c-1.3,0.2-2.5-0.2-2.6-1c-0.1-0.8,0.8-1.6,2.1-1.9s2.5,0.2,2.6,1C473.4,348,472.5,348.8,471.2,349
				z"/>
		</g>
	</g>
	<g>
		<g>
			<path class="st0" d="M223.1,150.7c-3.8,3.2-9.8,2.4-13.3-1.7c-3.5-4.2-3.2-10.2,0.6-13.4s9.8-2.4,13.3,1.7
				C227.2,141.5,226.9,147.5,223.1,150.7z"/>
			<path class="st0" d="M246.2,178.2c-3.5,2.9-9,2.2-12.2-1.6c-3.2-3.8-3-9.3,0.5-12.3c3.5-2.9,9-2.2,12.2,1.6
				C249.9,169.7,249.7,175.2,246.2,178.2z"/>
			<path class="st0" d="M269.2,205.7c-3.2,2.7-8.2,2-11.1-1.5c-2.9-3.5-2.7-8.5,0.5-11.2c3.2-2.7,8.2-2,11.1,1.5
				C272.7,197.9,272.5,203,269.2,205.7z"/>
			<path class="st0" d="M292.3,233.1c-2.9,2.4-7.4,1.8-10-1.3c-2.6-3.1-2.4-7.7,0.5-10.1c2.9-2.4,7.4-1.8,10,1.3
				C295.4,226.2,295.2,230.7,292.3,233.1z"/>
			<path class="st0" d="M315.4,260.6c-2.6,2.2-6.6,1.6-8.9-1.2c-2.4-2.8-2.2-6.8,0.4-9s6.6-1.6,8.9,1.2
				C318.1,254.4,318,258.5,315.4,260.6z"/>
			<path class="st0" d="M338.4,288.1c-2.3,1.9-5.8,1.4-7.9-1s-1.9-6,0.4-7.9s5.8-1.4,7.9,1C340.9,282.7,340.7,286.2,338.4,288.1z"/>
			<path class="st0" d="M361.5,315.6c-2,1.6-5,1.2-6.8-0.9s-1.6-5.2,0.3-6.8c2-1.6,5-1.2,6.8,0.9C363.6,310.9,363.5,314,361.5,315.6
				z"/>
			<path class="st0" d="M384.6,343.1c-1.6,1.4-4.2,1-5.7-0.7s-1.4-4.4,0.2-5.7c1.6-1.4,4.2-1,5.7,0.7
				C386.3,339.1,386.2,341.7,384.6,343.1z"/>
			<path class="st0" d="M407.6,370.6c-1.3,1.1-3.4,0.8-4.6-0.6s-1.1-3.5,0.2-4.6s3.4-0.8,4.6,0.6C409,367.4,408.9,369.5,407.6,370.6
				z"/>
			<path class="st0" d="M430.7,398c-1,0.9-2.6,0.6-3.5-0.5s-0.9-2.7,0.2-3.5s2.6-0.6,3.5,0.5S431.7,397.2,430.7,398z"/>
		</g>
	</g>
	<g>
		<g>
			<path class="st0" d="M153.3,348.6c-1.7,4.7-6,7.5-9.6,6.1c-3.6-1.3-5.1-6.2-3.4-10.9c1.7-4.7,6-7.5,9.6-6.1
				C153.5,339,155,343.9,153.3,348.6z"/>
			<path class="st0" d="M176.9,357.2c-1.6,4.3-5.5,6.8-8.8,5.6c-3.3-1.2-4.7-5.7-3.1-10c1.6-4.3,5.5-6.8,8.8-5.6
				C177.1,348.4,178.5,352.9,176.9,357.2z"/>
			<path class="st0" d="M200.5,365.8c-1.4,3.9-5,6.2-8,5.1s-4.3-5.2-2.8-9.1c1.4-3.9,5-6.2,8-5.1S201.9,361.9,200.5,365.8z"/>
			<path class="st0" d="M224.1,374.4c-1.3,3.5-4.5,5.6-7.2,4.6c-2.7-1-3.9-4.7-2.6-8.2c1.3-3.5,4.5-5.6,7.2-4.6
				C224.3,367.1,225.4,370.8,224.1,374.4z"/>
			<path class="st0" d="M247.7,383c-1.1,3.2-4,5-6.4,4.1s-3.4-4.1-2.3-7.3c1.1-3.2,4-5,6.4-4.1C247.8,376.5,248.9,379.8,247.7,383z"
				/>
			<path class="st0" d="M271.3,391.5c-1,2.8-3.5,4.4-5.7,3.6c-2.1-0.8-3-3.6-2-6.4s3.5-4.4,5.7-3.6
				C271.4,385.9,272.3,388.8,271.3,391.5z"/>
			<path class="st0" d="M294.9,400.1c-0.9,2.4-3.1,3.8-4.9,3.1c-1.8-0.7-2.6-3.1-1.7-5.5c0.9-2.4,3.1-3.8,4.9-3.1
				C295,395.3,295.8,397.8,294.9,400.1z"/>
			<path class="st0" d="M318.5,408.7c-0.7,2-2.6,3.2-4.1,2.6c-1.5-0.6-2.2-2.6-1.5-4.6c0.7-2,2.6-3.2,4.1-2.6
				C318.6,404.6,319.2,406.7,318.5,408.7z"/>
			<path class="st0" d="M342.1,417.3c-0.6,1.6-2.1,2.6-3.3,2.1c-1.2-0.5-1.8-2.1-1.2-3.8c0.6-1.6,2.1-2.6,3.3-2.1
				S342.7,415.7,342.1,417.3z"/>
			<path class="st0" d="M365.7,425.9c-0.5,1.2-1.6,2-2.5,1.6s-1.4-1.6-0.9-2.9s1.6-2,2.5-1.6C365.8,423.4,366.2,424.7,365.7,425.9z"
				/>
		</g>
	</g>
	<g>
		<g>
			<path class="st0" d="M95.5,242.7c-2.5,4.3-8.1,5.8-12.4,3.3c-4.4-2.5-5.9-8.1-3.4-12.4c2.5-4.3,8.1-5.8,12.4-3.3
				C96.4,232.9,98,238.4,95.5,242.7z"/>
			<path class="st0" d="M124.1,259.3c-2.3,4-7.4,5.3-11.4,3s-5.4-7.4-3.1-11.4c2.3-4,7.4-5.3,11.4-3
				C125,250.2,126.4,255.3,124.1,259.3z"/>
			<path class="st0" d="M152.8,275.8c-2.1,3.6-6.7,4.9-10.4,2.8s-4.9-6.8-2.8-10.4s6.7-4.9,10.4-2.8
				C153.6,267.6,154.9,272.2,152.8,275.8z"/>
			<path class="st0" d="M181.4,292.4c-1.9,3.3-6.1,4.4-9.4,2.5s-4.4-6.1-2.5-9.4c1.9-3.3,6.1-4.4,9.4-2.5
				C182.2,284.9,183.3,289.1,181.4,292.4z"/>
			<path class="st0" d="M210.1,308.9c-1.7,2.9-5.4,3.9-8.4,2.2c-2.9-1.7-3.9-5.4-2.3-8.3s5.4-3.9,8.4-2.2
				C210.8,302.3,211.8,306,210.1,308.9z"/>
			<path class="st0" d="M238.8,325.5c-1.5,2.6-4.8,3.4-7.3,1.9c-2.6-1.5-3.5-4.8-2-7.3c1.5-2.6,4.8-3.4,7.3-1.9
				S240.2,322.9,238.8,325.5z"/>
			<path class="st0" d="M267.4,342c-1.3,2.2-4.1,3-6.3,1.7c-2.2-1.3-3-4.1-1.7-6.3c1.3-2.2,4.1-3,6.3-1.7
				C268,337,268.7,339.8,267.4,342z"/>
			<path class="st0" d="M296.1,358.6c-1.1,1.9-3.4,2.5-5.3,1.4c-1.9-1.1-2.5-3.5-1.4-5.3c1.1-1.9,3.4-2.5,5.3-1.4
				C296.5,354.4,297.2,356.7,296.1,358.6z"/>
			<path class="st0" d="M324.8,375.1c-0.9,1.5-2.8,2-4.3,1.1c-1.5-0.9-2-2.8-1.2-4.3c0.9-1.5,2.8-2,4.3-1.1S325.6,373.6,324.8,375.1
				z"/>
			<path class="st0" d="M353.4,391.7c-0.7,1.1-2.1,1.5-3.3,0.9c-1.1-0.7-1.5-2.1-0.9-3.3c0.7-1.1,2.1-1.5,3.3-0.9
				C353.7,389.1,354.1,390.5,353.4,391.7z"/>
		</g>
	</g>
	<g>
		<g>
			<path class="st0" d="M255.5,273c-3.2,3.8-7.8,5.3-10.1,3.3s-1.7-6.7,1.5-10.6c3.2-3.8,7.8-5.3,10.1-3.3
				C259.4,264.4,258.7,269.1,255.5,273z"/>
			<path class="st0" d="M271.2,286.2c-3,3.5-7.1,4.9-9.3,3c-2.2-1.8-1.6-6.2,1.4-9.7c3-3.5,7.1-4.9,9.3-3
				C274.8,278.3,274.2,282.7,271.2,286.2z"/>
			<path class="st0" d="M287,299.4c-2.7,3.2-6.5,4.4-8.5,2.8s-1.4-5.6,1.2-8.8c2.7-3.2,6.5-4.4,8.5-2.8
				C290.2,292.2,289.6,296.2,287,299.4z"/>
			<path class="st0" d="M302.7,312.6c-2.4,2.9-5.9,4-7.7,2.5c-1.8-1.5-1.3-5.1,1.1-8s5.9-4,7.7-2.5
				C305.6,306.1,305.1,309.7,302.7,312.6z"/>
			<path class="st0" d="M318.4,325.8c-2.2,2.6-5.2,3.6-6.8,2.2s-1.2-4.5,1-7.1s5.2-3.6,6.8-2.2C321,320,320.6,323.2,318.4,325.8z"/>
			<path class="st0" d="M334.2,339c-1.9,2.3-4.6,3.1-6,2s-1-4,0.9-6.2c1.9-2.3,4.6-3.1,6-2S336.1,336.7,334.2,339z"/>
			<path class="st0" d="M349.9,352.2c-1.6,2-4,2.7-5.2,1.7c-1.2-1-0.9-3.4,0.8-5.4s4-2.7,5.2-1.7
				C351.9,347.8,351.5,350.2,349.9,352.2z"/>
			<path class="st0" d="M365.6,365.4c-1.4,1.6-3.3,2.3-4.3,1.4s-0.7-2.9,0.6-4.5c1.4-1.6,3.3-2.3,4.3-1.4S367,363.8,365.6,365.4z"/>
			<path class="st0" d="M381.4,378.6c-1.1,1.3-2.7,1.8-3.5,1.1c-0.8-0.7-0.6-2.3,0.5-3.6c1.1-1.3,2.7-1.8,3.5-1.1
				C382.7,375.6,382.5,377.3,381.4,378.6z"/>
			<path class="st0" d="M397.1,391.8c-0.9,1-2,1.4-2.7,0.9s-0.5-1.8,0.4-2.8c0.9-1,2-1.4,2.7-0.9C398.1,389.5,398,390.8,397.1,391.8
				z"/>
		</g>
	</g>
	<g>
		<g>
			<path class="st0" d="M79.6,399.3c-0.9,4.9-5.9,8.1-11.3,7.2c-5.4-1-9-5.7-8.2-10.6c0.9-4.9,5.9-8.1,11.3-7.2
				C76.8,389.6,80.4,394.4,79.6,399.3z"/>
			<path class="st0" d="M114.9,405.5c-0.8,4.5-5.4,7.5-10.4,6.6c-4.9-0.9-8.3-5.2-7.5-9.8c0.8-4.5,5.4-7.5,10.4-6.6
				S115.7,401,114.9,405.5z"/>
			<path class="st0" d="M150.2,411.8c-0.7,4.1-5,6.8-9.4,6c-4.5-0.8-7.5-4.8-6.8-8.9c0.7-4.1,5-6.8,9.4-6
				C147.9,403.7,151,407.7,150.2,411.8z"/>
			<path class="st0" d="M185.6,418c-0.7,3.7-4.5,6.1-8.5,5.4s-6.8-4.3-6.1-8c0.7-3.7,4.5-6.1,8.5-5.4
				C183.5,410.7,186.2,414.3,185.6,418z"/>
			<path class="st0" d="M220.9,424.2c-0.6,3.3-4,5.5-7.6,4.9c-3.6-0.6-6.1-3.8-5.5-7.1c0.6-3.3,4-5.5,7.6-4.9
				C219,417.7,221.5,420.9,220.9,424.2z"/>
			<path class="st0" d="M256.2,430.5c-0.5,2.9-3.5,4.8-6.7,4.3c-3.2-0.6-5.3-3.4-4.8-6.3s3.5-4.8,6.7-4.3
				C254.6,424.8,256.8,427.6,256.2,430.5z"/>
			<path class="st0" d="M291.6,436.7c-0.4,2.5-3,4.1-5.8,3.7c-2.7-0.5-4.6-2.9-4.1-5.4c0.4-2.5,3-4.1,5.8-3.7
				C290.2,431.8,292,434.2,291.6,436.7z"/>
			<path class="st0" d="M326.9,442.9c-0.4,2.1-2.5,3.5-4.8,3.1c-2.3-0.4-3.9-2.4-3.5-4.5c0.4-2.1,2.5-3.5,4.8-3.1
				C325.7,438.8,327.3,440.8,326.9,442.9z"/>
			<path class="st0" d="M362.2,449.2c-0.3,1.7-2,2.8-3.9,2.5c-1.9-0.3-3.1-2-2.8-3.7s2-2.8,3.9-2.5
				C361.3,445.8,362.5,447.5,362.2,449.2z"/>
			<path class="st0" d="M397.6,455.4c-0.2,1.3-1.6,2.1-3,1.9s-2.4-1.5-2.1-2.8c0.2-1.3,1.6-2.1,3-1.9
				C396.8,452.8,397.8,454.1,397.6,455.4z"/>
		</g>
	</g>
	<g>
		<g>
			<path class="st0" d="M153.3,595.8c1.7,4.7,0.2,9.6-3.4,10.9s-7.9-1.5-9.6-6.2c-1.7-4.7-0.2-9.6,3.4-10.9S151.6,591.1,153.3,595.8
				z"/>
			<path class="st0" d="M176.9,587.2c1.6,4.3,0.2,8.8-3.1,10c-3.3,1.2-7.2-1.3-8.8-5.6c-1.6-4.3-0.2-8.8,3.1-10
				C171.4,580.4,175.3,582.9,176.9,587.2z"/>
			<path class="st0" d="M200.5,578.6c1.4,3.9,0.2,8-2.8,9.1s-6.6-1.2-8-5.1c-1.4-3.9-0.2-8,2.8-9.1
				C195.5,572.4,199.1,574.7,200.5,578.6z"/>
			<path class="st0" d="M224.1,570c1.3,3.5,0.1,7.2-2.6,8.2c-2.7,1-5.9-1.1-7.2-4.6c-1.3-3.5-0.1-7.2,2.6-8.2
				C219.6,564.4,222.8,566.5,224.1,570z"/>
			<path class="st0" d="M247.7,561.5c1.1,3.2,0.1,6.4-2.3,7.3c-2.4,0.9-5.3-1-6.4-4.1c-1.1-3.2-0.1-6.4,2.3-7.3
				C243.7,556.4,246.6,558.3,247.7,561.5z"/>
			<path class="st0" d="M271.3,552.9c1,2.8,0.1,5.7-2,6.4c-2.1,0.8-4.7-0.9-5.7-3.6s-0.1-5.7,2-6.4S270.3,550.1,271.3,552.9z"/>
			<path class="st0" d="M294.9,544.3c0.9,2.4,0.1,4.9-1.7,5.5c-1.8,0.7-4-0.7-4.9-3.1s-0.1-4.9,1.7-5.5
				C291.9,540.5,294,541.9,294.9,544.3z"/>
			<path class="st0" d="M318.5,535.7c0.7,2,0.1,4.1-1.5,4.7s-3.4-0.6-4.1-2.6s-0.1-4.1,1.5-4.7C316,532.5,317.8,533.7,318.5,535.7z"
				/>
			<path class="st0" d="M342.1,527.1c0.6,1.6,0.1,3.3-1.2,3.8c-1.2,0.5-2.7-0.5-3.3-2.1s-0.1-3.3,1.2-3.8
				C340,524.5,341.5,525.5,342.1,527.1z"/>
			<path class="st0" d="M365.7,518.5c0.5,1.2,0,2.5-0.9,2.9c-1,0.3-2.1-0.4-2.5-1.6s0-2.5,0.9-2.9
				C364.1,516.5,365.3,517.3,365.7,518.5z"/>
		</g>
	</g>
	<g>
		<g>
			<path class="st0" d="M40.9,551.9c0.9,4.9-2.4,9.6-7.4,10.5c-5,0.9-9.7-2.4-10.5-7.3c-0.9-4.9,2.4-9.6,7.4-10.5
				C35.3,543.7,40.1,547,40.9,551.9z"/>
			<path class="st0" d="M73.5,546.2c0.8,4.5-2.2,8.8-6.8,9.6s-8.9-2.2-9.7-6.7c-0.8-4.5,2.2-8.8,6.8-9.6
				C68.4,538.6,72.7,541.6,73.5,546.2z"/>
			<path class="st0" d="M106.1,540.4c0.7,4.1-2,8-6.2,8.8c-4.1,0.7-8.1-2-8.8-6.1c-0.7-4.1,2-8,6.2-8.8
				C101.5,533.5,105.4,536.3,106.1,540.4z"/>
			<path class="st0" d="M138.7,534.7c0.7,3.7-1.8,7.3-5.6,7.9s-7.3-1.8-7.9-5.5c-0.7-3.7,1.8-7.3,5.6-7.9
				C134.5,528.5,138.1,530.9,138.7,534.7z"/>
			<path class="st0" d="M171.3,528.9c0.6,3.3-1.6,6.5-5,7.1c-3.3,0.6-6.5-1.6-7.1-4.9c-0.6-3.3,1.6-6.5,5-7.1
				C167.6,523.4,170.7,525.6,171.3,528.9z"/>
			<path class="st0" d="M203.9,523.2c0.5,2.9-1.4,5.7-4.4,6.2s-5.7-1.4-6.2-4.3c-0.5-2.9,1.4-5.7,4.4-6.2
				C200.6,518.3,203.4,520.2,203.9,523.2z"/>
			<path class="st0" d="M236.5,517.4c0.4,2.5-1.2,4.9-3.8,5.3c-2.5,0.4-4.9-1.2-5.4-3.7c-0.4-2.5,1.2-4.9,3.8-5.3
				C233.7,513.2,236.1,514.9,236.5,517.4z"/>
			<path class="st0" d="M269.1,511.7c0.4,2.1-1,4.1-3.2,4.5c-2.1,0.4-4.1-1-4.5-3.1c-0.4-2.1,1-4.1,3.2-4.5
				C266.7,508.2,268.7,509.6,269.1,511.7z"/>
			<path class="st0" d="M301.7,505.9c0.3,1.7-0.8,3.3-2.6,3.6c-1.7,0.3-3.3-0.8-3.6-2.5c-0.3-1.7,0.8-3.3,2.6-3.6
				C299.8,503.1,301.4,504.2,301.7,505.9z"/>
			<path class="st0" d="M334.3,500.2c0.2,1.3-0.6,2.5-2,2.8c-1.3,0.2-2.5-0.6-2.8-1.9c-0.2-1.3,0.6-2.5,2-2.8
				C332.8,498,334.1,498.9,334.3,500.2z"/>
		</g>
	</g>
	<g>
		<g>
			<ellipse class="st0" cx="177.3" cy="472.2" rx="5.6" ry="9.1"/>
			<ellipse class="st0" cx="198.3" cy="472.2" rx="5.2" ry="8.3"/>
			<ellipse class="st0" cx="219.3" cy="472.2" rx="4.7" ry="7.6"/>
			<path class="st0" d="M244.6,472.2c0,3.8-1.9,6.8-4.3,6.8c-2.4,0-4.3-3.1-4.3-6.8s1.9-6.8,4.3-6.8
				C242.7,465.4,244.6,468.4,244.6,472.2z"/>
			<path class="st0" d="M265.1,472.2c0,3.4-1.7,6.1-3.8,6.1c-2.1,0-3.8-2.7-3.8-6.1s1.7-6.1,3.8-6.1
				C263.4,466.1,265.1,468.8,265.1,472.2z"/>
			<path class="st0" d="M285.7,472.2c0,3-1.5,5.4-3.3,5.4s-3.3-2.4-3.3-5.4c0-3,1.5-5.4,3.3-5.4
				C284.2,466.9,285.7,469.2,285.7,472.2z"/>
			<path class="st0" d="M306.2,472.2c0,2.5-1.3,4.6-2.9,4.6s-2.9-2.1-2.9-4.6s1.3-4.6,2.9-4.6S306.2,469.7,306.2,472.2z"/>
			<path class="st0" d="M326.8,472.2c0,2.1-1.1,3.9-2.4,3.9c-1.3,0-2.4-1.7-2.4-3.9c0-2.1,1.1-3.9,2.4-3.9
				C325.7,468.3,326.8,470.1,326.8,472.2z"/>
			<path class="st0" d="M347.3,472.2c0,1.7-0.9,3.1-2,3.1c-1.1,0-2-1.4-2-3.1s0.9-3.1,2-3.1C346.4,469.1,347.3,470.5,347.3,472.2z"
				/>
			<path class="st0" d="M367.8,472.2c0,1.3-0.7,2.4-1.5,2.4c-0.8,0-1.5-1.1-1.5-2.4s0.7-2.4,1.5-2.4
				C367.2,469.8,367.8,470.9,367.8,472.2z"/>
		</g>
	</g>
	<g>
		<g>
			<path class="st0" d="M129.4,682.1c2.5,4.3,0.7,10-4,12.8c-4.7,2.7-10.6,1.4-13.1-2.9c-2.5-4.3-0.7-10,4-12.8
				C121.1,676.4,126.9,677.7,129.4,682.1z"/>
			<path class="st0" d="M160.5,664.1c2.3,4,0.6,9.2-3.7,11.7c-4.3,2.5-9.7,1.3-12-2.7c-2.3-4-0.6-9.2,3.7-11.7
				S158.2,660.1,160.5,664.1z"/>
			<path class="st0" d="M191.6,646.2c2.1,3.6,0.6,8.4-3.4,10.7s-8.9,1.2-10.9-2.4s-0.6-8.4,3.4-10.7S189.5,642.6,191.6,646.2z"/>
			<path class="st0" d="M222.6,628.2c1.9,3.3,0.5,7.6-3,9.6c-3.6,2.1-8,1.1-9.9-2.2s-0.5-7.6,3-9.6C216.3,624,220.8,625,222.6,628.2
				z"/>
			<path class="st0" d="M253.7,610.3c1.7,2.9,0.5,6.8-2.7,8.6c-3.2,1.8-7.1,1-8.8-2c-1.7-2.9-0.5-6.8,2.7-8.6
				C248.1,606.5,252,607.4,253.7,610.3z"/>
			<path class="st0" d="M284.8,592.4c1.5,2.6,0.4,5.9-2.4,7.5s-6.2,0.8-7.7-1.7s-0.4-5.9,2.4-7.5C279.9,589,283.3,589.8,284.8,592.4
				z"/>
			<path class="st0" d="M315.9,574.4c1.3,2.2,0.4,5.1-2,6.5c-2.4,1.4-5.4,0.7-6.7-1.5c-1.3-2.2-0.4-5.1,2-6.5
				C311.6,571.6,314.6,572.2,315.9,574.4z"/>
			<path class="st0" d="M346.9,556.5c1.1,1.8,0.3,4.3-1.7,5.5c-2,1.2-4.5,0.6-5.6-1.2s-0.3-4.3,1.7-5.5
				C343.4,554.1,345.9,554.6,346.9,556.5z"/>
			<path class="st0" d="M378,538.5c0.9,1.5,0.2,3.5-1.4,4.4c-1.6,0.9-3.6,0.5-4.5-1c-0.9-1.5-0.2-3.5,1.4-4.4
				C375.1,536.6,377.1,537,378,538.5z"/>
			<path class="st0" d="M409.1,520.6c0.7,1.1,0.2,2.7-1.1,3.4s-2.8,0.4-3.5-0.8c-0.7-1.1-0.2-2.7,1.1-3.4
				C406.9,519.1,408.4,519.5,409.1,520.6z"/>
		</g>
	</g>
	<g>
		<g>
			<path class="st0" d="M312.2,785.2c4.3,2.5,6.3,7.2,4.4,10.5c-1.9,3.3-7,4-11.3,1.5s-6.3-7.2-4.4-10.5
				C302.8,783.3,307.9,782.7,312.2,785.2z"/>
			<path class="st0" d="M324.8,763.4c4,2.3,5.8,6.6,4,9.7s-6.4,3.6-10.4,1.3c-4-2.3-5.8-6.6-4-9.7
				C316.1,761.7,320.8,761.1,324.8,763.4z"/>
			<path class="st0" d="M337.3,741.7c3.6,2.1,5.3,6,3.7,8.8c-1.6,2.8-5.8,3.3-9.5,1.2s-5.3-6-3.7-8.8
				C329.5,740.1,333.7,739.6,337.3,741.7z"/>
			<path class="st0" d="M349.9,719.9c3.3,1.9,4.8,5.4,3.3,7.9s-5.3,3-8.5,1.1s-4.8-5.4-3.3-7.9C342.8,718.5,346.6,718,349.9,719.9z"
				/>
			<path class="st0" d="M362.4,698.2c2.9,1.7,4.2,4.8,3,7.1c-1.3,2.2-4.7,2.7-7.6,1s-4.2-4.8-3-7.1
				C356.1,696.9,359.5,696.5,362.4,698.2z"/>
			<path class="st0" d="M375,676.4c2.6,1.5,3.7,4.3,2.6,6.2s-4.1,2.3-6.7,0.9c-2.6-1.5-3.7-4.3-2.6-6.2
				C369.5,675.3,372.4,674.9,375,676.4z"/>
			<path class="st0" d="M387.6,654.7c2.2,1.3,3.2,3.7,2.2,5.3c-1,1.7-3.5,2-5.8,0.7c-2.2-1.3-3.2-3.7-2.2-5.3
				S385.4,653.4,387.6,654.7z"/>
			<path class="st0" d="M400.1,632.9c1.9,1.1,2.7,3.1,1.9,4.5c-0.8,1.4-3,1.7-4.8,0.6c-1.9-1.1-2.7-3.1-1.9-4.5
				S398.3,631.8,400.1,632.9z"/>
			<path class="st0" d="M412.7,611.2c1.5,0.9,2.2,2.5,1.5,3.6s-2.4,1.4-3.9,0.5c-1.5-0.9-2.2-2.5-1.5-3.6
				C409.4,610.5,411.2,610.3,412.7,611.2z"/>
			<path class="st0" d="M425.2,589.4c1.1,0.7,1.7,1.9,1.2,2.8s-1.8,1-3,0.4s-1.7-1.9-1.2-2.8S424.1,588.8,425.2,589.4z"/>
		</g>
	</g>
	<g>
		<g>
			<path class="st0" d="M197.9,823.8c3.8,3.2,4.3,8.9,1.1,12.8c-3.2,3.8-9,4.4-12.8,1.2c-3.8-3.2-4.3-8.9-1.1-12.8
				C188.4,821.1,194.1,820.6,197.9,823.8z"/>
			<path class="st0" d="M219.2,798.4c3.5,3,4,8.2,1,11.8s-8.2,4-11.7,1.1c-3.5-3-4-8.2-1-11.8C210.4,795.9,215.7,795.5,219.2,798.4z
				"/>
			<path class="st0" d="M240.5,773.1c3.2,2.7,3.6,7.5,0.9,10.7c-2.7,3.2-7.5,3.7-10.7,1c-3.2-2.7-3.6-7.5-0.9-10.7
				C232.5,770.8,237.2,770.4,240.5,773.1z"/>
			<path class="st0" d="M261.7,747.7c2.9,2.4,3.3,6.8,0.8,9.7s-6.8,3.3-9.6,0.9s-3.3-6.8-0.8-9.7
				C254.5,745.7,258.8,745.3,261.7,747.7z"/>
			<path class="st0" d="M283,722.3c2.6,2.2,2.9,6,0.7,8.6c-2.2,2.6-6,2.9-8.6,0.8s-2.9-6-0.7-8.6C276.6,720.5,280.4,720.2,283,722.3
				z"/>
			<path class="st0" d="M304.3,697c2.3,1.9,2.5,5.3,0.6,7.6c-1.9,2.3-5.3,2.6-7.6,0.7s-2.5-5.3-0.6-7.6
				C298.6,695.4,302,695.1,304.3,697z"/>
			<path class="st0" d="M325.6,671.6c2,1.6,2.2,4.5,0.5,6.5c-1.6,2-4.6,2.2-6.5,0.6c-2-1.6-2.2-4.5-0.5-6.5
				C320.7,670.3,323.6,670,325.6,671.6z"/>
			<path class="st0" d="M346.8,646.3c1.6,1.4,1.8,3.8,0.5,5.5c-1.4,1.7-3.8,1.9-5.5,0.5c-1.6-1.4-1.8-3.8-0.5-5.5
				S345.2,644.9,346.8,646.3z"/>
			<path class="st0" d="M368.1,620.9c1.3,1.1,1.5,3.1,0.4,4.4c-1.1,1.3-3.1,1.5-4.4,0.4s-1.5-3.1-0.4-4.4
				C364.8,620,366.8,619.8,368.1,620.9z"/>
			<path class="st0" d="M389.4,595.6c1,0.8,1.1,2.4,0.3,3.4s-2.4,1.2-3.4,0.3c-1-0.8-1.1-2.4-0.3-3.4
				C386.9,594.9,388.4,594.7,389.4,595.6z"/>
		</g>
	</g>
	<g>
		<g>
			<path class="st0" d="M255.5,671.4c3.2,3.8,3.9,8.6,1.5,10.6c-2.4,2-6.9,0.5-10.1-3.3c-3.2-3.8-3.9-8.6-1.5-10.6
				S252.3,667.6,255.5,671.4z"/>
			<path class="st0" d="M271.2,658.2c3,3.5,3.6,7.9,1.4,9.7c-2.2,1.8-6.4,0.5-9.3-3c-3-3.5-3.6-7.9-1.4-9.7
				C264.1,653.3,268.3,654.7,271.2,658.2z"/>
			<path class="st0" d="M287,645c2.7,3.2,3.2,7.2,1.2,8.8c-2,1.7-5.8,0.4-8.5-2.8s-3.2-7.2-1.2-8.8C280.5,640.6,284.3,641.8,287,645
				z"/>
			<path class="st0" d="M302.7,631.8c2.4,2.9,2.9,6.5,1.1,8c-1.8,1.5-5.2,0.4-7.7-2.5s-2.9-6.5-1.1-8
				C296.8,627.8,300.3,628.9,302.7,631.8z"/>
			<path class="st0" d="M318.4,618.6c2.2,2.6,2.6,5.8,1,7.1s-4.7,0.3-6.8-2.2c-2.2-2.6-2.6-5.8-1-7.1
				C313.2,615,316.3,616,318.4,618.6z"/>
			<path class="st0" d="M334.2,605.4c1.9,2.3,2.3,5.1,0.9,6.2s-4.1,0.3-6-2s-2.3-5.1-0.9-6.2C329.6,602.3,332.3,603.2,334.2,605.4z"
				/>
			<path class="st0" d="M349.9,592.2c1.6,2,2,4.4,0.8,5.4s-3.5,0.3-5.2-1.7s-2-4.4-0.8-5.4C345.9,589.5,348.2,590.3,349.9,592.2z"/>
			<path class="st0" d="M365.6,579c1.4,1.6,1.7,3.7,0.6,4.5c-1,0.9-3,0.2-4.3-1.4c-1.4-1.6-1.7-3.7-0.6-4.5S364.2,577.4,365.6,579z"
				/>
			<path class="st0" d="M381.4,565.8c1.1,1.3,1.3,3,0.5,3.7c-0.8,0.7-2.4,0.2-3.5-1.1s-1.3-3-0.5-3.7
				C378.7,564,380.2,564.5,381.4,565.8z"/>
			<path class="st0" d="M397.1,552.6c0.9,1,1,2.3,0.4,2.8c-0.6,0.5-1.8,0.1-2.7-0.9s-1-2.3-0.4-2.8S396.2,551.6,397.1,552.6z"/>
		</g>
	</g>
	<g>
		<g>
			<path class="st0" d="M349.4,866.6c4.7,1.7,7,7.2,5.1,12.4c-1.9,5.1-7.2,7.9-11.9,6.2s-7-7.2-5.1-12.4
				C339.3,867.7,344.7,864.9,349.4,866.6z"/>
			<path class="st0" d="M361.6,832.9c4.3,1.6,6.4,6.7,4.7,11.4s-6.6,7.2-10.9,5.7c-4.3-1.6-6.4-6.7-4.7-11.4
				C352.4,833.9,357.3,831.3,361.6,832.9z"/>
			<path class="st0" d="M373.9,799.2c3.9,1.4,5.9,6.1,4.3,10.3s-6,6.6-9.9,5.2s-5.9-6.1-4.3-10.3S370,797.8,373.9,799.2z"/>
			<path class="st0" d="M386.2,765.5c3.5,1.3,5.3,5.5,3.9,9.3c-1.4,3.9-5.4,6-9,4.7c-3.5-1.3-5.3-5.5-3.9-9.3
				C378.6,766.3,382.6,764.2,386.2,765.5z"/>
			<path class="st0" d="M398.4,731.7c3.2,1.2,4.7,4.9,3.5,8.3c-1.2,3.5-4.8,5.3-8,4.2c-3.2-1.2-4.7-4.9-3.5-8.3
				C391.7,732.5,395.3,730.6,398.4,731.7z"/>
			<path class="st0" d="M410.7,698c2.8,1,4.1,4.3,3,7.3c-1.1,3-4.2,4.7-7,3.7c-2.8-1-4.1-4.3-3-7.3C404.8,698.7,407.9,697,410.7,698
				z"/>
			<path class="st0" d="M423,664.3c2.4,0.9,3.6,3.7,2.6,6.3s-3.7,4-6,3.2c-2.4-0.9-3.6-3.7-2.6-6.3
				C417.9,664.8,420.6,663.4,423,664.3z"/>
			<path class="st0" d="M435.3,630.6c2,0.7,3,3.1,2.2,5.3s-3.1,3.4-5.1,2.6c-2-0.7-3-3.1-2.2-5.3C431,631,433.2,629.9,435.3,630.6z"
				/>
			<path class="st0" d="M447.5,596.9c1.6,0.6,2.4,2.5,1.8,4.3c-0.6,1.8-2.5,2.7-4.1,2.1c-1.6-0.6-2.4-2.5-1.8-4.3
				C444.1,597.2,445.9,596.3,447.5,596.9z"/>
			<path class="st0" d="M459.8,563.2c1.2,0.5,1.9,1.9,1.4,3.3c-0.5,1.3-1.9,2.1-3.1,1.6c-1.2-0.5-1.9-1.9-1.4-3.3
				C457.1,563.5,458.6,562.7,459.8,563.2z"/>
		</g>
	</g>
	<g>
		<g>
			<path class="st0" d="M555.7,828.1c4.9-0.9,9.5,1.5,10.1,5.2s-2.8,7.5-7.7,8.4s-9.5-1.5-10.1-5.2S550.7,829,555.7,828.1z"/>
			<path class="st0" d="M551.3,803.4c4.5-0.8,8.7,1.3,9.3,4.8c0.6,3.5-2.6,6.9-7.1,7.7c-4.5,0.8-8.7-1.3-9.3-4.8
				C543.6,807.6,546.8,804.2,551.3,803.4z"/>
			<path class="st0" d="M546.9,778.6c4.1-0.7,7.9,1.2,8.5,4.4c0.5,3.1-2.3,6.3-6.5,7s-7.9-1.2-8.5-4.4
				C539.9,782.5,542.8,779.4,546.9,778.6z"/>
			<path class="st0" d="M542.6,753.9c3.7-0.7,7.1,1.1,7.6,4s-2.1,5.7-5.8,6.3c-3.7,0.7-7.1-1.1-7.6-4
				C536.2,757.4,538.9,754.6,542.6,753.9z"/>
			<path class="st0" d="M538.2,729.2c3.3-0.6,6.4,1,6.8,3.5s-1.9,5-5.2,5.6c-3.3,0.6-6.4-1-6.8-3.5
				C532.6,732.3,534.9,729.8,538.2,729.2z"/>
			<path class="st0" d="M533.8,704.4c2.9-0.5,5.6,0.9,6,3.1c0.4,2.2-1.7,4.4-4.6,5s-5.6-0.9-6-3.1S530.9,705,533.8,704.4z"/>
			<path class="st0" d="M529.5,679.7c2.5-0.4,4.8,0.8,5.2,2.7s-1.4,3.8-3.9,4.3c-2.5,0.4-4.8-0.8-5.2-2.7
				C525.2,682,527,680.1,529.5,679.7z"/>
			<path class="st0" d="M525.1,655c2.1-0.4,4,0.6,4.3,2.2s-1.2,3.2-3.3,3.6s-4-0.6-4.3-2.2S523,655.3,525.1,655z"/>
			<path class="st0" d="M520.8,630.2c1.7-0.3,3.3,0.5,3.5,1.8s-1,2.6-2.7,2.9c-1.7,0.3-3.3-0.5-3.5-1.8
				C517.9,631.8,519.1,630.5,520.8,630.2z"/>
			<path class="st0" d="M516.4,605.5c1.3-0.2,2.5,0.4,2.7,1.4c0.2,1-0.7,2-2,2.2c-1.3,0.2-2.5-0.4-2.7-1.4
				C514.2,606.7,515.1,605.7,516.4,605.5z"/>
		</g>
	</g>
	<g>
		<g>
			<ellipse class="st0" cx="492.9" cy="940.2" rx="9.1" ry="9.1"/>
			<ellipse class="st0" cx="492.9" cy="906.4" rx="8.3" ry="8.4"/>
			<path class="st0" d="M492.9,864.9c4.2,0,7.6,3.4,7.6,7.6s-3.4,7.6-7.6,7.6s-7.6-3.4-7.6-7.6S488.7,864.9,492.9,864.9z"/>
			<path class="st0" d="M492.9,831.8c3.8,0,6.8,3.1,6.8,6.9c0,3.8-3.1,6.9-6.8,6.9s-6.8-3.1-6.8-6.9
				C486.1,834.9,489.1,831.8,492.9,831.8z"/>
			<path class="st0" d="M492.9,798.8c3.4,0,6.1,2.7,6.1,6.1c0,3.4-2.7,6.1-6.1,6.1s-6.1-2.7-6.1-6.1
				C486.8,801.5,489.5,798.8,492.9,798.8z"/>
			<path class="st0" d="M492.9,765.7c3,0,5.4,2.4,5.4,5.4c0,3-2.4,5.4-5.4,5.4c-3,0-5.4-2.4-5.4-5.4
				C487.5,768.1,490,765.7,492.9,765.7z"/>
			<path class="st0" d="M492.9,732.5c2.5,0,4.6,2.1,4.6,4.6s-2.1,4.6-4.6,4.6s-4.6-2.1-4.6-4.6C488.3,734.6,490.4,732.5,492.9,732.5
				z"/>
			<path class="st0" d="M492.9,699.5c2.1,0,3.9,1.7,3.9,3.9s-1.7,3.9-3.9,3.9c-2.1,0-3.9-1.7-3.9-3.9S490.8,699.5,492.9,699.5z"/>
			<path class="st0" d="M492.9,666.3c1.7,0,3.1,1.4,3.1,3.2c0,1.7-1.4,3.2-3.1,3.2s-3.1-1.4-3.1-3.2
				C489.8,667.8,491.2,666.3,492.9,666.3z"/>
			<path class="st0" d="M492.9,633.2c1.3,0,2.4,1.1,2.4,2.4c0,1.3-1.1,2.4-2.4,2.4s-2.4-1.1-2.4-2.4S491.6,633.2,492.9,633.2z"/>
		</g>
	</g>
	<g>
		<g>
			<path class="st0" d="M439.1,777.4c4.9,0.9,8.5,4.1,7.9,7.1c-0.5,3.1-5,4.9-9.9,4s-8.5-4.1-7.9-7.1
				C429.7,778.3,434.2,776.6,439.1,777.4z"/>
			<path class="st0" d="M442.6,757.2c4.5,0.8,7.8,3.7,7.3,6.5s-4.6,4.5-9.1,3.7c-4.5-0.8-7.8-3.7-7.3-6.5S438.1,756.4,442.6,757.2z"
				/>
			<path class="st0" d="M446.2,737c4.1,0.7,7.1,3.4,6.6,6c-0.5,2.6-4.2,4.1-8.3,3.3s-7.1-3.4-6.6-6
				C438.4,737.7,442.1,736.2,446.2,737z"/>
			<path class="st0" d="M449.8,716.8c3.7,0.7,6.4,3.1,6,5.4s-3.8,3.7-7.5,3s-6.4-3.1-6-5.4C442.7,717.4,446.1,716.1,449.8,716.8z"/>
			<path class="st0" d="M453.4,696.5c3.3,0.6,5.7,2.7,5.3,4.8c-0.4,2.1-3.4,3.3-6.7,2.7s-5.7-2.7-5.3-4.8
				C447.1,697.1,450,695.9,453.4,696.5z"/>
			<path class="st0" d="M456.9,676.3c2.9,0.5,5,2.4,4.7,4.2c-0.3,1.8-2.9,2.9-5.9,2.4s-5-2.4-4.7-4.2S454,675.8,456.9,676.3z"/>
			<path class="st0" d="M460.5,656.1c2.5,0.4,4.3,2.1,4,3.6c-0.3,1.6-2.5,2.5-5,2c-2.5-0.4-4.3-2.1-4-3.6
				C455.7,656.5,458,655.6,460.5,656.1z"/>
			<path class="st0" d="M464,635.8c2.1,0.4,3.6,1.7,3.4,3c-0.2,1.3-2.1,2.1-4.2,1.7c-2.1-0.4-3.6-1.7-3.4-3
				C460,636.2,462,635.5,464,635.8z"/>
			<path class="st0" d="M467.6,615.6c1.7,0.3,2.9,1.4,2.7,2.5c-0.2,1.1-1.7,1.7-3.4,1.4s-2.9-1.4-2.7-2.5
				C464.4,615.9,465.9,615.3,467.6,615.6z"/>
			<path class="st0" d="M471.2,595.4c1.3,0.2,2.2,1.1,2.1,1.9c-0.1,0.8-1.3,1.3-2.6,1c-1.3-0.2-2.2-1.1-2.1-1.9
				C468.7,595.6,469.9,595.1,471.2,595.4z"/>
		</g>
	</g>
	<g>
		<g>
			<path class="st0" d="M636.5,866.6c4.7-1.7,10,1.1,11.9,6.2c1.9,5.1-0.4,10.7-5.1,12.4s-10-1.1-11.9-6.2S631.8,868.3,636.5,866.6z
				"/>
			<path class="st0" d="M624.2,832.9c4.3-1.6,9.2,1,10.9,5.7c1.7,4.7-0.4,9.8-4.7,11.4c-4.3,1.6-9.2-1-10.9-5.7
				S619.9,834.5,624.2,832.9z"/>
			<path class="st0" d="M611.9,799.2c3.9-1.4,8.4,0.9,9.9,5.2c1.6,4.3-0.4,8.9-4.3,10.3s-8.4-0.9-9.9-5.2S608,800.6,611.9,799.2z"/>
			<path class="st0" d="M599.6,765.5c3.5-1.3,7.6,0.8,9,4.7c1.4,3.9-0.3,8-3.9,9.3c-3.5,1.3-7.6-0.8-9-4.7
				C594.4,770.9,596.1,766.8,599.6,765.5z"/>
			<path class="st0" d="M587.4,731.7c3.2-1.2,6.7,0.7,8,4.2c1.2,3.5-0.3,7.2-3.5,8.3c-3.2,1.2-6.7-0.7-8-4.2
				C582.7,736.6,584.2,732.9,587.4,731.7z"/>
			<path class="st0" d="M575.1,698c2.8-1,5.9,0.6,7,3.7c1.1,3-0.3,6.3-3,7.3c-2.8,1-5.9-0.6-7-3.7S572.3,699,575.1,698z"/>
			<path class="st0" d="M562.8,664.3c2.4-0.9,5.1,0.5,6,3.2c1,2.6-0.2,5.4-2.6,6.3s-5.1-0.5-6-3.2
				C559.3,668,560.4,665.2,562.8,664.3z"/>
			<path class="st0" d="M550.6,630.6c2-0.7,4.3,0.5,5.1,2.6s-0.2,4.6-2.2,5.3c-2,0.7-4.3-0.5-5.1-2.6
				C547.6,633.7,548.5,631.3,550.6,630.6z"/>
			<path class="st0" d="M538.3,596.9c1.6-0.6,3.5,0.4,4.1,2.1c0.6,1.8-0.2,3.7-1.8,4.3s-3.5-0.4-4.1-2.1
				C535.9,599.4,536.7,597.5,538.3,596.9z"/>
			<path class="st0" d="M526,563.2c1.2-0.5,2.6,0.3,3.1,1.6c0.5,1.3-0.1,2.8-1.3,3.3s-2.6-0.3-3.1-1.6
				C524.2,565.1,524.8,563.6,526,563.2z"/>
		</g>
	</g>
	<g>
		<g>
			<path class="st0" d="M769.8,704.5c3.2-3.8,8.2-5,11.1-2.5s2.7,7.5-0.5,11.4c-3.2,3.8-8.2,5-11.1,2.5
				C766.3,713.4,766.5,708.3,769.8,704.5z"/>
			<path class="st0" d="M750.5,688.4c3-3.5,7.5-4.5,10.2-2.3c2.7,2.2,2.5,6.9-0.5,10.5c-3,3.5-7.5,4.5-10.2,2.3
				C747.3,696.5,747.5,691.9,750.5,688.4z"/>
			<path class="st0" d="M731.3,672.2c2.7-3.2,6.8-4.1,9.3-2.1s2.2,6.3-0.4,9.5c-2.7,3.2-6.8,4.1-9.3,2.1S728.6,675.4,731.3,672.2z"
				/>
			<path class="st0" d="M712,656.1c2.4-2.9,6.2-3.7,8.4-1.9s2,5.7-0.4,8.6c-2.4,2.9-6.2,3.7-8.4,1.9
				C709.4,662.8,709.6,659,712,656.1z"/>
			<path class="st0" d="M692.8,639.9c2.2-2.6,5.5-3.3,7.5-1.7s1.8,5.1-0.3,7.7c-2.2,2.6-5.5,3.3-7.5,1.7
				C690.5,645.9,690.6,642.5,692.8,639.9z"/>
			<path class="st0" d="M673.5,623.8c1.9-2.3,4.8-2.9,6.6-1.5s1.6,4.5-0.3,6.7c-1.9,2.3-4.8,2.9-6.6,1.5
				C671.5,629.1,671.7,626,673.5,623.8z"/>
			<path class="st0" d="M654.3,607.6c1.6-2,4.2-2.5,5.7-1.3s1.4,3.8-0.3,5.8c-1.6,2-4.2,2.5-5.7,1.3S652.7,609.6,654.3,607.6z"/>
			<path class="st0" d="M635.1,591.5c1.4-1.6,3.5-2.1,4.8-1.1c1.2,1,1.2,3.2-0.2,4.9c-1.4,1.6-3.5,2.1-4.8,1.1
				S633.7,593.1,635.1,591.5z"/>
			<path class="st0" d="M615.8,575.3c1.1-1.3,2.8-1.7,3.8-0.9c1,0.8,0.9,2.6-0.2,3.9s-2.8,1.7-3.8,0.9
				C614.6,578.4,614.7,576.7,615.8,575.3z"/>
			<path class="st0" d="M596.6,559.2c0.8-1,2.2-1.3,2.9-0.7s0.7,2-0.1,3c-0.8,1-2.2,1.3-2.9,0.7S595.7,560.2,596.6,559.2z"/>
		</g>
	</g>
	<g>
		<g>
			<path class="st0" d="M787.9,823.8c3.8-3.2,9.6-2.7,12.8,1.2c3.2,3.8,2.8,9.6-1.1,12.8s-9.6,2.7-12.8-1.2S784.1,827,787.9,823.8z"
				/>
			<path class="st0" d="M766.6,798.4c3.5-3,8.8-2.5,11.7,1.1c3,3.5,2.5,8.8-1,11.8c-3.5,3-8.8,2.5-11.7-1.1
				C762.7,806.6,763.1,801.4,766.6,798.4z"/>
			<path class="st0" d="M745.3,773.1c3.2-2.7,8-2.3,10.7,1c2.7,3.2,2.3,8-0.9,10.7c-3.2,2.7-8,2.3-10.7-1
				C741.7,780.5,742.2,775.8,745.3,773.1z"/>
			<path class="st0" d="M724.1,747.7c2.9-2.4,7.2-2,9.7,0.9s2.1,7.2-0.8,9.7s-7.2,2-9.7-0.9C720.8,754.5,721.2,750.1,724.1,747.7z"
				/>
			<path class="st0" d="M702.8,722.3c2.6-2.2,6.4-1.8,8.6,0.8c2.2,2.6,1.8,6.5-0.7,8.6c-2.6,2.2-6.4,1.8-8.6-0.8
				C699.9,728.4,700.2,724.5,702.8,722.3z"/>
			<path class="st0" d="M681.5,697c2.3-1.9,5.7-1.6,7.6,0.7c1.9,2.3,1.6,5.7-0.6,7.6s-5.7,1.6-7.6-0.7
				C679,702.3,679.3,698.9,681.5,697z"/>
			<path class="st0" d="M660.2,671.6c2-1.6,4.9-1.4,6.5,0.6c1.7,2,1.4,4.9-0.5,6.5s-4.9,1.4-6.5-0.6
				C658,676.2,658.3,673.3,660.2,671.6z"/>
			<path class="st0" d="M639,646.3c1.6-1.4,4.1-1.2,5.5,0.5c1.4,1.7,1.2,4.1-0.5,5.5c-1.6,1.4-4.1,1.2-5.5-0.5
				C637.1,650.1,637.3,647.7,639,646.3z"/>
			<path class="st0" d="M617.7,620.9c1.3-1.1,3.3-0.9,4.4,0.4s1,3.3-0.4,4.4s-3.3,0.9-4.4-0.4C616.2,624,616.4,622,617.7,620.9z"/>
			<path class="st0" d="M596.4,595.6c1-0.8,2.5-0.7,3.4,0.3s0.7,2.5-0.3,3.4c-1,0.8-2.5,0.7-3.4-0.3S595.4,596.4,596.4,595.6z"/>
		</g>
	</g>
	<g>
		<g>
			<path class="st0" d="M647.9,740.6c4.3-2.5,9.1-2.3,10.7,0.4c1.6,2.7-0.7,6.9-5,9.4s-9.1,2.3-10.7-0.4
				C641.3,747.3,643.5,743.1,647.9,740.6z"/>
			<path class="st0" d="M637.6,722.8c4-2.3,8.4-2.2,9.8,0.3c1.4,2.5-0.6,6.4-4.6,8.7c-4,2.3-8.4,2.2-9.8-0.3
				C631.6,729,633.6,725.1,637.6,722.8z"/>
			<path class="st0" d="M627.3,705c3.6-2.1,7.6-2,8.9,0.3s-0.6,5.8-4.2,7.9c-3.6,2.1-7.6,2-8.9-0.3S623.7,707.1,627.3,705z"/>
			<path class="st0" d="M617.1,687.2c3.3-1.9,6.9-1.8,8,0.3c1.2,2-0.5,5.2-3.8,7.1c-3.3,1.9-6.9,1.8-8-0.3
				C612.1,692.3,613.8,689.1,617.1,687.2z"/>
			<path class="st0" d="M606.8,669.5c2.9-1.7,6.1-1.6,7.2,0.2s-0.5,4.7-3.4,6.3c-2.9,1.7-6.1,1.6-7.2-0.2
				C602.4,674,603.9,671.2,606.8,669.5z"/>
			<path class="st0" d="M596.5,651.7c2.6-1.5,5.4-1.4,6.3,0.2c0.9,1.6-0.4,4.1-3,5.6s-5.4,1.4-6.3-0.2
				C592.6,655.7,594,653.2,596.5,651.7z"/>
			<path class="st0" d="M586.2,633.9c2.2-1.3,4.6-1.2,5.4,0.2s-0.3,3.5-2.5,4.8c-2.2,1.3-4.6,1.2-5.4-0.2
				C582.9,637.3,584,635.2,586.2,633.9z"/>
			<path class="st0" d="M576,616.1c1.8-1.1,3.9-1,4.6,0.2s-0.3,3-2.1,4c-1.8,1.1-3.9,1-4.6-0.2C573.2,619,574.1,617.2,576,616.1z"/>
			<path class="st0" d="M565.7,598.3c1.5-0.9,3.2-0.8,3.7,0.1c0.5,0.9-0.2,2.4-1.7,3.3c-1.5,0.9-3.2,0.8-3.7-0.1
				C563.4,600.6,564.2,599.2,565.7,598.3z"/>
			<path class="st0" d="M555.4,580.5c1.1-0.7,2.4-0.6,2.8,0.1c0.4,0.7-0.2,1.8-1.3,2.5s-2.4,0.6-2.8-0.1
				C553.7,582.3,554.3,581.2,555.4,580.5z"/>
		</g>
	</g>
	<g>
		<g>
			<path class="st0" d="M856.4,682.1c2.5-4.3,8.4-5.6,13.1-2.9c4.7,2.7,6.5,8.5,4,12.8s-8.4,5.6-13.1,2.9
				C855.7,692.1,853.9,686.4,856.4,682.1z"/>
			<path class="st0" d="M825.3,664.1c2.3-4,7.7-5.2,12-2.7s6,7.8,3.7,11.7c-2.3,4-7.7,5.2-12,2.7S823,668.1,825.3,664.1z"/>
			<path class="st0" d="M794.2,646.2c2.1-3.6,7-4.7,10.9-2.4s5.5,7.1,3.4,10.7s-7,4.7-10.9,2.4C793.7,654.6,792.2,649.8,794.2,646.2
				z"/>
			<path class="st0" d="M763.2,628.2c1.9-3.3,6.3-4.2,9.9-2.2s4.9,6.4,3,9.6c-1.9,3.3-6.3,4.2-9.9,2.2
				C762.6,635.8,761.3,631.5,763.2,628.2z"/>
			<path class="st0" d="M732.1,610.3c1.7-2.9,5.6-3.8,8.8-2c3.2,1.8,4.4,5.7,2.7,8.6c-1.7,2.9-5.6,3.8-8.8,2
				S730.4,613.2,732.1,610.3z"/>
			<path class="st0" d="M701,592.4c1.5-2.6,4.9-3.3,7.7-1.7c2.8,1.6,3.8,5,2.4,7.5c-1.5,2.6-4.9,3.3-7.7,1.7
				C700.6,598.3,699.5,594.9,701,592.4z"/>
			<path class="st0" d="M670,574.4c1.3-2.2,4.2-2.9,6.7-1.5c2.4,1.4,3.3,4.3,2,6.5s-4.2,2.9-6.7,1.5
				C669.6,579.5,668.7,576.6,670,574.4z"/>
			<path class="st0" d="M638.9,556.5c1.1-1.8,3.6-2.4,5.6-1.2s2.8,3.6,1.7,5.5c-1.1,1.8-3.6,2.4-5.6,1.2
				C638.6,560.8,637.8,558.3,638.9,556.5z"/>
			<path class="st0" d="M607.8,538.5c0.9-1.5,2.9-2,4.5-1c1.6,0.9,2.2,2.9,1.4,4.4s-2.9,2-4.5,1C607.6,542,607,540,607.8,538.5z"/>
			<path class="st0" d="M576.7,520.6c0.7-1.1,2.2-1.5,3.5-0.8s1.7,2.2,1.1,3.4s-2.2,1.5-3.5,0.8
				C576.5,523.3,576.1,521.8,576.7,520.6z"/>
		</g>
	</g>
	<g>
		<g>
			<path class="st0" d="M854.3,472.2c0-5,3.1-9.1,6.9-9.1s6.9,4,6.9,9.1s-3.1,9.1-6.9,9.1S854.3,477.2,854.3,472.2z"/>
			<ellipse class="st0" cx="835.5" cy="472.2" rx="6.3" ry="8.3"/>
			<path class="st0" d="M804.1,472.2c0-4.2,2.6-7.6,5.8-7.6s5.8,3.4,5.8,7.6s-2.6,7.6-5.8,7.6C806.7,479.8,804.1,476.4,804.1,472.2z
				"/>
			<path class="st0" d="M779,472.2c0-3.8,2.3-6.8,5.2-6.8s5.2,3.1,5.2,6.8s-2.3,6.8-5.2,6.8C781.3,479,779,476,779,472.2z"/>
			<path class="st0" d="M753.8,472.2c0-3.4,2.1-6.1,4.7-6.1s4.7,2.7,4.7,6.1s-2.1,6.1-4.7,6.1C755.9,478.3,753.8,475.6,753.8,472.2z
				"/>
			<ellipse class="st0" cx="732.8" cy="472.2" rx="4.1" ry="5.4"/>
			<path class="st0" d="M703.6,472.2c0-2.5,1.6-4.6,3.5-4.6s3.5,2.1,3.5,4.6s-1.6,4.6-3.5,4.6S703.6,474.8,703.6,472.2z"/>
			<path class="st0" d="M678.5,472.2c0-2.1,1.3-3.9,3-3.9s3,1.7,3,3.9c0,2.1-1.3,3.9-3,3.9S678.5,474.3,678.5,472.2z"/>
			<path class="st0" d="M653.4,472.2c0-1.7,1.1-3.1,2.4-3.1s2.4,1.4,2.4,3.1s-1.1,3.1-2.4,3.1C654.4,475.3,653.4,473.9,653.4,472.2z
				"/>
			<ellipse class="st0" cx="630.1" cy="472.2" rx="1.8" ry="2.4"/>
		</g>
	</g>
	<g>
		<g>
			<path class="st0" d="M944.9,551.9c0.9-4.9,5.6-8.2,10.5-7.3c5,0.9,8.3,5.6,7.4,10.5c-0.9,4.9-5.6,8.2-10.5,7.3
				C947.3,561.5,944,556.8,944.9,551.9z"/>
			<path class="st0" d="M912.3,546.2c0.8-4.5,5.1-7.5,9.7-6.7s7.6,5.1,6.8,9.6c-0.8,4.5-5.1,7.5-9.7,6.7
				C914.5,555,911.5,550.7,912.3,546.2z"/>
			<path class="st0" d="M879.7,540.4c0.7-4.1,4.7-6.9,8.8-6.1c4.1,0.7,6.9,4.7,6.2,8.8c-0.7,4.1-4.7,6.9-8.8,6.1
				C881.7,548.5,879,544.5,879.7,540.4z"/>
			<path class="st0" d="M847.1,534.7c0.7-3.7,4.2-6.2,8-5.5c3.7,0.7,6.2,4.2,5.6,7.9c-0.7,3.7-4.2,6.2-8,5.5
				C848.9,541.9,846.4,538.4,847.1,534.7z"/>
			<path class="st0" d="M814.5,528.9c0.6-3.3,3.8-5.5,7.1-4.9c3.3,0.6,5.6,3.8,5,7.1s-3.8,5.5-7.1,4.9
				C816.1,535.4,813.9,532.2,814.5,528.9z"/>
			<path class="st0" d="M781.9,523.2c0.5-2.9,3.3-4.8,6.2-4.3c2.9,0.5,4.9,3.3,4.4,6.2c-0.5,2.9-3.3,4.8-6.2,4.3
				C783.3,528.8,781.4,526.1,781.9,523.2z"/>
			<path class="st0" d="M749.3,517.4c0.4-2.5,2.8-4.2,5.4-3.7s4.2,2.8,3.8,5.3c-0.4,2.5-2.8,4.2-5.4,3.7
				C750.5,522.3,748.8,519.9,749.3,517.4z"/>
			<path class="st0" d="M716.7,511.7c0.4-2.1,2.4-3.5,4.5-3.1s3.5,2.4,3.2,4.5c-0.4,2.1-2.4,3.5-4.5,3.1
				C717.7,515.8,716.3,513.8,716.7,511.7z"/>
			<path class="st0" d="M684.1,505.9c0.3-1.7,1.9-2.8,3.6-2.5s2.9,1.9,2.6,3.6s-1.9,2.8-3.6,2.5C685,509.2,683.8,507.6,684.1,505.9z
				"/>
			<path class="st0" d="M651.5,500.2c0.2-1.3,1.5-2.2,2.8-1.9c1.3,0.2,2.2,1.5,2,2.8s-1.5,2.2-2.8,1.9
				C652.2,502.7,651.3,501.5,651.5,500.2z"/>
		</g>
	</g>
	<g>
		<g>
			<path class="st0" d="M784.2,578.2c1.7-4.7,5.5-7.6,8.4-6.6c2.9,1.1,3.9,5.7,2.2,10.4c-1.7,4.7-5.5,7.6-8.4,6.6
				C783.4,587.6,782.4,582.9,784.2,578.2z"/>
			<path class="st0" d="M764.8,571.2c1.6-4.3,5-7,7.7-6c2.7,1,3.6,5.3,2,9.6c-1.6,4.3-5,7-7.7,6
				C764.2,579.8,763.3,575.5,764.8,571.2z"/>
			<path class="st0" d="M745.5,564.2c1.4-3.9,4.6-6.4,7-5.5s3.3,4.8,1.8,8.7c-1.4,3.9-4.6,6.4-7,5.5
				C745,572,744.1,568.1,745.5,564.2z"/>
			<path class="st0" d="M726.2,557.1c1.3-3.5,4.1-5.8,6.3-5s3,4.3,1.7,7.9c-1.3,3.5-4.1,5.8-6.3,5
				C725.7,564.2,725,560.7,726.2,557.1z"/>
			<path class="st0" d="M706.9,550.1c1.2-3.2,3.7-5.1,5.7-4.4c2,0.7,2.6,3.9,1.5,7c-1.2,3.2-3.7,5.1-5.7,4.4
				C706.5,556.4,705.8,553.3,706.9,550.1z"/>
			<path class="st0" d="M687.6,543.1c1-2.8,3.2-4.5,5-3.9s2.3,3.4,1.3,6.2c-1,2.8-3.2,4.5-5,3.9
				C687.2,548.6,686.6,545.9,687.6,543.1z"/>
			<path class="st0" d="M668.3,536.1c0.9-2.4,2.8-3.9,4.3-3.3c1.5,0.5,2,2.9,1.1,5.3c-0.9,2.4-2.8,3.9-4.3,3.3
				C668,540.8,667.5,538.5,668.3,536.1z"/>
			<path class="st0" d="M649,529c0.7-2,2.3-3.3,3.6-2.8s1.7,2.5,1,4.5s-2.3,3.3-3.6,2.8C648.7,533,648.3,531,649,529z"/>
			<path class="st0" d="M629.7,522c0.6-1.6,1.9-2.6,2.9-2.3c1,0.4,1.4,2,0.8,3.6c-0.6,1.6-1.9,2.6-2.9,2.3
				C629.5,525.2,629.1,523.6,629.7,522z"/>
			<path class="st0" d="M610.4,515c0.5-1.2,1.4-2,2.2-1.7c0.8,0.3,1,1.5,0.6,2.8c-0.5,1.2-1.4,2-2.2,1.7
				C610.2,517.5,610,516.2,610.4,515z"/>
		</g>
	</g>
	<g>
		<g>
			<path class="st0" d="M906.2,399.3c-0.9-4.9,2.8-9.7,8.2-10.6c5.4-1,10.4,2.3,11.3,7.2c0.9,4.9-2.8,9.7-8.2,10.6
				C912.2,407.5,907.1,404.2,906.2,399.3z"/>
			<path class="st0" d="M870.9,405.5c-0.8-4.5,2.5-8.9,7.5-9.8s9.6,2.1,10.4,6.6s-2.5,8.9-7.5,9.8
				C876.3,413,871.7,410.1,870.9,405.5z"/>
			<path class="st0" d="M835.6,411.8c-0.7-4.1,2.3-8.1,6.8-8.9s8.7,1.9,9.5,6c0.7,4.1-2.3,8.1-6.8,8.9
				C840.5,418.6,836.3,415.9,835.6,411.8z"/>
			<path class="st0" d="M800.2,418c-0.7-3.7,2.1-7.3,6.2-8c4-0.7,7.9,1.7,8.5,5.4c0.7,3.7-2.1,7.3-6.2,8
				C804.7,424.2,800.9,421.7,800.2,418z"/>
			<path class="st0" d="M764.9,424.2c-0.6-3.3,1.9-6.5,5.5-7.1c3.6-0.6,7,1.5,7.6,4.9c0.6,3.3-1.9,6.5-5.5,7.1
				C768.9,429.7,765.5,427.6,764.9,424.2z"/>
			<path class="st0" d="M729.6,430.5c-0.5-2.9,1.6-5.7,4.8-6.3c3.2-0.6,6.2,1.4,6.7,4.3s-1.6,5.7-4.8,6.3
				C733.1,435.3,730.1,433.4,729.6,430.5z"/>
			<path class="st0" d="M694.2,436.7c-0.4-2.5,1.4-4.9,4.2-5.4c2.7-0.5,5.3,1.2,5.8,3.7s-1.4,4.9-4.2,5.4
				C697.3,440.9,694.7,439.2,694.2,436.7z"/>
			<path class="st0" d="M658.9,442.9c-0.4-2.1,1.2-4.1,3.5-4.5s4.5,1,4.8,3.1c0.4,2.1-1.2,4.1-3.5,4.5
				C661.4,446.4,659.3,445,658.9,442.9z"/>
			<path class="st0" d="M623.6,449.2c-0.3-1.7,1-3.4,2.8-3.7c1.9-0.3,3.6,0.8,3.9,2.5c0.3,1.7-1,3.4-2.8,3.7
				C625.6,452,623.9,450.9,623.6,449.2z"/>
			<path class="st0" d="M588.2,455.4c-0.2-1.3,0.7-2.5,2.2-2.8c1.4-0.2,2.8,0.6,3,1.9s-0.7,2.6-2.2,2.8
				C589.8,457.5,588.5,456.7,588.2,455.4z"/>
		</g>
	</g>
	<g>
		<g>
			<path class="st0" d="M769.8,239.9c-3.2-3.8-3.5-8.9-0.5-11.4c2.9-2.4,7.9-1.3,11.1,2.5c3.2,3.8,3.5,8.9,0.5,11.4
				C777.9,244.9,773,243.7,769.8,239.9z"/>
			<path class="st0" d="M750.5,256c-3-3.5-3.2-8.2-0.5-10.4c2.7-2.2,7.2-1.2,10.2,2.3c3,3.5,3.2,8.2,0.5,10.5
				C758,260.6,753.5,259.6,750.5,256z"/>
			<path class="st0" d="M731.3,272.2c-2.7-3.2-2.9-7.5-0.4-9.5s6.6-1.1,9.3,2.1c2.7,3.2,2.9,7.5,0.4,9.5S734,275.4,731.3,272.2z"/>
			<path class="st0" d="M712,288.3c-2.4-2.9-2.6-6.7-0.4-8.6c2.2-1.9,6-1,8.4,1.9s2.6,6.7,0.4,8.6
				C718.2,292.1,714.5,291.2,712,288.3z"/>
			<path class="st0" d="M692.8,304.5c-2.2-2.6-2.3-6-0.3-7.7c2-1.6,5.3-0.9,7.5,1.7c2.2,2.6,2.3,6,0.3,7.7
				C698.3,307.8,695,307.1,692.8,304.5z"/>
			<path class="st0" d="M673.5,320.6c-1.9-2.3-2-5.3-0.3-6.7c1.7-1.5,4.7-0.8,6.6,1.5s2,5.3,0.3,6.7
				C678.4,323.5,675.5,322.9,673.5,320.6z"/>
			<path class="st0" d="M654.3,336.8c-1.6-2-1.8-4.5-0.3-5.8s4-0.7,5.7,1.3c1.6,2,1.8,4.5,0.3,5.8
				C658.5,339.3,656,338.7,654.3,336.8z"/>
			<path class="st0" d="M635.1,352.9c-1.4-1.6-1.5-3.8-0.2-4.9c1.2-1,3.4-0.6,4.8,1.1s1.5,3.8,0.2,4.9
				C638.6,355,636.4,354.5,635.1,352.9z"/>
			<path class="st0" d="M615.8,369.1c-1.1-1.3-1.2-3.1-0.2-3.9s2.7-0.5,3.8,0.9c1.1,1.3,1.2,3.1,0.2,3.9
				C618.7,370.8,616.9,370.4,615.8,369.1z"/>
			<path class="st0" d="M596.6,385.2c-0.8-1-0.9-2.4-0.1-3c0.8-0.6,2.1-0.4,2.9,0.7s0.9,2.4,0.1,3
				C598.8,386.5,597.4,386.2,596.6,385.2z"/>
		</g>
	</g>
	<g>
		<g>
			<path class="st0" d="M890.4,242.7c-2.5-4.3-1-9.9,3.4-12.4c4.4-2.5,9.9-1,12.4,3.3s1,9.9-3.4,12.4
				C898.4,248.5,892.9,247.1,890.4,242.7z"/>
			<path class="st0" d="M861.7,259.3c-2.3-4-0.9-9.1,3.1-11.4c4-2.3,9.1-1,11.4,3c2.3,4,0.9,9.1-3.1,11.4
				C869.1,264.6,864,263.3,861.7,259.3z"/>
			<path class="st0" d="M833,275.8c-2.1-3.6-0.8-8.3,2.8-10.4c3.6-2.1,8.3-0.9,10.4,2.8s0.8,8.3-2.8,10.4
				C839.8,280.7,835.1,279.5,833,275.8z"/>
			<path class="st0" d="M804.4,292.4c-1.9-3.3-0.8-7.5,2.5-9.4c3.3-1.9,7.5-0.8,9.4,2.5c1.9,3.3,0.8,7.5-2.5,9.4
				C810.4,296.8,806.2,295.6,804.4,292.4z"/>
			<path class="st0" d="M775.7,308.9c-1.7-2.9-0.7-6.6,2.3-8.3s6.7-0.7,8.3,2.2s0.7,6.6-2.3,8.3
				C781.1,312.8,777.4,311.9,775.7,308.9z"/>
			<path class="st0" d="M747,325.5c-1.5-2.6-0.6-5.8,2-7.3c2.6-1.5,5.9-0.6,7.3,1.9c1.5,2.6,0.6,5.8-2,7.3S748.5,328,747,325.5z"/>
			<path class="st0" d="M718.4,342c-1.3-2.2-0.5-5,1.7-6.3c2.2-1.3,5-0.5,6.3,1.7c1.3,2.2,0.5,5-1.7,6.3
				C722.5,345,719.6,344.2,718.4,342z"/>
			<path class="st0" d="M689.7,358.6c-1.1-1.9-0.4-4.2,1.4-5.3c1.9-1.1,4.2-0.5,5.3,1.4c1.1,1.9,0.4,4.2-1.4,5.3
				C693.2,361.1,690.8,360.4,689.7,358.6z"/>
			<path class="st0" d="M661,375.1c-0.9-1.5-0.3-3.4,1.2-4.3s3.4-0.4,4.3,1.1s0.3,3.4-1.2,4.3C663.8,377.1,661.9,376.6,661,375.1z"
				/>
			<path class="st0" d="M632.4,391.7c-0.7-1.1-0.3-2.6,0.9-3.3s2.6-0.3,3.3,0.9c0.7,1.1,0.3,2.6-0.9,3.3S633,392.8,632.4,391.7z"/>
		</g>
	</g>
	<g>
		<g>
			<path class="st0" d="M784.2,366.2c-1.7-4.7-0.7-9.4,2.2-10.4s6.7,1.9,8.4,6.6c1.7,4.7,0.7,9.4-2.2,10.4
				C789.6,373.8,785.9,370.9,784.2,366.2z"/>
			<path class="st0" d="M764.8,373.2c-1.6-4.3-0.7-8.6,2-9.6s6.2,1.7,7.7,6c1.6,4.3,0.7,8.6-2,9.6
				C769.9,380.2,766.4,377.5,764.8,373.2z"/>
			<path class="st0" d="M745.5,380.2c-1.4-3.9-0.6-7.8,1.8-8.7c2.5-0.9,5.6,1.6,7,5.5c1.4,3.9,0.6,7.8-1.8,8.7
				C750.1,386.6,747,384.2,745.5,380.2z"/>
			<path class="st0" d="M726.2,387.3c-1.3-3.5-0.5-7.1,1.7-7.9c2.2-0.8,5,1.4,6.3,5c1.3,3.5,0.5,7.1-1.7,7.9
				C730.4,393,727.5,390.8,726.2,387.3z"/>
			<path class="st0" d="M706.9,394.3c-1.2-3.2-0.5-6.3,1.5-7s4.5,1.3,5.7,4.4c1.2,3.2,0.5,6.3-1.5,7S708.1,397.5,706.9,394.3z"/>
			<path class="st0" d="M687.6,401.3c-1-2.8-0.4-5.5,1.3-6.2c1.7-0.6,4,1.1,5,3.9c1,2.8,0.4,5.5-1.3,6.2
				C690.9,405.8,688.7,404.1,687.6,401.3z"/>
			<path class="st0" d="M668.3,408.4c-0.9-2.4-0.4-4.8,1.1-5.3c1.5-0.5,3.4,1,4.3,3.4c0.9,2.4,0.4,4.8-1.1,5.3
				C671.1,412.2,669.2,410.8,668.3,408.4z"/>
			<path class="st0" d="M649,415.4c-0.7-2-0.3-4,1-4.5c1.2-0.5,2.9,0.8,3.6,2.8c0.7,2,0.3,4-1,4.5
				C651.4,418.6,649.8,417.4,649,415.4z"/>
			<path class="st0" d="M629.7,422.4c-0.6-1.6-0.2-3.2,0.8-3.6c1-0.4,2.3,0.6,2.9,2.3c0.6,1.6,0.2,3.2-0.8,3.6
				C631.6,425,630.3,424,629.7,422.4z"/>
			<path class="st0" d="M610.4,429.4c-0.5-1.2-0.2-2.5,0.6-2.8s1.8,0.5,2.2,1.7c0.5,1.2,0.2,2.5-0.6,2.8
				C611.9,431.5,610.9,430.7,610.4,429.4z"/>
		</g>
	</g>
	<g>
		<g>
			<path class="st0" d="M762.7,150.7c-3.8-3.2-4.1-9.2-0.6-13.4c3.5-4.2,9.5-5,13.3-1.7c3.8,3.2,4.1,9.2,0.6,13.4
				C772.5,153.1,766.5,153.9,762.7,150.7z"/>
			<path class="st0" d="M739.6,178.2c-3.5-2.9-3.8-8.4-0.5-12.3c3.2-3.8,8.7-4.6,12.2-1.6s3.8,8.4,0.5,12.3
				C748.6,180.4,743.2,181.1,739.6,178.2z"/>
			<path class="st0" d="M716.6,205.7c-3.2-2.7-3.4-7.7-0.5-11.2s7.9-4.1,11.1-1.5c3.2,2.7,3.4,7.7,0.5,11.2
				C724.8,207.7,719.8,208.3,716.6,205.7z"/>
			<path class="st0" d="M693.5,233.1c-2.9-2.4-3.1-6.9-0.5-10.1c2.6-3.1,7.1-3.7,10-1.3c2.9,2.4,3.1,6.9,0.5,10.1
				C700.9,235,696.4,235.6,693.5,233.1z"/>
			<path class="st0" d="M670.4,260.6c-2.6-2.2-2.8-6.2-0.4-9s6.4-3.3,8.9-1.2s2.8,6.2,0.4,9S673,262.8,670.4,260.6z"/>
			<path class="st0" d="M647.4,288.1c-2.3-1.9-2.4-5.4-0.3-7.9s5.6-2.9,7.8-1c2.3,1.9,2.4,5.4,0.3,7.9S649.6,290,647.4,288.1z"/>
			<path class="st0" d="M624.3,315.6c-2-1.6-2.1-4.7-0.3-6.8c1.8-2.1,4.8-2.5,6.8-0.9c2,1.6,2.1,4.7,0.3,6.8
				C629.3,316.8,626.3,317.2,624.3,315.6z"/>
			<path class="st0" d="M601.2,343.1c-1.6-1.4-1.8-3.9-0.2-5.7c1.5-1.8,4-2.1,5.7-0.7c1.6,1.4,1.8,3.9,0.2,5.7
				C605.4,344.1,602.9,344.5,601.2,343.1z"/>
			<path class="st0" d="M578.2,370.6c-1.3-1.1-1.4-3.2-0.2-4.6c1.2-1.4,3.3-1.7,4.6-0.6s1.4,3.2,0.2,4.6
				C581.6,371.4,579.5,371.7,578.2,370.6z"/>
			<path class="st0" d="M555.1,398c-1-0.9-1.1-2.4-0.2-3.5c0.9-1.1,2.5-1.3,3.5-0.5s1.1,2.4,0.2,3.5
				C557.7,398.7,556.1,398.9,555.1,398z"/>
		</g>
	</g>
	<g>
		<g>
			<path class="st0" d="M555.7,116.3c-4.9-0.9-8.4-4.6-7.7-8.4c0.7-3.8,5.2-6.1,10.1-5.2c4.9,0.9,8.4,4.6,7.7,8.4
				C565.1,114.8,560.6,117.2,555.7,116.3z"/>
			<path class="st0" d="M551.3,141c-4.5-0.8-7.7-4.2-7.1-7.7s4.8-5.6,9.3-4.8c4.5,0.8,7.7,4.2,7.1,7.7
				C560,139.7,555.8,141.8,551.3,141z"/>
			<path class="st0" d="M546.9,165.8c-4.1-0.7-7-3.9-6.5-7c0.5-3.1,4.3-5.1,8.5-4.4c4.1,0.7,7,3.9,6.5,7
				C554.8,164.5,551.1,166.5,546.9,165.8z"/>
			<path class="st0" d="M542.6,190.5c-3.7-0.7-6.3-3.5-5.8-6.3c0.5-2.8,3.9-4.6,7.6-3.9c3.7,0.7,6.3,3.5,5.8,6.3
				C549.7,189.4,546.3,191.2,542.6,190.5z"/>
			<path class="st0" d="M538.2,215.2c-3.3-0.6-5.6-3.1-5.2-5.6s3.5-4.1,6.8-3.5c3.3,0.6,5.6,3.1,5.2,5.6S541.5,215.8,538.2,215.2z"
				/>
			<path class="st0" d="M533.8,240c-2.9-0.5-5-2.7-4.6-4.9s3.1-3.6,6-3.1c2.9,0.5,5,2.7,4.6,4.9C539.4,239.1,536.8,240.5,533.8,240z
				"/>
			<path class="st0" d="M529.5,264.7c-2.5-0.4-4.3-2.4-3.9-4.3c0.3-1.9,2.6-3.1,5.2-2.7c2.5,0.4,4.3,2.4,3.9,4.3
				C534.3,264,532,265.1,529.5,264.7z"/>
			<path class="st0" d="M525.1,289.4c-2.1-0.4-3.6-2-3.3-3.6s2.2-2.6,4.3-2.2c2.1,0.4,3.6,2,3.3,3.6S527.2,289.8,525.1,289.4z"/>
			<path class="st0" d="M520.8,314.2c-1.7-0.3-2.9-1.6-2.7-2.9c0.2-1.3,1.8-2.1,3.5-1.8c1.7,0.3,2.9,1.6,2.7,2.9
				C524,313.7,522.5,314.5,520.8,314.2z"/>
			<path class="st0" d="M516.4,338.9c-1.3-0.2-2.2-1.2-2-2.2c0.2-1,1.4-1.6,2.7-1.4c1.3,0.2,2.2,1.2,2,2.2
				C518.9,338.5,517.7,339.1,516.4,338.9z"/>
		</g>
	</g>
	<g>
		<g>
			<path class="st0" d="M649.9,41c-4.7-1.7-7.1-6.9-5.4-11.6c1.7-4.7,6.9-7.2,11.6-5.5s7.1,6.9,5.4,11.6S654.6,42.7,649.9,41z"/>
			<path class="st0" d="M638.5,72.1c-4.3-1.6-6.5-6.4-5-10.7s6.4-6.6,10.7-5c4.3,1.6,6.5,6.4,5,10.7
				C647.6,71.4,642.9,73.6,638.5,72.1z"/>
			<path class="st0" d="M627.2,103.2c-3.9-1.4-6-5.8-4.5-9.8s5.8-6,9.7-4.6s6,5.8,4.5,9.8C635.5,102.5,631.2,104.6,627.2,103.2z"/>
			<path class="st0" d="M615.9,134.2c-3.5-1.3-5.4-5.2-4.1-8.8c1.3-3.6,5.2-5.4,8.8-4.1c3.5,1.3,5.4,5.2,4.1,8.8
				C623.4,133.7,619.5,135.5,615.9,134.2z"/>
			<path class="st0" d="M604.6,165.4c-3.2-1.1-4.8-4.7-3.6-7.8s4.7-4.8,7.8-3.7c3.2,1.1,4.8,4.7,3.6,7.8
				C611.2,164.9,607.8,166.5,604.6,165.4z"/>
			<path class="st0" d="M593.3,196.5c-2.8-1-4.2-4.1-3.2-6.9c1-2.8,4.1-4.2,6.9-3.2c2.8,1,4.2,4.1,3.2,6.9
				C599.1,196,596,197.5,593.3,196.5z"/>
			<path class="st0" d="M582,227.6c-2.4-0.9-3.6-3.5-2.8-5.9c0.9-2.4,3.5-3.6,5.9-2.8c2.4,0.9,3.6,3.5,2.8,5.9
				C587,227.2,584.3,228.4,582,227.6z"/>
			<path class="st0" d="M570.6,258.7c-2-0.7-3-3-2.3-5c0.7-2,3-3.1,5-2.3c2,0.7,3,3,2.3,5C574.9,258.4,572.6,259.4,570.6,258.7z"/>
			<path class="st0" d="M559.3,289.8c-1.6-0.6-2.5-2.4-1.9-4c0.6-1.6,2.4-2.5,4-1.9c1.6,0.6,2.5,2.4,1.9,4
				C562.7,289.5,560.9,290.4,559.3,289.8z"/>
			<path class="st0" d="M548,320.9c-1.2-0.5-1.9-1.8-1.4-3.1c0.5-1.2,1.8-1.9,3.1-1.4s1.9,1.8,1.4,3.1S549.2,321.3,548,320.9z"/>
		</g>
	</g>
	<g>
		<g>
			<path class="st0" d="M647.9,203.8c-4.3-2.5-6.6-6.7-5-9.4s6.3-2.9,10.7-0.4c4.3,2.5,6.6,6.7,5,9.4
				C657,206.1,652.2,206.3,647.9,203.8z"/>
			<path class="st0" d="M637.6,221.6c-4-2.3-6-6.2-4.6-8.6s5.8-2.6,9.8-0.3c4,2.3,6,6.2,4.6,8.6C646,223.7,641.6,223.9,637.6,221.6z
				"/>
			<path class="st0" d="M627.3,239.4c-3.6-2.1-5.5-5.6-4.2-7.9c1.3-2.3,5.3-2.4,8.9-0.3s5.5,5.6,4.2,7.9S631,241.5,627.3,239.4z"/>
			<path class="st0" d="M617.1,257.2c-3.3-1.9-5-5.1-3.8-7.1c1.2-2,4.8-2.2,8-0.3c3.3,1.9,5,5.1,3.8,7.1
				C623.9,258.9,620.3,259,617.1,257.2z"/>
			<path class="st0" d="M606.8,275c-2.9-1.7-4.4-4.5-3.4-6.3s4.3-1.9,7.2-0.2c2.9,1.7,4.4,4.5,3.4,6.3
				C612.9,276.5,609.7,276.6,606.8,275z"/>
			<path class="st0" d="M596.5,292.7c-2.6-1.5-3.9-4-3-5.6c0.9-1.6,3.8-1.7,6.3-0.2c2.6,1.5,3.9,4,3,5.6
				C601.9,294.1,599.1,294.2,596.5,292.7z"/>
			<path class="st0" d="M586.2,310.5c-2.2-1.3-3.3-3.4-2.5-4.8c0.8-1.4,3.2-1.5,5.4-0.2c2.2,1.3,3.3,3.4,2.5,4.8
				C590.9,311.7,588.5,311.8,586.2,310.5z"/>
			<path class="st0" d="M576,328.3c-1.8-1.1-2.8-2.9-2.1-4s2.7-1.2,4.6-0.2s2.8,2.9,2.1,4S577.8,329.4,576,328.3z"/>
			<path class="st0" d="M565.7,346.1c-1.5-0.9-2.3-2.3-1.7-3.3c0.5-0.9,2.2-1,3.7-0.1s2.3,2.3,1.7,3.3S567.2,347,565.7,346.1z"/>
			<path class="st0" d="M555.4,363.9c-1.1-0.7-1.7-1.8-1.3-2.5c0.4-0.7,1.7-0.8,2.8-0.1s1.7,1.8,1.3,2.5
				C557.8,364.5,556.6,364.5,555.4,363.9z"/>
		</g>
	</g>
</g>
</svg>
