<?xml version="1.0" encoding="utf-8"?>
<!-- Generator: Adobe Illustrator 25.4.1, SVG Export Plug-In . SVG Version: 6.00 Build 0)  -->
<svg version="1.1" id="Layer_1" xmlns="http://www.w3.org/2000/svg" xmlns:xlink="http://www.w3.org/1999/xlink" x="0px" y="0px"
	 viewBox="0 0 1200 1820" style="enable-background:new 0 0 1200 1820;" xml:space="preserve">
<style type="text/css">
	.st0{fill:#393A3C;}
	.st1{fill:#EEEEEF;}
	.st2{fill:#4DBFDC;}
	.st3{fill:#119AD7;}
	.st4{fill:#453878;}
	.st5{fill:#6154C7;}
	.st6{fill:#FF8F00;}
	.st7{fill:#C3C3D1;}
	.st8{fill:#ABAABA;}
	.st9{fill:#8C4F45;}
	.st10{fill:#753C36;}
	.st11{fill:#443889;}
	.st12{fill:#F7C2D0;}
	.st13{fill:#30323D;}
	.st14{fill:#23242B;}
	.st15{fill:#FDF5ED;}
	.st16{fill:#9E005D;}
	.st17{fill:#DA727E;}
	.st18{fill:#FF8D94;}
	.st19{fill:#F04E98;}
</style>
<g>
	<g id="Eric_00000129178399750480288550000009610960592995613066_">
		<g>
			<g>
				<g>
					<path class="st0" d="M800.5,1764.3c-15,9.9-46.8,11.7-67,10.9c-20.2-0.8-13.4-17.5-8.2-39.4c5.2-21.9,1.6-44.2,1.6-44.2
						s68.2-6.4,73.8,7.8C806.4,1713.7,815.5,1754.5,800.5,1764.3z"/>
				</g>
				<g>
					<path class="st1" d="M801.5,1777.5c-14.9,11.3-46.8,13.6-66.9,11.9c-16.8-1.4-18-11.1-14.7-25.3c0.4,6.7,3.8,10.8,13.6,11.1
						c20.2,0.8,52-1,67-10.9c6.6-4.4,8.6-14.8,8.1-26.3C810.4,1754.8,809.5,1771.4,801.5,1777.5z"/>
				</g>
				<g>
					<g>
						<path class="st1" d="M580.9,1704.3c1.6,21.4-8.5,25.9-33.6,26c-25.1,0.2-40.1,9.2-54.3,17.7c-14.2,8.5-46.5,14.4-64.8,11.9
							c-18.3-2.5-16.8-19.2-16.8-19.2S579.3,1682.9,580.9,1704.3z"/>
					</g>
					<g>
						<path class="st0" d="M578,1691.9c0,0,6.6,13.9-0.3,22.4c-6.9,8.5-35.4,3.5-57.3,9.7c-21.9,6.2-27.3,21.4-61,26.2
							c-33.7,4.8-49.4-2.6-48.7-14.2c0.8-11.6,39.2-29.7,60-36s40.1-33.6,40.1-33.6L578,1691.9z"/>
					</g>
				</g>
				<g>
					<path class="st2" d="M820.8,1710.9c-74.4,22-111,7.3-109.3-9.5L566,1120.7l39.8,562.9c-68.8,38.9-132.3-1.3-132.3-1.3
						L288,887.3l53.2-55.9c0,0,432.5-146.8,458.4-11.3C825.5,955.5,820.8,1710.9,820.8,1710.9z"/>
					<g>
						<path class="st3" d="M558.6,1101.7c0.1,0,0.1,0,0.2,0c1.1-0.2,1.8-1.2,1.6-2.3l-13.2-73.1c-0.2-1.1-1.2-1.8-2.3-1.6
							c-1.1,0.2-1.8,1.2-1.6,2.3l13.2,73.1C556.6,1101,557.5,1101.7,558.6,1101.7z"/>
					</g>
				</g>
			</g>
		</g>
	</g>
	<path class="st4" d="M704.8,389.2c0,0,46.4-9.7,90.2-5.5s51.2,14.9,78.8,61.4s76.7,128.5,78.1,130.5s88-66.2,88-66.2l39.9,53
		l-38.6,149c0,0-33.2,52.5-82.6,49.4s-106.8-42.6-133.7-66s-35-40.4-35-40.4l-7.6,91.6l43.1,48.5c0,0-28.7,66-108.6,119.4
		s-254,94.2-254,94.2l-33.2-50.7l-4.5,56.1l-72.7-20.7c0,0-47.1-51.6-69.1-99.2s-21.6-94.7-19.8-114.4c1.1-11.7,2.7-23.4,4.9-35
		c0,0-38.1,12.1-91.1-42.2s-70.9-95.6-70.4-147.2s9.9-82.1,9.9-82.1l59.7-12.6c0,0,3.6,20.6,21.5,53.4s56.1,60.1,56.1,60.1
		s68.2-67.8,128.8-110.4s170.1-61.5,170.1-61.5L704.8,389.2z"/>
	<path class="st5" d="M918.1,596.4c5.9-3,10.4-7.4,15.7-11.2c6-4.3,12.2-8.3,18.4-12.3c6-3.9,12.1-7.7,18-11.8c2.8-2,5.6-4,8.4-6.1
		c3-2.2,5.9-4.9,9.3-6.5c0.3-0.2,0.8,0.2,0.6,0.6c-3.6,5.5-10,9.6-15.2,13.5c-6,4.6-12.1,9.2-18.4,13.5c-6.1,4.2-12.2,8.3-18.4,12.4
		c-5.5,3.7-11.1,8.3-17.3,10.4C917.8,599.4,916.7,597.1,918.1,596.4z"/>
	<path class="st5" d="M757.8,599.8c6,12.4,12.7,24.7,19.6,36.6c3.6,5.9,7.5,11.6,11.8,16.9c2.1,2.7,4.4,5.3,6.4,8.1
		c2.2,3,3.8,6.2,6.5,8.7c0.7,0.6-0.3,1.6-1,1c-5.2-4.5-9.2-10.5-13.6-15.8c-4.5-5.5-9.1-10.8-13.2-16.6c-3.9-5.8-7.3-11.9-10.3-18.1
		c-3.3-6.6-6.5-12.9-8.1-20.2C755.8,599.5,757.3,598.7,757.8,599.8z"/>
	<path class="st5" d="M266.9,745.6c2-10.4,5.6-20.5,8.1-30.8c2.5-10.3,4.7-20.5,8.1-30.4s7.8-19.7,12.2-29.4
		c8.7-19.4,17.7-39,29.2-56.9s21.9-36.5,33.4-54.5c6.1-9.6,11.7-19.3,18.9-28.2c3.7-4.5,7.1-9.3,10.9-13.8c2.7-3.3,5.4-7,9.2-9
		c0.4-0.2,0.8,0,1,0.4c0.1,0.3,0.1,0.7-0.2,0.9c-3.2,2.4-5.5,6-8,9.1c-3.2,4.1-6.2,8.2-9.4,12.3c-6.3,8.1-12.1,16.6-17.3,25.4
		c-5.2,8.8-10.5,17.6-15.5,26.5c-5,9.2-10,18.3-15.7,27c-5.5,8.3-10.5,16.9-15,25.8c-4.8,9.6-9.2,19.3-13.6,29
		c-4.2,9.5-8.3,19.1-12.1,28.8c-3.8,9.6-6.5,19.6-8.9,29.7c-2.6,10.9-5.9,21.5-9.2,32.3c-1.7,5.5-3,11.2-4.5,16.7
		c-1.8,5.9-3,11.9-3.6,18c-0.1,0.9-1.6,1.4-1.8,0.3C261.4,765.1,265.1,755.2,266.9,745.6z"/>
	<path class="st5" d="M221.1,544.5c5.5,3.3,9.5,8.6,14.4,12.8c5.9,5,12.4,8.6,19,12.5c6,3.6,11.5,8.1,17.9,11.2
		c5.4,2.7,11.8,4.6,15.8,9.3c0.4,0.4,0.4,1.2,0,1.6c-0.3,0.3-0.9,0.4-1.3,0.2c-5.7-2.7-11.7-4.5-17.2-7.3
		c-6.5-3.2-12.1-8.1-18.3-11.9c-5.8-3.7-11.3-7.9-16.4-12.5c-5.2-4.6-9.3-10.4-14.6-14.9C219.8,545.1,220.5,544.1,221.1,544.5z"/>
	<polygon class="st6" points="1069.3,591.3 1097.9,592.5 1109.9,426.2 1071.2,424.5 	"/>
	<path class="st7" d="M1056.6,401.2c0.9-21.1,17.2-37.6,36.5-36.8s34.2,18.6,33.3,39.7s-17.2,37.6-36.5,36.8
		S1055.8,422.3,1056.6,401.2z"/>
	
		<rect x="1086.3" y="365.3" transform="matrix(3.996804e-02 -0.9992 0.9992 3.996804e-02 644.8802 1474.2639)" class="st8" width="6.7" height="72.5"/>
	<path class="st9" d="M1101.3,564.1c0,0,18.6,1.8,21.5-5.6s-3.6-20-3.6-20s21.1,0.2,20-10.1s-9.9-19.3-9.9-19.3s15.9-15,12.3-22
		s-14.1-11-14.1-11s9.9-9.9,5.4-15.9s-16.6-17-29-18.9s-16.2-2-20,7.4c-3.8,9.4,8.1,24.5,8.1,24.5s-6.7-1.6-8.5-1.3
		c-1.1,0.1-2.1,0.6-2.9,1.3c-1.1-3.5-3.9-6.2-7.4-7.4c-6.1-2.2-19.6-13-22.5-14.4s-11.9-4-16.4,13.5s-10.5,34.6-2.5,57
		c8.1,22.4,37.3,36.7,37.3,36.7l0.8-30.3l-6.4-18.7c0,0,0.4,12.6,4.5,15.9c2.5,2.1,5.3,3.7,8.3,4.9c0,0-5.2,2.7-5.2,9.9
		s4.9,11.2,14.8,12.6s15.1,4.7,15.1,4.7L1101.3,564.1z"/>
	<path class="st10" d="M1043.7,488.1c0.3-0.7,1.4-0.2,1.2,0.5c-1.2,4.1,4,9.1,6.8,11.5c2,1.7,4.2,3.2,6.5,4.6
		c1.5,0.9,3.1,1.5,4.5,2.4c1.2-3.8,4.9-6.5,8.6-8.1c1.7-0.7,3.5-1.3,5.3-1.7c-0.9-1.9-1.6-3.9-2-6c-0.8-2.8-1.1-5.7-0.8-8.5
		c0.6-4.6,3-8.8,7.6-10.1c0.7-0.2,1.2,0.9,0.5,1.2c-3.8,1.8-5.2,7.1-5,10.9c0.2,2.6,0.8,5.2,1.7,7.6c0.6,1.4,1.1,2.8,1.4,4.2
		c3.6-0.4,7.3-0.6,11-0.4c12.9,0.5,28.8,3.7,38.5,12.8c0.3,0.3,0.3,0.8,0,1.1c-0.2,0.2-0.6,0.3-0.9,0.1c-5.6-3.1-10.8-6.1-17-8
		c-5.7-1.7-11.6-1.9-17.5-2c-5.6-0.2-11.2-0.2-16.7,1c-2.8,0.6-5.5,1.7-8,3.2c-2.7,1.7-3.1,3.7-4.2,6.5c-0.2,0.8-1.1,1.2-1.8,1
		c-0.6-0.2-1-0.7-1-1.3c0-0.1,0-0.1,0-0.2c-2.8-0.1-5.6-2.3-7.8-3.9c-2.4-1.7-4.6-3.7-6.5-5.9
		C1045.2,497.3,1041.8,492.7,1043.7,488.1z"/>
	<path class="st10" d="M1092.8,472.9c2.9-1.2,6.3-0.4,9.3,0c3.2,0.4,6.5,0.7,9.8,0.8c5.3,0.2,10.2,0.2,15.1,2.5
		c0.3,0.2,0.4,0.6,0.2,0.9c-0.1,0.2-0.4,0.4-0.7,0.3c-5.1-1.8-11.1-0.7-16.4-0.8c-3.3-0.1-6.5-0.6-9.7-1c-2.6-0.3-5.3-0.2-7.7-1.3
		C1092,474,1092.2,473.1,1092.8,472.9z"/>
	<path class="st10" d="M1076.6,529c4.1-1.3,9.2-0.8,13.4-0.4c4.5,0.4,9,1.2,13.4,2.5c2.7,0.8,11.7,2.3,10.9,6.5
		c-0.1,0.3-0.4,0.5-0.7,0.4c-0.1,0-0.2-0.1-0.2-0.1c-1.5-1.6-3.9-2.2-6-2.7c-2.8-0.7-5.6-1.4-8.5-1.9c-3.7-0.7-7.5-1.1-11.3-1.1
		c-3.6,0-7.5,0.5-10.9-0.5c-0.8-0.2-1.2-1-1-1.8C1075.9,529.5,1076.2,529.2,1076.6,529z"/>
	<path class="st11" d="M402.5,795.8c2-1.3,59.2-59.9,137.3-120.5s177-117.8,177-117.8s-7.4-10.6-32.5-24.4s-43.5-23.7-43.5-23.7
		c21-4.4,42.3-7.5,63.7-9.2c21.5-1.7,43.1-2.2,64.7-1.5c0,0,3.1-48-0.4-83.9s-5.4-54.3-5.4-54.3s-45.8-63.2-130.2-21.5
		c-86.5,42.7-102.8,16.2-142.3,47.6s-76.3,82.6-76.3,82.6l43.6,23.5l-53.4,19.4c0,0-15.3,48.1-15.8,118.6S402.5,795.8,402.5,795.8z"
		/>
	<path class="st12" d="M717.6,399.2c-0.2-2.2-88.6,90.3-164.8,177.2S406.6,787.7,406.6,787.7s10.1-88.9,37.7-180.4
		s73.4-228.6,73.4-228.6L717.6,399.2z"/>
	<path class="st5" d="M299.4,921.9c4.4,6,8.3,12.4,12.5,18.5c4.4,6.3,8.9,12.4,13.4,18.6c8.6,11.7,18,22.3,27.9,32.9
		c0.3-0.1,0.6-0.1,0.9,0c23.7,6.8,47.7,13.3,71.1,21c-0.3-3.7,0.5-7.6,0.8-11.2c0.4-4.8,0.8-9.6,1.1-14.4c0.6-9.6,1-19.3,1.7-28.9
		c0-0.1,0.1-0.3,0.2-0.3l-0.3-0.5c-0.4-0.7,0.5-1.5,1.1-0.8c7.2,8,13.6,16.7,19.1,25.9c4.9,8.3,9,16.6,14.8,24.3
		c45.1-11.5,89.8-24.7,134.1-39.2c11-3.6,21.8-7.9,32.6-12c0.1-0.4,0.3-0.7,0.7-0.9c23.5-11.3,48-20.2,70.7-33.3
		c11-6.5,21.5-13.7,31.5-21.6c10-7.8,19.5-16.2,29.7-23.7c4.7-5.8,10-11.2,15.1-16.7c5.7-6.2,11-12.6,16.5-19
		c5.5-6.4,10.6-13.2,15.3-20.2c4.8-7.1,8.9-14.6,13.5-21.8c0.1-0.2,0.4-0.2,0.6-0.1c0.2,0.1,0.2,0.3,0.1,0.5
		c-6.3,15.4-17.2,29.2-27.1,42.3c-5,6.7-10.6,13-16.1,19.3c-5.7,6.5-11.6,13.4-18.3,19c-0.3,0.3-0.9,0.3-1.2,0
		c-7.8,8-16.9,15-25.7,21.8c-10.4,8.1-21.2,15.5-32.5,22.3c-11.3,6.5-22.9,12.5-34.8,17.8c-11.9,5.5-23.9,11.1-36,16
		c-0.4,0.2-0.8,0.1-1.2-0.1c-8.6,4.7-17.9,8-27.1,11.3c-11,3.9-22.1,7.6-33.2,11.1c-22.7,7.2-45.5,14-68.4,20.4
		c-12.5,3.5-25.1,6.8-37.7,10c-0.5,0.6-1.3,0.8-2,0.4c-1,0-1.8-0.8-1.8-1.8c-6-6.9-9.9-15.7-14.2-23.6c-5-9.1-11.4-17.2-16.9-26
		c0.6,9.5,0.6,19.1,0,28.7c-0.2,4.8-0.6,9.6-1.1,14.4c-0.4,4-0.4,8.3-1.9,12c0,0.6-0.4,1-0.9,1.1c-0.1,0-0.3,0-0.4-0.1
		c-23.5-5.9-46.7-13.1-70.1-19.7c-0.3,0.6-1.1,0.9-1.7,0.5c-0.1-0.1-0.2-0.1-0.3-0.2c-11.1-10.1-20.9-22.3-29.9-34.2
		c-4.6-6.1-8.9-12.4-13-18.8s-8.6-13.2-12-20.2c-0.2-0.3,0-0.7,0.3-0.8C298.9,921.5,299.3,921.6,299.4,921.9z"/>
	<path class="st5" d="M388.1,655.2c0-12.8,0.5-25.5,0.5-38.3c-0.7-3.5-0.1-7.6,0-11c0.1-4.7,0.3-9.5,0.6-14.2
		c0.6-9,1.7-17.9,2.9-26.8c1.3-9.2,3.1-18.3,5.4-27.2c1.1-4.4,2.4-8.8,3.5-13.3c0.9-3.7,1.4-7.4,2.1-11.1c-0.3-0.4-0.3-1,0.1-1.4
		l0.2-0.2c0-0.2,0.1-0.3,0.1-0.5c0.2-0.6,0.8-0.9,1.4-0.7c0,0,0,0,0.1,0c3.1-1.9,7.1-3,10.3-4.4c4.7-1.9,9.5-3.8,14.3-5.5
		c4.8-1.8,9.6-3.5,14.5-4.9c3.5-1,7.4-2.7,11.1-3.3c-2.8-1.2-5.5-2.8-8.2-4.2c-4.1-2-8.1-4.1-12.2-6.2c-3.5-1.8-7.1-3.6-10.5-5.6
		s-6.8-4.4-10.7-5.7l-0.1,0c-0.7,0-1.2-0.6-1.2-1.3c0-0.2,0-0.3,0.1-0.4c2.7-6.8,8.5-12.8,13.5-18c2.8-2.9,5.7-5.7,8.5-8.6
		s5-6.3,7.8-9.1c0.2-0.2,0.5-0.2,0.7,0c0.1,0.2,0.2,0.4,0.1,0.6c-1.4,3.2-4,5.9-6.2,8.6c-2.5,3-5,5.8-7.5,8.8s-4.8,5.6-7,8.4
		s-4.1,6-6.2,9c2.8,1.3,5.5,2.8,8.1,4.5c3.4,2.2,7,4.1,10.6,6c4,2.1,8,4.3,12,6.5c3.8,2.1,8,3.9,11.4,6.6c0.5,0.4,0.1,1.1-0.4,1.1
		c-3.8,2.4-8.9,3.3-13,4.8c-4.6,1.7-9.2,3.3-13.8,5s-9.2,3.5-13.7,5.3c-3.6,1.5-7.6,3.8-11.6,4.8c0.5,7.5-2.6,15.5-4.5,22.5
		c-2.3,9-4.1,18.1-5.8,27.2c-1.7,9.4-2.9,18.9-3.5,28.5c-0.3,4.7-0.6,9.5-0.7,14.2c-0.1,3.5,0.5,7.7-0.2,11.2
		c1.2,10.8,0.4,22,0.3,32.9c-0.1,11.8,0.1,23.6,0.6,35.4c1,23.4,3.8,46.5,5.9,69.8c1.1,12.5,3.7,24.9,6.2,37.2
		c9.6-9.2,19.2-18.6,29.1-27.6c10.5-9.5,20.4-19.7,31-29.1c21.3-19.1,43.5-37.1,66-54.7c6.3-5,12.7-9.9,19.1-14.9
		c5.7-4.4,11.3-9.3,17.4-13.2c36.9-27.2,76.1-51.3,114.8-75.9c5.7-3.6,11.3-7.2,17-10.8c5.4-3.4,10.8-7.1,16.6-9.8
		c-5.8-2.7-10.8-8-15.8-11.9c-6.1-4.7-13-7.9-19.6-11.7s-13.7-7.3-20.6-10.8c-3.7-1.9-7.3-3.7-11-5.5c-2.8-1.2-5.5-2.5-8.2-4
		l-0.9,0.2c-2.1,0.5-3.1-2.7-1-3.3c21.5-5.5,43.8-8.3,65.8-11.1c21-2.6,43.6-6,64.5-0.7c-0.2-9.2,0.3-18.3,0.4-27.5
		c0.1-9.6,0.1-19.2-0.1-28.7s-0.6-19.1-1.2-28.7s-1.8-19-2.5-28.5c0-0.4,0.3-0.7,0.7-0.7c0.3,0,0.5,0.2,0.6,0.5
		c4.7,18.2,5.2,37.9,5.7,56.7c0.2,9.6,0.2,19.2,0.2,28.7c0,9.7,0.3,19.5-0.2,29.3c-0.1,1-0.9,1.8-1.9,1.7c-0.5,0-1-0.3-1.4-0.7
		c-10.5-1.1-21.1-1.4-31.7-1c-10.8,0.5-21.6,1.8-32.4,3.2c-20.4,2.5-40.6,5.6-60.7,9.8c1.5,0.6,2.9,1.3,4.3,1.9
		c3.8,1.7,7.4,3.6,11.1,5.4c7.3,3.7,14.5,7.6,22,11c6.7,2.9,13.1,6.5,19,10.8c3,2.2,5.8,4.6,8.7,7c3,2.5,6.4,5,8.5,8.3
		c0.1,0.2,0.1,0.4,0,0.6c0.1,0.4,0,0.7-0.2,1c-8.8,7.8-19.8,13.7-29.8,20c-10.2,6.5-20.4,13-30.5,19.5
		c-20.1,12.8-40.1,25.7-59.8,39.1c-11.5,7.8-22.9,15.7-34.7,23.1h-0.1c-2.7,2.1-5.4,4.2-8,6.2l-17,13.3
		c-11.6,9.1-23.2,18.2-34.6,27.5c-11.1,9-21.9,18.3-32.6,27.8c-5.1,4.6-10.2,9.2-15.3,13.8c-5.4,4.9-11.1,9.6-16.4,14.6
		c-5.6,5.3-10.9,11-16.4,16.4c-5.8,5.7-11.5,11.3-17.2,17c-0.2,1.3-2.3,1.7-2.6,0.2c0-0.2,0-0.3-0.1-0.4c-0.2-0.3-0.2-0.7-0.2-1
		C393.4,748.7,388.2,702.1,388.1,655.2z"/>
	<path class="st9" d="M224.9,414.2c-5.2-0.5-11.5,3.4-14.1,7.1c0,0-20.7,26.7-24.7,25.6c-3.7-1-3.7-12.7-3.7-12.7
		c0.4-9.3-3.1-29.2-3.1-29.2l-3.2-57.6c-0.3-3.9-4.2-6.2-8.6-5.2s-8.1,6-7.8,9.8l1.6,52.4c-0.2,1.1-1,1.9-2.1,2.1
		c-1.1,0.3-2.5,0.5-2.9-1l-4.6-62.5c-0.3-3.9-4.1-6.5-8.5-5.5c-4.4,1-7.7,4.8-7.4,8.7l3.5,64.8c0.3,1.9-2.5,3.6-3.3,1.7l-7.2-56.6
		c-0.3-3.7-3.9-5.9-8.1-5s-7.3,4.7-7,8.3l4.9,63.7c0.4,2.7-2.3,3.7-2.8,1.9l0,0l-8.8-43.1c-0.3-3.7-3-5.7-7.2-4.8s-5.9,4.8-5.6,8.5
		l5.9,51c-1.3,55.8,17.6,72.7,17.6,72.7c34.3,28.5,55.4-14.5,55.4-14.5c9.8-8,18.3-17.5,25.1-28.2c4.4-7,16.6-27.9,25.2-40
		c2-2.8,4.2-5.5,6.5-8C231.7,416.5,229.6,414.7,224.9,414.2z"/>
	<path class="st9" d="M610.4,201c0,0-61.5,140.5-67.8,154.4s72.8,17.1,20.1,33.3c0,0,19.5,7.5,76.5,18c91.2,16.8,41.3,7.9,59.3-10.5
		c0,0,3.6,5.4,5.7-19.7c2.5-30,26.4-155,26.4-155L610.4,201z"/>
	<path class="st10" d="M610.4,201l120.2,20.5c0,0-10.8,56.5-18.6,102.7c-9.6,7.5-19.9,13.9-30.7,19.3c-25,12.1-48.1,9.4-68.4,6
		c-24.7-4.2-41.1-17.5-51.2-37.2C581.9,266.2,610.4,201,610.4,201z"/>
	<path class="st9" d="M786.2,183.6c-14.8,78.1-69.3,123.1-104.9,140.2c-25,12.1-48.1,9.4-68.4,6c-65-11.1-72.5-84.1-59.3-175.5
		c13.1-91.2,53.8-135.4,134-121.7C777.1,47.7,803.2,93.5,786.2,183.6z"/>
	<path class="st10" d="M593.3,244c-5.2-1-9-3.1-10.3-7.3c-4-13,10.7-30.3,12.2-32.5c1-1.5,2.3-2.3,3.8-1.3s0.5,3.1-0.5,4.6
		c-4.8,7.2-9.4,21.2-7.2,27.2c0.4,1,1.1,2.2,3.6,2.9c1.7,0.5,2.8,2.2,2.4,4C596.7,244.7,593.4,244,593.3,244z"/>
	<path class="st13" d="M551.2,151.7c-0.8-0.1-1.4-0.6-1.8-1.3c-1-1.7-0.7-3.9,0.7-5.2c5.8-5.6,19.7-17.1,34.1-0.7
		c1.3,1.4,1.5,3.5,0.5,5.2c-1.1,1.7-3,2.1-4.3,0.9c-13.5-12.1-26.5,0.2-26.6,0.3C553.1,151.6,552.1,151.9,551.2,151.7z"/>
	<path class="st13" d="M685.5,174.7c2,0.3,4-1,4.3-3.1c0.2-0.9,0-1.9-0.5-2.6c-4.7-7.4-16.6-23.3-39.4-13.3c-1.9,0.7-3,2.7-2.5,4.7
		c0.6,2,2.7,3.1,4.7,2.5c0,0,0,0,0,0c20.2-6.3,30.8,9.9,30.9,10.1C683.5,173.9,684.5,174.5,685.5,174.7z"/>
	<path class="st10" d="M732.2,189.9c0,0,7.8-17.6,27-11.7c18.6,5.7,9.5,64-8.6,70.9c-18.2,7-25.8-22.4-25.8-22.4L732.2,189.9z"/>
	<path class="st9" d="M726,193.2c0,0,7.5-13.8,26.8-8.7c18.6,4.9,10.7,50.7-7.3,55.8s-26.2-18.2-26.2-18.2L726,193.2z"/>
	<path class="st14" d="M640.6,198.5c0.3-1.6,1.5-3.2,2.1-4.8c0.7-1.7,1.5-3.3,2.5-4.8c2.2-3.6,6.2-5.8,10.5-5.6
		c5.9,0.2,7.5,4.1,8.3,7.6c0.7,3.1,4.1,9.7-0.6,11.9c-0.6,0.3-1.5,0-1.6-0.5c-0.5-1.6-0.1-3.3-0.5-5s-1.1-3.5-1.6-5.2
		c-0.7-2.3-1.4-6.6-6.2-5.1c-6.6,2-4.6,9.8-8.2,13.3C643.4,202.1,640.2,200.2,640.6,198.5z"/>
	<path class="st14" d="M557.2,183.4c1-3.3,2.2-6.9,4.8-9.8c2.1-2.4,5.9-4.9,10.1-3.6c3.6,1.2,4.2,4.6,4.3,7.1c0.3,3.1-0.8,6.1-3,8.3
		c-0.5,0.5-1.8,0.3-1.5-0.4c0.8-1.7,0.5-4.3,0.5-6.1c0-1.4,0.2-5-1.9-5.8c-4.7-1.8-7.7,9.5-8.2,11.3c-0.3,0.7-1,1.2-1.8,1.3
		c-0.7,0.1-1.4,0.1-2-0.2C557.5,185,556.9,184.3,557.2,183.4z"/>
	<path class="st15" d="M572,256.7c-0.3,2-0.4,4-0.3,6c6.6,3.9,26.3,13.8,46.8,7.8c1.8-3.3,3.2-6.7,4.2-10.3
		C599.9,272.4,572,256.7,572,256.7z"/>
	<path class="st16" d="M571.7,262.7c0.1,3.8,1,7.5,2.7,10.9c3.2-2.4,7-4,11-4.7C580.6,267.3,576,265.2,571.7,262.7z"/>
	<path class="st17" d="M591.4,285.3c14.3,2.7,22.7-6.8,27.2-14.8c-12.2,3.6-24.1,1.5-33.2-1.5c-4,0.7-7.8,2.3-11,4.7
		C577,278.7,582,283.5,591.4,285.3z"/>
	<path class="st10" d="M585,289.9c0,0,7.7,4.9,13.8,2.5C598.8,292.4,591.3,299.4,585,289.9z"/>
	<path class="st13" d="M595.5,245.7c0,0-14.7-1.5-21.8-1.5c0,0-4.4,0.6-5.7,8.7l26.1,2.7c0,0,24.9,3.9,34,7.5c0,0,2-7.3-1.9-10.1
		S604.6,248.2,595.5,245.7z"/>
	<path class="st13" d="M624.6,306.7l1.7,9.4c0,0-12.8,11.6-34.3,8.2s-27.6-11.9-30.3-17l4.3-9.9c0,0,0.8,6.1,3.8,7.3
		c15.5,6.5,29,10.5,48.2,7.6C618,312.3,623.5,309,624.6,306.7z"/>
	<path class="st18" d="M603.5,399.7l32.1,49l77.2-42.5l4.8-7c0,0-8.4-4.7-12.4-6.9C705.1,392.3,661.2,409.3,603.5,399.7z"/>
	<path class="st18" d="M602.3,399.5c-28.7-5-56.1-15.7-80.5-31.6l-4,10.9l32.4,54.4L602.3,399.5z"/>
	<path class="st19" d="M390.2,819c0,0,5.7-49.9,20.1-113.3c25.4-46.8,52.8-91.5,81.8-135.2c10.7-21.4,22.5-42.2,37-61.3
		c14.7-22.1,30.6-43.4,47.5-63.9l-15.4-31.8l44.8-25.6l29.8,37.7l-27.7,24.2C550.1,487,481.3,667.5,477.6,682.7
		C427.7,752.4,390.2,819,390.2,819z"/>
	<polygon class="st12" points="711.3,350.5 606.5,386.7 543.6,333.7 514.4,366.5 519.7,373.4 554.8,419.5 605.6,391.7 637.3,434.8 
		718.9,398.6 	"/>
</g>
</svg>
