<?xml version="1.0" encoding="utf-8"?>
<!-- Generator: Adobe Illustrator 25.4.1, SVG Export Plug-In . SVG Version: 6.00 Build 0)  -->
<svg version="1.1" id="Layer_1" xmlns="http://www.w3.org/2000/svg" xmlns:xlink="http://www.w3.org/1999/xlink" x="0px" y="0px"
	 viewBox="0 0 1200 1820" style="enable-background:new 0 0 1200 1820;" xml:space="preserve">
<style type="text/css">
	.st0{fill:#393A3C;}
	.st1{fill:#EEEEEF;}
	.st2{fill:#4DBFDC;}
	.st3{fill:#119AD7;}
	.st4{fill:#453878;}
	.st5{fill:#FF8F00;}
	.st6{fill:#C3C3D1;}
	.st7{fill:#ABAABA;}
	.st8{fill:#6154C7;}
	.st9{fill:#8C4F45;}
	.st10{fill:#753C36;}
	.st11{fill:#443889;}
	.st12{fill:#F7C2D0;}
	.st13{fill:#FF8D94;}
	.st14{fill:#F04E98;}
	.st15{fill:#23242B;}
	.st16{fill:#30323D;}
	.st17{fill:#FDF5ED;}
</style>
<g>
	<g id="Eric_00000129178399750480288550000009610960592995613066_">
		<g>
			<g>
				<g>
					<path class="st0" d="M401.2,1740.1c14.1,9.2,43.8,10.9,62.7,10.2c18.9-0.7,12.5-16.3,7.7-36.8c-4.8-20.5-1.5-41.4-1.5-41.4
						s-63.8-6-69.1,7.3C395.7,1692.8,387.2,1730.9,401.2,1740.1z"/>
				</g>
				<g>
					<path class="st1" d="M400.3,1752.5c13.9,10.6,43.8,12.7,62.6,11.1c15.8-1.3,16.8-10.4,13.7-23.7c-0.3,6.2-3.6,10.1-12.7,10.4
						c-18.9,0.7-48.6-1-62.7-10.2c-6.2-4.1-8-13.8-7.6-24.6C391.9,1731.2,392.8,1746.8,400.3,1752.5z"/>
				</g>
				<g>
					<g>
						<path class="st1" d="M606.7,1684c-1.5,20.1,8,24.2,31.4,24.4c23.5,0.2,37.5,8.6,50.8,16.6c13.3,8,43.5,13.5,60.6,11.1
							c17.1-2.4,15.7-18,15.7-18S608.2,1663.9,606.7,1684z"/>
					</g>
					<g>
						<path class="st0" d="M609.4,1672.4c0,0-6.2,13,0.3,21c6.5,8,33.1,3.3,53.6,9.1c20.5,5.8,25.5,20,57,24.5
							c31.5,4.5,46.2-2.4,45.5-13.2c-0.7-10.8-36.6-27.8-56.2-33.7c-19.5-5.9-37.5-31.5-37.5-31.5L609.4,1672.4z"/>
					</g>
				</g>
				<g>
					<path class="st2" d="M382.3,1690.2c69.6,20.6,103.8,6.9,102.3-8.9l136.1-543.3l-37.2,526.7c64.4,36.4,123.8-1.2,123.8-1.2
						l173.5-743.9l-49.8-52.3c0,0-380.6-139.1-404.8-12.4C401.9,981.5,382.3,1690.2,382.3,1690.2z"/>
					<g>
						<path class="st3" d="M627.6,1120.1c-0.1,0-0.1,0-0.2,0c-1-0.2-1.7-1.2-1.5-2.2l12.3-68.4c0.2-1,1.1-1.7,2.2-1.5
							c1,0.2,1.7,1.2,1.5,2.2l-12.3,68.4C629.4,1119.5,628.5,1120.2,627.6,1120.1z"/>
					</g>
				</g>
			</g>
		</g>
	</g>
	<path class="st4" d="M451.6,397.4c0,0-27.8,7-51.8,27.8s-22.1,24.6-29,63.1c-6.9,38.5-46.1,68.2-46.1,68.2l-13.3-53l-79.6,9.5
		c0,0-22.7,65-34.1,97.2s-31.6,89.6-23.4,118.1s72,56.8,147.7,21.5s99.1-75.1,99.1-75.1s19.6,34.7,28.4,53s22.7,32.2,22.7,32.2
		s-39.8,32.2-62.5,57.5s-28.4,33.5-28.4,33.5s13.9,40.4,65.7,86.5s158.5,80.2,196.4,87.8c37.9,7.6,68.2,11.4,68.2,11.4l39.1-44.2
		l13.9,47.4c0,0,53-8.8,73.2-17.7c20.2-8.8,36-24.6,36-24.6s23.4-54.3,18.9-130.7s-16.4-128.2-16.4-128.2s37.9,28.4,70.7,6.3
		s72-80.8,83.3-131.3c11.3-50.5,3.8-102.3-1.9-127.5c-5.7-25.3-12.6-48.6-12.6-48.6h-60c0,0-5,36-24.6,77.6s-41,66.9-41,66.9
		s-32.8-32.8-61.9-82.1s-51.1-75.1-105.4-91.5s-137-29.7-137-29.7L451.6,397.4z"/>
	<polygon class="st5" points="1001.7,487.6 974.2,491.1 949.3,331.4 986.5,326.7 	"/>
	<path class="st6" d="M998.8,303c-2.5-20.3-19.7-35-38.2-32.6s-31.5,20.7-29,41s19.7,35,38.2,32.6S1001.3,323.3,998.8,303z"/>
	
		<rect x="930.2" y="304.7" transform="matrix(0.9923 -0.1241 0.1241 0.9923 -30.7655 122.1924)" class="st7" width="70.2" height="6.5"/>
	<path class="st8" d="M349.4,616c-0.7-3.6-2.7-6.3-4.5-9.5c-2-3.7-3.6-7.7-4.8-11.7c-2.9-8.4-5.9-16.8-8.8-25.2s-5.7-16.7-8.2-25.2
		s-4.6-17.1-7.3-25.6c-0.2-0.8-1.7-0.8-1.6,0.2c1.5,17.5,7.2,35,12.7,51.7c2.8,8.5,5.9,16.9,9.1,25.2c1.3,3.7,2.9,7.2,4.8,10.6
		c2,3.5,4.6,6.8,6.4,10.4C347.8,618.1,349.6,617.3,349.4,616z"/>
	<path class="st8" d="M445.6,632.7c0.1-0.5-0.3-1-0.9-1.1c-0.4,0-0.8,0.2-1,0.5c-1.7,2.2-2.4,4.5-3.4,7c-1.1,2.9-2.2,5.7-3.5,8.5
		c-2.5,5.4-5.2,10.7-8.2,15.8c-6,10.3-13.3,19.8-21.9,28.1c-0.6,0.6,0.3,1.4,0.9,0.9c9.3-7.6,17.2-17.3,23.7-27.4
		c3.3-5.1,6.3-10.5,8.9-16C442.5,644.2,445.9,638.3,445.6,632.7z"/>
	<path class="st8" d="M882.4,758.6c-1.2-7.7-2.9-15.3-4.8-22.9c-3.9-15.5-8.4-30.8-12.8-46.2c-4.1-14.4-7.2-29.3-12.3-43.4
		c-2.4-6.7-5.2-13.2-8.4-19.6c-3-5.9-6.8-11.4-9.9-17.3c-3.4-6.6-5.5-13.9-7.9-21c-2.2-6.7-5.4-13-9.4-18.7
		c-0.6-0.8-1.9-0.1-1.4,0.8c7.1,10.7,8.7,24.5,13.3,36.3c2.3,5.9,5.6,11.2,8.4,16.9c3.2,6.4,6,13,8.5,19.8
		c5.1,14,8.2,28.6,12.2,42.9c4.2,15,8.7,29.9,12.9,44.9c2.3,8.3,4.7,16.5,6.5,25c1,4.4,1.7,8.8,2.7,13.2c1.1,4.4,2.5,8.7,4.2,12.8
		c0.1,0.2,0.5,0.2,0.5-0.1C884,774.2,883.7,766.4,882.4,758.6z"/>
	<path class="st8" d="M917.1,542.3c-3.7,4.8-6.3,10.4-9.7,15.3c-3.9,5.5-8,10.9-12.5,15.9c-7.9,9.1-15.9,18.3-24.7,26.4
		c-0.4,0.4,0.1,1,0.6,0.8c11.2-5.4,19.3-14.6,26.9-24.3c4-5.1,7.7-10.4,11.1-15.9c3.5-5.7,5.7-12,9.5-17.5
		C918.7,542.3,917.6,541.6,917.1,542.3z"/>
	<path class="st9" d="M953.8,428.3c0,0-11,2.2-15.8-10.1s-7.3-25.6-8.8-30.9s-1.4-11.1,7.3-16.7s21.5,0,21.5,0s0.6-23.7,18.9-25.2
		s49.3,31.9,51.5,36.6s1.9,46.1-1,61.2s-16.1,24-22.7,27.5s-33.6-2.2-40.5-5.4s-12.9-8.2-12.9-18.9
		C951.2,440.2,952,434.2,953.8,428.3z"/>
	<path class="st10" d="M1019.4,413.8c-1.3-1.8-3.1-2.7-4.9-3.8c-2.7-1.6-5.3-3.4-8.1-4.9c-5.4-2.8-10.8-5.8-16.7-7.7
		c-4.6-1.5-10.3-2.4-14.9-0.4c-2.7,1.3-4.8,3.6-5.9,6.5l0,0c0-5.7-0.6-11.3-1.9-16.9c0.2-0.1,0.3-0.3,0.2-0.5
		c-0.5-8.5,6-18.4,15.4-16.4c4.4,0.9,8.8,2.3,12.8,4.2c4,2,7,4.9,10.6,7.2c0.5,0.3,1.2,0.1,1.5-0.4c0.2-0.3,0.2-0.7,0-1
		c-2.4-4.4-8.5-7-13-8.8c-2.7-1.1-5.5-1.8-8.3-2.6c-2.6-0.8-5.5-1.7-8.3-1.5c-6.3,0.4-12.1,7.5-12.9,14.1c-1.4-3.7-3.5-7.1-6.2-10
		c-0.8-0.8-1.9,0.3-1.2,1.2c6.4,8.3,8.8,19,9.1,29.3c0.2,5,0.1,10.1-1.6,14.8c-1.5,4-4.3,7.4-7.8,9.8c-0.2,0-0.5,0.2-0.6,0.4
		c-0.7,0.4-1.5,0.7-2.3,0.9c-0.7,0.2-1.1,1-0.9,1.7c0.2,0.6,0.7,0.9,1.2,1c0.3,0,0.6,0,0.9-0.1c-0.4,3.2,0.7,6.8,3.6,8.1
		c2,0.9,4.4,0.7,6.5,0.5c2.8-0.3,5.6-0.4,8.4-0.4c7.3,0.1,14.5,1,21.6,2.6c6.9,1.7,13.5,4.8,20.5,5.9c0.5,0.1,1.1-0.5,0.6-1
		c-4.2-3.7-10.2-4.8-15.5-6.2c-5.9-1.7-12-2.8-18.1-3.4c-5.5-0.6-11.1-0.7-16.6-0.3c-2.2,0.1-6,0.6-7.3-1.6
		c-0.9-1.5-0.5-3.3-0.5-5.1c3.4-1.8,6.1-4.7,7.6-8.3c1.4-3.4,2.2-7,2.4-10.6c0.1-0.1,0.2-0.1,0.3-0.3c2.1-4.1,4-9.3,9.2-10.1
		c4.7-0.8,9.9,0.5,14.2,2.2c4.6,1.9,9,4.1,13.4,6.5c2,1.1,4,2.4,5.9,3.6c2,1.1,3.9,2.3,5.7,3.6
		C1018.4,416.3,1020.3,415.1,1019.4,413.8z"/>
	<path class="st11" d="M577.6,605.8l-52.8,56.4c0,0,70.7,40.2,137.6,100.2S768.5,903,768.5,903s23.4-82.6,30.3-180.5
		s-6.3-154.7-6.3-154.7l-60-18.2l59.3-17.5c0,0-34.7-65.9-83.3-111.4s-77-60.6-111.7-73.2s-108.6,0.6-123.8,10.1
		s-39.8,28.4-41.7,66.6s30.9,138.6,38.5,162s20.2,36.5,20.2,36.5L577.6,605.8z"/>
	<path class="st12" d="M521.6,477.6c1.9-0.6,92.2,104.8,138.3,178.7s102.9,221.4,104.2,224s-0.6-91.4-16.4-189.9
		s-86.1-301.2-86.1-301.2l-193.8,19.1L521.6,477.6z"/>
	<path class="st8" d="M863.7,1005.5c-7.6,4.2-15,8.6-22.8,12.4c-8,3.8-16.3,7-24.8,9.7c-8.1,2.5-16.4,4.5-24.8,5.8
		c-4.7,0.8-9.4,1.4-14.1,2.1c-4,0.6-8.3,0.8-12.3,1.7c-2.1-7.3-4.1-14.6-6.1-21.9c-1-3.8-2.1-7.7-3.2-11.5s-2-8-3.8-11.5
		c-0.2-0.4-0.8-0.5-1.2-0.3c0,0,0,0-0.1,0c-0.2-0.1-0.5-0.1-0.8,0c-4,2-7.4,6.6-10.4,9.8c-3.5,3.7-6.9,7.5-10.3,11.3
		c-6.2,7.1-12,14.4-17.5,22h-0.2c-51.2-5.9-101.6-18.1-149.8-36.4c-6.5-2.5-13-5.1-19.5-7.8c-3.2-1.4-6.4-2.7-9.7-4.1
		c-2.1-0.9-4.3-2-6.5-2.8c-0.1-0.4-0.4-0.7-0.8-0.9c-12.6-6.2-25.3-12.2-37.5-19.2c-10.6-6.2-20.7-13-30.3-20.6
		c-19.5-15.4-36.9-33.4-51.5-53.5c-4-5.4-7.7-11-11.2-16.7c-3.7-5.9-6.8-12.5-10.9-18c-0.5-0.6-1.7-0.3-1.4,0.5
		c1.8,5.7,5.2,11.2,8.3,16.3c3.2,5.3,6.5,10.5,10,15.6c7,10.2,14.7,19.8,23.1,28.8c17,18.2,36.3,34.1,57.5,47.3
		c13.5,8.3,28,15.1,42.2,22.1c0.3,0.2,0.7,0.2,1,0.2c3.9,2.3,8.5,4,12.5,5.8c6,2.7,12.2,5.2,18.3,7.6c12.1,4.8,24.3,9.2,36.7,13.2
		c24.9,8.1,50.4,14.6,76.2,19.3c14.2,2.6,28.4,4.7,42.8,6.3c0.6,0.3,1.4,0.2,1.8-0.4c6.1-8.2,12.8-16.1,19.7-23.7
		c3.3-3.7,6.6-7.3,9.9-10.9c2.5-2.8,6-5.7,7.9-9.2c0.5,3.3,1.2,6.6,2.2,9.8c1,4.1,2.1,8.1,3.2,12.1c2.1,7.4,4.2,14.7,6.4,22.1
		c-0.6,0.6-0.5,1.6,0.1,2.1c0.2,0.2,0.5,0.3,0.8,0.4c0.6,0.6,1.6,0.7,2.2,0.1c0.1-0.1,0.1-0.1,0.2-0.2c4-0.3,8.1-1.2,12.1-1.8
		c4.7-0.7,9.4-1.3,14.2-2.1c9-1.4,17.8-3.5,26.5-6.2c16.4-5.2,33.2-12.9,46.5-24C865.1,1006,864.3,1005.1,863.7,1005.5z"/>
	<path class="st8" d="M803.2,666.1c-0.6-11.2-1.6-22.3-2.5-33.5c-0.8-11-1.6-22-2.6-32.9c-0.5-5.3-1.1-10.6-1.8-15.9
		s-1.5-11.2-3.6-16.3c-0.3-0.6-0.8-1-1.5-1c-2.3-0.9-4.6-1.6-6.9-2.1c-2.5-0.8-4.9-1.6-7.4-2.5c-5.1-1.8-10.1-3.7-15.1-5.6
		s-10.1-3.6-15.3-5c-2.5-0.7-5-1.2-7.5-1.7l-0.6-0.1c2.4-0.8,4.8-1.8,7.2-2.5c5.1-1.7,10.3-3,15.5-4.5c10.2-2.9,20.5-5.4,30.9-7.4
		c0.9-0.1,1.5-1,1.4-1.9c0,0,0-0.1,0-0.1c0.1-0.3,0-0.7-0.1-1c-19.5-40.4-48-77-79.8-108.4c-8.9-8.9-18.4-17.1-28.4-24.7
		c-0.5-0.4-1.1,0.4-0.7,0.8c16.4,15.1,32.7,30.3,47.2,47.3c14.6,16.9,28,34.8,40,53.7c6.4,10.1,12.3,20.5,18.2,31
		c-9.9,2-19.8,4.5-29.5,7.3c-5,1.5-9.9,3.2-14.8,4.9c-4.3,1.5-9.3,2.8-13.2,5.4l-0.3,0.1c-0.2,0.1-0.3,0.2-0.4,0.4l-0.1,0.1
		c-0.5,0.3-0.4,1.3,0.3,1.2l0.9-0.1c1.9,0.9,4.1,1,6.1,1.5c2.7,0.6,5.3,1.3,8,2.1c5,1.5,9.8,3.2,14.7,5s9.7,3.7,14.6,5.4
		c4.2,1.5,9.5,4,14.2,4.3c0.7,4.7,1.8,9.4,2.5,14.1c0.8,5.4,1.4,10.8,1.9,16.2c1,11,1.8,22,2.8,33c0.9,11.2,1.9,22.3,2.5,33.5
		s0.2,22.4-0.1,33.6c0,0.2,0,0.3,0.1,0.5c-1,7.3-1.9,14.7-2.7,22.1c-1.1,10.8-2.3,21.6-3.5,32.4s-2.4,21.6-3.6,32.4
		c-0.6,5.2-1.2,10.3-1.9,15.5c-0.6,4.4-1.7,8.8-2,13.2c-1.7,6.1-3,12.3-4,18.5c-1.3,7.8-3,15.5-4.6,23.3c-1.5,7.6-3.1,15.1-4.7,22.6
		c-1.4,6.7-2.5,13.5-4.1,20.2c-9.7-18.8-21.2-36.9-33.2-54.4c-12.4-18.1-25.7-35.4-40.1-52c-6.1-7.1-12.5-14.8-20-20.7
		c-3.7-4.6-8.5-8.5-12.9-12.5c-4.6-4.1-9.3-8.2-14-12.2c-9.2-7.7-18.5-15.1-28.1-22.3c-19.6-15-39.8-29.2-60-43.3
		c-10.4-7.2-21.1-15.2-32.7-20.5c7.8-9.7,15.9-19,24.5-28c4.3-4.6,8.8-9.1,13.2-13.6c2.4-2.5,4.8-4.9,7.1-7.4
		c2.1-2.3,4.4-4.3,6.2-6.9c0.2-0.4,0.1-0.9-0.3-1.1c-0.1-0.1-0.2-0.1-0.3-0.1c-0.2-0.2-0.6-0.4-0.9-0.3c-3.6,0-7.2,1.5-10.7,2.3
		s-7.3,1.6-10.9,2.3c-7.5,1.4-15.1,2.5-22.7,3.5c-7.4,1.1-14.8,2.1-22.1,3.3c-7,1.2-14.5,2.2-21,5.2c0-0.1-0.1-0.2-0.2-0.3
		c-12.3-17-19-36.9-25.2-56.8c-6.8-21.8-13.6-43.5-19.4-65.5c-1.6-6-3.1-12.1-4.4-18.2c-1.2-5.7-2.2-11.5-3.6-17.1
		c0.2-8.6-2.3-17.5-3.5-25.9c-1.5-10.8-1.6-21.6,1.3-32.1c0.2-0.6-0.7-1.1-1-0.5c-4.9,9.2-5.1,20-4,30.2c0.6,5.4,1.5,10.8,2.4,16.2
		c0.9,5.8,1.5,11.7,3,17.4c0.1,0.3,0.4,0.5,0.7,0.5c1,8.6,3.1,17.2,5,25.6c2.5,11.4,5.6,22.7,8.9,34c6.2,21.4,12.4,43.1,20.7,63.8
		c4.1,10.8,9.7,21.1,16.5,30.4c0.6,0.7,1.7,0.7,2.4,0.1c0.1-0.1,0.2-0.2,0.3-0.3c7.2-0.4,14.3-2.4,21.5-3.6
		c7.5-1.3,15.2-2.3,22.7-3.3c7.4-1,14.8-2,22.1-3.3c3.8-0.7,7.7-1.5,11.5-2.4c1.7-0.4,3.6-0.7,5.4-1.2c-3.2,3-6.2,6.4-9.2,9.3
		c-4.8,4.7-9.5,9.4-14.2,14.2c-8.7,8.8-17.5,18.1-24.7,28.2c-0.4,0.2-0.7,0.6-0.7,1l-0.2,0.3c-1.1,1.6,1.2,3,2.5,1.8
		c9.7,6.3,19.8,12.1,29.3,18.8c10.1,7,20,14.2,30,21.3c19.9,14.2,39.6,28.7,58.5,44.3c5.2,4.3,10.4,8.8,15.4,13.3
		c4.1,3.7,8,7.7,12.2,11.3c6.4,6.4,13,12.7,19,19.6c7.1,8.2,14.1,16.6,20.8,25.2c13.4,17.2,25.9,35.1,37.4,53.7
		c6.5,10.6,12.4,21.5,18.5,32.3c0.5,0.7,1.5,0.8,2.1,0.2c0.4-0.3,0.6-0.8,0.6-1.4c1.5-7.5,3.5-14.9,5.1-22.3
		c1.7-7.7,3.3-15.5,4.8-23.2c1.5-7.5,2.8-15.2,4.5-22.7c1.3-5.6,2.3-11.2,3-16.9c2-4.4,2.7-9.3,3.4-14.1c0.8-5.2,1.4-10.4,2-15.7
		c1.3-10.8,2.5-21.6,3.7-32.4c1.2-10.8,2.3-21.6,3.4-32.4c0.6-5.4,1.2-10.8,1.7-16.2c0.3-2.8,0.4-5.6,0.5-8.3
		C804.1,688.2,803.8,676.8,803.2,666.1z"/>
	<path class="st9" d="M572.3,218c0,0,59.2,135.3,65.2,148.6s-70.1,16.5-19.3,32.1c0,0-18.8,7.3-73.7,17.3
		c-87.8,16.1-39.7,7.6-57.1-10.1c0,0-3.4,5.2-5.5-19c-2.5-28.9-25.4-149.3-25.4-149.3L572.3,218z"/>
	<path class="st10" d="M572.3,218l-115.8,19.7c0,0,10.4,54.4,17.9,98.9c9.2,7.2,19.1,13.4,29.6,18.6c24.1,11.6,46.3,9.1,65.9,5.7
		c23.8-4,39.6-16.8,49.3-35.9C599.8,280.8,572.3,218,572.3,218z"/>
	<path class="st13" d="M579,409.3l-31,47.2l-74.3-40.9l-4.6-6.7c0,0,8.1-4.5,12-6.6C481.1,402.3,523.4,418.6,579,409.3z"/>
	<path class="st13" d="M580.1,409.1c27.7-4.8,54-15.1,77.6-30.5l3.9,10.5l-31.2,52.4L580.1,409.1z"/>
	<path class="st14" d="M750.6,709.4c-9.6-23.5-20.6-46.5-31.9-69.6c-6.3-12.7-48.8-99.7-68.1-125.1c-14.2-21.3-29.4-41.8-45.7-61.5
		l14.8-30.6L576.5,398l-28.7,36.3l26.6,23.3c13.7,8.7,37.7,38.7,37.3,38.7c16.9,25,32,51.1,45,78.3c12.3,27.4,20.6,50.5,23.2,58.2
		c0.6,1.8,29.6,90.9,37.1,135.6c26,57.9,46.3,110.4,47,111.9C765.2,882.7,763.7,800.6,750.6,709.4z"/>
	<polygon class="st12" points="475.2,362 576.1,396.8 636.7,345.8 664.8,377.4 659.7,384 625.9,428.3 576.9,401.6 546.4,443.1 
		467.8,408.3 	"/>
	<path class="st9" d="M441.6,198.5c0,0-5.7-14.2-25-11.5c-18.7,2.6-9.8,50.6,7.2,57.6s21.1-17.2,21.1-17.2L441.6,198.5z"/>
	<path class="st9" d="M623.7,188.8c0,0,4.2-14.8,23.7-14.1c18.9,0.6,15.1,49.2-1,58.1S623.5,218,623.5,218L623.7,188.8z"/>
	<path class="st9" d="M645.6,183.9c-4,103.7-34.4,155-104,158.7s-105.3-35.5-120.3-146.8c-11-82.2,35.6-135.9,105-139.6
		S648.9,97.7,645.6,183.9z"/>
	<path class="st15" d="M482.4,209.2c0.2,3.9-2.4,7.2-5.8,7.4s-6.3-2.8-6.5-6.8s2.4-7.2,5.8-7.4S482.2,205.3,482.4,209.2z"/>
	<path class="st15" d="M594.2,203.3c0.2,3.9-2.4,7.2-5.8,7.4s-6.3-2.8-6.5-6.8s2.4-7.2,5.8-7.4S594,199.4,594.2,203.3z"/>
	<path class="st16" d="M453.9,188.2c-2,0.1-3.7-1.5-3.8-3.5c0-0.9,0.3-1.8,0.8-2.5c5.4-6.7,18.8-20.8,39.9-8.4
		c1.8,0.9,2.6,3,1.9,4.8c-0.8,1.8-3,2.7-4.8,1.9c0,0,0,0,0,0c-19-8.4-31.1,6.2-31.2,6.4C456,187.6,455,188.1,453.9,188.2z"/>
	<path class="st16" d="M612.5,179.8c0.9-0.1,1.8-0.4,2.4-1.1c1.4-1.4,1.4-3.8,0-5.2c-6.1-6-20.9-18.7-40.6-4.2
		c-1.7,1.1-2.3,3.2-1.3,5c1,1.7,3.2,2.3,5,1.3c18-10.4,31.6,2.9,31.7,3C610.4,179.4,611.5,179.8,612.5,179.8z"/>
	<path class="st10" d="M542.3,265.8c-5.2,0.1-9.3-1.1-11.5-4.8c-6.6-11.6,3.7-31.3,4.7-33.7c0.7-1.7,1.7-2.7,3.4-2s1.2,2.8,0.5,4.5
		c-3.1,7.9-4.5,22.3-1,27.6c0.6,0.9,1.6,1.9,4.1,2c1.8,0.1,3.2,1.6,3.1,3.4C545.6,265.8,542.4,265.8,542.3,265.8z"/>
	<path class="st16" d="M537.3,271.5c0,0,20.7,0.7,28.7,1.9c0,0,4.9,1.5,5.5,13.2l-33.6-1c0,0-20.9,2.2-31.5,5.8
		c0,0-1.5-10.6,3.2-13.9S526.8,273.5,537.3,271.5z"/>
	<path class="st16" d="M498.5,318.6l-3.8,13c0,0,16.4,18.3,47.2,16.6s40.8-12.8,45.3-19.5l-4.6-14.6c0,0-2,8.5-6.4,9.8
		c-22.8,6.9-42.6,10.6-69.2,3.7C507.1,327.6,499.8,322.2,498.5,318.6z"/>
	<path class="st9" d="M353.1,428.3c-0.1-3.1-4.6-3.5-11.1-0.9c-7.1,2.8-11.1,10.2-10.8,15.1c0,0,0.1,9.4-0.7,19.5h0.1
		c-5.7,6.2-11.2,11.1-13.5,10.6c-5.3-1.2-14.1-15.2-14.1-15.2c-3.1-13.7,0.3-28.5,0.3-28.5s7.2-13.7,9.8-13.7
		c4.1,0,13.6-0.7,14.4,0.8c1.3,2.2,3.7,17.7,22.6,8.3c2-1-2.5-5-4.9-10.2c-1.9-4.2-3.9-9.4-4.8-10.4c-2-2.3-19.9-8.1-34.5-5.8
		c-5.1,0.8-18.5,15.5-25.6,24c0,0-3.5,2.7-6.3,3.3c-1.5,0.3-4-2.2-4.8-4.1l-15-77.8c-1-4.8-6.7-8.1-12.8-6.9s-10.3,6-9.3,10.8
		l13.8,80.6c0.6,2.3-3,4.5-4.5,2l-25-69.2c-0.9-4.6-6.4-7.4-12.2-6.2s-9.8,5.8-8.9,10.3l22.8,78c0.9,3.4-2.8,4.5-3.7,2.4l0,0
		l-32-48.3c-3.4-4.5-7.3-7.5-12.8-5.4s-7.1,5.6-4.8,9.9l29.1,58.2c12.4,64.6,37.4,84.3,37.4,84.3c52.6,35.6,74.3-11.4,74.3-11.4
		c12.6-9.6,23.4-21.5,31.8-34.9c3.4-5.5,10.4-18,17.9-30.2c1.9-3.1,0-6.8,0-6.8c-1.1-7.4-2-14.7-2.4-20.7
		C352.6,436,352.7,432.2,353.1,428.3z"/>
	<path class="st17" d="M507.8,290.2c0.2,1.5,0.6,2.9,1.3,4.3c8.2,1.1,16.7,0,25-0.6c12.1-0.8,24.2,0.8,36-1.4c1.2-2.5,2-5.1,2.4-7.9
		c-11.2,5.4-28.9,1.6-41.8,3.7C523.4,289.5,515.5,291.3,507.8,290.2z"/>
	<path class="st17" d="M509.1,294.5c1.2,2.8,3.7,4.9,6.4,7.1c3.9-2.8,8.1-5.2,12.6-7.2C521.7,294.8,515.4,295.3,509.1,294.5z"/>
	<path class="st17" d="M540.2,306.7c13.2-0.1,25.2-5.3,29.9-14.2c-13.6,2.5-28.1,0.7-42.1,1.9c-4.4,1.9-8.6,4.3-12.5,7.2
		C522.2,305.9,531.6,306.8,540.2,306.7z"/>
	<path class="st10" d="M533.5,311.6c0,0,12.6,1.6,18-0.4C546.3,315.4,533.5,311.6,533.5,311.6z"/>
	<path class="st17" d="M540.1,306.7c7.3-0.2,15.1-1.6,21.2-5.2c-16.3-3.2-28.3-2.6-44.4,0.9C523.5,306,532.3,306.9,540.1,306.7z"/>
</g>
</svg>
