<svg xmlns="http://www.w3.org/2000/svg" viewBox="0 0 400 400">
  <defs>
    <style>
      .cls-1 {
        fill: #9b9ba7;
      }

      .cls-2 {
        fill: #9987ff;
      }

      .cls-3 {
        fill: #6154c7;
      }

      .cls-4 {
        fill: #453878;
      }

      .cls-5 {
        fill: #343438;
      }

      .cls-6 {
        fill: #1fab7a;
      }
    </style>
  </defs>
  <g id="Headphones">
    <g>
      <path class="cls-1" d="M103.51,297a133.86,133.86,0,0,1-32.66-87.65c0-76.22,54.57-133.71,126.93-133.71,73.67,0,131.37,58.54,131.37,133.28,0,31.4-10.77,58.2-33.88,84.34l-12.82-11.33c20.2-22.83,29.61-46,29.61-73,0-65.15-50.2-116.18-114.28-116.18-62.62,0-109.84,50.13-109.84,116.61a116.75,116.75,0,0,0,28.49,76.45Z"/>
      <path class="cls-2" d="M126.29,200.34h0a30,30,0,0,1,29.92,29.93v70.39a30,30,0,0,1-29.92,29.93h0"/>
      <path class="cls-3" d="M110.72,330.59H127V200.34H112.91a2.19,2.19,0,0,0-2.19,2.19Z"/>
      <path class="cls-4" d="M110.72,330.59h8.14V200.34h-7c-.61,0-1.1,1-1.1,2.19Z"/>
      <path class="cls-5" d="M110.72,301.53h-16a2.19,2.19,0,0,1-2.19-2.19v-67.6a2.19,2.19,0,0,1,2.19-2.19h16v72Z"/>
      <path class="cls-2" d="M273.3,200.34h0a30,30,0,0,0-29.93,29.93v70.39a30,30,0,0,0,29.93,29.93h0"/>
      <path class="cls-3" d="M286.67,330.59H272.58V200.34h14.09a2.19,2.19,0,0,1,2.19,2.19V328.4A2.19,2.19,0,0,1,286.67,330.59Z"/>
      <path class="cls-5" d="M288.86,301.53h16a2.19,2.19,0,0,0,2.19-2.19v-67.6a2.19,2.19,0,0,0-2.19-2.19h-16Z"/>
      <path class="cls-6" d="M316.13,134.73A135.49,135.49,0,0,0,200.26,69.34c-48.17,0-92.33,25-116.42,65.49a4.75,4.75,0,0,0,1.86,6.57l20,10.9a4.79,4.79,0,0,0,6.38-1.8c18.4-30.28,51.78-48.91,88.21-48.91a103.19,103.19,0,0,1,87.78,49,4.78,4.78,0,0,0,6.4,1.74l19.88-11.05A4.77,4.77,0,0,0,316.13,134.73Z"/>
      <path class="cls-4" d="M288.86,202.6c0-1.21-.49-2.19-1.1-2.19h-7V330.66h8.14Z"/>
    </g>
  </g>
</svg>
