<?xml version="1.0" encoding="utf-8"?>
<!-- Generator: Adobe Illustrator 25.4.1, SVG Export Plug-In . SVG Version: 6.00 Build 0)  -->
<svg version="1.1" id="Layer_1" xmlns="http://www.w3.org/2000/svg" xmlns:xlink="http://www.w3.org/1999/xlink" x="0px" y="0px"
	 viewBox="0 0 1200 1820" style="enable-background:new 0 0 1200 1820;" xml:space="preserve">
<style type="text/css">
	.st0{fill:#393A3C;}
	.st1{fill:#EEEEEF;}
	.st2{fill:#4DBFDC;}
	.st3{fill:#119AD7;}
	.st4{fill:#FFB762;}
	.st5{fill:#C3C3D1;}
	.st6{fill:#ABAABA;}
	.st7{fill:#453878;}
	.st8{fill:#6154C7;}
	.st9{fill:#8C4F45;}
	.st10{fill:#753C36;}
	.st11{fill:#443889;}
	.st12{fill:#F7C2D0;}
	.st13{fill:#30323D;}
	.st14{fill:#23242B;}
	.st15{fill:#FDF5ED;}
	.st16{fill:#9E005D;}
	.st17{fill:#DA727E;}
	.st18{fill:#FF8D94;}
	.st19{fill:#F04E98;}
</style>
<g>
	<g id="Eric_00000129178399750480288550000009610960592995613066_">
		<g>
			<g>
				<g>
					<path class="st0" d="M774.1,1794.2c-15.2,10-47.3,11.8-67.6,11c-20.4-0.8-13.5-17.6-8.3-39.8c5.2-22.1,1.6-44.7,1.6-44.7
						s68.8-6.5,74.5,7.9C780.1,1743.1,789.3,1784.2,774.1,1794.2z"/>
				</g>
				<g>
					<path class="st1" d="M775.1,1807.5c-15.1,11.4-47.2,13.7-67.6,12c-17-1.4-18.2-11.2-14.8-25.6c0.4,6.7,3.8,10.9,13.7,11.2
						c20.3,0.8,52.5-1.1,67.6-11c6.7-4.4,8.6-14.9,8.2-26.5C784.2,1784.5,783.3,1801.3,775.1,1807.5z"/>
				</g>
				<g>
					<g>
						<path class="st1" d="M552.4,1733.6c1.6,21.6-8.6,26.1-33.9,26.3c-25.3,0.2-40.5,9.2-54.8,17.9c-14.3,8.6-46.9,14.6-65.4,12
							c-18.5-2.6-17-19.4-17-19.4S550.8,1711.9,552.4,1733.6z"/>
					</g>
					<g>
						<path class="st0" d="M549.5,1721.1c0,0,6.7,14-0.3,22.6c-7,8.6-35.8,3.6-57.9,9.8c-22.1,6.2-27.6,21.6-61.6,26.5
							s-49.9-2.6-49.1-14.3c0.8-11.7,39.5-30,60.6-36.3c21.1-6.4,40.5-34,40.5-34L549.5,1721.1z"/>
					</g>
				</g>
				<g>
					<path class="st2" d="M794.6,1740.3c-75.1,22.2-112,7.4-110.3-9.6l-146.9-586.3l40.2,568.3c-69.5,39.3-133.6-1.3-133.6-1.3
						L256.7,908.7l53.8-56.4c0,0,410.7-150.2,436.8-13.4C773.4,975.5,794.6,1740.3,794.6,1740.3z"/>
					<g>
						<path class="st3" d="M529.9,1125.1c0.1,0,0.1,0,0.2,0c1.1-0.2,1.8-1.2,1.6-2.3l-13.3-73.8c-0.2-1.1-1.2-1.8-2.3-1.6
							c-1.1,0.2-1.8,1.2-1.6,2.3l13.3,73.8C527.9,1124.5,528.8,1125.2,529.9,1125.1z"/>
					</g>
				</g>
			</g>
		</g>
	</g>
	<polygon class="st4" points="184.9,481.2 205.7,499.6 316.5,381.8 288.3,356.9 	"/>
	<path class="st5" d="M291.6,330.4c13.6-15.4,36-17.8,50-5.4s14.4,34.9,0.8,50.3s-36,17.8-50,5.4S278,345.7,291.6,330.4z"/>
	
		<rect x="313.2" y="318.3" transform="matrix(0.6624 -0.7492 0.7492 0.6624 -157.9142 356.4185)" class="st6" width="6.5" height="70.2"/>
	<path class="st7" d="M771.4,758.4c0,0-5.8,35.3,0,64.8s18.2,48,18.2,48s-13.8,87.4-140.8,140c-127,52.6-164.2,33.5-164.2,33.5
		l-43.6-62l-12.9,58.8c0,0-72.4-4.5-121.2-32.1s-72.5-134.7-71.9-193.1s19.9-95.7,19.9-95.7s-66.1,25.7-111,3.8
		s-63.5-86.6-47.5-147.6s66.7-126.4,66.7-126.4l72.5,34c0,0,1.9,9,5.1,30.8s6.4,30.2,6.4,30.2s53.2-10.9,105.8-62.9
		s76.3-62.9,125.7-83.4s138.6-35.3,157.2-35.3S716.3,388.2,749,410s69.9,46.8,73.1,64.1s6.9,57.7,27.5,107.1s55.2,82.1,55.2,82.1
		l41.1-19.9l80.2,9c0,0-2.6,22.1,0,53.4c2.6,31.3-9,98.7-55.2,119.2s-106.5,9.6-142.4-12.2S771.4,758.4,771.4,758.4z"/>
	<path class="st8" d="M834.4,697.9c3.2-4.5,9-7.3,13.7-10c5.8-3.3,11.3-6.9,17.2-10.1c5.4-2.8,11-5.3,16.7-7.4
		c5.2-2.1,10.5-4.2,16.1-4.2c1-0.5,2.1-1.1,3.1-1.6c8.3-4.1,16.5-8.7,25.4-11.6c0.5-0.2,0.8,0.6,0.3,0.8c-8.3,4-16.3,8.5-24.1,13.5
		c-7.5,4.6-15.1,9.2-22.2,14.3s-13.6,11.3-20,17.5c-3.4,3.1-6.3,6.6-8.8,10.4c-1.9,3.3-3.5,6.6-6.5,9.2c-0.5,0.5-1.2,0.5-1.7,0
		c-0.5-0.5-0.5-1.2,0-1.7c2.6-3.3,4-7.4,6.1-11c2.2-3.6,4.9-6.9,8-9.8c6.3-6.5,13.1-12.4,20.3-17.8c4.5-3.3,9.2-6.3,14.1-9.1
		c-3,0.9-6,2.1-8.9,3.3c-5.8,2.2-11.5,4.8-17,7.6c-5.2,2.9-10.2,6.1-15.3,9s-10,6.7-15.2,9.8C835,699.7,833.8,698.7,834.4,697.9z"/>
	<path class="st8" d="M737.7,697.3c2.5,8.5,8.1,15.9,12.4,23.5s9.2,15.2,14.2,22.6c4.8,7.1,9.5,14.3,14.4,21.3
		c5.3,7.5,10.7,15.4,16.7,22.3c0.1,0.1,0.1,0.4,0,0.5s-0.4,0.1-0.5,0l0,0c-13.5-12.1-23.9-27.1-33.9-42.2
		c-5.1-7.6-9.7-15.4-13.9-23.5c-4-7.9-8.3-15.7-10.5-24.3c-0.1-0.3,0.1-0.6,0.4-0.7C737.3,696.8,737.6,697,737.7,697.3L737.7,697.3z
		"/>
	<path class="st8" d="M247.3,736.1c6.5-19.1,15.2-37,24.3-55s16.5-36.9,27.6-53.8c5.4-8.3,10.4-16.7,15.3-25.3
		c5.1-9,10.4-17.8,15.1-27c9.3-18,19.8-35.4,30.5-52.6c5.6-9,11.4-18.1,18.3-26.1c6.1-7,14.3-13,18.3-21.6c0.4-0.8,1.6-0.1,1.2,0.7
		c-3.2,7.5-8.7,12.8-14.2,18.6c-6.6,7-12,15-17.1,23.1c-5.4,8.5-10.3,17.3-15.4,26.1s-10.2,17.5-14.7,26.6s-9.2,17.9-14.1,26.7
		s-9.5,17.8-14.9,26.3c-5.1,8.1-10.4,15.9-14.6,24.5c-4.5,9.3-8.9,18.8-13.5,28.1c-5,10.3-10.8,20.3-15.8,30.7
		c-4.9,10.2-9,20.7-14.2,30.8C248.8,738,246.8,737.3,247.3,736.1z"/>
	<path class="st8" d="M236.6,489c3.2,7.6,4.5,15.9,6.1,23.9c1.6,8.3,3.8,16.3,6.1,24.4c2.2,7.8,4.9,15.5,8.1,23
		c3.3,7.4,8.3,14.1,11.2,21.7c0.5,1.4-1.5,2.1-2.3,1c-5-6.4-9.2-13.4-12.5-20.8c-3.1-7.6-5.7-15.5-7.5-23.5
		c-4.1-16.3-7.2-32.9-10.3-49.5c0-0.3,0.2-0.6,0.6-0.7C236.2,488.6,236.4,488.8,236.6,489z"/>
	<path class="st9" d="M266.4,415.1c0,0,17.5-7.1,14.2-18.9s-19.4-46.5-32.5-42.7S208.8,368,186,396.2s-30.8,63.8-27.9,72.2
		s22.4,37.5,47.5,38.5s71.9-14.8,84.4-32.6s11.4-39.5-3.5-44.2s-18.8-1.8-18.8-1.8S270.8,424.1,266.4,415.1z"/>
	<path class="st10" d="M192.8,464.8c2.8,5.1,7.3,9.3,11.3,13.4c1.9,2,4.4,3.4,6.5,5.1c1.5,1.2,3.8,2.7,4.6,4.4
		c0.3,0.5,0.1,1.1-0.4,1.4c-0.1,0-0.1,0.1-0.2,0.1c-2.1,0.6-3.5-1-5-2.4c-2.3-2.2-5-3.9-7.2-6.2c-4.4-4.4-8.1-9.5-11-15.1
		C191,464.7,192.3,463.9,192.8,464.8z"/>
	<path class="st10" d="M193.4,413.7c2.6-2.8,5.7-5,9.1-6.6c3.3-1.5,6.9-2.4,10.5-2.8c7.6-0.9,13,1.4,17.9,7.2
		c4.8,5.7,9,11.9,12.4,18.5c2.1,3.9,3.3,8.1,3.6,12.5c2.8-3.5,6.1-6.5,9.7-9c3.7-2.5,8.4-6,12.9-6.6c0.7-0.1,0.9,0.9,0.4,1.2
		c-9.6,6.3-29.6,16.7-23.4,31.3c4.2,9.9,24.6,12.7,28.4,1c0.3-0.9,1.8-0.9,1.8,0.2c-0.1,7.5-6.9,10.3-13.5,10.8
		c-7.2,0.5-15.3-1.8-19.1-8.3c-0.8-1.3-1.3-2.7-1.6-4.1c-3,1.9-6.5,2.9-10.1,3.1c1.8,3.7,3.2,7.6,3.9,11.7
		c1.2,7.1-0.3,12.9-6.2,17.4c-5.2,4-15,7.6-21.2,4c-0.4-0.2-0.6-0.8-0.3-1.2c0.1-0.3,0.4-0.4,0.7-0.4c3.6,0,6.7,0.3,10.3-0.9
		c3.5-1.2,6.8-3.1,9.5-5.6c4.9-4.5,4.2-10.9,2.4-16.7c-4-13.1-13.5-24.5-23.7-33.3c-0.9-0.8,0.2-2.2,1.2-1.7
		c7.9,4.1,13.6,12.2,18.8,19.1c1.1,1.5,2.1,3,3,4.6c2.3-0.1,4.6-0.4,6.9-1c1.5-0.5,3-1.2,4.4-1.8c-0.1-3.4,0.6-6.7,2.2-9.7
		c0.1-2.3,0.1-4.6-0.3-6.9c-0.6-3.2-1.8-6.3-3.4-9.2c-3-5.4-6.4-10.5-10.3-15.4c-1.8-2.6-4.2-4.9-6.9-6.5c-3-1.6-6.4-1.4-9.7-1
		c-6.7,0.8-13.7,3.7-19.5,7C193.6,414.8,193,414.1,193.4,413.7z"/>
	<path class="st10" d="M206.7,390.9c3.1-4.9,9.1-7.4,14.5-8.7c6.6-1.6,13.4-2.2,19.9,0.4c7.3,3,10.8,9,15.3,15.1
		c4.8,6.5,9.5,13,12.3,20.7c0.2,0.6-0.8,1.1-1.1,0.5c-2.9-6-6.9-11.5-10.9-16.9c-4.2-5.8-8-11.6-14.5-15c-6.2-3.2-12.5-3.1-19.1-1.5
		c-5,1.1-11.2,2.6-14.7,6.6c-0.4,0.3-1.1,0.3-1.4-0.2C206.6,391.6,206.5,391.3,206.7,390.9z"/>
	<path class="st11" d="M432.7,866.8c0,0,25-82.8,87.2-136s154.6-100.9,154.6-100.9l-50.7-62.4l92.4,13.4c0,0,20.5-64.8,25.7-104
		s0-81.6,0-81.6s-34-34-104.6-41.7s-154.6,71-154.6,71s-33.4,45.1-58.4,80.4s-26.5,46.9-26.5,46.9l44.5,15.7l-56.5,32.8
		c0,0,4.8,84.3,12,139.5S432.7,866.8,432.7,866.8z"/>
	<path class="st12" d="M700.9,416.4c0,0-23.7,73.3-27.6,76.8s-81.5,61.2-141.8,147.5s-99.4,212-99.4,212s-10.3-84.7,0.6-181.5
		s81-282,81-282L700.9,416.4z"/>
	<path class="st8" d="M279.1,980.4c10.6,18.4,29.3,29,48.5,36.5c20.5,7.9,41.8,13.8,63.4,17.8c12.4,2.3,24.8,4,37.4,5
		c1.9-9.5,3.8-19,5.7-28.5c1-5,2-10,3.1-15c1-4.6,1.3-10.3,3.5-14.5c0.1-0.1,0.1-0.2,0.2-0.3c0-0.4,0.3-0.7,0.7-0.8
		c0.2,0,0.4,0.1,0.5,0.2c2.1,2.1,3.6,4.9,5.2,7.5c1.9,3,3.8,6.1,5.7,9.2c3.4,5.3,7,10.3,11,15.2c4,5,7.8,10.2,11.5,15.5
		c3.5,5.1,7.8,10.3,10.6,15.9c0.1,0,0.2,0,0.4,0c13.7,2.7,27.8,1.9,41.7,0.6c13.3-1.4,26.4-3.7,39.4-6.8c25.8-6,50.8-15,75.1-25.6
		c12.6-5.5,24.9-11.7,37.4-17.3c0-0.4,0.3-0.7,0.6-0.8c19.2-10.3,37.8-21.6,53.9-36.5c16.1-14.7,29.5-32,39.8-51.2
		c5.8-10.9,10.1-22.4,14-34.1c0.1-0.5,0.6-0.7,1-0.6c0.5,0.1,0.7,0.6,0.6,1c-4.3,21.3-15.2,41.5-28,58.8c-13,17.5-29.3,32.6-47,45.2
		c-10.4,7.5-21.4,14-32.9,19.5c-0.3,0.1-0.6,0.2-0.9,0.1c-10.8,6.3-22,11.9-33.5,16.9c-12.1,5.4-24.5,10.5-37,14.9
		c-25.2,9-51.1,15.7-77.7,18.8c-15.6,1.8-31.6,3.4-47.1,0.5l0,0c-0.3,0-0.6-0.2-0.8-0.4c-4.2-4.6-7.4-10.5-10.9-15.7
		c-3.9-5.6-7.8-11.2-12-16.6c-3.9-4.9-7.4-10-10.7-15.3c-1.7-2.9-3.5-5.8-5.2-8.7c-1.2-2-2.5-3.9-3.6-6c-0.3,3.8-1.6,7.9-2.3,11.6
		c-1,5.2-2,10.5-3,15.7c-2,10.3-3.8,20.5-5.8,30.8c-0.3,1.6-2.4,1.5-3,0.3c-22.7-1.9-45.3-5.9-67.3-11.9
		c-21.3-5.8-43.9-12.7-62-25.8c-8.7-6.3-16.2-14.4-21-24.1C277.5,980.3,278.7,979.6,279.1,980.4z"/>
	<path class="st8" d="M385.1,600.2c1.8-2.2,4.5-3.6,6.8-5.2s4.5-3.1,6.8-4.6c4.7-3.1,9.5-6.1,14.5-8.9s9.9-5.1,15-7.5
		c2.4-1.1,4.8-2.2,7.1-3.4c1.5-0.8,3-1.8,4.5-2.6c-2.9-0.6-5.9-2-8.6-3c-3.8-1.3-7.6-2.7-11.4-4c-7.4-2.6-15.2-5-22.4-8.3l-0.1-0.1
		c-1,0.1-2-0.6-1.6-1.8c6.7-17.9,17.5-33.4,28.7-48.8c5.6-7.7,17.1-24.6,22.8-32.2c3.3-4.3,31.8-40.5,35.1-44.9
		c3-4.1,21.8-17.2,25.5-20.8c0.1-0.1,0.2-0.1,0.3,0c0.1,0.1,0.1,0.2,0,0.3c-2.3,4.7-21.7,17.6-24.8,21.8c-2.9,4-30.9,39.9-33.8,43.8
		c-5.6,7.9-17.1,25-22.7,32.8c-10.7,14.8-20.8,30.5-27.6,47.6c7.7,2.1,15.2,5.3,22.6,8.1c3.8,1.4,7.5,2.8,11.3,4.2
		c3.1,1.2,6.8,2.1,9.5,4.1c1.1-0.3,1.7,1,1.1,1.8c-3,4-9.3,6.2-13.7,8.3c-5.1,2.3-10.1,4.7-15,7.5s-9.7,5.8-14.4,9
		c-2.3,1.5-4.5,3.1-6.8,4.6c-2,1.4-4,3.2-6.3,4.2c1,5.2,0.9,10.7,1.2,15.9c0.3,6.1,0.7,12.2,1,18.3c0.6,11.8,1.3,23.6,2.1,35.4
		s1.9,23.6,3,35.3c1.1,11,3.1,22,3.8,33c1.6,5,2.5,10.4,3.5,15.5s2.1,10.3,3.2,15.4c2.3,10.8,4.9,21.6,7.8,32.3
		c5.4,20.2,11.4,40.6,19.2,60.1c13.3-38.8,33.9-74.8,60.7-105.9c4-4.5,8-9,12.3-13.3c2.5-2.5,5.1-5.3,7.9-7.7
		c6.9-7.9,15-14.4,23.5-20.6c10.8-7.9,21.6-15.6,32.6-23.2c21.9-15.2,43.9-30.3,66.6-44.4c11.4-7.1,23.3-14.3,36.1-18.7
		c-3.7-4-6.9-8.7-10.3-12.9c-4.2-5.1-8.3-10.3-12.4-15.5c-8.3-10.5-15.9-21.7-24.6-31.9h-0.1c-0.5-0.3-0.7-0.9-0.4-1.4
		c0.1-0.2,0.3-0.4,0.6-0.5c3.1-0.6,6.5,0.1,9.6,0.5l12,1.6l23.4,3.2c7.6,1,15.2,2.1,22.7,3.4c7.3,1.3,14.7,2.1,21.9,3.5
		c4.6-10.2,7.2-21.5,10.3-32.2c3.1-10.9,6-21.9,8.5-32.9c5.3-22.2,8.6-44.8,9.9-67.6c0.3-6.1,0.4-12.2,0.4-18.4
		c-0.1-6.5-0.8-13.1-0.3-19.6c0.1-0.6,1-0.8,1.1-0.2c1.5,5.2,1.6,10.7,1.9,16.1c0.3,5.9,0.3,11.8,0.2,17.8
		c-0.3,11.4-1.2,22.7-2.8,34c-3.2,23-8,45.8-14.4,68.2c-3.4,12.2-6.4,25.1-11.7,36.6c-0.4,0.8-1.4,1.2-2.2,0.8
		c-0.3-0.1-0.6-0.4-0.7-0.7c-7.3-0.5-14.6-1.8-21.8-2.5c-7.5-0.8-15-1.7-22.5-2.8l-22.8-3.1l-12-1.6c-2.6-0.2-5.2-0.6-7.7-1.2
		c3.7,3.6,7,7.5,9.9,11.7c4.1,5.5,8.3,11,12.6,16.5s8.7,11,13.2,16.3c4.3,5.2,9.4,10,13.3,15.5c1,1.3-1,2.8-2.2,1.8
		c-0.2-0.2-0.4-0.4-0.6-0.6c-11.1,5.1-21.9,10.7-32.3,16.9c-11,6.7-21.8,13.9-32.5,21c-22.1,14.7-43.9,29.8-65.4,45.3
		c-11.2,8-22.7,16.2-31.6,26.9c-0.2,0.2-0.5,0.4-0.8,0.4c-0.7,0.7-1.4,1.4-2,2.1c-3.5,3.8-7,7.5-10.4,11.4
		c-6.9,7.9-13.5,16.1-19.7,24.6c-12.1,16.7-22.6,34.5-31.3,53.2c-5.1,10.8-9.6,21.9-13.4,33.2c-0.6,1.8-3.3,1.2-3-0.5
		c-4.2-10.3-8.5-20.7-12-31.4c-3.4-10.3-6.4-20.8-9.2-31.3s-5.2-21.1-7.7-31.7c-1.3-5.5-2.5-11-3.7-16.5c-0.7-3.5-1.6-7.2-2.2-10.8
		c-0.2-0.1-0.3-0.3-0.3-0.5c-2.8-11.5-3.5-23.8-4.7-35.5c-1.2-12-2.2-24-3.1-36s-1.6-24-2.3-36c-0.4-5.9-0.6-11.8-0.9-17.7
		c-0.2-5.5-0.9-11.3-0.4-16.8C384.7,601.3,384.8,600.7,385.1,600.2z"/>
	<path class="st9" d="M599.1,228.4c0,0-59.2,135.3-65.3,148.7s70.1,16.5,19.3,32.1c0,0,18.8,7.3,73.7,17.4
		c87.8,16.1,39.8,7.6,57.1-10.1c0,0,3.4,5.2,5.5-19C692,368.6,715,248.1,715,248.1L599.1,228.4z"/>
	<path class="st10" d="M599.1,228.4L715,248.1c0,0-10.4,54.4-18,98.9c-9.2,7.2-19.1,13.4-29.6,18.6c-24.1,11.6-46.3,9.1-65.9,5.7
		c-23.8-4.1-39.6-16.8-49.3-35.9C571.6,291.2,599.1,228.4,599.1,228.4z"/>
	<path class="st9" d="M768.5,211.6c-14.2,75.3-66.8,118.6-101,135.1c-24.1,11.6-46.3,9.1-65.9,5.7c-62.6-10.6-69.8-81.1-57.1-169.1
		c12.7-87.8,51.8-130.4,129.1-117.2C759.7,80.8,784.8,124.8,768.5,211.6z"/>
	<path class="st10" d="M582.6,269.8c-5-1-8.7-3-10-7c-3.8-12.5,10.3-29.2,11.8-31.3c1-1.5,2.2-2.2,3.7-1.2s0.5,3-0.5,4.4
		c-4.6,6.9-9.1,20.4-6.9,26.2c0.4,1,1.1,2.2,3.5,2.8c1.7,0.5,2.7,2.2,2.3,3.9C585.9,270.5,582.7,269.8,582.6,269.8z"/>
	<path class="st13" d="M542.1,181c-0.7-0.1-1.4-0.6-1.8-1.2c-1-1.6-0.7-3.7,0.6-5.1c5.6-5.4,19-16.5,32.9-0.7c1.2,1.4,1.4,3.4,0.5,5
		c-1,1.6-2.9,2-4.2,0.9c-13-11.6-25.5,0.2-25.7,0.3C543.8,180.8,542.9,181.1,542.1,181z"/>
	<path class="st13" d="M671.5,203c2,0.3,3.8-1,4.2-3c0.1-0.9,0-1.8-0.5-2.5c-4.5-7.1-16-22.4-38-12.8c-1.8,0.7-2.9,2.6-2.4,4.5
		c0.6,1.9,2.6,3,4.5,2.4c19.5-6.1,29.6,9.6,29.7,9.7C669.5,202.2,670.4,202.8,671.5,203z"/>
	<path class="st10" d="M716.4,217.7c0,0,7.5-17,26-11.3c17.9,5.5,9.2,61.6-8.3,68.3s-24.9-21.6-24.9-21.6L716.4,217.7z"/>
	<path class="st9" d="M710.5,220.9c0,0,7.2-13.3,25.8-8.4c18,4.7,10.4,48.8-7,53.8S704,248.7,704,248.7L710.5,220.9z"/>
	<path class="st14" d="M628.2,226c0.3-1.5,1.4-3.1,2.1-4.6c0.7-1.6,1.5-3.2,2.4-4.7c2.1-3.5,6-5.5,10.1-5.4c5.7,0.2,7.2,3.9,8,7.3
		c0.7,3,3.9,9.3-0.6,11.4c-0.5,0.3-1.4,0-1.6-0.4c-0.5-1.5-0.1-3.2-0.5-4.8s-1.1-3.4-1.6-5.1c-0.7-2.2-1.3-6.3-6-4.9
		c-6.3,1.9-4.4,9.4-7.9,12.8C630.8,229.5,627.8,227.6,628.2,226z"/>
	<path class="st14" d="M547.9,211.4c1-3.2,2.1-6.6,4.6-9.4c2-2.3,5.7-4.7,9.7-3.4c3.5,1.1,4.1,4.4,4.2,6.8c0.3,3-0.8,5.9-2.9,8
		c-0.5,0.5-1.8,0.3-1.5-0.4c0.7-1.7,0.5-4.1,0.5-5.9c0-1.4,0.2-4.8-1.8-5.6c-4.5-1.8-7.4,9.1-7.9,10.9c-0.3,0.7-1,1.2-1.7,1.3
		c-0.6,0.1-1.3,0.1-1.9-0.2C548.1,213,547.6,212.3,547.9,211.4z"/>
	<path class="st15" d="M562.1,282c-0.3,1.9-0.4,3.9-0.3,5.8c6.4,3.8,25.3,13.3,45.1,7.5c1.7-3.1,3.1-6.5,4-9.9
		C589,297.1,562.1,282,562.1,282z"/>
	<path class="st16" d="M561.8,287.8c0.1,3.7,1,7.2,2.6,10.5c3.1-2.3,6.8-3.9,10.6-4.5C570.4,292.2,566,290.2,561.8,287.8z"/>
	<path class="st17" d="M580.8,309.5c13.8,2.6,21.9-6.5,26.2-14.3c-11.8,3.4-23.2,1.5-31.9-1.5c-3.8,0.7-7.5,2.2-10.6,4.5
		C566.9,303.2,571.7,307.9,580.8,309.5z"/>
	<path class="st10" d="M574.7,314c0,0,7.4,4.7,13.2,2.4C587.9,316.4,580.7,323.2,574.7,314z"/>
	<path class="st18" d="M592.4,419.8l31,47.2l74.3-40.9l4.6-6.8c0,0-8.1-4.5-12-6.6C690.3,412.7,648.1,429,592.4,419.8z"/>
	<path class="st18" d="M591.3,419.6c-27.7-4.8-54.1-15.2-77.6-30.5l-3.9,10.5L541,452L591.3,419.6z"/>
	<path class="st19" d="M428.1,737.2C439,693,455,650,473.8,608.2c13.3-29,27.8-57.6,47.1-83c14.2-21.3,29.5-41.8,45.7-61.5
		l-14.8-30.6l43.2-24.7l28.7,36.3L597,468.1c-56,35.8-98.8,155.5-105.6,175.3c-4.8,14.3-9.1,28.8-13.1,43.8
		c-7.5,26.6-10.8,53-13.8,79.3c-20.6,48.4-32.4,86.2-32.4,86.2S426.1,803.5,428.1,737.2z"/>
	<polygon class="st12" points="696.3,372.4 595.3,407.3 534.7,356.3 506.6,387.8 511.7,394.5 545.5,438.8 594.5,412 625,453.6 
		703.6,418.7 	"/>
	<path class="st9" d="M978.6,683.6c0,0-27.4-27.4-35.6-52.7c-2.6-8-5.3-22.9,8.2-34.1l10.7-109.6c0,0-0.4-15.1,9.6-15.1
		c11.8,0,11,14.2,11,14.2l-0.1,71.5c0,0,5.1-11.6,15.8-11c11.2,0.6,14.6,11.9,14.6,11.9s3.8-4.9,14.8-3.1c9,1.5,12.6,9.7,12.6,9.7
		c3.8-0.1,7.5,0.4,11.1,1.6c7.9,2.9,12.8,13,12.8,13s10.3,45.7-13,93.7C1051.1,673.6,1027,732.6,978.6,683.6z"/>
	<path class="st10" d="M983.3,598.5l-10.4,15.4l3.7,1.7c0,0,19,5.5,34,33.6c0,0,10.7-27.6,51.6-34.3c0,0,2-25.3-0.7-34
		c0,0-6,36.2-16.9,35.8l-4.5-0.2c0,0-6.7-1.8-6-8.3s6-42.9,6-42.9l-8.5,43.2c-2.3,4.6-7.2,7.3-12.3,6.9l-0.9-0.1
		c-0.1,0-10.2-1.6-8.9-11.5c0.5-3.7,0.8-7.4,0.7-11.2c8.8-10.4,2.4-24.2,2.4-24.2c-0.4-0.5-0.8-0.8-1.4-1c1.1-2.7,1.6-8.7,1.6-8.7
		c-1.2,2.8-2.1,5.6-2.8,8.5c-0.2,0-0.4,0-0.7,0c-8.5,1-18.8,6.9-25.5,8.8c0.7-3.1-1.4-18.3-1.4-18.3c-1,5.5-0.5,16.4,0.6,18.5
		c-0.2,0.1-0.5,0.2-0.7,0.2c-13.7,2.8-31.1,20.2-31.1,20.2s19.9-16.5,26.8-17.8c14.6-2.6,29-13.2,32.2-9.1
		C1011.9,572.1,1019.5,595.2,983.3,598.5z M984.7,603.9c0-0.7,8.8-1.1,16.4-4.6c2.9-1.3,5.6-3.1,7.9-5.3l-1.9,9.8
		c0,0-2.4,9.6-11.1,9.5c-1.7-0.2-3.2-0.4-4.7-0.6h0.1C991.2,612.7,984.2,611.9,984.7,603.9L984.7,603.9z"/>
	<path class="st13" d="M584.7,271.5c0,0-14.2-1.5-21-1.5c0,0-4.2,0.5-5.5,8.4l25.2,2.6c0,0,24,3.8,32.7,7.2c0,0,2-7-1.9-9.7
		S593.5,273.9,584.7,271.5z"/>
	<path class="st13" d="M612.8,330.1l1.6,9.1c0,0-12.4,11.2-33,7.9s-26.6-11.5-29.2-16.4l4.1-9.5c0,0,0.8,5.8,3.6,7
		c14.9,6.3,28,10.2,46.4,7.3C606.4,335.6,611.7,332.5,612.8,330.1z"/>
</g>
</svg>
