<svg xmlns="http://www.w3.org/2000/svg" viewBox="0 0 176.98 183.96"><title>Silver</title><g id="Layer_2" data-name="Layer 2"><g id="Layer_1-2" data-name="Layer 1"><path d="M56.26,98.28c-1.46-4.54-5.44-10.81-16.09-14.94C22.71,76.56,11.26,62.19,9.53,44.89c-1.09-11,2.25-20.65,8.52-24.67,2.79-1.78,8.47-2.48,11.92-.74a4.08,4.08,0,0,1,2.45,3.71,4.85,4.85,0,0,1-1.07,3.93l-.09.08a7.79,7.79,0,1,0-8.18,11.21,4.52,4.52,0,0,0,2,.44c.84,0,8.36-.25,13.1-5.4a14.19,14.19,0,0,0,3.53-10.9,13.36,13.36,0,0,0-7.56-11.4c-6.74-3.39-16-2-21.13,1.22C3.69,18.35-1.21,31.17.26,45.82,2.34,66.69,16,84,36.8,92.05c5.72,2.22,9.38,5.39,10.59,9.13A8.5,8.5,0,0,1,46.7,108a9.24,9.24,0,1,0-8.41,13.06,9.06,9.06,0,0,0,2.51-.35c3.73-.2,10-2,13.6-7.45A17.79,17.79,0,0,0,56.26,98.28Z" style="fill:#a7a8a8"/><path d="M120.72,98.28c1.46-4.54,5.44-10.81,16.09-14.94,17.46-6.78,28.91-21.15,30.64-38.45,1.09-11-2.25-20.65-8.52-24.67-2.79-1.78-8.47-2.48-11.92-.74a4.08,4.08,0,0,0-2.45,3.71c-.16,2.29.53,3.34,1.07,3.93l.09.08a7.79,7.79,0,1,1,8.18,11.21,4.52,4.52,0,0,1-2,.44c-.84,0-8.36-.25-13.1-5.4a14.19,14.19,0,0,1-3.53-10.9,13.36,13.36,0,0,1,7.56-11.4c6.74-3.39,16-2,21.13,1.22,9.34,6,14.24,18.8,12.77,33.45C174.64,66.69,161,84,140.18,92.05c-5.72,2.22-9.38,5.39-10.59,9.13a8.46,8.46,0,0,0,.69,6.84,9.24,9.24,0,1,1,8.41,13.06,9.06,9.06,0,0,1-2.51-.35c-3.73-.2-10-2-13.61-7.45A17.83,17.83,0,0,1,120.72,98.28Z" style="fill:#a7a8a8"/><polygon points="101.63 162.23 76.33 162.23 79.66 125.04 98.3 125.04 101.63 162.23" style="fill:#a7a8a8"/><path d="M43.54,6.67A153.44,153.44,0,0,0,40,39.78c0,49,21.92,88.73,49,88.73s49-39.73,49-88.73a153.43,153.43,0,0,0-3.53-33.11Z" style="fill:#b2bec3"/><rect x="34.79" width="107.1" height="9.92" rx="3.77" style="fill:#a7a8a8"/><path d="M116.47,180c-.7-11.42-12.74-20.52-27.49-20.52S62.2,168.61,61.49,180Z" style="fill:#b2bec3"/><path d="M120.07,181.48a2.48,2.48,0,0,1-2.48,2.48H60.08a2.48,2.48,0,0,1-2.48-2.48h0A2.48,2.48,0,0,1,60.08,179h57.51a2.48,2.48,0,0,1,2.48,2.48Z" style="fill:#a7a8a8"/><path d="M47.84,11.9S35.18,88.81,79.46,123.1c0,0-22.64-34.84-14.31-111.2Z" style="fill:#fff;opacity:0.5"/><polygon points="81.8 130.65 79.46 157.65 84.79 157.65 83.9 130.65 81.8 130.65" style="fill:#fff;opacity:0.5"/><path d="M64.59,177s2.78-12.54,20.2-16.2c0,0-8.37,6.29-8.46,16.2Z" style="fill:#fff;opacity:0.5"/></g></g></svg>