<?xml version="1.0" encoding="utf-8"?>
<!-- Generator: Adobe Illustrator 25.4.1, SVG Export Plug-In . SVG Version: 6.00 Build 0)  -->
<svg version="1.1" id="Layer_1" xmlns="http://www.w3.org/2000/svg" xmlns:xlink="http://www.w3.org/1999/xlink" x="0px" y="0px"
	 viewBox="0 0 1200 1820" style="enable-background:new 0 0 1200 1820;" xml:space="preserve">
<style type="text/css">
	.st0{fill:#393A3C;}
	.st1{fill:#EEEEEF;}
	.st2{fill:#4DBFDC;}
	.st3{fill:#119AD7;}
	.st4{fill:#453878;}
	.st5{fill:#6154C7;}
	.st6{fill:#8C4F45;}
	.st7{fill:#753C36;}
	.st8{fill:#443889;}
	.st9{fill:#F7C2D0;}
	.st10{fill:#FF8D94;}
	.st11{fill:#F04E98;}
	.st12{fill:#23242B;}
	.st13{fill:#30323D;}
	.st14{fill:#9E005D;}
</style>
<g>
	<g id="Eric_00000129178399750480288550000009610960592995613066_">
		<g>
			<g>
				<g>
					<path class="st0" d="M510.2,1783.6c15.9,6.8,46.4,3.1,65.4-1c19-4.1,9.7-18.8,1.1-38.7c-8.6-19.9-9-41.7-9-41.7
						s-65.7,5.4-68.7,19.9C496,1736.7,494.3,1776.8,510.2,1783.6z"/>
				</g>
				<g>
					<path class="st1" d="M511.5,1796.3c16.1,8.2,46.6,4.9,65.5-0.1c15.7-4.2,15.2-13.6,9.6-26.5c0.8,6.4-1.8,10.8-11,12.9
						c-19,4.1-49.4,7.8-65.4,1c-7-3-10.6-12.6-12.2-23.5C499.2,1776.2,502.8,1791.9,511.5,1796.3z"/>
				</g>
				<g>
					<g>
						<path class="st1" d="M708.2,1689.6c2.1,20.6,12.4,23.1,36.3,19c23.8-4.1,39.6,1.9,54.5,7.6c14.9,5.7,46.5,5.8,63.5,0.3
							c16.9-5.5,12.7-21.1,12.7-21.1S706.1,1669,708.2,1689.6z"/>
					</g>
					<g>
						<path class="st0" d="M708.9,1677.3c0,0-3.9,14.3,4.1,21.2c8,6.9,34.2-2.7,56-0.5c21.8,2.2,29.5,15.6,62.2,14.5
							c32.7-1.1,46.4-10.8,43.7-21.7c-2.7-10.8-42.2-21.5-63-23.9c-20.8-2.5-43.7-25.1-43.7-25.1L708.9,1677.3z"/>
					</g>
				</g>
				<g>
					<path class="st2" d="M491.6,1736c74.3,8.2,106.5-11.8,102-27.6l39.6-575.2l57.6,540.5C762.6,1698.9,816,1650,816,1650
						l24.6-797.3l-43.4-31.8c0,0-410.9-72.1-412.5,60.7C383.1,1014.3,491.6,1736,491.6,1736z"/>
					<g>
						<path class="st3" d="M627.4,1114.4c-0.1,0-0.1,0-0.2,0c-1.1,0-1.9-0.9-1.9-1.9l0.1-71.6c0-1.1,0.8-1.9,1.9-1.9
							c1.1,0,1.9,0.9,1.9,1.9l-0.1,71.6C629.1,1113.5,628.3,1114.3,627.4,1114.4z"/>
					</g>
				</g>
			</g>
		</g>
	</g>
	<g>
		<g id="Layer_1_00000181066974412039422790000006778483876765946782_">
			<path class="st4" d="M379.5,693.7c0.6,2,21.4,103.1,21.4,103.1s-27.9,22-48,51.2s-27.2,65.5-27.2,65.5
				c18.5,19.8,39.5,37.2,62.3,51.9c37.6,24,101.1,48,101.1,48l32.4-48l3.2,63.5c0,0,92,30.3,195.1,10.7S856,992.5,856,992.5
				s5.8-60.9-2-116.7s-11.7-84.9-11.7-84.9s79.7,39.5,134.2-40.2c54.4-79.7,72-169.2,72-169.2l-64.8-69.4c0,0-34.4,35-57,54.5
				S887.1,588,887.1,588S821,465.5,784.7,418.8s-131.6-48.6-160.8-47.3S408,393.7,347.8,419.2S98.2,577,72.3,615.9s-24,91.9,11,137
				S246,906.9,246,906.9l60.9-0.7c0,0-16.9-88.2-26.6-121.9s-19.5-68.1-19.5-68.1c19.7-9,40.6-15.4,62-18.8
				C358.8,691.7,379.5,693.7,379.5,693.7z"/>
			<path class="st5" d="M918.8,572.3c-9.5,6.3-19.9,12-30.8,15.5c-5.6,1.8-11.4,3.1-17.1,4.7c-5.1,1.4-10.9,2.7-15.2,5.9
				c-1.5,1.1,0.1,3.1,1.6,2.9c3.1-0.5,6-2,9-3c2.6-0.9,5.3-1.7,7.9-2.5c5.7-1.7,11.5-3.5,17-5.7c10.3-4.1,19.6-10,28.3-16.8
				C920,572.9,919.3,572,918.8,572.3z"/>
			<path class="st5" d="M915.2,798c-7.3,0.5-14.4,2.3-21.8,2.2c-7.3-0.1-14.6-0.9-21.8-2.3c-14-2.8-27.6-7.5-40.4-13.9
				c-12.7-6.2-24.2-14.1-36.4-21.1c-13-7.5-25.3-16.1-36.9-25.7c-6.3-5-11.9-10.7-16.6-17.2c-4.8-6.6-8.2-14-12.5-20.9
				c-0.2-0.4-0.7-0.5-1.1-0.2c-0.3,0.2-0.4,0.6-0.3,1c3.5,6.7,6,13.9,9.8,20.4c3.6,6,8,11.4,13.1,16.2c5.5,5.1,11.3,9.8,17.3,14.2
				c6.2,4.6,12.2,9.3,18.9,13.2c25.3,14.7,50,31.9,79.3,37.4c8.1,1.6,16.3,2.3,24.5,2.2c4,0,8.1-0.5,12-1.3c4.3-1,8.5-2.6,12.9-3.2
				C915.8,798.9,915.8,797.9,915.2,798z"/>
			<path class="st5" d="M393.5,748c-0.7-6.4-1.5-12.8-2.6-19.1c-2.3-12.7-5.5-25.3-9.4-37.6c-3.8-12.5-7.5-25.1-11.2-37.6
				c-3.4-11.3-6.1-23-12-33.2c-0.2-0.3-0.6-0.4-0.9-0.2c-0.3,0.2-0.4,0.5-0.2,0.8c4.6,11.1,7.2,22.8,10.2,34.5
				c3.1,12.1,6.2,24.2,9.8,36.2c-2.5-0.3-5-0.2-7.5,0.1c-5.3,0.4-10.5,0.4-15.8,0.5c-11.3,0.2-22.6,1.6-33.6,4.1
				c-11.1,2.4-22,5.5-32.8,8.7s-21.1,7.9-31.7,11.7c-10.7,3.7-20.7,9.1-29.7,16c-0.5,0.4,0.1,1.3,0.7,0.9
				c8.1-5.6,17.7-9.7,27.1-12.7c10-3.3,19.9-7.1,30-10.2c20.5-6.4,42.2-12.4,63.8-13.5c6-0.3,12-0.2,18-0.4c4.3-0.2,9-1.1,13.2,0.2
				c3.1,10.6,6.1,21.4,8.2,32.2c1.2,6.3,2.2,12.7,3,19.1c0.9,6.5,1.1,13.8,3.5,20c0.1,0.6,0.6,0.9,1.1,0.9s0.9-0.6,0.9-1.1
				C395.8,761.6,394.2,754.6,393.5,748z"/>
			<path class="st6" d="M288.1,892.7c6.1,1,16.5,2,16.5,2s6.1,6.4,7.1,15.2s-7.1,19.1-25.6,22.7s-34.7,10.4-42.5,8.8
				s-11.7-5.5-11.7-5.5l-12,2.3c0,0,5.8,23.3-5.2,34.4s-17.1,8.1-19.6,4.9c-1.6-2.1-3-4.4-4.1-6.8c0,0-3.2,12.6-13.6,12.9
				S166.3,973,166.3,973v-2.3c0,0-11.4,8.1-13.9-0.3s3.6-28.5,3.6-28.5s-13-9.7-10.4-16.2s13.3-10.4,13.3-10.4s-1.6-21.4,13.9-25.3
				S288.1,892.7,288.1,892.7z"/>
			<path class="st7" d="M278.9,909c-8-0.5-15.8-1.3-23.8-0.7c-6.3,0.5-13.2,0.8-19.2,3.1c-5.2,1.9-7.9,5.5-8.1,11.1
				c-0.1,3.4,0.5,6.8,1.9,10c1.1,2.7,3.2,4.1,5.2,6c0.6,0.5,1.4-0.3,0.9-0.8c-2.4-2.3-3.9-5.4-4-8.7c-0.3-2.4-0.3-4.9,0-7.3
				c0.9-6.2,6.7-8.1,12.2-9.1c5.8-1,11.6-1.6,17.5-1.8c5.9-0.3,11.9,0.6,17.7-0.2C279.9,910.4,279.7,909,278.9,909z"/>
			<path class="st7" d="M212.2,905.4c-7.6,1.1-16.3,2.7-22.6,7.4c-2.5,1.8-5.9,3.8-7.7,6.3c-2,2.8-1,6.5-0.3,9.6
				c2,8.6,4.1,17.2,6.2,25.8c1.8,7.3,0.6,15.1,6,21c0.6,0.7,1.5-0.3,1-0.9c-4.5-5.7-3.2-13.4-4.1-20.2c-1-7.5-2.7-14.8-4.4-22.2
				c-0.7-3-2.6-7.7-1.4-10.6c1.1-2.5,4.3-5.3,6.3-7.1c6-5.3,13.4-7.1,21.2-8.2C213,906.2,212.8,905.3,212.2,905.4z"/>
			<path class="st7" d="M194.1,898.9c-7.3,1.6-14.5,3.9-21.4,6.9c-5.6,2.2-11,5.2-15.8,8.8c-5.6,1.2-12.9,6.9-12.7,12.7
				c0.1,4.3,2.8,8.3,5.8,11.2c1.3,1.2,2.7,2.4,4.2,3.5c1,1.1,2.2,2.1,3,3.3c1.8,2.6,3.2,5.4,4.4,8.3c2.8,6.5,4.8,14.3,4,21.4
				c0,0.5,0.8,0.6,0.9,0.2c2.5-7.5,0.6-16-2-23.2c-0.4-1.2-1.1-3-2-5c0.1-0.2,0.1-0.4,0-0.5c-0.6-1.9-1.7-3.6-3.3-4.9
				c-0.9-1.2-2-2.1-3.4-2.7c-2.8-2.2-5.6-4.5-7.2-7.8c-2-3.9-1.1-6.7,1.9-9.6c2.3-2.1,4.9-3.8,7.8-4.9c0.5-0.2,0.8-0.7,0.8-1.3
				c5-2.6,10.2-5,15.5-7c3.6-1.4,7.2-2.8,10.9-3.9c3.3-1,6.5-1.8,9.4-3.9c0.4-0.3,0.4-0.9,0.1-1.3
				C194.7,899,194.4,898.9,194.1,898.9z"/>
			<path class="st6" d="M965.2,523.5c2.6-18.1,15.6-34.7,55.8-38.4s80.7,5.7,84.3,15.7s-0.7,15.6-20.4,15.6s-31.4,1-31.4,1
				s5.2,26.9,13.3,41.8s11,16.9,11,16.9s27.6-19.8,42.8-17.5s21.7,14.3,6.2,24.6s-35,18.2-35,18.2c7.1,3.6,14.4,6.7,22,9
				c13.3,4.2,12.6,22.4-2.3,24s-28.5-6.8-41.8-12.6c-7.9-3.4-15-8.2-21.1-14.3c0,0-11,1.3-16.8,0.6l-5.8-0.6
				c-4.1,4.6-10.1,7-16.2,6.5c-10.7-0.7-24-12.6-33.4-34S965.2,523.5,965.2,523.5z"/>
			<path class="st6" d="M1013.2,575.4c0.3-1,25-28.5,35.3-26.3s18.8,11.7,5.8,29.5s-21.1,22.8-22,22.7S1013.2,575.4,1013.2,575.4z"
				/>
			<path class="st7" d="M1093.5,583.7c-8-6.6-19.4-5.7-29-5.5c-0.4,0-0.7,0.3-0.7,0.7c0,0.4,0.3,0.7,0.7,0.7
				c8.2,0.2,17.9,0.9,25.1,5.2c4.4,2.7,6.2,7.2,3.2,11.7c-2.7,4-6.1,5.9-10.7,7.2c-9.1,2.5-18.9,2.6-28.3,2.6c-4.9,0-9.8,0-14.6,0
				c-2.4,0-5.7,0.3-8.5,0c1.2-1,2.3-2.1,3.5-3.1c3.6-3.2,7.7-6.2,11-9.7c2.9-3.2,5.6-6.6,8.1-10.1c2.5-3.3,4.6-6.9,6.1-10.7
				c2.6-6.2,4.9-14.3-0.1-20s-12.8-6-19.3-2.9c-4.6,2.2-8.5,5.9-12.2,9.3s-6.5,7.9-10.3,11.2c-0.7,0.6,0.2,1.8,0.9,1.2
				c7.8-5.7,13.6-13.8,22.4-18.3c4.2-2.1,9.1-3,13.3-0.4c4.6,2.8,5.1,7.5,4,12.4c-2.2,9-7.6,16-13.2,23.1c-3.1,4-7.2,7-10.8,10.5
				c-1.9,1.8-3.8,3.7-5.7,5.5c-0.4,0.3-0.8,0.7-1.2,1.1c0,0-0.1,0-0.1,0c-1.7-0.8-3.2,1.4-2,2.4c-0.5,0.9-1,1.7-1.7,2.5
				c-0.1,0.1,0,0.2,0,0.2c0,0,0.1,0,0.2,0c1.3-0.8,2.7-1.1,3.9-1.7c3.4,0.8,7.2,0.5,10.6,0.6c6.5,0.2,13.1,0.1,19.6,0
				c5.7-0.1,11.4-0.4,17-1.1c5.1-0.6,10.7-1.5,15.2-4C1097.4,600.1,1101,589.8,1093.5,583.7z"/>
			<path class="st8" d="M547.4,901.7c0,0,60.1-40.2,99.4-156S687.9,604,687.9,604l-54-28.5c0,0,20.3-13.4,37.2-20.8
				s35.4-13.8,35.4-13.8s-6.5-74.3-32.9-139.2s-61.4-85.1-99-87.3s-108,22-128.4,36.3s-50.1,42.4-70.4,88.6s-20.3,150-20.3,150
				l67.9-2.5L384,625.2c0,0,28.1,33.3,77.4,97.2S547.4,901.7,547.4,901.7z"/>
			<path class="st9" d="M465.1,549c0,0,31.1,77.9,55.1,164.1c24,86.2,27.9,180.9,27.9,180.9s31.8-40.2,46-163.3S629,397.2,629,397.2
				l-201.8,47.1L465.1,549z"/>
			<path class="st5" d="M840.3,1002.1c-19.5,7.1-38.7,15-58.5,21.2c-19.8,6.3-40.1,11.1-60.6,14.6c-20.9,3.5-42,5.5-63.2,6.1
				c-20.7,0.5-41.4-0.3-61.9-2.6c-11.7-1.3-23.4-3.1-35-5.4c-11.5-2.3-22.9-6-34.5-7.8c-0.5-10.4-1.3-20.8-2-31.2
				c-0.4-5.1-0.8-10.1-1.1-15.2c-0.3-5.4-0.2-10.8-0.4-16.2c0-0.2-0.1-0.5-0.2-0.6c0.1-0.5-0.3-0.9-0.8-1c-0.2,0-0.5,0.1-0.7,0.2
				c-7,6.2-12,14.5-17,22.2c-2.7,4.3-5.5,8.5-8.3,12.7s-6.6,8.3-9,12.8c-9.5-5.5-19.9-9.6-29.9-14c-11-4.9-22.1-9.7-33-14.8
				c-21.8-10.2-42.7-21.9-61.4-37.2c-5.2-4.3-10.3-8.8-15.3-13.3s-9.9-9.6-15.4-13.5c-0.7-0.5-1.3,0.5-0.9,1
				c3.9,5,8.8,9.2,13.4,13.6s9.2,8.5,13.9,12.5c9.1,7.8,18.8,14.9,29,21.2c20,12.4,41.6,21.8,63,31.3c12.3,5.4,24.4,11.6,36.9,16.7
				c0.6,0.2,1.3-0.1,1.6-0.7c0-0.1,0.1-0.2,0.1-0.2c0.1-0.1,0.2-0.2,0.3-0.2c3.6-3.2,6.3-8,9-12s5.3-8.3,7.8-12.5
				c4.2-7.5,9-14.7,14.3-21.5c-1.2,9.2,0.1,19,0.7,28.2c0.7,10.6,1.2,21.3,2.1,31.9c-0.6,0.7-0.6,1.8,0.2,2.5
				c0.1,0.1,0.3,0.2,0.4,0.3c10.5,4.1,22.1,6.3,33.1,8.6c10.2,2.1,20.5,3.9,30.9,5.2c20.9,2.6,42,3.6,63.1,3
				c41.7-0.9,83.6-8.3,123.6-19.9c22.5-6.5,45.3-13.9,66.2-24.8C841.2,1002.8,840.8,1001.8,840.3,1002.1z"/>
			<path class="st5" d="M707.8,539.2c-1.2-23.3-5.7-46.2-11.6-68.7c-5.8-22.1-12-44.5-19.8-66c-4-11-8.5-22.9-16.2-32
				c-0.5-0.5-1.2,0.1-1,0.7c4.6,10,9.7,19.5,13.5,29.8c3.6,9.9,6.5,20,9.4,30.1c6.4,22.2,12.8,44.4,17.2,67.1
				c2.5,12.8,4.1,25.7,4.9,38.8c-12.5,3.5-24.6,8.3-36.2,14.1c-6,3.1-11.8,6.5-17.5,10.1s-12,7.3-16.5,12.2c-0.3,0.4-0.3,0.9,0,1.3
				c0.2,0.1,0.4,0.2,0.6,0.2c3.2,3.4,8.5,5.5,12.5,7.7c4.5,2.6,9,5.1,13.6,7.6c8.3,4.6,16.8,9.6,25.6,13.2c-1.7,4.4-3,9-3.9,13.6
				c-1.3,5.7-2.7,11.4-4.1,17.1c-2.9,11.4-5.9,22.8-9.1,34.1s-6.6,22.6-10.1,33.8c-3.4,10.7-7.8,21.4-10.3,32.3
				c-5.3,10.9-9.1,22.7-13.8,33.8c-5.2,12.4-10.7,24.7-16.7,36.8c-11.7,23.6-25.2,46.9-42.2,67.1c-4.4,5.3-9.2,10.3-14.4,14.9
				c-2.8,2.4-5.7,4.8-8.7,6.9c-1.8,1.3-3.7,2.4-5.5,3.7c-13.4-37.9-27.9-75.5-45.7-111.6c-4.5-9.1-9-18.3-14.1-27.1
				c0-0.2,0-0.4-0.1-0.6c-2.1-4.8-5.4-9.2-8.3-13.5c-3.1-4.6-6.3-9.1-9.5-13.5c-6.2-8.5-12.6-16.9-19.1-25.2
				C436.9,690,423,672,408.9,654l-11.6-14.8c-3.6-4.6-7-9.4-10.9-13.8c6.1-6.1,12.2-12.3,18.4-18.4c6-6,13.1-11.7,18.2-18.5l0.3-0.1
				c0.5-0.3,0.7-1,0.4-1.6c-0.1-0.2-0.4-0.4-0.6-0.5c-2.5-0.6-5.2,0-7.8,0.3c-2.9,0.2-5.9,0.4-8.8,0.6c-5.7,0.3-11.3,0.4-17,0.4
				c-5.6,0-11.2-0.2-16.8-0.4c-5-0.1-10-0.2-14.8,1.3c-0.3-0.4-0.9-0.5-1.4-0.3c-1.1,0.4-0.5-4.2-0.5-4.4l0.3-4.5
				c0.2-3.2,0.5-6.5,0.7-9.7c0.5-6,0.9-12,1.3-18.1c0.9-11.7,1.6-23.4,2.7-35.1c2-20.7,4.8-41.3,9.8-61.5c1.6-3.5,2.6-7.3,4-10.8
				c1.9-4.7,4.1-9.4,6.3-14c2-4.2,4.1-8.3,6.4-12.4c2.2-3.9,4.9-7.6,6.7-11.7c0.3-0.7-0.7-1.2-1.2-0.7c-3.2,3.3-5.5,7.8-7.8,11.7
				c-2.4,4.2-4.7,8.4-6.8,12.8c-2,4.1-3.7,8.3-5.3,12.6c-1.2,3.3-2.7,6.6-3.6,10c-1,2.8-2,5.6-2.8,8.5c-1.4,5.1-2.5,10.2-3.6,15.3
				c-2,9.7-3.5,19.4-4.6,29.2c-2.3,20.9-3.5,41.9-4.9,62.8c-0.4,6.1-1.3,12.4-1.3,18.5c0,2.8,2,6.2,5.1,4.1c0.3-0.2,0.5-0.5,0.6-0.9
				c10.8-0.7,21.6,0.5,32.4,0.5c5.7,0,11.4-0.1,17-0.4c2.9-0.2,5.9-0.4,8.8-0.6c0.9-0.1,1.9-0.1,2.8-0.2c-5.9,4.6-11,10.5-16.3,15.7
				c-6.2,6.1-12.4,12.2-18.6,18.3c-0.5-0.1-1.1,0.3-1.2,0.8c0,0.1,0,0.2,0,0.4l-0.2,0.2c-0.6,0.6-0.5,1.5,0,2.1
				c0.5,0.5,1.2,0.5,1.8,0.2c2.4,3.6,5.2,7,7.9,10.4l10.7,13.9c7,9.1,14,18.1,21,27.2c13.9,17.8,28,35.5,41.4,53.7
				c3.5,4.8,7,9.6,10.3,14.5c3.4,4.9,6.4,10.3,10.1,14.9c0.1,0.1,0.3,0.3,0.4,0.3c10,22.3,21.2,44.1,30.8,66.5
				c10.3,23.9,19.9,48.2,28.1,72.9l-0.4,0.4c-0.3,0.3-0.3,0.9,0,1.2c0.2,0.2,0.5,0.3,0.8,0.2c0.2-0.1,0.5-0.2,0.7-0.2
				c0.7,0.3,1.6,0,1.9-0.8c0,0,0,0,0-0.1c4.5-2.2,8.6-5.7,12.3-8.8c4.7-4,9.2-8.3,13.3-12.9c8.6-9.6,16.4-19.8,23.4-30.7
				c14.7-22.5,26.5-46.6,37-71.3c3.1-7.1,6.1-14.3,8.9-21.5c2.3-5.8,4.9-11.6,6.8-17.6c0.3-0.1,0.6-0.3,0.8-0.6
				c5-10.2,8-21.6,11.4-32.4c3.6-11.2,7-22.4,10.2-33.8c6.2-21.9,11.6-44,16.7-66.2c0.9-0.2,1.5-1.1,1.3-2.1c-0.1-0.4-0.4-0.8-0.7-1
				c-4.4-2.6-9.3-4.6-14-6.9s-9.3-4.6-13.9-7c-4.5-2.3-8.9-4.6-13.3-7c-3.7-2-7.7-5-11.8-6.5c5-2.9,9.7-6.8,14.6-9.9
				c5.7-3.6,11.6-6.9,17.7-9.9c12.1-6,24.8-10.9,37.9-14.5c0.9-0.2,1.4-1.1,1.1-2C708,539.5,707.9,539.3,707.8,539.2z"/>
			<path class="st6" d="M456.2,242.8c0,0-11.5,157.3-12.9,172.8s76.4-8.3,30.9,25.4c0,0,21.5,0.6,80.3-8.7
				c94.1-15,42.7-6.5,53.9-30.5c0,0,5.3,4-1.2-21c-7.8-30-27.5-159.4-27.5-159.4L456.2,242.8z"/>
			<path class="st7" d="M456.2,242.8l123.6-21.3c0,0,8.9,58.5,17.1,105.9c-6.7,10.5-14.5,20.3-23.2,29.2
				c-20.1,20.3-43.4,25.6-64.3,29.2c-25.4,4.4-45.8-2.9-62.4-18.6C450.9,315.8,456.2,242.8,456.2,242.8z"/>
			<path class="st10" d="M517.5,437.8l47.9,36.5l60.3-67.6l2.2-8.4c0,0-9.7-1.7-14.4-2.4C613.5,395.9,576.7,427.3,517.5,437.8z"/>
			<path class="st10" d="M516.2,438c-29.5,5-59.8,3.9-88.9-3.1l-0.2,12l50,41.6L516.2,438z"/>
			<path class="st11" d="M539.2,484.8l18.5-32.9l-41.8-26.3l-34.7,40.2l25.8,25.5c0,0,20.9,52,29.7,112.9
				c10.7,73.8,9.2,162.1,4.2,203.7c-0.2,1.8-0.4,3.7-0.7,5.5c6.4,46.2,7.8,80.7,7.8,80.7s12-15.2,24.5-55.4
				C577.3,747,539.2,484.8,539.2,484.8z"/>
			<polygon class="st9" points="605.1,353.2 515.9,424.2 436.8,394.4 419.7,436.1 427.2,441 477,473.6 516.8,429.3 562.2,460.3 
				629,397.2 			"/>
			<path class="st6" d="M580.9,176.7c0,0,0.7-16.4,21.1-20.5c19.8-4,27.8,47.4,13.2,60.6s-27.4-9.8-27.4-9.8L580.9,176.7z"/>
			<path class="st6" d="M394.1,231.7c0,0-9.5-13.4-28.9-5.8c-18.8,7.4,2.3,54.9,21.7,58.1s17.7-23,17.7-23L394.1,231.7z"/>
			<path class="st6" d="M370.3,234.5c40.9,103,89.7,143.9,161.1,122.8s93.4-73.1,68.9-190.6C582.2,80.1,516.1,42.6,444.9,63.5
				S336.4,148.9,370.3,234.5z"/>
			<path class="st12" d="M543.6,202c1.2,4,5,6.4,8.4,5.4s5.3-5.1,4.2-9.1s-5-6.4-8.4-5.4S542.4,198,543.6,202z"/>
			<path class="st12" d="M428.9,235.8c1.2,4,5,6.4,8.4,5.4s5.3-5.1,4.2-9.1s-5-6.4-8.4-5.4S427.7,231.8,428.9,235.8z"/>
			<path class="st13" d="M564.8,170.7c2.1-0.6,3.3-2.8,2.7-4.8c-0.3-0.9-0.9-1.7-1.7-2.3c-7.8-4.8-26.3-14.3-43.2,5.7
				c-1.5,1.5-1.5,3.9-0.2,5.5c1.5,1.6,4,1.6,5.5,0.1c16.1-15.2,33.5-4.8,33.7-4.7C562.6,170.9,563.7,171,564.8,170.7z"/>
			<path class="st13" d="M402.1,218.6c-0.9,0.3-1.9,0.2-2.8-0.2c-2-0.9-2.8-3.3-1.9-5.2c0,0,0,0,0,0c4-8.2,14.4-26.2,39.4-18.6
				c2.1,0.5,3.4,2.5,3.1,4.6c-0.4,2.1-2.4,3.5-4.6,3.1c0,0,0,0,0,0c-21.8-4.1-30.8,14.1-30.8,14.3
				C404.1,217.5,403.2,218.3,402.1,218.6z"/>
			<path class="st7" d="M503.4,280.2c5.2-1.7,9-4.4,9.8-8.9c2.5-14-14.9-30.2-16.7-32.3c-1.2-1.4-2.7-2.1-4.1-0.9s-0.2,3.3,1.1,4.7
				c5.9,6.9,12.4,20.8,10.8,27.4c-0.3,1.1-0.9,2.5-3.4,3.4c-1.8,0.7-2.7,2.7-2,4.5C500,281.4,503.3,280.3,503.4,280.2z"/>
			<path class="st13" d="M566.2,317.9l8.4,11.8c0,0-10,24.2-41.6,33.5s-45.6,1.6-52.5-3.5l-0.5-16.4c0,0,5,7.8,9.9,7.6
				c25.4-1.1,46.6-4.4,71-20.9C560.8,329.9,566.2,321.9,566.2,317.9z"/>
			<path class="st14" d="M512.2,298.4c-8.9,2.8-14.4,10.9-11.1,21c0.7,2.3,1.7,4.5,2.9,6.6c3.7,6,9.9,8.8,21.1,4.1
				c7.3-3.1,10.2-7.6,9.8-14c-0.2-2.4-0.7-4.7-1.4-6.9C530.2,299,521.1,295.6,512.2,298.4z"/>
			<path class="st13" d="M510.5,284.2c0,0-20.6,8-28.2,12.1c0,0-4.4,3.3-0.8,15.2l33.6-12.9c0,0,21.9-5.2,33.8-5.4
				c0,0-2.2-11.3-8.1-12.8S521.8,282.5,510.5,284.2z"/>
		</g>
	</g>
</g>
</svg>
