<?xml version="1.0" encoding="utf-8"?>
<!-- Generator: Adobe Illustrator 25.2.1, SVG Export Plug-In . SVG Version: 6.00 Build 0)  -->
<svg version="1.1" id="Layer_1" xmlns="http://www.w3.org/2000/svg" xmlns:xlink="http://www.w3.org/1999/xlink" x="0px" y="0px"
	 viewBox="0 0 300 300" style="enable-background:new 0 0 300 300;" xml:space="preserve">
<style type="text/css">
	.st0{clip-path:url(#SVGID_2_);}
	.st1{fill:#F9D4B8;}
	.st2{fill:#4C4C4C;}
	.st3{fill:#343438;}
	.st4{fill:#8582C4;}
	.st5{fill:none;}
	.st6{fill:#FFFFFF;}
	.st7{clip-path:url(#SVGID_4_);}
	.st8{fill:#EA997D;}
	.st9{fill:#D87E66;}
	.st10{fill:#EFCBB4;}
	.st11{opacity:0.9;}
	.st12{fill:#EA9579;}
	.st13{fill:#EB9175;}
	.st14{fill:#EB8D71;}
	.st15{fill:#EC896D;}
	.st16{fill:#EC8569;}
	.st17{fill:#ED8264;}
	.st18{fill:#ED7E60;}
	.st19{fill:#EE7A5C;}
	.st20{fill:#EE7658;}
	.st21{fill:#EF7254;}
	.st22{fill:#EF6E50;}
	.st23{fill:#23242B;}
	.st24{fill:#D7DAE2;}
	.st25{fill:#CE9052;}
	.st26{fill:#A36D3D;}
	.st27{fill:#BED1DF;}
	.st28{fill:#FDF2EE;}
</style>
<g id="Layer_1_1_">
	<g>
		<defs>
			<ellipse id="SVGID_1_" cx="153.2" cy="-271.3" rx="116.7" ry="116.9"/>
		</defs>
		<clipPath id="SVGID_2_">
			<use xlink:href="#SVGID_1_"  style="overflow:visible;"/>
		</clipPath>
		<g class="st0">
			<g id="Matteo">
				<path class="st1" d="M289.1-11.7c0,0,5.6,34.9,5.1,141.5c0,0-9.2,7.6-22.9,0.8c-2.1-13.7-12.9-73.2-21.8-131.8
					c-0.8-5.1-6.9-25-7.5-35.9c19.6-3.3,34.4-2.6,46.6-5.8C289.5-36.4,288.3-18.9,289.1-11.7z"/>
				<path class="st1" d="M294,139.8c0,0,0.2,28.2-8.6,46.2c-3.3,6.8-4.5,12.1-12,13.9c0,0-9.2,2.8-12.1,1.7c0,0-1.3-2.8,1.9-5.5
					s10-4.8,10.2-10.3c0.1-4.5,1.6-20.2-0.9-19.3s-6.9,20.2-12.5,18.9c0,0-1.5-0.3-1.1-6.2s4.6-28.3,6.6-32.3s5.9-16.2,5.9-16.2
					s13.8-11.5,22.9-0.8L294,139.8z"/>
				<path class="st2" d="M131.7,548.7c2.6-29.7,34.9-325.5,37.9-362.5c0,0,5.5,239.2,10.4,362.5H231
					c4.8-105.9,24.2-393.2,19.1-501.2H85.2c0,0-3.7,386.4-4,501.2H131.7z"/>
				<path class="st3" d="M169.7,186.2c0,0,11.9-9,15.7-11.5s-14.7,35.8-14.7,35.8L169.7,186.2z"/>
				<path class="st4" d="M179.2,58.8L179.2,58.8c-0.5,0-0.9-0.6-0.9-1c-0.7-53-12-200.2-12.1-201.7c-0.1-0.5,0.3-0.9,0.8-1
					c0,0,0,0,0,0c0.5,0,0.9,0.3,0.9,0.8c0.1,1.5,11.4,148.8,12.1,201.9C180.1,58.2,179.7,58.8,179.2,58.8z"/>
				<path class="st1" d="M46.8,42c0.6-3.7,2.5-7,5.4-9.4c0.2-0.2,23.4-13.2,23.6-13.3c3.9-1.7,15.2-0.7,18.7,0
					c1.7,0.4,9.6,5.1,11.4,6.3c0.9,0.6,6.4,6.6,6.6,6.9c1.6,1.7-0.6,4.4-3.6,3.3c-2.5-0.9-5.7-3.8-6.5-4.3c-1-0.7-6.5-4.1-8.6-4.5
					c-3-0.4-6.1-0.6-9.1-0.6c3.5,0.8,6.9,2,10.1,3.6c3,1.4,5.8,3.1,8.4,5.1c2.7,2.1,5.2,4.4,7.4,7c2.3,3.1-3.2,4.4-5.2,3.1
					c-1-0.6-2.8-2.2-4.9-3.8c-0.1-0.1-5.3-3.8-8.6-4.7c-2.7-0.8-7.1-1.8-10.7-2.6c3.3,1.3,7.3,2.2,10.2,3.8c2.6,1.4,5.1,2.9,7.5,4.6
					c2.3,1.7,4.5,3.7,6.4,5.9c2.6,3.2-3,5-5,3.4c-3.7-2.9-4.7-3.8-5.9-4.6c-2.3-1.5-4.8-2.8-7.4-3.9c-2.7-1.2-5.2-1.3-9.3-1.9
					c2.4,1.6,3.6,3,5.5,4.8c2.2,2.2,4.2,4.5,6.1,7c1.5,1.9,2.9,3.9,4.2,6c1,2-3,3.4-4.8,2.1s-2.2-2.6-3.4-4c-1.8-2.1-3.8-4-6-5.6
					c-2.9-2-3.7-2.9-6.8-4c-1.4,2.6-2.7,5.3-3.8,8.1c-4.9,12.4-20.7,0-20.7,0C44.6,50.3,46.8,42,46.8,42z"/>
				<path class="st1" d="M47.8,55.8c0,0-72.9-63.6-89.4-100.4c-13.5-30.2,88-108.6,88-108.6s9.4,10.7,12.9,24.2s6,27.4,6,27.4
					s-53.4,42-58.4,45.5c0,0,9.8,30.2,48.1,88.9C54.9,32.8,58,50.5,47.8,55.8z"/>
			</g>
		</g>
	</g>
	<circle class="st5" cx="154.3" cy="144.6" r="116.6"/>
	<circle class="st5" cx="153.2" cy="147.2" r="116.7"/>
	<path class="st6" d="M145.6,180.7c-0.6-2,2.7-4.6,7.3-5.9s8.7-0.7,9.2,1.3"/>
	<path class="st6" d="M144.1,174.4c-0.8-4,3.4-8.2,9.5-9.5s11.6,1,12.5,5"/>
	<path class="st6" d="M143.1,168.1c-1.1-3.9,2.9-8.4,8.9-10.1s11.7,0.2,12.8,4.2"/>
	<path class="st6" d="M146.1,181.6c0.7-4.1,6.2-6.5,12.4-5.4s10.6,5.2,9.9,9.2"/>
	<ellipse class="st5" cx="153.2" cy="144.3" rx="116.7" ry="116.9"/>
	<path class="st6" d="M143.2,187.4c1.4-3.8,7.2-5.3,13-3.2s9.4,6.9,8.1,10.7"/>
	<g>
		<defs>
			<circle id="SVGID_3_" cx="153.2" cy="144.7" r="116.6"/>
		</defs>
		<clipPath id="SVGID_4_">
			<use xlink:href="#SVGID_3_"  style="overflow:visible;"/>
		</clipPath>
		<g class="st7">
			<g id="Alice">
				<path class="st8" d="M178.9,156.5c0,0-1.4,33.9,0,39.5s15,14.5,28.9,21c0,0-17.9,24.4-52.9,23.7s-41.4-15.2-47-23.2
					c0,0,24.2-9.1,24.9-20.5s0-40.5,0-40.5L178.9,156.5z"/>
				<path class="st9" d="M156.2,188.4c-11.1,0-18.8-7.2-23.1-13.2c-0.1-10.1-0.3-18.8-0.3-18.8h46c0,0-0.4,8.7-0.6,18.3
					C174.7,180.8,167.6,188.4,156.2,188.4z"/>
				<path class="st8" d="M195.5,118.9c0,0,3.1-6.2,11.7-4.3c8.3,1.8,2.7,23.1-5.2,25.7s-8.9-8.4-8.9-8.4L195.5,118.9z"/>
				<path class="st8" d="M121.6,109.4c0,0-1.4-6.8-10.2-7.1c-8.5-0.3-8.4,21.7-1.5,26.2c7,4.5,10.8-5.9,10.8-5.9L121.6,109.4z"/>
				<path class="st8" d="M115.2,102.2c-2.2,46.8,12.7,71.3,35.3,74.2s42.9-13.2,52.9-62.9c7.4-36.7-9.1-62.2-36.4-65.6
					S117.1,63.3,115.2,102.2z"/>
				<path class="st10" d="M203.8,111.1c-5.7,33.3,2-21.1-15.8-43.3c-6.6-8.2-18.6,5.9-26,5.3c-7.8-0.7-18.8-15.5-27.2-7.4
					c-20.8,20-19.8,73.4-19.2,37.6c0.6-37,22.1-58,49.4-55.6S210.3,73.2,203.8,111.1z"/>
				<g class="st11">
					<path class="st8" d="M115.9,132c0.6,9.3,8.6,16.4,17.9,15.9c9.3-0.6,16.4-8.6,15.9-17.9c-0.6-9.3-8.6-16.4-17.9-15.9
						c0,0,0,0,0,0C122.5,114.7,115.4,122.7,115.9,132z"/>
					<path class="st12" d="M131.9,115.6c-8.5,0.5-15,7.8-14.5,16.3c0.5,8.5,7.8,15,16.3,14.5c8.5-0.5,15-7.8,14.5-16.3
						C147.7,121.5,140.4,115.1,131.9,115.6C131.9,115.6,131.9,115.6,131.9,115.6z"/>
					<path class="st13" d="M132,117.1c-7.7,0.5-13.5,7.1-13.1,14.7c0.5,7.7,7.1,13.5,14.7,13.1s13.5-7.1,13.1-14.7c0,0,0,0,0,0
						C146.3,122.5,139.7,116.6,132,117.1z"/>
					<path class="st14" d="M132.1,118.6c-6.9,0.4-12.1,6.3-11.7,13.2c0.4,6.9,6.3,12.1,13.2,11.7c6.9-0.4,12.1-6.3,11.7-13.2
						C144.8,123.4,138.9,118.1,132.1,118.6z"/>
					<path class="st15" d="M132.1,120c-6.1,0.3-10.7,5.5-10.4,11.6c0.3,6.1,5.5,10.7,11.6,10.4c6.1-0.3,10.7-5.5,10.4-11.6
						c0,0,0-0.1,0-0.1C143.4,124.2,138.2,119.7,132.1,120z"/>
					<path class="st16" d="M132.2,121.5c-5.2,0.3-9.2,4.8-8.9,10s4.8,9.2,10,8.9c5.2-0.3,9.2-4.8,8.9-10c0,0,0,0,0,0
						C141.9,125.2,137.4,121.2,132.2,121.5z"/>
					<path class="st17" d="M132.3,123c-4.4,0.3-7.8,4.1-7.5,8.5s4.1,7.8,8.5,7.5c4.4-0.3,7.8-4.1,7.5-8.5c0,0,0,0,0,0
						C140.5,126.1,136.7,122.7,132.3,123z"/>
					<path class="st18" d="M132.4,124.5c-3.6,0.2-6.3,3.3-6.1,6.9c0.2,3.6,3.3,6.3,6.9,6.1c3.6-0.2,6.3-3.3,6.1-6.9c0,0,0,0,0,0
						C139.1,127,136,124.3,132.4,124.5z"/>
					<path class="st19" d="M132.5,126c-2.8,0.2-4.8,2.6-4.7,5.3c0.2,2.8,2.6,4.8,5.3,4.7c2.7-0.2,4.8-2.5,4.7-5.3
						C137.7,128,135.3,125.8,132.5,126C132.5,126,132.5,126,132.5,126z"/>
					<path class="st20" d="M132.6,127.4c-2,0.1-3.4,1.8-3.3,3.7c0.1,2,1.8,3.4,3.7,3.3c2-0.1,3.4-1.8,3.3-3.7c0,0,0,0,0,0
						C136.2,128.8,134.5,127.3,132.6,127.4z"/>
					<path class="st21" d="M132.7,128.9c-1.1,0.1-2,1-1.9,2.2c0.1,1.1,1,2,2.2,1.9c1.1-0.1,2-1,1.9-2.2c0-1.1-1-2-2.1-1.9
						C132.7,128.9,132.7,128.9,132.7,128.9z"/>
					<path class="st22" d="M132.2,131c0,0.3,0.3,0.5,0.6,0.5c0.3,0,0.6-0.3,0.5-0.6c0-0.3-0.3-0.6-0.6-0.5
						C132.4,130.4,132.2,130.7,132.2,131C132.2,131,132.2,131,132.2,131z"/>
				</g>
				<g class="st11">
					<path class="st8" d="M161.7,137.8c0.5,9.3,8.5,16.5,17.8,15.9c9.3-0.5,16.5-8.5,15.9-17.8c-0.5-9.3-8.5-16.5-17.8-15.9
						c0,0,0,0-0.1,0C168.3,120.6,161.2,128.5,161.7,137.8z"/>
					<path class="st12" d="M177.7,121.4c-8.5,0.5-15,7.8-14.4,16.3c0.5,8.5,7.8,15,16.3,14.4c8.5-0.5,15-7.8,14.4-16.3
						C193.5,127.4,186.2,120.9,177.7,121.4C177.7,121.4,177.7,121.4,177.7,121.4z"/>
					<path class="st13" d="M177.8,122.9c-7.7,0.5-13.5,7.1-13.1,14.7s7.1,13.5,14.7,13.1c7.7-0.5,13.5-7.1,13.1-14.7
						C192,128.3,185.4,122.5,177.8,122.9C177.8,122.9,177.8,122.9,177.8,122.9z"/>
					<path class="st14" d="M177.8,124.4c-6.9,0.4-12.1,6.3-11.7,13.2c0.4,6.9,6.3,12.1,13.2,11.7s12.1-6.3,11.7-13.2c0,0,0,0,0,0
						C190.6,129.2,184.7,124,177.8,124.4z"/>
					<path class="st15" d="M177.9,125.9c-6.1,0.3-10.7,5.5-10.4,11.6c0.3,6.1,5.5,10.7,11.6,10.4c6.1-0.3,10.7-5.5,10.4-11.6
						c0,0,0-0.1,0-0.1C189.1,130.1,184,125.5,177.9,125.9z"/>
					<path class="st16" d="M178,127.4c-5.2,0.3-9.2,4.8-8.9,10c0.3,5.2,4.8,9.2,10,8.9c5.2-0.3,9.2-4.8,8.9-10c0,0,0,0,0,0
						C187.7,131,183.2,127.1,178,127.4z"/>
					<path class="st17" d="M178.1,128.8c-4.4,0.3-7.8,4-7.5,8.5s4,7.8,8.5,7.5c4.4-0.3,7.8-4,7.5-8.5c0,0,0,0,0,0
						C186.3,131.9,182.5,128.6,178.1,128.8z"/>
					<path class="st18" d="M178.2,130.3c-3.6,0.2-6.3,3.3-6.1,6.9c0.2,3.6,3.3,6.3,6.9,6.1c3.6-0.2,6.3-3.3,6.1-6.9c0,0,0,0,0,0
						C184.9,132.8,181.8,130.1,178.2,130.3C178.2,130.3,178.2,130.3,178.2,130.3z"/>
					<path class="st19" d="M178.3,131.8c-2.8,0.2-4.8,2.6-4.7,5.3c0.2,2.8,2.6,4.8,5.3,4.7c2.7-0.2,4.8-2.5,4.7-5.3
						C183.4,133.8,181.1,131.7,178.3,131.8C178.3,131.8,178.3,131.8,178.3,131.8z"/>
					<path class="st20" d="M178.4,133.3c-2,0.1-3.4,1.8-3.3,3.7s1.8,3.4,3.7,3.3c2-0.1,3.4-1.8,3.3-3.7
						C182,134.7,180.3,133.2,178.4,133.3z"/>
					<path class="st21" d="M178.5,134.8c-1.1,0.1-2,1-1.9,2.2c0.1,1.1,1,2,2.2,1.9c1.1-0.1,2-1,1.9-2.2
						C180.6,135.6,179.6,134.7,178.5,134.8z"/>
					<path class="st22" d="M178,136.9c0,0.3,0.2,0.6,0.5,0.6c0.3,0,0.6-0.2,0.6-0.5c0,0,0-0.1,0-0.1c0-0.3-0.3-0.5-0.6-0.5
						c0,0,0,0,0,0C178.2,136.3,178,136.5,178,136.9C178,136.9,178,136.9,178,136.9z"/>
				</g>
				<path class="st23" d="M179.3,121.1c0,1.6,1.3,2.8,2.9,2.8c1.6,0,2.8-1.3,2.8-2.9c0-1.4-1.1-2.6-2.5-2.7
					C180.8,118.2,179.4,119.5,179.3,121.1z"/>
				<path class="st23" d="M132.2,115.1c0,1.5,1.3,2.8,2.8,2.8c1.5,0,2.8-1.3,2.8-2.8c0-1.4-1.1-2.6-2.4-2.7
					C133.7,112.2,132.3,113.4,132.2,115.1z"/>
				<path class="st10" d="M193.7,111.1c0.4,0,0.8-0.2,1.1-0.5c0.6-0.6,0.7-1.7,0-2.3c0,0,0,0,0,0c-2.8-2.7-9.5-8.3-18.4-1.7
					c-0.8,0.5-1,1.5-0.6,2.3c0.5,0.8,1.5,1,2.3,0.6c4.5-2.8,10.4-2.3,14.3,1.2C192.8,110.9,193.2,111.1,193.7,111.1z"/>
				<path class="st10" d="M125,108c-0.9-0.3-1.3-1.3-1-2.1c0.1-0.4,0.4-0.7,0.8-0.9c3.4-1.8,11.5-5.2,18.1,3.7
					c0.6,0.7,0.5,1.7-0.1,2.3c-0.7,0.6-1.7,0.6-2.4-0.1c-3.5-4-9.2-5.2-14.1-3C125.9,108.1,125.4,108.2,125,108z"/>
				<path class="st9" d="M155.6,142.2c2.3,0.2,4.2-0.2,5.3-1.8c3.4-5-0.6-14.2-1-15.3c-0.2-0.8-0.7-1.3-1.4-1s-0.6,1.2-0.4,2
					c1.1,3.7,1.3,10.2-0.5,12.4c-0.5,0.6-1.2,0.9-1.9,0.8c-0.8,0-1.5,0.6-1.5,1.4C154.1,142.1,155.6,142.2,155.6,142.2z"/>
				<path class="st24" d="M200,211.1c0,0-41,47.6-87.3,1.7c0,0-35,16.9-54,34.8c0,0,22.1,114.9,26.4,177.1c0,0,51.5,12.8,144.4,0
					c0,0,25.8-166.9,24.9-177.1C254.4,247.6,230.5,225.2,200,211.1z"/>
				<path class="st25" d="M105.2,216.3c0,0,3.9,482.8,0.2,532.6c0,0-7.6,18-40.5,0s-32.5-33.5-32.5-33.5l20.9-351.7
					c0,0-2.3-83.6-3.9-118.2C49.3,245.5,66.4,235.8,105.2,216.3z"/>
				<path class="st26" d="M54.8,361.2h-0.1c-0.6-0.1-1-0.6-0.9-1.2l7.9-77.4c0-0.6,0.5-1,1-1c0,0,0.1,0,0.1,0c0.6,0.1,1,0.6,1,1.2
					c0,0,0,0,0,0l-8,77.4C55.8,360.8,55.3,361.2,54.8,361.2z"/>
				<path class="st25" d="M213.4,216.4c0,0-9.9,478.6-6.2,528.2c0,0,0,26,45.7,4.2c28.3-13.4,29.7-33.4,29.7-33.4l-16.4-337.9
					c0,0,43.2,72,192.3,67.1c0,0,10.6-13.4,12.2-48c0,0-135-1.6-182.8-105.2C268.3,249.2,226.3,222.9,213.4,216.4z"/>
				<path class="st26" d="M264,371.2c-0.6,0-1-0.4-1.1-1c0-0.6-4.2-63.7-6.3-78.8c-0.1-0.6,0.2-1.1,0.8-1.3c0.6-0.1,1.1,0.2,1.3,0.8
					c0,0.1,0,0.1,0,0.2c2.1,15.2,6.3,78.4,6.4,79C265.1,370.7,264.6,371.2,264,371.2L264,371.2z"/>
				<path class="st25" d="M48.4,245.3c0,0-25.4,28.5-48.3,85.8c-23.2,58.2-28.8,76.8-15.9,86c22.6,16.2,49.8-28.6,81.2-89.7
					C65.4,327.5,72.6,276.2,48.4,245.3z"/>
				<path class="st27" d="M29,290.2h35.1c1.1,0,1.9,0.9,1.9,2v71.8c0,1.1-0.9,2-1.9,2H29c-1.1,0-2-0.9-2-2v-71.8
					C27.1,291.1,27.9,290.2,29,290.2z"/>
				<path class="st28" d="M52.7,295.1c0,0.9,0.7,2.1,1.5,2.1h6.8c0.8,0,1.5-1.1,1.5-2.1l0,0c0-0.9-0.7-2.1-1.5-2.1h-6.8
					C53.3,293,52.7,294.1,52.7,295.1z"/>
			</g>
		</g>
	</g>
	<path class="st6" d="M144.1,160.1c-0.4-4.1,4.4-7.8,10.5-8.3s11.4,2.3,11.8,6.4"/>
	<g>
		<defs>
			<circle id="SVGID_5_" cx="-218.6" cy="144.7" r="116.6"/>
		</defs>
		<clipPath id="SVGID_6_">
			<use xlink:href="#SVGID_5_"  style="overflow:visible;"/>
		</clipPath>
	</g>
</g>
</svg>
