<svg xmlns="http://www.w3.org/2000/svg" xmlns:xlink="http://www.w3.org/1999/xlink" viewBox="0 0 300 300"><defs><style>.cls-1{fill:none;}.cls-2{fill:#fff;}.cls-3{clip-path:url(#clip-path);}.cls-4{fill:#f9d4b8;}.cls-5{fill:#ebb897;}.cls-6{fill:#23242b;}.cls-7{fill:#ce4a3c;}.cls-8{fill:#ff5c54;}.cls-9{fill:#f9ece2;}.cls-10{fill:#e2cfc3;}.cls-11{fill:#ea997d;}.cls-12{clip-path:url(#clip-path-2);}.cls-13{fill:#fbf9f8;}</style><clipPath id="clip-path"><ellipse class="cls-1" cx="153.25" cy="144.32" rx="116.74" ry="116.9"/></clipPath><clipPath id="clip-path-2"><rect class="cls-1" x="411.29" y="-737.33" width="863.37" height="583.88"/></clipPath></defs><g id="Layer_1" data-name="Layer 1"><circle class="cls-1" cx="153.25" cy="148.67" r="116.62"/><circle class="cls-1" cx="154.28" cy="144.59" r="116.62"/><circle class="cls-1" cx="153.25" cy="147.17" r="116.74"/><path class="cls-2" d="M145.59,180.66c-.55-2,2.7-4.62,7.26-5.88s8.7-.66,9.25,1.33"/><g class="cls-3"><g id="Bryan"><path class="cls-4" d="M130.54,160.44s1.53,36.48,0,42.36-15.9,15.64-30.62,22.55c0,0,18.94,26,55.94,25.21s46.42-16.08,52.29-24.53c0,0-28.23-10.18-28.91-22.2s0-43.39,0-43.39Z"/><path class="cls-5" d="M154.55,195.28c11.71,0,19.85-8.14,24.41-14.46.07-10.66.28-20.38.28-20.38h-48.7s.4,9.7.59,19.89C135.05,186.71,142.54,195.28,154.55,195.28Z"/><path class="cls-4" d="M122.37,125.68s-2-5.93-9.94-5.24c-7.67.68-5.07,20.39,1.68,23.64s9-6.55,9-6.55Z"/><path class="cls-4" d="M189.51,125.68s2-5.93,10-5.24c7.67.68,5.07,20.39-1.68,23.64s-9-6.55-9-6.55Z"/><path class="cls-4" d="M196.05,124.12c-3.38,42.18-15.19,62.44-40.1,62.44s-36.89-16.73-40.11-62.44C113.46,90.37,131.13,69.49,156,69.49S198.86,89.08,196.05,124.12Z"/><path class="cls-6" d="M135.16,130.92a2.53,2.53,0,1,1-2.51-2.9A2.72,2.72,0,0,1,135.16,130.92Z"/><path class="cls-6" d="M180.81,130.92a2.53,2.53,0,1,1-2.51-2.9A2.72,2.72,0,0,1,180.81,130.92Z"/><path class="cls-7" d="M124,121.74a1.5,1.5,0,0,1-1.11-2.5c2.34-2.6,8.09-8.07,16.42-2.58a1.55,1.55,0,0,1,.65,2,1.5,1.5,0,0,1-2,.66,10.77,10.77,0,0,0-12.83,1.91A1.51,1.51,0,0,1,124,121.74Z"/><path class="cls-7" d="M188.76,121.74a1.47,1.47,0,0,0,1-.39,1.48,1.48,0,0,0,.11-2.11c-2.33-2.6-8.09-8.07-16.41-2.58a1.57,1.57,0,0,0-.66,2,1.51,1.51,0,0,0,2,.66,10.77,10.77,0,0,1,12.83,1.91A1.48,1.48,0,0,0,188.76,121.74Z"/><path class="cls-5" d="M155.34,155.26c-2.11-.06-3.78-.63-4.56-2.19-2.44-4.85,2.19-12.67,2.63-13.63.3-.67.74-1.06,1.41-.76s.41,1.18.11,1.85c-1.42,3.15-2.3,9-1,11.2a1.84,1.84,0,0,0,1.62.9,1.34,1.34,0,0,1,1.21,1.43A1.28,1.28,0,0,1,155.34,155.26Z"/><path class="cls-7" d="M113.67,120.3l1.31,6.31,3.13,1.28s2.08-10.65,3-18c1.64-12.55,2.49-22.63,33.71-22.26,32.47.38,32.2,10.83,34.85,23.15a97.16,97.16,0,0,1,1.77,18.91l3.35-1.34,3.06-6.17s.08-10.5.44-20.38c0,0,2.48-22.48-8.5-25.15,0,0-10.76-20.07-31.28-20.53-30.3-.68-29.73,8.52-30.49,10.11,0,0-10.23,1.83-13.38,6.13s-.49,9.46-4.19,19.56A34.88,34.88,0,0,0,112.4,98C113.37,100,112.24,112.38,113.67,120.3Z"/><path class="cls-8" d="M113.11,91.88A.43.43,0,0,1,113,91c9.34-3.49,15.27-2.53,18-1.64l.1,0a.43.43,0,1,1-.26.83l-.11,0c-2.59-.85-8.31-1.77-17.4,1.63A.29.29,0,0,1,113.11,91.88Z"/><path class="cls-8" d="M143.56,86.63a.44.44,0,0,1-.4-.29c-.07-.17-6.53-17-24.76-14a.44.44,0,0,1-.14-.86c19-3.11,25.65,14.39,25.71,14.57a.44.44,0,0,1-.25.56Z"/><path class="cls-8" d="M148.14,84.64h0c-.24,0-.43.16-.41-.08,0-.07.4-7.21-4.25-12.41-2.87-3.2-7.06-4.85-12.45-5.1a.39.39,0,0,1-.42-.4.42.42,0,0,1,.45-.4c5.64.26,10,2.12,13.07,5.51a18.94,18.94,0,0,1,4.47,12.85C148.56,84.85,148.37,84.64,148.14,84.64Z"/><path class="cls-8" d="M185.85,95a.41.41,0,0,1-.39-.27.43.43,0,0,1,.23-.57c.27-.11,6.69-3,4.84-13.94a.45.45,0,0,1,.36-.51.44.44,0,0,1,.5.36c2,11.69-5.29,14.87-5.37,14.9A.47.47,0,0,1,185.85,95Z"/><path class="cls-8" d="M167.5,86.73c-.23,0-.43,0-.42-.24s0-22.29-19.37-26.73a.4.4,0,0,1-.33-.48.43.43,0,0,1,.53-.3c20.06,4.6,20,27.28,20,27.51s-.18-.63-.44.24Z"/><path class="cls-8" d="M170.13,85.89a.61.61,0,0,1-.18,0,.42.42,0,0,1-.2-.58c.06-.13,6-12.88.5-22.72a.45.45,0,0,1,.17-.6.43.43,0,0,1,.59.17c5.72,10.24-.41,23.39-.48,23.53A.43.43,0,0,1,170.13,85.89Z"/><path class="cls-9" d="M72.24,230s-25.08,10.72-34.13,91.29a401.72,401.72,0,0,0,53.35,3.33S93.22,256.06,72.24,230Z"/><path class="cls-9" d="M235.94,230.88s22.5,5.51,32.45,83.86c0,0-13.08,10.22-49.27,10.22l.27-27.57C218.73,271.82,223.71,244.87,235.94,230.88Z"/><path class="cls-9" d="M114.53,214.91s13.9,17.73,36.72,18.9c17.67.9,32.9-7.92,40.7-17.88,0,0,23.4,6.93,44,14.95,0,0-8.87,50.28-10.58,59.64-2.9,15.88,4.08,66.2,7,89.17,2.51,19.47,10.56,79.25,14.24,104.25L72.22,481.26s9.4-81.32,10.51-99.07c.82-12.91,6.49-69.8,3-90.63-1.68-10.24-10.11-52.18-13.54-61.63Z"/><path class="cls-10" d="M231,252.79c-2.54,14.77-5.59,32.43-6.53,37.58-1.2,6.61-1.84,12.09-2.38,17.93a8.42,8.42,0,0,1,1.65.81c.55-6.05,1.18-11.65,2.42-18.43,1-5.19,4-23.05,6.58-37.88Z"/><path class="cls-10" d="M78.35,250.58c-.56.1-1.12.2-1.68.32,3.44,15.37,7.14,34.21,8.27,41.08.91,5.55,1.63,10.2,2.21,14.48a7.88,7.88,0,0,1,1.65-.58c-.57-4.2-1.28-8.76-2.17-14.18C85.5,284.83,81.8,266,78.35,250.58Z"/><path class="cls-4" d="M54.69,269.12a323,323,0,0,0-9.78,45.49c-4.5,32.44-4.08,58.51,23,55.14,24.33-3,19.73-55,8.49-101Z"/><path class="cls-11" d="M52.8,265.83S55.64,278,63.3,278.39s11.7-2.92,15.1-8.91C78.4,269.48,68.56,262.46,52.8,265.83Z"/><path class="cls-11" d="M81.43,239.14a.59.59,0,0,0,.31-.09.57.57,0,0,0,.15-.78c-.19-.29-.33-.5-16.45-1.63a.58.58,0,0,0-.6.51.56.56,0,0,0,.52.6c5.67.4,14.88,1.1,15.82,1.33A.54.54,0,0,0,81.43,239.14Z"/><path class="cls-11" d="M82,250.37a.56.56,0,0,0,.55-.51.55.55,0,0,0-.5-.6l-18.69-1.67a.55.55,0,0,0-.6.5.56.56,0,0,0,.5.61l18.69,1.67Z"/><path class="cls-11" d="M81.43,261.15c.3,0,.54-.15.55-.44a.52.52,0,0,0-.52-.55l-18.81-1a.56.56,0,0,0-.59.54.5.5,0,0,0,.53.51l18.81.94Z"/></g></g><path class="cls-2" d="M165.49,164.86c0,4.09-5,7.4-11.21,7.4s-11.2-3.31-11.2-7.4"/><g class="cls-12"><rect class="cls-1" x="154.44" y="-859.54" width="1302.67" height="886.87"/><path class="cls-13" d="M315.48-168.39c-4-6.85-12-15-27.72-15h-7.82a1.05,1.05,0,0,0-1.06,1.06,1.05,1.05,0,0,0,1.06,1.06h7.82c11.81,0,20.52,4.69,25.88,13.94a36.53,36.53,0,0,1,4.56,14V1.33h2.13v-154.8a38.09,38.09,0,0,0-4.85-14.92Z"/><path class="cls-13" d="M218.25-168.39c-4-6.85-12-15-27.72-15h-7.82a1.05,1.05,0,0,0-1.06,1.06,1.05,1.05,0,0,0,1.06,1.06h7.82c11.81,0,20.52,4.69,25.88,13.94a36.53,36.53,0,0,1,4.56,14V1.33h2.13v-154.8a38.29,38.29,0,0,0-4.85-14.92Z"/><path class="cls-2" d="M222.72-154H221a1,1,0,0,0-1,1V1.33h3.74V-153a1,1,0,0,0-1-1Z"/><rect class="cls-1" x="166.02" y="-858.64" width="1283.17" height="867.86"/><rect class="cls-1" x="166.02" y="-858.64" width="1283.17" height="867.86"/></g></g></svg>