<?xml version="1.0" encoding="utf-8"?>
<!-- Generator: Adobe Illustrator 25.2.1, SVG Export Plug-In . SVG Version: 6.00 Build 0)  -->
<svg version="1.1" id="Layer_1" xmlns="http://www.w3.org/2000/svg" xmlns:xlink="http://www.w3.org/1999/xlink" x="0px" y="0px"
	 viewBox="0 0 300 300" style="enable-background:new 0 0 300 300;" xml:space="preserve">
<style type="text/css">
	.st0{fill:none;}
	.st1{fill:#FFFFFF;}
	.st2{clip-path:url(#SVGID_2_);}
	.st3{fill:#F9D4B8;}
	.st4{fill:#EBB897;}
	.st5{fill:#23242B;}
	.st6{fill:#CE4A3C;}
	.st7{fill:#FF5C54;}
	.st8{fill:#F9ECE2;}
	.st9{fill:#E2CFC3;}
	.st10{fill:#EA997D;}
</style>
<g id="Layer_1_1_">
	<circle class="st0" cx="153.2" cy="148.7" r="116.6"/>
	<circle class="st0" cx="154.3" cy="144.6" r="116.6"/>
	<circle class="st0" cx="153.2" cy="147.2" r="116.7"/>
	<path class="st1" d="M145.6,180.7c-0.6-2,2.7-4.6,7.3-5.9s8.7-0.7,9.2,1.3"/>
	<g>
		<defs>
			<ellipse id="SVGID_1_" cx="153.2" cy="144.3" rx="116.7" ry="116.9"/>
		</defs>
		<clipPath id="SVGID_2_">
			<use xlink:href="#SVGID_1_"  style="overflow:visible;"/>
		</clipPath>
		<g class="st2">
			<g id="Bryan">
				<path class="st3" d="M130.5,160.4c0,0,1.5,36.5,0,42.4s-15.9,15.6-30.6,22.6c0,0,18.9,26,55.9,25.2s46.4-16.1,52.3-24.5
					c0,0-28.2-10.2-28.9-22.2s0-43.4,0-43.4H130.5z"/>
				<path class="st4" d="M154.6,195.3c11.7,0,19.9-8.1,24.4-14.5c0.1-10.7,0.3-20.4,0.3-20.4h-48.7c0,0,0.4,9.7,0.6,19.9
					C135.1,186.7,142.5,195.3,154.6,195.3z"/>
				<path class="st3" d="M122.4,125.7c0,0-2-5.9-9.9-5.2c-7.7,0.7-5.1,20.4,1.7,23.6s9-6.6,9-6.6L122.4,125.7z"/>
				<path class="st3" d="M189.5,125.7c0,0,2-5.9,10-5.2c7.7,0.7,5.1,20.4-1.7,23.6s-9-6.6-9-6.6L189.5,125.7z"/>
				<path class="st3" d="M196.1,124.1c-3.4,42.2-15.2,62.4-40.1,62.4s-36.9-16.7-40.1-62.4c-2.4-33.7,15.3-54.6,40.2-54.6
					S198.9,89.1,196.1,124.1z"/>
				<path class="st5" d="M135.2,130.9c-0.2,1.4-1.5,2.3-2.9,2.1s-2.3-1.5-2.1-2.9c0.2-1.2,1.2-2.2,2.5-2.2
					C134.1,128.1,135.3,129.4,135.2,130.9z"/>
				<path class="st5" d="M180.8,130.9c-0.2,1.4-1.5,2.3-2.9,2.1s-2.3-1.5-2.1-2.9c0.2-1.2,1.2-2.2,2.5-2.2
					C179.8,128.1,180.9,129.4,180.8,130.9z"/>
				<path class="st6" d="M124,126.7c-0.8,0-1.5-0.7-1.5-1.5c0-0.4,0.1-0.7,0.4-1c2.3-2.6,8.1-8.1,16.4-2.6c0.7,0.4,1,1.3,0.6,2
					c-0.4,0.7-1.3,1-2,0.7c-4.2-2.3-9.5-1.5-12.8,1.9C124.8,126.6,124.4,126.7,124,126.7z"/>
				<path class="st6" d="M188.8,121.7c0.4,0,0.7-0.1,1-0.4c0.6-0.5,0.7-1.5,0.1-2.1c0,0,0,0,0,0c-2.3-2.6-8.1-8.1-16.4-2.6
					c-0.7,0.4-1,1.3-0.7,2c0.4,0.7,1.3,1,2,0.7c4.2-2.3,9.5-1.5,12.8,1.9C187.9,121.6,188.3,121.7,188.8,121.7z"/>
				<path class="st4" d="M155.3,155.3c-2.1-0.1-3.8-0.6-4.6-2.2c-2.4-4.9,2.2-12.7,2.6-13.6c0.3-0.7,0.7-1.1,1.4-0.8
					s0.4,1.2,0.1,1.9c-1.4,3.1-2.3,9-1,11.2c0.3,0.6,1,0.9,1.6,0.9c0.7,0.1,1.3,0.7,1.2,1.4C156.7,154.8,156.1,155.3,155.3,155.3
					C155.4,155.3,155.4,155.3,155.3,155.3z"/>
				<path class="st6" d="M113.7,120.3l1.3,6.3l3.1,1.3c0,0,2.1-10.7,3-18c1.6-12.6,2.5-22.6,33.7-22.3c32.5,0.4,32.2,10.8,34.8,23.2
					c1.2,6.2,1.8,12.6,1.8,18.9l3.4-1.3l3.1-6.2c0,0,0.1-10.5,0.4-20.4c0,0,2.5-22.5-8.5-25.2c0,0-10.8-20.1-31.3-20.5
					c-30.3-0.7-29.7,8.5-30.5,10.1c0,0-10.2,1.8-13.4,6.1s-0.5,9.5-4.2,19.6c0.5,2.1,1.1,4.1,2,6.1
					C113.4,100,112.2,112.4,113.7,120.3z"/>
				<path class="st7" d="M113.1,91.9c-0.2,0-0.5-0.1-0.5-0.4c0-0.2,0.1-0.5,0.4-0.5c9.3-3.5,15.3-2.5,18-1.6h0.1
					c0.2,0.1,0.4,0.3,0.3,0.5s-0.3,0.4-0.5,0.3h-0.1c-2.6-0.8-8.3-1.8-17.4,1.6C113.3,91.9,113.2,91.9,113.1,91.9z"/>
				<path class="st7" d="M143.6,86.6c-0.2,0-0.3-0.1-0.4-0.3c-0.1-0.2-6.5-17-24.8-14c-0.2,0-0.4-0.2-0.4-0.4c0-0.2,0.1-0.4,0.3-0.4
					c19-3.1,25.7,14.4,25.7,14.6c0.1,0.2,0,0.5-0.2,0.6L143.6,86.6z"/>
				<path class="st7" d="M148.1,84.6L148.1,84.6c-0.2,0-0.4,0.2-0.4-0.1c0-0.1,0.4-7.2-4.2-12.4c-2.9-3.2-7.1-4.8-12.4-5.1
					c-0.2,0-0.4-0.1-0.4-0.4c0,0,0,0,0,0c0-0.2,0.2-0.4,0.4-0.4c0,0,0,0,0,0c5.6,0.3,10,2.1,13.1,5.5c3,3.6,4.6,8.2,4.5,12.8
					C148.6,84.8,148.4,84.6,148.1,84.6z"/>
				<path class="st7" d="M185.9,95c-0.2,0-0.3-0.1-0.4-0.3c-0.1-0.2,0-0.5,0.2-0.6c0,0,0,0,0,0c0.3-0.1,6.7-3,4.8-13.9
					c0-0.2,0.1-0.5,0.4-0.5c0.2,0,0.5,0.1,0.5,0.4c2,11.7-5.3,14.9-5.4,14.9C186,95,185.9,95,185.9,95z"/>
				<path class="st7" d="M167.5,86.7c-0.2,0-0.4,0-0.4-0.2s0-22.3-19.4-26.7c-0.2,0-0.4-0.2-0.3-0.5c0,0,0,0,0,0
					c0.1-0.2,0.3-0.4,0.5-0.3c0,0,0,0,0,0c20.1,4.6,20,27.3,20,27.5S167.7,85.9,167.5,86.7L167.5,86.7z"/>
				<path class="st7" d="M170.1,85.9c-0.1,0-0.1,0-0.2,0c-0.2-0.1-0.3-0.3-0.2-0.6c0,0,0,0,0,0c0.1-0.1,6-12.9,0.5-22.7
					c-0.1-0.2,0-0.5,0.2-0.6c0.2-0.1,0.5,0,0.6,0.2c0,0,0,0,0,0c5.7,10.2-0.4,23.4-0.5,23.5C170.4,85.8,170.3,85.9,170.1,85.9z"/>
				<path class="st8" d="M72.2,230c0,0-25.1,10.7-34.1,91.3c17.7,2.3,35.5,3.4,53.3,3.3C91.5,324.6,93.2,256.1,72.2,230z"/>
				<path class="st8" d="M235.9,230.9c0,0,22.5,5.5,32.5,83.9c0,0-13.1,10.2-49.3,10.2l0.3-27.6
					C218.7,271.8,223.7,244.9,235.9,230.9z"/>
				<path class="st8" d="M114.5,214.9c0,0,13.9,17.7,36.7,18.9c17.7,0.9,32.9-7.9,40.7-17.9c0,0,23.4,6.9,44,14.9
					c0,0-8.9,50.3-10.6,59.6c-2.9,15.9,4.1,66.2,7,89.2c2.5,19.5,10.6,79.2,14.2,104.2l-174.4-2.7c0,0,9.4-81.3,10.5-99.1
					c0.8-12.9,6.5-69.8,3-90.6c-1.7-10.2-10.1-52.2-13.5-61.6L114.5,214.9z"/>
				<path class="st9" d="M231,252.8c-2.5,14.8-5.6,32.4-6.5,37.6c-1.2,6.6-1.8,12.1-2.4,17.9c0.6,0.2,1.1,0.5,1.6,0.8
					c0.6-6,1.2-11.6,2.4-18.4c1-5.2,4-23,6.6-37.9L231,252.8z"/>
				<path class="st9" d="M78.3,250.6c-0.6,0.1-1.1,0.2-1.7,0.3c3.4,15.4,7.1,34.2,8.3,41.1c0.9,5.5,1.6,10.2,2.2,14.5
					c0.5-0.3,1.1-0.4,1.7-0.6c-0.6-4.2-1.3-8.8-2.2-14.2C85.5,284.8,81.8,266,78.3,250.6z"/>
				<path class="st3" d="M54.7,269.1c-4.3,14.9-7.6,30.1-9.8,45.5c-4.5,32.4-4.1,58.5,23,55.1c24.3-3,19.7-55,8.5-101L54.7,269.1z"
					/>
				<path class="st10" d="M52.8,265.8c0,0,2.8,12.2,10.5,12.6s11.7-2.9,15.1-8.9C78.4,269.5,68.6,262.5,52.8,265.8z"/>
				<path class="st10" d="M81.4,239.1c0.1,0,0.2,0,0.3-0.1c0.3-0.2,0.3-0.5,0.2-0.8c-0.2-0.3-0.3-0.5-16.4-1.6
					c-0.3,0-0.6,0.2-0.6,0.5c0,0.3,0.2,0.6,0.5,0.6c0,0,0,0,0,0c5.7,0.4,14.9,1.1,15.8,1.3C81.3,239.1,81.3,239.1,81.4,239.1z"/>
				<path class="st10" d="M82,250.4c0.3,0,0.5-0.2,0.6-0.5c0-0.3-0.2-0.6-0.5-0.6c0,0,0,0,0,0l-18.7-1.7c-0.3,0-0.6,0.2-0.6,0.5
					c0,0,0,0,0,0c0,0.3,0.2,0.6,0.5,0.6L82,250.4L82,250.4z"/>
				<path class="st10" d="M81.4,261.1c0.3,0,0.5-0.1,0.6-0.4c0-0.3-0.2-0.5-0.5-0.5c0,0,0,0,0,0l-18.8-1c-0.3,0-0.6,0.2-0.6,0.5
					c0,0,0,0,0,0c0,0.3,0.2,0.5,0.5,0.5c0,0,0,0,0,0L81.4,261.1L81.4,261.1z"/>
			</g>
		</g>
	</g>
	<path class="st1" d="M144.1,174.4c-0.8-4,3.4-8.2,9.5-9.5s11.6,1,12.5,5"/>
</g>
</svg>
