<?xml version="1.0" encoding="utf-8"?>
<!-- Generator: Adobe Illustrator 25.2.1, SVG Export Plug-In . SVG Version: 6.00 Build 0)  -->
<svg version="1.1" id="Layer_1" xmlns="http://www.w3.org/2000/svg" xmlns:xlink="http://www.w3.org/1999/xlink" x="0px" y="0px"
	 viewBox="0 0 83.2 87.2" style="enable-background:new 0 0 83.2 87.2;" xml:space="preserve">
<style type="text/css">
	.st0{fill:url(#SVGID_1_);}
	.st1{fill:url(#SVGID_2_);}
	.st2{fill:#C1C1C1;}
	.st3{fill:url(#SVGID_3_);}
	.st4{fill:url(#SVGID_4_);}
	.st5{fill:url(#SVGID_5_);}
	.st6{opacity:0.68;}
	.st7{fill:url(#SVGID_6_);}
	.st8{clip-path:url(#SVGID_8_);}
	.st9{opacity:0.14;fill:#CFCFCF;enable-background:new    ;}
	.st10{fill:#595959;}
	.st11{fill:#B1B1B1;}
	.st12{opacity:0.46;}
	.st13{fill:url(#SVGID_9_);}
	.st14{fill:url(#SVGID_10_);}
	.st15{fill:url(#SVGID_11_);}
	.st16{fill:url(#SVGID_12_);}
	.st17{fill:#DADADA;}
	.st18{fill:url(#SVGID_13_);}
	.st19{fill:#333333;}
	.st20{fill:url(#SVGID_14_);}
	.st21{fill:#E9E9E9;}
	.st22{fill:url(#SVGID_15_);}
	.st23{fill:url(#SVGID_16_);}
	.st24{fill:url(#SVGID_17_);}
	.st25{fill:url(#SVGID_18_);}
	.st26{fill:url(#SVGID_19_);}
	.st27{fill:url(#SVGID_20_);}
	.st28{fill:url(#SVGID_21_);}
	.st29{fill:url(#SVGID_22_);}
</style>
<g>
	<g id="Layer_1_1_">
		
			<image style="overflow:visible;opacity:0;enable-background:new    ;" width="411" height="323" xlink:href="D474776E.png"  transform="matrix(0.24 0 0 0.24 -0.71 11.81)">
		</image>
		
			<linearGradient id="SVGID_1_" gradientUnits="userSpaceOnUse" x1="-700.6213" y1="717.6254" x2="-700.6213" y2="682.2554" gradientTransform="matrix(-0.97 -0.23 -0.23 0.97 -479.4854 -787.4832)">
			<stop  offset="0" style="stop-color:#8D8D8D"/>
			<stop  offset="0.29" style="stop-color:#8A8A8A"/>
			<stop  offset="0.51" style="stop-color:#808080"/>
			<stop  offset="0.72" style="stop-color:#707070"/>
			<stop  offset="0.91" style="stop-color:#595959"/>
			<stop  offset="1" style="stop-color:#4A4A4A"/>
		</linearGradient>
		<path class="st0" d="M40.9,37.6c16.6-0.2,29.5,2.5,29.5,6c0,1.1-0.6,2.1-2.7,3l-4.2,18.2c-0.1,0.6-0.7,0.9-1.3,0.8
			c-0.2-0.1-0.5-0.2-0.6-0.4l-11.8-15c-2.8,0.2-5.7,0.4-8.7,0.4c-3.4,0.1-6.7,0-9.8-0.2l-11,14.9c-0.3,0.4-0.8,0.5-1.1,0.2
			c-0.2-0.1-0.3-0.3-0.3-0.5l-4.6-17.6c-2.1-0.8-2.4-1.9-2.4-3C11.8,40.8,24.4,37.8,40.9,37.6z"/>
		
			<linearGradient id="SVGID_2_" gradientUnits="userSpaceOnUse" x1="-736.1741" y1="690.3947" x2="-670.1141" y2="690.3947" gradientTransform="matrix(-0.97 -0.23 -0.23 0.97 -479.4854 -787.4832)">
			<stop  offset="0" style="stop-color:#9A9A9A"/>
			<stop  offset="1" style="stop-color:#434343"/>
		</linearGradient>
		<path class="st1" d="M40.8,22.1c15.7-0.2,26.1,4.4,27.5,6.1l5.8,32c-2.2-4.4-4.7-8.6-7.7-12.5c-5.2-7-9.3-9.4-9.3-9.4L41.3,62.8
			L25.1,38.8c0,0-5.8,2.6-10.4,9.9S9.2,59.1,9.2,59.1l4.2-29.9C14.4,27.5,25.1,22.3,40.8,22.1z"/>
		<path class="st2" d="M15.4,53c2.3-3.7,5.2-7.1,8.6-9.8c0.5-0.4,1.2-0.3,1.5,0.2c0,0,0,0.1,0.1,0.1l14.9,23.4
			c0.3,0.5,1,0.7,1.5,0.4c0.1-0.1,0.3-0.2,0.4-0.4l14-23.5c0.3-0.5,1-0.7,1.5-0.4c0.1,0.1,0.2,0.1,0.3,0.2c1.4,1.6,4.2,4.9,8.4,10.1
			c2.3,2.8,4.4,5.7,6.3,8.7c0.5,0.8,0.9,1.5,1.4,2.3s0.7,1.7,1.4,2.1c0.4-0.8,0-2.1-0.2-2.9c0-0.1-0.1-0.2-0.1-0.3l-1.4-3
			c-2-4.3-4.5-8.4-7.4-12.2c-2.7-3.5-5.6-6.9-8.7-10.1c-0.4-0.4-1.1-0.5-1.5,0c-0.1,0.1-0.1,0.2-0.2,0.2L42.3,61.3
			c-0.3,0.5-1,0.7-1.5,0.4c-0.1-0.1-0.3-0.2-0.4-0.4l-14.7-23c-0.3-0.5-1-0.7-1.5-0.4c0,0-0.1,0.1-0.1,0.1
			c-3.7,3.1-6.8,6.7-9.4,10.7C10,56,7.6,61.1,7.5,64c0,0.8-0.3,2,0.1,2.8c0.8-0.6,1-1.9,1.5-2.8c0.6-1.3,1.3-2.5,2-3.7
			C12.4,57.8,13.9,55.4,15.4,53z"/>
		
			<linearGradient id="SVGID_3_" gradientUnits="userSpaceOnUse" x1="-263.6349" y1="771.3705" x2="-206.6757" y2="771.3705" gradientTransform="matrix(-1 1.000000e-02 1.000000e-02 1 -201.6789 -743.9598)">
			<stop  offset="0" style="stop-color:#C1C1C1"/>
			<stop  offset="0.22" style="stop-color:#A6A6A6"/>
			<stop  offset="0.43" style="stop-color:#A7A7A7"/>
			<stop  offset="0.47" style="stop-color:#ACACAC"/>
			<stop  offset="0.57" style="stop-color:#B3B3B3"/>
			<stop  offset="0.69" style="stop-color:#A5A5A5"/>
			<stop  offset="0.78" style="stop-color:#A8A8A8"/>
			<stop  offset="0.86" style="stop-color:#B2B2B2"/>
			<stop  offset="0.92" style="stop-color:#C1C1C1"/>
		</linearGradient>
		<path class="st3" d="M69.4,29.1L69,26.7c-0.6-4.2-12.7-7.1-28.3-6.9s-27.4,3.5-28.1,7.7l-0.2,2l0.6,0.8l0.1-1
			c1.3-1.8,12-7.4,27.6-7.7s26.1,4.8,27.4,6.5l0.3,1.8L69.4,29.1z"/>
		
			<linearGradient id="SVGID_4_" gradientUnits="userSpaceOnUse" x1="-264.0124" y1="771.7739" x2="-206.5125" y2="772.6139" gradientTransform="matrix(-1 1.000000e-02 1.000000e-02 1 -201.6789 -743.9598)">
			<stop  offset="1.000000e-02" style="stop-color:#EDEDED"/>
			<stop  offset="9.000000e-02" style="stop-color:#EDEDED"/>
			<stop  offset="0.54" style="stop-color:#EDEDED"/>
			<stop  offset="1" style="stop-color:#EDEDED"/>
		</linearGradient>
		<path class="st4" d="M40.7,21.1c-15.3,0.2-27,4.4-28.3,8.4l0.6,0.8l0.1-1c1.3-1.8,11.9-7,27.6-7.2s26.1,4.4,27.5,6.1l0.3,1.8
			l0.8-0.8C68.8,24.9,56.5,20.9,40.7,21.1z"/>
		<g>
			
				<linearGradient id="SVGID_5_" gradientUnits="userSpaceOnUse" x1="41.1607" y1="55.1798" x2="41.2007" y2="61.3898" gradientTransform="matrix(1 0 0 -1 0 87.8898)">
				<stop  offset="0" style="stop-color:#282828"/>
				<stop  offset="0.22" style="stop-color:#2B2B2B"/>
				<stop  offset="1" style="stop-color:#313131"/>
			</linearGradient>
			<path class="st5" d="M35.1,34.5c0-3.3,2.7-6.1,6-6.1c3.3,0,6.1,2.7,6.1,6c0,3.3-2.6,6.1-6,6.1C37.9,40.5,35.1,37.9,35.1,34.5
				C35.1,34.5,35.1,34.5,35.1,34.5z"/>
		</g>
		<g class="st6">
			
				<radialGradient id="SVGID_6_" cx="-235.3049" cy="779.1919" r="6.06" gradientTransform="matrix(-1 1.000000e-02 1.000000e-02 1 -201.6789 -743.9598)" gradientUnits="userSpaceOnUse">
				<stop  offset="0" style="stop-color:#C4C4C4"/>
				<stop  offset="0.56" style="stop-color:#C2C2C2"/>
				<stop  offset="0.76" style="stop-color:#BBBBBB"/>
				<stop  offset="0.9" style="stop-color:#B0B0B0"/>
				<stop  offset="1" style="stop-color:#A2A2A2"/>
			</radialGradient>
			<path class="st7" d="M35.1,34.2c0-3.3,2.7-6.1,6-6.1c3.3,0,6.1,2.7,6.1,6c0,3.3-2.6,6.1-6,6.1C37.9,40.3,35.1,37.6,35.1,34.2
				C35.1,34.2,35.1,34.2,35.1,34.2z"/>
			<g>
				<defs>
					<path id="SVGID_7_" d="M35.1,34.2c0-3.3,2.7-6.1,6-6.1c3.3,0,6.1,2.7,6.1,6c0,3.3-2.6,6.1-6,6.1C37.9,40.3,35.1,37.6,35.1,34.2
						C35.1,34.2,35.1,34.2,35.1,34.2z"/>
				</defs>
				<clipPath id="SVGID_8_">
					<use xlink:href="#SVGID_7_"  style="overflow:visible;"/>
				</clipPath>
				<g class="st8">
					
						<image style="overflow:visible;enable-background:new    ;" width="54" height="55" xlink:href="D4747772.png"  transform="matrix(0.24 0 0 0.24 34.69 27.53)">
					</image>
					
						<image style="overflow:visible;enable-background:new    ;" width="54" height="55" xlink:href="D4747775.png"  transform="matrix(0.24 0 0 0.24 34.69 27.53)">
					</image>
				</g>
			</g>
		</g>
		<path class="st9" d="M41.2,40.2c3.3,0,6-2.8,6-6.1c0-3.3-2.8-6-6.1-6c-3.3,0-6,2.8-6,6.1C35.1,37.5,37.9,40.2,41.2,40.2
			C41.2,40.2,41.2,40.2,41.2,40.2z M35.5,33c0-0.2,0-0.2,0-0.5s0.1-0.2,0.3-0.4s0.1-0.6,0.5-0.8s0.2-0.4,0.3-0.6s0.3-0.3,0.7-0.6
			s0.3-0.1,0.6-0.3s0.8-0.6,0.9-0.7c0.3-0.2,0.6-0.4,0.9-0.4c0.2,0,0.4,0,0.6,0c0.2,0,0.3,0,0.5,0h1.5l0.8,0.2
			c0.2,0,0.6,0.3,0.8,0.4s0.8,0.4,1,0.5c0.2,0.2,0.4,0.4,0.5,0.6c0.1,0.2,0.3,0.5,0.5,0.7c0.2,0.3,0.4,0.4,0.6,0.7
			c0.1,0.2,0.1,0.5,0.1,0.7l0.4,0.6c0.1,0.2-0.1,0.6-0.1,0.6v1.1c0,0.2-0.1,0.5-0.1,0.7c0,0.2-0.1,0.4-0.2,0.6
			c-0.1,0.3-0.4,0.4-0.6,0.6s-0.3,0.7-0.5,1s-0.4,0.4-0.6,0.7s-0.4,0.3-0.7,0.5c-0.3,0.1-0.5,0.3-0.8,0.5c-0.2,0.1-0.4,0.2-0.7,0.3
			c-0.2,0-0.4,0-0.7,0c-0.2,0-0.5,0.1-0.7,0.2c-0.2,0-0.4,0.1-0.6,0.1c-0.3,0-0.6-0.1-0.8-0.2c-0.2-0.1-0.5-0.2-0.7-0.3
			c-0.2-0.1-0.3-0.1-0.5-0.2c-0.3-0.1-0.3,0-0.5-0.2c-0.1-0.1-0.3-0.2-0.4-0.4c0,0-0.3-0.4-0.3-0.5s-0.3-0.3-0.5-0.4
			c-0.2-0.1-0.3-0.2-0.5-0.4c-0.1-0.2-0.2-0.4-0.2-0.7c-0.1-0.3-0.1-0.2-0.2-0.5s-0.1-0.1-0.2-0.3c-0.1-0.1-0.2-0.2-0.2-0.4
			c0-0.2,0-0.2,0-0.5s-0.1-0.4-0.1-0.6c0-0.2-0.1-0.4-0.1-0.5c0-0.3,0-0.2,0.1-0.5C35.6,33.4,35.6,33.2,35.5,33z"/>
		<path class="st10" d="M41.2,40.2c3.3,0,6-2.8,6-6.1c0-3.3-2.8-6-6.1-6c-3.3,0-6,2.8-6,6.1C35.1,37.5,37.9,40.2,41.2,40.2
			C41.2,40.2,41.2,40.2,41.2,40.2z M41.1,28.2c3.3,0,6,2.6,6,5.9c0,2-1,4-2.7,5.1c-0.4,0.3-0.9,0.4-1.3,0.7
			c-0.6,0.2-1.2,0.4-1.8,0.3c-0.7,0-1.4-0.1-2.1-0.3c-0.4-0.1-0.8-0.3-1.2-0.6c-0.2-0.2-0.5-0.3-0.7-0.6c-1.3-1.1-2-2.7-2.1-4.4
			C35.2,30.9,37.8,28.3,41.1,28.2L41.1,28.2z"/>
		<path class="st11" d="M41,26.6c4.3-0.1,7.8,3.3,7.9,7.6s-3.3,7.8-7.6,7.9c-4.3,0.1-7.8-3.3-7.9-7.6c0,0,0,0,0,0
			C33.3,30.2,36.7,26.7,41,26.6z M41.2,40.5c3.4-0.1,6.1-2.8,6-6.2c-0.1-3.4-2.8-6.1-6.2-6c-3.4,0.1-6.1,2.8-6,6.2c0,0,0,0,0,0
			C35.1,37.9,37.9,40.6,41.2,40.5L41.2,40.5z"/>
		<g class="st12">
			<g>
				
					<linearGradient id="SVGID_9_" gradientUnits="userSpaceOnUse" x1="33.87" y1="53.3398" x2="41.41" y2="53.3398" gradientTransform="matrix(1 0 0 -1 0 87.8898)">
					<stop  offset="0" style="stop-color:#000000"/>
					<stop  offset="0.12" style="stop-color:#080808"/>
					<stop  offset="0.31" style="stop-color:#1F1F1F"/>
					<stop  offset="0.55" style="stop-color:#454545"/>
					<stop  offset="0.82" style="stop-color:#797979"/>
					<stop  offset="1" style="stop-color:#9F9F9F"/>
				</linearGradient>
				<path class="st13" d="M41.4,41.8h-0.8h-0.2h-0.1h-0.1h-0.3l-0.3-0.1h-0.2h-0.2c-0.5-0.2-1-0.4-1.4-0.7c-0.5-0.3-1-0.6-1.5-1l0,0
					l0,0l-0.1-0.1l-0.1-0.1l0,0l0,0l-0.2-0.2l0,0l0,0L36,39.6c-0.1-0.1-0.2-0.2-0.3-0.4L35.5,39l-0.1-0.1l-0.1-0.1
					c-0.4-0.6-0.7-1.2-0.9-1.9l-0.1-0.2c0-0.1,0-0.2-0.1-0.3L34,36v-0.1v-0.1c0,0,0-0.1,0-0.1v-0.3c0,0,0,0,0-0.1v-0.4
					c0,0,0-0.1,0-0.1v-1.1v-0.3c0,0,0-0.1,0-0.1v-0.1V33v-0.1c0-0.1,0-0.2,0.1-0.3l0.1-0.3c0.2-0.7,0.5-1.3,0.9-1.9l0.1-0.1l0.1-0.1
					l0.2-0.2c0.1-0.1,0.2-0.3,0.3-0.4l0.1-0.1v0v0l0.2-0.2v0l0,0l0.1-0.1L36,29h0l0,0c0.4-0.4,0.9-0.7,1.4-1
					c0.4-0.2,0.9-0.4,1.4-0.6H39h0.2l0.3-0.1l0.3,0h0.1H40h0.2h0.2h0.2H41l0,0h-0.3h-0.3h-0.2H40h-0.1h-0.1l-0.3,0.1l-0.3,0.1h-0.2
					h-0.2c-0.5,0.2-0.9,0.4-1.3,0.6c-0.5,0.3-1,0.6-1.4,1l0,0l0,0l-0.1,0.1L36,29.2l0,0l0,0l-0.2,0.2l0,0v0l-0.1,0.1
					c-0.1,0.1-0.2,0.3-0.3,0.4c-0.1,0.1-0.1,0.1-0.1,0.2l-0.1,0.1l-0.1,0.1c-0.4,0.6-0.7,1.2-0.8,1.9l-0.1,0.3l-0.1,0.3v0.1V33v0.1
					c0,0,0,0.1,0,0.1v0.3c0,0,0,0,0,0.1v1c0,0,0,0.1,0,0.1v0.3c0,0,0,0,0,0.1v0.3c0,0,0,0.1,0,0.1v0.1v0.1v0.1c0,0.1,0,0.2,0.1,0.3
					l0.1,0.2c0.2,0.7,0.5,1.3,0.9,1.9l0.1,0.1l0.1,0.1c0,0.1,0.1,0.1,0.2,0.2s0.2,0.2,0.3,0.4l0.1,0.1l0,0l0,0l0.2,0.2v0l0,0
					l0.1,0.1l0.1,0.1l0,0h0c0.4,0.4,0.9,0.7,1.4,1c0.4,0.2,0.9,0.4,1.4,0.5h0.2h0.2l0.3,0.1l0.3,0h0.1h0.1h0.2h0.2h0.6L41.4,41.8z"
					/>
			</g>
		</g>
		<g class="st12">
			<g>
				
					<linearGradient id="SVGID_10_" gradientUnits="userSpaceOnUse" x1="41.0599" y1="60.2398" x2="41.0599" y2="53.3798" gradientTransform="matrix(1 0 0 -1 0 87.8898)">
					<stop  offset="0" style="stop-color:#000000"/>
					<stop  offset="0.12" style="stop-color:#080808"/>
					<stop  offset="0.31" style="stop-color:#1F1F1F"/>
					<stop  offset="0.55" style="stop-color:#454545"/>
					<stop  offset="0.82" style="stop-color:#797979"/>
					<stop  offset="1" style="stop-color:#9F9F9F"/>
				</linearGradient>
				<path class="st14" d="M34.5,34.5V34c0-0.1,0-0.1,0-0.2v-0.2v-0.1c0,0,0-0.1,0-0.1c0-0.1,0-0.2,0-0.2l0.1-0.3v-0.1v-0.1
					c0.1-0.4,0.3-0.9,0.5-1.3c0.3-0.5,0.7-0.9,1.1-1.3l0.2-0.2l0.1-0.1l0.1-0.1l0.2-0.1l0,0l0,0l0.1-0.1c0.1-0.1,0.2-0.2,0.3-0.3
					l0.2-0.1l0.1-0.1l0.1-0.1c0.6-0.4,1.2-0.7,1.8-0.9l0.2-0.1l0.2-0.1h0.1h0.1H40h0.1h0.2h0.2h0.1h1.1h0.2h0.1h0.1h0.1h0.1l0.2,0.1
					l0.2,0.1c0.6,0.2,1.2,0.4,1.7,0.8l0.1,0.1l0.1,0.1l0.2,0.1l0.3,0.3l0.1,0.1l0,0l0,0l0.2,0.1l0.1,0.1l0.1,0.1l0.2,0.1
					c0.4,0.4,0.7,0.8,0.9,1.3c0.2,0.4,0.4,0.8,0.5,1.2v0.2v0.1l0.1,0.3c0,0.1,0,0.2,0,0.2c0,0,0,0.1,0,0.1v0.1v0.2
					c0,0.1,0,0.1,0,0.2V34v0.4l0,0v-0.2V34v-0.2c0-0.1,0-0.1,0-0.2v-0.2v-0.1c0,0,0-0.1,0-0.1c0-0.1,0-0.2,0-0.2s0-0.2-0.1-0.3
					c0,0,0-0.1,0-0.1v-0.2c-0.3-0.9-0.8-1.8-1.5-2.5L46,29.8l-0.1-0.1l-0.1-0.1l-0.2-0.1l0,0h0l-0.1-0.1l-0.3-0.3L45,29l-0.1-0.1
					l-0.1-0.1c-0.6-0.4-1.2-0.7-1.8-0.9h-0.2l-0.2,0h-0.1h-0.1h-0.1h-0.1h-0.2h-1.5h-0.2H40h-0.1h-0.1h-0.1L39.4,28l-0.2,0.1
					c-0.6,0.2-1.2,0.5-1.7,0.8l-0.1,0.1L37.3,29l-0.2,0.1l-0.3,0.3l-0.1,0.1l0,0l0,0l-0.2,0.1l-0.1,0.1l-0.1,0.1L36.3,30
					c-0.3,0.4-0.6,0.8-0.9,1.3c-0.2,0.4-0.4,0.8-0.5,1.2v0.1c0,0,0,0.1,0,0.1L34.8,33c0,0.1,0,0.2,0,0.2c0,0,0,0.1,0,0.1v0.1v0.2
					c0,0.1,0,0.1,0,0.2V34c0,0,0,0.1,0,0.1v0.2L34.5,34.5z"/>
			</g>
		</g>
		<g>
			
				<linearGradient id="SVGID_11_" gradientUnits="userSpaceOnUse" x1="39.6311" y1="60.5685" x2="34.3811" y2="56.2285" gradientTransform="matrix(1 0 0 -1 0 87.8898)">
				<stop  offset="0" style="stop-color:#FFFFFF"/>
				<stop  offset="0.17" style="stop-color:#D3D3D3"/>
				<stop  offset="0.32" style="stop-color:#B2B2B2"/>
				<stop  offset="0.45" style="stop-color:#B9B9B9"/>
				<stop  offset="0.64" style="stop-color:#CBCBCB"/>
				<stop  offset="0.87" style="stop-color:#E9E9E9"/>
				<stop  offset="1" style="stop-color:#FFFFFF"/>
			</linearGradient>
			<path class="st15" d="M33.8,32.1l1.5,0.6c0.7-2.3,2.7-4,5.1-4.3l-0.2-1.6C37.1,27.1,34.7,29.2,33.8,32.1z"/>
		</g>
		<g>
			
				<linearGradient id="SVGID_12_" gradientUnits="userSpaceOnUse" x1="37.5566" y1="47.1578" x2="43.0966" y2="46.7978" gradientTransform="matrix(1 0 0 -1 0 87.8898)">
				<stop  offset="0" style="stop-color:#FFFFFF"/>
				<stop  offset="0.29" style="stop-color:#CACACA"/>
				<stop  offset="0.49" style="stop-color:#A9A9A9"/>
				<stop  offset="0.59" style="stop-color:#AEAEAE"/>
				<stop  offset="0.71" style="stop-color:#BCBCBC"/>
				<stop  offset="0.84" style="stop-color:#D4D4D4"/>
				<stop  offset="0.97" style="stop-color:#F5F5F5"/>
				<stop  offset="1" style="stop-color:#FFFFFF"/>
			</linearGradient>
			<path class="st16" d="M44.5,41.4L43.7,40c-0.8,0.4-1.6,0.6-2.5,0.6c-1.2,0-2.5-0.3-3.5-1l-1.2,1c1.4,1,3,1.6,4.8,1.6
				C42.4,42.1,43.5,41.9,44.5,41.4z"/>
		</g>
		<path class="st17" d="M41.3,42.2c4.3-0.1,7.8-3.6,7.7-7.9c-0.1-4.3-3.6-7.8-7.9-7.7c-4.3,0.1-7.8,3.6-7.7,7.9
			C33.4,38.8,36.9,42.3,41.3,42.2C41.3,42.2,41.3,42.2,41.3,42.2z M47.3,34.3c0,3.3-2.7,6.1-6,6.1c-3.3,0-6.1-2.7-6.1-6
			c0-3.3,2.6-6.1,6-6.1C44.4,28.3,47.2,31,47.3,34.3L47.3,34.3z"/>
		<path class="st17" d="M36.4,38.3c-0.3-0.2-0.7-0.2-1,0c-0.6,0.4-0.3,0.8-0.3,0.8l-0.5-0.7l-0.1-0.3c0,0,0.2,0.4,0.9,0
			s0.5-0.7,0.5-0.7l0.3,0.4L36.4,38.3z"/>
		
			<linearGradient id="SVGID_13_" gradientUnits="userSpaceOnUse" x1="-698.5223" y1="675.8254" x2="-698.5223" y2="688.6954" gradientTransform="matrix(-0.97 -0.23 -0.23 0.97 -479.4854 -787.4832)">
			<stop  offset="0" style="stop-color:#8D8D8D"/>
			<stop  offset="0.25" style="stop-color:#818181"/>
			<stop  offset="0.7" style="stop-color:#636363"/>
			<stop  offset="1" style="stop-color:#4A4A4A"/>
		</linearGradient>
		<polygon class="st18" points="42.9,28.1 45.8,29.8 47.5,32.6 47.5,36 45.9,38.9 43,40.6 39.7,40.6 36.8,39 35.1,36.1 35.1,32.8 
			36.7,29.9 39.5,28.2 		"/>
		<polygon class="st19" points="41.2,30.2 39.5,28.2 42.9,28.1 		"/>
		
			<linearGradient id="SVGID_14_" gradientUnits="userSpaceOnUse" x1="13.1464" y1="-2391.7878" x2="13.2864" y2="-2394.4077" gradientTransform="matrix(1 -1.000000e-02 -1.000000e-02 -1 4.0889 -2364.7102)">
			<stop  offset="0" style="stop-color:#8F8F8F"/>
			<stop  offset="1" style="stop-color:#C9C9C9"/>
		</linearGradient>
		<polygon class="st20" points="42.3,30.1 40.1,30.1 39.8,27.3 42.5,27.3 		"/>
		<polygon class="st21" points="39.8,27.3 40,30.2 42.4,30.2 42.5,27.3 42.2,29.9 40.3,30 		"/>
		
			<linearGradient id="SVGID_15_" gradientUnits="userSpaceOnUse" x1="-1686.8835" y1="-921.6785" x2="-1686.7435" y2="-924.2885" gradientTransform="matrix(-1.000000e-02 -1 -1 1.000000e-02 -909.3002 -1642.8689)">
			<stop  offset="0" style="stop-color:#E5E5E5"/>
			<stop  offset="1" style="stop-color:#ADADAD"/>
		</linearGradient>
		<polygon class="st22" points="37,33.4 37,35.5 34.2,35.8 34.1,33.1 		"/>
		
			<linearGradient id="SVGID_16_" gradientUnits="userSpaceOnUse" x1="-229.4735" y1="780.7094" x2="-229.4135" y2="778.1193" gradientTransform="matrix(-1 1.000000e-02 1.000000e-02 1 -201.6789 -743.9598)">
			<stop  offset="0" style="stop-color:#E9E9E9"/>
			<stop  offset="1" style="stop-color:#282828"/>
		</linearGradient>
		<polygon class="st23" points="34.2,35.8 37.1,35.6 37,33.3 34.1,33.1 36.8,33.5 36.8,35.4 		"/>
		
			<linearGradient id="SVGID_17_" gradientUnits="userSpaceOnUse" x1="1480.6998" y1="-699.7887" x2="1480.8497" y2="-702.4087" gradientTransform="matrix(1.000000e-02 1 1 -1.000000e-02 727.3102 -1453.0111)">
			<stop  offset="0" style="stop-color:#E5E5E5"/>
			<stop  offset="1" style="stop-color:#ADADAD"/>
		</linearGradient>
		<polygon class="st24" points="45.5,35.4 45.5,33.2 48.3,32.9 48.3,35.6 		"/>
		
			<linearGradient id="SVGID_18_" gradientUnits="userSpaceOnUse" x1="-240.731" y1="780.8209" x2="-240.741" y2="778.0109" gradientTransform="matrix(-1 1.000000e-02 1.000000e-02 1 -201.6789 -743.9598)">
			<stop  offset="0" style="stop-color:#E9E9E9"/>
			<stop  offset="1" style="stop-color:#282828"/>
		</linearGradient>
		<polygon class="st25" points="48.3,32.9 45.4,33.2 45.4,35.5 48.3,35.6 45.7,35.3 45.6,33.4 		"/>
		<g class="st6">
			
				<radialGradient id="SVGID_19_" cx="-848.6504" cy="750.0643" r="5.61" gradientTransform="matrix(-0.46 -6.000000e-02 -0.13 0.99 -278.7843 -755.0809)" gradientUnits="userSpaceOnUse">
				<stop  offset="0" style="stop-color:#C4C4C4"/>
				<stop  offset="0.56" style="stop-color:#C2C2C2"/>
				<stop  offset="0.76" style="stop-color:#BBBBBB"/>
				<stop  offset="0.9" style="stop-color:#B0B0B0"/>
				<stop  offset="1" style="stop-color:#A2A2A2"/>
			</radialGradient>
			<path class="st26" d="M11.7,38.1c0.3-3,1.4-5.7,2.7-5.8c1.4-0.2,2.4,2.8,1.9,6.7s-2,6.1-3.2,5.4C12,43.8,11.4,41,11.7,38.1z"/>
		</g>
		<path class="st9" d="M13.1,44.4c1.2,0.7,2.8-1.7,3.2-5.4s-0.5-6.9-1.9-6.7c-1.2,0.2-2.4,2.8-2.7,5.8S12,43.8,13.1,44.4z M12,37
			c0-0.1,0-0.3,0.1-0.4c0-0.1,0.1-0.2,0.1-0.3c0-0.3,0.1-0.5,0.2-0.7c0.1-0.2,0.1-0.3,0.1-0.6c0.1-0.2,0.1-0.4,0.3-0.5
			c0.1-0.2,0.1-0.1,0.2-0.3s0.3-0.6,0.4-0.7s0.2-0.4,0.4-0.5s0.2-0.1,0.2,0s0.2,0,0.2,0l0.6-0.1l0.3,0.2c0.1,0,0.2,0.3,0.3,0.4
			c0.1,0.2,0.3,0.4,0.4,0.6c0.1,0.2,0.1,0.5,0.1,0.7c0,0.3,0.1,0.5,0.1,0.8c0.1,0.3,0.1,0.6,0.2,0.8c0,0.3,0,0.6-0.1,0.9
			c0,0,0.1,0.5,0.1,0.7c0,0.2,0,0.5-0.1,0.7L16,39.9c0,0-0.1,0.5-0.1,0.8c0,0.2-0.1,0.4-0.2,0.6c-0.1,0.3-0.2,0.4-0.3,0.6
			s-0.2,0.7-0.3,1s-0.2,0.4-0.4,0.6c-0.1,0.2-0.2,0.3-0.4,0.3c-0.2,0.1-0.2,0.2-0.4,0.3c-0.1,0.1-0.2,0.1-0.3,0.1
			c-0.1,0-0.2-0.1-0.2-0.1s-0.2,0-0.3,0c-0.1,0-0.2,0-0.2,0c-0.1,0-0.2-0.2-0.3-0.3c-0.1-0.1-0.1-0.2-0.2-0.4c0-0.1-0.1-0.2-0.1-0.3
			c-0.1-0.1-0.1-0.2-0.1-0.3c-0.1-0.2-0.1-0.4-0.1-0.4c0-0.2-0.1-0.4-0.1-0.6c0-0.2,0-0.3-0.1-0.4c0-0.1-0.1-0.3-0.1-0.4
			c0-0.2,0-0.4,0-0.6c0-0.3,0-0.2,0-0.4c0-0.1,0-0.2,0-0.3c0-0.1,0-0.2,0-0.3c0-0.2,0-0.3,0.1-0.5c0-0.3,0-0.4,0-0.6s0-0.2,0-0.5
			c0-0.2,0-0.3,0.1-0.5C12,37.3,12,37.2,12,37z"/>
		<path class="st10" d="M13.1,44.4c1.2,0.7,2.8-1.7,3.2-5.4s-0.5-6.9-1.9-6.7c-1.2,0.2-2.4,2.8-2.7,5.8S12,43.8,13.1,44.4z
			 M14.4,32.4c1.4-0.2,2.3,2.8,1.8,6.6c-0.1,1.8-0.8,3.6-1.9,5c-0.2,0.1-0.4,0.3-0.6,0.4c-0.2,0.2-0.5,0.1-0.7-0.1
			c-0.3-0.2-0.5-0.4-0.7-0.7c-0.1-0.2-0.2-0.5-0.3-0.7c-0.1-0.2-0.1-0.4-0.2-0.6c-0.3-1.4-0.3-2.8-0.2-4.2
			C12,35.2,13.1,32.6,14.4,32.4L14.4,32.4z"/>
		<path class="st11" d="M14.5,30.8c1.9-0.5,3.2,3.5,2.6,8.7c-0.6,5-2.6,7.8-4.2,6.8c-1.3-0.9-2-4.3-1.6-8S13,31.1,14.5,30.8z
			 M13,44.7c1.3,0.7,2.8-1.7,3.2-5.4c0.5-3.8-0.5-7-1.9-6.8c-1.2,0.2-2.4,2.8-2.7,5.9S11.9,44.1,13,44.7z"/>
		<g class="st6">
			
				<radialGradient id="SVGID_20_" cx="-182.504" cy="791.3627" r="5.61" gradientTransform="matrix(0.46 -7.000000e-02 0.16 0.99 23.2276 -759.601)" gradientUnits="userSpaceOnUse">
				<stop  offset="0" style="stop-color:#C4C4C4"/>
				<stop  offset="0.56" style="stop-color:#C2C2C2"/>
				<stop  offset="0.76" style="stop-color:#BBBBBB"/>
				<stop  offset="0.9" style="stop-color:#B0B0B0"/>
				<stop  offset="1" style="stop-color:#A2A2A2"/>
			</radialGradient>
			<path class="st27" d="M69.6,37.2c-0.4-3-1.6-5.6-2.8-5.8c-1.4-0.2-2.3,2.9-1.7,6.7s2.2,6,3.4,5.3C69.5,42.9,70,40.2,69.6,37.2z"
				/>
		</g>
		<path class="st9" d="M69.6,37.2c-0.4-3-1.6-5.6-2.8-5.8c-1.4-0.2-2.3,2.9-1.7,6.7s2.2,6,3.4,5.3C69.5,42.9,70,40.2,69.6,37.2z
			 M69.4,36.7c0.1,0.2,0.1,0.3,0.1,0.5c0,0.3,0,0.3,0,0.5c0,0.2,0,0.4,0,0.6c0,0.2,0.1,0.3,0.1,0.5c0,0.1,0,0.2,0,0.3
			c0,0.1,0,0.2,0,0.3c0,0.2,0,0.1,0,0.4c0,0.2,0,0.4,0,0.6c0,0.1,0,0.3-0.1,0.4c0,0.1-0.1,0.3-0.1,0.5c0,0.2,0,0.3,0,0.5L69.3,42
			c0,0.1-0.1,0.2-0.1,0.3c-0.1,0.1-0.1,0.2-0.1,0.3c-0.1,0.1-0.1,0.3-0.2,0.4c0,0.1-0.1,0.3-0.2,0.3c-0.1,0-0.2,0-0.2,0
			c-0.1,0-0.2,0-0.3,0c-0.1,0.1-0.2,0.1-0.2,0.1c-0.1,0-0.1,0-0.3-0.1s-0.2-0.3-0.4-0.3c-0.2,0-0.3-0.2-0.3-0.3
			c-0.1-0.2-0.2-0.3-0.4-0.6s-0.3-0.7-0.4-1s-0.3-0.3-0.3-0.6c-0.1-0.2-0.1-0.4-0.2-0.6c0-0.3-0.2-0.8-0.2-0.8l-0.2-1.2
			c-0.1-0.2-0.1-0.5-0.2-0.7l0.1-0.7c-0.1-0.3-0.1-0.6-0.1-0.9c0-0.3,0.1-0.6,0.2-0.8c0.1-0.3,0.1-0.5,0.1-0.8c0-0.2,0-0.5,0.1-0.7
			c0.1-0.2,0.2-0.4,0.4-0.6c0.1-0.1,0.2-0.3,0.3-0.4c0.1-0.1,0.2-0.2,0.3-0.2l0.6,0.1c0,0,0.2,0.1,0.2,0s0.1,0,0.2,0
			s0.4,0.5,0.4,0.5s0.3,0.5,0.4,0.7s0.1,0.1,0.2,0.3c0.1,0.2,0.2,0.3,0.3,0.5c0.1,0.2,0,0.4,0.2,0.6c0.1,0.2,0.2,0.5,0.2,0.7
			c0.1,0.1,0.1,0.2,0.1,0.3c0,0.1,0.1,0.3,0.1,0.4C69.3,36.3,69.3,36.5,69.4,36.7z"/>
		
			<linearGradient id="SVGID_21_" gradientUnits="userSpaceOnUse" x1="-724.7392" y1="673.9254" x2="-724.7392" y2="685.5453" gradientTransform="matrix(-0.97 -0.23 -0.23 0.97 -479.4854 -787.4832)">
			<stop  offset="0" style="stop-color:#8D8D8D"/>
			<stop  offset="0.25" style="stop-color:#818181"/>
			<stop  offset="0.7" style="stop-color:#636363"/>
			<stop  offset="1" style="stop-color:#4A4A4A"/>
		</linearGradient>
		<path class="st28" d="M69.6,37.6c-0.4-3-1.6-5.6-2.8-5.8c-1.4-0.2-2.3,2.9-1.7,6.7s2.2,6,3.4,5.3C69.6,43.2,70,40.5,69.6,37.6z"/>
		<path class="st11" d="M70.1,37.4c0.5,3.6-0.1,7.1-1.4,8c-1.6,1.1-3.7-1.7-4.4-6.7c-0.8-5.2,0.4-9.1,2.3-8.7
			C68.1,30.3,69.6,33.7,70.1,37.4z M69.7,37.5c-0.4-3-1.6-5.6-2.9-5.8c-1.4-0.2-2.3,2.9-1.7,6.8s2.2,6.1,3.4,5.3
			C69.6,43.2,70,40.4,69.7,37.5z"/>
		
			<linearGradient id="SVGID_22_" gradientUnits="userSpaceOnUse" x1="-672.8407" y1="686.4454" x2="-672.8407" y2="698.6453" gradientTransform="matrix(-0.97 -0.23 -0.23 0.97 -479.4854 -787.4832)">
			<stop  offset="0" style="stop-color:#8D8D8D"/>
			<stop  offset="0.25" style="stop-color:#818181"/>
			<stop  offset="0.7" style="stop-color:#636363"/>
			<stop  offset="1" style="stop-color:#4A4A4A"/>
		</linearGradient>
		<path class="st29" d="M13,44.6c1.2,0.7,2.8-1.7,3.3-5.4c0.5-3.8-0.4-6.9-1.9-6.7c-1.2,0.2-2.4,2.8-2.7,5.8S11.9,44,13,44.6z"/>
	</g>
</g>
</svg>
