<svg xmlns="http://www.w3.org/2000/svg" viewBox="0 0 164.05 408.38"><defs><style>.cls-1{fill:#353549;}.cls-2{fill:#7f4e45;}.cls-3{fill:#6b413b;}.cls-4{fill:#d35948;}.cls-5{fill:#fc3;}.cls-6{fill:#1f1d28;}.cls-7{fill:#453878;}.cls-8{fill:#6154c7;}.cls-9{fill:#454456;}.cls-10{fill:#ff8f00;}.cls-11{fill:#e1e3e5;}.cls-12{fill:#3de580;}.cls-13{fill:#5a5e6d;}.cls-14{fill:#30323d;}.cls-15{fill:#23242b;}.cls-16{fill:#77362d;}</style></defs><g id="Layer_1" data-name="Layer 1"><g id="Kiaro"><path class="cls-1" d="M93,14.55s7.62-.53,9.77,3.58,7.39,2.91,7.8,8.47,7,2.66,5.42,8.5c-1,3.79,4.77,7.16,2.54,11.1-2.86,5,1.74,8.19-2.85,11.3s1.9,8.62-3,11-3,7.09-7.82,8.89c-6,2.2-4.48,8.3-9.67,5.68S89,90,82.34,84.89c-4.08-3.13-7.88,2.61-11.56-3-4.08-6.2-11.4-1.43-12-7.76-.37-4.16-8.6-3-6.37-11.29.82-3-8.72-5.12-4-11.51,2.19-3-5-8.68,1.41-13.33,3.76-2.75-.28-10.39,7-13.37C61.51,22.69,60,16,66.92,16.89c5.24.71,5.44-6.61,11.21-3.69S84.3,7.71,93,14.55Z"/><path class="cls-2" d="M124.76,195.46s2.82,3.94,2.4,15.5c0,0-.82,2.63-1.85,3.49s-6.54,4.09-8.16,4.22-4.33-3.59-4.13-4.44,3.78-1.4,4.43-1.62a9.18,9.18,0,0,0,.67-2.23c.37-2.29-1.21-5.52-1.21-5.52s-1.7,4.72-1.91,5-.7,1.34-1.8,1.24-.4-7.29-.34-9.14,2.6-5.31,3.1-6,4.34-4.68,8.8-.49Z"/><path class="cls-3" d="M116.32,216.16a.3.3,0,0,0,.28-.23,19.91,19.91,0,0,1,1-2.56.28.28,0,0,0-.14-.37.27.27,0,0,0-.37.14,21.79,21.79,0,0,0-1,2.68.28.28,0,0,0,.22.33Z"/><path class="cls-4" d="M116,215a.23.23,0,0,0,.14,0,.28.28,0,0,0,.1-.39,3,3,0,0,0-1.2-1.06.28.28,0,0,0-.37.14.27.27,0,0,0,.13.37,2.48,2.48,0,0,1,1,.85.28.28,0,0,0,.24.13Z"/><path class="cls-3" d="M119.22,217.81a.28.28,0,0,0,.26-.17c.09-.19,2.11-4.68,2.3-6.48a.28.28,0,0,0-.25-.31.29.29,0,0,0-.31.25c-.18,1.71-2.23,6.27-2.25,6.31a.27.27,0,0,0,.14.37l.11,0Z"/><path class="cls-3" d="M122.16,216.22a.28.28,0,0,0,.26-.18,29.34,29.34,0,0,0,1.48-4.89.27.27,0,0,0-.25-.3.29.29,0,0,0-.31.26,30.62,30.62,0,0,1-1.44,4.73.27.27,0,0,0,.16.36l.1,0Z"/><path class="cls-3" d="M124.56,214.59a.27.27,0,0,0,.26-.18,20.08,20.08,0,0,0,1.05-3.74.29.29,0,0,0-.24-.32.3.3,0,0,0-.32.24,20.92,20.92,0,0,1-1,3.62.29.29,0,0,0,.16.37Z"/><path class="cls-5" d="M115.22,98.48s6.44,12.94,6.44,48.86,10.86,31.61,3.74,40.57l.38,6.4s-5.81,3-11.42,1.85l-1.88-6.44s-6.75-1.45-6.27-10.93-11.11-73.75,9-80.31Z"/><path class="cls-2" d="M106.87,387.91c-3.21-.51-10.93-8.32-10.93-8.32s-2.17-3-2.17-4.71c6.71-2.12,8.6,0,8.6,0l6.61,9.63a21.08,21.08,0,0,0,2.4,1.25c-.13,1.14-2.52,2.46-4.51,2.15Z"/><path class="cls-6" d="M96.7,378.84s7,7.43,10.2,7.94a6.34,6.34,0,0,0,4.48-1,32.16,32.16,0,0,0,4.6,1.71c4.34,1.26,1.63,4.47,1.63,4.47-2.26,1.38-11.12.38-12.75,0s-8.54-8.67-8.54-8.67L96.7,392H94.43A64.15,64.15,0,0,0,92.86,382c-1-5.62.91-7.05.91-7.05.85.46,2.93,3.85,2.93,3.85Z"/><path class="cls-2" d="M102.37,374.88l2.27-36.62-12.64,0,1.77,36.65s5.57,3.41,8.6,0Z"/><path class="cls-2" d="M91.69,66.12s-.51,12.19,0,14.16S97,85.5,101.92,87.81a23.35,23.35,0,0,1-18.7,8.42c-12.36-.26-15.73-5.37-17.7-8.18,0,0,9.67-3.42,9.89-7.43s0-14.5,0-14.5Z"/><path class="cls-3" d="M83.66,77.78c-3.91,0-6.63-2.73-8.16-4.84,0-3.56-.09-6.82-.09-6.82H91.69s-.14,3.26-.2,6.66c-1.31,2.12-3.81,5-7.83,5Z"/><path class="cls-2" d="M49.45,345.61c-.45,12-.2,29.43-.2,29.43,2,3.44,7.26,0,7.26,0,.59-6.9,4.15-23.11,4.64-29.07-5.17-1-8-1.09-11.7-.36Z"/><path class="cls-5" d="M94.52,83.82s-9.65,6.18-22-.38c0,0-14.86,8.71-21.57,15,0,0,6.61,35.21,9.84,56.93.21,1.37-2.37,2.2-1.58,4.87.28.94,2.36,2,2.36,2s28.26,6.85,47.07.09a3.2,3.2,0,0,0,2.21-2.67c.14-.9-1.69-2.8-1.5-4,2.34-14.46,6.15-54.47,5.92-57.29,0,0-8.17-10-20.7-14.66Z"/><path class="cls-7" d="M108.59,162.41a112.61,112.61,0,0,1-47-.09A352.74,352.74,0,0,0,49,232.07C45.7,273.83,39.45,347,39.45,347s7,7,31.29,2.59l15.17-128.6s-6.48,104.54-3.62,128.22c0,0,18.06,6.36,32.74-1.08,0,0,3-114,1.38-138-1.32-19.51-7.77-44.79-7.82-47.64Z"/><path class="cls-8" d="M87.57,171.32c13.44,0,21.53-3.3,22-3.52a1,1,0,1,0-.79-1.88c-.19.07-19.4,7.88-47.88-.78a1,1,0,1,0-.6,2,93.58,93.58,0,0,0,27.23,4.23Z"/><path class="cls-8" d="M68.61,222.81h0c.51-.56.92-.53.91-1.05-.37-18,1.48-52.75,1.5-53.1a1,1,0,0,0-.88-1,.93.93,0,0,0-1,.88c0,.35-1.87,35.22-1.5,53.28a1,1,0,0,0,.94,1Z"/><path class="cls-8" d="M62.49,206a.94.94,0,0,0,.93-.82c2.7-22,6.77-36.09,6.81-36.23a.93.93,0,0,0-.64-1.16.94.94,0,0,0-1.16.63c0,.14-4.15,14.37-6.87,36.53a.93.93,0,0,0,.82,1Z"/><path class="cls-9" d="M86.83,220.56a.4.4,0,0,0,.22-.06l8.62-6.75a.38.38,0,0,0,.08-.52.37.37,0,0,0-.52-.09l-8.61,6.75a.37.37,0,0,0,.21.67Z"/><polygon class="cls-10" points="92.96 77.55 85.08 85.94 73.98 77.93 70.72 83.69 79.46 95.11 84.96 87 91.23 95.11 97.2 83.81 92.96 77.55 92.96 77.55"/><path class="cls-2" d="M56.51,375a8.91,8.91,0,0,0-7.26,0s-2.63,9-1.09,14.38c0,0,5,3.37,8,.23,0,0,1.21-8.62.39-14.61Z"/><path class="cls-6" d="M57.24,390.93s-.25,5.81-4.12,5.65-5.83-2.22-6-5.65C47,387.68,47,379.87,49.25,375c0,0-2,12.55-.25,13.86s5.87,1.38,6.46,0,1.26-6.28,1-13.86c0,0,1.21,4.4.73,15.89Z"/><path class="cls-11" d="M106.21,132.12l-1.33,21.68a8.88,8.88,0,0,1-11.82.06l-1.33-21.74Z"/><path class="cls-12" d="M105.9,137.2l-.85,13.91c-5.84,1.9-9.87,1.11-12.16.16L92,137.4c7.57,1.28,11.9.42,13.86-.2Z"/><path class="cls-13" d="M107.6,131.26v2.05s-6.66,4.18-16.92,0v-2.05s8.32-6.07,16.92,0Z"/><path class="cls-14" d="M107.6,131.26v2.05s-6.66,4.18-16.92,0v-2.05c8.6,4.35,16.92,0,16.92,0Z"/><path class="cls-13" d="M105.93,129.27v1.82s-5.54,3.71-13.86,0v-3.35a13,13,0,0,1,13.86,1.53Z"/><path class="cls-14" d="M105.93,129.27v1.82s-5.54,3.71-13.86,0v-3.35a18.53,18.53,0,0,0,13.86,1.53Z"/><path class="cls-2" d="M86.8,146.68s3.27-6.71,5.39-6.93c0,0-.21,3.13,4.63,3.38a19.77,19.77,0,0,0,4.31-.3c1.32-.39,4.27-.73,4.55-2.26l.81.06a1.71,1.71,0,0,1,1.39,1.92,1.9,1.9,0,0,1-.35,1,1.12,1.12,0,0,1,.35.39,2.35,2.35,0,0,1-.82,3,1,1,0,0,1,.84.55,1.84,1.84,0,0,1-.08,2.12,1.16,1.16,0,0,1-.37.47l.06.06a2.11,2.11,0,0,1,.52,2.09,4.46,4.46,0,0,1-2.65,2.43h0s-8.16,2.38-15.52.24c-6.26-1.82-3.06-8.24-3.06-8.24Z"/><path class="cls-3" d="M102.56,146h0a12.67,12.67,0,0,0,4.62-1.93.38.38,0,1,0-.41-.63,12.21,12.21,0,0,1-4.27,1.81.38.38,0,0,0,0,.75Z"/><path class="cls-3" d="M102.56,149.07h0a12.31,12.31,0,0,0,4.24-1.62.38.38,0,0,0,.12-.52.37.37,0,0,0-.51-.12,11.86,11.86,0,0,1-3.91,1.51.38.38,0,0,0,0,.75Z"/><path class="cls-3" d="M102.56,152.65h.06a10.33,10.33,0,0,0,4.63-1.93.36.36,0,0,0,0-.52.38.38,0,0,0-.53-.05,9.73,9.73,0,0,1-4.27,1.76.38.38,0,0,0,.07.75Z"/><path class="cls-5" d="M50.9,98.48s-9.57,13.37-14.63,51.76c0,0-2.81,18.54,36.08,10.83,0,0,6.38,3.55,9.28-3.29l6.65-1s1.36-6.47-.89-11.71l-6.55.47s-3.43-4.71-9.8-.5l-16.23-2.22s4.93-14,5.8-17.57.8-22.5-9.71-26.79Z"/><path class="cls-10" d="M80.68,146l6.33-.46a.36.36,0,0,0,.34-.4.36.36,0,0,0-.4-.34l-6,.42c-.53-.58-2.6-2.69-4.33-2.41a9.88,9.88,0,0,0-2.25.69,5.62,5.62,0,0,1-2.24.57c-1.45-.05-12.41-1.12-12.52-1.13a.38.38,0,0,0-.07.75c.45,0,11.09,1.08,12.56,1.13a6.29,6.29,0,0,0,2.55-.62,9.63,9.63,0,0,1,2.09-.65c1.28-.21,3.16,1.59,3.77,2.3l.13.15Z"/><path class="cls-10" d="M57.83,134.48a.36.36,0,0,0,.34-.23c0-.1,4.13-10.23,5.06-18.8a.37.37,0,1,0-.74-.08c-.92,8.46-5,18.5-5,18.6a.37.37,0,0,0,.2.49.39.39,0,0,0,.15,0Z"/><path class="cls-10" d="M63.94,162.8H64l5.09-.74a11.77,11.77,0,0,1,4.73-.05,22.82,22.82,0,0,0,3.26.27c3.18,0,4.64-3.28,5-4.19l6.54-1,.06-.24c.08-.35.27-2,.3-2.17a.38.38,0,0,0-.75-.09c-.07.57-.17,1.4-.24,1.84l-6.47.95-.07.22s-1.28,3.88-4.35,3.89a19.26,19.26,0,0,1-3.15-.27,12.8,12.8,0,0,0-5,.06l-5.06.74a.37.37,0,0,0-.32.42.38.38,0,0,0,.37.32Z"/><path class="cls-10" d="M109.56,162.29a.41.41,0,0,0,.18,0,3,3,0,0,0,1.32-1.72,3.16,3.16,0,0,0-.5-2.49,6.51,6.51,0,0,1-.49-5.07c.06-.25.1-.47.13-.64.18-1.34,4.45-40.22,4.8-44.6a.36.36,0,0,0-.34-.4.37.37,0,0,0-.41.34c-.34,4.37-4.61,43.21-4.8,44.56,0,.16-.06.35-.11.58a7.31,7.31,0,0,0,.58,5.62,2.43,2.43,0,0,1,.42,1.91,2.27,2.27,0,0,1-1,1.25.38.38,0,0,0,.19.71Z"/><path class="cls-2" d="M70.42,52.38S69.63,50,66.5,50.32s-2,8,.66,9.31,3.54-2.58,3.54-2.58l-.28-4.67Z"/><path class="cls-2" d="M96.91,52.38s.8-2.34,3.93-2.06,2,8-.67,9.31-3.54-2.58-3.54-2.58l.28-4.67Z"/><path class="cls-2" d="M99.49,49.3c-1.18,22-7.7,24.6-15.82,24.6s-16-1.57-15.83-24.6c.1-13.33,6-21.52,15.83-21.52S100.6,35.5,99.49,49.3Z"/><path class="cls-3" d="M83.43,61.57a1.89,1.89,0,0,1-1.8-.86c-1-1.91.86-5,1-5.37s.29-.42.55-.3.17.47,0,.73c-.56,1.24-.91,3.54-.39,4.41a.71.71,0,0,0,.64.36.52.52,0,0,1,.47.56.5.5,0,0,1-.56.47Z"/><path class="cls-15" d="M90.46,53a1,1,0,1,0,1-1.14,1.06,1.06,0,0,0-1,1.14Z"/><path class="cls-15" d="M73.54,53a1,1,0,1,0,1-1.14,1.06,1.06,0,0,0-1,1.14Z"/><path class="cls-16" d="M83.11,67.58A9.61,9.61,0,0,1,77.78,66a.59.59,0,0,1-.14-.83.59.59,0,0,1,.83-.13,8.78,8.78,0,0,0,9.43,0,.59.59,0,1,1,.61,1,10.55,10.55,0,0,1-5.4,1.55Z"/><path class="cls-1" d="M71.63,49.16a.46.46,0,0,1-.35-.16.71.71,0,0,1,0-.92C72.15,47,74.4,44.59,77.66,47a.74.74,0,0,1,.26.88.61.61,0,0,1-.79.28c-2-.57-5,.81-5,.83-.19.1-.31.21-.47.21Z"/><path class="cls-1" d="M95,49.16a.5.5,0,0,0,.36-.16.71.71,0,0,0,0-.92C94.49,47,92.24,44.59,89,47a.72.72,0,0,0-.25.88.6.6,0,0,0,.78.28c2-.57,5,.81,5,.83.19.1.31.21.47.21Z"/><path class="cls-1" d="M69.71,52.21S69,39.73,73.87,36.31c4.19-3,15.93-3,19.57.81,3.88,4,4.5,15.56,4.5,15.56s5.86-5.63,2.42-15.81c-2.15-6.37-22.12-20.77-33.74-.4C63,46.57,69.71,52.21,69.71,52.21Z"/><path class="cls-5" d="M68.42,47.12S65.89,30.69,83.08,30.8,99.19,47.44,99.19,47.44s4.39-20.13-16.11-20.13S68.42,47.12,68.42,47.12Z"/></g></g></svg>