<?xml version="1.0" encoding="utf-8"?>
<!-- Generator: Adobe Illustrator 25.2.1, SVG Export Plug-In . SVG Version: 6.00 Build 0)  -->
<svg version="1.1" id="Layer_1" xmlns="http://www.w3.org/2000/svg" xmlns:xlink="http://www.w3.org/1999/xlink" x="0px" y="0px"
	 viewBox="0 0 300 300" style="enable-background:new 0 0 300 300;" xml:space="preserve">
<style type="text/css">
	.st0{fill:none;}
	.st1{fill:#FFFFFF;}
	.st2{clip-path:url(#SVGID_2_);}
	.st3{fill:#7F4E45;}
	.st4{fill:#1F1D28;}
	.st5{clip-path:url(#SVGID_4_);}
	.st6{fill:url(#SVGID_5_);}
	.st7{fill:#30323D;}
	.st8{fill:#BC7268;}
	.st9{fill:#A56059;}
	.st10{fill:#23242B;}
	.st11{fill:#EFE8E4;}
	.st12{fill:url(#SVGID_6_);}
	.st13{fill:#BFC2CB;}
	.st14{fill:#9B9BA7;}
</style>
<g id="Layer_1_1_">
	<circle class="st0" cx="154.3" cy="144.6" r="116.6"/>
	<circle class="st0" cx="153.2" cy="147.2" r="116.7"/>
	<path class="st1" d="M145.6,180.7c-0.6-2,2.7-4.6,7.3-5.9s8.7-0.7,9.2,1.3"/>
	<g>
		<defs>
			<circle id="SVGID_1_" cx="154.3" cy="-666" r="116.6"/>
		</defs>
		<clipPath id="SVGID_2_">
			<use xlink:href="#SVGID_1_"  style="overflow:visible;"/>
		</clipPath>
		<g class="st2">
			<g id="Kiaro">
				<path class="st3" d="M202.6,25.6c-6.6-1-22.4-17.1-22.4-17.1s-4.5-6.2-4.5-9.7c13.8-4.4,17.6,0,17.6,0l13.6,19.7
					c1.6,1,3.2,1.8,4.9,2.6C211.6,23.6,206.7,26.2,202.6,25.6z"/>
				<path class="st4" d="M181.7,7c0,0,14.4,15.2,20.9,16.3c3.2,0.5,6.5-0.3,9.2-2.1c3,1.4,6.2,2.6,9.4,3.5c8.9,2.6,3.4,9.2,3.4,9.2
					c-4.7,2.8-22.8,0.8-26.2,0s-17.5-17.8-17.5-17.8l0.8,17.9h-4.7c-0.5-9.1-2.3-15.2-3.2-20.4c-2.1-11.6,1.9-14.5,1.9-14.5
					C177.5,0.1,181.7,7,181.7,7L181.7,7z"/>
				<path class="st3" d="M193.4-1.1l4.6-75.2l-25.9-0.1l3.6,75.2C175.7-1.1,187.1,5.9,193.4-1.1L193.4-1.1z"/>
				<path class="st3" d="M84.8-61.2c-0.9,24.6-0.4,60.4-0.4,60.4c4.2,7.1,14.9,0,14.9,0c1.2-14.2,8.5-47.4,9.5-59.7
					C98.2-62.4,92.4-62.7,84.8-61.2z"/>
				<path class="st3" d="M99.3-0.8c0,0-6.3-3.5-14.9,0c0,0-5.4,18.5-2.2,29.5c0,0,10.2,6.9,16.3,0.5C98.5,29.2,100.9,11.5,99.3-0.8
					L99.3-0.8z"/>
				<path class="st4" d="M100.8,31.8c0,0-0.5,11.9-8.4,11.6s-12-4.6-12.3-11.6c-0.3-6.7-0.2-22.7,4.4-32.6c0,0-4.2,25.8-0.5,28.4
					s12,2.8,13.2,0s2.6-12.9,2.2-28.4C99.3-0.8,101.7,8.2,100.8,31.8z"/>
			</g>
		</g>
	</g>
	<path class="st1" d="M144.1,174.4c-0.8-4,3.4-8.2,9.5-9.5s11.6,1,12.5,5"/>
	<path class="st1" d="M143.1,168.1c-1.1-3.9,2.9-8.4,8.9-10.1s11.7,0.2,12.8,4.2"/>
	<path class="st1" d="M146.1,181.6c0.7-4.1,6.2-6.5,12.4-5.4s10.6,5.2,9.9,9.2"/>
	<ellipse class="st0" cx="153.2" cy="144.3" rx="116.7" ry="116.9"/>
	<path class="st1" d="M143.2,187.4c1.4-3.8,7.2-5.3,13-3.2s9.4,6.9,8.1,10.7"/>
	<path class="st1" d="M145.5,162.5c-1.3-3.9,2.5-8.6,8.4-10.5s11.7-0.3,12.9,3.5"/>
	<g>
		<defs>
			<circle id="SVGID_3_" cx="153.2" cy="144.7" r="116.6"/>
		</defs>
		<clipPath id="SVGID_4_">
			<use xlink:href="#SVGID_3_"  style="overflow:visible;"/>
		</clipPath>
		<g class="st5">
			<g id="Lupe">
				
					<linearGradient id="SVGID_5_" gradientUnits="userSpaceOnUse" x1="179.2857" y1="55.1901" x2="179.2857" y2="225.43" gradientTransform="matrix(1 0 0 -1 0 299.8898)">
					<stop  offset="0" style="stop-color:#1FAC9E"/>
					<stop  offset="2.000000e-02" style="stop-color:#20A79A"/>
					<stop  offset="0.15" style="stop-color:#25837D"/>
					<stop  offset="0.29" style="stop-color:#296666"/>
					<stop  offset="0.43" style="stop-color:#2C4F54"/>
					<stop  offset="0.59" style="stop-color:#2E3F47"/>
					<stop  offset="0.77" style="stop-color:#30353F"/>
					<stop  offset="1" style="stop-color:#30323D"/>
				</linearGradient>
				<path class="st6" d="M190.1,76.8c0,0,15.8,10,14.2,34.2s-4.2,34.5,2.6,51.3s-7.8,37.3-1.4,55s3.3,21.8,1.4,22.9
					c-0.8,0.5-3.3-0.1-6.6-0.7c-4.8-0.8-11.3-1.6-16.8,0.7c-9.3,3.9-17.8,7.4-27.3,0.2s-7.6-30.2-3.1-42s-5.9-35.9,4.2-46.8
					s-4-35.3,3.1-45.2S167.9,65.7,190.1,76.8"/>
				<path class="st7" d="M132.6,77.8c0,0,15.8,10,14.1,34.2s-4.2,34.6,2.6,51.3s-7.8,37.3-1.4,55s3.3,21.8,1.4,22.9
					c-0.8,0.5-3.3-0.1-6.6-0.7c-4.8-0.8-11.3-1.6-16.8,0.7c-9.3,3.9-17.8,7.4-27.3,0.2s-7.6-30.2-3.1-42s-5.9-35.9,4.2-46.8
					s-4-35.3,3.1-45.2S110.4,66.6,132.6,77.8"/>
				<path class="st8" d="M104.3,220.3l16.3,23.8l48.3,1.8h38.3L199,221c0,0-25.1-9-25.7-19.5s0-37.8,0-37.8h-42.4c0,0,1.3,31.9,0,37
					S117.1,214.4,104.3,220.3"/>
				<path class="st9" d="M151.8,194.3c10.2,0,17.2-7.2,21.2-12.7c0.1-9.3,0.2-17.9,0.2-17.9h-42.4c0,0,0.4,8.6,0.5,17.5
					C134.8,186.7,141.3,194.3,151.8,194.3"/>
				<path class="st8" d="M119.2,126.1c0,0-2.1-6-10.1-5.3c-7.8,0.7-5.2,20.8,1.7,24.1s9.2-6.7,9.2-6.7L119.2,126.1"/>
				<path class="st8" d="M187.7,126.1c0,0,2.1-6,10.1-5.3c7.8,0.7,5.2,20.8-1.7,24.1s-9.1-6.7-9.1-6.7L187.7,126.1"/>
				<path class="st8" d="M194.4,120.3c-3.4,43-19.9,63.6-40.9,63.6s-37.6-17-40.9-63.6c-2.4-34.4,15.6-55.6,40.9-55.6
					S197.2,84.6,194.4,120.3"/>
				<path class="st10" d="M133.7,130c-0.2,1.4-1.5,2.4-2.9,2.2c-1.4-0.2-2.4-1.5-2.2-2.9c0.2-1.3,1.3-2.2,2.5-2.2
					C132.6,127.2,133.8,128.5,133.7,130"/>
				<path class="st10" d="M177.4,130c-0.2,1.4-1.5,2.4-2.9,2.2c-1.4-0.2-2.4-1.5-2.2-2.9c0.2-1.3,1.3-2.2,2.6-2.2
					C176.4,127.2,177.5,128.5,177.4,130"/>
				<path class="st7" d="M121.8,122.3c-0.3,0-0.7-0.2-0.9-0.4c-0.4-0.3-0.4-0.9-0.1-1.3c0.1-0.1,0.2-0.2,0.4-0.3
					c2.8-1.6,9.7-4.8,16.9,0.5c0.6,0.4,0.8,1.1,0.3,1.6c-0.6,0.5-1.5,0.6-2.1,0.2c-4.1-2.3-9-2.5-13.2-0.4
					C122.6,122.3,122.2,122.4,121.8,122.3"/>
				<path class="st7" d="M185.5,118.9c0.4-0.1,0.7-0.3,0.9-0.6c0.5-0.7,0.3-1.6-0.4-2.1c-2.9-2-9.9-6.1-16.9,1.2
					c-0.6,0.6-0.7,1.5-0.2,2.2c0.5,0.6,1.5,0.7,2.1,0.2c3.7-3.3,9-3.7,13.2-1.1C184.6,118.9,185.1,119,185.5,118.9"/>
				<path class="st9" d="M152.9,152c-2.1-0.1-3.9-0.7-4.6-2.2c-2.5-4.9,2.2-12.9,2.7-13.9c0.3-0.7,0.8-1.1,1.4-0.8s0.4,1.2,0.1,1.9
					c-1.4,3.2-2.3,9.1-1,11.4c0.4,0.6,1,0.9,1.7,0.9c0.7,0.1,1.3,0.7,1.2,1.5C154.3,151.5,153.7,152.1,152.9,152
					C152.9,152,152.9,152,152.9,152"/>
				<path class="st7" d="M110.4,120.8c0,0-4.6-9.4-2.1-16.7s-2.8-16.3,2-21.4s-0.3-22.4,22-25.4c9.6-1.3,14.3-7.2,22-2.6
					c6.1,3.6,18.7-8.3,28.4,7.2c6,9.7,16.1,15.1,15,25.3s3.5,8.3,1.1,18.9s-1.5,10.8-2.3,14.5c0,0-4.8,9.7-4.9,0.8
					c-0.1-11.2-0.8-11.2-2.7-15.6s-4.7-6.1-9.3-13.2S163,88.3,154.3,76c0,0-8.3,8.8-15.7,10.1c-3.7,0.6-16,5.2-16,11.1
					s-6.3,15.8-7.1,23.5C114.9,126.6,113.6,130.9,110.4,120.8"/>
				<path class="st8" d="M224.4,239.1c0,0,46.6,59.1,49.6,95.7c0,0-8.9,9.3-31.8,6.2c0,0-20.3-32.9-24.2-44.5
					S214.7,246.7,224.4,239.1"/>
				<path class="st11" d="M189,213.7c0,0-19.6,46.5-76.7,1.5c0,0-25.2,14.9-41.9,30.6c0,0,23.1,70.3,26.8,124.9
					c0,0,38.8,11.2,120.4,0c0,0,4.5-37.2,8.2-74.4c1.7-16.8-1.2-54.4-1.4-57.2C224.4,239.1,215.8,226.2,189,213.7"/>
				<path class="st8" d="M71.5,245.6c0,0-18.7,33.2-21.2,134.1c0,0-5,22.2,12.4,115.1c0,0,12.8,9,19.6-1.2c0,0,3.8-86.6,1.8-108.6
					C84.1,385,117,240.6,71.5,245.6"/>
				
					<linearGradient id="SVGID_6_" gradientUnits="userSpaceOnUse" x1="111.2784" y1="7.1305" x2="111.2784" y2="121.4898" gradientTransform="matrix(1 0 0 -1 0 299.8898)">
					<stop  offset="0" style="stop-color:#1FAC9E"/>
					<stop  offset="2.000000e-02" style="stop-color:#20A79A"/>
					<stop  offset="0.15" style="stop-color:#25837D"/>
					<stop  offset="0.29" style="stop-color:#296666"/>
					<stop  offset="0.43" style="stop-color:#2C4F54"/>
					<stop  offset="0.59" style="stop-color:#2E3F47"/>
					<stop  offset="0.77" style="stop-color:#30353F"/>
					<stop  offset="1" style="stop-color:#30323D"/>
				</linearGradient>
				<path class="st12" d="M128.8,178.4c0.5,5.5,7.3,22.6,5.5,29.2c-4.6,16.4-3.7,35.9,2.7,53.5s3.3,21.8,1.4,22.9
					c-0.8,0.5-6.3,3.5-9.6,2.9c-4.8-0.8-8.3-5.2-13.8-2.9c-9.3,3.9-20,15.7-25.5,2.9c-4.7-11-11.9-24.6-5-44.7
					c4.1-11.9,1.9-28.9,6.8-42.9c6.4-18.2,4.1-18.1,4.6-21"/>
				<path class="st13" d="M209.4,261.2h-82c-2,0-3.8,1.2-4.5,3.1c0.6-0.2,1.2-0.3,1.8-0.4h82c2.7,0,4.9,2.2,4.9,4.9V385
					c0,0.6-0.1,1.2-0.4,1.8c1.9-0.7,3.1-2.5,3.1-4.5V266.1C214.2,263.4,212,261.2,209.4,261.2z"/>
				<path class="st14" d="M211.5,268.8c0-2.7-2.2-4.9-4.9-4.9h-82c-0.6,0-1.2,0.1-1.8,0.4c-0.2,0.6-0.3,1.2-0.3,1.8v116.2
					c0,2.7,2.2,4.9,4.9,4.9h82c0.6,0,1.2-0.1,1.8-0.4c0.2-0.6,0.3-1.2,0.4-1.8L211.5,268.8z"/>
			</g>
		</g>
	</g>
	<path class="st1" d="M144.1,170c-1-3.9,3-8.4,8.9-10s11.7,0.3,12.7,4.3"/>
</g>
</svg>
