<svg xmlns="http://www.w3.org/2000/svg" xmlns:xlink="http://www.w3.org/1999/xlink" viewBox="0 0 300 300"><defs><style>.cls-1{fill:none;}.cls-2{fill:#fff;}.cls-3{clip-path:url(#clip-path);}.cls-4{fill:#b1aee5;}.cls-5{fill:#746d89;}.cls-6{fill:#f9d4b8;}.cls-7{fill:#ebb897;}.cls-8{fill:#8582c4;}.cls-9{fill:#343438;}.cls-10{fill:#30323d;}</style><clipPath id="clip-path"><ellipse class="cls-1" cx="153.25" cy="144.32" rx="116.74" ry="116.9"/></clipPath></defs><g id="Layer_1" data-name="Layer 1"><circle class="cls-1" cx="153.25" cy="148.67" r="116.62"/><circle class="cls-1" cx="154.28" cy="144.59" r="116.62"/><circle class="cls-1" cx="153.25" cy="147.17" r="116.74"/><path class="cls-2" d="M145.59,180.66c-.55-2,2.7-4.62,7.26-5.88s8.7-.66,9.25,1.33"/><path class="cls-2" d="M144.06,174.44c-.83-4,3.42-8.25,9.48-9.5s11.64,1,12.47,5"/><g class="cls-3"><g id="Matteo"><path class="cls-4" d="M244.14,241.29s23.21,14.2,30,39.69c6.87,25.7,7.88,22.46,22.49,110.84-12.18,3.2-38.49,8.17-60.21,8.86C234.22,357.42,231.19,261.26,244.14,241.29Z"/><path class="cls-5" d="M115.6,196s30.69-8.7,70.9.49L185.86,220H115.71Z"/><path class="cls-6" d="M175.73,139.2s-1.47,53.57,0,59.23,9.2,12.29,28.15,21.84c0,0-4.18,55.17-39.84,54.43s-60.44-46.47-66.1-54.59c0,0,26.39-11,27.2-20.64,1-11.54,0-60.27,0-60.27Z"/><path class="cls-7" d="M150.28,192.37c12.1,0,20.52-8.3,25.24-14.82.07-11,.29-20.94.29-20.94H125.46s.42,9.92.61,20.43C130.12,183.62,137.86,192.37,150.28,192.37Z"/><path class="cls-4" d="M241.17,238.35s19.62,22.22,48,106.92c0,0-19.93,21-59.71,15.4C229.49,360.67,223.77,265.31,241.17,238.35Z"/><path class="cls-4" d="M242.28,471.33c3.57-1.71,9.36-7.1,8.84-11.9-.58-5.32-6.48-10.18-7-15.4-11.38-116.92-2.88-205.68-2.88-205.68-9.81-6-28-13.43-40.56-21.46l-.44-3.3c-6.83-8-13.67-16.81-13.67-16.81-1.71,8.29-5.56,21-12.6,40.55-1.81,5-1.64,7.52-2.27,11.59-1.07,7-6.88,17.8-6.88,17.8s-15-9.22-18.54-16.7c0,0,1.84-6.73-1-10.69-12-16.78-29.62-43.13-29.62-43.13-2.79,3.67-8.77,10.16-12.37,15.33a25.87,25.87,0,0,0,.36,3.85,394.12,394.12,0,0,0-45.33,23c-.53,6.33,17.06,137.89,22.25,203.11.49,6.14-5.28,9.07-5,13.69.31,5,6.86,11.49,9.42,15.06,0,0,46.9,6.46,93.1,5.83S242.28,471.33,242.28,471.33Z"/><path class="cls-8" d="M123.83,261.43l-.17,0a.84.84,0,0,1-.61-.49l-19.22-43.38a.86.86,0,0,1,1.57-.69l18.73,42.28,18.58-17.36a.86.86,0,0,1,1.21,0,.85.85,0,0,1,0,1.21L124.42,261.2A.86.86,0,0,1,123.83,261.43Z"/><path class="cls-8" d="M193.56,258.71a.86.86,0,0,1-.57-.21l-19.66-17.39a.86.86,0,1,1,1.14-1.28L193,256.18l5.54-36a.85.85,0,0,1,1-.72.86.86,0,0,1,.72,1L194.4,258a.84.84,0,0,1-.55.67A.74.74,0,0,1,193.56,258.71Z"/><path class="cls-8" d="M179.23,474.41h0c-.47,0-.86-.56-.87-1-.72-53-12-200.18-12.1-201.66a.91.91,0,0,1,.79-1,.86.86,0,0,1,.92.77c.11,1.48,11.38,148.83,12.1,201.85C180.06,473.84,179.69,474.41,179.23,474.41Z"/><path class="cls-6" d="M118.12,120.31s-2.07-6.08-10.2-5.37c-7.87.69-5.2,20.9,1.72,24.23s9.21-6.72,9.21-6.72Z"/><path class="cls-6" d="M187,120.31s2.07-6.08,10.21-5.37c7.86.69,5.2,20.9-1.73,24.23s-9.2-6.72-9.2-6.72Z"/><path class="cls-6" d="M193.71,118.71c-3.47,43.22-15.58,64-41.15,64s-37.83-17.14-41.14-64c-2.44-34.58,15.68-56,41.14-56S196.59,82.81,193.71,118.71Z"/><path class="cls-9" d="M121.35,117.2a1.53,1.53,0,0,1-.92-.48c-.63-.5-.47-1.14.1-1.69,2.39-2.32,10.68-5.78,16.84-2.31a1.32,1.32,0,0,1,.67,1.8c-.39.66-1.22.66-2.07.59a39.2,39.2,0,0,0-13.16,1.71A7.19,7.19,0,0,1,121.35,117.2Z"/><path class="cls-9" d="M184.65,116.25a1.51,1.51,0,0,0,.93-.53,1.35,1.35,0,0,0,0-2c-2.4-2.66-10.55-6.29-16.84-2.64a1.56,1.56,0,0,0-.67,2.06c.38.75,1.22.72,2.06.67a31.75,31.75,0,0,1,13.17,2A4.23,4.23,0,0,0,184.65,116.25Z"/><path class="cls-7" d="M151.94,150.62c-2.16-.07-3.87-.65-4.68-2.25-2.5-5,2.25-13,2.7-14,.31-.68.76-1.09,1.45-.78s.42,1.21.11,1.89c-1.45,3.23-2.35,9.2-1,11.48a1.87,1.87,0,0,0,1.66.92,1.38,1.38,0,0,1,1.24,1.47C153.35,150.69,152,150.62,151.94,150.62Z"/><path class="cls-10" d="M132.26,125a1.8,1.8,0,0,1-.84-.21,2.29,2.29,0,0,0-2.26-.17,1.79,1.79,0,0,1-2.47-.46,1.77,1.77,0,0,1,.47-2.46,5.84,5.84,0,0,1,5.94,0,1.78,1.78,0,0,1,.72,2.4A1.76,1.76,0,0,1,132.26,125Z"/><path class="cls-10" d="M171.62,123a1.77,1.77,0,0,0,.84-.21,2.32,2.32,0,0,1,2.27-.17,1.77,1.77,0,0,0,2-2.93,5.87,5.87,0,0,0-5.95,0,1.77,1.77,0,0,0,.84,3.33Z"/><path class="cls-10" d="M110.57,115.88s-16.21-61,25.17-55.83c0,0,13.88-16.5,37.22-4.11,28.32,15,23.54,38.87,22.23,59.94l-2.12,5.19s-.89-5.81-2.17-7.55-26-12.34-35.44-28.36c0,0,4.08,11.72,13.53,19.1A26.74,26.74,0,0,1,153.16,96s5,6.42,6.7,7.6c0,0-14.6-1.93-26.42-16.22,0,0-12.77,18.69-18.36,25.35,0,0-2.09,6.26-1.92,8.32C113.16,121.07,111.43,116.55,110.57,115.88Z"/><path class="cls-6" d="M47.81,471.43S-25.13,407.79-41.6,371c-13.51-30.22,88-108.58,88-108.58s9.36,10.68,12.84,24.29,6,27.38,6,27.38S11.84,356,6.81,359.53c0,0,9.79,30.25,48.08,88.94C54.89,448.47,58,466.18,47.81,471.43Z"/><path class="cls-4" d="M57.19,239.45c17.66,7.29,17.13,73.44,18.29,89.13,0,0-40.12,26.57-59.71,42.86-17.21-3.2-38.51-30-51.12-47.41C2.05,279.79,57.19,239.45,57.19,239.45Z"/><path class="cls-8" d="M67.21,303.62c.57,0,1.14.09,1.7.16.57-5.55,1.06-10.61,1.31-13.73a274.29,274.29,0,0,0,.41-37.24H69a271.8,271.8,0,0,1-.44,37.09C68.27,293,67.77,298.07,67.21,303.62Z"/><path class="cls-10" d="M194.84,115.43s-2.45,29.44-6,40.33-8.8,27.61-35.91,27.61-33.63-20.59-36-27.67c-3-8.91-5.8-26.5-6.61-38.36l3.51-3.74s.93,27.28,12.9,37.68c8.54,7.42.75,22.81,20.55,22.81,1.67,0,5.24-7.29,5.85-7.29s4.11,7.34,5.8,7.34c20.12,0,13.57-13.78,21.51-23.14,7.29-8.59,8.15-11.56,11.14-31.9Z"/><path class="cls-10" d="M153.62,150.72s17.76-1.22,19.6,6.44A33.48,33.48,0,0,0,178.28,169l-11.83,4.61s3.73-15.75-1.12-16.93-21.37-1.38-24.84.1-1,16.83-1,16.83l-11.48-4.84s5.09-7.69,6.33-11.62C136.18,151.37,143.39,150,153.62,150.72Z"/></g></g><path class="cls-2" d="M143.85,166.48c-.94-3.45,2.54-7.4,7.77-8.82s10.24.22,11.18,3.67"/></g></svg>