<?xml version="1.0" encoding="utf-8"?>
<!-- Generator: Adobe Illustrator 25.2.1, SVG Export Plug-In . SVG Version: 6.00 Build 0)  -->
<svg version="1.1" id="Layer_1" xmlns="http://www.w3.org/2000/svg" xmlns:xlink="http://www.w3.org/1999/xlink" x="0px" y="0px"
	 viewBox="0 0 300 300" style="enable-background:new 0 0 300 300;" xml:space="preserve">
<style type="text/css">
	.st0{fill:none;}
	.st1{fill:#FFFFFF;}
	.st2{clip-path:url(#SVGID_2_);}
	.st3{fill:#B1AEE5;}
	.st4{fill:#746D89;}
	.st5{fill:#F9D4B8;}
	.st6{fill:#EBB897;}
	.st7{fill:#8582C4;}
	.st8{fill:#343438;}
	.st9{fill:#30323D;}
</style>
<circle class="st0" cx="153.2" cy="148.7" r="116.6"/>
<circle class="st0" cx="154.3" cy="144.6" r="116.6"/>
<circle class="st0" cx="153.2" cy="147.2" r="116.7"/>
<path class="st1" d="M145.6,180.7c-0.6-2,2.7-4.6,7.3-5.9s8.7-0.7,9.2,1.3"/>
<path class="st1" d="M144.1,174.4c-0.8-4,3.4-8.2,9.5-9.5s11.6,1,12.5,5"/>
<g>
	<defs>
		<ellipse id="SVGID_1_" cx="153.2" cy="144.3" rx="116.7" ry="116.9"/>
	</defs>
	<clipPath id="SVGID_2_">
		<use xlink:href="#SVGID_1_"  style="overflow:visible;"/>
	</clipPath>
	<g class="st2">
		<g id="Matteo">
			<path class="st3" d="M244.1,241.3c0,0,23.2,14.2,30,39.7c6.9,25.7,7.9,22.5,22.5,110.8c-12.2,3.2-38.5,8.2-60.2,8.9
				C234.2,357.4,231.2,261.3,244.1,241.3z"/>
			<path class="st4" d="M115.6,196c0,0,30.7-8.7,70.9,0.5l-0.6,23.5h-70.2L115.6,196z"/>
			<path class="st5" d="M175.7,139.2c0,0-1.5,53.6,0,59.2s9.2,12.3,28.1,21.8c0,0-4.2,55.2-39.8,54.4s-60.4-46.5-66.1-54.6
				c0,0,26.4-11,27.2-20.6c1-11.5,0-60.3,0-60.3L175.7,139.2z"/>
			<path class="st6" d="M150.3,192.4c12.1,0,20.5-8.3,25.2-14.8c0.1-11,0.3-20.9,0.3-20.9h-50.3c0,0,0.4,9.9,0.6,20.4
				C130.1,183.6,137.9,192.4,150.3,192.4z"/>
			<path class="st3" d="M241.2,238.4c0,0,19.6,22.2,48,106.9c0,0-19.9,21-59.7,15.4C229.5,360.7,223.8,265.3,241.2,238.4z"/>
			<path class="st3" d="M242.3,471.3c3.6-1.7,9.4-7.1,8.8-11.9c-0.6-5.3-6.5-10.2-7-15.4c-11.4-116.9-2.9-205.7-2.9-205.7
				c-9.8-6-28-13.4-40.6-21.5l-0.4-3.3c-6.8-8-13.7-16.8-13.7-16.8c-1.7,8.3-5.6,21-12.6,40.6c-1.8,5-1.6,7.5-2.3,11.6
				c-1.1,7-6.9,17.8-6.9,17.8s-15-9.2-18.5-16.7c0,0,1.8-6.7-1-10.7c-12-16.8-29.6-43.1-29.6-43.1c-2.8,3.7-8.8,10.2-12.4,15.3
				c0,1.3,0.1,2.6,0.4,3.9c-15.6,6.7-30.7,14.4-45.3,23c-0.5,6.3,17.1,137.9,22.2,203.1c0.5,6.1-5.3,9.1-5,13.7
				c0.3,5,6.9,11.5,9.4,15.1c0,0,46.9,6.5,93.1,5.8S242.3,471.3,242.3,471.3z"/>
			<path class="st7" d="M123.8,261.4h-0.2c-0.3-0.1-0.5-0.2-0.6-0.5l-19.2-43.4c-0.2-0.4,0.1-0.9,0.5-1.1c0.4-0.1,0.8,0,1,0.4
				l18.7,42.3l18.6-17.4c0.3-0.3,0.9-0.3,1.2,0c0.3,0.3,0.3,0.9,0,1.2c0,0,0,0,0,0l-19.5,18.2C124.3,261.3,124,261.4,123.8,261.4z"
				/>
			<path class="st7" d="M193.6,258.7c-0.2,0-0.4-0.1-0.6-0.2l-19.7-17.4c-0.4-0.3-0.5-0.8-0.2-1.2s0.8-0.5,1.2-0.2
				c0,0,0.1,0.1,0.1,0.1l18.5,16.3l5.5-36c0.1-0.5,0.5-0.8,1-0.7c0,0,0,0,0,0c0.5,0.1,0.8,0.5,0.7,1c0,0,0,0,0,0l-5.9,37.5
				c0,0.3-0.3,0.6-0.6,0.7C193.8,258.7,193.7,258.7,193.6,258.7z"/>
			<path class="st7" d="M179.2,474.4L179.2,474.4c-0.5,0-0.9-0.6-0.9-1c-0.7-53-12-200.2-12.1-201.7c-0.1-0.5,0.3-0.9,0.8-1
				c0.5,0,0.9,0.3,0.9,0.8c0.1,1.5,11.4,148.8,12.1,201.9C180.1,473.8,179.7,474.4,179.2,474.4z"/>
			<path class="st5" d="M118.1,120.3c0,0-2.1-6.1-10.2-5.4c-7.9,0.7-5.2,20.9,1.7,24.2s9.2-6.7,9.2-6.7L118.1,120.3z"/>
			<path class="st5" d="M187,120.3c0,0,2.1-6.1,10.2-5.4c7.9,0.7,5.2,20.9-1.7,24.2s-9.2-6.7-9.2-6.7L187,120.3z"/>
			<path class="st5" d="M193.7,118.7c-3.5,43.2-15.6,64-41.2,64s-37.8-17.1-41.1-64c-2.4-34.6,15.7-56,41.1-56
				S196.6,82.8,193.7,118.7z"/>
			<path class="st8" d="M121.3,116.2c-0.4,0-0.6-0.3-0.9-0.6c-0.6-0.6-0.5-1.3,0.1-1.9c2.4-2.7,10.7-6.6,16.8-2.6
				c0.7,0.4,1,1.3,0.7,2.1c-0.4,0.8-1.2,0.8-2.1,0.7c-6.4-0.6-13.1,1.9-13.2,2C122.3,116,121.9,116.1,121.3,116.2z"/>
			<path class="st8" d="M184.6,116.2c0.4-0.1,0.7-0.2,0.9-0.5c0.6-0.5,0.6-1.4,0.1-1.9c0,0-0.1-0.1-0.1-0.1
				c-2.4-2.7-10.6-6.3-16.8-2.6c-0.7,0.4-1,1.3-0.7,2.1c0.4,0.8,1.2,0.7,2.1,0.7c4.5-0.3,9,0.4,13.2,2
				C183.7,116,184.2,116.2,184.6,116.2z"/>
			<path class="st6" d="M151.9,150.6c-2.2-0.1-3.9-0.6-4.7-2.2c-2.5-5,2.2-13,2.7-14c0.3-0.7,0.8-1.1,1.4-0.8s0.4,1.2,0.1,1.9
				c-1.4,3.2-2.4,9.2-1,11.5c0.3,0.6,1,0.9,1.7,0.9c0.7,0.1,1.3,0.7,1.2,1.5C153.4,150.7,152,150.6,151.9,150.6z"/>
			<path class="st9" d="M132.3,123c-0.3,0-0.6-0.1-0.8-0.2c-0.7-0.5-1.5-0.5-2.3-0.2c-0.8,0.5-1.9,0.3-2.5-0.5
				c-0.5-0.8-0.3-1.9,0.5-2.5c0,0,0,0,0,0c1.8-1.1,4.1-1.1,5.9,0c0.9,0.5,1.2,1.5,0.7,2.4C133.5,122.7,132.9,123,132.3,123z"/>
			<path class="st9" d="M171.6,123c0.3,0,0.6-0.1,0.8-0.2c0.7-0.4,1.5-0.5,2.3-0.2c0.8,0.6,1.9,0.3,2.5-0.5c0.6-0.8,0.3-1.9-0.5-2.5
				c-1.8-1.1-4.1-1.1-5.9,0c-0.9,0.5-1.2,1.5-0.7,2.4C170.4,122.7,171,123,171.6,123L171.6,123z"/>
			<path class="st9" d="M110.6,115.9c0,0-16.2-61,25.2-55.8c0,0,13.9-16.5,37.2-4.1c28.3,15,23.5,38.9,22.2,59.9l-2.1,5.2
				c0,0-0.9-5.8-2.2-7.6s-26-12.3-35.4-28.4c0,0,4.1,11.7,13.5,19.1c-6.1-0.9-11.7-3.8-15.8-8.3c0,0,5,6.4,6.7,7.6
				c0,0-14.6-1.9-26.4-16.2c0,0-12.8,18.7-18.4,25.3c0,0-2.1,6.3-1.9,8.3C113.2,121.1,111.4,116.6,110.6,115.9z"/>
			<path class="st5" d="M47.8,471.4c0,0-72.9-63.6-89.4-100.4c-13.5-30.2,88-108.6,88-108.6s9.4,10.7,12.8,24.3s6,27.4,6,27.4
				S11.8,356,6.8,359.5c0,0,9.8,30.2,48.1,88.9C54.9,448.5,58,466.2,47.8,471.4z"/>
			<path class="st3" d="M57.2,239.4c17.7,7.3,17.1,73.4,18.3,89.1c0,0-40.1,26.6-59.7,42.9c-17.2-3.2-38.5-30-51.1-47.4
				C2,279.8,57.2,239.4,57.2,239.4z"/>
			<path class="st7" d="M67.2,303.6c0.6,0,1.1,0.1,1.7,0.2c0.6-5.5,1.1-10.6,1.3-13.7c1-12.4,1.1-24.8,0.4-37.2H69
				c0.7,12.4,0.6,24.8-0.4,37.1C68.3,293,67.8,298.1,67.2,303.6z"/>
			<path class="st9" d="M194.8,115.4c0,0-2.4,29.4-6,40.3s-8.8,27.6-35.9,27.6s-33.6-20.6-36-27.7c-3-8.9-5.8-26.5-6.6-38.4l3.5-3.7
				c0,0,0.9,27.3,12.9,37.7c8.5,7.4,0.8,22.8,20.6,22.8c1.7,0,5.2-7.3,5.9-7.3s4.1,7.3,5.8,7.3c20.1,0,13.6-13.8,21.5-23.1
				c7.3-8.6,8.1-11.6,11.1-31.9L194.8,115.4z"/>
			<path class="st9" d="M153.6,150.7c0,0,17.8-1.2,19.6,6.4c0.9,4.2,2.6,8.3,5.1,11.8l-11.8,4.6c0,0,3.7-15.8-1.1-16.9
				s-21.4-1.4-24.8,0.1s-1,16.8-1,16.8l-11.5-4.8c0,0,5.1-7.7,6.3-11.6C136.2,151.4,143.4,150,153.6,150.7z"/>
		</g>
	</g>
</g>
<path class="st1" d="M164.1,157.9c0,4.1-5,7.4-11.2,7.4s-11.2-3.3-11.2-7.4"/>
</svg>
