<?xml version="1.0" encoding="utf-8"?>
<!-- Generator: Adobe Illustrator 25.2.1, SVG Export Plug-In . SVG Version: 6.00 Build 0)  -->
<svg version="1.1" id="Layer_1" xmlns="http://www.w3.org/2000/svg" xmlns:xlink="http://www.w3.org/1999/xlink" x="0px" y="0px"
	 viewBox="0 0 300 300" style="enable-background:new 0 0 300 300;" xml:space="preserve">
<style type="text/css">
	.st0{clip-path:url(#SVGID_2_);}
	.st1{fill:#393A3C;}
	.st2{fill:#F8F7F8;}
	.st3{fill:#40C9E5;}
	.st4{fill:none;}
	.st5{fill:#FFFFFF;}
	.st6{clip-path:url(#SVGID_4_);}
	.st7{fill:#C46237;}
	.st8{fill:#EAB8AC;}
	.st9{fill:#CC9992;}
	.st10{fill:#23242B;}
	.st11{fill:#D87341;}
	.st12{fill:#FF5D54;}
	.st13{fill:#FF8D94;}
	.st14{fill:#E8E8EF;}
	.st15{fill:#E29B98;}
</style>
<g id="Layer_1_1_">
	<g>
		<defs>
			<ellipse id="SVGID_1_" cx="153.2" cy="-634.6" rx="116.7" ry="116.9"/>
		</defs>
		<clipPath id="SVGID_2_">
			<use xlink:href="#SVGID_1_"  style="overflow:visible;"/>
		</clipPath>
		<g class="st0">
			<g id="Eric">
				<path class="st1" d="M277.5,276.6c-9.7,5.4-29.3,5-41.7,3.6s-7.4-11.4-3.2-24.6s3.1-27.1,3.1-27.1s42.2-0.8,45,8.3
					S287.2,271.2,277.5,276.6z"/>
				<path class="st2" d="M277.5,284.7c-9.7,6.3-29.4,6.1-41.7,4.2c-10.3-1.6-10.5-7.7-7.8-16.3c-0.1,4.1,1.8,6.8,7.8,7.5
					c12.4,1.4,32,1.8,41.7-3.6c4.3-2.4,6-8.7,6.2-15.8C284,271.1,282.7,281.4,277.5,284.7z"/>
				<path class="st2" d="M173.1,220.8c0,15.7-7.6,18.3-25.9,17s-29.7,4.4-40.4,9.9s-34.6,8-47.8,5.1s-11.1-14.9-11.1-14.9
					S173.1,205.2,173.1,220.8z"/>
				<path class="st1" d="M171.7,211.7c0,0,4,10.4-1.5,16.3s-25.9,0.6-42.2,3.9s-21,14-45.8,15.7s-35.8-4.6-34.6-13
					s30.1-19.4,45.6-22.8s31-22.2,31-22.2L171.7,211.7z"/>
				<path class="st3" d="M289.9,247.1c-33.4-2.2-65.5-6.5-64-14.5l-48.6-284l-1.5,271.6c-34.4,16.2-69.4-19.4-69.4-19.4l-54-374.4
					L80-198.5c0,0,208.3-57.7,215.8,8.3S289.9,247.1,289.9,247.1z"/>
			</g>
		</g>
	</g>
	<circle class="st4" cx="154.3" cy="144.6" r="116.6"/>
	<circle class="st4" cx="153.2" cy="147.2" r="116.7"/>
	<path class="st5" d="M145.6,180.7c-0.6-2,2.7-4.6,7.3-5.9s8.7-0.7,9.2,1.3"/>
	<path class="st5" d="M144.1,174.4c-0.8-4,3.4-8.2,9.5-9.5s11.6,1,12.5,5"/>
	<path class="st5" d="M143.1,168.1c-1.1-3.9,2.9-8.4,8.9-10.1s11.7,0.2,12.8,4.2"/>
	<path class="st5" d="M146.1,181.6c0.7-4.1,6.2-6.5,12.4-5.4s10.6,5.2,9.9,9.2"/>
	<ellipse class="st4" cx="153.2" cy="144.3" rx="116.7" ry="116.9"/>
	<path class="st5" d="M143.2,187.4c1.4-3.8,7.2-5.3,13-3.2s9.4,6.9,8.1,10.7"/>
	<path class="st5" d="M145.5,162.5c-1.3-3.9,2.5-8.6,8.4-10.5s11.7-0.3,12.9,3.5"/>
	<path class="st5" d="M157.9,180.2c-1.4-3.9,2.3-8.6,8.1-10.7s11.7-0.6,13,3.3"/>
	<path class="st5" d="M143,175.9c-1-3.1,3.1-7,8.9-8.9s11.5-0.9,12.4,2.2"/>
	<path class="st5" d="M143.3,164.3c0.7-4,6.2-6.5,12.3-5.4s10.5,5.1,9.8,9.2"/>
	<g>
		<defs>
			<circle id="SVGID_3_" cx="153.2" cy="144.7" r="116.6"/>
		</defs>
		<clipPath id="SVGID_4_">
			<use xlink:href="#SVGID_3_"  style="overflow:visible;"/>
		</clipPath>
		<g class="st6">
			<g id="Morwenna">
				<path class="st7" d="M133.5,61.9c-4.8,4.6-0.5,12.1,2.3,16c-0.8-4.1-0.9-8.3-0.2-12.4c0.4-2.8,1.4-5.4,3-7.8
					c-0.9-3.7-0.8-11.3,12.1-14.2c0,0-11.5,4.9-11.7,13.6c3.2-4.3,8.3-7.9,14.7-12.2c10.1-6.6,14.4,4.4,21,6.6s9.9,8.2,11.7,18.6
					c0.5,2.7,0.2,5.4-0.9,7.9c6.3-6.8,0.7-17.4,0.7-17.4c8.1,11.6,1.6,16.8-1.2,18.4c-2.2,3.7-5.9,5.4-6.6,6.3
					c-4.9,7.3-30.6,7.3-36.8,2.2c-2.8-2.3-4.7-5.3-5.6-8.8C123.8,67,133.5,61.9,133.5,61.9L133.5,61.9z"/>
				<path class="st8" d="M135.5,177.4c0,0,1.2,27.2,0,31.6s-12,11.6-23.2,16.9c0,0,14.3,19.6,42.4,19s33.2-12.2,37.7-18.6
					c0,0-19.4-7.3-20-16.4s0-32.4,0-32.4L135.5,177.4z"/>
				<path class="st9" d="M153.7,203c8.9,0,15-5.8,18.5-10.5c0.1-8.1,0.2-15,0.2-15h-36.9c0,0,0.3,6.9,0.4,14.6
					C138.9,196.9,144.6,203,153.7,203L153.7,203z"/>
				<path class="st8" d="M193.2,138.4c-3.2,39.9-18.5,59.1-38,59.1s-35-15.8-38-59.1c-2.2-31.9,14.5-51.7,38-51.7
					S195.9,105.2,193.2,138.4z"/>
				<path class="st10" d="M136.8,147.4c0,1.9-1.1,3.5-2.4,3.5s-2.4-1.6-2.4-3.5s1.1-3.5,2.4-3.5S136.8,145.5,136.8,147.4z"/>
				<path class="st10" d="M177.5,147.4c0,1.9-1.1,3.5-2.4,3.5s-2.4-1.6-2.4-3.5s1.1-3.5,2.4-3.5S177.5,145.5,177.5,147.4z"/>
				<path class="st11" d="M126,143.2c-0.4,0-0.7-0.2-0.9-0.4c-0.5-0.6-0.5-1.5,0.1-2c0,0,0,0,0,0c2.4-2.3,8.3-7,15.7-1.2
					c0.7,0.4,0.9,1.3,0.5,2c-0.4,0.7-1.2,0.7-1.9,0.5c-4.1-1-8.4-0.7-12.3,0.8C126.8,143.1,126.4,143.3,126,143.2L126,143.2z"/>
				<path class="st11" d="M184.4,138.6c0.4,0,0.7-0.1,0.9-0.4c0.6-0.5,0.6-1.4,0.1-2c-2.3-2.4-7.9-7.4-15.6-2.1
					c-0.7,0.4-0.9,1.2-0.6,1.9c0.4,0.7,1.1,0.7,1.9,0.6c4.1-0.9,8.4-0.4,12.2,1.5C183.6,138.4,184,138.6,184.4,138.6L184.4,138.6z"
					/>
				<path class="st9" d="M154.6,167.9c-2-0.1-3.6-0.6-4.3-2.1c-2.3-4.6,2.1-12,2.5-12.9c0.3-0.6,0.7-1,1.3-0.7s0.4,1.1,0.1,1.7
					c-1.3,3-2.2,8.5-0.9,10.6c0.3,0.5,0.9,0.9,1.5,0.9c0.7,0.1,1.2,0.7,1.1,1.4C155.9,167.9,154.7,167.9,154.6,167.9L154.6,167.9z"
					/>
				<path class="st11" d="M169.3,104.7c0,0-0.4,15-5.8,22.9c0,0-9,1.1-12.7,1.8c0,0,2.5-13.3,2.1-22.6c0,0-2.5,16.9-8.1,23.9
					c0,0-16.4,1.1-22.3,11.4c0,0-0.3,1.4-0.7,17.9c-4.9-2.9-8.3-7.7-9.4-13.2c-6.7-29.7-9.1-35.4,13-60.1c13.5-15.1,38.8-9,46.3-3
					c0,0,34.7-0.7,30.8,39.4c-2.8,29-11.7,33.4-11.7,33.4c-4.3-11.4-3.6-16.9-3.2-22.3S184,113.1,169.3,104.7L169.3,104.7z"/>
				<path class="st8" d="M187,143.8c0,0,1.9-5.6,9.4-5c7.3,0.6,4.8,19.3-1.6,22.4s-8.5-6.2-8.5-6.2L187,143.8z"/>
				<path class="st8" d="M123.4,143.8c0,0-1.9-5.6-9.4-5c-7.3,0.6-4.8,19.3,1.6,22.4s8.5-6.2,8.5-6.2L123.4,143.8L123.4,143.8z"/>
				<path class="st12" d="M78.3,249.3c0,0-16.5,15.6-19.8,44.3c-3,26.1-8.3,56.5-13.8,103.6c0,0-14.3,51.1-13.4,116.4c0,0,2,7,5.5,8
					c-0.1,4.2-0.3,17.8-0.3,19.9c0,0,15.5,7.6,30.6,0.7c0,0,1.1-13.7,1.3-18.2c1.9-0.2,7-5.8,7.5-10.7c0,0,6.9-68.4,11.3-97.1
					c2.2-14.6,11.1-46.6,13.8-88C103.6,289.2,96.2,253.6,78.3,249.3L78.3,249.3z"/>
				<path class="st12" d="M127.8,217.9c0,0,23,14.8,52.7-0.9c0,0,34.3,19.3,51.6,32.4c0,0-14,60.9-21.7,112.8
					c-0.5,3.3,5.7,5.2,3.8,11.6c-0.7,2.3-5.6,4.9-5.6,4.9s-71.1,16.4-116,0.2c-2.9-0.9-4.9-3.4-5.3-6.4c-0.3-2.1,4-6.7,3.6-9.5
					C85.1,328.4,77.8,256,78.3,249.3C92.5,235.6,109.4,224.9,127.8,217.9z"/>
				<path class="st13" d="M92,379.3c0.1-0.5,0.3-1,0.5-1.4c-2.4-0.9-4.2-3.1-4.5-5.6c-0.1-0.7,0.8-2.2,1.5-3.6c1.2-2,2.3-4.1,2-5.9
					c-4-24.4-8.8-68-11.1-93.6c-0.5,0.3-1.1,0.5-1.7,0.7c2.3,25.8,7.1,68.9,11,93.2c0.2,1.2-0.9,3.1-1.8,4.8c-1.1,1.8-2,3.4-1.7,4.7
					c0.4,3.2,2.6,5.9,5.7,7L92,379.3L92,379.3z"/>
				<path class="st13" d="M163.7,251.7l-13.2-24.6L135,251.4L122.5,220c1.7-0.8,3.5-1.5,5.3-2.1c0,0,23,14.8,52.7-0.9
					c0,0,1.2,0.7,3.2,1.9l0,0L163.7,251.7L163.7,251.7z"/>
				<polygon class="st12" points="131.5,202.9 150.4,222.9 176.9,203.8 184.6,217.6 163.8,244.8 150.6,225.4 135.6,244.8 
					121.4,217.8 131.5,202.9 				"/>
				<path class="st13" d="M149.3,381.7c-0.5,0-0.9-0.4-0.9-0.8c-3.7-67.3,1.3-150.2,1.3-151c0.1-0.5,0.5-0.8,1-0.8
					c0.4,0.1,0.8,0.4,0.8,0.9c-0.1,0.8-5,83.6-1.3,150.8C150.2,381.2,149.8,381.7,149.3,381.7C149.3,381.7,149.3,381.7,149.3,381.7
					L149.3,381.7z"/>
				<path class="st12" d="M232,249.3c0,0,21.3,23.8,40.4,71.8c19.4,48.7,24.1,64.3,13.3,72c-18.9,13.6-41.7-24-68-75.1
					C217.7,318,211.7,275.1,232,249.3L232,249.3z"/>
				<polygon class="st14" points="182.8,266.1 276.6,266.1 241.9,366.9 155.4,366.9 182.8,266.1 				"/>
				<circle class="st15" cx="133.7" cy="166.9" r="1.4"/>
				<circle class="st15" cx="138.4" cy="161.2" r="1.4"/>
				<circle class="st15" cx="128.1" cy="161.2" r="1.4"/>
				<circle class="st15" cx="175.2" cy="166.9" r="1.4"/>
				<circle class="st15" cx="179.9" cy="161.2" r="1.4"/>
				<circle class="st15" cx="169.6" cy="161.2" r="1.4"/>
			</g>
		</g>
	</g>
	<path class="st5" d="M144,186.4c-0.8-4,3.5-8.2,9.6-9.4s11.6,1.1,12.4,5.1"/>
</g>
</svg>
