<?xml version="1.0" encoding="utf-8"?>
<!-- Generator: Adobe Illustrator 25.2.1, SVG Export Plug-In . SVG Version: 6.00 Build 0)  -->
<svg version="1.1" id="Layer_1" xmlns="http://www.w3.org/2000/svg" xmlns:xlink="http://www.w3.org/1999/xlink" x="0px" y="0px"
	 viewBox="0 0 300 300" style="enable-background:new 0 0 300 300;" xml:space="preserve">
<style type="text/css">
	.st0{clip-path:url(#SVGID_2_);}
	.st1{fill:#EFEFEF;}
	.st2{fill:#C98B53;}
	.st3{fill:#995925;}
	.st4{fill:#4C4C4C;}
	.st5{fill:none;}
	.st6{fill:#FFFFFF;}
	.st7{clip-path:url(#SVGID_4_);}
	.st8{fill:#DFAE8F;}
	.st9{fill:#C6947E;}
	.st10{fill:#E5E7EF;}
	.st11{fill:#1BAB9E;}
	.st12{fill:#CDD0DB;}
	.st13{fill:#30423F;}
	.st14{fill:#546B68;}
	.st15{fill:#22232B;}
	.st16{fill:#D7D7E0;}
	.st17{fill:#CD6465;}
	.st18{fill:#CACAD4;}
	.st19{fill:#30323D;}
</style>
<g id="Layer_1_1_">
	<g>
		<defs>
			<ellipse id="SVGID_1_" cx="153.2" cy="-667.3" rx="116.7" ry="116.9"/>
		</defs>
		<clipPath id="SVGID_2_">
			<use xlink:href="#SVGID_1_"  style="overflow:visible;"/>
		</clipPath>
		<g class="st0">
			<g id="Matteo">
				<polygon class="st1" points="121.2,146.2 117.1,172.8 92.7,171.6 94.3,142.5 				"/>
				<path class="st2" d="M109.3,205.1c0,0-4.8,11.9-19.1,9.6s-11.6-14.6-11.6-14.6L109.3,205.1z"/>
				<path class="st3" d="M81.1,188.5c3.4-7.3,11.9-21.7,11.9-21.7c12.9-7.6,20.9-2.3,24.5,1.2l0.2,0.2l0.7-3.6c0,0,0.6,7.4-1,11.9
					l0,0c-0.8,2.5-4.2,7.1-4.8,17.5c-0.9,15.7-12.6,19.7-24.6,16.9S77.7,195.8,81.1,188.5z"/>
				<path class="st2" d="M110.3,174c0.3,0,0.6-0.1,0.8-0.2c0.4-0.2,0.6-0.8,0.4-1.2c0-0.1-0.1-0.2-0.2-0.3
					c-0.2-0.2-5.6-5.4-16.2-2.5c-0.7,0.2-1.1,0.8-0.8,1.3c0.3,0.6,1.1,0.9,1.7,0.6c8.8-2.4,13.2,1.8,13.2,1.9
					C109.6,173.9,110,174,110.3,174z"/>
				<path class="st2" d="M108.3,179.2c0.3,0,0.6-0.1,0.8-0.2c0.4-0.2,0.6-0.7,0.4-1.2c0-0.1-0.1-0.2-0.2-0.3
					c-0.2-0.2-5.6-5.4-16.2-2.5c-0.5,0.1-0.9,0.6-0.9,1.1c0,0.1,0,0.1,0.1,0.2c0.4,0.6,1.1,0.8,1.7,0.6c8.8-2.4,13.2,1.8,13.2,1.9
					C107.6,179.1,108,179.2,108.3,179.2z"/>
				<path class="st2" d="M106.3,184.4c0.3,0,0.6-0.1,0.8-0.2c0.4-0.2,0.6-0.8,0.4-1.2c0-0.1-0.1-0.2-0.2-0.3
					c-0.2-0.2-5.6-5.4-16.2-2.5c-0.5,0.1-0.9,0.6-0.9,1.1c0,0.1,0,0.1,0.1,0.2c0.4,0.6,1.1,0.8,1.7,0.6c8.8-2.4,13.2,1.8,13.2,1.9
					C105.6,184.3,106,184.4,106.3,184.4z"/>
				<polygon class="st1" points="218.3,143.7 217.9,173.4 191.1,173.4 190.6,143.7 				"/>
				<path class="st2" d="M187.8,183l0.5,7.3c4.8,2.7,10.2,4.1,15.7,3.9c0,0,8.5-3,13.2,1.2c9,7.9,37.9,14.1,40.9,3.5L187.8,183z"/>
				<path class="st3" d="M188.6,165.2c0,0-3.6,17.1-0.7,19.5s21.8,5.6,31.3,10.4s38.2,10.2,39.5,2s-10.4-13.3-18.4-16.4
					s-16-14.2-20.2-15.5c0,0-2.3-1.9-10.9,4C204.9,172.2,193.5,162.8,188.6,165.2z"/>
				<path class="st2" d="M217.9,174.6c0.4,0,0.8-0.2,1.1-0.5c1.7-2.3,4.2-3.7,7-4.1c0.7,0,1.3-0.7,1.3-1.4c0-0.7-0.7-1.3-1.4-1.3
					c-3.6,0.4-6.9,2.2-9,5.1c-0.4,0.6-0.3,1.4,0.2,1.9C217.3,174.5,217.6,174.6,217.9,174.6z"/>
				<path class="st2" d="M222.6,179.2c0.4,0,0.8-0.2,1.1-0.5c1.7-2.3,4.2-3.7,7-4.1c0.7,0,1.3-0.7,1.3-1.4c0-0.7-0.7-1.3-1.4-1.2
					c-3.6,0.4-6.8,2.2-9,5.1c-0.5,0.6-0.3,1.4,0.2,1.9c0,0,0,0,0,0C222,179.1,222.3,179.2,222.6,179.2z"/>
				<path class="st2" d="M226.6,183.2c0.4,0,0.8-0.2,1-0.5c1.7-2.3,4.2-3.7,7-4.1c0.7,0,1.3-0.7,1.3-1.4c0-0.7-0.7-1.3-1.4-1.3
					c-3.6,0.4-6.9,2.2-9,5.1c-0.5,0.6-0.4,1.4,0.2,1.9c0,0,0,0,0,0C225.9,183.1,226.2,183.2,226.6,183.2z"/>
				<path class="st4" d="M131.7,152.7c2.6-29.7,34.9-325.5,37.9-362.5c0,0,5.5,239.2,10.4,362.5H231
					c4.8-105.9,24.2-393.2,19.1-501.2H85.2c0,0-3.7,386.4-4,501.2L131.7,152.7z"/>
			</g>
		</g>
	</g>
	<circle class="st5" cx="154.3" cy="144.6" r="116.6"/>
	<circle class="st5" cx="153.2" cy="147.2" r="116.7"/>
	<path class="st6" d="M145.6,180.7c-0.6-2,2.7-4.6,7.3-5.9s8.7-0.7,9.2,1.3"/>
	<path class="st6" d="M144.1,174.4c-0.8-4,3.4-8.2,9.5-9.5s11.6,1,12.5,5"/>
	<path class="st6" d="M143.1,168.1c-1.1-3.9,2.9-8.4,8.9-10.1s11.7,0.2,12.8,4.2"/>
	<path class="st6" d="M146.1,181.6c0.7-4.1,6.2-6.5,12.4-5.4s10.6,5.2,9.9,9.2"/>
	<ellipse class="st5" cx="153.2" cy="144.3" rx="116.7" ry="116.9"/>
	<path class="st6" d="M143.2,187.4c1.4-3.8,7.2-5.3,13-3.2s9.4,6.9,8.1,10.7"/>
	<path class="st6" d="M145.5,162.5c-1.3-3.9,2.5-8.6,8.4-10.5s11.7-0.3,12.9,3.5"/>
	<path class="st6" d="M157.9,180.2c-1.4-3.9,2.3-8.6,8.1-10.7s11.7-0.6,13,3.3"/>
	<g>
		<defs>
			<circle id="SVGID_3_" cx="153.2" cy="144.7" r="116.6"/>
		</defs>
		<clipPath id="SVGID_4_">
			<use xlink:href="#SVGID_3_"  style="overflow:visible;"/>
		</clipPath>
		<g class="st7">
			<g id="Paul">
				<path class="st8" d="M180,163.5c0,0-1.6,38.1,0,44.4s16.9,16.3,32.5,23.6c0,0-20.1,27.4-59.3,26.6s-49.2-17.1-55.4-26
					c0,0,29.9-10.3,30.7-23.1s0-45.5,0-45.5L180,163.5z"/>
				<path class="st9" d="M154.5,199.4c-12.4,0-21.1-8.1-25.9-14.8c-0.1-11.3-0.3-21.1-0.3-21.1H180c0,0-0.4,9.8-0.6,20.6
					C175.2,190.9,167.3,199.4,154.5,199.4z"/>
				<path class="st10" d="M125.4,218.4c0,0,27.3,19.8,61.8,0c0,0,46.8,26.1,65.5,37.5c0,0-6.9,184.5-10.7,239.8c0,0-90.5,11.4-173,0
					c0,0-10.8-230.7-10-239.8C58.9,255.9,98.3,231,125.4,218.4z"/>
				<path class="st11" d="M171.2,234.9l-7.1,12.5c0,0,25.6,137.8,14.8,218.4l-27,10.7c0,0-12.1-134.3,1.6-228.8l-7.5-11.5l12.2-14.3
					L171.2,234.9z"/>
				<polygon class="st12" points="126.4,201 158.1,221.9 182.5,203.3 189.8,218.6 172.7,238.5 158.1,224 144.6,240.3 120.5,220.6 
									"/>
				<path class="st13" d="M189.2,215.7c0,0,16.7,164.2,19.2,281.9c0,0,1.5,68.7,16.1,73.4s49.4-1,50.8-8s-21.2-80.5-22.4-106.9
					s8.9-197,8.9-197s-21.3-17.9-55-31.2c-0.5-1.4-1.1-2.7-1.9-4C204.1,222.6,189.6,213.6,189.2,215.7z"/>
				<path class="st14" d="M208.7,390.8c0.3,0,0.7-0.2,0.8-0.5c19-37.4,18-103.3,18-103.9V286l-17.3-15l13.1-9.8l-13.1-30.5
					c-0.2-0.5-0.8-0.7-1.2-0.5c-0.5,0.2-0.7,0.8-0.5,1.2c0,0,0,0,0,0l12.4,29.1l-13.8,10.3l18.5,16c0.1,5.7,0.2,67.2-17.8,102.6
					c-0.2,0.5-0.1,1,0.4,1.3C208.4,390.9,208.5,390.9,208.7,390.8L208.7,390.8z"/>
				<path class="st13" d="M121,215.7c0,0-16.7,164.2-19.2,281.9c0,0-1.5,68.7-16.1,73.4s-49.4-1-50.8-8s21.2-80.5,22.4-106.9
					s-8.9-197-8.9-197s21.3-17.9,55-31.2c0.5-1.4,1.1-2.7,1.9-4C106.1,222.6,120.7,213.6,121,215.7z"/>
				<path class="st14" d="M101.6,390.8c-0.4,0-0.7-0.2-0.8-0.5c-19-37.4-18-103.3-18-103.9V286l17.3-15l-13.2-9.8l13.1-30.5
					c0.3-0.5,0.8-0.6,1.3-0.4c0.4,0.2,0.6,0.7,0.5,1.1l-12.5,29.1l13.8,10.3l-18.5,16c-0.1,5.7-0.2,67.2,17.8,102.6
					c0.2,0.5,0.1,1-0.4,1.3C101.9,390.9,101.7,390.9,101.6,390.8L101.6,390.8z"/>
				<path class="st13" d="M288.9,360.5c-13.5-82.8-27.1-101.4-27.1-101.4C238.2,275.7,243,366.3,243,366.3l-42.9-2.1l-1.7-6.5
					c-8.1,2.1-7.5,2-22.2,5.6l-37.4-8.4l-3.7,16.1c-19.2,2.4-36.4,3.6-36.4,3.6c-26.4-88-50.2-115.6-50.2-115.6
					c-20.4,12.5-20.7,52.5-19.8,69.2C34.1,436,84.4,433.7,88.7,434c25.2,2,89.7-20.3,89.7-20.3s60.2,17.7,69.4,17.7
					C256.9,431.4,300.2,429.5,288.9,360.5z"/>
				<path class="st14" d="M89.3,346.5c-0.4,0-0.8-0.3-0.9-0.7C80.8,313.2,56.3,272.5,56,272c-0.3-0.4-0.1-1,0.3-1.3
					c0.4-0.3,1-0.1,1.3,0.3l0,0c0.2,0.4,25,41.4,32.6,74.3c0.1,0.5-0.2,1-0.7,1.1L89.3,346.5z"/>
				<path class="st14" d="M241.9,329.4L241.9,329.4c-0.6,0-1-0.5-0.9-1c0.1-1.8,3.1-43.3,9.7-60c0.2-0.5,0.7-0.7,1.2-0.5
					c0.5,0.2,0.7,0.7,0.5,1.2c0,0,0,0,0,0c-6.5,16.4-9.6,59-9.6,59.4C242.8,329,242.4,329.4,241.9,329.4z"/>
				<path class="st8" d="M118.7,125.5c0,0-2.1-6.2-10.5-5.5c-8.1,0.7-5.3,21.4,1.8,24.9s9.5-6.9,9.5-6.9L118.7,125.5z"/>
				<path class="st8" d="M189.4,125.5c0,0,2.1-6.2,10.5-5.5c8.1,0.7,5.3,21.4-1.8,24.9s-9.4-6.9-9.4-6.9L189.4,125.5z"/>
				<path class="st8" d="M196.3,123.9c-3.6,44.4-16,65.7-42.2,65.7s-38.8-17.5-42.2-65.7c-2.5-35.5,16.1-57.5,42.2-57.5
					S199.3,87,196.3,123.9z"/>
				<path class="st15" d="M136,131c-0.2,1.5-1.5,2.5-3,2.3c-1.5-0.2-2.5-1.5-2.3-3c0.2-1.3,1.3-2.3,2.7-2.3
					C134.9,128.1,136.1,129.4,136,131z"/>
				<path class="st15" d="M176.4,131c-0.2,1.5-1.5,2.5-3,2.3c-1.5-0.2-2.5-1.5-2.3-3c0.2-1.3,1.3-2.3,2.7-2.3
					C175.4,128.1,176.5,129.4,176.4,131z"/>
				<path class="st16" d="M124.3,121.4c-0.9,0-1.6-0.7-1.6-1.6c0-0.4,0.1-0.8,0.4-1.1c2.5-2.7,8.5-8.5,17.3-2.7
					c0.7,0.4,1,1.3,0.7,2.1c-0.4,0.8-1.3,1.1-2.1,0.7c-4.4-2.4-10-1.6-13.5,2C125.2,121.2,124.8,121.4,124.3,121.4z"/>
				<path class="st16" d="M184.8,121.4c0.9,0,1.6-0.7,1.6-1.6c0-0.4-0.1-0.8-0.4-1.1c-2.5-2.7-8.5-8.5-17.3-2.7
					c-0.7,0.4-1,1.3-0.7,2.1c0.4,0.8,1.3,1.1,2.1,0.7c0,0,0,0,0,0c4.4-2.4,10-1.6,13.5,2C183.9,121.2,184.4,121.4,184.8,121.4z"/>
				<path class="st9" d="M153.4,156.6c-2.2-0.1-4-0.7-4.8-2.3c-2.6-5.1,2.4-13.3,2.8-14.3c0.3-0.7,0.8-1.1,1.5-0.8s0.4,1.2,0.1,1.9
					c-1.5,3.3-2.4,9.4-1,11.8c0.4,0.6,1,1,1.7,0.9c0.8,0.1,1.3,0.7,1.3,1.5C154.9,156.7,153.5,156.6,153.4,156.6z"/>
				<path class="st17" d="M153.5,171.2c-4.3,0-8.5-1.2-12.2-3.6c-0.6-0.4-0.8-1.2-0.4-1.9c0.4-0.6,1.2-0.8,1.9-0.4
					c0.1,0,0.1,0.1,0.2,0.1c0.4,0.3,9.8,6.8,21.5-0.1c0.6-0.4,1.5-0.2,1.9,0.5c0,0,0,0,0,0c0.4,0.7,0.2,1.5-0.5,1.9
					C162.1,170,157.9,171.2,153.5,171.2z"/>
				<path class="st16" d="M111.1,126.4c0,0,2.5,25.8,6.1,36.8s8.9,27.8,36.5,27.8s34.2-20.6,36.6-27.8c3-9.1,5.7-25,6.5-36.9
					l0.4-5.7c0,0-6.9,36-13.8,48.6s-26.4,12.4-29.5,12.4s-25-0.4-29.9-12.4c-6.2-15.6-10.1-32-11.6-48.7L111.1,126.4z"/>
				<path class="st16" d="M153,157.7c0,0-18-1.2-19.9,6.6c-0.9,4.3-2.7,8.4-5.1,12l8.9,4.7c0,0-0.6-16,4.3-17.2s21.7-1.4,25.2,0.1
					s3.4,17.1,3.4,17.1l9.3-4.9c0,0-5.2-7.8-6.4-11.8C170.7,158.4,163.4,156.9,153,157.7z"/>
				<path class="st9" d="M150.3,109.8h-0.7c-2.7-0.1-15.7-0.5-15.8-0.5c-0.3,0-0.5-0.2-0.5-0.5c0-0.3,0.2-0.5,0.5-0.5c0,0,0,0,0,0
					c0.1,0,13.1,0.4,15.8,0.5c1.1,0,4.3-0.1,8-0.2c6-0.2,13.4-0.5,16.6-0.3c0.3,0,0.5,0.2,0.4,0.5c0,0.3-0.2,0.5-0.5,0.4
					c0,0,0,0,0,0c-3.1-0.2-10.6,0.1-16.5,0.3C154.5,109.7,151.8,109.8,150.3,109.8z"/>
				<path class="st9" d="M122.4,137.6c-0.3,0-0.5-0.2-0.5-0.5c0-0.2,0.1-0.4,0.3-0.5c2.2-0.7,4.4-1.1,6.6-1.3c0.3,0,0.5,0.2,0.5,0.5
					s-0.2,0.5-0.5,0.5c-2.2,0.2-4.3,0.6-6.3,1.2L122.4,137.6z"/>
				<path class="st9" d="M184.6,137.2h-0.1c-2-0.4-5.8-0.8-5.8-0.8c-0.3,0-0.5-0.2-0.5-0.5c0-0.3,0.2-0.5,0.5-0.5c0,0,0.1,0,0.1,0
					c0.1,0,3.9,0.4,5.9,0.8c0.3,0.1,0.4,0.3,0.4,0.6C185,137,184.8,137.2,184.6,137.2z"/>
				<path class="st18" d="M108,120.9c0,0-6.9-42.1,12.6-57s47.5-16,60.3,0.3c0,0,19.2-0.9,21,20c1.6,18.4-1.9,36.7-1.9,36.7
					c-1.1,2.2-2,4.5-2.9,6.8c0,0-5.1-33-19-41.2c-11,10.8-24.9,18.3-40,21.4c0,0,1.9-2.8,3.5-5c0,0-11.1,9.2-19.2,10.9
					c-9.5,2-11.7,12.4-11.6,13.9L108,120.9z"/>
				<path class="st19" d="M118.9,129.2v8.8c0,1.6,1.5,2.3,3.1,2.3h22.8c1.6,0,2.4-0.7,2.4-2.3v-9.3c4.4-0.6,8.9-0.5,13.3,0.1v9.2
					c0,1.6,1.7,2.3,3.3,2.3h22.8c1.6,0,2.8-0.7,2.8-2.3v-8.7l8.7-1.8l-0.7-2.8l-8.1,1.7v-0.7c0-1.5-1.2-2.7-2.7-2.7c0,0-0.1,0-0.1,0
					h-22.8c-1.6,0-3.3,1.1-3.3,2.7v0.4c-4.4-0.6-8.9-0.7-13.3-0.1v-0.2c0.2-1.3-0.8-2.5-2.1-2.7c-0.1,0-0.2,0-0.4,0h-22.8
					c-1.6-0.1-2.9,1.1-3.1,2.7v0.6l-8.5-1.6l-0.4,2.8L118.9,129.2z M187.1,137.7c0,0.5-0.4,1-0.9,1h-23c-0.5,0-1-0.5-0.9-1v-12
					c0-0.5,0.4-1,0.9-1h23c0.5,0,1,0.5,0.9,1V137.7z M145.5,137.7c0,0.5-0.4,1-0.9,1h-23c-0.6,0-1-0.4-1-1v-12c0-0.6,0.4-1,1-1h23
					c0.5,0,1,0.5,0.9,1V137.7z"/>
			</g>
		</g>
	</g>
</g>
</svg>
