<?xml version="1.0" encoding="utf-8"?>
<!-- Generator: Adobe Illustrator 25.2.1, SVG Export Plug-In . SVG Version: 6.00 Build 0)  -->
<svg version="1.1" id="Layer_1" xmlns="http://www.w3.org/2000/svg" xmlns:xlink="http://www.w3.org/1999/xlink" x="0px" y="0px"
	 viewBox="0 0 300 300" style="enable-background:new 0 0 300 300;" xml:space="preserve">
<style type="text/css">
	.st0{fill:none;}
	.st1{fill:#FFFFFF;}
	.st2{clip-path:url(#SVGID_2_);}
	.st3{fill:#BF8964;}
	.st4{fill:#A76F48;}
	.st5{fill:#23242B;}
	.st6{fill:#343438;}
	.st7{fill:#453878;}
	.st8{fill:#BF4545;}
	.st9{fill:#E6E8EF;}
	.st10{fill:#CED2DD;}
	.st11{fill:#FF5D54;}
	.st12{fill:#344746;}
	.st13{fill:#30323D;}
	.st14{fill:#232326;}
</style>
<circle class="st0" cx="153.2" cy="148.7" r="116.6"/>
<circle class="st0" cx="154.3" cy="144.6" r="116.6"/>
<circle class="st0" cx="153.2" cy="147.2" r="116.7"/>
<path class="st1" d="M145.6,180.7c-0.6-2,2.7-4.6,7.3-5.9s8.7-0.7,9.2,1.3"/>
<path class="st1" d="M144.1,174.4c-0.8-4,3.4-8.2,9.5-9.5s11.6,1,12.5,5"/>
<path class="st1" d="M143.1,168.1c-1.1-3.9,2.9-8.4,8.9-10.1s11.7,0.2,12.8,4.2"/>
<g>
	<defs>
		<ellipse id="SVGID_1_" cx="153.2" cy="144.3" rx="116.7" ry="116.9"/>
	</defs>
	<clipPath id="SVGID_2_">
		<use xlink:href="#SVGID_1_"  style="overflow:visible;"/>
	</clipPath>
	<g class="st2">
		<g id="Sunny">
			<path class="st3" d="M183,173.5c0,0-1.6,37.1,0,43.2s16.4,15.9,31.5,23c0,0-19.5,26.6-57.6,25.8s-47.8-16.6-53.8-25.3
				c0,0,29.1-10.1,29.8-22.5s0-44.3,0-44.3L183,173.5z"/>
			<path class="st4" d="M158.2,208.6c-12.1,0-20.4-8-25.1-14.5c-0.1-11-0.3-20.6-0.3-20.6H183c0,0-0.4,9.6-0.6,20.1
				C178.3,200.1,170.6,208.6,158.2,208.6z"/>
			<path class="st3" d="M115.5,135.4c3.5,43.4,15.6,64.2,41.3,64.2s38-17.2,41.3-64.2c2.4-34.7-15.7-56.2-41.3-56.2
				S112.6,99.3,115.5,135.4z"/>
			<path class="st5" d="M178.2,142.4c0,2.2,1.1,4,2.6,4s2.6-1.8,2.6-4s-1.2-4-2.6-4S178.2,140.2,178.2,142.4z"/>
			<path class="st5" d="M131.2,142.4c0,2.2,1.1,4,2.6,4s2.6-1.8,2.6-4s-1.2-4-2.6-4S131.2,140.2,131.2,142.4z"/>
			<path class="st6" d="M190.3,131.3c0.4-0.1,0.8-0.3,1-0.7c0.4-0.7,0.2-1.6-0.5-2c0,0,0,0,0,0c-2.9-2.1-12.5-3.9-17.1,0.9
				c-0.6,0.6-0.7,1.5-0.2,2.2c0.5,0.7,1.4,0.5,2.2,0.2c6.1-2.1,13.3-0.8,13.3-0.8C189.4,131.3,189.9,131.3,190.3,131.3z"/>
			<path class="st6" d="M123.7,131.2c-0.4-0.1-0.8-0.4-1-0.7c-0.4-0.7-0.2-1.6,0.5-2c0,0,0,0,0.1,0c2.9-2.1,12.5-3.9,17.1,1
				c0.6,0.6,0.7,1.5,0.2,2.2c-0.5,0.7-1.4,0.5-2.2,0.2c-6.1-2.1-13.2-0.9-13.3-0.9C124.6,131.2,124.2,131.3,123.7,131.2z"/>
			<path class="st4" d="M157.4,167.4c2.2-0.1,3.9-0.6,4.7-2.3c2.5-5-2.2-13-2.7-14c-0.3-0.7-0.8-1.1-1.4-0.8s-0.4,1.2-0.1,1.9
				c1.5,3.2,2.4,9.2,1,11.5c-0.3,0.6-1,0.9-1.7,0.9c-0.7,0.1-1.3,0.7-1.2,1.5C156,166.9,156.6,167.5,157.4,167.4
				C157.4,167.4,157.4,167.4,157.4,167.4z"/>
			<path class="st7" d="M200.4,131.6l-1.5,6.6l-3.3,1.3c0,0-1.9-11.2-2.8-19c-1.4-13.2-2.1-23.8-34.9-24.1
				c-34.1-0.3-34,10.6-37.1,23.5c-1.4,6.5-2.2,13.1-2.3,19.8l-3.5-1.5l-2.2-6.5c0,0,0.2-11,0-21.4c0,0,1.6-23.6,13.1-26.1
				c0,0,7.2-14.4,28.7-14.4c27.4,0,28.2,6.8,29,8.5c3.4,1,6.3,3,8.4,5.8c3.2,4.6,4,5.3,7.6,16c0.5,2.7,0.8,5.5,0.6,8.2
				C200.2,110.5,202.1,123.3,200.4,131.6z"/>
			<path class="st6" d="M198.9,137c0,0-2.4,25.6-6,36.4s-8.7,27.4-35.7,27.4s-33.4-20.5-35.8-27.5c-2.9-8.9-5.8-24.5-6.6-36.3
				l3.5-0.1c0,0,0.9,21.6,12.8,32c8.5,7.4,0.8,22.7,20.4,22.7c1.7,0,5.2-7.2,5.8-7.2s4.1,7.3,5.8,7.3c20,0,13.5-13.7,21.4-23
				c7.2-8.5,8.1-11.5,11.1-31.7L198.9,137z"/>
			<path class="st8" d="M158.4,178.7c4.2,0,8.4-1.2,11.9-3.5c0.6-0.4,0.7-1.2,0.3-1.8c0,0,0,0,0,0c-0.4-0.6-1.3-0.7-1.9-0.3
				c-0.4,0.3-9.6,6.7-21-0.1c-0.6-0.4-1.5-0.1-1.8,0.5c-0.3,0.6-0.1,1.4,0.5,1.8C150,177.5,154.2,178.7,158.4,178.7z"/>
			<path class="st6" d="M157.9,168.4c0,0,17.6-1.2,19.5,6.4c0.9,4.2,2.6,8.2,5,11.7l-11.8,4.6c0,0,3.7-15.6-1.1-16.8
				s-21.2-1.4-24.7,0.1s-0.9,16.7-0.9,16.7l-11.4-4.8c0,0,5.1-7.6,6.3-11.5C140.6,169.1,147.7,167.7,157.9,168.4z"/>
			<path class="st9" d="M186,226.2c0,0-26.4,19.1-59.8,0c0,0-39.8,20.7-57.8,31.7c0,0,4.9,183,8.6,236.4c0,0,87.5,11,167.3,0
				c0,0,6.8-223.1,6.1-231.9C250.3,262.5,212.2,238.4,186,226.2z"/>
			<path class="st10" d="M154.3,234.6l13.6,18.1l23.9-23.7c-2-1-3.9-1.9-5.8-2.8C176.6,232.2,165.5,235.2,154.3,234.6z"/>
			<path class="st10" d="M153.9,234.6c-9.8-0.6-19.3-3.4-27.7-8.4l-2.7,1.5l16.2,23.3L153.9,234.6z"/>
			<path class="st11" d="M141.7,242.1l6.9,12.1c0,0-22.6,108.2-18.8,189.5c0,0,7.4,14.5,19.4,25.3c0,0,13.9-12,18.2-24.7
				c0,0,0.9-124.3-8.5-189.8l7.3-11.1l-11.8-13.8L141.7,242.1z"/>
			<polygon class="st9" points="185,209.3 154.4,229.6 130.8,211.6 123.8,226.4 140.2,245.6 154.4,231.6 167.4,247.4 190.8,228.4 
							"/>
			<path class="st12" d="M125.3,223.3c0,0-8.3,160.5-10.7,274.3c0,0-6.6,65-20.8,69.6s-37.8-0.9-39.1-7.7s12.6-64.9,13.8-90.3
				s-7-208.1-7-208.1c13.9-10.8,29.4-19.5,45.9-25.6c0.5-1.3,1.1-2.7,1.8-3.9C109.9,230.2,125,221.3,125.3,223.3z"/>
			<path class="st13" d="M107.3,393c-0.3,0-0.7-0.2-0.8-0.5C88.1,356.2,89.1,292.6,89.1,292v-0.4l16.8-14.5l-12.7-9.5l12.6-29.5
				c0.2-0.5,0.7-0.7,1.2-0.5c0.5,0.2,0.7,0.7,0.5,1.2L95.4,267l13.4,10l-17.8,15.4c-0.1,5.5-0.2,64.9,17.2,99.2
				c0.2,0.4,0.1,1-0.4,1.2c0,0,0,0,0,0C107.6,392.9,107.5,393,107.3,393z"/>
			<path class="st12" d="M189.3,223.5c0,0,1.6,158.8,4,272.6c0,0,9.7,66.5,23.8,71s46.9-0.9,48.2-7.7s-17.3-67.8-18.5-93.2
				s13.6-200.7,13.6-200.7s-19.8-12.8-53.2-30.1c-0.5-1.3-1.1-2.7-1.8-3.9C204.6,230.2,189.6,221.5,189.3,223.5z"/>
			<path class="st13" d="M196.9,392.3c0.3,0,0.7-0.2,0.8-0.5c20.7-35,23.7-98.5,23.7-99.2v-0.4l-15.8-15.5l13.4-8.6l-10.7-30.2
				c-0.2-0.5-0.7-0.7-1.2-0.6c-0.5,0.2-0.7,0.7-0.6,1.2l10.3,28.9l-14,9.1l16.8,16.5c-0.3,5.5-3.9,64.8-23.5,98
				c-0.3,0.4-0.1,1,0.3,1.2C196.6,392.2,196.7,392.2,196.9,392.3z"/>
			<path class="st12" d="M281.6,491.8c0,0,56.6-68.5,73.2-106.1c13.6-30.8-94.3-120.2-94.3-120.2c-7.7,11.1-12.3,24-13.4,37.4
				c-2,24.9,6.9,43.1,6.9,43.1s38.6,34.6,43.7,38.1c0,0-13.7,22.6-40.9,78C256.8,462.2,262,482.7,281.6,491.8z"/>
			<path class="st12" d="M40.2,489.1c0,0-56.6-68.5-73.2-106.1c-13.6-30.8,94.3-122,94.3-122c7.5,11.8,12.1,25.3,13.4,39.2
				c1.1,15.4-2,30.8-8.8,44.6c0,0-36.7,33.1-41.8,36.6c0,0,13.7,22.6,40.9,78.1C64.9,459.5,59.7,480,40.2,489.1z"/>
			<path class="st13" d="M253.1,345L253.1,345c-0.6-0.1-1-0.5-0.9-1l5.3-54.2c0-0.5,0.5-0.9,1-0.8c0.5,0,0.9,0.5,0.8,1
				c0,0,0,0,0,0.1l-5.3,54.2C254,344.6,253.6,345,253.1,345z"/>
			<path class="st13" d="M64.9,343.4c-0.5,0-0.9,0.1-0.9-0.4l-1.2-66c0-0.5,0.4-0.8,0.8-0.8c0,0,0.1,0,0.1,0c0.5,0,0.9,0.4,0.9,0.9
				c0,0,0,0,0,0l1.2,65.8C65.8,343.4,65.4,343.4,64.9,343.4L64.9,343.4z"/>
			<path class="st1" d="M120.1,112.5c23.6-6.2,48.3-6.4,72-0.6c1.4-18.9-16.6-34.5-37.2-33.9C134.9,78.5,118.3,94.2,120.1,112.5z"/>
			<path class="st6" d="M130.3,74.8c0.2,5.9,8.2,7.6,19.5,16.9l2,1.8c26.9,23.6,41,36,44.2,53c0.5,4.1,0.4,8.3-0.1,12.5
				c5.2-3.8,9.4-8.7,12.5-14.3c0,0,0.2-0.3,0.3-0.7c1.4-2.8,4.4-10.8,4-32.1c-0.2-9.6-0.3-14.3-1.1-18c-5.6-25.1-52.6-35.5-59.6-37
				C142.1,61,130,67.5,130.3,74.8z"/>
			<path class="st14" d="M188,69c-0.9,1.7-2,3.4-3.1,5.2c-6.7,10.2-15.2,19.2-25,26.4l-8-7l29.2-29L188,69z"/>
			<path class="st14" d="M177.5,90.2c0.7-0.4,6.9,5.3,11,9.9c3.3,3.6,6.2,7.6,8.6,11.8c3.2,5.7,8.5,15.2,7.7,27.7
				c-0.3,5.1-1.7,10.6-2.6,10.6c-1.3,0,0.8-12.3-3.1-25.9C193.1,103.7,176.5,90.9,177.5,90.2z"/>
			<path class="st14" d="M189.6,81.3c-0.3,0.2,2.4,3.4,5.2,7.6c4.9,7.4,8.7,15.4,11.3,23.9c3.8,13.5,1.9,22.9,2.2,22.9
				c0.5,0,6.8-22.9-6.3-41.6C197.4,87.4,190.1,81,189.6,81.3z"/>
			<path class="st6" d="M117.6,158.1c-0.7-3.7-0.8-7.5-0.5-11.3c0.4-4.4,2.9-15.1,25.6-38.3c11.9-12.2,16.3-13,31.4-28.1
				c5.3-5.2,9.4-9.7,12.1-12.7c-4.3-4.1-9-7.9-13.9-11.3c-7.4-5-11.2-7.2-14.9-8c-8.7-1.9-16.3,2.3-29.3,9.6c0,0-28.5,16-32.5,32.8
				c-0.9,3.9,0.4,1.6,2.2,26.4c1,14.7,2,22,4.3,26.4C104.2,147.4,108.6,152.6,117.6,158.1z"/>
			<path class="st14" d="M101.4,120.1c-0.9-0.3,4.1-9.8,8.3-16.2c7.7-11.9,23.7-30.8,58.4-48.7c-15.6,10.4-29.9,22.6-42.6,36.4
				C112.2,106.1,102.6,120.6,101.4,120.1z"/>
			<path class="st14" d="M105.2,141.4c-1-0.2,1.8-10.2,4.3-17c4.8-12.7,16.1-33.4,46.1-55.5c-12.9,12.3-24.1,26.2-33.4,41.4
				C112.6,126.2,106.5,141.7,105.2,141.4z"/>
			<path class="st14" d="M96.9,95.2c-0.6-0.5,5.8-7.4,10.6-12.1c9-8.6,25.9-21.5,56.2-30.2c-14.5,6-28.4,13.7-41.3,22.7
				C108.8,85.4,97.7,95.8,96.9,95.2z"/>
		</g>
	</g>
</g>
</svg>
