<?xml version="1.0" encoding="utf-8"?>
<!-- Generator: Adobe Illustrator 25.2.1, SVG Export Plug-In . SVG Version: 6.00 Build 0)  -->
<svg version="1.1" id="Layer_1" xmlns="http://www.w3.org/2000/svg" xmlns:xlink="http://www.w3.org/1999/xlink" x="0px" y="0px"
	 viewBox="0 0 465.7 215.9" style="enable-background:new 0 0 465.7 215.9;" xml:space="preserve">
<style type="text/css">
	.st0{fill:#FFCC33;}
	.st1{fill:#F2BB30;}
	.st2{fill:url(#SVGID_1_);}
	.st3{fill:#343438;}
	.st4{fill:#FDEEFF;}
	.st5{fill:#FBD872;}
	.st6{fill:url(#SVGID_2_);}
	.st7{fill:url(#SVGID_3_);}
	.st8{fill:url(#SVGID_4_);}
	.st9{fill:#AC31D9;}
	.st10{fill:url(#SVGID_5_);}
	.st11{fill:#453878;}
	.st12{fill:url(#SVGID_6_);}
	.st13{fill:url(#SVGID_7_);}
	.st14{fill:url(#SVGID_8_);}
	.st15{fill:url(#SVGID_9_);}
	.st16{fill:url(#SVGID_10_);}
	.st17{fill:url(#SVGID_11_);}
	.st18{fill:url(#SVGID_12_);}
	.st19{fill:url(#SVGID_13_);}
	.st20{fill:url(#SVGID_14_);}
	.st21{fill:url(#SVGID_15_);}
	.st22{fill:url(#SVGID_16_);}
	.st23{fill:url(#SVGID_17_);}
	.st24{fill:url(#SVGID_18_);}
	.st25{fill:url(#SVGID_19_);}
	.st26{fill:url(#SVGID_20_);}
	.st27{fill:url(#SVGID_21_);}
	.st28{fill:url(#SVGID_22_);}
	.st29{fill:#FFC500;}
	.st30{fill:url(#SVGID_23_);}
	.st31{fill:url(#SVGID_24_);}
	.st32{fill:url(#SVGID_25_);}
	.st33{opacity:0.68;}
	.st34{fill:url(#SVGID_26_);}
	.st35{clip-path:url(#SVGID_28_);}
	.st36{opacity:0.14;fill:#F4C4A8;enable-background:new    ;}
	.st37{fill:#B93800;}
	.st38{fill:#FFAB00;}
	.st39{opacity:0.46;}
	.st40{fill:url(#SVGID_29_);}
	.st41{fill:url(#SVGID_30_);}
	.st42{fill:url(#SVGID_31_);}
	.st43{fill:url(#SVGID_32_);}
	.st44{fill:url(#SVGID_33_);}
	.st45{fill:#FFED0C;}
	.st46{fill:url(#SVGID_34_);}
	.st47{fill:#9E0508;}
	.st48{fill:url(#SVGID_35_);}
	.st49{fill:#FFFD41;}
	.st50{fill:url(#SVGID_36_);}
	.st51{fill:url(#SVGID_37_);}
	.st52{fill:url(#SVGID_38_);}
	.st53{fill:url(#SVGID_39_);}
	.st54{fill:url(#SVGID_40_);}
	.st55{fill:url(#SVGID_41_);}
	.st56{fill:url(#SVGID_42_);}
	.st57{fill:url(#SVGID_43_);}
	.st58{fill:url(#SVGID_44_);}
	.st59{fill:url(#SVGID_45_);}
	.st60{fill:url(#SVGID_46_);}
	.st61{fill:url(#SVGID_47_);}
	.st62{fill:url(#SVGID_48_);}
	.st63{fill:url(#SVGID_49_);}
	.st64{fill:url(#SVGID_50_);}
	.st65{fill:url(#SVGID_51_);}
	.st66{fill:url(#SVGID_52_);}
</style>
<g>
	<g id="Layer_1_1_">
		
			<image style="overflow:visible;opacity:0.45;enable-background:new    ;" width="1796" height="787" xlink:href="F0BD386F.png"  transform="matrix(0.24 0 0 0.24 24.36 20.49)">
		</image>
		<path class="st0" d="M106.7,164.8l-5.9-4.5l-20.1,5.4l-0.1-1.4c0.2,0,0.4-0.1,0.7-0.1l-0.3-3.2l28.2-2.2l-1-13l-6.5-4.2l-4.3-3.3
			l12.3-1l-1.1-13.5l-6.3-4.1l-5.9-4.5l-43.6,8.4L51.1,179l6.2,4l0,0l6.6,4.3l50.3-3.9l-1.1-14.4L106.7,164.8z M78.9,142l-0.2-2.6
			c0.3,0,0.5,0.1,0.8,0.2l10.2-0.8L78.9,142z"/>
		<path class="st1" d="M96.5,128.2c-5.9,1.2-12.8-0.9-18.7,0c-2.8,0.4-5.6,1.1-8.4,1.8c-0.7,0.2-2.6,0.1-3.5,0.5
			c1.1,0.6,9.2,7.3,13.5,9.2l7-0.6c0.7-0.2,11-0.9,11-0.9l12.3-1C109.8,137.2,96.5,128.3,96.5,128.2z"/>
		<path class="st1" d="M101.9,174.9c-1.2-0.8-8.1-2.4-11.7-2.3c-4.7,0.1-9.5,1.1-14.2,1.4c-7.1,0.5-14.3,0.6-21.4,0.9
			c-1.2,0.4-2.4,0.6-3.7,0.8l0.2,3.3l6.2,4l0,0l6.6,4.3l50.3-3.9C110.2,180.3,105.8,177.5,101.9,174.9z"/>
		<path class="st1" d="M97.2,150.4c-1.4-1-20.8-0.5-30.3,0.6c0,0.2,2.1,1.3,2.1,1.6c2.4,1.6,8.1,5.7,12.1,8.3l0,0l28.1-2.2
			C105.2,155.9,100.9,153.1,97.2,150.4z"/>
		
			<linearGradient id="SVGID_1_" gradientUnits="userSpaceOnUse" x1="51.2403" y1="101.517" x2="51.2403" y2="46.507" gradientTransform="matrix(0.9969 -7.811110e-02 -7.811110e-02 -0.9969 28.8966 223.8748)">
			<stop  offset="0" style="stop-color:#FF5D54"/>
			<stop  offset="0.15" style="stop-color:#FC5951"/>
			<stop  offset="0.28" style="stop-color:#F14E4A"/>
			<stop  offset="0.42" style="stop-color:#E03B3C"/>
			<stop  offset="0.54" style="stop-color:#C8212A"/>
			<stop  offset="0.59" style="stop-color:#BE1622"/>
		</linearGradient>
		<polygon class="st2" points="69.3,163.4 68.9,163.1 68.1,151.9 96.2,149.6 95.3,137.7 67.1,139.9 66.4,130.6 96.8,128.2 
			95.8,115.7 47.2,119.5 51.8,178.1 52.2,178.1 52.2,178.1 101.3,174.2 100.2,161 		"/>
		<path class="st3" d="M71.3,163c-0.5,0.1-2.6,1.4-3.1,1.3l1.8,1.5l30.4-2.4v-0.6c0-0.4,0-0.7,0.1-1.1l-29,2.3L71.3,163L71.3,163z"
			/>
		<path class="st3" d="M54.3,177.9l-4.4-56.2l46-3.6c0-0.6,0-1.1,0.2-1.7l-48,3.8l4.5,58C53.2,178.1,53.7,178,54.3,177.9z"/>
		<path class="st3" d="M66.4,140.8l1.8,1.5l27.3-2.1c0-0.6,0-1.2,0-1.6l-25.8,2l-0.1-0.8C69,139.9,66.8,140.2,66.4,140.8z"/>
		<path class="st4" d="M102.2,175l-51.1,4l-4.7-60.3l50.2-3.9l1.1,14.2l-30.4,2.4l0.6,7.7l28.2-2.2l1.1,13.6l-28.2,2.2l0.8,9.9
			l31.3-2.5L102.2,175z M52.6,177.2l47.8-3.7l-0.9-11.7l-31.3,2.5l-1-13.2l28.2-2.2l-0.8-10.3l-28.2,2.2l-0.8-10.9l30.4-2.4
			l-0.9-10.9l-46.9,3.7L52.6,177.2z"/>
		<path class="st5" d="M67.8,75.9l-2.9-2.4l-7.6,3.1l-4.3,8.8l-2.4-3.3c0.1-0.1,0.1-0.2,0.2-0.3l-1.6-2.2l0,0l-3.2-2.1l-2.9-2.1
			l-7.5,3.2l12.8,15.9l-2,10.1l3,1.9l0,0l3.3,2.1l9.3-0.8l-1-12.2l9.8-17.8L67.8,75.9z"/>
		<polygon class="st0" points="67.8,75.9 64.9,73.5 57.4,76.6 46.5,104.6 49.5,106.5 49.5,106.5 49.5,106.5 52.7,108.6 62,107.8 
			54.2,102.3 51.9,89.3 61,95.6 70.8,77.8 		"/>
		
			<linearGradient id="SVGID_2_" gradientUnits="userSpaceOnUse" x1="42.7407" y1="145.9365" x2="42.7407" y2="120.2365" gradientTransform="matrix(0.9964 -8.489522e-02 -8.489522e-02 -0.9964 18.6692 225.5872)">
			<stop  offset="0" style="stop-color:#FF5D54"/>
			<stop  offset="0.15" style="stop-color:#FC5951"/>
			<stop  offset="0.28" style="stop-color:#F14E4A"/>
			<stop  offset="0.42" style="stop-color:#E03B3C"/>
			<stop  offset="0.54" style="stop-color:#C8212A"/>
			<stop  offset="0.59" style="stop-color:#BE1622"/>
		</linearGradient>
		<path class="st6" d="M64.2,73.8c-0.1-0.1-0.2-0.1-0.2,0l-0.1,0.1l-9.3,0.8v0.1l-0.2,0.5L54,76.1l-0.2,0.5l-0.3,0.7l-0.3,0.5
			l-0.3,0.7l-0.3,0.5l-0.3,0.7l-0.2,0.5L51.5,81l-0.2,0.5l-0.4,0.7l-0.2,0.5l-0.3,0.7L50,84l-0.3,0.7v0.1l-0.3-0.3l-1.7-2.3
			l-1.2-1.6l-1.7-2.3l-1.2-1.7L43,75.7l-9.8,0.8l1,1.2l1.5,1.9l2.2,2.7l1.5,1.9l2.1,2.7l1.5,1.9l2.2,2.7l0.5,0.6l1,12l8.9-0.8l-1-12
			l0.2-0.3l0.3-0.5l0.4-0.7l0.3-0.5l0.4-0.7l0.3-0.5l0.4-0.7l0.3-0.5l0.4-0.7l0.3-0.5l0.4-0.7l0.3-0.5l0.4-0.7l0.3-0.5l0.4-0.7
			l0.3-0.5l0.4-0.7l0.3-0.5l0.4-0.7l0.3-0.5l0.4-0.7l0.3-0.7l0.4-0.7l0.3-0.5l0.4-0.7l0.3-0.5l0.4-0.7l0.3-0.5l0.4-0.7l0.2-0.4
			L64.2,73.8z"/>
		<path class="st3" d="M55.3,75.8l7.9-0.7c0.1-0.3,0.3-0.6,0.5-0.8l-8.9,0.8L50,84.8l-0.2-0.2c-0.1,0.3-0.2,0.5-0.4,0.8l0.7,1
			L55.3,75.8z"/>
		<path class="st3" d="M47.1,104c0.2,0,0.5-0.1,0.7-0.1h0.1l-1-11.4L34.7,77.3l8.8-0.8c-0.1-0.1-0.1-0.3-0.1-0.4c0-0.1,0-0.2,0-0.4
			l-10.2,0.9l13,16.2L47.1,104z"/>
		<path class="st4" d="M56.1,103.8l-9.7,0.8l-1-12.3l-13-16.2l10.8-0.9l6.3,8.8l4.8-9.8l10.7-0.9L55,91.5L56.1,103.8z M47.1,103.8
			l8.1-0.7l-1-11.7l0.1-0.1l9.4-17L54.8,75l-5.2,10.6l-6.9-9.5L34,76.8l12.1,15.2L47.1,103.8z"/>
		<path class="st0" d="M290.9,56.8L290.9,56.8l-3.1-2.3l-24.2,4.5h-0.1l-2.5,5.6l2.9,1.9l0,0l3.4,2.2l3.4-0.3v-0.1
			c0-0.1,0-0.1,0-0.2l2.3-0.2l-1,17.6l3.2,2.1h0.1l2.9,1.9l9.3-0.8L285.4,67l9-0.8l-0.6-7.6L290.9,56.8z"/>
		<path class="st1" d="M263.5,58.9h-0.1l-2.5,5.6l2.9,1.9l0,0l3.4,2.2l3.4-0.3l1.2,17.1l6.2,4l9.3-0.8l-6-4.1l-2-21.6l6.1,4.2l9-0.8
			l-6-4L263.5,58.9z"/>
		
			<linearGradient id="SVGID_3_" gradientUnits="userSpaceOnUse" x1="268.837" y1="146.4065" x2="268.837" y2="119.5965" gradientTransform="matrix(0.9964 -8.489522e-02 -8.489522e-02 -0.9964 18.6692 225.5872)">
			<stop  offset="0" style="stop-color:#FF5D54"/>
			<stop  offset="0.15" style="stop-color:#FC5951"/>
			<stop  offset="0.28" style="stop-color:#F14E4A"/>
			<stop  offset="0.42" style="stop-color:#E03B3C"/>
			<stop  offset="0.54" style="stop-color:#C8212A"/>
			<stop  offset="0.59" style="stop-color:#BE1622"/>
		</linearGradient>
		<polygon class="st7" points="260.6,57.1 261.2,64.2 270.2,63.4 272,85 280.9,84.2 279.1,62.6 288.1,61.9 287.5,54.8 		"/>
		<path class="st3" d="M287.6,55.2L261,57.4l0.6,6.6c0.3-0.1,0.5-0.1,0.8-0.1l0,0l-0.5-5.8l25.6-2.2
			C287.5,55.7,287.5,55.4,287.6,55.2z"/>
		<path class="st3" d="M273.2,84.8l-1.8-21.1l-0.9-0.7c0,0.3-0.3,1.4-0.3,1.6h0.4l1.7,20.3C272.7,84.8,273,84.8,273.2,84.8z"/>
		<path class="st4" d="M281.3,84.6l-9.6,0.8l-1.8-21.6l-9,0.8l-0.7-7.9l27.7-2.4l0.7,7.9l-9,0.8L281.3,84.6z M272.4,84.6l8.1-0.7
			l-1.8-21.6l9-0.8l-0.5-6.3L261,57.4l0.5,6.3l9-0.8L272.4,84.6z"/>
		<path class="st0" d="M173.7,69L173.7,69l-3.1-2.1l-2.9-2.2l-7.1,3.1l-11.7,28.1l3.1,1.8l0,0l3.3,2.1l9.4-0.8l1-4.8l5.3-0.4l0,0.3
			l2.9,1.8l0,0l3.4,2.2l9.9-0.8L173.7,69z M167.4,85l0.8-3.9l1.5,3.7L167.4,85z"/>
		<path class="st1" d="M181.1,93.1c-1.7-0.1-3.4-0.6-4.9-1.5c-1.2-0.9-2.1-2.2-2.5-3.6c-0.6-1.6-1.1-3.2-1.7-4.7
			c-1.4-3.3-2.8-6.5-4.2-9.8c-1-2.5-2.6-4.9-3.4-7.5l-3.9,1.7l-11.7,28.1l3.2,1.9l0,0l3.3,2.1l9.4-0.8c0,0-3.2-2.1-6-4.1
			c-1.4-2.1-1-6.3,1-4.8s5.9,4,5.9,4l5.3-0.4L171,94l2.9,1.8l0,0l3.4,2.2l9.9-0.8C187.1,97.2,183.6,94.9,181.1,93.1z"/>
		
			<linearGradient id="SVGID_4_" gradientUnits="userSpaceOnUse" x1="175.8777" y1="147.8115" x2="176.0877" y2="122.7815" gradientTransform="matrix(1 -6.806731e-03 -6.806731e-03 -1 -10.2815 217.7919)">
			<stop  offset="0" style="stop-color:#FF5D54"/>
			<stop  offset="0.15" style="stop-color:#FC5951"/>
			<stop  offset="0.28" style="stop-color:#F14E4A"/>
			<stop  offset="0.42" style="stop-color:#E03B3C"/>
			<stop  offset="0.54" style="stop-color:#C8212A"/>
			<stop  offset="0.59" style="stop-color:#BE1622"/>
		</linearGradient>
		<path class="st8" d="M180.2,92.1l-0.8-1.6l-0.4-0.9l-0.8-1.6l-0.6-1.2l-0.8-1.6l-0.6-1.2l-0.8-1.6l-0.6-1.2l-0.8-1.6l-0.6-1.2
			l-0.8-1.6l-0.6-1.2l-0.8-1.6l-0.6-1.2l-0.8-1.6l-0.5-1.2l-0.8-1.6l-0.5-1.2l-0.8-1.6l-0.4-1l-9.7,0.8v0.1l-0.2,0.6l-0.2,0.8
			l-0.2,0.6l-0.2,0.8l-0.2,0.6l-0.2,0.8l-0.2,0.6l-0.2,0.8L156,72l-0.2,0.8l-0.2,0.6l-0.2,0.8l-0.2,0.6l-0.2,0.8l-0.2,0.6l-0.2,0.8
			l-0.2,0.6l-0.2,0.8L154,79l-0.2,0.8l-0.2,0.6l-0.2,0.8l-0.2,0.6l-0.2,0.8l-0.2,0.6l-0.2,0.8l-0.2,0.6l-0.2,0.8l-0.2,0.6l-0.2,0.8
			l-0.2,0.6l-0.2,0.8l-0.2,0.6l-0.2,0.8l-0.2,0.6l-0.2,0.8l-0.2,0.6l-0.2,0.8l-0.2,0.6l-0.2,0.8l-0.2,0.6l-0.2,0.8l0,0l9-0.8l0,0
			l0.1-0.6l0.2-0.9l0.1-0.6l0.2-0.9l0.1-0.6l0.2-0.9l0.1-0.4l10-0.8l0.3,0.8l0.6,1.5l0.4,1l0.5,1.3l9.3-0.8L180.2,92.1z M160.8,83.4
			l0.1-0.6l0.1-0.6l0.2-0.9l0.1-0.6l0.2-0.9l0.1-0.6l0.2-0.9l0.1-0.6l0.2-0.9l0.1-0.5l0.2-0.9l0.1-0.6l0.2-0.9l0.1-0.6l0.1-0.6
			l0.4,1l0.4,1l0.6,1.5l0.4,1l0.6,1.5l0.3,0.8l0.6,1.5l0.4,1l0.2,0.6L160.8,83.4z"/>
		<path class="st3" d="M160.9,84.6l7.4-0.6l-4.7-11.7l-0.6-0.8l-2.6,12.4L160.9,84.6z M167.2,83.3l-5.2,0.4l1.9-8.7L167.2,83.3z"/>
		<path class="st9" d="M172.1,93.6l-1.7-4.3l-0.7-0.8c0.1,0.8,0.6,1.9,0.5,2.5l1.1,2.7c0.1,0,0.2,0,0.3-0.1L172.1,93.6z"/>
		<path class="st3" d="M167.8,66.3l-0.1-1l-9.7,0.9l-8.2,29.3c0.3,0,0.6-0.1,0.9-0.2l8-28.4l9.1-0.8L167.8,66.3z"/>
		<path class="st4" d="M181.2,93.1L171,94l-1.8-4.6l-9.5,0.8l-1,4.8l-9.9,0.8l8.6-30.4l10.2-0.9L181.2,93.1z M171.6,93.1l8.4-0.7
			l-12.9-27l-9.1,0.8L149.9,95l8.2-0.7l1-4.8l10.6-0.9L171.6,93.1z M167.7,83.2l-7.4,0.6l2.6-12.4L167.7,83.2z M161.3,83l5.2-0.4
			l-3.4-8.3L161.3,83z"/>
		<path class="st0" d="M323.2,53.8l-2.8-2.2l-6.5,3.1l0.9,9.9l-6.6,0.6l-0.2-2.1h0.3l-0.5-5.7l-3.2-2l-2.9-2.2l-6.4,3.1l-0.6,27.1
			l3,2l0,0l3.2,2l9.3-0.8l-1-11.6l3.6-0.3c0-0.1,0-0.2,0-0.3l2-0.2l-1.5,7.5l3.1,2l0,0l3.1,2l9.3-0.8l-2.5-29.2L323.2,53.8z"/>
		<path class="st1" d="M304.4,82.6c-2.3-0.2-4.6-0.1-6.8,0.3l-2.8,0.3v0.2l3,2l0,0l3.2,2.1l9.3-0.8v-0.1
			C309.8,86.2,306.2,83.8,304.4,82.6z"/>
		<path class="st1" d="M312,68.7c-1.6,0.1-3.2,0.2-4.9,0.4c-1.4,0.3-2.7,1-3.7,1.9c0.9,0.6,5.5,3.7,5.9,4l3.6-0.3c0-0.1,1.1-5.2,1-6
			C313.3,68.7,312.7,68.7,312,68.7z"/>
		<path class="st1" d="M323,81c-0.1-0.1-3.6-2-4.5-1.8c-1.9,0.6-3.6,1.5-5.2,2.7c0.1,0.1,6.3,4,6.3,4L329,85l0,0
			C327.2,84,325.2,82.5,323,81z"/>
		
			<linearGradient id="SVGID_5_" gradientUnits="userSpaceOnUse" x1="301.2887" y1="146.2965" x2="301.2887" y2="120.1465" gradientTransform="matrix(0.9964 -8.489522e-02 -8.489522e-02 -0.9964 18.6692 225.5872)">
			<stop  offset="0" style="stop-color:#FF5D54"/>
			<stop  offset="0.15" style="stop-color:#FC5951"/>
			<stop  offset="0.28" style="stop-color:#F14E4A"/>
			<stop  offset="0.42" style="stop-color:#E03B3C"/>
			<stop  offset="0.54" style="stop-color:#C8212A"/>
			<stop  offset="0.59" style="stop-color:#BE1622"/>
		</linearGradient>
		<path class="st10" d="M322.3,78.2L320.1,52l-8.9,0.8l0.9,10l-9.7,0.8l-0.9-10l-8.9,0.8l2.4,28.4c0,0,0,0.1,0,0.1V83l8.9-0.8
			l-1-11.6l9.7-0.8l0.1,0.8l4.4,3.4l0,0l-4.4-3.4l0.9,10.7l8.9-0.8L322.3,78.2l-5-3.9l0,0L322.3,78.2z"/>
		<path class="st3" d="M295.6,83.1c0.2-0.1,0.5-0.1,0.7-0.2L294,55.5l7.8-0.7c0-0.3-0.1-0.6-0.1-0.8l-8.6,0.7l2.4,28.4L295.6,83.1z"
			/>
		<path class="st3" d="M319.9,52.4l-8.2,0.7l0.9,10l-8.9,0.8v-0.3l-0.6,0.1c-0.1,0-0.9,0.3-1,0.3l0.9,0.8l10.4-0.9l-0.9-10l7.6-0.7
			C319.9,53,319.9,52.7,319.9,52.4z"/>
		<path class="st11" d="M314.7,81.3l-1-11.2l-0.7-0.7c-0.2,0.5-0.4,1-0.4,1.6h0.6l0.9,10.6C314.2,81.4,314.5,81.3,314.7,81.3z"/>
		<path class="st4" d="M323,81l-9.7,0.8l-1-11.6l-8.9,0.8l1,11.6l-9.6,0.8L292.2,54l9.6-0.8l0.9,10l8.9-0.8l-0.9-10l9.7-0.8L323,81z
			 M314,81l8.1-0.7l-2.4-27.9l-8.1,0.7l0.9,10L302,64l-0.9-10l-8.1,0.7l2.4,27.9l8.1-0.7l-1-11.6l10.5-0.9L314,81z"/>
		<path class="st0" d="M102.1,79.3c-2.2-1.9-4.6-3.6-7.1-5.2l0,0c-0.5-0.4-1.1-0.8-1.7-1.1c-2-0.9-2.2-0.8-3.2-0.4
			c-1.1,0.4-2.3,0.7-3.5,0.7c-4.7,0.4-8.3,2.1-10.8,5s-3.4,6.7-3,11.5c0.1,0.8,0.1,1.6,0.1,2.4c0.1,2.5,0.1,4.5,1.6,6.1
			c0.9,0.9,1.8,1.7,2.8,2.4l0,0c2.1,1.7,4.4,3.1,6.9,4c2.7,0.9,5.5,1.2,8.3,0.9c2.8-0.1,5.6-1,8-2.5c2-1.4,3.6-3.3,4.6-5.6
			c1-2.7,1.4-5.7,1-8.5C105.7,84.9,104.4,81.6,102.1,79.3z M85.2,91.1c-0.2-2.8,0.1-4.9,1-6.2c0.9-1.3,2.3-2.1,3.9-2.1
			c0.6-0.1,1.3,0,1.9,0.1c0.9,1.5,1.4,3.2,1.5,4.9c0.3,3.1,0,5.3-0.9,6.6c-0.9,1.3-2.4,2.1-4,2.1c-0.6,0.1-1.2,0-1.8-0.1
			C85.8,94.8,85.2,93,85.2,91.1z"/>
		<path class="st0" d="M90.8,78.2c-0.5-0.3-1-0.5-1.4-0.8c-1.1-0.8-2.4-1.4-3.7-1.9l-0.5-0.1c-0.2-0.1-0.5-0.1-0.7-0.1
			c-0.7-0.2-1.4-0.5-2-1c-2.5,0.7-4.8,2-6.5,3.9c3.3,2.4,6.6,4.9,9.8,7.5c0.1-0.2,0.2-0.5,0.4-0.7c0.9-1.3,2.3-2.1,3.9-2.1
			c0.4,0,0.8,0,1.3,0c-0.1-1.2-0.3-2.4-0.4-3.6C90.9,78.9,90.9,78.5,90.8,78.2z"/>
		
			<linearGradient id="SVGID_6_" gradientUnits="userSpaceOnUse" x1="82.6554" y1="124.2809" x2="76.0654" y2="114.1509" gradientTransform="matrix(0.9964 -8.489522e-02 -8.489522e-02 -0.9964 18.6692 225.5872)">
			<stop  offset="0" style="stop-color:#FFCC33"/>
			<stop  offset="1" style="stop-color:#FBD872"/>
		</linearGradient>
		<path class="st12" d="M100.2,100.4c-1.8-1-3.6-2.1-5.3-3.3l-0.7,0.3c-0.5,0.2-1,0.5-1.5,0.7c-2.2,0.8-4.5,1.3-6.9,1.4
			c-2.2,0.2-4.5,0-6.7-0.5c-1.2-0.3-2.2-0.7-3.4-1l-0.7-0.2c-0.5-0.1-1-0.3-1.5-0.6c0.2,0.4,0.5,0.8,0.8,1.1
			c0.9,0.9,1.8,1.7,2.8,2.4l0,0c2.1,1.7,4.4,3.1,6.9,4c2.7,0.9,5.5,1.2,8.3,0.9c2.8-0.1,5.6-1,8-2.5c0.7-0.5,1.3-1,1.9-1.6
			L100.2,100.4z"/>
		
			<linearGradient id="SVGID_7_" gradientUnits="userSpaceOnUse" x1="95.9542" y1="144.3817" x2="96.1242" y2="117.4517" gradientTransform="matrix(1 -6.806731e-03 -6.806731e-03 -1 -10.2815 217.7919)">
			<stop  offset="0" style="stop-color:#FF5D54"/>
			<stop  offset="0.15" style="stop-color:#FC5951"/>
			<stop  offset="0.28" style="stop-color:#F14E4A"/>
			<stop  offset="0.42" style="stop-color:#E03B3C"/>
			<stop  offset="0.54" style="stop-color:#C8212A"/>
			<stop  offset="0.59" style="stop-color:#BE1622"/>
		</linearGradient>
		<path class="st13" d="M99.6,84.7c0-0.4-0.1-0.8-0.1-1.1s-0.1-0.6-0.1-0.8c-0.1-0.4-0.2-0.8-0.3-1.2s-0.2-0.6-0.3-0.9
			c-0.2-0.5-0.3-1-0.5-1.4s-0.4-0.8-0.6-1.2c-0.4-0.8-0.9-1.5-1.5-2.2c-0.4-0.5-0.9-0.9-1.4-1.3c-0.3-0.3-0.7-0.5-1-0.7
			c0-0.1-0.1-0.2-0.2-0.1c-0.3-0.2-0.7-0.4-1-0.6c-0.8-0.4-1.6-0.8-2.5-1c-0.4-0.1-0.8-0.2-1.3-0.3c-0.5-0.1-1-0.2-1.6-0.2l-1-0.1
			c-0.4,0-0.8,0-1.3,0h-0.9h-0.7H83l-0.8,0.1c-0.4,0.1-0.7,0.1-1,0.2c-0.2,0-0.5,0.1-0.7,0.2l-1,0.2l-0.7,0.2
			c-0.3,0.1-0.6,0.2-0.9,0.3L77.4,73c-0.3,0.1-0.5,0.2-0.8,0.4l-0.5,0.3c-0.2,0.1-0.5,0.3-0.7,0.4s-0.3,0.2-0.4,0.3
			s-0.4,0.3-0.6,0.5s-0.3,0.2-0.4,0.4s-0.4,0.4-0.6,0.6L73,76.3l0,0c-0.2,0.2-0.3,0.4-0.4,0.6c-0.1,0.1-0.2,0.3-0.3,0.5
			c-0.2,0.2-0.3,0.4-0.4,0.7s-0.2,0.3-0.3,0.5s-0.2,0.5-0.3,0.7s-0.2,0.4-0.2,0.5s-0.2,0.5-0.3,0.8s-0.1,0.4-0.2,0.6
			s-0.1,0.6-0.2,0.8l-0.1,0.6c0,0.3-0.1,0.6-0.1,0.9s0,0.4-0.1,0.7s0,0.6,0,1s0,0.5,0,0.7s0,0.7,0,1s0,0.4,0,0.7c0,0,0,0.1,0,0.1
			c0,0.4,0.1,0.7,0.1,1.1s0.1,0.6,0.1,0.8s0.2,0.8,0.2,1.2s0.2,0.6,0.2,0.9c0.1,0.5,0.3,0.9,0.5,1.4c0.2,0.4,0.3,0.8,0.5,1.1
			c0.3,0.6,0.6,1.1,1,1.6l0.3,0.4c1.3,1.7,3,3.1,5,3.9l0.3,0.1c0.6,0.2,1.2,0.4,1.9,0.6c0.4,0.1,0.8,0.2,1.2,0.2s1,0.1,1.5,0.2h1H85
			h0.8h0.6c0.2,0,0.4,0,0.6-0.1l0.8-0.1c0.4,0,0.7-0.1,1.1-0.2s0.5-0.1,0.7-0.2s0.6-0.2,1-0.3s0.4-0.1,0.7-0.2s0.6-0.2,0.9-0.3
			l0.6-0.2c0.3-0.1,0.5-0.3,0.8-0.4l0.5-0.3l0.3-0.2l0.3-0.3l0.5-0.3c0.2-0.2,0.4-0.3,0.6-0.5c0.1-0.1,0.3-0.3,0.4-0.4
			s0.4-0.4,0.5-0.6s0.2-0.3,0.4-0.4s0.3-0.4,0.5-0.6s0.2-0.3,0.3-0.5s0.3-0.4,0.4-0.7s0.2-0.3,0.3-0.5s0.2-0.4,0.3-0.6l0.1-0.2
			c0.1-0.1,0.1-0.3,0.2-0.4s0.2-0.5,0.2-0.8s0.1-0.4,0.2-0.6s0.1-0.6,0.2-0.9s0.1-0.4,0.1-0.6s0.1-0.6,0.1-0.9s0-0.4,0-0.7
			s0-0.7,0-1s0-0.5,0-0.7s0-0.7,0-1v-0.5L99.6,84.7z M90.2,82.5c0.1,0.3,0.2,0.6,0.3,0.9s0.2,0.8,0.2,1.2c0,0.3,0.1,0.5,0.1,0.8
			c0,0.1,0,0.2,0,0.2c0,0.3,0,0.6,0.1,0.8s0,0.4,0,0.6c0,0.3,0,0.7,0,1v0.7c0,0.3,0,0.6-0.1,0.9c0,0.2-0.1,0.4-0.1,0.6
			s-0.1,0.6-0.2,0.8c-0.1,0.2-0.1,0.4-0.2,0.6c-0.1,0.2-0.2,0.5-0.4,0.7l0,0c0,0-0.2,0.3-0.3,0.4c-0.2,0.2-0.4,0.4-0.6,0.6l-0.5,0.3
			c-0.2,0.2-0.5,0.3-0.8,0.4c-0.2,0.1-0.4,0.2-0.6,0.2c-0.3,0.1-0.7,0.2-1,0.2c-0.2,0-0.3,0.1-0.5,0.1h-0.3c-0.5,0-0.9,0-1.4-0.1
			c-0.5-0.1-1-0.2-1.5-0.5c-0.5-0.3-1-0.6-1.4-1c-0.1-0.1-0.2-0.2-0.3-0.3c-0.3-0.4-0.6-0.9-0.8-1.4c-0.2-0.4-0.4-0.9-0.5-1.3
			c-0.1-0.3-0.2-0.6-0.2-0.9S79,88.4,79,88c0-0.2-0.1-0.5-0.1-0.8c0-0.1,0-0.1,0-0.2l-0.1-0.9c0-0.2,0-0.5,0-0.7s0-0.7,0-1l0.1-0.7
			c0-0.3,0.1-0.6,0.2-0.9c0-0.2,0.1-0.4,0.2-0.6c0.1-0.3,0.2-0.5,0.3-0.8c0.1-0.2,0.2-0.3,0.3-0.5s0.2-0.2,0.2-0.4s0.2-0.2,0.2-0.3
			c0.1-0.1,0.2-0.3,0.4-0.4c0.2-0.2,0.4-0.4,0.6-0.5c0.1-0.1,0.3-0.2,0.4-0.3c0.3-0.2,0.5-0.3,0.8-0.4c0.2-0.1,0.4-0.1,0.7-0.2
			c0.3-0.1,0.6-0.1,1-0.2l0,0c0.3,0,0.6,0,0.8,0c0.5,0,1.1,0.1,1.6,0.2c0.8,0.2,1.6,0.7,2.2,1.3c0.4,0.3,0.7,0.7,0.9,1.1
			C89.8,81.5,90,82,90.2,82.5z"/>
		<path class="st3" d="M89.8,80.3c-0.6-0.6-1.4-1-2.2-1.3c0.2,0.1,0.4,0.3,0.6,0.4c0.2,0.2,0.3,0.5,0.3,0.8c0.3,0.2,0.6,0.4,0.9,0.7
			c1.1,1.1,1.4,3,1.6,5.6c0.3,3.1-0.2,4.7-1,6c-0.8,1.3-2.2,2.1-3.7,2.2c-1.5,0.1-2.5,0.2-3.5-0.7c-0.5,0-1-0.1-1.4-0.3
			c0.1,0.2,0.3,0.4,0.5,0.6c2.7,2.4,6.8,2.1,9.2-0.6c0.1-0.1,0.1-0.1,0.2-0.2c1-1.4,1.3-3.7,1.1-7.1C91.8,83.5,91.1,81.5,89.8,80.3z
			"/>
		<path class="st3" d="M75.9,98.7c-0.8-0.7-1.4-1.4-2-2.3c-1.6-2.4-2.5-5.1-2.6-8c-0.4-4.6,0.6-8.2,2.9-11s5.8-4.3,10.3-4.7
			s8,0.5,10.7,2.5c-0.1-0.3-0.2-0.6-0.3-0.9l-0.2-0.4c-3.2-1.8-6.9-2.5-10.6-2.1c-4.7,0.4-8.7,2-11.1,4.9s-3.2,6.8-2.8,11.6
			c0.3,3.1,1.3,6.1,3.1,8.6c0.5,0.8,1.1,1.5,1.8,2.1C75.3,98.8,75.6,98.7,75.9,98.7z"/>
		<path class="st4" d="M86.4,101.7c-2.8,0.3-5.7,0-8.3-0.9c-2.3-0.9-4.3-2.5-5.8-4.6c-1.7-2.5-2.6-5.4-2.8-8.4
			c-0.4-4.8,0.6-8.7,3.1-11.6s6.1-4.6,10.8-5s8.8,0.6,11.7,3s4.5,6,4.9,10.7c0.4,2.9,0,5.8-1,8.6c-1,2.3-2.6,4.2-4.6,5.6
			C92,100.6,89.3,101.5,86.4,101.7z M83.6,72.1c-4.5,0.4-8,2-10.3,4.7s-3.3,6.4-2.9,11c0.1,2.9,1,5.6,2.6,8c1.3,1.9,3.2,3.4,5.4,4.3
			c2.6,0.9,5.3,1.2,8,0.8c2.7-0.2,5.3-1,7.6-2.4c1.9-1.3,3.4-3.1,4.3-5.2c1-2.6,1.3-5.4,1-8.2c-0.4-4.5-1.9-7.9-4.7-10.2
			S88.2,71.7,83.6,72.1z M85.6,95.1c-1.8,0.2-3.6-0.4-4.9-1.6c-1.2-1.2-2-3.4-2.3-6.3s0.1-5.2,1.2-6.7c1-1.4,2.7-2.3,4.4-2.4
			c1.8-0.2,3.6,0.4,4.9,1.6c1.3,1.2,2,3.2,2.3,6c0.3,3.3-0.1,5.7-1.1,7.1C89,94.1,87.4,95,85.6,95.1L85.6,95.1z M84.1,78.8
			c-1.5,0.1-3,0.8-3.8,2.1c-0.9,1.3-1.2,3.3-1,6.2s0.9,4.8,2,5.8c2.4,2.1,6,1.9,8.1-0.5c0,0,0.1-0.1,0.1-0.1
			c0.9-1.2,1.2-3.4,0.9-6.5c-0.2-2.6-0.9-4.4-2-5.5C87.2,79.1,85.7,78.5,84.1,78.8L84.1,78.8z"/>
		<path class="st0" d="M221.2,94.2l-5.3-8.4c-0.4-0.6-0.9-1.2-1.4-1.7c-0.9-0.8-1.9-1.5-3-2.1c0.7-0.3,1.4-0.6,2-1.1
			c3.8-3,4.5-8.4,1.6-12.3c-1.7-1.7-3.6-3.2-5.7-4.4h-0.1c-0.8-0.6-1.7-1.2-2.7-1.6c-0.7-0.3-1.6-0.2-2.2,0.3
			c-0.7,0.7-1.6,1.1-2.6,1.2l-15,1.2l-0.6,27.2l3.1,2l3.1,2l9.3-0.8l-1-11.5c-0.1-0.1-0.2-0.1-0.4-0.2V84l0.8-0.1h0.2
			c0.2,0.2,0.3,0.5,0.5,0.8l2.6,6.5l3.1,2l3,2L221.2,94.2z M204.4,73c0.1,0.5-0.1,1.1-0.4,1.5c-0.3,0.4-0.7,0.8-1.2,0.9
			c-0.7,0.3-1.5,0.5-2.2,0.6l-1,0.1l-0.2-2.4l0.3-0.1V73l1.1-0.1c0.1-0.1,0.3-0.2,0.4-0.4l2-0.2c0.4,0,0.7,0,1,0
			C204.3,72.6,204.4,72.8,204.4,73z"/>
		<path class="st1" d="M193.6,68.8c0.1,0.1,6.2,4.2,6.2,4.2l1.1-0.1c0.4-0.2,0.9-0.3,1.3-0.4c-0.2-1.5-0.6-2.9-1-4.3
			C198.6,67.8,196,67.6,193.6,68.8z"/>
		
			<linearGradient id="SVGID_8_" gradientUnits="userSpaceOnUse" x1="204.8937" y1="132.8633" x2="202.8637" y2="130.4933" gradientTransform="matrix(0.9964 -8.489522e-02 -8.489522e-02 -0.9964 18.6692 225.5872)">
			<stop  offset="0" style="stop-color:#FFCC33"/>
			<stop  offset="1" style="stop-color:#FBD872"/>
		</linearGradient>
		<path class="st14" d="M204,77.9C203.9,77.8,204.2,78,204,77.9c0.2,0.1,0.3,0.1,0.5,0.2c0.2,0.1,0.5,0.2,0.7,0.2
			c0.4,0.1,0.8,0.2,1.2,0.3c0.4-0.1,0.9,0,1.2,0.3c1.2,1.2,2.5,2.2,3.9,3c0.7-0.3,1.4-0.7,2-1.1c0.9-0.6,1.6-1.4,2.2-2.4
			c-0.6-0.5-5.1-3.7-6.7-4.9c-0.2,0.5-0.6,1-0.9,1.4c-1,1-2.2,1.7-3.5,2.3L204,77.9L204,77.9z"/>
		<path class="st1" d="M195.8,91.9c-0.4-0.2-9.7,0.8-9.7,0.8l3.1,2l3.1,2l9.3-0.8C200.7,95.3,197.2,92.9,195.8,91.9z"/>
		<path class="st1" d="M221.2,94.2c-2.4-1.7-3.9-2.7-5.9-4c-0.9-0.6-10.9,1-10.9,1l3.1,2l3,2L221.2,94.2L221.2,94.2z"/>
		
			<linearGradient id="SVGID_9_" gradientUnits="userSpaceOnUse" x1="210.5269" y1="152.8716" x2="210.6169" y2="126.2116" gradientTransform="matrix(1 -6.806731e-03 -6.806731e-03 -1 -10.2815 217.7919)">
			<stop  offset="0" style="stop-color:#FF5D54"/>
			<stop  offset="0.15" style="stop-color:#FC5951"/>
			<stop  offset="0.28" style="stop-color:#F14E4A"/>
			<stop  offset="0.42" style="stop-color:#E03B3C"/>
			<stop  offset="0.54" style="stop-color:#C8212A"/>
			<stop  offset="0.59" style="stop-color:#BE1622"/>
		</linearGradient>
		<path class="st15" d="M214.3,89.3l-0.9-1.4l-1.2-2l-0.9-1.4l-1.2-2l-0.4-0.6c-0.3-0.4-0.5-0.8-0.9-1.1l0,0l-0.5-0.6
			c-0.5-0.5-1-1-1.5-1.4c-0.3-0.2-0.7-0.3-1-0.4l0,0c-0.5-0.2-0.9-0.3-1.4-0.4l0.6-0.2l0.9-0.3l0.6-0.3c0.3-0.1,0.5-0.3,0.7-0.4
			c0.1,0,0.2-0.1,0.2-0.2l0.2-0.2c0.2-0.2,0.4-0.3,0.6-0.5l0.4-0.4c0.2-0.2,0.4-0.4,0.5-0.6c0.1-0.2,0.2-0.3,0.3-0.5
			s0.3-0.5,0.4-0.7c0-0.1,0-0.1,0.1-0.2c0.1-0.1,0.1-0.2,0.2-0.4s0.2-0.5,0.3-0.8s0.1-0.4,0.1-0.6c0.1-0.3,0.1-0.6,0.1-0.9
			c0-0.2,0-0.5,0-0.7s0-0.5,0-0.8v-0.2c0-0.3,0-0.5-0.1-0.8c-0.1-0.4-0.2-0.9-0.4-1.3c-0.1-0.4-0.3-0.7-0.5-1.1
			c-0.9-1.7-2.5-2.9-4.3-3.4H205c-0.3-0.1-0.7-0.1-1-0.2s-0.9-0.1-1.4-0.1h-0.9h-1.2h-0.9l-0.9,0.1L184,63.6l2.4,28.7l8.9-0.8
			l-1-11.6l0.8-0.1c0.2,0,0.4,0,0.7,0c0.3,0,0.7,0.1,1,0.2c0.2,0.1,0.4,0.2,0.6,0.3c0.4,0.3,0.7,0.6,1,1l0,0
			c0.3,0.4,0.5,0.7,0.8,1.1l0.1,0.2l1.4,2.1l1,1.5l1.4,2.1l1,1.5l0.7,1.1l10-0.9L214.3,89.3z M201.7,70.8c0,0.3,0,0.6-0.1,0.9
			c0,0.2-0.1,0.4-0.2,0.6l-0.1,0.2c-0.1,0.2-0.2,0.3-0.4,0.4c-0.1,0.1-0.3,0.3-0.4,0.4c-0.2,0.1-0.4,0.2-0.6,0.2l-0.3,0.1l-0.7,0.2
			c-0.4,0.1-0.7,0.2-1,0.2l-0.4,0.1l-3.7,0.3l-0.5-5.8l3.9-0.3c0.4,0,0.8-0.1,1.2-0.1c0.3,0,0.7,0,1,0.1c0.4,0.1,0.8,0.2,1.2,0.4
			c0.4,0.3,0.7,0.7,0.9,1.2C201.6,70.2,201.6,70.5,201.7,70.8L201.7,70.8z"/>
		<path class="st3" d="M201.7,69.2c-0.3-0.4-0.7-0.6-1.2-0.9c0.5,0.5,0.9,1.2,1.1,1.9c0.3,0.4-0.9,2.4-0.8,3s-5.8,1.2-5.8,1.2
			c-0.5,0.1-1,0.3-1.6,0.5l0.9,0.7l4.1-0.4c0.8-0.1,1.6-0.3,2.4-0.6c0.7-0.2,1.2-0.6,1.6-1.2c0.4-0.6,0.6-1.3,0.5-2
			C202.9,70.5,202.4,69.7,201.7,69.2z"/>
		<path class="st11" d="M205,78.4l-2.2-0.4l0.9,0.7l1.4,0.3c0.8,0.2,1.6,0.4,2.3,0.8c0.3,0.2,0.6,0.4,0.8,0.7c0-0.4,0-0.7-0.1-1.1
			c-0.1-0.1-0.2-0.2-0.3-0.2c-0.4-0.2-0.8-0.4-1.3-0.6l0,0C206,78.6,205.5,78.5,205,78.4z"/>
		<path class="st11" d="M198.4,80.7c-0.3-0.2-0.6-0.3-0.9-0.4c0.6,0.5,1.1,1.2,1.4,2c0.3,0.3,0.5,0.7,0.7,1l5,7.6l0.9-0.1l-5.2-7.9
			C199.8,82,199.2,81.2,198.4,80.7z"/>
		<path class="st3" d="M208.2,64.6c-0.1-0.2-0.1-0.5-0.3-0.7c0-0.1-0.1-0.2-0.2-0.2c-0.3-0.1-0.6-0.3-0.7-0.5
			c-0.3-0.1-0.7-0.3-1.1-0.3c-2.1-0.4-4.3-0.4-6.5-0.2L184.4,64l2.4,28.2l0.8-0.2l-2.3-27.3l14.4-1.2c2.1-0.3,4.2-0.2,6.2,0.2
			c0.9,0.2,1.7,0.6,2.4,1.2C208.3,64.8,208.3,64.7,208.2,64.6z"/>
		<path class="st4" d="M215.3,90.2l-10.9,0.9l-5.6-8.6c-0.4-0.8-1-1.4-1.7-1.9c-0.6-0.4-1.3-0.5-2-0.4h-0.4l1,11.6l-9.7,0.8
			l-2.5-29.5l15.2-1.3c2.2-0.3,4.3-0.2,6.5,0.2c1.5,0.3,2.9,1.2,3.9,2.4c3,3.6,2.5,9-1.1,12c-0.1,0.1-0.3,0.2-0.4,0.3
			c-0.6,0.4-1.3,0.7-1.9,1c0.5,0.1,0.9,0.3,1.3,0.6c0.6,0.4,1.2,1,1.6,1.5c0.6,0.5,1.1,1.1,1.5,1.7L215.3,90.2z M204.8,90.3l9.1-0.8
			l-4.6-7.4c-0.4-0.6-0.9-1.1-1.4-1.6c-0.4-0.5-0.9-0.9-1.5-1.3c-0.7-0.4-1.5-0.7-2.3-0.8l-1.4-0.4l1.4-0.4c1-0.3,2-0.7,2.9-1.3
			c2.2-1.6,3.4-4.2,3.1-6.9c-0.1-1.6-0.7-3.1-1.6-4.3c-0.9-1.1-2.1-1.8-3.5-2.1c-2.1-0.4-4.1-0.4-6.2-0.2L184.4,64l2.4,27.9l8.1-0.7
			l-1-11.6l1.2-0.1c0.9-0.1,1.7,0.1,2.5,0.5c0.8,0.6,1.4,1.3,1.9,2.2L204.8,90.3z M197.6,74.5l-4.1,0.3l-0.6-6.6l4.3-0.4
			c1.2-0.2,2.5,0,3.6,0.5c1.3,1,1.6,2.9,0.8,4.3c-0.4,0.6-0.9,1-1.6,1.2C199.2,74.2,198.4,74.4,197.6,74.5z M194.2,74l3.3-0.3
			c0.8-0.1,1.5-0.3,2.2-0.6c0.5-0.1,0.9-0.4,1.1-0.9c0.6-1.1,0.4-2.4-0.5-3.2c-0.4-0.3-1.2-0.6-3.1-0.4l-3.5,0.3L194.2,74z"/>
		<path class="st0" d="M131.9,67.5l-6.5,3l1.5,17.7c0.2,1.3-0.1,2.5-0.9,3.6c-0.8,0.9-2,1.5-3.3,1.5c-0.6,0.1-1.2,0-1.7-0.1
			c-0.3-0.7-0.5-1.4-0.6-2.1h0.3c0,0,0-0.1,0-0.2l-1.5-17.6l-6-4.2l-6.5,3l1.5,17.3c0.2,1.7,0.6,3.3,1.2,4.9c0.1,0.3,0,0.3-0.2,0.5
			s-0.4,0.8-0.2,1c1.1,0.9,2.2,1.8,3.5,2.6c1.7,1.3,3.6,2.4,5.5,3.4c1.4,0.5,2.9,0.8,4.3,0.8c1.5,0.1,3.1,0,4.6-0.1
			c2.1-0.1,4.3-0.7,6.2-1.5c1.3-0.7,2.5-1.6,3.5-2.8c1.1-1.2,1.8-2.7,2.2-4.3c0.4-1.6,0.5-3.3,0.4-5l-1.5-17.2L131.9,67.5z"/>
		
			<linearGradient id="SVGID_10_" gradientUnits="userSpaceOnUse" x1="117.7597" y1="123.5646" x2="116.1397" y2="121.0646" gradientTransform="matrix(0.9964 -8.489522e-02 -8.489522e-02 -0.9964 18.6692 225.5872)">
			<stop  offset="0" style="stop-color:#FFCC33"/>
			<stop  offset="1" style="stop-color:#FBD872"/>
		</linearGradient>
		<path class="st16" d="M130.1,94.2c-0.1,0.1-0.2,0.1-0.3,0c-3.8,0.4-7.5,0.9-11.3,1.2c-1.9,0.2-3.8,0.2-5.8,0.4
			c-1,0.1-2.2,0.3-3.3,0.3c1,0.8,2,1.6,3.1,2.2c1.7,1.3,3.6,2.4,5.5,3.4c1.4,0.5,2.9,0.8,4.3,0.8c1.5,0.1,3.1,0,4.6-0.1
			c2.1-0.1,4.3-0.7,6.2-1.5c1.2-0.6,2.3-1.4,3.2-2.4l-1.1-0.7C133.6,96.6,131.8,95.3,130.1,94.2z"/>
		
			<linearGradient id="SVGID_11_" gradientUnits="userSpaceOnUse" x1="112.0506" y1="146.1766" x2="111.9306" y2="119.2466" gradientTransform="matrix(0.9964 -8.489522e-02 -8.489522e-02 -0.9964 18.6692 225.5872)">
			<stop  offset="0" style="stop-color:#FF5D54"/>
			<stop  offset="0.15" style="stop-color:#FC5951"/>
			<stop  offset="0.28" style="stop-color:#F14E4A"/>
			<stop  offset="0.42" style="stop-color:#E03B3C"/>
			<stop  offset="0.54" style="stop-color:#C8212A"/>
			<stop  offset="0.59" style="stop-color:#BE1622"/>
		</linearGradient>
		<path class="st17" d="M131.4,68.3l-8.7,0.7l1.5,17.5v0.1c0,0.3,0,0.7,0,1c0,0.2,0,0.4-0.1,0.7c-0.1,0.3-0.1,0.6-0.2,0.8
			c-0.1,0.2-0.1,0.4-0.2,0.5c-0.1,0.2-0.3,0.5-0.4,0.7l0,0c-0.1,0.1-0.2,0.3-0.4,0.4c-0.2,0.2-0.4,0.3-0.7,0.5
			c-0.2,0.1-0.4,0.2-0.6,0.3c-0.3,0.1-0.6,0.2-0.9,0.3c-0.2,0-0.5,0.1-0.8,0.1h-0.2c-0.3,0-0.7,0-1,0c-0.4,0-0.8-0.1-1.2-0.2
			c-0.6-0.1-1.1-0.3-1.6-0.7c-0.4-0.3-0.7-0.7-0.9-1.1c-0.2-0.3-0.3-0.7-0.4-1.1c-0.1-0.4-0.2-0.8-0.2-1.2c0-0.1,0-0.1,0-0.2
			L112.9,70l-8.8,0.8l1.4,17.1c0,0.3,0.1,0.5,0.1,0.8s0.1,0.6,0.2,0.8s0.2,0.8,0.3,1.3s0.2,0.6,0.3,1s0.2,0.6,0.3,0.9
			c0.1,0.2,0.2,0.4,0.3,0.6c0.2,0.5,0.5,1,0.9,1.4c0.3,0.4,0.6,0.8,1,1.2c0.9,0.9,2,1.7,3.2,2.2l0,0c0.5,0.2,1,0.4,1.5,0.5
			c0.5,0.1,1.1,0.2,1.6,0.2c0.3,0,0.7,0.1,1,0.1h0.1h1.2h0.9c0.4,0,0.8,0,1.2,0l0.8-0.1h0.4l0.8-0.1l0.8-0.1l1-0.2l0.7-0.2
			c0.3-0.1,0.6-0.2,1-0.3l0.7-0.2l0.8-0.3l0.4-0.2l0.2-0.1c0.3-0.1,0.5-0.3,0.7-0.4c0.2-0.1,0.3-0.2,0.5-0.3s0.4-0.3,0.6-0.5
			l0.4-0.4c0.2-0.2,0.4-0.4,0.6-0.6l0.3-0.3l0.1-0.1c0.2-0.2,0.3-0.4,0.5-0.6c0.1-0.2,0.2-0.3,0.3-0.5s0.3-0.4,0.4-0.7
			s0.2-0.3,0.2-0.5c0.1-0.2,0.2-0.5,0.3-0.8c0.1-0.2,0.1-0.4,0.2-0.6s0.1-0.3,0.1-0.4l0.1-0.4c0-0.2,0.1-0.4,0.1-0.6
			s0.1-0.6,0.1-0.9l0.1-0.7c0-0.3,0-0.7,0-1s0-0.5,0-0.7s0-0.4,0-0.6l-1.4-16.9L131.4,68.3z"/>
		<path class="st3" d="M109.2,96c0.3,0.1,0.6,0.1,0.9,0.2c0.2,0,0.4,0.1,0.6,0.1c-0.2-0.2-0.5-0.4-0.7-0.6c-0.9-0.8-1.6-1.9-2.1-3
			c-0.6-1.5-1-3.1-1.2-4.7l-1.4-16.7l7.6-0.6c0-0.1,0-0.3,0-0.4c0-0.1,0-0.3,0.1-0.4l-8.5,0.7l1.5,17.5c0.2,1.7,0.6,3.3,1.2,4.9
			C107.7,94.1,108.4,95.1,109.2,96z"/>
		<path class="st3" d="M120.6,92.7c1.4,0,2.8-0.7,3.8-1.8c0.9-1.2,1.3-2.6,1.1-4.1L124,69.8l7.5-0.6c0-0.3,0-0.5,0-0.8l-8.3,0.7
			l1.2,18c0.1,1.2-0.3,2.3-1.1,3.1c-0.7,0.9-1.8,1.5-3,1.5c-1.3,0.1-2.1,0.1-2.9-0.6c-0.9-0.2-1.7-0.9-2.2-1.8
			c0.3,0.9,0.8,1.6,1.4,2.2C117.8,92.5,119.2,92.9,120.6,92.7z"/>
		<path class="st4" d="M121,98.6c-1.5,0.1-3.1,0.2-4.6,0.1c-1.5,0-3-0.3-4.4-0.8c-1.3-0.6-2.4-1.3-3.4-2.3c-1-0.9-1.7-2-2.3-3.3
			c-0.6-1.6-1.1-3.2-1.3-4.9l-1.5-17.5l9.6-0.8l1.5,17.9c0,1.2,0.6,2.4,1.5,3.3c2.1,1.4,4.8,1.2,6.6-0.6c0.8-1,1.1-2.3,0.9-3.5
			l-1.5-17.9l9.6-0.8l1.5,17.5c0.1,1.7,0,3.4-0.4,5c-0.4,1.6-1.2,3.1-2.2,4.3c-0.9,1.2-2.1,2.1-3.5,2.8
			C125.3,98,123.2,98.5,121,98.6z M104.5,70.6l1.4,16.7c0.2,1.6,0.6,3.2,1.2,4.7c0.5,1.1,1.2,2.2,2.1,3c0.9,0.9,2,1.6,3.1,2.1
			c1.3,0.5,2.7,0.8,4.1,0.8c1.5,0.1,3,0,4.5-0.1c2.1-0.1,4.1-0.6,6-1.4c1.2-0.6,2.3-1.5,3.2-2.6c1-1.2,1.7-2.5,2.1-4
			c0.4-1.5,0.5-3.1,0.4-4.7l-1.4-16.7l-8,0.7l1.4,17.1c0.2,1.5-0.2,2.9-1.1,4.1c-2.1,2.1-5.4,2.4-7.8,0.6c-1.1-1-1.7-2.4-1.8-3.9
			l-1.5-17L104.5,70.6z"/>
		<path class="st0" d="M356.5,73.3l-2.9-2.2l-9.8,2.7l-0.1-0.7l0.3-0.1l-0.1-1.6l13.8-1.2l-0.6-6.3l-3.2-2l-2.1-1.6l6-0.5l-0.6-6.6
			l-3.1-2l-2.9-2.3L330,53.3l-0.6,27.2l3.1,1.9l0,0l3.2,2.1l24.6-2.1l-0.6-7L356.5,73.3z M342.9,62.3l-0.1-1.3
			c0.1,0,0.2,0.1,0.4,0.1l5-0.4L342.9,62.3z"/>
		<path class="st1" d="M351.4,55.5c-2.9,0.6-6.2-0.4-9.1,0.1c-1.4,0.2-2.7,0.5-4.1,0.9c-0.3,0.1-1.3,0.1-1.7,0.2
			c0.5,0.3,4.5,3.5,6.6,4.4l3.4-0.3c0.3-0.1,5.4-0.5,5.4-0.5l6-0.5L351.4,55.5z"/>
		<path class="st1" d="M354.2,78.3c-1.8-0.7-3.8-1.1-5.7-1.1c-2.3,0.1-4.6,0.6-7,0.8c-3.5,0.3-7,0.4-10.5,0.5
			c-0.6,0.2-1.2,0.3-1.8,0.4l0.1,1.6l3.1,1.9l0,0l3.2,2.1l24.6-2.1C358.3,80.9,356.1,79.5,354.2,78.3z"/>
		<path class="st1" d="M351.8,66.3c-0.7-0.5-10.1-0.2-14.8,0.4c0,0.1,1,0.6,1,0.8c1.2,0.8,4,2.8,5.9,4l0,0l13.8-1.2
			C355.8,69,353.6,67.6,351.8,66.3z"/>
		
			<linearGradient id="SVGID_12_" gradientUnits="userSpaceOnUse" x1="334.4437" y1="146.8065" x2="334.4437" y2="119.9065" gradientTransform="matrix(0.9964 -8.489522e-02 -8.489522e-02 -0.9964 18.6692 225.5872)">
			<stop  offset="0" style="stop-color:#FF5D54"/>
			<stop  offset="0.15" style="stop-color:#FC5951"/>
			<stop  offset="0.28" style="stop-color:#F14E4A"/>
			<stop  offset="0.42" style="stop-color:#E03B3C"/>
			<stop  offset="0.54" style="stop-color:#C8212A"/>
			<stop  offset="0.59" style="stop-color:#BE1622"/>
		</linearGradient>
		<polygon class="st18" points="338.3,72.8 338.1,72.6 337.6,67.1 351.4,66 350.9,60.1 337.1,61.3 336.7,56.7 351.6,55.5 351,49.3 
			327.3,51.4 329.8,80 329.9,80 329.9,80 353.9,78 353.4,71.5 		"/>
		<path class="st3" d="M339.2,72.6c-0.5,0.2-1,0.5-1.5,0.7l0.9,0.7l14.9-1.3c0-0.1,0-0.2,0-0.3c0-0.2,0-0.4,0-0.5l-14.2,1.2
			L339.2,72.6L339.2,72.6z"/>
		<path class="st3" d="M330.9,79.9l-2.3-27.5l22.5-1.9c0-0.3,0-0.6,0.1-0.8l-23.5,2l2.4,28.4C330.4,80,330.7,80,330.9,79.9z"/>
		<path class="st3" d="M336.7,61.7l0.9,0.7l13.4-1.1c0-0.3,0-0.6,0-0.8l-12.6,1.1v-0.4C338,61.3,336.9,61.5,336.7,61.7z"/>
		<path class="st4" d="M354.4,78.3l-25,2.1L326.9,51l24.5-2.1l0.6,6.9l-14.9,1.3l0.3,3.8l13.8-1.2l0.6,6.6L338,67.5l0.4,4.8
			l15.3-1.3L354.4,78.3z M330.1,79.6l23.4-2l-0.5-5.7l-15.3,1.3l-0.5-6.4l13.8-1.2l-0.4-5.1l-13.8,1.2l-0.5-5.3l14.9-1.3l-0.5-5.3
			l-22.9,2L330.1,79.6z"/>
		<path class="st0" d="M247.4,82.6l-2.9-2.2l-9.8,2.7l-0.1-0.7l0.3-0.1l-0.1-1.6l13.8-1.2l-0.5-6.3l-3.2-2l-2.1-1.6l6-0.5l-0.6-6.6
			l-3.1-2l-2.9-2.2l-21.3,4.3l-0.6,27.2l3.1,1.9l0,0l3.2,2.1l24.6-2.1l-0.6-7L247.4,82.6z M233.7,71.6l-0.1-1.3c0.1,0,0.3,0,0.4,0.1
			l5-0.4L233.7,71.6z"/>
		<path class="st1" d="M242.3,64.8c-2.9,0.6-6.2-0.4-9.1,0.1c-1.4,0.2-2.7,0.6-4.1,0.9c-0.6,0-1.2,0.1-1.7,0.2
			c0.5,0.3,4.5,3.5,6.6,4.4l3.4-0.3c0.3-0.1,5.4-0.5,5.4-0.5l6-0.5L242.3,64.8z"/>
		<path class="st1" d="M245.1,87.6c-1.8-0.7-3.8-1.1-5.7-1.1c-2.3,0.1-4.6,0.6-6.9,0.8c-3.5,0.3-7,0.4-10.5,0.5
			c-0.6,0.2-1.2,0.3-1.8,0.4l0.1,1.6l3.1,1.9l0,0l3.2,2.1l24.6-2.1C249.2,90.2,247,88.8,245.1,87.6z"/>
		<path class="st1" d="M242.7,75.7c-0.7-0.5-10.1-0.2-14.8,0.4c0,0.1,1,0.6,1,0.8c1.2,0.8,4,2.8,5.9,4l0,0l13.8-1.2
			C246.6,78.3,244.5,76.9,242.7,75.7z"/>
		
			<linearGradient id="SVGID_13_" gradientUnits="userSpaceOnUse" x1="224.9273" y1="146.8065" x2="224.9273" y2="119.9065" gradientTransform="matrix(0.9964 -8.489522e-02 -8.489522e-02 -0.9964 18.6692 225.5872)">
			<stop  offset="0" style="stop-color:#FF5D54"/>
			<stop  offset="0.15" style="stop-color:#FC5951"/>
			<stop  offset="0.28" style="stop-color:#F14E4A"/>
			<stop  offset="0.42" style="stop-color:#E03B3C"/>
			<stop  offset="0.54" style="stop-color:#C8212A"/>
			<stop  offset="0.59" style="stop-color:#BE1622"/>
		</linearGradient>
		<polygon class="st19" points="229.1,82.1 228.9,81.9 228.5,76.4 242.3,75.3 241.8,69.4 228,70.6 227.6,66 242.4,64.8 241.9,58.7 
			218.2,60.7 220.6,89.3 220.8,89.3 220.8,89.3 244.8,87.3 244.2,80.8 		"/>
		<path class="st3" d="M230.1,81.9c-0.5,0.3-1,0.5-1.5,0.7l0.9,0.7l14.9-1.3c0-0.1,0-0.2,0-0.3c0-0.2,0-0.4,0.1-0.5l-14.2,1.2
			L230.1,81.9L230.1,81.9z"/>
		<path class="st3" d="M221.8,89.2l-2.3-27.5l22.5-1.9c0-0.3,0-0.6,0.1-0.8l-23.5,2l2.4,28.3L221.8,89.2z"/>
		<path class="st3" d="M227.6,71l0.9,0.7l13.4-1.1c0-0.3,0-0.6,0-0.8l-12.6,1.1v-0.4C228.9,70.6,227.8,70.8,227.6,71z"/>
		<path class="st4" d="M245.2,87.6l-25,2.1l-2.5-29.5l24.5-2.1l0.6,6.9L228,66.4l0.3,3.8l13.8-1.2l0.6,6.6l-13.8,1.2l0.4,4.9
			l15.3-1.3L245.2,87.6z M221,88.9l23.4-2l-0.5-5.7l-15.3,1.3l-0.6-6.4l13.8-1.2l-0.4-5.1L227.6,71l-0.4-5.3l14.8-1.2l-0.4-5.3
			l-22.9,2L221,88.9z"/>
		<path class="st0" d="M165.2,147l16.1-30l-6-4l-5.9-5l-15.2,6.3l-7.3,15.8l-4.5-6.6c0.1-0.2,0.2-0.5,0.4-0.7l-1.9-2.8l-0.1-0.1
			l-6.8-4.5l0,0l-5.6-4.1l-15.1,6.5l20.8,26.9L109.6,173l6.7,4l0,0l6.6,4.3l20.9-1.6l7.5-14.7c-0.2-0.2-0.3-0.4-0.5-0.5l0.3-0.5
			l2.9,5.5l5.7,4l0,0l0.6,0.4l0,0l6,4l21.8-1.7L165.2,147z"/>
		<path class="st1" d="M165.2,147l16.1-30l-6-4l-5.9-5l-15.2,6.3L109.6,173l6.7,4l0,0l6.6,4.3l20.9-1.6L125.3,167
			c-0.2-0.2,14.8-22.3,14.7-22.5l11,19.5l2.9,5.5l5.7,4l0,0l0.6,0.4l0,0l6,4l21.8-1.7l-12.1-8.3l-27.1-32.2L165.2,147z"/>
		
			<linearGradient id="SVGID_14_" gradientUnits="userSpaceOnUse" x1="117.3763" y1="102.357" x2="117.6062" y2="47.0671" gradientTransform="matrix(0.9969 -7.811110e-02 -7.811110e-02 -0.9969 28.8966 223.8748)">
			<stop  offset="0" style="stop-color:#FF5D54"/>
			<stop  offset="0.15" style="stop-color:#FC5951"/>
			<stop  offset="0.28" style="stop-color:#F14E4A"/>
			<stop  offset="0.42" style="stop-color:#E03B3C"/>
			<stop  offset="0.54" style="stop-color:#C8212A"/>
			<stop  offset="0.59" style="stop-color:#BE1622"/>
		</linearGradient>
		<path class="st20" d="M173.9,166.6l-4.2-5.4l-3-3.9l-4.2-5.4l-3-3.9l-4.2-5.4l-2.9-3.8l0,0l0.8-1.4l0.6-1l0.8-1.4l0.6-1l0.8-1.4
			l0.6-1l0.8-1.4l0.6-1l0.8-1.4l0.6-1l0.8-1.4l0.6-1l0.8-1.4l0.6-1l0.8-1.4l0.6-1l0.8-1.4l0.6-1l0.8-1.4l0.6-1l0.8-1.4l0.6-1
			l0.8-1.4l0.6-1l-0.1-0.1l-19.7,1.5l-0.2,0.4l-0.5,1.1l-0.7,1.5l-0.5,1.1l-0.7,1.5l-0.5,1.1l-0.7,1.5l-0.5,1.1l-0.7,1.5l-0.5,1.1
			l-0.7,1.5l-0.5,1.1l-0.7,1.5l-0.5,1.1l-0.7,1.5l-0.2,0.4l-0.7-1.1l0,0l-3.1-4.5l-2.2-3.2l-3.1-4.5l-2.2-3.2l-0.7-0.6l-8.1,0.6
			l7.5,6l0,0l-7.5-6L108,114l1,1.3l3,3.8l4.2,5.4l3,3.8l4.2,5.4l2.4,3.1l3,3.8l-0.2,0.4l-0.6,1l-0.8,1.4l-0.6,1l-0.8,1.4l-0.6,1
			l-1.5,2.1l-0.8,1.4l-0.6,1l-0.8,1.4l-0.7,1.3l-0.8,1.4l-0.6,1l-0.8,1.4l-0.6,1l-0.8,1.4l-0.6,1l-0.8,1.4l-0.6,1l-0.8,1.4l-0.6,1
			l-0.8,1.4l-0.6,1l-0.8,1.4l-0.6,1c-0.1,0-0.1,0.1-0.1,0.2l-0.4,0.8l20.2-1.4l0.5-1l0.5-1l0.8-1.5l0.5-1l0.8-1.5l0.7-1.4l0.8-1.5
			l0.5-1.1l0.8-1.5l0.5-1l0.8-1.5l0.5-1l0.8-1.5l0.5-1l0.8-1.5l0.4-0.9l2.1,2.9l3.6,4.9l2.6,3.5l3.6,4.9l1.2,1.7l20.4-1.6
			L173.9,166.6z"/>
		<path class="st3" d="M166,111.5c0.2-0.6,0.5-1.2,0.8-1.7l-17.8,1.4l-8.3,18l-0.8-1.2c-0.1,0.7-0.3,1.4-0.6,2l1.7,2.5l9-19.8
			L166,111.5z"/>
		<path class="st3" d="M143.7,150.9l-2.7-1.4c-0.1,1.1,2.9,3.9,3,4.6l11.2,15.3l0.3-0.1c0.5-0.1,0.9-0.3,1.4-0.4L143.7,150.9z"/>
		<path class="st3" d="M111.3,171.7c0.7-0.1,1.9,0,2.5,0l17.2-31l-19.3-25l17.6-1.4c-0.2-0.5-0.2-1.1-0.1-1.6l-20.6,1.6l20.1,26.1
			L111.3,171.7z"/>
		<path class="st4" d="M176.1,168l-22.3,1.8l-12.6-17.2l-9.7,19l-22.2,1.7l18.3-33l-21.2-27.4l21.9-1.7l11.2,16.4l8.3-18l21.7-1.7
			l-16.5,30.7L176.1,168z M154.5,168.1l18.4-1.4l-21.7-27.9l15.6-29l-17.8,1.4l-9.1,19.7l-12.3-18l-18,1.4l20,25.9l-17.4,31.3
			l18.3-1.4l10.5-20.5L154.5,168.1z"/>
		<path class="st0" d="M242.2,119.2c-1.5-1.8-4.6-4.1-6.9-5.6c-2.6-2.5-7.2-5.1-9-6.6c0,0-2.3-1.3-3.6-0.4c-1.5,1-3.3,1.6-5.1,1.7
			l-30.7,2.4l-1.6,55.5l6.7,4.4h0.1l6,4l19.1-1.5l-1.7-21.8l9.2-0.7c7.4-0.6,13-2.8,16.4-6.5s4.9-8.7,4.4-14.8
			C245.1,124.7,244.1,121.4,242.2,119.2z M220.4,127.4c0.2,1.6-0.4,3.2-1.6,4.3c-1,1-2.9,1.7-5.5,2.1l-0.5-6.1
			c0.2-0.2,0.3-0.4,0.5-0.5l0.1-0.1v-0.6l0.8-0.1l0,0c0.1-0.2,0.2-0.5,0.4-0.7l3.3-0.3c0.7-0.1,1.4-0.1,2-0.1
			C220.2,125.9,220.4,126.6,220.4,127.4z"/>
		<path class="st1" d="M205,164.8c-1-0.9-5.4-0.9-7.4-0.8c-2.2,0.2-4.4,0-6.5,0.1c-1.9,0-5.7,2-5.7,2l6.7,4.4h0l6,4l19.1-1.5
			C217.1,173.1,206.3,165.9,205,164.8z"/>
		
			<linearGradient id="SVGID_15_" gradientUnits="userSpaceOnUse" x1="200.5258" y1="68.6489" x2="197.3757" y2="64.7489" gradientTransform="matrix(0.9969 -7.811110e-02 -7.811110e-02 -0.9969 28.8966 223.8748)">
			<stop  offset="0" style="stop-color:#FFCC33"/>
			<stop  offset="1" style="stop-color:#FBD872"/>
		</linearGradient>
		<path class="st21" d="M221.4,138.2c-0.4-0.3-8.8,0.7-12.1,1.5c-1.8,0.4-4.1,0.8-5.4,2.2c-0.3,0.3-0.6,0.6-0.8,1
			c2.3,1.7,8,5.4,12.3,8.4l9.2-0.7c4-0.2,7.9-1.2,11.4-2.9C233.4,146.1,224.8,140.6,221.4,138.2z"/>
		<path class="st1" d="M216.3,121.2c0.1-2.1-1.8-4.3-3.6-5.2c-3.7-1.9-8.5-0.2-11.8,1.8l-0.2,0.1c0.2,0.1,10.6,9.1,11.8,9.8
			C212.9,127.3,216.2,123,216.3,121.2z"/>
		
			<linearGradient id="SVGID_16_" gradientUnits="userSpaceOnUse" x1="186.0938" y1="99.937" x2="185.9238" y2="49.217" gradientTransform="matrix(0.9969 -7.811110e-02 -7.811110e-02 -0.9969 28.8966 223.8748)">
			<stop  offset="0" style="stop-color:#FF5D54"/>
			<stop  offset="0.15" style="stop-color:#FC5951"/>
			<stop  offset="0.28" style="stop-color:#F14E4A"/>
			<stop  offset="0.42" style="stop-color:#E03B3C"/>
			<stop  offset="0.54" style="stop-color:#C8212A"/>
			<stop  offset="0.59" style="stop-color:#BE1622"/>
		</linearGradient>
		<path class="st22" d="M232.3,119.2c-0.1-0.6-0.2-1.2-0.3-1.7c-0.2-0.9-0.4-1.8-0.7-2.7c-0.3-0.8-0.6-1.5-1-2.2
			c-0.9-1.8-2.2-3.4-3.8-4.7c-1.7-1.3-3.6-2.3-5.6-2.8c-0.8-0.2-1.7-0.4-2.5-0.5c-1-0.1-1.9-0.2-2.9-0.3c-0.6,0-1.2,0-1.9,0
			s-1.4,0.1-2.2,0.1l-30.1,2.4l4.6,58.6l18.2-1.4l-1.7-21.8l9.9-0.8l1.1-0.1c0.8-0.1,1.5-0.2,2.2-0.3c0.5-0.1,1-0.2,1.5-0.3
			c0.7-0.1,1.4-0.3,2-0.5l1.1-0.3c0.6-0.2,1.2-0.4,1.8-0.6c0.4-0.2,0.8-0.3,1.2-0.5c0.5-0.3,1-0.5,1.6-0.8c0.4-0.2,0.7-0.4,1-0.7
			c0.5-0.3,0.9-0.6,1.3-1c0.3-0.3,0.6-0.5,0.8-0.8c0.1-0.1,0.2-0.2,0.3-0.3c0.3-0.3,0.5-0.6,0.8-0.9s0.5-0.6,0.7-0.9
			s0.6-0.9,0.8-1.4s0.4-0.7,0.5-1.1s0.4-1,0.6-1.6s0.2-0.8,0.3-1.2c0.1-0.6,0.3-1.2,0.4-1.8c0.1-0.4,0.1-0.9,0.2-1.3
			c0-0.7,0.1-1.3,0.1-2c0-0.5,0-1,0-1.5V121C232.5,120.3,232.4,119.8,232.3,119.2z M214.9,122.8v0.3c0,0.6,0,1.3-0.2,1.9
			c-0.1,0.4-0.3,0.8-0.4,1.1c-0.3,0.5-0.6,0.9-0.9,1.3l-0.2,0.2c-0.2,0.2-0.4,0.4-0.7,0.6c-0.5,0.3-1,0.6-1.6,0.8
			c-0.4,0.2-0.9,0.3-1.3,0.4c-0.7,0.2-1.4,0.3-2.1,0.4c-0.4,0.1-0.9,0.1-1.3,0.1h-0.3l-4.4,0.4l-1-13.1l5.2-0.4c0.5,0,1-0.1,1.4-0.1
			c0.7,0,1.3,0,1.9,0.1c1.3,0.1,2.6,0.5,3.7,1.4c0.9,0.8,1.6,1.9,1.9,3.1C214.8,121.8,214.9,122.3,214.9,122.8z"/>
		<path class="st3" d="M212.4,117.1c0.5,0.7,2,2.9,2,3.9c0.8,1,0.3,2.2,0.4,3.6c0.1,1.7-0.6,2.4-1.7,3.6c-1.1,1.2-9.1,2.2-9.1,2.2
			c-1.1,0.2-2.2,0.6-3.2,1l1.8,1.5l5.3-0.4c3.7-0.3,6.2-1.2,7.7-2.6c1.5-1.4,2.2-3.4,2-5.5c-0.1-2-1-3.8-2.5-5.1
			C214.2,118.4,213.3,117.7,212.4,117.1z"/>
		<path class="st3" d="M228.1,108.3c-3.6-2.6-8.7-3.7-15-3.2l-30.9,2.4l4.6,58.2l1.6-0.1l-4.4-56.6l29.3-2.3
			c6.3-0.5,11.2,0.6,14.5,3.3l0.7,0.6C228.4,109.9,228.3,109.1,228.1,108.3z"/>
		<path class="st4" d="M205,164.8l-19.8,1.6l-4.7-60.3l30.9-2.4c6.8-0.5,12,0.7,15.7,3.7s5.8,7.5,6.2,13.5c0.5,6.1-1,11.1-4.5,14.9
			s-9,5.9-16.4,6.5l-9.1,0.7L205,164.8z M186.7,164.6l16.6-1.3l-1.7-21.8l10.7-0.8c7.1-0.6,12.2-2.6,15.4-6s4.5-8,4-13.7
			s-2.3-9.7-5.6-12.4s-8.2-3.8-14.5-3.3l-29.3,2.3L186.7,164.6z M206,130.9l-5.3,0.4l-1.1-14.7l6-0.5c3.7-0.3,6.2,0.2,7.7,1.6
			c1.5,1.3,2.4,3.1,2.5,5.1c0.2,2-0.5,4-2,5.5C212.3,129.7,209.7,130.6,206,130.9z M202.2,129.5l3.6-0.3c3.3-0.2,5.5-1,6.7-2.2
			c1.1-1.1,1.7-2.6,1.5-4.2c-0.1-1.5-0.8-3-1.9-4c-1.1-1-3.3-1.4-6.5-1.2l-4.4,0.3L202.2,129.5z"/>
		<path class="st0" d="M299.3,146.1l-5.9-4.5l-20.1,5.4l-0.1-1.5l0.7-0.1l-0.2-3.2l28.2-2.2l-1-13l-6.5-4.2l-4.3-3.3l12.3-1
			l-1.1-13.5l-6.3-4.1l-6-4.6l-43.6,8.4l-1.7,55.6l6.2,4l0,0l6.6,4.3l50.3-3.9l-1.1-14.3L299.3,146.1z M271.5,123.3l-0.2-2.6
			c0.3,0,0.5,0.1,0.8,0.2l10.2-0.8L271.5,123.3z"/>
		<path class="st1" d="M289.1,109.5c-5.9,1.2-12.8-0.9-18.7,0c-2.8,0.4-5.6,1.1-8.4,1.8c-1.2,0.1-2.3,0.2-3.5,0.5
			c1.1,0.7,9.2,7.3,13.5,9.2l7-0.6c0.7-0.2,11-0.9,11-0.9l12.3-1C302.4,118.5,289.1,109.6,289.1,109.5z"/>
		<path class="st1" d="M294.5,156.2c-1.2-0.8-8.1-2.4-11.7-2.3c-4.8,0.1-9.5,1.1-14.2,1.4c-7.1,0.5-14.3,0.6-21.4,0.9
			c-1.2,0.4-2.4,0.6-3.6,0.8l0.2,3.3l6.2,4l0,0l6.6,4.3l50.3-3.9C302.8,161.6,298.4,158.8,294.5,156.2z"/>
		<path class="st1" d="M289.8,131.7c-1.4-1-20.8-0.5-30.3,0.6c0,0.2,2.1,1.3,2.1,1.6c2.4,1.6,8.1,5.7,12.1,8.3l0,0l28.1-2.2
			C297.8,137.2,293.5,134.4,289.8,131.7z"/>
		
			<linearGradient id="SVGID_17_" gradientUnits="userSpaceOnUse" x1="244.7161" y1="105.137" x2="244.7161" y2="50.127" gradientTransform="matrix(0.9969 -7.811110e-02 -7.811110e-02 -0.9969 28.8966 223.8748)">
			<stop  offset="0" style="stop-color:#FF5D54"/>
			<stop  offset="0.15" style="stop-color:#FC5951"/>
			<stop  offset="0.28" style="stop-color:#F14E4A"/>
			<stop  offset="0.42" style="stop-color:#E03B3C"/>
			<stop  offset="0.54" style="stop-color:#C8212A"/>
			<stop  offset="0.59" style="stop-color:#BE1622"/>
		</linearGradient>
		<polygon class="st23" points="262,144.7 261.5,144.3 260.7,133.1 288.9,130.9 287.9,119 259.7,121.2 259,111.9 289.4,109.5 
			288.4,97 239.9,100.8 244.4,159.4 244.8,159.4 244.8,159.4 293.9,155.5 292.8,142.3 		"/>
		<path class="st3" d="M263.9,144.3c-0.5,0.1-2.6,1.4-3.1,1.3l1.8,1.5l30.4-2.4c0-0.2,0-0.4,0-0.6c0-0.4,0-0.7,0.1-1.1l-29,2.3
			l-0.1-1.1L263.9,144.3z"/>
		<path class="st3" d="M246.9,159.2l-4.4-56.2l46.1-3.6c-0.1-0.6,0-1.1,0.2-1.7l-48,3.8l4.5,58C245.8,159.4,246.3,159.3,246.9,159.2
			z"/>
		<path class="st3" d="M259,122.1l1.8,1.5l27.2-2.1c0-0.6,0-1.2,0-1.6l-25.8,2l-0.1-0.8C261.6,121.2,259.4,121.5,259,122.1z"/>
		<path class="st4" d="M294.8,156.3l-51.1,4L239,100l50.2-3.9l1.1,14.1l-30.4,2.4l0.6,7.7l28.2-2.2l1.1,13.6l-28.2,2.2l0.8,9.9
			l31.3-2.4L294.8,156.3z M245.2,158.5l47.8-3.8l-0.9-11.7l-31.3,2.4l-1-13.2l28.2-2.2l-0.8-10.3l-28.2,2.2l-0.9-10.9l30.4-2.4
			l-0.9-10.9l-46.9,3.7L245.2,158.5z"/>
		<path class="st0" d="M378.7,157.8L368,140.6c-0.9-1.3-1.8-2.5-2.9-3.6c-1.9-1.6-3.9-3.1-6.1-4.3c1.5-0.5,2.8-1.3,4.1-2.1
			c2.3-1.6,4.2-3.9,5.5-6.4c1.3-2.8,1.8-5.9,1.5-8.9c-0.2-3.5-1.4-6.9-3.6-9.7c-2.1-2.6-8.5-7.4-11.5-9c-0.1,0-0.2-0.1-0.2-0.1
			c-1.7-1.3-3.5-2.4-5.4-3.3c-1.5-0.7-3.3-0.5-4.6,0.6c-1.5,1.4-3.4,2.2-5.4,2.4l-30.8,2.4l-1.5,55.6l6.4,4.2l6.4,4.2l19.1-1.5
			l-1.9-23.5c-0.3-0.1-0.5-0.3-0.7-0.5v-0.4l1.6-0.1h0.4c0.4,0.5,0.7,1,1.1,1.6l5.1,13.3l6.3,4.2l6.2,4.1L378.7,157.8z M344.7,114.2
			c0.1,1.1-0.2,2.2-0.8,3.1c-0.6,0.9-1.4,1.5-2.4,1.8c-1.5,0.5-3,0.9-4.6,1.2l-1.9,0.2l-0.4-4.9l0.6-0.3l-0.1-1l2.3-0.2
			c0.3-0.2,0.6-0.5,0.8-0.7l4.1-0.3c0.7-0.1,1.4-0.1,2-0.1C344.6,113.3,344.6,113.7,344.7,114.2L344.7,114.2z"/>
		<path class="st1" d="M322.6,105.5c0.3,0.2,12.5,8.6,12.5,8.6l2.3-0.2c0.9-0.4,1.8-0.6,2.8-0.9c-0.5-3-1.1-5.9-2-8.8
			C332.9,103.5,327.5,103.1,322.6,105.5z"/>
		
			<linearGradient id="SVGID_18_" gradientUnits="userSpaceOnUse" x1="337.56" y1="77.7233" x2="333.39" y2="72.8733" gradientTransform="matrix(0.9969 -7.811110e-02 -7.811110e-02 -0.9969 28.8966 223.8748)">
			<stop  offset="0" style="stop-color:#FFCC33"/>
			<stop  offset="1" style="stop-color:#FBD872"/>
		</linearGradient>
		<path class="st24" d="M343.9,124.2c-0.2-0.3,0.4,0.3,0.1,0.1c0.3,0.2,0.5,0.3,0.8,0.4c0.5,0.2,0.9,0.3,1.4,0.4
			c0.8,0.2,1.7,0.4,2.5,0.7c0.9-0.2,1.8,0.1,2.4,0.7c2.3,2.4,5,4.5,7.9,6.1c1.4-0.6,2.8-1.3,4.1-2.1c1.8-1.3,3.4-2.9,4.6-4.8
			c-1.3-1-10.3-7.6-13.5-10c-0.5,1-1.1,2-1.9,2.9c-1.9,2.2-4.6,3.3-7.1,4.7l-1.5,0.8L343.9,124.2z"/>
		<path class="st1" d="M326.7,152.7c-0.7-0.5-19.8,1.4-19.8,1.4l6.4,4.2l6.4,4.2l19.1-1.5C336.8,159.7,329.7,154.8,326.7,152.7z"/>
		<path class="st1" d="M378.7,157.8c-5-3.6-8-5.6-12-8.3c-1.8-1.2-22.2,1.8-22.2,1.8l6.3,4.2l6.2,4.1L378.7,157.8L378.7,157.8z"/>
		
			<linearGradient id="SVGID_19_" gradientUnits="userSpaceOnUse" x1="312.1582" y1="105.0571" x2="312.3382" y2="52.4471" gradientTransform="matrix(0.9969 -7.811110e-02 -7.811110e-02 -0.9969 28.8966 223.8748)">
			<stop  offset="0" style="stop-color:#FF5D54"/>
			<stop  offset="0.15" style="stop-color:#FC5951"/>
			<stop  offset="0.28" style="stop-color:#F14E4A"/>
			<stop  offset="0.42" style="stop-color:#E03B3C"/>
			<stop  offset="0.54" style="stop-color:#C8212A"/>
			<stop  offset="0.59" style="stop-color:#BE1622"/>
		</linearGradient>
		<path class="st25" d="M364.6,147.6l-1.8-2.9l-2.5-4.1l-1.8-2.9l-2.5-4.1l-0.7-1.2c-0.5-0.8-1.1-1.6-1.8-2.3l0,0
			c-0.3-0.4-0.7-0.8-1.1-1.2c-0.9-1.1-2-2-3.1-2.9c-0.6-0.4-1.3-0.7-2-0.9l0,0c-0.9-0.3-1.9-0.6-2.9-0.9c0.4-0.1,0.9-0.3,1.3-0.4
			c0.6-0.2,1.2-0.4,1.8-0.7l1.2-0.5c0.5-0.3,1-0.5,1.5-0.9l0.5-0.3l0.5-0.4c0.4-0.3,0.9-0.7,1.3-1.1s0.6-0.5,0.8-0.8
			c0.4-0.4,0.7-0.8,1-1.2c0.2-0.3,0.5-0.6,0.7-0.9c0.3-0.5,0.6-0.9,0.8-1.4l0.2-0.3c0.1-0.2,0.2-0.5,0.3-0.7
			c0.2-0.5,0.4-1.1,0.6-1.6c0.1-0.4,0.2-0.8,0.3-1.2c0.1-0.6,0.2-1.2,0.2-1.9c0-0.5,0.1-0.9,0.1-1.4s0-1.1-0.1-1.7
			c0-0.2,0-0.3,0-0.5c-0.1-0.6-0.1-1.1-0.2-1.7c-0.2-0.9-0.4-1.8-0.7-2.6c-0.3-0.8-0.6-1.5-1-2.3c-0.4-0.8-0.9-1.6-1.5-2.3
			c-1.8-2.3-4.4-3.9-7.2-4.7l-0.3-0.1c-0.6-0.2-1.4-0.3-2.1-0.4s-1.9-0.2-2.9-0.2c-0.6,0-1.2,0-1.9,0s-1.6,0-2.5,0l-1.7,0.1
			l-1.7,0.1L303,94.6l4.6,58.6l18.2-1.4l-1.8-23.8l1.6-0.1c0.5,0,0.9,0,1.4,0c0.7,0.1,1.4,0.2,2.1,0.5c0.4,0.2,0.8,0.3,1.1,0.5
			c0.8,0.6,1.4,1.2,2,2l0,0c0.6,0.7,1.1,1.5,1.6,2.3l0.2,0.3l2.8,4.3l2,3l2.8,4.2l2,3l1.4,2.2l20.5-1.6L364.6,147.6z M339.1,109.6
			c0.1,0.6,0,1.3-0.2,1.9c-0.1,0.4-0.3,0.8-0.5,1.1l-0.2,0.4c-0.2,0.3-0.4,0.6-0.7,0.9c-0.3,0.3-0.6,0.5-0.9,0.7
			c-0.4,0.2-0.7,0.4-1.1,0.5l-0.6,0.2c-0.5,0.2-0.9,0.3-1.4,0.4c-0.8,0.2-1.5,0.4-2,0.5c-0.3,0.1-0.5,0.1-0.8,0.1l-7.6,0.6
			l-0.9-11.9l8-0.6c0.8-0.1,1.6-0.1,2.4-0.1c0.7,0,1.4,0.1,2.1,0.2c0.9,0.1,1.7,0.4,2.4,0.9c0.8,0.6,1.5,1.5,1.8,2.5
			C339,108.4,339.1,109,339.1,109.6L339.1,109.6z"/>
		<path class="st3" d="M339.2,106.2c-0.7-0.7-1.5-1.3-2.4-1.8c1.1,1.1,1.8,2.4,2.2,3.8c0.6,0.7-1.8,4.9-1.7,6.2s-11.8,2.4-11.8,2.4
			c-0.5,0.2-2.7,0.6-3.2,1l1.8,1.5l8.5-0.7c1.7-0.2,3.3-0.6,4.9-1.2c1.3-0.4,2.5-1.2,3.3-2.4c0.8-1.2,1.1-2.6,1-4
			C341.6,109.2,340.7,107.4,339.2,106.2z"/>
		<path class="st3" d="M345.8,125.2l-4.4-0.7l1.8,1.5l2.8,0.7c1.6,0.3,3.2,0.9,4.7,1.7c0.6,0.4,1.1,0.8,1.6,1.4
			c-0.1-0.8-0.1-1.5-0.1-2.3c-0.2-0.2-0.4-0.3-0.7-0.5c-0.8-0.5-1.7-0.9-2.6-1.2l0,0C347.8,125.6,346.8,125.3,345.8,125.2z"/>
		<path class="st3" d="M332.3,129.7c-0.6-0.3-1.2-0.6-1.9-0.8c1.3,1.1,2.3,2.5,2.9,4.1c0.4,0.6,0.9,1.3,1.5,2.1l10.1,15.6
			c0.6-0.1,1.2-0.2,1.8-0.2l-10.5-16.3C335.2,132.5,333.9,130.9,332.3,129.7z"/>
		<path class="st3" d="M352.7,97.1c-0.1-0.5-0.3-1-0.5-1.4c-0.1-0.2-0.2-0.3-0.3-0.5c-0.6-0.2-1.2-0.6-1.5-1.1
			c-0.7-0.3-1.4-0.5-2.2-0.7c-3.1-0.8-7.5-0.9-13.2-0.5l-31,2.4l4.5,57.7c0.5-0.1,1.1-0.2,1.6-0.4l-4.4-55.9l29.3-2.3
			c5.5-0.4,9.8-0.3,12.7,0.4c1.8,0.4,3.5,1.3,5,2.4C352.7,97.3,352.7,97.2,352.7,97.1z"/>
		<path class="st4" d="M366.7,149.5l-22.3,1.8l-11.4-17.6c-1.7-2.6-2.8-3.6-3.4-4c-1.2-0.7-2.6-1-4.1-0.9l-0.8,0.1l1.9,23.8
			l-19.8,1.6l-4.7-60.3l31-2.4c5.7-0.4,10.1-0.3,13.2,0.4c3.2,0.7,6,2.5,8,5.1c2.2,2.8,3.5,6.2,3.6,9.7c0.7,6.1-2,12-7,15.5
			c-1.2,0.8-2.6,1.5-4,2.1c0.9,0.3,1.8,0.7,2.6,1.2c1.2,0.9,2.3,1.9,3.3,3c1.1,1.1,2.1,2.3,3,3.5L366.7,149.5z M345.2,149.5
			l18.7-1.5l-9.4-15.2c-0.8-1.2-1.7-2.3-2.7-3.3c-1.9-2.4-4.6-4-7.6-4.4l-2.8-0.7l2.8-0.9c2.1-0.6,4.1-1.5,6-2.7
			c7.1-5.5,8.5-15.7,3.1-22.8c-1.8-2.3-4.3-3.8-7.1-4.5c-2.9-0.7-7.2-0.8-12.7-0.4l-29.4,2.3l4.5,57l16.6-1.3l-1.9-23.8l2.4-0.2
			c1.7-0.1,3.5,0.2,5,1.1c1.6,1.2,2.9,2.8,3.9,4.5L345.2,149.5z M330.8,117.2l-8.5,0.7l-1.1-13.6l8.8-0.7c3.5-0.3,6,0.1,7.4,1.1
			c2.6,2.1,3.3,5.9,1.5,8.8c-0.8,1.2-1.9,2-3.3,2.4C334.1,116.5,332.5,116.9,330.8,117.2z M323.8,116.1l6.8-0.5
			c1.6-0.2,3.1-0.6,4.6-1.1c1-0.3,1.8-0.9,2.4-1.7c1.3-2.2,0.9-5-1.1-6.6c-0.8-0.6-2.5-1.1-6.3-0.8l-7.1,0.6L323.8,116.1z"/>
		<path class="st0" d="M426,88.3L426,88.3l-6.2-4.8l-49.6,8.8l-0.3,0.1l-5.3,11.3l5.8,3.9l0,0l6.9,4.5l7-0.6c0-0.1,0-0.2-0.1-0.3
			v-0.4l4.7-0.4l-2.4,35.9l6.6,4.4h0.2l5.8,4l19-1.5l-3.5-44.2l18.5-1.4l-1.2-15.5L426,88.3z"/>
		<path class="st1" d="M370.2,92.2l-0.3,0.1l-5.3,11.3l5.8,3.9l0,0l6.9,4.5l7-0.6c0-0.1,2.2,34.9,2.2,34.9l12.7,8.4l19-1.5
			l-12.1-8.4l-3.9-44.3l12.5,8.5l18.5-1.4l-12.1-8.3L370.2,92.2z"/>
		
			<linearGradient id="SVGID_20_" gradientUnits="userSpaceOnUse" x1="372.3928" y1="106.937" x2="372.3928" y2="52.097" gradientTransform="matrix(0.9969 -7.811110e-02 -7.811110e-02 -0.9969 28.8966 223.8748)">
			<stop  offset="0" style="stop-color:#FF5D54"/>
			<stop  offset="0.15" style="stop-color:#FC5951"/>
			<stop  offset="0.28" style="stop-color:#F14E4A"/>
			<stop  offset="0.42" style="stop-color:#E03B3C"/>
			<stop  offset="0.54" style="stop-color:#C8212A"/>
			<stop  offset="0.59" style="stop-color:#BE1622"/>
		</linearGradient>
		<polygon class="st26" points="364.1,88.4 365.2,102.9 383.7,101.5 387.2,145.6 405.3,144.2 401.9,100.1 420.3,98.6 419.2,84.1 		
			"/>
		<path class="st3" d="M419.4,84.9L365,89.2l1,13.5c0.5-0.1,1.1-0.2,1.6-0.2l0,0l-0.9-11.8l52.5-4.1C419.2,86,419.3,85.5,419.4,84.9
			z"/>
		<path class="st3" d="M389.6,145.3l-3.4-43.2l-1.8-1.5c0,0.5-0.6,2.8-0.6,3.3l0.8-0.1l3.3,41.6
			C388.5,145.4,389.1,145.3,389.6,145.3z"/>
		<path class="st4" d="M406.2,145l-19.7,1.6l-3.4-44.2l-18.5,1.5l-1.3-16.1l56.7-4.4l1.3,16.1l-18.5,1.4L406.2,145z M387.9,144.8
			l16.5-1.3L401,99.3l18.5-1.4l-1-12.9L365,89.2l1,12.9l18.5-1.4L387.9,144.8z"/>
		
			<linearGradient id="SVGID_21_" gradientUnits="userSpaceOnUse" x1="431.7754" y1="216.5653" x2="431.7754" y2="181.2008" gradientTransform="matrix(0.9909 0.1349 0.1349 -0.9909 -54.3759 185.0294)">
			<stop  offset="0" style="stop-color:#FF5D54"/>
			<stop  offset="0.28" style="stop-color:#FC5A52"/>
			<stop  offset="0.5" style="stop-color:#F3504B"/>
			<stop  offset="0.7" style="stop-color:#E4403F"/>
			<stop  offset="0.88" style="stop-color:#CF292F"/>
			<stop  offset="1" style="stop-color:#BE1622"/>
		</linearGradient>
		<path class="st27" d="M400,60.7c-16.5,1.8-29.6,0.3-29.9-3.2c-0.1-1.1,0.4-2.2,2.4-3.3l2.5-18.4c0.1-0.6,0.6-1,1.2-0.9
			c0.2,0,0.4,0.1,0.6,0.3L390,49.1c2.7-0.5,5.6-0.9,8.6-1.2c3.4-0.4,6.7-0.6,9.8-0.7l9.6-15.9c0.2-0.4,0.7-0.5,1.1-0.3
			c0.2,0.1,0.3,0.2,0.4,0.4l6.3,17.1c2.1,0.7,2.5,1.7,2.6,2.7C428.7,54.8,416.5,58.9,400,60.7z"/>
		
			<linearGradient id="SVGID_22_" gradientUnits="userSpaceOnUse" x1="396.178" y1="189.896" x2="462.2355" y2="189.896" gradientTransform="matrix(0.9909 0.1349 0.1349 -0.9909 -54.3759 185.0294)">
			<stop  offset="0" style="stop-color:#9987FF"/>
			<stop  offset="1" style="stop-color:#453878"/>
		</linearGradient>
		<path class="st28" d="M401.7,76.2c-15.6,1.7-26.4-1.9-27.9-3.4L365,41.4c2.6,4.2,5.5,8.1,8.8,11.7c5.8,6.5,10.2,8.5,10.2,8.5
			l13.2-25.9l18.4,22.4c0,0,5.5-3.1,9.5-10.9s4.5-10.9,4.5-10.9l-1.4,30.1C427.4,68.3,417.3,74.5,401.7,76.2z"/>
		<path class="st29" d="M424,43c-1.9,3.9-4.5,7.5-7.6,10.6c-0.4,0.4-1.1,0.4-1.6-0.1c0,0,0-0.1-0.1-0.1l-17-21.9
			c-0.4-0.5-1.1-0.6-1.5-0.2c-0.1,0.1-0.2,0.2-0.3,0.4l-11.8,24.7c-0.3,0.5-0.9,0.8-1.5,0.5c-0.1,0-0.2-0.1-0.3-0.2
			c-1.5-1.5-4.6-4.5-9.3-9.2c-2.5-2.6-4.9-5.3-7.1-8.1c-0.6-0.7-1.1-1.5-1.6-2.2s-0.9-1.7-1.6-2c-0.3,0.8,0.2,2.1,0.5,2.9
			c0,0.1,0.1,0.2,0.1,0.3l1.7,2.8c2.4,4.1,5.3,8,8.6,11.5c3,3.2,6.2,6.3,9.6,9.2c0.5,0.4,1.1,0.3,1.5-0.1c0.1-0.1,0.1-0.2,0.2-0.2
			l11.6-24.5c0.3-0.5,0.9-0.8,1.5-0.5c0.2,0.1,0.3,0.2,0.4,0.3l16.8,21.6c0.4,0.5,1.1,0.6,1.5,0.2c0,0,0.1-0.1,0.1-0.1
			c3.4-3.4,6.2-7.3,8.4-11.5c4-7.8,5.9-13,5.7-15.9c-0.1-0.8,0.1-2-0.3-2.7c-0.7,0.6-0.9,2-1.2,2.9c-0.5,1.3-1.1,2.6-1.6,3.9
			C426.5,38,425.2,40.5,424,43z"/>
		
			<linearGradient id="SVGID_23_" gradientUnits="userSpaceOnUse" x1="778.9051" y1="107.7012" x2="835.8751" y2="107.7012" gradientTransform="matrix(0.9941 -0.1089 -0.1089 -0.9941 -389.5818 268.1588)">
			<stop  offset="0" style="stop-color:#FFC500"/>
			<stop  offset="0.22" style="stop-color:#FF9700"/>
			<stop  offset="0.43" style="stop-color:#FF9900"/>
			<stop  offset="0.5" style="stop-color:#FFA700"/>
			<stop  offset="0.57" style="stop-color:#FFAE00"/>
			<stop  offset="0.69" style="stop-color:#FF9600"/>
			<stop  offset="0.77" style="stop-color:#FF9900"/>
			<stop  offset="0.83" style="stop-color:#FFA300"/>
			<stop  offset="0.88" style="stop-color:#FFB300"/>
			<stop  offset="0.92" style="stop-color:#FFC500"/>
		</linearGradient>
		<path class="st30" d="M372.5,71.9l0.6,2.3c1,4.2,13.3,5.9,28.8,4.2s27-6.1,27.2-10.3l0-2l-0.6-0.7v1.1
			c-1.1,1.9-11.2,8.5-26.8,10.2s-26.4-2.3-27.9-3.9l-0.5-1.8L372.5,71.9z"/>
		
			<linearGradient id="SVGID_24_" gradientUnits="userSpaceOnUse" x1="778.5245" y1="108.1148" x2="836.0345" y2="108.9548" gradientTransform="matrix(0.9941 -0.1089 -0.1089 -0.9941 -389.5818 268.1588)">
			<stop  offset="1.000000e-02" style="stop-color:#FFFF59"/>
			<stop  offset="9.000000e-02" style="stop-color:#FFFF59"/>
			<stop  offset="0.54" style="stop-color:#FFFF59"/>
			<stop  offset="1" style="stop-color:#FFFF59"/>
		</linearGradient>
		<path class="st31" d="M401.8,77.1c15.2-1.7,26.5-6.9,27.4-11.1l-0.6-0.7v1.1c-1.1,1.9-11.2,8.1-26.8,9.8s-26.4-1.9-27.9-3.4
			l-0.5-1.8l-0.7,0.9C373.5,76.1,386.1,78.8,401.8,77.1z"/>
		<g>
			
				<linearGradient id="SVGID_25_" gradientUnits="userSpaceOnUse" x1="400.1162" y1="153.5999" x2="400.1562" y2="159.8099" gradientTransform="matrix(1 0 0 -1 0 215.8898)">
				<stop  offset="0" style="stop-color:#650E0E"/>
				<stop  offset="0.22" style="stop-color:#700E0A"/>
				<stop  offset="0.67" style="stop-color:#810E03"/>
				<stop  offset="1" style="stop-color:#870E00"/>
			</linearGradient>
			<path class="st32" d="M406.1,63.3c0.4,3.3-2,6.3-5.4,6.7c-3.3,0.4-6.3-2-6.7-5.4c-0.4-3.3,2-6.3,5.4-6.7c3.3-0.4,6.3,2,6.7,5.2
				C406.1,63.2,406.1,63.3,406.1,63.3z"/>
		</g>
		<g class="st33">
			
				<radialGradient id="SVGID_26_" cx="807.2252" cy="116.7482" r="6.06" gradientTransform="matrix(0.9941 -0.1089 -0.1089 -0.9941 -389.5818 268.1588)" gradientUnits="userSpaceOnUse">
				<stop  offset="0" style="stop-color:#FFCB00"/>
				<stop  offset="0.51" style="stop-color:#FFC900"/>
				<stop  offset="0.69" style="stop-color:#FFC200"/>
				<stop  offset="0.82" style="stop-color:#FEB700"/>
				<stop  offset="0.92" style="stop-color:#FDA600"/>
				<stop  offset="1" style="stop-color:#FC9300"/>
			</radialGradient>
			<path class="st34" d="M406.2,63.6c0.4,3.3-2,6.3-5.4,6.7s-6.3-2-6.7-5.4c-0.4-3.3,2-6.3,5.4-6.7
				C402.8,57.8,405.8,60.2,406.2,63.6C406.2,63.6,406.2,63.6,406.2,63.6z"/>
			<g>
				<defs>
					<path id="SVGID_27_" d="M406.2,63.6c0.4,3.3-2,6.3-5.4,6.7s-6.3-2-6.7-5.4c-0.4-3.3,2-6.3,5.4-6.7
						C402.8,57.8,405.8,60.2,406.2,63.6C406.2,63.6,406.2,63.6,406.2,63.6z"/>
				</defs>
				<clipPath id="SVGID_28_">
					<use xlink:href="#SVGID_27_"  style="overflow:visible;"/>
				</clipPath>
				<g class="st35">
					
						<image style="overflow:visible;enable-background:new    ;" width="59" height="60" xlink:href="F0BD386D.png"  transform="matrix(0.24 0 0 0.24 393.06 57.18)">
					</image>
					
						<image style="overflow:visible;enable-background:new    ;" width="59" height="60" xlink:href="F0BD3873.png"  transform="matrix(0.24 0 0 0.24 393.06 57.18)">
					</image>
				</g>
			</g>
		</g>
		<path class="st36" d="M399.5,58.2c-3.3,0.4-5.7,3.4-5.4,6.7c0.4,3.3,3.4,5.7,6.7,5.4c3.3-0.4,5.7-3.4,5.4-6.7
			C405.8,60.2,402.8,57.8,399.5,58.2z M405.8,64.8c0.1,0.2,0,0.2,0,0.5s-0.1,0.2-0.2,0.4s0,0.6-0.4,0.9s-0.1,0.4-0.2,0.7
			s-0.3,0.4-0.6,0.6s-0.2,0.2-0.5,0.4s-0.7,0.7-0.8,0.8c-0.2,0.2-0.5,0.4-0.9,0.5c-0.2,0-0.4,0.1-0.6,0.1c-0.2,0-0.3,0-0.5,0.1
			l-1.5,0.2l-0.9-0.1c-0.1,0-0.6-0.2-0.8-0.3c-0.4-0.1-0.7-0.3-1.1-0.4c-0.2-0.1-0.4-0.3-0.5-0.6c-0.2-0.2-0.4-0.4-0.6-0.6
			c-0.2-0.3-0.5-0.3-0.7-0.7c-0.1-0.2-0.2-0.5-0.2-0.7l-0.5-0.6c-0.2-0.2,0-0.6,0-0.6l-0.1-1.1c0-0.2,0-0.5,0-0.7
			c0-0.2,0-0.4,0.1-0.6c0.1-0.3,0.4-0.5,0.5-0.7c0.1-0.3,0.2-0.7,0.4-1c0.2-0.3,0.4-0.5,0.6-0.8s0.3-0.3,0.7-0.5s0.4-0.3,0.7-0.6
			c0.2-0.2,0.4-0.3,0.6-0.3c0.2-0.1,0.4-0.1,0.6-0.1c0.2-0.1,0.5-0.1,0.7-0.2c0.2-0.1,0.4-0.1,0.6-0.2c0.3,0,0.6,0,0.8,0.1
			c0.2,0,0.6,0.2,0.7,0.2c0.2,0.1,0.4,0.1,0.5,0.1c0.3,0,0.3,0,0.5,0.2c0.2,0.1,0.3,0.2,0.5,0.3c0,0,0.3,0.3,0.3,0.4
			s0.4,0.3,0.5,0.4c0.2,0.1,0.3,0.2,0.5,0.4c0.1,0.2,0.2,0.4,0.3,0.6c0.1,0.3,0.2,0.2,0.2,0.4s0.1,0.1,0.2,0.2
			c0.1,0.1,0.2,0.2,0.3,0.3c0.1,0.2,0,0.2,0,0.5s0.1,0.4,0.2,0.6s0.1,0.2,0.1,0.5c0.1,0.3,0,0.2-0.1,0.6
			C405.7,64.5,405.7,64.7,405.8,64.8z"/>
		<path class="st37" d="M399.5,58.2c-3.3,0.4-5.7,3.4-5.4,6.7c0.4,3.3,3.4,5.7,6.7,5.4c3.3-0.4,5.7-3.4,5.4-6.7
			C405.8,60.2,402.8,57.8,399.5,58.2z M400.8,70.1c-3.3,0.4-6.2-2-6.6-5.3c-0.2-2,0.6-4,2.2-5.3c0.4-0.3,0.9-0.5,1.3-0.8
			c0.6-0.3,1.2-0.5,1.8-0.5c0.7-0.1,1.4-0.1,2.1,0.1c0.4,0.1,0.8,0.2,1.2,0.5c0.2,0.2,0.5,0.3,0.8,0.5c2.7,2,3.2,5.7,1.3,8.4
			C403.9,69.1,402.4,69.9,400.8,70.1L400.8,70.1z"/>
		<path class="st38" d="M401,71.7c-4.2,0.5-8.1-2.6-8.5-6.9c-0.5-4.2,2.6-8.1,6.9-8.5c4.2-0.5,8.1,2.6,8.5,6.8
			C408.3,67.4,405.3,71.2,401,71.7z M399.5,57.9c-3.4,0.4-5.8,3.4-5.4,6.8s3.4,5.8,6.8,5.4s5.8-3.4,5.4-6.8c0,0,0,0,0,0
			C405.9,59.9,402.9,57.5,399.5,57.9C399.5,57.9,399.5,57.9,399.5,57.9L399.5,57.9z"/>
		<g class="st39">
			<g>
				
					<linearGradient id="SVGID_29_" gradientUnits="userSpaceOnUse" x1="399.16" y1="152.2748" x2="407.39" y2="152.2748" gradientTransform="matrix(1 0 0 -1 0 215.8898)">
					<stop  offset="0" style="stop-color:#000000"/>
					<stop  offset="9.000000e-02" style="stop-color:#080500"/>
					<stop  offset="0.22" style="stop-color:#1F1100"/>
					<stop  offset="0.39" style="stop-color:#452600"/>
					<stop  offset="0.58" style="stop-color:#794200"/>
					<stop  offset="0.8" style="stop-color:#BB6600"/>
					<stop  offset="1" style="stop-color:#FF8B00"/>
				</linearGradient>
				<path class="st40" d="M399.2,56.7h0.2h1h0.3h0.3h0.2h0.2c0.5,0.1,1,0.2,1.4,0.4c0.5,0.2,1.1,0.5,1.5,0.8h0h0l0.1,0.1l0.1,0.1h0
					l0,0l0.2,0.2h0l0,0l0.1,0.1c0.1,0.1,0.2,0.2,0.4,0.3l0.2,0.2l0.1,0.1l0.1,0.1c0.4,0.5,0.8,1.2,1.1,1.8l0.1,0.2l0.1,0.2v0.1v0.1
					v0.1v0.1l0.1,0.3c0,0,0,0,0,0.1v0.1v0.1v0.1c0,0,0,0.1,0,0.1v0.3v0.3c0,0,0,0.1,0,0.1v1.1v0.1v0.3l0,0.3c-0.1,0.7-0.4,1.4-0.7,2
					l0,0.1l-0.1,0.1c0,0.1-0.1,0.1-0.1,0.2c-0.1,0.1-0.2,0.3-0.3,0.4l-0.1,0.1l0,0l0,0l-0.1,0.2l0,0v0.1l-0.1,0.1l-0.1,0.1l0,0l0,0
					c-0.4,0.4-0.8,0.8-1.3,1.2c-0.4,0.3-0.9,0.5-1.3,0.7l-0.1,0.1l-0.1,0.1l-0.3,0.1l-0.3,0.1h-0.1h-0.1h-0.2h-0.2h-0.2h-0.1h-0.3
					l0,0h0.2h0.1h0.2h0.2l0.2-0.1h0.1h0.1l0.3-0.1l0.3-0.1c0,0,0.1,0,0.1-0.1l0.1-0.1c0.5-0.2,0.9-0.4,1.3-0.7
					c0.5-0.3,0.9-0.7,1.3-1.2l0,0l0,0l0.1-0.1l0.1-0.1l0,0l0,0l0.1-0.2l0,0l0,0l0.1-0.1c0.1-0.1,0.2-0.3,0.3-0.4l0.1-0.2l0.1-0.1
					l0.1-0.1c0.3-0.6,0.5-1.3,0.7-2v-0.3v-0.3v-0.1v-0.3c0,0,0-0.1,0-0.1v-0.7c0,0,0-0.1,0-0.1v-0.3v-0.3c0,0,0-0.1,0-0.1v-0.1v-0.1
					v-0.1v-0.1l-0.1-0.3c0,0,0-0.1,0-0.1v-0.1v-0.1v-0.1l-0.1-0.2l-0.1-0.2c-0.3-0.6-0.6-1.2-1.1-1.8l-0.1-0.1l-0.1-0.1l-0.2-0.2
					c-0.1-0.1-0.2-0.2-0.3-0.3l-0.1-0.1l0,0h0l-0.2-0.2h0l0,0l-0.1-0.1l-0.1-0.1l0,0h0c-0.5-0.3-1-0.6-1.5-0.8
					c-0.5-0.2-0.9-0.3-1.4-0.4h-0.2H401h-0.3h-0.3L399.2,56.7L399.2,56.7z"/>
			</g>
		</g>
		<g class="st39">
			<g>
				
					<linearGradient id="SVGID_30_" gradientUnits="userSpaceOnUse" x1="400.2151" y1="152.6698" x2="400.2151" y2="145.1798" gradientTransform="matrix(1 0 0 -1 0 215.8898)">
					<stop  offset="0" style="stop-color:#000000"/>
					<stop  offset="9.000000e-02" style="stop-color:#080500"/>
					<stop  offset="0.22" style="stop-color:#1F1100"/>
					<stop  offset="0.39" style="stop-color:#452600"/>
					<stop  offset="0.58" style="stop-color:#794200"/>
					<stop  offset="0.8" style="stop-color:#BB6600"/>
					<stop  offset="1" style="stop-color:#FF8B00"/>
				</linearGradient>
				<path class="st41" d="M406.7,63.2v0.2c0,0,0,0.1,0,0.1v0.2c0,0.1,0,0.1,0,0.2v0.4c0,0.1,0,0.2,0,0.2v0.3c0,0,0,0.1,0,0.2v0.1
					c-0.1,0.4-0.2,0.9-0.4,1.3c-0.2,0.5-0.5,1-0.8,1.4c0,0.1-0.1,0.1-0.1,0.2l-0.1,0.1l-0.1,0.1l-0.1,0.2v0.1l0,0l-0.1,0.1
					c-0.1,0.1-0.2,0.2-0.3,0.3l-0.2,0.2l-0.1,0.1l-0.1,0.1c-0.5,0.4-1,0.8-1.6,1l-0.2,0.1l-0.2,0.1h-0.1h-0.1H402h-0.1l-0.2,0.1
					h-0.1h-0.1h-0.1h-0.1h-0.2h-0.2h-1.2h-0.2h-0.2c-0.7,0-1.3-0.2-1.9-0.4h-0.1l-0.1-0.1l-0.2-0.1c-0.1-0.1-0.3-0.2-0.4-0.2
					l-0.1-0.1l0,0h0l-0.2-0.1l-0.1-0.1l-0.1-0.1l-0.2-0.1c-0.4-0.4-0.7-0.8-1-1.2c-0.3-0.4-0.5-0.8-0.6-1.2v-0.1c0,0,0-0.1,0-0.1
					l-0.1-0.2c0-0.1,0-0.2-0.1-0.2v-0.1v-0.1v-0.2c0-0.1,0-0.1,0-0.2v-0.2c0,0,0-0.1,0-0.1v-0.2l0,0v0.2c0,0,0,0.1,0,0.1v0.2
					c0,0,0,0.1,0,0.2l0,0.2v0.1c0,0,0,0.1,0,0.1c0,0.1,0,0.2,0.1,0.2l0.1,0.2c0,0,0,0.1,0,0.1l0.1,0.1c0.2,0.4,0.4,0.8,0.6,1.2
					c0.3,0.4,0.6,0.8,1,1.2l0.2,0.1l0.1,0.1l0.1,0.1l0.2,0.1l0,0l0,0l0.1,0.1l0.4,0.2l0.2,0.1h0.1h0.1c0.6,0.3,1.2,0.5,1.8,0.6h0.2
					h0.2h1.2h0.2h0.2h0.1h0.1h0.1h0.1h0.2h0.1h0.1h0.1h0.1l0.2-0.1l0.2-0.1c0.6-0.3,1.1-0.6,1.6-1l0.1-0.1l0.1-0.1l0.2-0.2
					c0.1-0.1,0.2-0.2,0.3-0.3l0.1-0.1l0,0l0,0l0.1-0.2l0.1-0.1l0.1-0.1c0-0.1,0.1-0.1,0.1-0.2c0.3-0.4,0.6-0.9,0.8-1.4
					c0.2-0.4,0.3-0.8,0.4-1.3v-0.2v-0.1v-0.3c0-0.1,0-0.2,0-0.2s0-0.1,0-0.1v-0.3c0-0.1,0-0.1,0-0.2v-0.2c0,0,0-0.1,0-0.1v-0.2
					L406.7,63.2z"/>
			</g>
		</g>
		<g class="st39">
			<g>
				
					<linearGradient id="SVGID_31_" gradientUnits="userSpaceOnUse" x1="399.82" y1="151.0098" x2="399.82" y2="158.5498" gradientTransform="matrix(1 0 0 -1 0 215.8898)">
					<stop  offset="0" style="stop-color:#000000"/>
					<stop  offset="9.000000e-02" style="stop-color:#080500"/>
					<stop  offset="0.22" style="stop-color:#1F1100"/>
					<stop  offset="0.39" style="stop-color:#452600"/>
					<stop  offset="0.58" style="stop-color:#794200"/>
					<stop  offset="0.8" style="stop-color:#BB6600"/>
					<stop  offset="1" style="stop-color:#FF8B00"/>
				</linearGradient>
				<path class="st42" d="M393.4,64.9v-0.2c0,0,0-0.1,0-0.1v-0.2c0-0.1,0-0.1,0-0.2v-0.4c0-0.1,0-0.2,0-0.2v-0.3c0,0,0-0.1,0-0.2
					v-0.1c0.1-0.4,0.2-0.9,0.4-1.3c0.2-0.5,0.5-1,0.8-1.4l0.1-0.2l0.1-0.1l0,0l0,0l0.1-0.2l0,0l0,0l0.1-0.1c0.1-0.1,0.2-0.2,0.3-0.3
					l0.2-0.2l0.1-0.1l0.1-0.1c0.5-0.4,1-0.7,1.6-1l0.2-0.1l0.2-0.1h0.1h0.1h0.1h0.1l0.2-0.1h0.1h0.1h0.1h0.1h0.2h0.2h1.2h0.2h0.2
					c0.6,0.1,1.2,0.3,1.8,0.6l0.1,0l0.1,0.1l0.2,0.1c0.1,0.1,0.3,0.2,0.4,0.2l0.1,0.1l0,0l0,0l0.2,0.1l0,0h0l0.1,0.1l0.2,0.1
					c0.7,0.7,1.3,1.5,1.7,2.4v0.1c0,0,0,0.1,0,0.1l0.1,0.3c0,0.1,0.1,0.2,0.1,0.2v0.1v0.1c0,0.1,0,0.1,0,0.2c0,0.1,0,0.1,0,0.2v0.2
					c0,0,0,0.1,0,0.1v0.2l0,0c0-0.1,0-0.2,0-0.2c0,0,0-0.1,0-0.1v-0.2c0-0.1,0-0.1,0-0.2l0-0.2v-0.1c0,0,0-0.1,0-0.1
					c0-0.1,0-0.2-0.1-0.2L406,62c0,0,0-0.1,0-0.1l-0.1-0.1c-0.2-0.4-0.4-0.8-0.6-1.2c-0.3-0.4-0.7-0.8-1-1.2l-0.2-0.1l-0.1-0.1l0,0
					l0,0l-0.2-0.1l0,0l0,0l-0.1-0.1l-0.4-0.2l-0.2-0.1l-0.1-0.1l-0.1,0c-0.6-0.3-1.2-0.5-1.8-0.6h-0.2h-0.2h-1.2h-0.2H399h0h-0.1
					h-0.1h-0.1l-0.2,0.1h-0.1h-0.1h-0.1h-0.1l-0.2,0.1l-0.2,0.1c-0.6,0.3-1.1,0.6-1.6,1l-0.1,0.1l-0.1,0.1l-0.2,0.2
					c-0.1,0.1-0.2,0.2-0.3,0.3l-0.1,0.1l0,0l0,0L395,60l0,0l0,0l-0.1,0.1l-0.1,0.2c-0.3,0.4-0.6,0.9-0.8,1.4
					c-0.2,0.4-0.3,0.8-0.4,1.3v0.1c0,0,0,0.1,0,0.2c0,0.1,0,0.2,0,0.3s0,0.2,0,0.2s0,0.1,0,0.1v0.3c0,0.1,0,0.1,0,0.2v0.2
					c0,0,0,0.1,0,0.1v0.2L393.4,64.9z"/>
			</g>
		</g>
		<g>
			
				<linearGradient id="SVGID_32_" gradientUnits="userSpaceOnUse" x1="407.2017" y1="149.6878" x2="401.9917" y2="145.3678" gradientTransform="matrix(1 0 0 -1 0 215.8898)">
				<stop  offset="0" style="stop-color:#FFFFFF"/>
				<stop  offset="0.13" style="stop-color:#FFD7A1"/>
				<stop  offset="0.26" style="stop-color:#FFB24C"/>
				<stop  offset="0.32" style="stop-color:#FFA42B"/>
				<stop  offset="0.39" style="stop-color:#FFA732"/>
				<stop  offset="0.48" style="stop-color:#FFAF44"/>
				<stop  offset="0.6" style="stop-color:#FFBC63"/>
				<stop  offset="0.73" style="stop-color:#FFCE8D"/>
				<stop  offset="0.86" style="stop-color:#FFE5C2"/>
				<stop  offset="1" style="stop-color:#FFFFFF"/>
			</linearGradient>
			<path class="st43" d="M407.7,65.6l-1.6-0.4c-0.5,2.4-2.3,4.2-4.7,4.8l0.4,1.6C404.8,70.8,407,68.5,407.7,65.6z"/>
		</g>
		<g>
			
				<linearGradient id="SVGID_33_" gradientUnits="userSpaceOnUse" x1="397.2299" y1="158.5384" x2="402.7599" y2="158.1784" gradientTransform="matrix(1 0 0 -1 0 215.8898)">
				<stop  offset="0" style="stop-color:#FFFFFF"/>
				<stop  offset="0" style="stop-color:#FFFEFD"/>
				<stop  offset="0.25" style="stop-color:#FFCA76"/>
				<stop  offset="0.42" style="stop-color:#FFA921"/>
				<stop  offset="0.49" style="stop-color:#FF9C00"/>
				<stop  offset="0.55" style="stop-color:#FF9E05"/>
				<stop  offset="0.61" style="stop-color:#FFA413"/>
				<stop  offset="0.68" style="stop-color:#FFAD2B"/>
				<stop  offset="0.75" style="stop-color:#FFBA4D"/>
				<stop  offset="0.82" style="stop-color:#FFCB78"/>
				<stop  offset="0.9" style="stop-color:#FFDFAD"/>
				<stop  offset="0.98" style="stop-color:#FFF7EA"/>
				<stop  offset="1" style="stop-color:#FFFFFF"/>
			</linearGradient>
			<path class="st44" d="M396.2,57.3l0.9,1.4c1.8-1.1,4.1-1.1,6-0.1l1.1-1.2C401.7,55.9,398.6,55.8,396.2,57.3z"/>
		</g>
		<path class="st45" d="M399.3,56.2c-4.3,0.5-7.4,4.3-6.9,8.6c0.5,4.3,4.3,7.4,8.6,6.9c4.3-0.5,7.4-4.3,6.9-8.6c0,0,0,0,0,0
			C407.4,58.8,403.6,55.7,399.3,56.2C399.3,56.2,399.3,56.2,399.3,56.2z M394.1,64.6c-0.4-3.3,2-6.3,5.4-6.7c3.3-0.4,6.3,2,6.7,5.4
			c0.4,3.3-2,6.3-5.4,6.7C397.4,70.4,394.5,68,394.1,64.6C394.1,64.6,394.1,64.6,394.1,64.6z"/>
		<path class="st45" d="M404.4,59.6c0.3,0.2,0.7,0.2,1-0.1c0.6-0.5,0.3-0.8,0.3-0.8l0.5,0.6l0.1,0.2c0,0-0.2-0.4-0.9,0
			s-0.5,0.7-0.5,0.7l-0.3-0.4L404.4,59.6z"/>
		
			<linearGradient id="SVGID_34_" gradientUnits="userSpaceOnUse" x1="433.863" y1="174.8093" x2="433.863" y2="187.6675" gradientTransform="matrix(0.9909 0.1349 0.1349 -0.9909 -54.3759 185.0294)">
			<stop  offset="0" style="stop-color:#FF5D54"/>
			<stop  offset="0.24" style="stop-color:#F4514C"/>
			<stop  offset="0.66" style="stop-color:#D83336"/>
			<stop  offset="1" style="stop-color:#BE1622"/>
		</linearGradient>
		<polygon class="st46" points="399,70.3 395.9,69 394,66.3 393.6,63 394.9,60 397.6,58 400.9,57.6 404,59 406,61.7 406.3,65 
			405,68 402.3,70 		"/>
		<polygon class="st47" points="400.4,68.2 402.3,70 399,70.3 		"/>
		
			<linearGradient id="SVGID_35_" gradientUnits="userSpaceOnUse" x1="-193.0312" y1="-2165.2556" x2="-192.8912" y2="-2167.8757" gradientTransform="matrix(-0.9941 0.1089 0.1089 0.9941 444.5818 2244.3511)">
			<stop  offset="0" style="stop-color:#F97300"/>
			<stop  offset="1" style="stop-color:#FFD300"/>
		</linearGradient>
		<polygon class="st48" points="399.4,68.4 401.5,68.1 402.1,70.9 399.4,71.2 		"/>
		<polygon class="st49" points="402.1,70.9 401.6,68 399.3,68.3 399.4,71.2 399.5,68.5 401.4,68.3 		"/>
		
			<linearGradient id="SVGID_36_" gradientUnits="userSpaceOnUse" x1="-823.2428" y1="-520.9176" x2="-823.0929" y2="-523.5376" gradientTransform="matrix(0.1089 0.9941 0.9941 -0.1089 1014.3812 824.8682)">
			<stop  offset="0" style="stop-color:#FFF73B"/>
			<stop  offset="1" style="stop-color:#FFA400"/>
		</linearGradient>
		<polygon class="st50" points="404.4,64.6 404.1,62.4 406.9,61.9 407.2,64.6 		"/>
		
			<linearGradient id="SVGID_37_" gradientUnits="userSpaceOnUse" x1="812.7385" y1="118.2631" x2="812.7985" y2="115.673" gradientTransform="matrix(0.9941 -0.1089 -0.1089 -0.9941 -389.5818 268.1588)">
			<stop  offset="0" style="stop-color:#FFFD41"/>
			<stop  offset="1" style="stop-color:#7D0305"/>
		</linearGradient>
		<polygon class="st51" points="406.9,61.9 404.1,62.4 404.3,64.7 407.2,64.6 404.5,64.5 404.3,62.6 		"/>
		
			<linearGradient id="SVGID_38_" gradientUnits="userSpaceOnUse" x1="1453.0133" y1="-1536.4938" x2="1453.1633" y2="-1539.1038" gradientTransform="matrix(-0.1089 -0.9941 -0.9941 0.1089 -976.1012 1676.3818)">
			<stop  offset="0" style="stop-color:#FFF73B"/>
			<stop  offset="1" style="stop-color:#FFA400"/>
		</linearGradient>
		<polygon class="st52" points="395.7,63.4 395.9,65.5 393.1,66.1 392.9,63.4 		"/>
		
			<linearGradient id="SVGID_39_" gradientUnits="userSpaceOnUse" x1="801.5193" y1="118.3827" x2="801.5093" y2="115.5727" gradientTransform="matrix(0.9941 -0.1089 -0.1089 -0.9941 -389.5818 268.1588)">
			<stop  offset="0" style="stop-color:#FFFD41"/>
			<stop  offset="1" style="stop-color:#7D0305"/>
		</linearGradient>
		<polygon class="st53" points="393.1,66.1 396,65.6 395.7,63.3 392.9,63.4 395.5,63.5 395.7,65.4 		"/>
		<g class="st33">
			
				<radialGradient id="SVGID_40_" cx="1031.0657" cy="179.4465" r="5.61" gradientTransform="matrix(0.46 2.000000e-02 3.000000e-02 -1 -54.9067 220.6198)" gradientUnits="userSpaceOnUse">
				<stop  offset="0" style="stop-color:#FFCB00"/>
				<stop  offset="0.51" style="stop-color:#FFC900"/>
				<stop  offset="0.69" style="stop-color:#FFC200"/>
				<stop  offset="0.82" style="stop-color:#FEB700"/>
				<stop  offset="0.92" style="stop-color:#FDA600"/>
				<stop  offset="1" style="stop-color:#FC9300"/>
			</radialGradient>
			<path class="st54" d="M429.1,57.5c0,3-0.9,5.8-2.1,6.1c-1.4,0.4-2.6-2.6-2.5-6.5s1.4-6.2,2.7-5.7
				C428.3,51.9,429.1,54.5,429.1,57.5z"/>
		</g>
		<path class="st36" d="M427.1,51.4c-1.3-0.5-2.6,1.9-2.7,5.7s1.1,6.8,2.5,6.5c1.2-0.3,2.1-3,2.1-6.1S428.3,51.9,427.1,51.4z
			 M428.9,58.6c0,0.1,0,0.3,0,0.4c0,0.1,0,0.2-0.1,0.4c0,0.3-0.1,0.5-0.1,0.8c-0.1,0.2,0,0.3-0.1,0.6c0,0.2-0.1,0.4-0.2,0.5
			c-0.1,0.2-0.1,0.1-0.2,0.4s-0.3,0.7-0.3,0.7s-0.2,0.5-0.3,0.5s-0.2,0.1-0.2,0s-0.2,0-0.2,0l-0.6,0.1l-0.3-0.2
			c-0.1,0-0.3-0.3-0.3-0.4c-0.2-0.2-0.3-0.4-0.4-0.6c-0.1-0.2-0.2-0.4-0.2-0.7c0-0.2-0.1-0.4-0.2-0.8c-0.1-0.3-0.2-0.5-0.3-0.8
			c0-0.3,0-0.6,0-0.9l-0.2-0.7c0-0.2,0-0.5,0.1-0.7l0.1-1.2c0,0,0.1-0.5,0.1-0.8c0-0.2,0-0.4,0.1-0.6c0-0.3,0.2-0.4,0.3-0.6
			s0.1-0.7,0.2-1s0.2-0.4,0.3-0.6c0-0.2,0.2-0.3,0.3-0.3c0.2-0.1,0.2-0.2,0.3-0.4s0.2-0.1,0.3-0.1s0.2,0,0.3,0.1s0.1,0,0.3,0
			c0.1,0,0.2,0,0.2,0c0.1,0,0.2,0.2,0.3,0.3c0.1,0.1,0.2,0.2,0.2,0.3c0,0.1,0.1,0.2,0.2,0.2c0.1,0.1,0.1,0.2,0.2,0.3
			c0.1,0.2,0.1,0.4,0.1,0.4c0,0.1,0.1,0.3,0.1,0.5c0,0.1,0.1,0.3,0.1,0.4c0.1,0.1,0.1,0.3,0.1,0.4c0,0.2,0.1,0.4,0.1,0.6
			c0,0.3,0,0.2,0.1,0.4c0,0.1,0,0.2,0,0.2c0,0.1,0.1,0.2,0.1,0.3c0,0.2,0,0.3,0,0.5c0,0.2,0,0.4,0,0.6c0,0.2,0,0.2,0,0.5
			c0,0.2,0,0.3,0,0.5C428.9,58.2,428.9,58.4,428.9,58.6L428.9,58.6z"/>
		<path class="st37" d="M427.1,51.4c-1.3-0.5-2.6,1.9-2.7,5.7s1.1,6.8,2.5,6.5c1.2-0.3,2.1-3,2.1-6.1S428.3,51.9,427.1,51.4z
			 M427,63.5c-1.4,0.3-2.6-2.5-2.5-6.3c-0.1-1.8,0.4-3.6,1.4-5.2c0.2-0.2,0.4-0.3,0.6-0.4c0.2-0.2,0.5-0.1,0.7,0
			c0.3,0.1,0.5,0.3,0.7,0.6c0.2,0.2,0.3,0.4,0.4,0.7c0.1,0.2,0.1,0.4,0.2,0.6c0.4,1.3,0.6,2.7,0.6,4.1C429,60.5,428.1,63.2,427,63.5
			z"/>
		<path class="st38" d="M426.9,65.1c-1.8,0.6-3.5-3.2-3.4-8.4c0.1-5,1.9-8,3.6-7.2c1.4,0.7,2.4,4.1,2.4,7.8S428.5,64.6,426.9,65.1z
			 M427.1,51.1c-1.3-0.6-2.6,1.9-2.7,5.7s1.1,6.9,2.5,6.6c1.2-0.3,2.1-3.1,2.1-6.1S428.3,51.6,427.1,51.1z"/>
		<path class="st38" d="M426.9,65.1c-1.8,0.6-3.5-3.2-3.4-8.4c0.1-5,1.9-8,3.6-7.2c1.4,0.7,2.4,4.1,2.4,7.8S428.5,64.6,426.9,65.1z
			 M427.1,51.1c-1.3-0.6-2.6,1.9-2.7,5.7s1.1,6.9,2.5,6.6c1.2-0.3,2.1-3.1,2.1-6.1S428.3,51.6,427.1,51.1z"/>
		<g class="st39">
			<g>
				
					<linearGradient id="SVGID_41_" gradientUnits="userSpaceOnUse" x1="426.89" y1="158.7148" x2="429.43" y2="158.7148" gradientTransform="matrix(1 0 0 -1 0 215.8898)">
					<stop  offset="0" style="stop-color:#000000"/>
					<stop  offset="9.000000e-02" style="stop-color:#080500"/>
					<stop  offset="0.22" style="stop-color:#1F1100"/>
					<stop  offset="0.39" style="stop-color:#452600"/>
					<stop  offset="0.58" style="stop-color:#794200"/>
					<stop  offset="0.8" style="stop-color:#BB6600"/>
					<stop  offset="1" style="stop-color:#FF8B00"/>
				</linearGradient>
				<path class="st55" d="M427.1,49.9L427.1,49.9l0.1,0h0.1h0.1l0.1,0.1l0,0h0c0,0,0.1,0.1,0.1,0.1l0.1,0.1c0,0,0,0,0,0.1v0.1
					c0.2,0.2,0.3,0.5,0.5,0.7c0.2,0.3,0.3,0.7,0.4,1.1l0,0l0,0v0.1v0.1v0.1l0,0.2v0.1v0.1l0.1,0.4c0,0.1,0,0.1,0,0.2v0.1v0.1
					c0.1,0.6,0.2,1.1,0.2,1.7c0,0.1,0,0.2,0,0.2s0,0.2,0,0.2V58c0,0.1,0,0.2,0,0.2v0.5c0,0.1,0,0.2,0,0.2v0.2
					c-0.1,0.6-0.1,1.2-0.3,1.7V61v0.1c0,0.1,0,0.1,0,0.2s-0.1,0.3-0.1,0.4v0.1v0.1l-0.1,0.2v0.1v0.1v0.1v0l0,0
					c-0.1,0.4-0.3,0.7-0.5,1.1c-0.1,0.3-0.3,0.5-0.5,0.7l0,0.1l-0.1,0.1l-0.1,0.1l-0.1,0.1h0l0,0l-0.1,0.1h-0.1H427h0h-0.1l0,0h0.1
					h0h0.1h0.1l0.1-0.1l0,0h0l0.1-0.1l0.1-0.1l0.1-0.1l0.1-0.1c0.2-0.2,0.3-0.5,0.5-0.7c0.2-0.3,0.4-0.7,0.5-1.1l0,0l0,0v-0.1v-0.1
					l0,0l0,0l0-0.2v-0.1v-0.1c0-0.1,0.1-0.2,0.1-0.4s0-0.1,0-0.2v-0.1V61c0.1-0.6,0.2-1.1,0.3-1.7c0-0.1,0-0.2,0-0.2
					c0-0.1,0-0.2,0-0.2v-1c0,0,0-0.1,0-0.1v-1.9c0-0.1,0-0.2,0-0.2s0-0.1,0-0.2c0-0.6-0.1-1.1-0.2-1.7v-0.1v-0.1c0-0.1,0-0.1,0-0.2
					l0.1-0.4v-0.1l0,0l0,0v-0.2l0,0l0,0v-0.1v-0.1v-0.1c-0.1-0.4-0.3-0.7-0.4-1.1c-0.1-0.2-0.3-0.5-0.4-0.7l-0.1-0.1c0,0,0,0,0-0.1
					l-0.1-0.1l-0.1-0.1l0,0l0,0l-0.1-0.1h-0.1h-0.1h0l-0.1-0.1L427.1,49.9z"/>
			</g>
		</g>
		<g class="st39">
			<g>
				
					<linearGradient id="SVGID_42_" gradientUnits="userSpaceOnUse" x1="427.11" y1="158.6298" x2="423.77" y2="158.6298" gradientTransform="matrix(1 0 0 -1 0 215.8898)">
					<stop  offset="0" style="stop-color:#000000"/>
					<stop  offset="9.000000e-02" style="stop-color:#080500"/>
					<stop  offset="0.22" style="stop-color:#1F1100"/>
					<stop  offset="0.39" style="stop-color:#452600"/>
					<stop  offset="0.58" style="stop-color:#794200"/>
					<stop  offset="0.8" style="stop-color:#BB6600"/>
					<stop  offset="1" style="stop-color:#FF8B00"/>
				</linearGradient>
				<path class="st56" d="M426.9,64.5L426.9,64.5h-0.6h-0.1h-0.1h-0.1c-0.2-0.1-0.4-0.3-0.6-0.4c-0.3-0.3-0.5-0.6-0.6-1l-0.1-0.2
					v-0.1l0,0l0,0c0-0.1,0-0.1-0.1-0.2l0,0l0,0v-0.1c-0.1-0.1-0.1-0.3-0.1-0.4c0-0.1-0.1-0.2-0.1-0.2v-0.1v-0.1
					c-0.2-0.7-0.3-1.5-0.4-2.2v-0.3v-0.3v-0.5c0-0.1,0-0.1,0-0.2v-1.5v-0.3v-0.6v-0.3c0,0,0-0.1,0-0.2v-0.2V55v-0.2
					c0-0.1,0-0.2,0-0.3c0-0.1,0-0.2,0-0.3c0.1-0.7,0.3-1.3,0.5-2v-0.1v-0.1l0.1-0.2c0-0.1,0.1-0.2,0.2-0.4v-0.1l0,0l0,0l0.1-0.2l0,0
					l0,0v-0.1l0.1-0.1c0.2-0.3,0.4-0.5,0.6-0.8c0.2-0.1,0.4-0.2,0.6-0.3h0.4h0.1h0.1h0.1l0,0h0.1l0,0L427,50l0,0h-0.1h-0.1h-0.1
					h-0.4h-0.1c-0.2,0.1-0.4,0.2-0.5,0.3c-0.2,0.2-0.5,0.5-0.6,0.8l-0.1,0.1v0.1l0,0l0,0l-0.1,0.2l0,0l0,0v0.1l-0.1,0.4
					c0,0.1-0.1,0.1-0.1,0.2v0.1v0.1c-0.2,0.6-0.4,1.3-0.5,2v0.3c0,0.1,0,0.2,0,0.3v0.2v0.1v0.2c0,0,0,0.1,0,0.2v0.3c0,0,0,0,0,0.1
					v0.4c0,0,0,0.1,0,0.2v1.2c0,0,0,0,0,0.1V58c0,0,0,0.1,0,0.2v0.3v0.2c0,0.1,0,0.2,0,0.3v0.3c0.1,0.7,0.2,1.4,0.4,2.2v0.1v0.1
					c0,0.1,0.1,0.1,0.1,0.2c0,0.1,0.1,0.3,0.1,0.4v0.1l0,0l0,0l0.1,0.2l0,0l0,0v0.1l0.1,0.2c0.2,0.4,0.4,0.7,0.6,1
					c0.2,0.2,0.4,0.3,0.6,0.5h0.1h0.1h0.1h0.1h0.4h0.1L426.9,64.5z"/>
			</g>
		</g>
		<g class="st39">
			<g>
				
					<linearGradient id="SVGID_43_" gradientUnits="userSpaceOnUse" x1="427.0401" y1="159.1598" x2="427.0401" y2="151.8298" gradientTransform="matrix(1 0 0 -1 0 215.8898)">
					<stop  offset="0" style="stop-color:#000000"/>
					<stop  offset="9.000000e-02" style="stop-color:#080500"/>
					<stop  offset="0.22" style="stop-color:#1F1100"/>
					<stop  offset="0.39" style="stop-color:#452600"/>
					<stop  offset="0.58" style="stop-color:#794200"/>
					<stop  offset="0.8" style="stop-color:#BB6600"/>
					<stop  offset="1" style="stop-color:#FF8B00"/>
				</linearGradient>
				<path class="st57" d="M429.2,57.3v0.2c0,0,0,0.1,0,0.1v0.7c0,0.1,0,0.1,0,0.2v0.2c0,0,0,0.1,0,0.1V59c0,0.3-0.1,0.7-0.1,1.2
					s-0.2,0.8-0.3,1.2c0,0,0,0.1,0,0.2v0.1v0.1l0,0.2l0,0l0,0V62c0,0.1-0.1,0.2-0.1,0.3l-0.1,0.1v0.1v0.1c-0.2,0.3-0.4,0.7-0.6,1
					l-0.1,0.1l-0.1,0.1h0l0,0l0,0l0,0l-0.1,0.1h0h0h0l0,0h-0.1h-0.1h-0.4h0h-0.1h-0.1c-0.3-0.2-0.6-0.4-0.7-0.7v-0.1v-0.1l-0.1-0.1
					c-0.1-0.1-0.1-0.2-0.2-0.3v-0.1l0,0l0,0l-0.1-0.2v-0.1V62c0-0.1-0.1-0.1-0.1-0.2c-0.2-0.5-0.3-1-0.4-1.5c-0.1-0.5-0.2-1-0.2-1.5
					v-0.2c0,0,0-0.1,0-0.2v-0.3c0-0.1,0-0.2,0-0.3v-1.2l0,0v1.2c0,0,0,0.1,0,0.1c0,0.1,0,0.2,0,0.3s0,0.2,0,0.3s0,0.1,0,0.2V59
					c0.1,0.5,0.1,1,0.2,1.4c0.1,0.5,0.2,1,0.4,1.5c0,0.1,0,0.1,0.1,0.2v0.1v0.1l0.1,0.2l0,0l0,0v0.1l0.2,0.3c0,0,0,0.1,0.1,0.1V63
					V63c0.2,0.3,0.4,0.5,0.7,0.7h0.1h0.1l0,0h0.4h0.1h0.1l0,0h0h0l0,0l0.1,0h0l0,0h0l0,0l0.1-0.1l0.1-0.1c0.2-0.3,0.4-0.6,0.6-0.9
					v-0.1v-0.1l0.1-0.1l0.1-0.3V62v-0.1v-0.2v-0.1v-0.1c0,0,0-0.1,0-0.2c0.1-0.4,0.2-0.8,0.3-1.2c0.1-0.4,0.1-0.8,0.2-1.1v-0.1
					c0,0,0-0.1,0-0.1v-0.2c0-0.1,0-0.1,0-0.2s0-0.1,0-0.1V58c0-0.1,0-0.1,0-0.2v-0.5L429.2,57.3z"/>
			</g>
		</g>
		<g class="st39">
			<g>
				
					<linearGradient id="SVGID_44_" gradientUnits="userSpaceOnUse" x1="426.38" y1="158.4598" x2="426.38" y2="165.3898" gradientTransform="matrix(1 0 0 -1 0 215.8898)">
					<stop  offset="0" style="stop-color:#000000"/>
					<stop  offset="9.000000e-02" style="stop-color:#080500"/>
					<stop  offset="0.22" style="stop-color:#1F1100"/>
					<stop  offset="0.39" style="stop-color:#452600"/>
					<stop  offset="0.58" style="stop-color:#794200"/>
					<stop  offset="0.8" style="stop-color:#BB6600"/>
					<stop  offset="1" style="stop-color:#FF8B00"/>
				</linearGradient>
				<path class="st58" d="M424.1,57v-0.3c0,0,0-0.1,0-0.2v-0.2c0-0.1,0-0.1,0-0.2V56v-0.1c0,0,0-0.1,0-0.1v-0.3c0-0.1,0-0.2,0-0.3
					c0-0.1,0-0.1,0-0.2v-0.2c0.1-0.5,0.2-0.9,0.3-1.4c0.1-0.4,0.3-0.9,0.5-1.3c0-0.1,0-0.1,0.1-0.2v-0.1l0,0l0,0l0.1-0.1l0,0l0,0
					v-0.1c0.1-0.1,0.1-0.2,0.2-0.2c0,0,0.1-0.1,0.1-0.1l0,0h0c0.2-0.2,0.4-0.4,0.7-0.5h0.1h0.1h0.8h0l0,0h0.1h0.1l0,0h0l0,0l0,0l0,0
					l0.1,0.1l0,0l0,0l0,0l0,0l0.1,0.1l0.1,0.1c0.2,0.3,0.4,0.6,0.6,1v0.1v0.1l0.1,0.1l0.1,0.3v0.1v0.1V53l0,0l0,0v0.1
					c0,0,0,0.1,0,0.2c0.1,0.4,0.2,0.8,0.3,1.2c0.1,0.4,0.1,0.8,0.1,1.1v0.1c0,0,0,0.1,0,0.1v0.2c0,0.1,0,0.1,0,0.2v1l0,0V57
					c0,0,0-0.1,0-0.2v-0.4c0-0.1,0-0.1,0-0.2V56c0,0,0-0.1,0-0.1v-0.1c0-0.3-0.1-0.7-0.1-1.1s-0.2-0.8-0.3-1.2c0,0,0-0.1,0-0.2v-0.1
					v-0.1l0-0.2l0,0l0,0v-0.1c0-0.1-0.1-0.2-0.1-0.3c0,0,0-0.1,0-0.1v-0.1v-0.1c-0.1-0.4-0.3-0.7-0.6-1l-0.1-0.1
					c0,0-0.1-0.1-0.1-0.1l0,0h0l0,0l0,0l-0.1-0.1l0,0l0,0l0,0l0,0l0,0h-0.1H427l0,0h-0.4h-0.1h-0.1c-0.3,0.1-0.5,0.3-0.7,0.5l0,0
					v0.1l-0.1,0.1c-0.1,0.1-0.1,0.2-0.2,0.2V52l0,0l0,0l-0.1,0.1l0,0l0,0v0.1c0,0,0,0.1-0.1,0.1c-0.2,0.4-0.3,0.8-0.5,1.3
					c-0.1,0.4-0.2,0.9-0.3,1.3v0.2c0,0,0,0.1,0,0.2v0.3v0.3c0,0,0,0.1,0,0.1v0.1v0.2c0,0.1,0,0.2,0,0.2v0.2c0,0,0,0.1,0,0.2V57
					H424.1z"/>
			</g>
		</g>
		<g>
			
				<linearGradient id="SVGID_45_" gradientUnits="userSpaceOnUse" x1="429.7685" y1="155.3217" x2="426.5185" y2="152.6317" gradientTransform="matrix(1 0 0 -1 0 215.8898)">
				<stop  offset="0" style="stop-color:#FFFFFF"/>
				<stop  offset="0.13" style="stop-color:#FFD7A1"/>
				<stop  offset="0.26" style="stop-color:#FFB24C"/>
				<stop  offset="0.32" style="stop-color:#FFA42B"/>
				<stop  offset="0.39" style="stop-color:#FFA732"/>
				<stop  offset="0.48" style="stop-color:#FFAF44"/>
				<stop  offset="0.6" style="stop-color:#FFBC63"/>
				<stop  offset="0.73" style="stop-color:#FFCE8D"/>
				<stop  offset="0.86" style="stop-color:#FFE5C2"/>
				<stop  offset="1" style="stop-color:#FFFFFF"/>
			</linearGradient>
			<path class="st59" d="M429.4,59.4l-0.4-0.5c-0.2,2.1-0.9,3.9-1.8,4.3l0.1,1.7C428.4,64.2,429.2,62,429.4,59.4z"/>
		</g>
		<g>
			
				<linearGradient id="SVGID_46_" gradientUnits="userSpaceOnUse" x1="426.2305" y1="164.9869" x2="428.2605" y2="164.8569" gradientTransform="matrix(1 0 0 -1 0 215.8898)">
				<stop  offset="0" style="stop-color:#FFFFFF"/>
				<stop  offset="0" style="stop-color:#FFFEFD"/>
				<stop  offset="0.25" style="stop-color:#FFCA76"/>
				<stop  offset="0.42" style="stop-color:#FFA921"/>
				<stop  offset="0.49" style="stop-color:#FF9C00"/>
				<stop  offset="0.55" style="stop-color:#FF9E05"/>
				<stop  offset="0.61" style="stop-color:#FFA413"/>
				<stop  offset="0.68" style="stop-color:#FFAD2B"/>
				<stop  offset="0.75" style="stop-color:#FFBA4D"/>
				<stop  offset="0.82" style="stop-color:#FFCB78"/>
				<stop  offset="0.9" style="stop-color:#FFDFAD"/>
				<stop  offset="0.98" style="stop-color:#FFF7EA"/>
				<stop  offset="1" style="stop-color:#FFFFFF"/>
			</linearGradient>
			<path class="st60" d="M425.9,49.6l0.3,1.6c0.3-0.2,0.7-0.3,1-0.1c0.6,0.3,1,0.9,1.2,1.5l0.4-0.8c-0.2-0.9-0.8-1.7-1.5-2.2
				C426.8,49.3,426.3,49.3,425.9,49.6z"/>
		</g>
		<path class="st45" d="M427.2,49.5c-1.7-0.9-3.5,2.2-3.6,7.2c-0.1,5.3,1.5,9.1,3.4,8.5c1.5-0.5,2.6-4.1,2.6-7.8
			S428.6,50.2,427.2,49.5z M424.5,56.8c0.1-3.8,1.4-6.2,2.7-5.7s2,3.2,1.9,6.1s-0.9,5.7-2.1,6C425.6,63.6,424.4,60.7,424.5,56.8z"/>
		<path class="st45" d="M428.7,53.7c0,0,0.1,0.4,0.3,0.1c0.1-0.2,0.1-0.4,0.1-0.6l0.1,0.6v0.2c0,0-0.1-0.3-0.2-0.1
			c-0.1,0.2-0.2,0.4-0.2,0.5l-0.1-0.4L428.7,53.7z"/>
		<g class="st33">
			
				<radialGradient id="SVGID_47_" cx="-936.6577" cy="47.7676" r="5.61" gradientTransform="matrix(-0.45 0.12 -0.25 -0.97 -33.6875 217.7132)" gradientUnits="userSpaceOnUse">
				<stop  offset="0" style="stop-color:#FFCB00"/>
				<stop  offset="0.51" style="stop-color:#FFC900"/>
				<stop  offset="0.69" style="stop-color:#FFC200"/>
				<stop  offset="0.82" style="stop-color:#FEB700"/>
				<stop  offset="0.92" style="stop-color:#FDA600"/>
				<stop  offset="1" style="stop-color:#FC9300"/>
			</radialGradient>
			<path class="st61" d="M371.5,63.8c0.7,3,2.1,5.4,3.4,5.5c1.5,0,2-3.1,1.1-6.9s-2.7-5.8-3.9-5C371.1,58.1,370.9,60.9,371.5,63.8z"
				/>
		</g>
		<path class="st36" d="M371.5,63.8c0.7,3,2.1,5.4,3.4,5.5c1.5,0,2-3.1,1.1-6.9s-2.7-5.8-3.9-5C371.1,58.1,370.9,60.9,371.5,63.8z
			 M371.8,64.4c-0.1-0.2-0.1-0.3-0.2-0.5c0-0.3,0-0.3-0.1-0.5s0-0.3-0.1-0.6c-0.1-0.1-0.1-0.3-0.1-0.4c0-0.1,0-0.2,0-0.3
			c0-0.1,0-0.2,0-0.3c0-0.2,0-0.1,0-0.4c0-0.2-0.1-0.4-0.1-0.6c0-0.1,0-0.3,0-0.4c0-0.2,0.1-0.3,0.1-0.5c0-0.2,0-0.3,0-0.5
			c0,0,0-0.2,0-0.4c0-0.1,0-0.2,0.1-0.3c0.1-0.1,0.1-0.2,0.1-0.3c0-0.1,0.1-0.3,0.1-0.4c0-0.1,0.1-0.3,0.2-0.3
			c0.1,0,0.1-0.1,0.2-0.1c0.1,0,0.2,0,0.3,0s0.1-0.1,0.2-0.1s0.1,0,0.3,0.1s0.2,0.2,0.4,0.3c0.2,0,0.3,0.1,0.4,0.3
			c0.1,0.2,0.3,0.3,0.4,0.6s0.3,0.7,0.5,0.9s0.3,0.3,0.4,0.5c0.1,0.2,0.2,0.4,0.2,0.6c0.1,0.2,0.2,0.8,0.2,0.8l0.3,1.2
			c0.1,0.2,0.2,0.4,0.2,0.7v0.7c0.1,0.3,0.2,0.6,0.2,0.8c0,0.3,0,0.6-0.1,0.9c0,0.4,0,0.6,0,0.8c0.1,0.2,0.1,0.5,0,0.7
			c-0.1,0.2-0.2,0.4-0.3,0.6c-0.1,0.1-0.1,0.3-0.2,0.4l-0.3,0.2h-0.6c0,0-0.2,0-0.2,0s-0.1,0-0.2,0s-0.4-0.4-0.4-0.4
			s-0.3-0.4-0.5-0.6s-0.1-0.1-0.3-0.3c-0.1-0.1-0.3-0.3-0.3-0.5c-0.1-0.2-0.1-0.4-0.2-0.6s-0.2-0.6-0.3-0.7
			c-0.1-0.1-0.1-0.2-0.2-0.3c-0.1-0.1-0.1-0.3-0.1-0.4C371.9,64.7,371.9,64.5,371.8,64.4z"/>
		
			<linearGradient id="SVGID_48_" gradientUnits="userSpaceOnUse" x1="407.7117" y1="172.8993" x2="407.7117" y2="184.5193" gradientTransform="matrix(0.9909 0.1349 0.1349 -0.9909 -54.3759 185.0294)">
			<stop  offset="0" style="stop-color:#FF5D54"/>
			<stop  offset="0.24" style="stop-color:#F4514C"/>
			<stop  offset="0.66" style="stop-color:#D83336"/>
			<stop  offset="1" style="stop-color:#BE1622"/>
		</linearGradient>
		<path class="st62" d="M371.4,63.5c0.7,2.9,2.1,5.4,3.4,5.5c1.5,0,2-3.1,1.1-6.9s-2.7-5.8-3.9-5C371,57.8,370.8,60.6,371.4,63.5z"
			/>
		<path class="st38" d="M371,63.7c-0.8-3.5-0.6-7.1,0.7-8.1c1.5-1.2,3.8,1.4,5,6.2c1.3,5.1,0.5,9.1-1.5,8.9
			C373.6,70.6,371.8,67.4,371,63.7z M371.5,63.6c0.7,3,2.1,5.5,3.4,5.5c1.5,0,2-3.1,1.1-7s-2.7-5.8-3.9-5
			C371,57.9,370.8,60.7,371.5,63.6L371.5,63.6z"/>
		<path class="st38" d="M371,63.7c-0.8-3.5-0.6-7.1,0.7-8.1c1.5-1.2,3.8,1.4,5,6.2c1.3,5.1,0.5,9.1-1.5,8.9
			C373.6,70.6,371.8,67.4,371,63.7z M371.5,63.6c0.7,3,2.1,5.5,3.4,5.5c1.5,0,2-3.1,1.1-7s-2.7-5.8-3.9-5
			C371,57.9,370.8,60.7,371.5,63.6L371.5,63.6z"/>
		<g class="st39">
			<g>
				
					<linearGradient id="SVGID_49_" gradientUnits="userSpaceOnUse" x1="377.07" y1="152.7948" x2="371.81" y2="152.7948" gradientTransform="matrix(1 0 0 -1 0 215.8898)">
					<stop  offset="0" style="stop-color:#000000"/>
					<stop  offset="9.000000e-02" style="stop-color:#080500"/>
					<stop  offset="0.22" style="stop-color:#1F1100"/>
					<stop  offset="0.39" style="stop-color:#452600"/>
					<stop  offset="0.58" style="stop-color:#794200"/>
					<stop  offset="0.8" style="stop-color:#BB6600"/>
					<stop  offset="1" style="stop-color:#FF8B00"/>
				</linearGradient>
				<path class="st63" d="M375.2,70.2h0.1c0,0,0,0,0.1,0h0.1h0.1l0,0h0h0.1l0.1-0.1h0.1h0.1c0.2-0.2,0.4-0.4,0.5-0.6
					c0.2-0.3,0.3-0.7,0.4-1.1c0-0.1,0-0.1,0-0.2v-0.1v-0.1v-0.2v-0.1v-0.1c0-0.1,0-0.3,0-0.4s0-0.2,0-0.2v-0.2c0-0.7,0-1.5-0.1-2.2
					c0-0.1,0-0.2,0-0.3s0-0.2,0-0.3v-0.2v-0.2v-0.2c0-0.1,0-0.1,0-0.2l-0.1-0.3c0,0,0-0.1,0-0.1v-0.1v-0.2v-0.2c0-0.1,0-0.1,0-0.2
					l-0.1-0.3l-0.1-0.3c0,0,0-0.1,0-0.2v-0.2v-0.2v-0.1v-0.1l-0.1-0.3c0,0,0-0.1,0-0.1l0-0.1l0-0.2v-0.1c0-0.1-0.1-0.2-0.1-0.3
					l-0.1-0.3c-0.3-0.6-0.6-1.2-0.9-1.8l-0.1-0.1l-0.1-0.1l-0.1-0.2l-0.2-0.3l-0.1-0.1l0,0l0,0l-0.1-0.1l0,0l0,0l-0.1-0.1l-0.1-0.1
					c-0.2-0.2-0.5-0.4-0.8-0.6c-0.2-0.1-0.4-0.1-0.6-0.2h-0.1h-0.1h-0.1l0,0h0h-0.1L372,56h-0.1l0,0l-0.1,0.1l0,0h0.1l0,0h0.1h0.1
					h0.1l0,0h0h0.1h0.2c0.2,0,0.4,0.1,0.6,0.2c0.3,0.2,0.5,0.4,0.8,0.6L374,57l0,0.1l0,0l0,0l0.1,0.1l0,0l0,0l0.1,0.1l0.2,0.3
					l0.1,0.2v0.1l0.1,0.1c0.3,0.6,0.6,1.2,0.9,1.8l0.1,0.3c0,0.1,0.1,0.2,0.1,0.3l0,0.1v0.1l0,0.1c0,0,0,0.1,0,0.1l0.1,0.3
					c0,0,0,0,0,0.1v0.1v0.1v0.2c0,0,0,0.1,0,0.2L376,62l0.1,0.3v0.2v0.2v0.2v0.1c0,0,0,0,0,0.1l0.1,0.3c0,0,0,0.1,0,0.2v0.2v0.2v0.2
					c0,0.1,0,0.2,0,0.3v0.3c0.1,0.7,0.1,1.5,0.1,2.2v0.2c0,0.1,0,0.2,0,0.2s0,0.3,0,0.4v0.1v0.1v0.2V68v0.1c0,0.1,0,0.1,0,0.2
					c-0.1,0.4-0.2,0.8-0.4,1.1c-0.1,0.2-0.3,0.4-0.5,0.6h-0.1h0l-0.1,0.1h-0.1l0,0h0H375h-0.3L375.2,70.2z"/>
			</g>
		</g>
		<g>
			
				<linearGradient id="SVGID_50_" gradientUnits="userSpaceOnUse" x1="373.7193" y1="148.2807" x2="372.7493" y2="147.4707" gradientTransform="matrix(1 0 0 -1 0 215.8898)">
				<stop  offset="0" style="stop-color:#FFFFFF"/>
				<stop  offset="0.13" style="stop-color:#FFD7A1"/>
				<stop  offset="0.26" style="stop-color:#FFB24C"/>
				<stop  offset="0.32" style="stop-color:#FFA42B"/>
				<stop  offset="0.39" style="stop-color:#FFA732"/>
				<stop  offset="0.48" style="stop-color:#FFAF44"/>
				<stop  offset="0.6" style="stop-color:#FFBC63"/>
				<stop  offset="0.73" style="stop-color:#FFCE8D"/>
				<stop  offset="0.86" style="stop-color:#FFE5C2"/>
				<stop  offset="1" style="stop-color:#FFFFFF"/>
			</linearGradient>
			<path class="st64" d="M371.6,65.8c0.1-0.2,0.2-0.4,0.3-0.6c0.7,2,1.7,3.6,2.7,3.9l0.3,1.6C373.6,70.2,372.4,68.2,371.6,65.8z"/>
		</g>
		<g>
			
				<linearGradient id="SVGID_51_" gradientUnits="userSpaceOnUse" x1="370.9914" y1="158.88" x2="372.5614" y2="158.77" gradientTransform="matrix(1 0 0 -1 0 215.8898)">
				<stop  offset="0" style="stop-color:#FFFFFF"/>
				<stop  offset="0" style="stop-color:#FFFEFD"/>
				<stop  offset="0.25" style="stop-color:#FFCA76"/>
				<stop  offset="0.42" style="stop-color:#FFA921"/>
				<stop  offset="0.49" style="stop-color:#FF9C00"/>
				<stop  offset="0.55" style="stop-color:#FF9E05"/>
				<stop  offset="0.61" style="stop-color:#FFA413"/>
				<stop  offset="0.68" style="stop-color:#FFAD2B"/>
				<stop  offset="0.75" style="stop-color:#FFBA4D"/>
				<stop  offset="0.82" style="stop-color:#FFCB78"/>
				<stop  offset="0.9" style="stop-color:#FFDFAD"/>
				<stop  offset="0.98" style="stop-color:#FFF7EA"/>
				<stop  offset="1" style="stop-color:#FFFFFF"/>
			</linearGradient>
			<path class="st65" d="M372.9,55.4L373,57c-0.3-0.1-0.7-0.1-1,0.1c-0.5,0.5-0.8,1.1-0.8,1.7l-0.6-0.7c0-0.9,0.4-1.8,1-2.5
				C372,55.3,372.5,55.2,372.9,55.4z"/>
		</g>
		<path class="st45" d="M371,63.7c0.8,3.7,2.6,6.9,4.3,7.1c2,0.2,2.8-3.9,1.5-9c-1.2-4.9-3.6-7.5-5.1-6.3
			C370.4,56.6,370.2,60.2,371,63.7z M374.8,69c-1.2,0-2.7-2.5-3.4-5.4s-0.4-5.7,0.6-6.4s2.9,1.3,3.9,4.9S376.3,69,374.8,69z"/>
		<path class="st45" d="M371,60c0,0,0,0.4-0.3,0.2c-0.1-0.2-0.2-0.4-0.2-0.6v0.6v0.2c0,0,0-0.3,0.2-0.2c0.1,0.1,0.2,0.3,0.3,0.5
			L371,60L371,60z"/>
		
			<linearGradient id="SVGID_52_" gradientUnits="userSpaceOnUse" x1="459.4681" y1="185.4193" x2="459.4681" y2="197.6149" gradientTransform="matrix(0.9909 0.1349 0.1349 -0.9909 -54.3759 185.0294)">
			<stop  offset="0" style="stop-color:#FF5D54"/>
			<stop  offset="0.24" style="stop-color:#F4514C"/>
			<stop  offset="0.66" style="stop-color:#D83336"/>
			<stop  offset="1" style="stop-color:#BE1622"/>
		</linearGradient>
		<path class="st66" d="M427.1,51.2c-1.3-0.6-2.6,1.9-2.7,5.7s1.1,6.8,2.5,6.5c1.2-0.3,2.1-3,2.1-6.1S428.3,51.7,427.1,51.2z"/>
	</g>
</g>
</svg>
