<svg id="Layer_1" data-name="Layer 1" xmlns="http://www.w3.org/2000/svg" viewBox="0 0 500 500"><title>Get Started</title><circle cx="250" cy="250" r="250" style="fill:#fff"/><path d="M250,165a60,60,0,0,0-60,60c0,45,60,110,60,110s60-65,60-110A60,60,0,0,0,250,165Z" style="fill:#757575"/><circle cx="250" cy="228.79" r="27.5" style="fill:#fff"/><path d="M472.92,363.46,294.86,185.4A59.77,59.77,0,0,1,310,225.2c0,45-60,110-60,110h0L379.11,464.31A251,251,0,0,0,472.92,363.46Z" style="fill:#e3e3e3"/><path d="M250,10a240.06,240.06,0,0,1,93.42,461.14A240.06,240.06,0,0,1,156.58,28.86,238.42,238.42,0,0,1,250,10m0-10C111.93,0,0,111.93,0,250S111.93,500,250,500,500,388.07,500,250,388.07,0,250,0Z" style="fill:#757575"/></svg>