<?xml version="1.0" encoding="utf-8"?>
<!-- Generator: Adobe Illustrator 24.1.1, SVG Export Plug-In . SVG Version: 6.00 Build 0)  -->
<svg version="1.1" id="Layer_1" xmlns="http://www.w3.org/2000/svg" xmlns:xlink="http://www.w3.org/1999/xlink" x="0px" y="0px"
	 viewBox="0 0 28 27.7" style="enable-background:new 0 0 28 27.7;" xml:space="preserve">
<style type="text/css">
	.st0{fill:#E52321;}
</style>
<path class="st0" d="M5.4,25.3c0-0.1,0-0.2,0-0.3H2.8V5.6h2.8v4.1h13.9V5.6h2.8v7.5h0.3c0.9,0,1.7,0.2,2.5,0.6V5.6
	c0-1.5-1.2-2.8-2.8-2.8c0,0,0,0,0,0h-5.8c-0.8-2.2-3.1-3.3-5.3-2.5C9.9,0.7,9,1.6,8.6,2.8H2.8C1.2,2.8,0,4,0,5.5c0,0,0,0,0,0V25
	c0,1.5,1.2,2.8,2.8,2.8h2.6V25.3z M12.5,2.8c0.8,0,1.4,0.6,1.4,1.4s-0.6,1.4-1.4,1.4c-0.8,0-1.4-0.6-1.4-1.4
	C11.1,3.4,11.7,2.8,12.5,2.8C12.5,2.8,12.5,2.8,12.5,2.8z"/>
<path class="st0" d="M22.5,20.8c1.4,0,2.5-1.1,2.5-2.5s-1.1-2.5-2.5-2.5c-1.4,0-2.5,1.1-2.5,2.5C20,19.7,21.1,20.8,22.5,20.8
	C22.5,20.8,22.5,20.8,22.5,20.8z M15.1,19.8c1.7,0,3-1.3,3-3s-1.3-3-3-3s-3,1.3-3,3C12.1,18.4,13.4,19.8,15.1,19.8
	C15.1,19.8,15.1,19.8,15.1,19.8L15.1,19.8z M22.5,22.8c-1.8,0-5.4,0.9-5.4,2.7v2.2H28v-2.3C28,23.7,24.3,22.8,22.5,22.8L22.5,22.8z
	 M15.1,21.8c-2.3,0-6.9,1.2-6.9,3.5v2.5h6.9v-2.2c0.1-1.5,1-2.8,2.3-3.4C16.7,21.9,15.9,21.8,15.1,21.8L15.1,21.8z"/>
</svg>
