<svg id="Layer_1" data-name="Layer 1" xmlns="http://www.w3.org/2000/svg" viewBox="0 0 27.95 27.73"><title>Group Project Icon</title><path d="M5.37,25.25c0-.1,0-.2,0-.3H2.77V5.55H5.55V9.7H19.41V5.55h2.77v7.54l.32,0a5.08,5.08,0,0,1,2.45.64V5.55a2.77,2.77,0,0,0-2.77-2.78h-5.8a4.14,4.14,0,0,0-7.81,0H2.77A2.77,2.77,0,0,0,0,5.55V25a2.78,2.78,0,0,0,2.77,2.78h2.6ZM12.48,2.77a1.39,1.39,0,1,1-1.39,1.39A1.38,1.38,0,0,1,12.48,2.77Z" style="fill:#d0d0d0"/><path d="M22.5,20.79A2.48,2.48,0,1,0,20,18.32,2.47,2.47,0,0,0,22.5,20.79Zm-7.42-1a3,3,0,1,0-3-3A3,3,0,0,0,15.08,19.8Zm7.42,3c-1.81,0-5.44.92-5.44,2.73v2.23H28V25.5C28,23.69,24.32,22.77,22.5,22.77Zm-7.42-1c-2.31,0-6.93,1.16-6.93,3.47v2.48h6.93V25.5a3.9,3.9,0,0,1,2.34-3.44A12,12,0,0,0,15.08,21.78Z" style="fill:#d0d0d0"/></svg>