<svg id="Layer_1" data-name="Layer 1" xmlns="http://www.w3.org/2000/svg" viewBox="0 0 387.16 312.02"><g id="Layer_2" data-name="Layer 2"><g id="Layer_1-2" data-name="Layer 1-2"><path d="M13.76,369.5a54.13,54.13,0,0,1-5.36-8.43" transform="translate(0 -59.01)" fill="none" stroke="#4285f4" stroke-miterlimit="10" stroke-width="5"/><path d="M2.66,340.74a53.76,53.76,0,0,1,80.65-50.62" transform="translate(0 -59.01)" fill="none" stroke="#4285f4" stroke-miterlimit="10" stroke-width="5" stroke-dasharray="21.26 21.26"/><path d="M91.92,296.36a54.16,54.16,0,0,1,6.82,7.3" transform="translate(0 -59.01)" fill="none" stroke="#4285f4" stroke-miterlimit="10" stroke-width="5"/><path d="M175.23,208.41a53.69,53.69,0,0,0-7.91-6.09" transform="translate(0 -59.01)" fill="none" stroke="#4285f4" stroke-miterlimit="10" stroke-width="5"/><path d="M150.24,195.32a53.75,53.75,0,0,0-65,58.4" transform="translate(0 -59.01)" fill="none" stroke="#4285f4" stroke-miterlimit="10" stroke-width="5" stroke-dasharray="18.54 18.54"/><path d="M87.05,262.82a53.73,53.73,0,0,0,3.67,9.29" transform="translate(0 -59.01)" fill="none" stroke="#4285f4" stroke-miterlimit="10" stroke-width="5"/><path d="M252.55,121.26a54.56,54.56,0,0,1,8.47,5.29" transform="translate(0 -59.01)" fill="none" stroke="#4285f4" stroke-miterlimit="10" stroke-width="5"/><path d="M276,144.21a53.17,53.17,0,0,1,3.81,9.24" transform="translate(0 -59.01)" fill="none" stroke="#4285f4" stroke-miterlimit="10" stroke-width="5"/><path d="M384.92,91.28a53.52,53.52,0,0,0-5.27-8.5" transform="translate(0 -59.01)" fill="none" stroke="#4285f4" stroke-miterlimit="10" stroke-width="5"/><path d="M366.14,70.21A53.74,53.74,0,0,0,284.74,102" transform="translate(0 -59.01)" fill="none" stroke="#4285f4" stroke-miterlimit="10" stroke-width="5" stroke-dasharray="18.54 18.54"/><path d="M283.22,111.11a53.88,53.88,0,0,0,.15,10" transform="translate(0 -59.01)" fill="none" stroke="#4285f4" stroke-miterlimit="10" stroke-width="5"/><path d="M473.65,23.78" transform="translate(0 -59.01)" fill="none" stroke="#4285f4" stroke-miterlimit="10" stroke-width="5"/><path d="M478.92,32.28" transform="translate(0 -59.01)" fill="none" stroke="#4285f4" stroke-miterlimit="10" stroke-width="5"/><path d="M377.37,62.11" transform="translate(0 -59.01)" fill="none" stroke="#4285f4" stroke-miterlimit="10" stroke-width="5"/><path d="M377.22,52.11" transform="translate(0 -59.01)" fill="none" stroke="#4285f4" stroke-miterlimit="10" stroke-width="5"/><path d="M222.76,159.17a6.38,6.38,0,0,0-3.06-.68l.06-.13a6.46,6.46,0,0,0-2.88-8.67h0a6.4,6.4,0,0,0-3.07-.69,6.56,6.56,0,0,0-2.79-8.44,6.48,6.48,0,0,0-3.23-.77l7.15-14.25a6.46,6.46,0,1,0-11.56-5.79h0l-14.88,29.7-2.26-6.79a11.71,11.71,0,0,0-3.27-5.08,7.06,7.06,0,0,0-10,.69,7,7,0,0,0-1.47,2.73,7.08,7.08,0,0,0,.12,4.27l1.1,3.31a65.41,65.41,0,0,1,3.05,14.77,24.58,24.58,0,0,1-1,9.64,7.81,7.81,0,0,0,.2,5.33,8.1,8.1,0,0,0,3.94,4.21l18.9,9.48a11.47,11.47,0,0,0,12.76-1.64,45.25,45.25,0,0,0,10.68-13.81l4.35-8.67a6.48,6.48,0,0,0-2.86-8.71Zm-4.68,15.74a41.64,41.64,0,0,1-9.83,12.72,7.88,7.88,0,0,1-8.78,1.13l-18.9-9.48a4.47,4.47,0,0,1-2.21-2.34,4.06,4.06,0,0,1-.11-2.89A28.11,28.11,0,0,0,179.39,163a68.06,68.06,0,0,0-3.22-15.59l-1.1-3.31A3.58,3.58,0,0,1,175,142a3.44,3.44,0,0,1,2.38-2.38,3.29,3.29,0,0,1,2.48.2,3.48,3.48,0,0,1,.74.51,8,8,0,0,1,2.24,3.51l3.62,10.91A1.8,1.8,0,0,0,188,156a1.82,1.82,0,0,0,1.74-1l16.83-33.58a2.87,2.87,0,0,1,5.13,2.57L197.58,152.2a1.82,1.82,0,0,0,.13,1.83l.12.17a1.79,1.79,0,0,0,2.49.46,1.85,1.85,0,0,0,.59-.68l4.5-9a2.86,2.86,0,0,1,3.84-1.28l.08,0a2.93,2.93,0,0,1,1.16,3.9l-6.74,13.45a1.82,1.82,0,0,0,.13,1.83l.11.17a1.8,1.8,0,0,0,2.5.46,1.93,1.93,0,0,0,.59-.68l4.35-8.68a2.87,2.87,0,1,1,5.2,2.43.91.91,0,0,1-.07.14L209.9,170a1.8,1.8,0,0,0,.13,1.82l.12.17a1.79,1.79,0,0,0,3.08-.21l4.07-8.12a2.87,2.87,0,0,1,5.13,2.57Z" transform="translate(0 -59.01)" fill="#4285f4"/><path d="M214.43,112.12a2.14,2.14,0,0,0,2.88-1l0,0,4.12-8.21a2.16,2.16,0,0,0-3.86-1.94h0l-4.12,8.22a2.16,2.16,0,0,0,.92,2.91Z" transform="translate(0 -59.01)" fill="#4285f4"/><path d="M221.05,120a2.13,2.13,0,0,0,1.64.12l8.72-2.9a2.16,2.16,0,1,0-1.08-4.18,1.31,1.31,0,0,0-.28.09l-8.72,2.9a2.15,2.15,0,0,0-1.37,2.7v0A2.06,2.06,0,0,0,221.05,120Z" transform="translate(0 -59.01)" fill="#4285f4"/><path d="M219.22,127.28a2.17,2.17,0,0,0,1,2.9l8.22,4.12a2.16,2.16,0,0,0,1.93-3.86l-8.22-4.12a2.16,2.16,0,0,0-2.91.92Z" transform="translate(0 -59.01)" fill="#4285f4"/><path d="M203.25,110a2.14,2.14,0,0,0,4,.25,2.19,2.19,0,0,0,.11-1.61l-2.9-8.72a2.16,2.16,0,0,0-4.18,1.08,1.31,1.31,0,0,0,.09.28Z" transform="translate(0 -59.01)" fill="#4285f4"/><path d="M188.36,113.69l8.21,4.12a2.16,2.16,0,1,0,1.94-3.86l-8.22-4.12a2.16,2.16,0,0,0-1.93,3.86Z" transform="translate(0 -59.01)" fill="#4285f4"/></g></g></svg>