<?xml version="1.0" encoding="utf-8"?>
<!-- Generator: Adobe Illustrator 24.1.1, SVG Export Plug-In . SVG Version: 6.00 Build 0)  -->
<svg version="1.1" id="Layer_1" xmlns="http://www.w3.org/2000/svg" xmlns:xlink="http://www.w3.org/1999/xlink" x="0px" y="0px"
	 viewBox="0 0 481.1 371" style="enable-background:new 0 0 481.1 371;" xml:space="preserve">
<style type="text/css">
	.st0{fill:none;stroke:#4285F4;stroke-width:5;stroke-miterlimit:10;}
	.st1{fill:none;stroke:#4285F4;stroke-width:5;stroke-miterlimit:10;stroke-dasharray:18.54,18.54;}
	.st2{fill:#4285F4;}
</style>
<g id="Layer_2_1_">
	<g id="Layer_1-2">
		<path class="st0" d="M175.2,208.4c-2.4-2.3-5.1-4.3-7.9-6.1"/>
		<path class="st1" d="M150.2,195.5c-32.3-7.1-64.2,13.3-71.4,45.6c-1.4,6.4-1.8,13-1,19.5"/>
		<path class="st0" d="M79.9,270.7c1,3.6,2.4,7,4.1,10.3"/>
		<path class="st0" d="M252.6,121.3c3,1.5,5.8,3.3,8.5,5.3"/>
		<path class="st0" d="M276,144.2c1.6,3,2.8,6,3.8,9.2"/>
		<path class="st0" d="M384.9,91.3c-1.5-3-3.3-5.8-5.3-8.5"/>
		<path class="st1" d="M366.1,70.2C341.3,54,308,61.1,291.8,86c-3.2,4.9-5.6,10.4-7,16"/>
		<path class="st0" d="M283.2,111.1c-0.3,3.3-0.2,6.7,0.1,10"/>
		<path class="st2" d="M222.8,159.2c-0.9-0.5-2-0.7-3.1-0.7l0.1-0.1c1.6-3.2,0.3-7.1-2.9-8.7l0,0c-0.9-0.5-2-0.7-3.1-0.7
			c1.4-3.1,0.2-6.8-2.8-8.4c-1-0.5-2.1-0.8-3.2-0.8l7.1-14.3c1.6-3.2,0.3-7.1-2.9-8.7c-3.2-1.6-7.1-0.3-8.7,2.9l0,0l-14.9,29.7
			l-2.3-6.8c-0.6-2-1.8-3.7-3.3-5.1c-2.9-2.6-7.4-2.2-10,0.7c-0.7,0.8-1.2,1.7-1.5,2.7c-0.4,1.4-0.4,2.9,0.1,4.3l1.1,3.3
			c1.6,4.8,2.6,9.7,3.1,14.8c0.3,3.2,0,6.5-1,9.6c-0.6,1.7-0.5,3.6,0.2,5.3c0.8,1.8,2.2,3.3,3.9,4.2l18.9,9.5
			c4.2,2.1,9.2,1.5,12.8-1.6c4.4-3.9,8.1-8.6,10.7-13.8l4.4-8.7C227.3,164.7,226,160.8,222.8,159.2
			C222.8,159.2,222.8,159.2,222.8,159.2z M218.1,174.9c-2.4,4.8-5.8,9.2-9.8,12.7c-2.4,2.1-5.9,2.6-8.8,1.1l-18.9-9.5
			c-1-0.5-1.8-1.3-2.2-2.3c-0.4-0.9-0.4-1.9-0.1-2.9c1.1-3.6,1.5-7.3,1.1-11.1c-0.5-5.3-1.5-10.5-3.2-15.6l-1.1-3.3
			c-0.2-0.7-0.3-1.4-0.1-2.1c0.3-1.2,1.2-2.1,2.4-2.4c0.8-0.3,1.7-0.2,2.5,0.2c0.3,0.1,0.5,0.3,0.7,0.5c1,1,1.8,2.2,2.2,3.5
			l3.6,10.9c0.2,0.7,0.9,1.2,1.6,1.2c0.7,0,1.4-0.3,1.7-1l16.8-33.6c0.7-1.4,2.5-1.9,3.9-1.2c1.3,0.7,1.9,2.4,1.2,3.7l-14.2,28.2
			c-0.3,0.6-0.2,1.3,0.1,1.8l0.1,0.2c0.6,0.8,1.7,1,2.5,0.5c0.3-0.2,0.5-0.4,0.6-0.7l4.5-9c0.7-1.4,2.4-2,3.8-1.3c0,0,0.1,0,0.1,0
			c1.4,0.8,1.9,2.5,1.2,3.9l-6.7,13.4c-0.3,0.6-0.2,1.3,0.1,1.8l0.1,0.2c0.6,0.8,1.7,1,2.5,0.5c0.2-0.2,0.5-0.4,0.6-0.7l4.4-8.7
			c0.7-1.4,2.4-2.1,3.8-1.4s2.1,2.4,1.4,3.8c0,0,0,0.1-0.1,0.1l-6.7,13.2c-0.3,0.6-0.2,1.3,0.1,1.8l0.1,0.2c0.6,0.8,1.7,1,2.5,0.4
			c0.2-0.2,0.4-0.4,0.6-0.7l4.1-8.1c0.7-1.4,2.5-1.9,3.9-1.2c1.3,0.7,1.9,2.4,1.2,3.7L218.1,174.9z"/>
		<path class="st2" d="M214.4,112.1c1.1,0.5,2.4,0.1,2.9-1c0,0,0,0,0,0l4.1-8.2c0.5-1.1,0.1-2.4-1-2.9c-1.1-0.5-2.4-0.1-2.9,1l0,0
			l-4.1,8.2C212.9,110.2,213.3,111.6,214.4,112.1C214.4,112.1,214.4,112.1,214.4,112.1z"/>
		<path class="st2" d="M221.1,120c0.5,0.3,1.1,0.3,1.6,0.1l8.7-2.9c1.2-0.3,1.8-1.5,1.5-2.6s-1.5-1.8-2.6-1.5
			c-0.1,0-0.2,0.1-0.3,0.1l-8.7,2.9c-1.1,0.4-1.7,1.6-1.4,2.7c0,0,0,0,0,0C220.1,119.3,220.5,119.7,221.1,120z"/>
		<path class="st2" d="M219.2,127.3c-0.5,1.1-0.1,2.4,1,2.9l8.2,4.1c1.1,0.5,2.4,0,2.9-1.1c0.5-1,0.1-2.2-0.9-2.8l-8.2-4.1
			C221.1,125.8,219.8,126.2,219.2,127.3C219.2,127.3,219.2,127.3,219.2,127.3z"/>
		<path class="st2" d="M203.3,110c0.2,0.5,0.6,1,1.1,1.3c1.1,0.5,2.4,0.1,2.9-1c0.2-0.5,0.3-1.1,0.1-1.6l-2.9-8.7
			c-0.3-1.2-1.5-1.8-2.6-1.5s-1.8,1.5-1.5,2.6c0,0.1,0.1,0.2,0.1,0.3L203.3,110z"/>
		<path class="st2" d="M188.4,113.7l8.2,4.1c1.1,0.5,2.4,0.1,2.9-1c0.5-1.1,0.1-2.4-1-2.9l-8.2-4.1c-1.1-0.5-2.4,0-2.9,1.1
			C187,111.9,187.4,113.1,188.4,113.7L188.4,113.7z"/>
	</g>
</g>
</svg>
