<?xml version="1.0" encoding="utf-8"?>
<!-- Generator: Adobe Illustrator 24.1.1, SVG Export Plug-In . SVG Version: 6.00 Build 0)  -->
<svg version="1.1" id="Layer_1" xmlns="http://www.w3.org/2000/svg" xmlns:xlink="http://www.w3.org/1999/xlink" x="0px" y="0px"
	 viewBox="0 0 76 102" style="enable-background:new 0 0 76 102;" xml:space="preserve">
<style type="text/css">
	.st0{opacity:0.2;fill:#757575;enable-background:new    ;}
	.st1{fill:#E52321;}
	.st2{fill:#B03228;}
	.st3{fill:none;}
	.st4{fill:#FFFFFF;}
	.st5{fill:#993333;}
</style>
<g>
	<g id="Layer_1_1_">
		<ellipse class="st0" cx="38.2" cy="92.5" rx="6.6" ry="1.5"/>
		<image style="overflow:visible;opacity:0.2;enable-background:new    ;" width="76" height="102" xlink:href="F9E66C93.png" >
		</image>
		<path class="st1" d="M58.2,17.6c-5.2-5.4-12.5-8.4-20-8.3c-7.6-0.1-14.8,2.9-20.1,8.3C12.7,22.8,9.6,30,9.7,37.5
			c0,7,3.1,14,9.4,21l2.1,2.3c4.2,4.6,7.8,9.6,10.7,15.1c2.5,5.3,4.5,10.9,5.8,16.7c0.1,0.3,0.3,0.5,0.6,0.4c0.2,0,0.4-0.2,0.4-0.4
			c1.3-5.8,3.2-11.3,5.7-16.7c2.9-5.5,6.5-10.5,10.7-15.1l2.1-2.3c6.3-7,9.4-14,9.4-21C66.7,30,63.7,22.8,58.2,17.6z"/>
		<path class="st2" d="M41.9,28.2h-7.5c-1.1,0-2,0.8-2,1.9c0,0,0,0,0,0v14.6c0,1.1,0.9,1.9,2,1.9c0,0,0,0,0,0h7.5c1.1,0,2-0.8,2-1.8
			c0,0,0,0,0,0V30.1C43.9,29,43,28.2,41.9,28.2C41.9,28.2,41.9,28.2,41.9,28.2"/>
		<rect x="35.1" y="43.9" class="st3" width="6.1" height="1.9"/>
		<path class="st4" d="M41.9,28.2h-7.5c-1.1,0-2,0.8-2,1.9c0,0,0,0,0,0v14.6c0,1.1,0.9,1.9,2,1.9c0,0,0,0,0,0h7.5c1.1,0,2-0.8,2-1.8
			c0,0,0,0,0,0V30.1C43.9,29,43,28.2,41.9,28.2C41.9,28.2,41.9,28.2,41.9,28.2z M42.3,43H34V30.6h8.3V43z"/>
		<circle class="st2" cx="38.1" cy="44.8" r="0.8"/>
		<path class="st5" d="M57.2,58.6c2.6-2.8,4.8-6,6.5-9.4l-20.1-20c0.2,0.3,0.2,0.6,0.3,0.9v14.7c0,1.1-0.9,1.9-2,1.9c0,0,0,0,0,0
			h-7.5c-0.3,0-0.5,0-0.7-0.1l18.2,18.3c1-1.3,2.1-2.6,3.3-3.9L57.2,58.6z"/>
	</g>
</g>
</svg>
