<?xml version="1.0" encoding="utf-8"?>
<!-- Generator: Adobe Illustrator 24.1.2, SVG Export Plug-In . SVG Version: 6.00 Build 0)  -->
<svg version="1.1" id="Layer_1" xmlns="http://www.w3.org/2000/svg" xmlns:xlink="http://www.w3.org/1999/xlink" x="0px" y="0px"
	 viewBox="0 0 500 500" style="enable-background:new 0 0 500 500;" xml:space="preserve">
<style type="text/css">
	.st0{fill:#0099CC;}
	.st1{fill:#FFFFFF;}
	.st2{fill:#6154C7;}
	.st3{fill:#006699;}
</style>
<circle class="st0" cx="250" cy="250" r="250"/>
<path class="st1" d="M250,335c-46.9,0-85-38.1-85-85s38.1-85,85-85s85,38.1,85,85C334.9,296.9,296.9,334.9,250,335z"/>
<path class="st2" d="M250,180.8c-38.2,0-69.2,31-69.2,69.2s31,69.2,69.2,69.2s69.2-31,69.2-69.2l0,0
	C319.2,211.8,288.2,180.8,250,180.8z"/>
<ellipse class="st1" cx="250" cy="225.1" rx="20.1" ry="20.1"/>
<path class="st1" d="M250,300.1c-16.7,0-40.2-10.9-40.2-21.6C210,265.2,236.6,258,250,258s40,7.3,40.2,20.6
	C290.2,288.9,266.7,300.1,250,300.1z"/>
<path class="st3" d="M476.1,356.3L313.7,193.9c31,35.2,27.7,88.9-7.5,119.9c-31.6,27.9-78.9,28.4-111.1,1.1l161.2,161.2
	C408.9,451.2,451.3,408.9,476.1,356.3z"/>
</svg>
