<?xml version="1.0" encoding="utf-8"?>
<!-- Generator: Adobe Illustrator 24.1.1, SVG Export Plug-In . SVG Version: 6.00 Build 0)  -->
<svg version="1.1" id="Layer_1" xmlns="http://www.w3.org/2000/svg" xmlns:xlink="http://www.w3.org/1999/xlink" x="0px" y="0px"
	 viewBox="0 0 500 500" style="enable-background:new 0 0 500 500;" xml:space="preserve">
<style type="text/css">
	.st0{fill:#E52321;}
	.st1{fill:#FFFFFF;}
	.st2{fill:#B03228;}
	.st3{fill:#993333;}
</style>
<circle class="st0" cx="250" cy="250" r="250"/>
<path class="st1" d="M284.6,165h-69.2c-10,0-18.2,7.8-18.2,17.4v135.3c0,9.5,8.2,17.4,18.2,17.4h69.2c10,0,18.2-7.8,18.2-17.4V182.4
	C302.8,172.8,294.6,165,284.6,165z"/>
<path class="st2" d="M250,313.5L250,313.5c4.1,0,7.5,3.4,7.5,7.5l0,0c0,4.1-3.4,7.5-7.5,7.5l0,0c-4.1,0-7.5-3.4-7.5-7.5l0,0
	C242.5,316.9,245.9,313.5,250,313.5z"/>
<rect x="213" y="183.8" class="st0" width="74" height="123.3"/>
<path class="st3" d="M478.5,351.8L299.8,173.1c1.9,2.8,3,6.1,3,9.5v135.3c0,9.5-8.2,17.4-18.2,17.4h-69.2c-4.4,0-8.7-1.6-12.1-4.4
	l148,148C407.9,453.6,453.2,408.4,478.5,351.8z"/>
</svg>
