<?xml version="1.0" encoding="utf-8"?>
<!-- Generator: Adobe Illustrator 24.1.1, SVG Export Plug-In . SVG Version: 6.00 Build 0)  -->
<svg version="1.1" id="Layer_1" xmlns="http://www.w3.org/2000/svg" xmlns:xlink="http://www.w3.org/1999/xlink" x="0px" y="0px"
	 viewBox="0 0 76 102" style="enable-background:new 0 0 76 102;" xml:space="preserve">
<style type="text/css">
	.st0{opacity:0.2;fill:#757575;enable-background:new    ;}
	.st1{fill:#1FAB7A;}
	.st2{fill:#277E3E;}
	.st3{fill:#FFFFFF;}
	.st4{fill:#336633;}
</style>
<g>
	<g id="Layer_1_1_">
		<ellipse class="st0" cx="38" cy="92.5" rx="6.6" ry="1.5"/>
		<image style="overflow:visible;opacity:0.2;enable-background:new    ;" width="76" height="102" xlink:href="F2285BC1.png" >
		</image>
		<path class="st1" d="M58,17.6c-5.2-5.4-12.5-8.4-20-8.3c-7.6-0.1-14.8,2.9-20.1,8.3C12.5,22.8,9.4,30,9.5,37.5c0,7,3.1,14,9.4,21
			l2.1,2.3c4.2,4.6,7.8,9.6,10.7,15.1c2.5,5.3,4.5,10.9,5.8,16.7c0.1,0.3,0.3,0.5,0.6,0.4c0.2,0,0.4-0.2,0.4-0.4
			c1.3-5.8,3.2-11.3,5.7-16.7c2.9-5.5,6.5-10.6,10.8-15.1l2-2.3c6.3-7,9.4-14,9.4-21C66.5,30,63.4,22.8,58,17.6z"/>
		<circle class="st2" cx="43" cy="32.1" r="2.3"/>
		<path class="st3" d="M40.6,40.3c0,0,8.4-6,7.4-13c0-0.1-0.1-0.2-0.1-0.3c-0.1-0.1-0.2-0.1-0.3-0.1c-6.8-1-12.7,7.6-12.7,7.6
			c-5.1-0.6-4.7,0.4-7.1,6c-0.5,1.1,0.3,1.4,1.1,1.1l2.5-1l3.1,3.1c0,0-0.7,1.8-0.9,2.6s0.1,1.5,1.1,1.1
			C40.2,45.2,41.2,45.6,40.6,40.3z M41.8,33.3c-0.7-0.7-0.7-1.9,0-2.6s1.8-0.7,2.5,0l0,0c0.7,0.7,0.7,1.9,0,2.6S42.5,34,41.8,33.3
			L41.8,33.3L41.8,33.3z"/>
		<path class="st4" d="M57,58.5c2.9-3.2,5.4-6.8,7.2-10.8c0.4-1.1,0.8-2.2,1.1-3.3L47.9,27.1c0.1,0.1,0.1,0.2,0.1,0.3
			c0.9,6.9-7.4,13-7.4,13c0.6,5.2-0.4,4.8-5.9,7.2c-0.5,0.2-0.8,0.2-1,0l0,0l17.6,17.6c1.2-1.4,2.4-2.9,3.8-4.4L57,58.5z"/>
	</g>
</g>
</svg>
