<?xml version="1.0" encoding="utf-8"?>
<!-- Generator: Adobe Illustrator 24.1.1, SVG Export Plug-In . SVG Version: 6.00 Build 0)  -->
<svg version="1.1" id="Layer_1" xmlns="http://www.w3.org/2000/svg" xmlns:xlink="http://www.w3.org/1999/xlink" x="0px" y="0px"
	 viewBox="0 0 500 500" style="enable-background:new 0 0 500 500;" xml:space="preserve">
<style type="text/css">
	.st0{fill:#FF8F00;}
	.st1{fill:#FFFFFF;}
	.st2{fill:#CC6600;}
</style>
<circle class="st0" cx="250" cy="250" r="250"/>
<path class="st1" d="M151.5,239.2H232c2.5,0,4.5-2,4.5-4.5v-80.5C189.5,154.2,151.5,192.2,151.5,239.2z"/>
<path class="st2" d="M475,358.9L320.2,204.1c12,14.6,15.4,31.2,15.4,51.6c0,44.2-36.4,82.7-83.3,82.7c-20,0-41.5-8-56.1-19.6
	l158.3,158.7C407.2,453,449.8,411.1,475,358.9z"/>
<path class="st1" d="M251.5,169.2v80.5c0,2.5-2,4.5-4.5,4.5h-80.5c0,46.9,38.1,85,85,85s85-38.1,85-85S298.4,169.2,251.5,169.2z"/>
</svg>
