<?xml version="1.0" encoding="utf-8"?>
<!-- Generator: Adobe Illustrator 24.1.1, SVG Export Plug-In . SVG Version: 6.00 Build 0)  -->
<svg version="1.1" id="Layer_1" xmlns="http://www.w3.org/2000/svg" xmlns:xlink="http://www.w3.org/1999/xlink" x="0px" y="0px"
	 viewBox="0 0 500 500" style="enable-background:new 0 0 500 500;" xml:space="preserve">
<style type="text/css">
	.st0{fill:#1FAB7A;}
	.st1{fill:#FFFFFF;}
	.st2{fill:#336633;}
</style>
<circle class="st0" cx="250" cy="250" r="250"/>
<path class="st1" d="M271.9,274.8c0,0,68.1-49.2,60.6-105.5c-0.1-1-0.5-1.9-1.1-2.6c-0.7-0.6-1.6-1-2.5-1.1
	c-55-7.7-103.1,62-103.1,62c-41.7-5-38.7,3.3-57.7,49c-3.6,8.7,2.3,11.7,8.7,9.3l20.8-7.8l25,25.6c0,0-5.3,14.6-7.7,21.2
	s0.5,12.7,9.1,8.9C268.6,314.4,276.7,317.5,271.9,274.8z"/>
<circle class="st0" cx="292.1" cy="207" r="12.5"/>
<path class="st2" d="M488.7,324.6l-157-157c0.4,0.6,0.6,1.3,0.6,2c7.6,56.3-60.6,105.5-60.6,105.5c4.9,42.7-3.3,39.6-47.9,59.1
	c-3.1,1.4-5.5,1.4-7.2,0.6L357.7,476C420.5,445.8,468,391,488.7,324.6z"/>
</svg>
