<?xml version="1.0" encoding="utf-8"?>
<!-- Generator: Adobe Illustrator 24.1.2, SVG Export Plug-In . SVG Version: 6.00 Build 0)  -->
<svg version="1.1" id="Layer_1" xmlns="http://www.w3.org/2000/svg" xmlns:xlink="http://www.w3.org/1999/xlink" x="0px" y="0px"
	 viewBox="0 0 76 102" style="enable-background:new 0 0 76 102;" xml:space="preserve">
<style type="text/css">
	.st0{opacity:0.2;fill:#757575;enable-background:new    ;}
	.st1{fill:#6666CC;}
	.st2{fill:#666699;}
	.st3{fill:#FFFFFF;}
</style>
<g>
	<g id="Layer_1_1_">
		<ellipse class="st0" cx="38.4" cy="92.5" rx="6.6" ry="1.5"/>
		<image style="overflow:visible;opacity:0.2;enable-background:new    ;" width="76" height="102" xlink:href="13F24B5F.png" >
		</image>
		<path class="st1" d="M58.4,17.6c-5.2-5.4-12.5-8.4-20-8.3c-7.6-0.1-14.8,2.9-20.1,8.3C12.9,22.8,9.8,30,9.9,37.5
			c0,7,3.1,14,9.4,21l2.1,2.3c4.2,4.6,7.8,9.6,10.7,15.1c2.5,5.3,4.5,10.9,5.8,16.7c0.1,0.3,0.3,0.5,0.6,0.4c0.2,0,0.4-0.2,0.4-0.4
			c1.3-5.8,3.2-11.3,5.7-16.7c2.9-5.5,6.5-10.5,10.7-15.1l2.1-2.3c6.3-7,9.4-14,9.4-21C66.9,30,63.9,22.8,58.4,17.6z"/>
		<path class="st2" d="M57.4,58.5c2.6-2.8,4.8-6,6.5-9.4L44.2,29.5L35.9,44l-0.1,1.3v2.2l16.8,16.6c0.9-1.1,1.8-2.1,2.8-3.2
			L57.4,58.5z"/>
		<path class="st3" d="M35.8,47.5c1.8,1.2,4.1,1.2,5.9,0v-2.2h-5.9V47.5z M41.6,44.1c0-4.6,4.9-6,4.5-10.6c-0.2-2.9-2.2-6.1-7.3-6.1
			s-7.1,3.2-7.3,6.1c-0.4,4.6,4.5,6,4.5,10.6H41.6z"/>
	</g>
</g>
</svg>
