<?xml version="1.0" encoding="utf-8"?>
<!-- Generator: Adobe Illustrator 24.1.1, SVG Export Plug-In . SVG Version: 6.00 Build 0)  -->
<svg version="1.1" id="Layer_1" xmlns="http://www.w3.org/2000/svg" xmlns:xlink="http://www.w3.org/1999/xlink" x="0px" y="0px"
	 viewBox="0 0 76 102" style="enable-background:new 0 0 76 102;" xml:space="preserve">
<style type="text/css">
	.st0{opacity:0.2;fill:#757575;enable-background:new    ;}
	.st1{fill:#FF8F00;}
	.st2{fill:#FFFFFF;}
	.st3{fill:#CC6600;}
</style>
<g>
	<g id="Layer_1_1_">
		<ellipse class="st0" cx="37.6" cy="92.5" rx="6.6" ry="1.5"/>
		<image style="overflow:visible;opacity:0.2;enable-background:new    ;" width="76" height="102" xlink:href="F6076428.png" >
		</image>
		<path class="st1" d="M57.6,17.6c-5.2-5.4-12.5-8.4-20-8.3c-7.6-0.1-14.8,2.9-20.1,8.3C12.1,22.8,9,30,9.1,37.5c0,7,3.1,14,9.4,21
			l2.1,2.3c4.2,4.6,7.8,9.6,10.7,15.1c2.5,5.3,4.5,10.9,5.8,16.7c0.1,0.3,0.3,0.5,0.6,0.4c0.2,0,0.4-0.2,0.4-0.4
			c1.3-5.8,3.2-11.3,5.7-16.7c2.9-5.5,6.5-10.5,10.7-15.1l2.1-2.3c6.2-7,9.4-14,9.4-21C66.1,30,63.1,22.8,57.6,17.6z"/>
		<path class="st2" d="M36.8,26.7c-5.4,0.6-9.7,4.9-10.3,10.3h9c0.7,0,1.3-0.6,1.3-1.3c0,0,0,0,0,0V26.7z"/>
		<path class="st3" d="M56.6,58.5c2.4-2.7,4.5-5.6,6.2-8.8L45.4,32.3l-5.2,8.6l-6.9,5.2l18.2,18.2c0.9-1.2,1.9-2.3,3-3.5L56.6,58.5z
			"/>
		<path class="st2" d="M38.8,28.2v9.6c0,0.6-0.5,1.2-1.1,1.2c0,0,0,0,0,0h-9.6c0.7,5.2,5.5,8.9,10.8,8.2c5.2-0.7,8.9-5.5,8.2-10.8
			C46.5,32.1,43.1,28.8,38.8,28.2"/>
	</g>
</g>
</svg>
