<?xml version="1.0" encoding="utf-8"?>
<!-- Generator: Adobe Illustrator 24.1.2, SVG Export Plug-In . SVG Version: 6.00 Build 0)  -->
<svg version="1.1" id="Layer_1" xmlns="http://www.w3.org/2000/svg" xmlns:xlink="http://www.w3.org/1999/xlink" x="0px" y="0px"
	 viewBox="0 0 500 500" style="enable-background:new 0 0 500 500;" xml:space="preserve">
<style type="text/css">
	.st0{fill:#6666CC;}
	.st1{fill:#333399;}
	.st2{fill:#FFFFFF;}
	.st3{fill:#585858;}
</style>
<circle class="st0" cx="250" cy="250" r="250"/>
<path class="st1" d="M474.2,361.1l-179-179c9,9.4,13.2,21.4,14.1,32.8c3,36.9-36.4,48.7-36.4,85.8l0,0v31.9c-14,9-31.9,9-45.9,0l0,0
	l139.3,139.3C413,447.2,450.8,408.4,474.2,361.1z"/>
<path class="st2" d="M227.1,332c14,9,31.9,9,45.9,0v-16.9h-45.9V332z"/>
<path class="st2" d="M272.9,300.1c0-37,39.4-48.9,36.4-85.8c-1.9-23.3-17.6-49.4-59.3-49.4s-57.5,26.1-59.3,49.4
	c-3,36.9,36.4,48.7,36.4,85.8H272.9z"/>
<rect x="227.1" y="300.1" class="st3" width="45.9" height="15"/>
</svg>
