<?xml version="1.0" encoding="utf-8"?>
<!-- Generator: Adobe Illustrator 24.1.2, SVG Export Plug-In . SVG Version: 6.00 Build 0)  -->
<svg version="1.1" id="Layer_1" xmlns="http://www.w3.org/2000/svg" xmlns:xlink="http://www.w3.org/1999/xlink" x="0px" y="0px"
	 viewBox="0 0 76 102" style="enable-background:new 0 0 76 102;" xml:space="preserve">
<style type="text/css">
	.st0{opacity:0.2;fill:#757575;enable-background:new    ;}
	.st1{fill:#0099CC;}
	.st2{fill:#006699;}
	.st3{fill:#6154C7;}
	.st4{fill:#FFFFFF;}
</style>
<g>
	<g id="Layer_1_1_">
		<ellipse class="st0" cx="37.8" cy="92.5" rx="6.6" ry="1.5"/>
		<image style="overflow:visible;opacity:0.2;enable-background:new    ;" width="76" height="102" xlink:href="FDC574F9.png" >
		</image>
		<path class="st1" d="M57.8,17.6c-5.2-5.4-12.5-8.4-20-8.3c-7.6-0.1-14.8,2.9-20.1,8.3C12.3,22.8,9.2,30,9.3,37.5
			c0,7,3.1,14,9.4,21l2.1,2.3c4.2,4.6,7.8,9.6,10.7,15.1c2.5,5.3,4.5,10.9,5.8,16.7c0.1,0.3,0.3,0.5,0.6,0.4c0.2,0,0.4-0.2,0.4-0.4
			c1.3-5.8,3.2-11.4,5.7-16.7c2.9-5.5,6.5-10.5,10.7-15.1l2.1-2.3c6.3-7,9.4-14,9.4-21C66.3,30,63.3,22.8,57.8,17.6z"/>
		<path class="st2" d="M56.8,58.5c2.8-3,5.1-6.4,6.8-10L46.1,30.9c3.4,4.6,2.5,11-2,14.5c-3.8,2.9-9.1,2.8-12.8-0.3L51.2,65
			c1.1-1.4,2.3-2.8,3.5-4.2L56.8,58.5z"/>
		<circle class="st3" cx="37.9" cy="37" r="8.8"/>
		<circle class="st4" cx="37.9" cy="34" r="2.5"/>
		<path class="st4" d="M37.9,43.2c-2.1,0-5-1.3-5-2.7c0-1.6,3.3-2.5,5-2.5s4.9,0.9,5,2.5C42.9,41.8,40,43.2,37.9,43.2z"/>
		<path class="st4" d="M37.9,47.5c-5.8,0-10.5-4.7-10.5-10.5s4.7-10.5,10.5-10.5S48.4,31.2,48.4,37S43.7,47.5,37.9,47.5z M37.9,28.5
			c-4.7,0-8.6,3.8-8.6,8.5s3.8,8.6,8.5,8.6s8.6-3.8,8.6-8.5V37C46.4,32.3,42.6,28.5,37.9,28.5L37.9,28.5z"/>
	</g>
</g>
</svg>
