<svg xmlns="http://www.w3.org/2000/svg" xmlns:xlink="http://www.w3.org/1999/xlink" viewBox="0 0 119.37 74"><defs><linearGradient id="linear-gradient" x1="53.77" y1="79.02" x2="67.7" y2="39.2" gradientUnits="userSpaceOnUse"><stop offset="0" stop-color="#89d9d9"/><stop offset="0.1" stop-color="#a1dfdf"/><stop offset="0.24" stop-color="#bee6e6"/><stop offset="0.4" stop-color="#d5ebeb"/><stop offset="0.56" stop-color="#e5efef"/><stop offset="0.75" stop-color="#eff1f1"/><stop offset="1" stop-color="#f2f2f2"/></linearGradient></defs><title>Boat</title><g style="isolation:isolate"><g id="Layer_2" data-name="Layer 2"><g id="Layer_3" data-name="Layer 3"><path d="M116.92,38.42a1.38,1.38,0,0,1-.11.51c-1.89,4.37-27.11,10.6-56.91,10.6-31,0-55.1-8-55.55-12.39-.13-1.19,1.05-2,3.29-2.58,7.74-2,29,1.67,53,1.67C91.62,36.23,116.92,34,116.92,38.42Z" style="fill:#875202"/><path d="M71.74,37.87c-6.37-.36-8.56,1.82-9.47,7.29L79,44.43C78.48,39,75.57,38.09,71.74,37.87Z" style="fill:#fdc303"/><path d="M116.92,38.42c0,.08-3.83-2-56.29-.37-26.25.82-38.79-3.09-53-3.49,7.74-2,22.21,2.58,54.27,2C92.89,36.07,116.92,34,116.92,38.42Z" style="fill:#ffc400"/><path d="M119.28,45.38s0,0,0,.07a6.17,6.17,0,0,1-1.2,1.8,33.42,33.42,0,0,1-3.16,3.17,25,25,0,0,1-7.64,4.94c-18.21,6-59.92,5.83-78.14,2.73C16.89,56,1.26,46.24.75,45.12a8,8,0,0,1-.33-.83A6.61,6.61,0,0,1,0,41.87c.07-3.12,2.69-5.73,8-7.64,5-1.82,10.63,5.16,30.42,8,9.46,1.37,22,.64,39.89.18,21.31-.54,29.15-8.56,37.71-6C116,36.41,120,40.57,119.28,45.38Z" style="fill:#ffc400"/><path d="M118.06,47.25a33.42,33.42,0,0,1-3.16,3.17,25,25,0,0,1-7.64,4.94c-18.21,6-59.92,5.83-78.14,2.73C16.89,56,1.26,46.24.75,45.12a8,8,0,0,1-.33-.83C10.49,47.77,42.69,57.81,70.1,54.63,92.32,52.05,109.33,49,118.06,47.25Z" style="fill:#e0ac00"/><path d="M119.28,45.38s0,0,0,.07c-.21.8-2,2.88-4.36,5C107,52.53,94.13,55,75.33,55.84A208.24,208.24,0,0,1,.75,45.12,7.47,7.47,0,0,1,0,41.87C9.32,45,36.64,52.61,64.64,52.44,93.1,52.28,110.86,48.05,119.28,45.38Z" style="fill:#e72265"/><path d="M50.16,43.61c6.62.88,25,.27,33.33-.73,2.64-.46,4.35,0,3.1.55-7.32,3.24-28,2.55-33.15,2.18S50.16,43.61,50.16,43.61Z" style="fill:#fff"/><path d="M10.54,34.87c-1.19-.69-2.28.56-2.56.82,6.66,4.18,16.86,6.83,22.66,7.29C25.66,40.33,18,39.15,10.54,34.87Z" style="fill:#fff"/><path d="M109.36,37.69c-.35,1.16-5.91,2-7.94,2.64-.07,0-.07,0,0,0,4,.18,11.69-2.35,11.68-3.18s-3.78-.85-5.92-.82C107.17,36.32,109.71,36.53,109.36,37.69Z" style="fill:#fff"/><path d="M95.39,55.51s-1.15-6-10.44-.85c0,0-5.17-4.95-10.23-2-2-.39-5,.06-9.42,2.53,0,0-8.71-8.34-15.89-.15-.87-1.5-3.24-3.17-9.62-1,0,0-6.16-8.38-13.23-1.44,0,0-8,2-5.45,7.59,0,0-1.49,2.42,3,4.55a10.69,10.69,0,0,0,6.89.59s0,1.6,5.22,2.75c4.72,1,6.35-.66,6.34-.72a1.77,1.77,0,0,0,.68.95C43.43,69.44,44.44,71,48,72a13.57,13.57,0,0,0,8.76-.75s.39,2,7.13,2.29c6.14.28,7.81-2.2,7.78-2.27,1.34,2.92,9.13,1.22,11.58-2.17l.6,0c4.83.22,6.15-1.73,6.12-1.79,1.48,3.22,12.93-.7,8.8-5.4C103.45,56,95.39,55.51,95.39,55.51Z" style="fill:url(#linear-gradient)"/><path d="M66.63,17.06c-2.89-2-9.79,6.24-11.82,6.75-1.2-2.63-2.92-7.58-4.52-10-.21.18-1.13,1.46-1.14,1.47,1.11,2.77,2.62,12.39,4.59,13,.56.16,12.67-5.75,13.41-8.12A4.21,4.21,0,0,0,66.63,17.06Z" style="fill:#1a1e36"/><path d="M70.21,42.57a54,54,0,0,1-15.92-1.83c-.21,1-2.2,1.73-2.48,2.06-.43.52-4.94.12-7.27-.32-1.8-.35,6.24-5.32,7.69-6.44C54,34.68,70,35.15,70.77,35.91,71.8,36.86,74.74,42.21,70.21,42.57Z" style="fill:#00011c"/><path d="M72.12,42.51c-3.05.85-12.09.55-17.65-1.18-.07.1-3.65,1.58-3.77,1.61a31.48,31.48,0,0,1-7-.28c-1.81-.34,7.16-5,8.6-6.15,1.75-1.36,19.93-1.92,20.74-1.17C74.08,36.3,76.5,41.28,72.12,42.51Z" style="fill:#212745"/><path d="M54.08,13.24s.14.71.37.67,2.68-1.44,2.68-1.44Z" style="fill:#fff"/><path d="M65.12,16.61l-4.54,1.12-1.31.32c.4-1.84-.52-2.7-1.31-2.85l-.87.39a8.36,8.36,0,0,1-1.42.56c-.62,0-.39-.72-.7-1.21,0-.13-.36-.33-.47-.42s.24-.35.67-.64.89-.77.8-1c-.44.37-2.5,1-2.29.48h0a.5.5,0,0,0-.07-.52c-.09-.1-.35-.06-.54-.14s-.42-.28-.32-.56a2.16,2.16,0,0,0,.4-1c.19-1.13-.48-1.4-.68-2a7.34,7.34,0,0,1-.28-2.39c.07-1.71,4.56-6.1,9.23-3C62.36,4.26,64,7.32,63.37,9c-1.54,4.31-1.14,4.45.33,6.17A8.65,8.65,0,0,0,65.12,16.61Z" style="fill:#ffc285"/><path d="M53,9.26s0,.28.15.3.5-.38.76-.48a11.33,11.33,0,0,1,1.67-.41C53.83,8.55,53.57,8.76,53,9.26Z" style="fill:#704623"/><path d="M59.27,18.05c.4-1.84-.52-2.7-1.31-2.85l-.87.39a11.58,11.58,0,0,0,2.33-2.44c.15-.39-.07-2.08,0-2.29a19.51,19.51,0,0,1,.58,3,33.67,33.67,0,0,0,.53,3.87Z" style="fill:#461d00;opacity:0.1;mix-blend-mode:multiply"/><path d="M60.66,8.33c.56,1.22-.28,2.41-1,2.2-.12,0-.14-.1,0-.11a1.19,1.19,0,0,0,1-1.2c0-.63-.78-2.17-1.7-.83-.06.09-.13.1-.07-.08A1,1,0,0,1,60.66,8.33Z" style="fill:#461d00;opacity:0.1;mix-blend-mode:multiply"/><path d="M59.37,9s-.08.05-.09.1.16.19.22.22c.39.18,0,.54.26.44a.85.85,0,0,0,.35-.65c0-.39-.49-.77-.65-.66S59.55,8.85,59.37,9Z" style="fill:#461d00;opacity:0.1;mix-blend-mode:multiply"/><path d="M53.92,12v0c.3.18,0,.54-.19.65C54.17,12.77,54.41,12.17,53.92,12Z" style="fill:#461d00;opacity:0.1;mix-blend-mode:multiply"/><path d="M53.54,12.64c.22,0,.28-.17.09-.19C53.28,12.42,53.36,12.62,53.54,12.64Z" style="fill:#461d00;opacity:0.1;mix-blend-mode:multiply"/><path d="M67,11.91A9,9,0,0,0,63.56,9.1a5.82,5.82,0,0,0-.83-4.92C59.14-.73,52.26,3.27,52.18,6.49a3.56,3.56,0,0,1,3.12.85l.07,0a4.48,4.48,0,0,0,2,.88c.44.07,1,.17,1.09,0,1.38-2.07,3.62.23,2.19,2.45.7,1.17,1,1.74,1.75,1.86v-.06a9,9,0,0,0,2.07,2.85c1.35,1.24,3.49,1.81,4.14,3.69C67.87,16.7,68.35,14.07,67,11.91Z" style="fill:#704623"/><path d="M59.33,7.4c1.67-.34,1.84,1.47,1.85,1.48l-.25.1c0-.05-.79-1.51-1.67-1.11-.63.28-2.21,1-3.62,1.79-.14.08-.17,1-.3,1.07a6.79,6.79,0,0,1-1.49.6c-.3.08-.64.1-.8-.55-.06-.26-.32-.83,0-1.09C54.16,8.54,58.39,7.6,59.33,7.4Z" style="fill:#0f0a00"/><path d="M62.61,9.89c-1.25-.51-1.21-2.32-2.44-3-1.63-.88-3.09.45-4.57.86-1.29.36-2.3-.11-3.6-.28l-.87-.13c.26,1.65,1.39,2,3.32,2.31a3.53,3.53,0,0,0,2.77-.3c.68-.5.52-1.63,1.75-1.46,1.77.25.78,2.42,2.3,3a4.19,4.19,0,0,0,4-1.34C64.42,9.63,63.45,10.24,62.61,9.89Z" style="fill:#324f70"/><path d="M63.7,5.94,63.05,6a9.59,9.59,0,0,1-.9,4.85,12,12,0,0,1-2,3.11,14.05,14.05,0,0,1-2.34-3.16,23.82,23.82,0,0,1-2-4.53l-.63.16a23.3,23.3,0,0,0,2,4.68,14.36,14.36,0,0,0,2.62,3.47,2.71,2.71,0,0,1-1.23,1.66s.31.56.61.55,1-.87,1.29-2.2a15.26,15.26,0,0,0,2.18-3.46A10.17,10.17,0,0,0,63.7,5.94Z" style="fill:#324f70"/><path d="M52.32,3.23c3.55-5.47,11.24-3.22,12.92,1,1.29,3.23.42,5.26.2,5.54S61.3,12.08,61.08,9C61,7.32,58,6.57,57.36,8.26c-.54,1.38-5.78.09-6.22-.34A8,8,0,0,1,52.32,3.23Z" style="fill:#659ee0"/><path d="M53.8,3c-.53.7-1.77,2.48-1.43,4.1a2.37,2.37,0,0,0,.84,0c-.2-1.3,1.62-5,2.57-5.95A14.85,14.85,0,0,0,53.8,3Z" style="fill:#324f70"/><path d="M56.13,3A12.13,12.13,0,0,0,54.7,6.87,3.79,3.79,0,0,0,55.76,7,12.84,12.84,0,0,1,58.26.86,10.9,10.9,0,0,0,56.13,3Z" style="fill:#324f70"/><path d="M58.42,3.11a10.61,10.61,0,0,0-1.35,3.47c.19.08.76-.38,1-.41,0-1.76,1.11-3.43,2.19-4.75A6.76,6.76,0,0,0,58.42,3.11Z" style="fill:#324f70"/><path d="M51.35,7.32c.68.51,3.93,1.51,5.2,1,.81-.29,1.78-2.14,3.6-1.24,1.59.78.81,2.7,2.93,3,.88.11,2.33-.82,2.39-1.64C61.3,12,62.78,5.79,58.9,6.34c-1.35.19-1.42,1.38-2.78,1.62s-3.64-.55-4.85-1.08Z" style="fill:#1b1c20;opacity:0.2;mix-blend-mode:multiply"/><path d="M61.69,35.84c-.39-.25,2.66,0,2.29-.73-1.67-3.37-3.48-5.12-5-7.58-.18-.29.28-7.1.2-8-.1-1.34,4.13-4.32,4.75-4.38h0c1.79-.16,5.5,3.81,6.37,6.3,1.57,4.52,1.16,10.5,3.13,14C74.87,38,64.41,37.63,61.69,35.84Z" style="fill:#1a1e36"/><path d="M68.46,35.71a18.29,18.29,0,0,1-4.07.54c-.21,0-.71-.11-2.27-2.54C59.68,29.91,57,23.14,58,19.58c.32-1.12,3.4-3.35,5.87-4.85,1.25-.76,5,2.9,5.93,4.65.35.67,4.79,14.26,3.71,14.82a21.68,21.68,0,0,1-5.06,1.51Zm-7.25-17c-.83,1.88,0,4.85,1,6.6a3.94,3.94,0,0,0,3.87,2.13,2.67,2.67,0,0,0,1.94-2.21,8,8,0,0,0-.88-6.11,4.31,4.31,0,0,0-3.22-2A5.13,5.13,0,0,0,61.21,18.7Z" style="fill:#7d2300"/><path d="M68.82,26c-.95,3.8-5.46,3.08-7.21.11-1.6-2.72-2.08-10.31,2.27-9.63S69.64,22.71,68.82,26Zm4.7,3.84A108.8,108.8,0,0,0,70,19.09c-1-1.83-4.84-5.51-6.53-4.53a20.37,20.37,0,0,0-2.91,2.06,5.68,5.68,0,0,0-2,2.86c-1.54,5.43,4.65,16.07,5.86,16.26a30,30,0,0,0,8.85-2C74.18,33.36,74,31.74,73.52,29.82Z" style="fill:#fd4800"/><path d="M61.08,17.89a5.73,5.73,0,0,1-.49-1.27,20.8,20.8,0,0,1,2.64-1.9c.41.62.89,1.21,1.25,1.87A2.6,2.6,0,0,0,61.08,17.89Z" style="fill:#7d2300"/><path d="M69.16,32a23.81,23.81,0,0,0,1.44,2.7c-1.14.32-2.57.63-3.6.81a24.78,24.78,0,0,1-1.23-2.77,8.76,8.76,0,0,1-3.34.53c-.24-.38-.57-.93-.87-1.45a14.89,14.89,0,0,0,3.59-.45,11.57,11.57,0,0,1-1-3.07,3.48,3.48,0,0,0,3.64-.42,21,21,0,0,0,.7,2.39,24.75,24.75,0,0,0,4.34-2.91c.26.84.52,1.7.72,2.5A12.68,12.68,0,0,1,69.16,32Z" style="fill:#7d2300"/><path d="M47.33,11s1.44-.61,1.27.74L40.67,67.48l-1.24-.19Z" style="fill:#659ee0"/><path d="M41.22,55.54a1.62,1.62,0,0,1,1.22.24,4.17,4.17,0,0,0,.31,1.35c.91,2.27,2.42,3.84,2.08,6.51L43.5,71.17c-.4,1.69-1.21,3.2-3.35,2.75s-4.79-2.86-4.56-4.15l1.32-7.53C37.88,58.77,40.8,57.09,41.22,55.54Z" style="fill:#659ee0"/><path d="M39.61,72.47s.45-5.43.58-8,.44-6.33.44-6.33l.57-2.32a.39.39,0,0,1,.42-.29l.41.06a.45.45,0,0,1,.38.48l-.26,2.56Z" style="fill:#324f70"/><path d="M49.82,33.74c-.21.13-1.1.84-1.28,1-.87.58-1.73.27-2.73.15a2.85,2.85,0,0,0-.4,0c-.12,0,0,.5-.09.55-.5.29-1.12,0-1.28.11-.84.39-1.26.55-1,1.18a.47.47,0,0,0,0,.72c-.32.36.08.86.24.78,0,0,.1.43,1.77.46.57,0,.86-.1,2.39-.8a10.21,10.21,0,0,1,3.83-2.12Z" style="fill:#ffc285"/><path d="M65,16.89c-4.11-.73-4.45,3.53-9,12.22-1.94,1.25-6.22,4.19-8.28,5.82l1,2.29c2.51-1.09,7.69-3.47,10.08-5.42,1.49-1.21,7.53-9,8.06-10.59C67.42,19.47,66.18,17.1,65,16.89Z" style="fill:#212745"/><path d="M49,10.33c-.37-.24-1.58.14-1.78.21s-.6.81-.67,1,.29,1.09.6.93.15-.55.25-.69c.23-.36.6-.36.94.1a1.55,1.55,0,0,1,.05,1.34c-.19.19-1.23-.83-1.36-.36s.31.81,1,1.16a4.17,4.17,0,0,1,1,.69c.13.2.27.62.32.7a2.67,2.67,0,0,1,1.32-1.27C49.85,13.5,49.63,10.77,49,10.33Z" style="fill:#ffc285"/></g></g></g></svg>