<?xml version="1.0" encoding="utf-8"?>
<!-- Generator: Adobe Illustrator 25.4.1, SVG Export Plug-In . SVG Version: 6.00 Build 0)  -->
<svg version="1.1" id="Layer_1" xmlns="http://www.w3.org/2000/svg" xmlns:xlink="http://www.w3.org/1999/xlink" x="0px" y="0px"
	 viewBox="0 0 64.3 133.8" style="enable-background:new 0 0 64.3 133.8;" xml:space="preserve">
<style type="text/css">
	.st0{clip-path:url(#SVGID_00000158021535772476788210000009163503829850091669_);fill:#665B55;}
	.st1{clip-path:url(#SVGID_00000158021535772476788210000009163503829850091669_);}
	.st2{clip-path:url(#SVGID_00000061470950474233960800000003603001374771211654_);fill:#FF8F00;}
	.st3{clip-path:url(#SVGID_00000061470950474233960800000003603001374771211654_);fill:#021A26;}
	.st4{clip-path:url(#SVGID_00000061470950474233960800000003603001374771211654_);fill:#4D4844;}
	.st5{clip-path:url(#SVGID_00000061470950474233960800000003603001374771211654_);fill:#F9D4B8;}
	.st6{clip-path:url(#SVGID_00000061470950474233960800000003603001374771211654_);fill:#592B14;}
	.st7{clip-path:url(#SVGID_00000061470950474233960800000003603001374771211654_);fill:#8E441B;}
	.st8{clip-path:url(#SVGID_00000061470950474233960800000003603001374771211654_);fill:#B56943;}
	.st9{clip-path:url(#SVGID_00000061470950474233960800000003603001374771211654_);fill:#4D4D4D;}
	.st10{clip-path:url(#SVGID_00000061470950474233960800000003603001374771211654_);fill:#333333;}
	.st11{clip-path:url(#SVGID_00000061470950474233960800000003603001374771211654_);fill:#EA997D;}
	.st12{clip-path:url(#SVGID_00000061470950474233960800000003603001374771211654_);fill:#D87E66;}
	.st13{clip-path:url(#SVGID_00000061470950474233960800000003603001374771211654_);fill:#CE6565;}
	.st14{clip-path:url(#SVGID_00000061470950474233960800000003603001374771211654_);fill:#23242B;}
	.st15{clip-path:url(#SVGID_00000061470950474233960800000003603001374771211654_);fill:#EFCBB4;}
	.st16{clip-path:url(#SVGID_00000061470950474233960800000003603001374771211654_);fill:#CEA289;}
	.st17{clip-path:url(#SVGID_00000061470950474233960800000003603001374771211654_);fill:#E6E8EF;}
	.st18{clip-path:url(#SVGID_00000061470950474233960800000003603001374771211654_);fill:#455E5D;}
	.st19{clip-path:url(#SVGID_00000061470950474233960800000003603001374771211654_);fill:#CED2DD;}
	.st20{clip-path:url(#SVGID_00000061470950474233960800000003603001374771211654_);fill:#FF5D54;}
	.st21{clip-path:url(#SVGID_00000061470950474233960800000003603001374771211654_);fill:#324443;}
	.st22{clip-path:url(#SVGID_00000061470950474233960800000003603001374771211654_);fill:#9B9BA7;}
	.st23{clip-path:url(#SVGID_00000061470950474233960800000003603001374771211654_);fill:#C7CAD3;}
	.st24{clip-path:url(#SVGID_00000061470950474233960800000003603001374771211654_);fill:#717891;}
</style>
<g id="Henry_-_Olivia_00000165917334132272861510000009940429071092619155_">
	<g>
		<defs>
			<rect id="SVGID_1_" x="9.8" y="1.3" width="44.8" height="131.2"/>
		</defs>
		<clipPath id="SVGID_00000119813992060929248310000009824086501682571185_">
			<use xlink:href="#SVGID_1_"  style="overflow:visible;"/>
		</clipPath>
		
			<rect x="8.9" y="109.6" transform="matrix(0.1042 -0.9946 0.9946 0.1042 -89.278 120.9048)" style="clip-path:url(#SVGID_00000119813992060929248310000009824086501682571185_);fill:#665B55;" width="27.1" height="0.8"/>
		<g style="clip-path:url(#SVGID_00000119813992060929248310000009824086501682571185_);">
			<defs>
				<rect id="SVGID_00000031925276496526328450000001112496822419933627_" x="9.8" y="1.3" width="44.8" height="131.2"/>
			</defs>
			<clipPath id="SVGID_00000062181244649513929850000000312511505814289053_">
				<use xlink:href="#SVGID_00000031925276496526328450000001112496822419933627_"  style="overflow:visible;"/>
			</clipPath>
			<path style="clip-path:url(#SVGID_00000062181244649513929850000000312511505814289053_);fill:#FF8F00;" d="M24,87.7
				c0.2,0.3,0.3,0.7,0.3,0.9c0.1,0.6,0.4,1.2,1,1.3c0.7,0.1,1.2-0.4,1.5-0.9c0.1-0.2,0.3-0.6,0.6-0.8c0.8-0.6,4.6-0.3-1.6,11.4
				c-0.8,1.5-3.2,1.1-3.5-0.5C20,86.3,23.4,86.9,24,87.7"/>
			<path style="clip-path:url(#SVGID_00000062181244649513929850000000312511505814289053_);fill:#FF8F00;" d="M20.8,119.4l1.3,0.1
				c0.5,0.1,1-0.3,1.1-0.9c0.1-0.5-0.3-1-0.9-1.1l-1.3-0.1c-0.5-0.1-1,0.3-1.1,0.9C19.8,118.9,20.2,119.4,20.8,119.4"/>
			<path style="clip-path:url(#SVGID_00000062181244649513929850000000312511505814289053_);fill:#021A26;" d="M19,127.2
				c-0.5,1-2.1,3.1-1.1,4.4c1,1.3,3.8,1.4,4.5-0.7c0.2-0.7,0.3-1.8,0.1-2.9c0,0-0.6-1.7-0.1-3.3c0,0,0.4-3-2-1.8
				c0,0-1.2,0.3-0.9,2.1C19.5,124.9,19.5,126.1,19,127.2"/>
			<path style="clip-path:url(#SVGID_00000062181244649513929850000000312511505814289053_);fill:#4D4844;" d="M18.9,126.6
				c-0.5,1-2,3-1,4.3c1,1.3,3.7,1.4,4.4-0.7c0.2-0.7,0.2-1.7,0-2.8c0,0-0.3-1.7,0.1-3.3c0.1-0.7,0.4-2.2-2-1.8c0,0-1.2,0.3-0.9,2.1
				C19.5,124.4,19.5,125.6,18.9,126.6"/>
			<polygon style="clip-path:url(#SVGID_00000062181244649513929850000000312511505814289053_);fill:#F9D4B8;" points="43.1,122.8 
				43.1,126.9 39.4,126.9 39.3,122.8 			"/>
			<path style="clip-path:url(#SVGID_00000062181244649513929850000000312511505814289053_);fill:#592B14;" d="M39,128.2l0.1,1
				c0,0,0.9,0.6,2.1,0.5c0,0,1.2-0.4,1.8,0.2c1.2,1.1,5.2,1.9,5.6,0.4L39,128.2z"/>
			<path style="clip-path:url(#SVGID_00000062181244649513929850000000312511505814289053_);fill:#8E441B;" d="M39.1,125.8
				c0,0-0.5,2.3-0.1,2.7c0.4,0.3,3,0.8,4.3,1.4c1.3,0.7,5.2,1.4,5.4,0.3c0.2-1.1-1.4-1.8-2.5-2.2c-1.1-0.4-2.2-1.9-2.7-2.1
				c0,0-0.3-0.3-1.5,0.5C41.3,126.7,39.7,125.4,39.1,125.8"/>
			<path style="clip-path:url(#SVGID_00000062181244649513929850000000312511505814289053_);fill:#B56943;" d="M48,129
				c0,0-0.5,0.9-2.9,0.6c0,0,2.3,0.6,3.4,0.1C48.5,129.7,48.4,129.4,48,129"/>
			<path style="clip-path:url(#SVGID_00000062181244649513929850000000312511505814289053_);fill:#4D4D4D;" d="M29.9,91.5
				c0.4-4,2.8-15,3.2-20.1c0,0,3.9,41.9,5,52.7h6.3c0.7-14.4,1.2-55.8,0.5-67.5H22c0,0-1,16.5-2,35.9L29.9,91.5z"/>
			<path style="clip-path:url(#SVGID_00000062181244649513929850000000312511505814289053_);fill:#333333;" d="M33.6,70.8
				C33.6,70.8,33.6,70.8,33.6,70.8c0.1,0,0.1-0.1,0.1-0.1c-0.4-7.7,0.1-14.7,0.1-14.7c0-0.1,0-0.1-0.1-0.1c-0.1,0-0.1,0-0.1,0.1
				c0,0.1-0.6,7-0.1,14.8C33.4,70.7,33.5,70.8,33.6,70.8"/>
			<path style="clip-path:url(#SVGID_00000062181244649513929850000000312511505814289053_);fill:#333333;" d="M20.7,90.5
				c0,0-0.6-0.4-0.7,0.3c0,0.2-0.8,2.3-0.3,2.7c0.5,0.4,6.1,2.3,10.4,0.5c0,0,0.4-0.2,0.3-0.9c-0.2-0.7,0.2-2-0.5-2.2
				C29.1,90.8,23.7,92.1,20.7,90.5"/>
			<path style="clip-path:url(#SVGID_00000062181244649513929850000000312511505814289053_);fill:#333333;" d="M33.8,58.3
				c0-0.4,0.4-0.8,0.8-0.8c0.4,0,0.8,0.4,0.8,0.8c0,0.4-0.4,0.8-0.8,0.8C34.1,59,33.8,58.7,33.8,58.3"/>
			<path style="clip-path:url(#SVGID_00000062181244649513929850000000312511505814289053_);fill:#333333;" d="M33.2,66.5
				C33.2,66.5,33.2,66.5,33.2,66.5c0.1,0,1.8-0.4,2.3-1c0.5-0.6,0.8-7.3,0.8-8c0-0.1-0.1-0.1-0.1-0.1c-0.1,0-0.1,0.1-0.1,0.1
				c-0.1,2.9-0.5,7.5-0.8,7.9c-0.3,0.4-1.6,0.8-2.1,0.9c-0.1,0-0.1,0.1-0.1,0.2C33.1,66.5,33.1,66.5,33.2,66.5"/>
			<path style="clip-path:url(#SVGID_00000062181244649513929850000000312511505814289053_);fill:#333333;" d="M35.5,59.8
				c5.6,0,8.2-0.6,8.2-0.6c0.1,0,0.1-0.1,0.1-0.1c0-0.1-0.1-0.1-0.1-0.1c-0.1,0-7.9,1.6-20.6-0.4c-0.1,0-0.1,0-0.1,0.1
				c0,0.1,0,0.1,0.1,0.1C28,59.5,31.9,59.8,35.5,59.8"/>
			<path style="clip-path:url(#SVGID_00000062181244649513929850000000312511505814289053_);fill:#333333;" d="M39.8,91.5L39.8,91.5
				C39.8,91.4,39.8,91.5,39.8,91.5l-0.5-26.6c0,0,0-0.1-0.1-0.1c0,0-0.1,0-0.1,0.1L39.8,91.5C39.7,91.5,39.7,91.5,39.8,91.5"/>
			<path style="clip-path:url(#SVGID_00000062181244649513929850000000312511505814289053_);fill:#333333;" d="M23.4,91.5
				C23.5,91.5,23.5,91.5,23.4,91.5l3.8-26.6c0,0,0-0.1-0.1-0.1c0,0-0.1,0-0.1,0.1L23.4,91.5C23.4,91.5,23.4,91.5,23.4,91.5
				C23.4,91.5,23.4,91.5,23.4,91.5"/>
			<path style="clip-path:url(#SVGID_00000062181244649513929850000000312511505814289053_);fill:#333333;" d="M21.5,67.2
				c0.1,0,0.1,0,0.1-0.1l2.3-8c0-0.1,0-0.1-0.1-0.2c-0.1,0-0.1,0-0.2,0.1L21.4,67C21.4,67.1,21.4,67.2,21.5,67.2
				C21.5,67.2,21.5,67.2,21.5,67.2"/>
			<path style="clip-path:url(#SVGID_00000062181244649513929850000000312511505814289053_);fill:#EA997D;" d="M36.4,16
				c0,0-0.2,5.2,0,6c0.2,0.8,2.3,2.2,4.3,3.2c0,0-2.7,3.7-7.9,3.6c-5.3-0.1-6.6-2.3-7.4-3.5c0,0,4-1.4,4.1-3.1c0.1-1.7,0-6.2,0-6.2
				H36.4z"/>
			<path style="clip-path:url(#SVGID_00000062181244649513929850000000312511505814289053_);fill:#D87E66;" d="M33,20.9
				c-1.7,0-2.8-1.2-3.5-2c0-1.5,0-2.9,0-2.9h6.9c0,0-0.1,1.4-0.1,2.8C35.8,19.7,34.7,20.9,33,20.9"/>
			<path style="clip-path:url(#SVGID_00000062181244649513929850000000312511505814289053_);fill:#EA997D;" d="M38.4,10.8
				c-0.5,6-2.2,8.9-5.7,8.9c-3.5,0-5.2-2.4-5.7-8.9c-0.3-4.8,2.2-7.7,5.7-7.7C36.3,3.1,38.8,5.9,38.4,10.8"/>
			<path style="clip-path:url(#SVGID_00000062181244649513929850000000312511505814289053_);fill:#D87E66;" d="M32.7,15.3
				c-0.3,0-0.5-0.1-0.6-0.3c-0.3-0.7,0.3-1.8,0.4-1.9c0-0.1,0.1-0.2,0.2-0.1c0.1,0,0.1,0.2,0,0.3c-0.2,0.4-0.3,1.3-0.1,1.6
				c0,0.1,0.1,0.1,0.2,0.1c0.1,0,0.2,0.1,0.2,0.2C32.9,15.3,32.7,15.3,32.7,15.3"/>
			<path style="clip-path:url(#SVGID_00000062181244649513929850000000312511505814289053_);fill:#CE6565;" d="M32.7,17
				c-1,0-1.6-0.5-1.6-0.5c-0.1-0.1-0.1-0.2,0-0.3c0.1-0.1,0.2-0.1,0.3,0c0.1,0,1.3,0.9,2.9,0c0.1-0.1,0.2,0,0.3,0.1
				c0.1,0.1,0,0.2-0.1,0.3C33.7,16.8,33.2,17,32.7,17"/>
			<path style="clip-path:url(#SVGID_00000062181244649513929850000000312511505814289053_);fill:#23242B;" d="M29.8,11.8
				c0,0.3-0.2,0.6-0.4,0.6s-0.4-0.3-0.4-0.6c0-0.3,0.2-0.6,0.4-0.6S29.8,11.5,29.8,11.8"/>
			<path style="clip-path:url(#SVGID_00000062181244649513929850000000312511505814289053_);fill:#23242B;" d="M36.3,11.8
				c0,0.3-0.2,0.6-0.4,0.6s-0.4-0.3-0.4-0.6c0-0.3,0.2-0.6,0.4-0.6S36.3,11.5,36.3,11.8"/>
			<path style="clip-path:url(#SVGID_00000062181244649513929850000000312511505814289053_);fill:#EFCBB4;" d="M31,10.1
				c0,0,0,0.2-0.6,0.1c-0.4-0.1-2,0-2.1-0.2c-0.1-0.2,0.4-0.4,0.5-0.4c0.3,0,1.6,0.1,1.8,0.2C30.9,9.8,31,10.1,31,10.1"/>
			<path style="clip-path:url(#SVGID_00000062181244649513929850000000312511505814289053_);fill:#EFCBB4;" d="M34.4,10.1
				c0,0,0,0.2,0.6,0.1c0.4-0.1,2-0.1,2.1-0.3c0.1-0.2-0.4-0.4-0.5-0.4c-0.3,0-1.5,0.2-1.8,0.3C34.5,9.8,34.4,10.1,34.4,10.1"/>
			<path style="clip-path:url(#SVGID_00000062181244649513929850000000312511505814289053_);fill:#EFCBB4;" d="M35.4,6
				c0,0-2.5-2-2.9,1.3c-0.1,1.1-0.9,2.3-4.7,2.1l0,2.3L27,11.1c0,0-0.3-1.5-0.8-2c-0.5-0.5-1.1-1.8-0.3-2.4c0.8-0.7-1.1-1.8,1.1-3.3
				c2.9-2,8-3.1,9.1-0.2c0,0,1.2-0.6,2.4,0.6c1.1,1.2,2,2.9,1.4,4.4C39.7,8.5,39.2,9,39,9.4c-0.3,0.6-0.5,1.8-0.5,1.8l-0.8,0.3
				c0,0-0.2-1.8-0.3-2.4C37.3,8.5,37.4,6.2,35.4,6"/>
			<path style="clip-path:url(#SVGID_00000062181244649513929850000000312511505814289053_);fill:#EA997D;" d="M28,11.1
				c0,0-0.3-0.8-1.4-0.7c-1.1,0.1-0.7,2.9,0.2,3.4c1,0.5,1.3-0.9,1.3-0.9L28,11.1z"/>
			<path style="clip-path:url(#SVGID_00000062181244649513929850000000312511505814289053_);fill:#EA997D;" d="M37.5,11.1
				c0,0,0.3-0.8,1.4-0.7c1.1,0.1,0.7,2.9-0.2,3.4c-1,0.5-1.3-0.9-1.3-0.9L37.5,11.1z"/>
			<path style="clip-path:url(#SVGID_00000062181244649513929850000000312511505814289053_);fill:#CEA289;" d="M32.7,6.2L32.7,6.2
				C32.7,6.2,32.7,6.2,32.7,6.2c-0.1-0.1-0.1-1.1,0.5-1.6c0.2-0.2,0.5-0.3,0.8-0.3c1.3,0,1.6,1.5,1.6,1.5c0,0,0,0.1-0.1,0.1
				c0,0-0.1,0-0.1-0.1c0-0.1-0.3-1.4-1.4-1.4c-0.3,0-0.5,0.1-0.7,0.3C32.8,5.2,32.8,6.1,32.7,6.2C32.8,6.2,32.8,6.2,32.7,6.2"/>
			<path style="clip-path:url(#SVGID_00000062181244649513929850000000312511505814289053_);fill:#CEA289;" d="M29,8.3
				c-0.3,0-0.7-0.1-1.1-0.2c0,0-0.1,0,0-0.1c0,0,0-0.1,0.1,0c2.5,0.7,3.1-1,3.7-2.7c0.3-0.8,0.5-1.5,0.9-1.9c0.3-0.3,0.6-0.4,1-0.4
				c1,0.1,2,1.6,2,1.6c0,0,0,0.1,0,0.1c0,0-0.1,0-0.1,0c0,0-0.9-1.5-1.9-1.6c-0.3,0-0.6,0.1-0.9,0.4c-0.4,0.4-0.6,1.1-0.9,1.9
				C31.2,6.8,30.7,8.3,29,8.3"/>
			<path style="clip-path:url(#SVGID_00000062181244649513929850000000312511505814289053_);fill:#EA997D;" d="M53.6,71.8
				c0,0,0.7,7.3-3.1,8.1c0,0-1.6,0.3-2,0.2c0,0-0.2-0.4,0.3-0.7c0.4-0.4,1.8-0.8,1.8-1.4c0-0.6,0.1-2.4-0.3-2.3
				c-0.4,0.1-0.8,2.4-1.6,2.2c0,0-0.2,0-0.1-0.8c0.1-0.8,0.7-3.8,1-4.3c0.3-0.5,0.6-2.2,0.6-2.2s2-1.5,3.2,0L53.6,71.8z"/>
			<path style="clip-path:url(#SVGID_00000062181244649513929850000000312511505814289053_);fill:#E6E8EF;" d="M53.7,68.7
				c0,0,0.1,2,0.2,2.6c0,0-2.2,1.2-4.5,0.3c0,0-0.2-2-0.2-2.4L53.7,68.7z"/>
			<path style="clip-path:url(#SVGID_00000062181244649513929850000000312511505814289053_);fill:#455E5D;" d="M46.3,28
				c0,0,2.4,1.3,3.1,5.9c0.6,3.8,2,11.8,3,18.7c0,0,1.8,7.3,2.1,16.8c0,0-2.4,1.2-6.1,0.7c0,0-1.8-12-2.6-16.1
				c-0.4-2.1-1.9-8.2-2.6-14.2C42.6,34.1,43.8,28.8,46.3,28"/>
			<path style="clip-path:url(#SVGID_00000062181244649513929850000000312511505814289053_);fill:#E6E8EF;" d="M29,22.9
				c0,0,3.7,2.7,8.3,0c0,0,5.5,3.1,8.1,4.7c0,0-0.7,25.2-1.2,32.7c0,0-12.2,1.5-23.3,0c0,0-0.9-31.1-0.8-32.3
				C20,28,25.3,24.6,29,22.9"/>
			<path style="clip-path:url(#SVGID_00000062181244649513929850000000312511505814289053_);fill:#CED2DD;" d="M33.4,24.1l-1.9,2.5
				l-3.3-3.3c0.3-0.1,0.5-0.3,0.8-0.4C29,22.9,30.8,24.2,33.4,24.1"/>
			<path style="clip-path:url(#SVGID_00000062181244649513929850000000312511505814289053_);fill:#CED2DD;" d="M33.5,24.1
				c1.1-0.1,2.5-0.4,3.9-1.2c0,0,0.1,0.1,0.4,0.2l-2.2,3.2L33.5,24.1z"/>
			<path style="clip-path:url(#SVGID_00000062181244649513929850000000312511505814289053_);fill:#FF5D54;" d="M35.2,25.2l-1,1.7
				c0,0,3.1,15.1,2.6,26.4c0,0-1,2-2.7,3.5c0,0-1.9-1.7-2.5-3.4c0,0-0.1-17.3,1.2-26.4l-1-1.5l1.6-1.9L35.2,25.2z"/>
			<polygon style="clip-path:url(#SVGID_00000062181244649513929850000000312511505814289053_);fill:#E6E8EF;" points="29.1,20.6 
				33.4,23.4 36.7,20.9 37.7,23 35.4,25.6 33.4,23.7 31.6,25.9 28.3,23.2 			"/>
			<path style="clip-path:url(#SVGID_00000062181244649513929850000000312511505814289053_);fill:#455E5D;" d="M37.4,22.5
				c0,0,1.9,22.2,2.2,38c0,0,0.2,9.3,2.2,9.9c2,0.6,5.3-0.1,5.5-1.1c0.2-1-1-10.8-1.1-14.4C46,51.4,46.3,28,46.3,28s-1.9-2-6.4-3.8
				c0,0-0.1-0.4-0.3-0.5C39.6,23.5,37.5,22.3,37.4,22.5"/>
			<path style="clip-path:url(#SVGID_00000062181244649513929850000000312511505814289053_);fill:#324443;" d="M39.9,46.2
				c0,0,0.1,0,0.1-0.1c2.6-5,2.4-13.9,2.4-14l0-0.1l-2.3-2l1.8-1.3l-1.8-4.1c0-0.1-0.1-0.1-0.2-0.1c-0.1,0-0.1,0.1-0.1,0.2l1.7,3.9
				L39.7,30l2.5,2.1c0,0.8,0,9-2.4,13.8C39.8,46,39.8,46.1,39.9,46.2C39.9,46.2,39.9,46.2,39.9,46.2"/>
			<path style="clip-path:url(#SVGID_00000062181244649513929850000000312511505814289053_);fill:#455E5D;" d="M28.5,22.6
				c0,0-0.2,22.1-0.6,38c0,0-1.3,9.3-3.3,9.9c-2,0.6-6.5-0.1-6.7-1.1c-0.2-1,1.7-10.8,1.9-14.4c0.2-3.5-1.2-26.5-1.2-26.5
				s2.8-1.8,7.4-4.2c0,0,0.1-0.4,0.3-0.5C26.4,23.5,28.5,22.3,28.5,22.6"/>
			<path style="clip-path:url(#SVGID_00000062181244649513929850000000312511505814289053_);fill:#324443;" d="M27.5,46.1
				c0,0-0.1,0-0.1-0.1c-2.9-4.9-3.3-13.7-3.3-13.8l0-0.1l2.2-2.2l-1.9-1.2l1.5-4.2c0-0.1,0.1-0.1,0.2-0.1c0.1,0,0.1,0.1,0.1,0.2
				l-1.4,4l1.9,1.3l-2.3,2.3c0,0.8,0.5,9,3.3,13.6C27.6,45.9,27.6,46,27.5,46.1C27.5,46.1,27.5,46.1,27.5,46.1"/>
			<path style="clip-path:url(#SVGID_00000062181244649513929850000000312511505814289053_);fill:#324443;" d="M46.1,54.1
				c0.1,0,0.1,0,0.1-0.1l0.1-20.1c0-0.1-0.1-0.1-0.1-0.1c-0.1,0-0.1,0.1-0.1,0.1L46,54.1C46,54.1,46.1,54.1,46.1,54.1L46.1,54.1z"/>
			<polygon style="clip-path:url(#SVGID_00000062181244649513929850000000312511505814289053_);fill:#9B9BA7;" points="27.6,31.1 
				32,47.2 31.8,47.8 27.4,31.5 			"/>
			<path style="clip-path:url(#SVGID_00000062181244649513929850000000312511505814289053_);fill:#455E5D;" d="M18.6,28.4
				c0,0-3.6,2.7-6.2,11.8C10,48.4,8.9,50.8,10.7,52c3.1,2.2,5.1,0.9,9.3-7.4C20,44.7,21.9,32.6,18.6,28.4"/>
			<path style="clip-path:url(#SVGID_00000062181244649513929850000000312511505814289053_);fill:#455E5D;" d="M14.6,43.2
				c0,0-1.3,0.2-2.2,1.8s-2.3,2.9-2.5,4.3c-0.2,1.4,0,2.7,1.4,3.3c1.4,0.6,2.9,0.3,3.6-0.3c0.7-0.6,3.4-5.3,3.4-5.3s0.9-1.8-1.6-3.3
				C15.2,42.9,14.6,43.2,14.6,43.2"/>
			<path style="clip-path:url(#SVGID_00000062181244649513929850000000312511505814289053_);fill:#324443;" d="M11.2,46.5
				c0.4-0.5,0.8-1,1.1-1.6c0.6-1,1.3-1.5,1.8-1.7c0,0.1-0.1,0.2-0.1,0.3c-0.4,0.2-1,0.7-1.5,1.5c-0.3,0.6-0.7,1.1-1.1,1.6
				c-0.4,0.5-0.8,1.1-1.1,1.6c-0.1-0.1-0.1-0.1-0.2-0.2C10.4,47.6,10.8,47.1,11.2,46.5"/>
			<path style="clip-path:url(#SVGID_00000062181244649513929850000000312511505814289053_);fill:#324443;" d="M18.3,47.2
				c-0.3,0.5-2,3.4-2.9,4.7c-0.1,0-0.2,0-0.3-0.1c0.9-1.2,2.6-4.1,3-4.7C18.2,47.2,18.3,47.2,18.3,47.2"/>
			<path style="clip-path:url(#SVGID_00000062181244649513929850000000312511505814289053_);fill:#E6E8EF;" d="M13.6,45
				c0-1.2,0.6-2,1.8-2c1.2,0,3,1.6,3,2.8c0,1.2-0.9,1.8-2.2,1.8C15,47.6,13.6,46.2,13.6,45"/>
			<polygon style="clip-path:url(#SVGID_00000062181244649513929850000000312511505814289053_);fill:#9B9BA7;" points="27.6,31.1 
				12.4,31.1 12.1,31.5 27.4,31.5 			"/>
			<polygon style="clip-path:url(#SVGID_00000062181244649513929850000000312511505814289053_);fill:#C7CAD3;" points="27.4,31.5 
				12.2,31.5 17.8,48 31.8,47.7 			"/>
			<path style="clip-path:url(#SVGID_00000062181244649513929850000000312511505814289053_);fill:#717891;" d="M22.2,38.1
				c-0.1-0.9-0.6-1.6-1.2-1.6c-0.6,0-0.9,0.8-0.9,1.7c0.1,0.9,0.6,1.6,1.2,1.6C21.9,39.8,22.3,39,22.2,38.1"/>
			<path style="clip-path:url(#SVGID_00000062181244649513929850000000312511505814289053_);fill:#EA997D;" d="M16,42.7
				c0,0,3-2.8,4.1-3.9c0,0,0.5-0.6,0.8-0.2c0.4,0.4-0.2,1-0.2,1l-2.2,2.7c0,0,1.2-0.6,1.7-0.8c0.5-0.2,1.8-1,2.1-1
				c0.4,0,0.7,0.8-0.2,1.1c0,0,0.4-0.1,0.6,0.2c0.1,0.2,0.1,0.4-0.3,0.8c0,0,0.5,0.5-0.5,1.4c-0.9,0.8-2,1.8-2.3,1.9
				c-0.5,0.4-2.4,0.9-2.9,0.9c-0.5-0.1-2.2-0.9-2.2-3.2c0.1-2.4,0.6-2.9,0.6-2.9L16,42.7z"/>
			<path style="clip-path:url(#SVGID_00000062181244649513929850000000312511505814289053_);fill:#D87E66;" d="M19.2,43.5
				C19.2,43.5,19.3,43.5,19.2,43.5l2.9-1.7c0,0,0-0.1,0-0.1c0,0-0.1,0-0.1,0l-2.9,1.6C19.2,43.4,19.2,43.4,19.2,43.5
				C19.2,43.5,19.2,43.5,19.2,43.5"/>
			<path style="clip-path:url(#SVGID_00000062181244649513929850000000312511505814289053_);fill:#D87E66;" d="M20,44.5
				C20,44.5,20,44.5,20,44.5l2.5-1.7c0,0,0-0.1,0-0.1c0,0-0.1,0-0.1,0l-2.5,1.7C19.9,44.4,19.9,44.4,20,44.5
				C19.9,44.5,20,44.5,20,44.5"/>
		</g>
	</g>
</g>
</svg>
